<svg xmlns="http://www.w3.org/2000/svg" xmlns:xlink="http://www.w3.org/1999/xlink" xmlns:lucid="lucid" width="1252.5" height="650"><g transform="translate(-400 -122.5)" lucid:page-tab-id="RDTqwUgT3ghs"><path d="M0 0h1870.4v1323.2H0z" fill="#fff"/><path d="M442.5 148.5c0-3.3 2.7-6 6-6h1178c3.3 0 6 2.7 6 6v598c0 3.3-2.7 6-6 6h-1178c-3.3 0-6-2.7-6-6z" stroke="#5e5e5e" stroke-width="3" fill="#d1f39e"/><path d="M442.5 148.5c0-3.3 2.7-6 6-6h1178c3.3 0 6 2.7 6 6v68c0 3.3-2.7 6-6 6h-1178c-3.3 0-6-2.7-6-6z" stroke="#5e5e5e" stroke-width="3" fill="#ffc374"/><path d="M420 158.5c0-3.3 2.7-6 6-6h228c3.3 0 6 2.7 6 6v48c0 3.3-2.7 6-6 6H426c-3.3 0-6-2.7-6-6z" stroke="#000" stroke-opacity="0" stroke-width="3" fill="#fff" fill-opacity="0"/><use xlink:href="#a" transform="matrix(1,0,0,1,425,157.49999999999997) translate(55.80246913580246 30.27777777777778)"/><path d="M442.5 228.5c0-3.3 2.7-6 6-6h1178c3.3 0 6 2.7 6 6v28c0 3.3-2.7 6-6 6h-1178c-3.3 0-6-2.7-6-6z" stroke="#5e5e5e" stroke-width="3" fill="#fff"/><path d="M611.1 263v-38" stroke="#5e5e5e" stroke-width="2" fill="none"/><path d="M612.1 264h-2v-1.03h2zM612.1 225.03h-2V224h2z" fill="#5e5e5e"/><path d="M420 218.5c0-3.3 2.7-6 6-6h228c3.3 0 6 2.7 6 6v48c0 3.3-2.7 6-6 6H426c-3.3 0-6-2.7-6-6z" stroke="#000" stroke-opacity="0" stroke-width="3" fill="#fff" fill-opacity="0"/><use xlink:href="#b" transform="matrix(1,0,0,1,425,217.5) translate(65.03086419753086 30.27777777777778)"/><use xlink:href="#c" transform="matrix(1,0,0,1,425,217.5) translate(140.27777777777777 30.27777777777778)"/><path d="M597.5 228.5c0-3.3 2.7-6 6-6h208c3.3 0 6 2.7 6 6v28c0 3.3-2.7 6-6 6h-208c-3.3 0-6-2.7-6-6z" stroke="#000" stroke-opacity="0" stroke-width="3" fill-opacity="0"/><use xlink:href="#d" transform="matrix(1,0,0,1,602.5,227.5) translate(39.62962962962962 19.65277777777778)"/><path d="M817.54 263v-38" stroke="#5e5e5e" stroke-width="2" fill="none"/><path d="M818.54 264h-2v-1.03h2zM818.54 225.03h-2V224h2z" fill="#5e5e5e"/><path d="M470 293.5c0-3.3 2.7-6 6-6h1083c3.3 0 6 2.7 6 6v308c0 3.3-2.7 6-6 6H476c-3.3 0-6-2.7-6-6z" stroke="#333" stroke-width="3" fill="#fff"/><path d="M1533 293.5c0-3.3 2.7-6 6-6h20c3.3 0 6 2.7 6 6v308c0 3.3-2.7 6-6 6h-20c-3.3 0-6-2.7-6-6z" stroke="#333" stroke-width="3" fill="#fff"/><path d="M1539 299.5c0-3.3 2.7-6 6-6h8c3.3 0 6 2.7 6 6v8c0 3.3-2.7 6-6 6h-8c-3.3 0-6-2.7-6-6z" stroke="#333" stroke-width="3" fill="none"/><path d="M1543 307.5h12l-6-8z" stroke="#333" stroke-width="3" fill="#333"/><path d="M1539 325.5c0-3.3 2.7-6 6-6h8c3.3 0 6 2.7 6 6v122c0 3.3-2.7 6-6 6h-8c-3.3 0-6-2.7-6-6zM1545 380.5h8m-8 6h8m-8 6h8M1539 595.5c0 3.3 2.7 6 6 6h8c3.3 0 6-2.7 6-6v-8c0-3.3-2.7-6-6-6h-8c-3.3 0-6 2.7-6 6z" stroke="#333" stroke-width="3" fill="none"/><path d="M1543 587.5h12l-6 8z" stroke="#333" stroke-width="3" fill="#333"/><path d="M549.47 305.67c-1.1-3.13-2.85-3.13-3.94 0l-7.82 22.48c-1.07 3.13-4.64 5.72-7.95 5.8l-23.8.48c-3.32.06-3.86 1.74-1.22 3.74l18.97 14.4c2.64 2 4 6.18 3.04 9.35l-6.9 22.8c-.95 3.16.48 4.2 3.2 2.3l19.54-13.6c2.72-1.9 7.12-1.9 9.84 0l19.54 13.6c2.72 1.9 4.15.86 3.2-2.3l-6.9-22.8c-.96-3.17.4-7.36 3.04-9.36l18.97-14.4c2.64-2 2.1-3.67-1.22-3.73l-23.8-.5c-3.3-.06-6.88-2.65-7.96-5.78zM615.88 370c-10.15 0-18.38-8.95-18.38-20 0-8.84 4.98-16.3 12.7-19.02C609.75 305 640.37 300 652.62 310c6.13-15 36.75-10 36.75 5 18.38-5 36.75 15 24.5 40 12.25 20 0 45-24.5 35-6.12 13-30.62 13-36.75 0-12.25 10-36.75 5-36.75-20zM732.68 355.37c-1.48-2.97-1.48-7.77 0-10.74l19.64-39.26c1.48-2.97 5.37-5.37 8.68-5.37h38c3.3 0 7.2 2.4 8.68 5.37l19.64 39.26c1.48 2.97 1.48 7.77 0 10.74l-19.64 39.26C806.2 397.6 802.3 400 799 400h-38c-3.3 0-7.2-2.4-8.68-5.37zM843.13 394.88c-1.73 2.83-.44 5.12 2.87 5.12h110.5c3.3 0 4.6-2.3 2.87-5.12l-55-89.76c-1.72-2.83-4.52-2.83-6.25 0zM962.5 331c0-3.3 2.7-6 6-6h13c3.3 0 6-2.7 6-6v-13c0-3.3 2.7-6 6-6h38c3.3 0 6 2.7 6 6v13c0 3.3 2.7 6 6 6h13c3.3 0 6 2.7 6 6v38c0 3.3-2.7 6-6 6h-13c-3.3 0-6 2.7-6 6v13c0 3.3-2.7 6-6 6h-38c-3.3 0-6-2.7-6-6v-13c0-3.3-2.7-6-6-6h-13c-3.3 0-6-2.7-6-6z" stroke="#333" stroke-width="3" fill="#fff"/><path d="M1089.6 400.63c-3.32 0-6-2.68-6-6v-46.15c0-3.32-2.7-6-6-6H1066c-3.3 0-4-1.8-1.54-4.02l38.28-34.45c2.46-2.2 6.45-2.2 8.92 0l38.27 34.46c2.47 2.22 1.78 4.02-1.54 4.02h-11.6c-3.32 0-6 2.68-6 6v46.15c0 3.32-2.7 6-6 6zM911.97 425.67c-1.1-3.13-2.85-3.13-3.94 0l-7.82 22.48c-1.07 3.13-4.64 5.72-7.95 5.8l-23.8.48c-3.32.06-3.86 1.74-1.22 3.74l18.97 14.4c2.64 2 4 6.18 3.04 9.35l-6.9 22.8c-.95 3.16.48 4.2 3.2 2.3l19.54-13.6c2.72-1.9 7.12-1.9 9.84 0l19.54 13.6c2.72 1.9 4.15.86 3.2-2.3l-6.9-22.8c-.96-3.17.4-7.36 3.04-9.36l18.97-14.4c2.64-2 2.1-3.67-1.22-3.73l-23.8-.5c-3.3-.06-6.88-2.65-7.96-5.78zM978.38 490c-10.15 0-18.38-8.95-18.38-20 0-8.84 4.98-16.3 12.7-19.02-.45-25.98 30.17-30.98 42.42-20.98 6.13-15 36.75-10 36.75 5 18.38-5 36.76 15 24.5 40 12.26 20 0 45-24.5 35-6.12 13-30.62 13-36.74 0-12.25 10-36.75 5-36.75-20zM1095.18 475.37c-1.48-2.97-1.48-7.77 0-10.74l19.64-39.26c1.48-2.97 5.37-5.37 8.68-5.37h38c3.3 0 7.2 2.4 8.68 5.37l19.64 39.26c1.48 2.97 1.48 7.77 0 10.74l-19.64 39.26c-1.48 2.97-5.37 5.37-8.68 5.37h-38c-3.3 0-7.2-2.4-8.68-5.37zM1205.63 514.88c-1.73 2.83-.44 5.12 2.87 5.12H1319c3.3 0 4.6-2.3 2.87-5.12l-55-89.76c-1.72-2.83-4.52-2.83-6.25 0zM1325 451c0-3.3 2.7-6 6-6h13c3.3 0 6-2.7 6-6v-13c0-3.3 2.7-6 6-6h38c3.3 0 6 2.7 6 6v13c0 3.3 2.7 6 6 6h13c3.3 0 6 2.7 6 6v38c0 3.3-2.7 6-6 6h-13c-3.3 0-6 2.7-6 6v13c0 3.3-2.7 6-6 6h-38c-3.3 0-6-2.7-6-6v-13c0-3.3-2.7-6-6-6h-13c-3.3 0-6-2.7-6-6z" stroke="#333" stroke-width="3" fill="#fff"/><path d="M1452.1 520.63c-3.32 0-6-2.68-6-6v-46.15c0-3.32-2.7-6-6-6h-11.6c-3.3 0-4-1.8-1.54-4.02l38.28-34.45c2.46-2.2 6.45-2.2 8.92 0l38.27 34.46c2.47 2.22 1.78 4.02-1.54 4.02h-11.6c-3.32 0-6 2.68-6 6v46.15c0 3.32-2.7 6-6 6zM691.97 545.67c-1.1-3.13-2.85-3.13-3.94 0l-7.82 22.48c-1.07 3.13-4.64 5.72-7.95 5.8l-23.8.48c-3.32.06-3.86 1.74-1.22 3.74l18.97 14.4c2.64 2 4 6.18 3.04 9.35l-6.9 22.8c-.95 3.16.48 4.2 3.2 2.3l19.54-13.6c2.72-1.9 7.12-1.9 9.84 0l19.54 13.6c2.72 1.9 4.15.86 3.2-2.3l-6.9-22.8c-.96-3.17.4-7.36 3.04-9.36l18.97-14.4c2.64-2 2.1-3.67-1.22-3.73l-23.8-.5c-3.3-.06-6.88-2.65-7.96-5.78zM758.38 610c-10.15 0-18.38-8.95-18.38-20 0-8.84 4.98-16.3 12.7-19.02C752.25 545 782.87 540 795.12 550c6.13-15 36.75-10 36.75 5 18.38-5 36.75 15 24.5 40 12.25 20 0 45-24.5 35-6.12 13-30.62 13-36.75 0-12.25 10-36.75 5-36.75-20zM875.18 595.37c-1.48-2.97-1.48-7.77 0-10.74l19.64-39.26c1.48-2.97 5.37-5.37 8.68-5.37h38c3.3 0 7.2 2.4 8.68 5.37l19.64 39.26c1.48 2.97 1.48 7.77 0 10.74l-19.64 39.26c-1.48 2.97-5.37 5.37-8.68 5.37h-38c-3.3 0-7.2-2.4-8.68-5.37zM985.63 634.88c-1.73 2.83-.44 5.12 2.87 5.12H1099c3.3 0 4.6-2.3 2.87-5.12l-55-89.76c-1.72-2.83-4.52-2.83-6.25 0zM1105 571c0-3.3 2.7-6 6-6h13c3.3 0 6-2.7 6-6v-13c0-3.3 2.7-6 6-6h38c3.3 0 6 2.7 6 6v13c0 3.3 2.7 6 6 6h13c3.3 0 6 2.7 6 6v38c0 3.3-2.7 6-6 6h-13c-3.3 0-6 2.7-6 6v13c0 3.3-2.7 6-6 6h-38c-3.3 0-6-2.7-6-6v-13c0-3.3-2.7-6-6-6h-13c-3.3 0-6-2.7-6-6z" stroke="#333" stroke-width="3" fill="#fff"/><path d="M1232.1 640.63c-3.32 0-6-2.68-6-6v-46.15c0-3.32-2.7-6-6-6h-11.6c-3.3 0-4-1.8-1.54-4.02l38.28-34.45c2.46-2.2 6.45-2.2 8.92 0l38.27 34.46c2.47 2.22 1.78 4.02-1.54 4.02h-11.6c-3.32 0-6 2.68-6 6v46.15c0 3.32-2.7 6-6 6zM1321.2 583.53c-1-3.16.35-7.33 3-9.3l41.94-31.27c2.65-2 6.96-2 9.62 0l41.93 31.26c2.65 1.98 4 6.15 3 9.3l-16.08 50.76c-1 3.16-4.5 5.72-7.8 5.72h-51.73c-3.33 0-6.83-2.56-7.83-5.72zM593.06 544.24c2.34-2.34 6.14-2.34 8.48 0l28.82 28.82c2.34 2.34 1.56 4.24-1.76 4.24h-6.65c-3.3 0-6 2.7-6 6v28.42c0 3.32 2.7 6 6 6h6.65c3.32 0 4.1 1.9 1.76 4.25l-28.82 28.8c-2.34 2.35-6.14 2.35-8.48 0l-28.82-28.8c-2.34-2.35-1.55-4.25 1.76-4.25h6.65c3.3 0 6-2.68 6-6V583.3c0-3.3-2.7-6-6-6H566c-3.3 0-4.1-1.9-1.76-4.24zM1334.4 361.25c-8.3 0-15-8.95-15-20 0-8.84 4.05-16.3 10.36-19.02-.37-25.98 24.63-30.98 34.63-20.98 5-15 30-10 30 5 15-5 30 15 20 40 10 20 0 45-20 35-5 13-25 13-30 0-10 10-30 5-30-20zM1174.1 335c0-3.3 2.1-7.67 4.68-9.74l27.04-21.52c2.6-2.07 7.38-3.74 10.7-3.74h40.75c3.3 0 8.1 1.67 10.7 3.74l27.03 21.52c2.6 2.07 4.7 6.43 4.7 9.74v30c0 3.3-2.1 7.67-4.7 9.74l-27.04 21.52c-2.6 2.07-7.38 3.74-10.7 3.74h-40.75c-3.3 0-8.1-1.67-10.68-3.74l-27.04-21.52c-2.6-2.07-4.7-6.43-4.7-9.74zM1489.75 306.32c-1.05-3.14-2.77-3.14-3.83 0l-7.63 22.66c-1.07 3.14-4.6 5.74-7.92 5.8l-22.9.5c-3.32.06-3.9 1.77-1.28 3.82l18.37 14.37c2.6 2.04 3.97 6.27 3.04 9.45l-6.73 22.98c-.93 3.18.5 4.2 3.2 2.25l18.9-13.58c2.7-1.93 7.05-1.93 9.74 0l18.92 13.58c2.7 1.94 4.12.93 3.2-2.25l-6.75-22.98c-.93-3.18.43-7.4 3.04-9.45l18.38-14.37c2.6-2.05 2.04-3.76-1.28-3.83l-22.9-.48c-3.3-.08-6.86-2.68-7.9-5.82zM727.5 426c0-3.3 2.7-6 6-6h108c3.3 0 6 2.7 6 6v90.82c0 3.3-2.7 6-6 6h-108c-3.3 0-6-2.7-6-6zM583.02 476.6c-1.67-2.87-1.67-7.5 0-10.37l23.96-41.05c1.67-2.86 5.7-5.18 9.02-5.18h48c3.3 0 7.35 2.32 9.02 5.18l23.96 41.05c1.67 2.86 1.67 7.5 0 10.36l-23.96 41.03c-1.67 2.87-5.7 5.2-9.02 5.2h-48c-3.3 0-7.35-2.33-9.02-5.2zM1489.8 545.04c-1.1-3.13-2.84-3.13-3.92 0l-9.5 27.56c-1.08 3.13-4.64 5.72-7.95 5.8l-28.85.58c-3.3.07-3.86 1.76-1.23 3.77l23.02 17.6c2.63 2 4 6.2 3.04 9.4l-8.37 27.9c-.95 3.2.48 4.22 3.2 2.3l23.7-16.62c2.7-1.9 7.1-1.9 9.82 0l23.7 16.63c2.72 1.9 4.15.88 3.2-2.3l-8.4-27.92c-.94-3.18.42-7.38 3.06-9.4l23.02-17.6c2.64-2 2.1-3.7-1.23-3.76l-28.85-.6c-3.3-.06-6.88-2.65-7.96-5.78z" stroke="#333" stroke-width="3" fill="#fff"/><path d="M475 613.5c0-3.3 2.7-6 6-6h1073c3.3 0 6 2.7 6 6v108c0 3.3-2.7 6-6 6H481c-3.3 0-6-2.7-6-6z" stroke="#000" stroke-opacity="0" stroke-width="3" fill="#d1f39e"/><path d="M508.25 515.23c-3.3 0-6-2.68-6-6v-43.18c0-3.32-2.7-6-6-6H486c-3.3 0-4-1.8-1.54-4.02L520.04 424c2.46-2.2 6.45-2.2 8.92 0l35.58 32.03c2.46 2.22 1.77 4.02-1.54 4.02h-10.25c-3.32 0-6 2.68-6 6v43.18c0 3.32-2.7 6-6 6zM1433.48 628.5c0-3.3 2.7-6 6-6h71.4c3.33 0 6 2.7 6 6v108c0 3.3-2.67 6-6 6h-71.4c-3.3 0-6-2.7-6-6z" stroke="#333" stroke-width="3" fill="#fff"/><path d="M1477.4 635.92c-1.23-3.08-3.23-3.08-4.47 0l-4 10c-1.24 3.07-4.93 5.6-8.24 5.67l-13.85.24c-3.3.06-3.75 1.58-.98 3.4l10.56 6.93c2.77 1.82 4.13 5.83 3.03 8.96l-3.52 10.1c-1.1 3.12.32 4.27 3.16 2.55l10.93-6.58c2.84-1.7 7.44-1.7 10.28 0l10.94 6.58c2.84 1.72 4.25.57 3.16-2.56l-3.53-10.1c-1.1-3.12.27-7.13 3.04-8.95l10.57-6.93c2.77-1.82 2.33-3.34-.98-3.4l-13.85-.25c-3.3-.07-7-2.6-8.23-5.68z" stroke="#333" stroke-width="3" fill="#fff"/><path d="M1500 628.5c0-3.3 2.7-6 6-6h53c3.3 0 6 2.7 6 6v108c0 3.3-2.7 6-6 6h-53c-3.3 0-6-2.7-6-6z" stroke="#333" stroke-width="3" fill="#fff"/><path d="M1514 661.6c-1.52-2.96-1.52-7.74 0-10.7l6.7-13.06c1.5-2.95 5.42-5.34 8.74-5.34h12.37c3.33 0 7.24 2.4 8.75 5.34l6.7 13.07c1.52 2.96 1.52 7.74 0 10.7l-6.7 13.06c-1.5 2.95-5.42 5.34-8.74 5.34h-12.36c-3.32 0-7.23-2.4-8.74-5.34z" stroke="#333" stroke-width="3" fill="#fff"/><path d="M480 638.5c0-3.3 2.7-6 6-6h110.07c3.32 0 6 2.7 6 6v78c0 3.3-2.68 6-6 6H486c-3.3 0-6-2.7-6-6z" stroke="#000" stroke-opacity="0" stroke-width="3" fill="#df9e49"/><use xlink:href="#e" transform="matrix(1,0,0,1,485,637.5) translate(25.01851851851852 17.77777777777778)"/><use xlink:href="#f" transform="matrix(1,0,0,1,485,637.5) translate(56.5 44.44444444444444)"/><use xlink:href="#g" transform="matrix(1,0,0,1,485,637.5) translate(32.425925925925924 71.11111111111111)"/><use xlink:href="#h" transform="matrix(1,0,0,1,485,637.5) translate(50.94444444444444 71.11111111111111)"/><path d="M615.43 638.5c0-3.3 2.68-6 6-6H731.5c3.3 0 6 2.7 6 6v78c0 3.3-2.7 6-6 6H621.43c-3.32 0-6-2.7-6-6z" stroke="#000" stroke-opacity="0" stroke-width="3" fill="#df9e49"/><use xlink:href="#i" transform="matrix(1,0,0,1,620.426434304653,637.5) translate(32.425925925925924 17.77777777777778)"/><use xlink:href="#f" transform="matrix(1,0,0,1,620.426434304653,637.5) translate(56.5 44.44444444444444)"/><use xlink:href="#j" transform="matrix(1,0,0,1,620.426434304653,637.5) translate(32.425925925925924 71.11111111111111)"/><use xlink:href="#h" transform="matrix(1,0,0,1,620.426434304653,637.5) translate(50.94444444444444 71.11111111111111)"/><path d="M1480 228.5c0-3.3 2.7-6 6-6h140.5c3.3 0 6 2.7 6 6v28c0 3.3-2.7 6-6 6H1486c-3.3 0-6-2.7-6-6z" stroke="#000" stroke-opacity="0" stroke-width="3" fill="#df9e49"/><use xlink:href="#k" transform="matrix(1,0,0,1,1485,227.49999999999994) translate(49.37037037037037 19.65277777777778)"/><path d="M1174.1 638.5c0-3.3 2.67-6 6-6h228c3.3 0 6 2.7 6 6v78c0 3.3-2.7 6-6 6h-228c-3.33 0-6-2.7-6-6z" stroke="#000" stroke-opacity="0" stroke-width="3" fill="#df9e49"/><use xlink:href="#l" transform="matrix(1,0,0,1,1179.088525562779,637.5) translate(65.03086419753086 17.77777777777778)"/><use xlink:href="#f" transform="matrix(1,0,0,1,1179.088525562779,637.5) translate(115 44.44444444444444)"/><use xlink:href="#m" transform="matrix(1,0,0,1,1179.088525562779,637.5) translate(108.82716049382717 71.11111111111111)"/><path d="M923.75 638.5c0-3.3 2.7-6 6-6h228c3.3 0 6 2.7 6 6v78c0 3.3-2.7 6-6 6h-228c-3.3 0-6-2.7-6-6z" stroke="#000" stroke-opacity="0" stroke-width="3" fill="#df9e49"/><g><use xlink:href="#n" transform="matrix(1,0,0,1,928.75,637.5) translate(52.685185185185176 17.77777777777778)"/><use xlink:href="#f" transform="matrix(1,0,0,1,928.75,637.5) translate(115 44.44444444444444)"/><use xlink:href="#o" transform="matrix(1,0,0,1,928.75,637.5) translate(103.48765432098766 71.11111111111111)"/></g><path d="M1480 263v-38M1480 262.97V264M1480 225.03V224" stroke="#5e5e5e" stroke-width="2" fill="none"/><path d="M750.43 638.5c0-3.3 2.68-6 6-6H866.5c3.3 0 6 2.7 6 6v78c0 3.3-2.7 6-6 6H756.43c-3.32 0-6-2.7-6-6z" stroke="#000" stroke-opacity="0" stroke-width="3" fill="#df9e49"/><g><use xlink:href="#p" transform="matrix(1,0,0,1,755.426434304653,637.5) translate(28.753086419753085 17.77777777777778)"/><use xlink:href="#f" transform="matrix(1,0,0,1,755.426434304653,637.5) translate(56.5 44.44444444444444)"/><use xlink:href="#q" transform="matrix(1,0,0,1,755.426434304653,637.5) translate(32.425925925925924 71.11111111111111)"/><use xlink:href="#h" transform="matrix(1,0,0,1,755.426434304653,637.5) translate(50.94444444444444 71.11111111111111)"/></g><defs><path fill="#333" d="M30 0v-248h187v28H63v79h144v27H63v87h162V0H30" id="r"/><path fill="#333" d="M117-194c89-4 53 116 60 194h-32v-121c0-31-8-49-39-48C34-167 62-67 57 0H25l-1-190h30c1 10-1 24 2 32 11-22 29-35 61-36" id="s"/><path fill="#333" d="M96-169c-40 0-48 33-48 73s9 75 48 75c24 0 41-14 43-38l32 2c-6 37-31 61-74 61-59 0-76-41-82-99-10-93 101-131 147-64 4 7 5 14 7 22l-32 3c-4-21-16-35-41-35" id="t"/><path fill="#333" d="M84 4C-5 8 30-112 23-190h32v120c0 31 7 50 39 49 72-2 45-101 50-169h31l1 190h-30c-1-10 1-25-2-33-11 22-28 36-60 37" id="u"/><path fill="#333" d="M100-194c63 0 86 42 84 106H49c0 40 14 67 53 68 26 1 43-12 49-29l28 8c-11 28-37 45-77 45C44 4 14-33 15-96c1-61 26-98 85-98zm52 81c6-60-76-77-97-28-3 7-6 17-6 28h103" id="v"/><path fill="#333" d="M59-47c-2 24 18 29 38 22v24C64 9 27 4 27-40v-127H5v-23h24l9-43h21v43h35v23H59v120" id="w"/><path fill="#333" d="M114-163C36-179 61-72 57 0H25l-1-190h30c1 12-1 29 2 39 6-27 23-49 58-41v29" id="x"/><path fill="#333" d="M141-36C126-15 110 5 73 4 37 3 15-17 15-53c-1-64 63-63 125-63 3-35-9-54-41-54-24 1-41 7-42 31l-33-3c5-37 33-52 76-52 45 0 72 20 72 64v82c-1 20 7 32 28 27v20c-31 9-61-2-59-35zM48-53c0 20 12 33 32 33 41-3 63-29 60-74-43 2-92-5-92 41" id="y"/><path fill="#333" d="M24 0v-261h32V0H24" id="z"/><path fill="#333" d="M100-194c62-1 85 37 85 99 1 63-27 99-86 99S16-35 15-95c0-66 28-99 85-99zM99-20c44 1 53-31 53-75 0-43-8-75-51-75s-53 32-53 75 10 74 51 75" id="A"/><g id="a"><use transform="matrix(0.06172839506172839,0,0,0.06172839506172839,0,0)" xlink:href="#r"/><use transform="matrix(0.06172839506172839,0,0,0.06172839506172839,14.814814814814813,0)" xlink:href="#s"/><use transform="matrix(0.06172839506172839,0,0,0.06172839506172839,27.160493827160494,0)" xlink:href="#t"/><use transform="matrix(0.06172839506172839,0,0,0.06172839506172839,38.27160493827161,0)" xlink:href="#u"/><use transform="matrix(0.06172839506172839,0,0,0.06172839506172839,50.617283950617285,0)" xlink:href="#v"/><use transform="matrix(0.06172839506172839,0,0,0.06172839506172839,62.96296296296296,0)" xlink:href="#s"/><use transform="matrix(0.06172839506172839,0,0,0.06172839506172839,75.30864197530865,0)" xlink:href="#w"/><use transform="matrix(0.06172839506172839,0,0,0.06172839506172839,81.48148148148148,0)" xlink:href="#x"/><use transform="matrix(0.06172839506172839,0,0,0.06172839506172839,88.82716049382717,0)" xlink:href="#y"/><use transform="matrix(0.06172839506172839,0,0,0.06172839506172839,101.17283950617285,0)" xlink:href="#z"/><use transform="matrix(0.06172839506172839,0,0,0.06172839506172839,106.0493827160494,0)" xlink:href="#A"/></g><path fill="#333" d="M205 0l-28-72H64L36 0H1l101-248h38L239 0h-34zm-38-99l-47-123c-12 45-31 82-46 123h93" id="B"/><g id="b"><use transform="matrix(0.06172839506172839,0,0,0.06172839506172839,0,0)" xlink:href="#B"/><use transform="matrix(0.06172839506172839,0,0,0.06172839506172839,14.814814814814813,0)" xlink:href="#t"/><use transform="matrix(0.06172839506172839,0,0,0.06172839506172839,25.925925925925924,0)" xlink:href="#v"/><use transform="matrix(0.06172839506172839,0,0,0.06172839506172839,38.2716049382716,0)" xlink:href="#x"/><use transform="matrix(0.06172839506172839,0,0,0.06172839506172839,45.61728395061728,0)" xlink:href="#t"/><use transform="matrix(0.06172839506172839,0,0,0.06172839506172839,56.72839506172839,0)" xlink:href="#y"/></g><path fill="#333" d="M85-194c31 0 48 13 60 33l-1-100h32l1 261h-30c-2-10 0-23-3-31C134-8 116 4 85 4 32 4 16-35 15-94c0-66 23-100 70-100zm9 24c-40 0-46 34-46 75 0 40 6 74 45 74 42 0 51-32 51-76 0-42-9-74-50-73" id="C"/><g id="c"><use transform="matrix(0.06172839506172839,0,0,0.06172839506172839,0,0)" xlink:href="#C"/><use transform="matrix(0.06172839506172839,0,0,0.06172839506172839,12.345679012345679,0)" xlink:href="#v"/></g><path fill="#333" d="M33 0v-248h34V0H33" id="D"/><path fill="#333" d="M135-143c-3-34-86-38-87 0 15 53 115 12 119 90S17 21 10-45l28-5c4 36 97 45 98 0-10-56-113-15-118-90-4-57 82-63 122-42 12 7 21 19 24 35" id="E"/><path fill="#333" d="M24-231v-30h32v30H24zM24 0v-190h32V0H24" id="F"/><g id="d"><use transform="matrix(0.06172839506172839,0,0,0.06172839506172839,0,0)" xlink:href="#D"/><use transform="matrix(0.06172839506172839,0,0,0.06172839506172839,6.172839506172839,0)" xlink:href="#s"/><use transform="matrix(0.06172839506172839,0,0,0.06172839506172839,18.51851851851852,0)" xlink:href="#E"/><use transform="matrix(0.06172839506172839,0,0,0.06172839506172839,29.62962962962963,0)" xlink:href="#w"/><use transform="matrix(0.06172839506172839,0,0,0.06172839506172839,35.80246913580247,0)" xlink:href="#x"/><use transform="matrix(0.06172839506172839,0,0,0.06172839506172839,43.148148148148145,0)" xlink:href="#u"/><use transform="matrix(0.06172839506172839,0,0,0.06172839506172839,55.49382716049382,0)" xlink:href="#t"/><use transform="matrix(0.06172839506172839,0,0,0.06172839506172839,66.60493827160494,0)" xlink:href="#t"/><use transform="matrix(0.06172839506172839,0,0,0.06172839506172839,77.71604938271605,0)" xlink:href="#F"/><use transform="matrix(0.06172839506172839,0,0,0.06172839506172839,82.5925925925926,0)" xlink:href="#A"/><use transform="matrix(0.06172839506172839,0,0,0.06172839506172839,94.93827160493828,0)" xlink:href="#s"/><use transform="matrix(0.06172839506172839,0,0,0.06172839506172839,107.28395061728396,0)" xlink:href="#v"/><use transform="matrix(0.06172839506172839,0,0,0.06172839506172839,119.62962962962965,0)" xlink:href="#E"/></g><path fill="#333" d="M185-189c-5-48-123-54-124 2 14 75 158 14 163 119 3 78-121 87-175 55-17-10-28-26-33-46l33-7c5 56 141 63 141-1 0-78-155-14-162-118-5-82 145-84 179-34 5 7 8 16 11 25" id="G"/><path fill="#333" d="M115-194c53 0 69 39 70 98 0 66-23 100-70 100C84 3 66-7 56-30L54 0H23l1-261h32v101c10-23 28-34 59-34zm-8 174c40 0 45-34 45-75 0-40-5-75-45-74-42 0-51 32-51 76 0 43 10 73 51 73" id="H"/><g id="e"><use transform="matrix(0.06172839506172839,0,0,0.06172839506172839,0,0)" xlink:href="#G"/><use transform="matrix(0.06172839506172839,0,0,0.06172839506172839,14.814814814814813,0)" xlink:href="#v"/><use transform="matrix(0.06172839506172839,0,0,0.06172839506172839,27.160493827160494,0)" xlink:href="#H"/><use transform="matrix(0.06172839506172839,0,0,0.06172839506172839,39.50617283950617,0)" xlink:href="#y"/><use transform="matrix(0.06172839506172839,0,0,0.06172839506172839,51.85185185185185,0)" xlink:href="#E"/></g><path fill="#333" d="M54-142c48-35 137-8 131 61C196 18 31 33 14-55l32-4c7 23 22 37 52 37 35-1 51-22 54-58 4-55-73-65-99-34H22l8-134h141v27H59" id="I"/><use transform="matrix(0.06172839506172839,0,0,0.06172839506172839,0,0)" xlink:href="#I" id="g"/><path fill="#333" d="M115-194c55 1 70 41 70 98S169 2 115 4C84 4 66-9 55-30l1 105H24l-1-265h31l2 30c10-21 28-34 59-34zm-8 174c40 0 45-34 45-75s-6-73-45-74c-42 0-51 32-51 76 0 43 10 73 51 73" id="J"/><g id="h"><use transform="matrix(0.06172839506172839,0,0,0.06172839506172839,0,0)" xlink:href="#J"/><use transform="matrix(0.06172839506172839,0,0,0.06172839506172839,12.345679012345679,0)" xlink:href="#w"/><use transform="matrix(0.06172839506172839,0,0,0.06172839506172839,18.51851851851852,0)" xlink:href="#E"/></g><path fill="#333" d="M153-248C145-148 188 4 80 4 36 3 13-21 6-62l32-5c4 25 16 42 43 43 27 0 39-20 39-49v-147H72v-28h81" id="K"/><g id="i"><use transform="matrix(0.06172839506172839,0,0,0.06172839506172839,0,0)" xlink:href="#K"/><use transform="matrix(0.06172839506172839,0,0,0.06172839506172839,11.11111111111111,0)" xlink:href="#u"/><use transform="matrix(0.06172839506172839,0,0,0.06172839506172839,23.45679012345679,0)" xlink:href="#y"/><use transform="matrix(0.06172839506172839,0,0,0.06172839506172839,35.80246913580247,0)" xlink:href="#s"/></g><path fill="#333" d="M155-56V0h-30v-56H8v-25l114-167h33v167h35v25h-35zm-30-156c-27 46-58 90-88 131h88v-131" id="L"/><use transform="matrix(0.06172839506172839,0,0,0.06172839506172839,0,0)" xlink:href="#L" id="j"/><g id="k"><use transform="matrix(0.06172839506172839,0,0,0.06172839506172839,0,0)" xlink:href="#G"/><use transform="matrix(0.06172839506172839,0,0,0.06172839506172839,14.814814814814813,0)" xlink:href="#y"/><use transform="matrix(0.06172839506172839,0,0,0.06172839506172839,27.160493827160494,0)" xlink:href="#z"/><use transform="matrix(0.06172839506172839,0,0,0.06172839506172839,32.03703703703704,0)" xlink:href="#F"/><use transform="matrix(0.06172839506172839,0,0,0.06172839506172839,36.91358024691358,0)" xlink:href="#x"/></g><path fill="#333" d="M233-177c-1 41-23 64-60 70L243 0h-38l-65-103H63V0H30v-248c88 3 205-21 203 71zM63-129c60-2 137 13 137-47 0-61-80-42-137-45v92" id="M"/><g id="l"><use transform="matrix(0.06172839506172839,0,0,0.06172839506172839,0,0)" xlink:href="#M"/><use transform="matrix(0.06172839506172839,0,0,0.06172839506172839,15.987654320987653,0)" xlink:href="#v"/><use transform="matrix(0.06172839506172839,0,0,0.06172839506172839,28.333333333333332,0)" xlink:href="#E"/><use transform="matrix(0.06172839506172839,0,0,0.06172839506172839,39.44444444444444,0)" xlink:href="#w"/><use transform="matrix(0.06172839506172839,0,0,0.06172839506172839,45.617283950617285,0)" xlink:href="#y"/><use transform="matrix(0.06172839506172839,0,0,0.06172839506172839,57.96296296296296,0)" xlink:href="#s"/><use transform="matrix(0.06172839506172839,0,0,0.06172839506172839,70.30864197530865,0)" xlink:href="#w"/><use transform="matrix(0.06172839506172839,0,0,0.06172839506172839,76.48148148148148,0)" xlink:href="#v"/><use transform="matrix(0.06172839506172839,0,0,0.06172839506172839,88.82716049382717,0)" xlink:href="#E"/></g><path fill="#333" d="M64 0c3-98 48-159 88-221H18v-27h164v26C143-157 98-101 97 0H64" id="N"/><use transform="matrix(0.06172839506172839,0,0,0.06172839506172839,0,0)" xlink:href="#N" id="m"/><g id="n"><use transform="matrix(0.06172839506172839,0,0,0.06172839506172839,0,0)" xlink:href="#r"/><use transform="matrix(0.06172839506172839,0,0,0.06172839506172839,14.814814814814813,0)" xlink:href="#s"/><use transform="matrix(0.06172839506172839,0,0,0.06172839506172839,27.160493827160494,0)" xlink:href="#t"/><use transform="matrix(0.06172839506172839,0,0,0.06172839506172839,38.27160493827161,0)" xlink:href="#A"/><use transform="matrix(0.06172839506172839,0,0,0.06172839506172839,50.617283950617285,0)" xlink:href="#s"/><use transform="matrix(0.06172839506172839,0,0,0.06172839506172839,62.96296296296296,0)" xlink:href="#w"/><use transform="matrix(0.06172839506172839,0,0,0.06172839506172839,69.1358024691358,0)" xlink:href="#x"/><use transform="matrix(0.06172839506172839,0,0,0.06172839506172839,76.48148148148148,0)" xlink:href="#y"/><use transform="matrix(0.06172839506172839,0,0,0.06172839506172839,88.82716049382717,0)" xlink:href="#C"/><use transform="matrix(0.06172839506172839,0,0,0.06172839506172839,101.17283950617285,0)" xlink:href="#y"/><use transform="matrix(0.06172839506172839,0,0,0.06172839506172839,113.51851851851853,0)" xlink:href="#E"/></g><path fill="#333" d="M27 0v-27h64v-190l-56 39v-29l58-41h29v221h61V0H27" id="O"/><g id="o"><use transform="matrix(0.06172839506172839,0,0,0.06172839506172839,0,0)" xlink:href="#O"/><use transform="matrix(0.06172839506172839,0,0,0.06172839506172839,10.679012345679013,0)" xlink:href="#O"/></g><path fill="#333" d="M194 0L95-120 63-95V0H30v-248h33v124l119-124h40L117-140 236 0h-42" id="P"/><path fill="#333" d="M108 0H70L1-190h34L89-25l56-165h34" id="Q"/><g id="p"><use transform="matrix(0.06172839506172839,0,0,0.06172839506172839,0,0)" xlink:href="#P"/><use transform="matrix(0.06172839506172839,0,0,0.06172839506172839,14.814814814814813,0)" xlink:href="#v"/><use transform="matrix(0.06172839506172839,0,0,0.06172839506172839,27.160493827160494,0)" xlink:href="#Q"/><use transform="matrix(0.06172839506172839,0,0,0.06172839506172839,38.27160493827161,0)" xlink:href="#F"/><use transform="matrix(0.06172839506172839,0,0,0.06172839506172839,43.14814814814815,0)" xlink:href="#s"/></g><path fill="#333" d="M101-251c82-7 93 87 43 132L82-64C71-53 59-42 53-27h129V0H18c2-99 128-94 128-182 0-28-16-43-45-43s-46 15-49 41l-32-3c6-41 34-60 81-64" id="R"/><use transform="matrix(0.06172839506172839,0,0,0.06172839506172839,0,0)" xlink:href="#R" id="q"/></defs></g></svg>