<svg xmlns="http://www.w3.org/2000/svg" xmlns:xlink="http://www.w3.org/1999/xlink" xmlns:lucid="lucid" width="1252.5" height="650"><g transform="translate(-32.5 -70)" lucid:page-tab-id="CETqt1cmJq4O"><path d="M0 0h1360v1760H0z" fill="#fff"/><path d="M75 96c0-3.3 2.7-6 6-6h1178c3.3 0 6 2.7 6 6v598c0 3.3-2.7 6-6 6H81c-3.3 0-6-2.7-6-6z" stroke="#5e5e5e" stroke-width="3" fill="#d1f39e"/><path d="M75 96c0-3.3 2.7-6 6-6h1178c3.3 0 6 2.7 6 6v68c0 3.3-2.7 6-6 6H81c-3.3 0-6-2.7-6-6z" stroke="#5e5e5e" stroke-width="3" fill="#ffc374"/><path d="M52.5 106c0-3.3 2.7-6 6-6h228c3.3 0 6 2.7 6 6v48c0 3.3-2.7 6-6 6h-228c-3.3 0-6-2.7-6-6z" stroke="#000" stroke-opacity="0" stroke-width="3" fill="#fff" fill-opacity="0"/><use xlink:href="#a" transform="matrix(1,0,0,1,57.5,104.99999999999997) translate(55.80246913580246 30.27777777777778)"/><path d="M75 176c0-3.3 2.7-6 6-6h1178c3.3 0 6 2.7 6 6v28c0 3.3-2.7 6-6 6H81c-3.3 0-6-2.7-6-6z" stroke="#5e5e5e" stroke-width="3" fill="#fff"/><path d="M243.6 210.5v-38" stroke="#5e5e5e" stroke-width="2" fill="none"/><path d="M244.6 211.5h-2v-1.03h2zM244.6 172.53h-2v-1.03h2z" fill="#5e5e5e"/><path d="M52.5 166c0-3.3 2.7-6 6-6h228c3.3 0 6 2.7 6 6v48c0 3.3-2.7 6-6 6h-228c-3.3 0-6-2.7-6-6z" stroke="#000" stroke-opacity="0" stroke-width="3" fill="#fff" fill-opacity="0"/><use xlink:href="#b" transform="matrix(1,0,0,1,57.5,165) translate(65.03086419753086 30.27777777777778)"/><use xlink:href="#c" transform="matrix(1,0,0,1,57.5,165) translate(140.27777777777777 30.27777777777778)"/><path d="M230 166c0-3.3 2.7-6 6-6h228c3.3 0 6 2.7 6 6v48c0 3.3-2.7 6-6 6H236c-3.3 0-6-2.7-6-6z" stroke="#000" stroke-opacity="0" stroke-width="3" fill="#fff" fill-opacity="0"/><use xlink:href="#d" transform="matrix(1,0,0,1,235,164.99999999999997) translate(49.62962962962962 30.27777777777778)"/><path d="M450.04 210.5v-38" stroke="#5e5e5e" stroke-width="2" fill="none"/><path d="M451.04 211.5h-2v-1.03h2zM451.04 172.53h-2v-1.03h2z" fill="#5e5e5e"/><path d="M230 286c0-3.3 2.7-6 6-6h220.5c3.3 0 6 2.7 6 6v203c0 3.3-2.7 6-6 6H236c-3.3 0-6-2.7-6-6z" stroke="#000" stroke-width="3" fill="#fff"/><path d="M235 287.25c0-3.3 2.7-6 6-6h215.5c3.3 0 6 2.7 6 6v203c0 3.3-2.7 6-6 6H241c-3.3 0-6-2.7-6-6z" stroke="#000" stroke-opacity="0" stroke-width="3" fill="#fff" fill-opacity="0"/><use xlink:href="#e" transform="matrix(1,0,0,1,240.0000000000001,286.2499999999999) translate(0 14.222222222222221)"/><use xlink:href="#f" transform="matrix(1,0,0,1,240.0000000000001,286.2499999999999) translate(19.75308641975308 14.222222222222221)"/><use xlink:href="#g" transform="matrix(1,0,0,1,240.0000000000001,286.2499999999999) translate(0 35.55555555555556)"/><use xlink:href="#h" transform="matrix(1,0,0,1,240.0000000000001,286.2499999999999) translate(19.75308641975308 35.55555555555556)"/><use xlink:href="#i" transform="matrix(1,0,0,1,240.0000000000001,286.2499999999999) translate(63.209876543209866 35.55555555555556)"/><use xlink:href="#j" transform="matrix(1,0,0,1,240.0000000000001,286.2499999999999) translate(0 56.888888888888886)"/><use xlink:href="#k" transform="matrix(1,0,0,1,240.0000000000001,286.2499999999999) translate(19.75308641975308 56.888888888888886)"/><path d="M898.75 409.75c0-3.3 2.7-6 6-6h98c3.3 0 6 2.7 6 6v213c0 3.3-2.7 6-6 6h-98c-3.3 0-6-2.7-6-6zM788.75 509.75c0-3.3 2.7-6 6-6h98c3.3 0 6 2.7 6 6v113c0 3.3-2.7 6-6 6h-98c-3.3 0-6-2.7-6-6zM1008.75 559.75c0-3.3 2.7-6 6-6h98c3.3 0 6 2.7 6 6v63c0 3.3-2.7 6-6 6h-98c-3.3 0-6-2.7-6-6z" stroke="#333" stroke-width="3" fill="#df9e49"/><path d="M904.68 419.9c0-3.32 2.7-6 6-6h97.07c3.3 0 6 2.68 6 6v48c0 3.3-2.7 6-6 6h-97.07c-3.3 0-6-2.7-6-6z" stroke="#000" stroke-opacity="0" stroke-width="3" fill="#fff" fill-opacity="0"/><use xlink:href="#l" transform="matrix(1,0,0,1,909.6843434343435,418.8913920531756) translate(43.82716049382716 30.27777777777778)"/><path d="M723.75 522.25c0-3.3 2.7-6 6-6h228c3.3 0 6 2.7 6 6v48c0 3.3-2.7 6-6 6h-228c-3.3 0-6-2.7-6-6z" stroke="#000" stroke-opacity="0" stroke-width="3" fill="#fff" fill-opacity="0"/><use xlink:href="#m" transform="matrix(1,0,0,1,728.75,521.25) translate(108.82716049382717 30.27777777777778)"/><path d="M969.47 559.75c0-3.3 2.7-6 6-6h163c3.3 0 6 2.7 6 6v48c0 3.3-2.7 6-6 6h-163c-3.3 0-6-2.7-6-6z" stroke="#000" stroke-opacity="0" stroke-width="3" fill="#fff" fill-opacity="0"/><use xlink:href="#n" transform="matrix(1,0,0,1,974.4697589715779,558.75) translate(76.32716049382717 30.27777777777778)"/><path d="M870.42 266.56c0-3.32 2.68-6 6-6h148c3.3 0 6 2.68 6 6v48c0 3.3-2.7 6-6 6h-148c-3.32 0-6-2.7-6-6z" stroke="#000" stroke-opacity="0" stroke-width="3" fill="#fff" fill-opacity="0"/><use xlink:href="#o" transform="matrix(1,0,0,1,875.4166666666667,265.55803571428567) translate(24.629629629629655 31.569444444444436)"/><path d="M759.6 370.73c0-3.3 2.68-6 6-6h144.56c3.32 0 6 2.7 6 6v48c0 3.32-2.68 6-6 6H765.6c-3.32 0-6-2.68-6-6z" stroke="#000" stroke-opacity="0" stroke-width="3" fill="#fff" fill-opacity="0"/><use xlink:href="#p" transform="matrix(1,0,0,1,764.59612994949,369.7321428571429) translate(42.2037037037037 29.36111111111111)"/><path d="M998.13 431.9c0-3.32 2.68-6 6-6h119.25c3.3 0 6 2.68 6 6v48c0 3.3-2.7 6-6 6H1004.1c-3.3 0-6-2.7-6-6z" stroke="#000" stroke-opacity="0" stroke-width="3" fill="#fff" fill-opacity="0"/><use xlink:href="#q" transform="matrix(1,0,0,1,1003.125,430.8941240620382) translate(33.25308641975309 30.27777777777778)"/><path d="M923.75 326.56c0-3.32 2.7-6 6-6h41.33c3.32 0 6 2.68 6 6v5.14c0 3.3-2.68 6-6 6h-41.33c-3.3 0-6-2.7-6-6z" stroke="#333" stroke-width="3" fill="#ef8d22"/><path d="M925.27 344.66c-.84-3.2.48-7.6 2.94-9.82l17.76-15.98c2.46-2.22 6.45-2.22 8.92 0l17.74 15.98c2.47 2.22 3.78 6.6 2.94 9.82l-7.14 27.24c-.84 3.2-4.2 5.8-7.52 5.8h-20.96c-3.32 0-6.68-2.6-7.53-5.8z" stroke="#333" stroke-width="3" fill="#ef8d22"/><path d="M943.75 360.84c0-3.3 2.7-6 6-6h1.33c3.32 0 6 2.7 6 6v22.3c0 3.3-2.68 6-6 6h-1.33c-3.3 0-6-2.7-6-6z" stroke="#333" stroke-width="3" fill="#ef8d22"/><path d="M387.58 587.25c0-3.3 2.68-6 6-6h144.56c3.32 0 6 2.7 6 6v36.83c0 3.32-2.68 6-6 6H393.58c-3.32 0-6-2.68-6-6z" stroke="#50b085" stroke-width="3" fill="#ffc374"/><use xlink:href="#r" transform="matrix(1,0,0,1,392.5757575757576,586.25) translate(15.845679012345698 23.97222222222222)"/><use xlink:href="#s" transform="matrix(1,0,0,1,392.5757575757576,586.25) translate(65.17901234567901 23.97222222222222)"/><path d="M155.86 587.25c0-3.3 2.68-6 6-6H302.5c3.32 0 6 2.7 6 6v36.83c0 3.32-2.68 6-6 6H161.87c-3.32 0-6-2.68-6-6z" stroke="#50b085" stroke-width="3" fill="#ffc374"/><use xlink:href="#t" transform="matrix(1,0,0,1,160.85858585858585,586.25) translate(17.27777777777778 23.97222222222222)"/><use xlink:href="#u" transform="matrix(1,0,0,1,160.85858585858585,586.25) translate(71.5 23.97222222222222)"/><use xlink:href="#v" transform="matrix(1,0,0,1,160.85858585858585,586.25) translate(86.31481481481481 23.97222222222222)"/><path d="M930.42 389.13c0-3.16 2.56-5.7 5.7-5.7h28.58c3.16 0 5.72 2.54 5.72 5.7s-2.56 5.7-5.72 5.7h-28.57c-3.15 0-5.7-2.54-5.7-5.7z" stroke="#333" stroke-width="3" fill="#ef8d22"/><path d="M793.75 634.75c0-3.3 2.7-6 6-6h88c3.3 0 6 2.7 6 6v48c0 3.3-2.7 6-6 6h-88c-3.3 0-6-2.7-6-6z" stroke="#000" stroke-opacity="0" stroke-width="3" fill="#fff" fill-opacity="0"/><use xlink:href="#w" transform="matrix(1,0,0,1,798.75,633.75) translate(38.82716049382716 30.27777777777778)"/><path d="M977.62 336.9l31.85-1.47-17.9 15.34-1.22.7" stroke="#333" stroke-width="2" fill="none"/><path d="M977.8 340.9l20.23-.93-8.78 7.52-.9.52" stroke="#333" stroke-width="2" fill="none"/><path d="M977.7 337.9l-1.27.07-.04-.12-.95-1.84 2.15-.1zM977.88 341.9l-.63.04-.14-1.64-.1-.35.8-.04z" fill="#333"/><path d="M976.14 357.4l10.02-11.16 4.65 8.02z" stroke="#333" stroke-width="2" fill="#333"/><path d="M923.1 340.95l-13.88-.05 5.46 4.63" stroke="#333" stroke-width="2" fill="none"/><path d="M923.13 336.95l-24.85-.1 13.8 11.73" stroke="#333" stroke-width="2" fill="none"/><path d="M923.8 339.96l-.03.1-.2 1.9h-.5l.02-2zM925.43 335.96l-.9 1.67-.1.33h-1.33v-2z" fill="#333"/><path d="M925.02 356.94l-13.87-5.7 6-7.07z" stroke="#333" stroke-width="2" fill="#333"/><path d="M904.68 634.75c0-3.3 2.7-6 6-6h88c3.32 0 6 2.7 6 6v48c0 3.3-2.68 6-6 6h-88c-3.3 0-6-2.7-6-6z" stroke="#000" stroke-opacity="0" stroke-width="3" fill="#fff" fill-opacity="0"/><use xlink:href="#x" transform="matrix(1,0,0,1,909.6843434343435,633.75) translate(38.82716049382716 30.27777777777778)"/><path d="M1013.75 634.75c0-3.3 2.7-6 6-6h88c3.3 0 6 2.7 6 6v48c0 3.3-2.7 6-6 6h-88c-3.3 0-6-2.7-6-6z" stroke="#000" stroke-opacity="0" stroke-width="3" fill="#fff" fill-opacity="0"/><use xlink:href="#m" transform="matrix(1,0,0,1,1018.75,633.75) translate(38.82716049382716 30.27777777777778)"/><path d="M1083.52 532.75c0 3.3-11.9 6-26.55 6-14.67 0-26.55-2.7-26.55-6v-48c0-3.3 11.88-6 26.55-6 14.66 0 26.55 2.7 26.55 6z" stroke="#333" stroke-width="3" fill="#fff"/><path d="M1083.52 484.75c0 3.3-11.9 6-26.55 6-14.67 0-26.55-2.7-26.55-6" stroke="#333" stroke-width="3" fill="none"/><path d="M1086.02 486.58h26.23l-12.93 13.36" stroke="#333" stroke-width="2" fill="none"/><path d="M1086.02 490.58h16.8l-6.37 6.58" stroke="#333" stroke-width="2" fill="none"/><path d="M1086.05 487.58h-1.03v-2h1.03zM1086.05 491.58h-1.03v-2h1.03z" fill="#333"/><path d="M1087.27 509.53l6.6-13.48 6.65 6.45z" stroke="#333" stroke-width="2" fill="#333"/><path d="M812.66 425.9c0-3.33 2.7-6 6-6h38.44c3.3 0 6 2.67 6 6v6c0 3.3-2.7 6-6 6h-38.44c-3.3 0-6-2.7-6-6z" stroke="#333" stroke-width="3" fill="#b2b2b2"/><path d="M814.04 444.94c-.76-3.22.52-7.74 2.86-10.08l16.74-16.73c2.34-2.35 6.14-2.35 8.48 0l16.73 16.73c2.35 2.34 3.63 6.86 2.87 10.08l-6.88 29.12c-.76 3.23-4.06 5.84-7.38 5.84H828.3c-3.32 0-6.62-2.6-7.38-5.84z" stroke="#333" stroke-width="3" fill="#b2b2b2"/><path d="M831.57 461.9c0-3.32 2.7-6 6-6h.6c3.33 0 6 2.68 6 6v24c0 3.32-2.67 6-6 6h-.6c-3.3 0-6-2.68-6-6z" stroke="#333" stroke-width="3" fill="#b2b2b2"/><path d="M818.97 491.9c0-3.3 2.68-6 6-6h25.82c3.3 0 6 2.7 6 6 0 3.32-2.7 6-6 6h-25.83c-3.32 0-6-2.68-6-6z" stroke="#333" stroke-width="3" fill="#b2b2b2"/><path d="M863.78 437.12l29.82-1.5-16.65 15.85-.72.46" stroke="#333" stroke-width="2" fill="none"/><path d="M863.98 441.12l19.05-.96-8.57 8.16-.4.26" stroke="#333" stroke-width="2" fill="none"/><path d="M863.85 438.12l-1.37.07-.8-1.97 2.07-.1zM864.05 442.1l-.7.05-.28-2 .88-.03z" fill="#333"/><path d="M862.34 458.57l9.44-11.66 5.05 7.8z" stroke="#333" stroke-width="2" fill="#333"/><path d="M811.87 441.17l-13.1-.04 5.3 5.02" stroke="#333" stroke-width="2" fill="none"/><path d="M811.88 437.17l-23.16-.06 12.6 11.96" stroke="#333" stroke-width="2" fill="none"/><path d="M812.7 440.17l-.32 2h-.53v-2zM814.15 436.17l-.9 2h-1.4v-2z" fill="#333"/><path d="M813.78 458.1l-13.54-6.44 6.38-6.73z" stroke="#333" stroke-width="2" fill="#333"/><defs><path fill="#333" d="M30 0v-248h187v28H63v79h144v27H63v87h162V0H30" id="y"/><path fill="#333" d="M117-194c89-4 53 116 60 194h-32v-121c0-31-8-49-39-48C34-167 62-67 57 0H25l-1-190h30c1 10-1 24 2 32 11-22 29-35 61-36" id="z"/><path fill="#333" d="M96-169c-40 0-48 33-48 73s9 75 48 75c24 0 41-14 43-38l32 2c-6 37-31 61-74 61-59 0-76-41-82-99-10-93 101-131 147-64 4 7 5 14 7 22l-32 3c-4-21-16-35-41-35" id="A"/><path fill="#333" d="M84 4C-5 8 30-112 23-190h32v120c0 31 7 50 39 49 72-2 45-101 50-169h31l1 190h-30c-1-10 1-25-2-33-11 22-28 36-60 37" id="B"/><path fill="#333" d="M100-194c63 0 86 42 84 106H49c0 40 14 67 53 68 26 1 43-12 49-29l28 8c-11 28-37 45-77 45C44 4 14-33 15-96c1-61 26-98 85-98zm52 81c6-60-76-77-97-28-3 7-6 17-6 28h103" id="C"/><path fill="#333" d="M59-47c-2 24 18 29 38 22v24C64 9 27 4 27-40v-127H5v-23h24l9-43h21v43h35v23H59v120" id="D"/><path fill="#333" d="M114-163C36-179 61-72 57 0H25l-1-190h30c1 12-1 29 2 39 6-27 23-49 58-41v29" id="E"/><path fill="#333" d="M141-36C126-15 110 5 73 4 37 3 15-17 15-53c-1-64 63-63 125-63 3-35-9-54-41-54-24 1-41 7-42 31l-33-3c5-37 33-52 76-52 45 0 72 20 72 64v82c-1 20 7 32 28 27v20c-31 9-61-2-59-35zM48-53c0 20 12 33 32 33 41-3 63-29 60-74-43 2-92-5-92 41" id="F"/><path fill="#333" d="M24 0v-261h32V0H24" id="G"/><path fill="#333" d="M100-194c62-1 85 37 85 99 1 63-27 99-86 99S16-35 15-95c0-66 28-99 85-99zM99-20c44 1 53-31 53-75 0-43-8-75-51-75s-53 32-53 75 10 74 51 75" id="H"/><g id="a"><use transform="matrix(0.06172839506172839,0,0,0.06172839506172839,0,0)" xlink:href="#y"/><use transform="matrix(0.06172839506172839,0,0,0.06172839506172839,14.814814814814813,0)" xlink:href="#z"/><use transform="matrix(0.06172839506172839,0,0,0.06172839506172839,27.160493827160494,0)" xlink:href="#A"/><use transform="matrix(0.06172839506172839,0,0,0.06172839506172839,38.27160493827161,0)" xlink:href="#B"/><use transform="matrix(0.06172839506172839,0,0,0.06172839506172839,50.617283950617285,0)" xlink:href="#C"/><use transform="matrix(0.06172839506172839,0,0,0.06172839506172839,62.96296296296296,0)" xlink:href="#z"/><use transform="matrix(0.06172839506172839,0,0,0.06172839506172839,75.30864197530865,0)" xlink:href="#D"/><use transform="matrix(0.06172839506172839,0,0,0.06172839506172839,81.48148148148148,0)" xlink:href="#E"/><use transform="matrix(0.06172839506172839,0,0,0.06172839506172839,88.82716049382717,0)" xlink:href="#F"/><use transform="matrix(0.06172839506172839,0,0,0.06172839506172839,101.17283950617285,0)" xlink:href="#G"/><use transform="matrix(0.06172839506172839,0,0,0.06172839506172839,106.0493827160494,0)" xlink:href="#H"/></g><path fill="#333" d="M205 0l-28-72H64L36 0H1l101-248h38L239 0h-34zm-38-99l-47-123c-12 45-31 82-46 123h93" id="I"/><g id="b"><use transform="matrix(0.06172839506172839,0,0,0.06172839506172839,0,0)" xlink:href="#I"/><use transform="matrix(0.06172839506172839,0,0,0.06172839506172839,14.814814814814813,0)" xlink:href="#A"/><use transform="matrix(0.06172839506172839,0,0,0.06172839506172839,25.925925925925924,0)" xlink:href="#C"/><use transform="matrix(0.06172839506172839,0,0,0.06172839506172839,38.2716049382716,0)" xlink:href="#E"/><use transform="matrix(0.06172839506172839,0,0,0.06172839506172839,45.61728395061728,0)" xlink:href="#A"/><use transform="matrix(0.06172839506172839,0,0,0.06172839506172839,56.72839506172839,0)" xlink:href="#F"/></g><path fill="#333" d="M85-194c31 0 48 13 60 33l-1-100h32l1 261h-30c-2-10 0-23-3-31C134-8 116 4 85 4 32 4 16-35 15-94c0-66 23-100 70-100zm9 24c-40 0-46 34-46 75 0 40 6 74 45 74 42 0 51-32 51-76 0-42-9-74-50-73" id="J"/><g id="c"><use transform="matrix(0.06172839506172839,0,0,0.06172839506172839,0,0)" xlink:href="#J"/><use transform="matrix(0.06172839506172839,0,0,0.06172839506172839,12.345679012345679,0)" xlink:href="#C"/></g><path fill="#333" d="M33 0v-248h34V0H33" id="K"/><path fill="#333" d="M135-143c-3-34-86-38-87 0 15 53 115 12 119 90S17 21 10-45l28-5c4 36 97 45 98 0-10-56-113-15-118-90-4-57 82-63 122-42 12 7 21 19 24 35" id="L"/><path fill="#333" d="M24-231v-30h32v30H24zM24 0v-190h32V0H24" id="M"/><g id="d"><use transform="matrix(0.06172839506172839,0,0,0.06172839506172839,0,0)" xlink:href="#K"/><use transform="matrix(0.06172839506172839,0,0,0.06172839506172839,6.172839506172839,0)" xlink:href="#z"/><use transform="matrix(0.06172839506172839,0,0,0.06172839506172839,18.51851851851852,0)" xlink:href="#L"/><use transform="matrix(0.06172839506172839,0,0,0.06172839506172839,29.62962962962963,0)" xlink:href="#D"/><use transform="matrix(0.06172839506172839,0,0,0.06172839506172839,35.80246913580247,0)" xlink:href="#E"/><use transform="matrix(0.06172839506172839,0,0,0.06172839506172839,43.148148148148145,0)" xlink:href="#B"/><use transform="matrix(0.06172839506172839,0,0,0.06172839506172839,55.49382716049382,0)" xlink:href="#A"/><use transform="matrix(0.06172839506172839,0,0,0.06172839506172839,66.60493827160494,0)" xlink:href="#A"/><use transform="matrix(0.06172839506172839,0,0,0.06172839506172839,77.71604938271605,0)" xlink:href="#M"/><use transform="matrix(0.06172839506172839,0,0,0.06172839506172839,82.5925925925926,0)" xlink:href="#H"/><use transform="matrix(0.06172839506172839,0,0,0.06172839506172839,94.93827160493828,0)" xlink:href="#z"/><use transform="matrix(0.06172839506172839,0,0,0.06172839506172839,107.28395061728396,0)" xlink:href="#C"/><use transform="matrix(0.06172839506172839,0,0,0.06172839506172839,119.62962962962965,0)" xlink:href="#L"/></g><path fill="#333" d="M27 0v-27h64v-190l-56 39v-29l58-41h29v221h61V0H27" id="N"/><path fill="#333" d="M33 0v-38h34V0H33" id="O"/><g id="e"><use transform="matrix(0.049382716049382706,0,0,0.049382716049382706,0,0)" xlink:href="#N"/><use transform="matrix(0.049382716049382706,0,0,0.049382716049382706,9.87654320987654,0)" xlink:href="#O"/></g><path fill="#333" d="M185-189c-5-48-123-54-124 2 14 75 158 14 163 119 3 78-121 87-175 55-17-10-28-26-33-46l33-7c5 56 141 63 141-1 0-78-155-14-162-118-5-82 145-84 179-34 5 7 8 16 11 25" id="P"/><path fill="#333" d="M115-194c53 0 69 39 70 98 0 66-23 100-70 100C84 3 66-7 56-30L54 0H23l1-261h32v101c10-23 28-34 59-34zm-8 174c40 0 45-34 45-75 0-40-5-75-45-74-42 0-51 32-51 76 0 43 10 73 51 73" id="Q"/><g id="f"><use transform="matrix(0.049382716049382706,0,0,0.049382716049382706,0,0)" xlink:href="#P"/><use transform="matrix(0.049382716049382706,0,0,0.049382716049382706,11.85185185185185,0)" xlink:href="#C"/><use transform="matrix(0.049382716049382706,0,0,0.049382716049382706,21.728395061728392,0)" xlink:href="#Q"/><use transform="matrix(0.049382716049382706,0,0,0.049382716049382706,31.604938271604933,0)" xlink:href="#F"/><use transform="matrix(0.049382716049382706,0,0,0.049382716049382706,41.481481481481474,0)" xlink:href="#L"/></g><path fill="#333" d="M101-251c82-7 93 87 43 132L82-64C71-53 59-42 53-27h129V0H18c2-99 128-94 128-182 0-28-16-43-45-43s-46 15-49 41l-32-3c6-41 34-60 81-64" id="R"/><g id="g"><use transform="matrix(0.049382716049382706,0,0,0.049382716049382706,0,0)" xlink:href="#R"/><use transform="matrix(0.049382716049382706,0,0,0.049382716049382706,9.87654320987654,0)" xlink:href="#O"/></g><path fill="#333" d="M153-248C145-148 188 4 80 4 36 3 13-21 6-62l32-5c4 25 16 42 43 43 27 0 39-20 39-49v-147H72v-28h81" id="S"/><g id="h"><use transform="matrix(0.049382716049382706,0,0,0.049382716049382706,0,0)" xlink:href="#S"/><use transform="matrix(0.049382716049382706,0,0,0.049382716049382706,8.888888888888888,0)" xlink:href="#B"/><use transform="matrix(0.049382716049382706,0,0,0.049382716049382706,18.76543209876543,0)" xlink:href="#F"/><use transform="matrix(0.049382716049382706,0,0,0.049382716049382706,28.64197530864197,0)" xlink:href="#z"/></g><path fill="#333" d="M30-248c118-7 216 8 213 122C240-48 200 0 122 0H30v-248zM63-27c89 8 146-16 146-99s-60-101-146-95v194" id="T"/><path fill="#333" d="M108 0H70L1-190h34L89-25l56-165h34" id="U"/><g id="i"><use transform="matrix(0.049382716049382706,0,0,0.049382716049382706,0,0)" xlink:href="#T"/><use transform="matrix(0.049382716049382706,0,0,0.049382716049382706,12.790123456790122,0)" xlink:href="#F"/><use transform="matrix(0.049382716049382706,0,0,0.049382716049382706,22.666666666666664,0)" xlink:href="#U"/><use transform="matrix(0.049382716049382706,0,0,0.049382716049382706,31.55555555555555,0)" xlink:href="#M"/><use transform="matrix(0.049382716049382706,0,0,0.049382716049382706,35.456790123456784,0)" xlink:href="#J"/></g><path fill="#333" d="M126-127c33 6 58 20 58 59 0 88-139 92-164 29-3-8-5-16-6-25l32-3c6 27 21 44 54 44 32 0 52-15 52-46 0-38-36-46-79-43v-28c39 1 72-4 72-42 0-27-17-43-46-43-28 0-47 15-49 41l-32-3c6-42 35-63 81-64 48-1 79 21 79 65 0 36-21 52-52 59" id="V"/><g id="j"><use transform="matrix(0.049382716049382706,0,0,0.049382716049382706,0,0)" xlink:href="#V"/><use transform="matrix(0.049382716049382706,0,0,0.049382716049382706,9.87654320987654,0)" xlink:href="#O"/></g><path fill="#333" d="M194 0L95-120 63-95V0H30v-248h33v124l119-124h40L117-140 236 0h-42" id="W"/><g id="k"><use transform="matrix(0.049382716049382706,0,0,0.049382716049382706,0,0)" xlink:href="#W"/><use transform="matrix(0.049382716049382706,0,0,0.049382716049382706,11.85185185185185,0)" xlink:href="#C"/><use transform="matrix(0.049382716049382706,0,0,0.049382716049382706,21.728395061728392,0)" xlink:href="#U"/><use transform="matrix(0.049382716049382706,0,0,0.049382716049382706,30.617283950617278,0)" xlink:href="#M"/><use transform="matrix(0.049382716049382706,0,0,0.049382716049382706,34.51851851851851,0)" xlink:href="#z"/></g><use transform="matrix(0.06172839506172839,0,0,0.06172839506172839,0,0)" xlink:href="#N" id="l"/><use transform="matrix(0.06172839506172839,0,0,0.06172839506172839,0,0)" xlink:href="#R" id="m"/><use transform="matrix(0.06172839506172839,0,0,0.06172839506172839,0,0)" xlink:href="#V" id="n"/><g id="o"><use transform="matrix(0.0987654320987654,0,0,0.0987654320987654,0,0)" xlink:href="#P"/><use transform="matrix(0.0987654320987654,0,0,0.0987654320987654,23.703703703703695,0)" xlink:href="#C"/><use transform="matrix(0.0987654320987654,0,0,0.0987654320987654,43.45679012345677,0)" xlink:href="#Q"/><use transform="matrix(0.0987654320987654,0,0,0.0987654320987654,63.209876543209845,0)" xlink:href="#F"/><use transform="matrix(0.0987654320987654,0,0,0.0987654320987654,82.96296296296292,0)" xlink:href="#L"/></g><g id="p"><use transform="matrix(0.08024691358024691,0,0,0.08024691358024691,0,0)" xlink:href="#S"/><use transform="matrix(0.08024691358024691,0,0,0.08024691358024691,14.444444444444443,0)" xlink:href="#B"/><use transform="matrix(0.08024691358024691,0,0,0.08024691358024691,30.493827160493826,0)" xlink:href="#F"/><use transform="matrix(0.08024691358024691,0,0,0.08024691358024691,46.54320987654321,0)" xlink:href="#z"/></g><g id="q"><use transform="matrix(0.06172839506172839,0,0,0.06172839506172839,0,0)" xlink:href="#W"/><use transform="matrix(0.06172839506172839,0,0,0.06172839506172839,14.814814814814813,0)" xlink:href="#C"/><use transform="matrix(0.06172839506172839,0,0,0.06172839506172839,27.160493827160494,0)" xlink:href="#U"/><use transform="matrix(0.06172839506172839,0,0,0.06172839506172839,38.27160493827161,0)" xlink:href="#M"/><use transform="matrix(0.06172839506172839,0,0,0.06172839506172839,43.14814814814815,0)" xlink:href="#z"/></g><path fill="#333" d="M240 0l2-218c-23 76-54 145-80 218h-23L58-218 59 0H30v-248h44l77 211c21-75 51-140 76-211h43V0h-30" id="X"/><path fill="#333" d="M85 4C-4 8 31-112 24-190h32v120c0 31 7 50 39 49 72-2 45-101 50-169h31l1 190h-30c-1-10 1-25-2-33-11 22-28 36-60 37zM73-211c8-23 27-35 38-54h36v5l-58 49H73" id="Y"/><g id="r"><use transform="matrix(0.049382716049382706,0,0,0.049382716049382706,0,0)" xlink:href="#X"/><use transform="matrix(0.049382716049382706,0,0,0.049382716049382706,14.765432098765428,0)" xlink:href="#C"/><use transform="matrix(0.049382716049382706,0,0,0.049382716049382706,24.641975308641968,0)" xlink:href="#z"/><use transform="matrix(0.049382716049382706,0,0,0.049382716049382706,34.518518518518505,0)" xlink:href="#Y"/></g><path fill="#333" d="M115-194c55 1 70 41 70 98S169 2 115 4C84 4 66-9 55-30l1 105H24l-1-265h31l2 30c10-21 28-34 59-34zm-8 174c40 0 45-34 45-75s-6-73-45-74c-42 0-51 32-51 76 0 43 10 73 51 73" id="Z"/><g id="s"><use transform="matrix(0.049382716049382706,0,0,0.049382716049382706,0,0)" xlink:href="#Z"/><use transform="matrix(0.049382716049382706,0,0,0.049382716049382706,9.87654320987654,0)" xlink:href="#E"/><use transform="matrix(0.049382716049382706,0,0,0.049382716049382706,15.75308641975308,0)" xlink:href="#M"/><use transform="matrix(0.049382716049382706,0,0,0.049382716049382706,19.654320987654316,0)" xlink:href="#z"/><use transform="matrix(0.049382716049382706,0,0,0.049382716049382706,29.530864197530857,0)" xlink:href="#A"/><use transform="matrix(0.049382716049382706,0,0,0.049382716049382706,38.419753086419746,0)" xlink:href="#M"/><use transform="matrix(0.049382716049382706,0,0,0.049382716049382706,42.32098765432098,0)" xlink:href="#Z"/><use transform="matrix(0.049382716049382706,0,0,0.049382716049382706,52.19753086419752,0)" xlink:href="#F"/><use transform="matrix(0.049382716049382706,0,0,0.049382716049382706,62.07407407407406,0)" xlink:href="#G"/></g><path fill="#333" d="M137 0h-34L2-248h35l83 218 83-218h36" id="aa"/><g id="t"><use transform="matrix(0.049382716049382706,0,0,0.049382716049382706,0,0)" xlink:href="#aa"/><use transform="matrix(0.049382716049382706,0,0,0.049382716049382706,10.864197530864196,0)" xlink:href="#H"/><use transform="matrix(0.049382716049382706,0,0,0.049382716049382706,20.740740740740737,0)" xlink:href="#G"/><use transform="matrix(0.049382716049382706,0,0,0.049382716049382706,24.64197530864197,0)" xlink:href="#U"/><use transform="matrix(0.049382716049382706,0,0,0.049382716049382706,33.53086419753086,0)" xlink:href="#C"/><use transform="matrix(0.049382716049382706,0,0,0.049382716049382706,43.407407407407405,0)" xlink:href="#E"/></g><use transform="matrix(0.049382716049382706,0,0,0.049382716049382706,0,0)" xlink:href="#F" id="u"/><path fill="#333" d="M24-231v-30h32v30H24zM-9 49c24 4 33-6 33-30v-209h32V24c2 40-23 58-65 49V49" id="ab"/><path fill="#333" d="M177-190C167-65 218 103 67 71c-23-6-38-20-44-43l32-5c15 47 100 32 89-28v-30C133-14 115 1 83 1 29 1 15-40 15-95c0-56 16-97 71-98 29-1 48 16 59 35 1-10 0-23 2-32h30zM94-22c36 0 50-32 50-73 0-42-14-75-50-75-39 0-46 34-46 75s6 73 46 73" id="ac"/><g id="v"><use transform="matrix(0.049382716049382706,0,0,0.049382716049382706,0,0)" xlink:href="#ab"/><use transform="matrix(0.049382716049382706,0,0,0.049382716049382706,3.9012345679012337,0)" xlink:href="#B"/><use transform="matrix(0.049382716049382706,0,0,0.049382716049382706,13.777777777777775,0)" xlink:href="#ac"/><use transform="matrix(0.049382716049382706,0,0,0.049382716049382706,23.654320987654316,0)" xlink:href="#F"/><use transform="matrix(0.049382716049382706,0,0,0.049382716049382706,33.53086419753086,0)" xlink:href="#E"/></g><path fill="#333" d="M155-56V0h-30v-56H8v-25l114-167h33v167h35v25h-35zm-30-156c-27 46-58 90-88 131h88v-131" id="ad"/><use transform="matrix(0.06172839506172839,0,0,0.06172839506172839,0,0)" xlink:href="#ad" id="w"/><path fill="#333" d="M54-142c48-35 137-8 131 61C196 18 31 33 14-55l32-4c7 23 22 37 52 37 35-1 51-22 54-58 4-55-73-65-99-34H22l8-134h141v27H59" id="ae"/><use transform="matrix(0.06172839506172839,0,0,0.06172839506172839,0,0)" xlink:href="#ae" id="x"/></defs></g></svg>