<svg xmlns="http://www.w3.org/2000/svg" xmlns:xlink="http://www.w3.org/1999/xlink" version="1.1" x="0px" y="0px" viewBox="0 0 100 125" style="enable-background:new 0 0 100 100;" xml:space="preserve"><g><path d="M75.6,99H11.7c-3.5,0-6.4-2.9-6.4-6.4V20.2c0-3.5,2.9-6.4,6.4-6.4h63.9c3.5,0,6.4,2.9,6.4,6.4v72.4   C82,96.1,79.1,99,75.6,99z M13.8,90.5h59.7V22.3H13.8V90.5z"/><path d="M90.5,84.1c-2.4,0-4.3-1.9-4.3-4.3V9.5H24.4c-2.4,0-4.3-1.9-4.3-4.3S22.1,1,24.4,1h63.8c1.4,0,3.4,0,5,1.6   c0.7,0.7,1.5,1.9,1.5,3.8v73.4C94.7,82.2,92.8,84.1,90.5,84.1z"/></g><text x="0" y="115" fill="#000000" font-size="5px" font-weight="bold" font-family="'Helvetica Neue', Helvetica, Arial-Unicode, Arial, Sans-serif">Created by Graphik Designz</text><text x="0" y="120" fill="#000000" font-size="5px" font-weight="bold" font-family="'Helvetica Neue', Helvetica, Arial-Unicode, Arial, Sans-serif">from the Noun Project</text></svg>