<svg xmlns="http://www.w3.org/2000/svg" xmlns:lucid="lucid" width="370" height="353.91"><g lucid:page-tab-id="gejv0bN~0v1j"><path d="M130 114.9c0-3.3 2.7-6 6-6h98c3.3 0 6 2.7 6 6v213c0 3.32-2.7 6-6 6h-98c-3.3 0-6-2.68-6-6zM20 214.9c0-3.3 2.7-6 6-6h98c3.3 0 6 2.7 6 6v113c0 3.32-2.7 6-6 6H26c-3.3 0-6-2.68-6-6zM240 264.9c0-3.3 2.7-6 6-6h98c3.3 0 6 2.7 6 6v63c0 3.32-2.7 6-6 6h-98c-3.3 0-6-2.68-6-6z" stroke="#333" stroke-width="3" fill="#df9e49"/><path d="M155 31.7c0-3.3 2.7-6 6-6h41.33c3.32 0 6 2.7 6 6v5.16c0 3.3-2.68 6-6 6H161c-3.3 0-6-2.7-6-6z" stroke="#333" stroke-width="3" fill="#ef8d22"/><path d="M156.52 49.82c-.84-3.2.48-7.6 2.94-9.82l17.75-16c2.47-2.2 6.46-2.2 8.93 0l17.74 16c2.47 2.2 3.78 6.6 2.94 9.82l-7.13 27.23c-.84 3.2-4.2 5.8-7.52 5.8H171.2c-3.33 0-6.7-2.6-7.54-5.8z" stroke="#333" stroke-width="3" fill="#ef8d22"/><path d="M175 66c0-3.3 2.7-6 6-6h1.33c3.32 0 6 2.7 6 6v22.3c0 3.3-2.68 6-6 6H181c-3.3 0-6-2.7-6-6z" stroke="#333" stroke-width="3" fill="#ef8d22"/><path d="M161.67 94.3c0-3.17 2.56-5.73 5.7-5.73h28.58c3.16 0 5.72 2.56 5.72 5.72 0 3.14-2.56 5.7-5.72 5.7h-28.57c-3.15 0-5.7-2.56-5.7-5.7z" stroke="#333" stroke-width="3" fill="#ef8d22"/><path d="M208.87 42.07l31.85-1.48-17.9 15.32-1.22.72" stroke="#333" stroke-width="2" fill="none"/><path d="M209.06 46.07l20.22-.94-8.78 7.52-.9.53" stroke="#333" stroke-width="2" fill="none"/><path d="M208.94 43.07l-1.26.06-.04-.12-.94-1.83 2.15-.1zM209.13 47.06l-.63.03-.14-1.64-.1-.36.78-.04z" fill="#333"/><path d="M207.4 62.56l10-11.16 4.66 8.02z" stroke="#333" stroke-width="2" fill="#333"/><path d="M154.36 46.1l-13.9-.05 5.47 4.64" stroke="#333" stroke-width="2" fill="none"/><path d="M154.38 42.1l-24.85-.1 13.8 11.74" stroke="#333" stroke-width="2" fill="none"/><path d="M155.06 45.1l-.04.13-.2 1.88h-.5l.02-2zM156.68 41.12l-.9 1.67-.1.3h-1.33v-2z" fill="#333"/><path d="M156.27 62.1l-13.87-5.7 6-7.07z" stroke="#333" stroke-width="2" fill="#333"/><path d="M314.77 237.9c0 3.32-11.9 6-26.55 6-14.67 0-26.55-2.68-26.55-6v-48c0-3.3 11.88-6 26.55-6 14.66 0 26.55 2.7 26.55 6z" stroke="#333" stroke-width="3" fill="#fff"/><path d="M314.77 189.9c0 3.32-11.9 6-26.55 6-14.67 0-26.55-2.68-26.55-6" stroke="#333" stroke-width="3" fill="none"/><path d="M317.27 191.74h26.23l-12.93 13.36" stroke="#333" stroke-width="2" fill="none"/><path d="M317.27 195.74h16.8l-6.37 6.58" stroke="#333" stroke-width="2" fill="none"/><path d="M317.3 192.74h-1.03v-2h1.03zM317.3 196.74h-1.03v-2h1.03z" fill="#333"/><path d="M318.52 214.68l6.6-13.47 6.65 6.45z" stroke="#333" stroke-width="2" fill="#333"/><path d="M43.9 131.04c0-3.3 2.7-6 6-6h38.45c3.3 0 6 2.7 6 6v6c0 3.32-2.7 6-6 6H49.9c-3.3 0-6-2.68-6-6z" stroke="#333" stroke-width="3" fill="#b2b2b2"/><path d="M45.3 150.1c-.77-3.23.5-7.74 2.85-10.08l16.74-16.74c2.33-2.34 6.13-2.34 8.47 0l16.73 16.74c2.35 2.34 3.63 6.85 2.87 10.08l-6.88 29.12c-.77 3.22-4.07 5.84-7.4 5.84H59.56c-3.32 0-6.62-2.62-7.38-5.84z" stroke="#333" stroke-width="3" fill="#b2b2b2"/><path d="M62.82 167.05c0-3.3 2.7-6 6-6h.6c3.33 0 6 2.7 6 6v24c0 3.32-2.67 6-6 6h-.6c-3.3 0-6-2.68-6-6z" stroke="#333" stroke-width="3" fill="#b2b2b2"/><path d="M50.22 197.06c0-3.32 2.68-6 6-6h25.82c3.32 0 6 2.68 6 6 0 3.3-2.68 6-6 6H56.22c-3.32 0-6-2.7-6-6z" stroke="#333" stroke-width="3" fill="#b2b2b2"/><path d="M95.03 142.28l29.82-1.5-16.65 15.85-.72.46" stroke="#333" stroke-width="2" fill="none"/><path d="M95.23 146.27l19.05-.96-8.57 8.17-.4.27" stroke="#333" stroke-width="2" fill="none"/><path d="M95.1 143.27l-1.37.07-.8-1.96 2.07-.1zM95.3 147.27l-.7.04-.28-1.98.88-.05z" fill="#333"/><path d="M93.6 163.73l9.43-11.66 5.05 7.78z" stroke="#333" stroke-width="2" fill="#333"/><path d="M43.12 146.32l-13.1-.03 5.3 5" stroke="#333" stroke-width="2" fill="none"/><path d="M43.13 142.32l-23.16-.06 12.6 11.95" stroke="#333" stroke-width="2" fill="none"/><path d="M43.96 145.33l-.33 2h-.53v-2zM45.4 141.33l-.9 2h-1.4v-2z" fill="#333"/><path d="M45.03 163.26L31.5 156.8l6.37-6.7z" stroke="#333" stroke-width="2" fill="#333"/></g></svg>