<svg xmlns="http://www.w3.org/2000/svg" xmlns:xlink="http://www.w3.org/1999/xlink" xmlns:lucid="lucid" width="1188.03" height="1266.44"><g transform="translate(-24.951109492390557 -20)" lucid:page-tab-id="0_0"><path d="M0 0h1870.4v1323.2H0z" fill="#fff"/><path d="M516 180c-8.84 0-16 7.16-16 16v48c0 8.84 7.16 16 16 16h128c8.84 0 16-7.16 16-16v-48c0-8.84-7.16-16-16-16z" stroke="#5e5e5e" stroke-width="3" fill="#fff"/><use xlink:href="#a" transform="matrix(1,0,0,1,508,188) translate(37.46296296296296 23.111111111111114)"/><use xlink:href="#b" transform="matrix(1,0,0,1,508,188) translate(30.76543209876543 49.77777777777778)"/><path d="M540 60c0 11.05-8.95 20-20 20s-20-8.95-20-20 8.95-20 20-20 20 8.95 20 20z" stroke="#5e5e5e" stroke-width="3"/><path d="M645.62 117.58l2.93.2 2.8.35 2.66.48 2.56.62 2.42.73 2.3.84 2.22.93 2.1 1.05 2.03 1.15 1.93 1.24 1.38 1 1.82 1.43 1.85 1.62 1.87 1.83 1.9 2.05 1.87 2.3 1.9 2.54 1.85 2.82 1.8 3.1 1.75 3.38 1.64 3.64 1.5 3.86 1.32 4.03 1.12 4.13.9 4.17.65 4.1.4 4 .2 3.85v3.6l-.18 3.4-.34 3.14-.47 2.9-.57 2.67-.67 2.44-.75 2.25-.8 2.06-.86 1.9-.9 1.73-.95 1.6-1 1.5-1 1.36-1.06 1.26-1.08 1.17-1.12 1.08-1.15 1-1.2.94-1.24.87-1.28.8-1.33.72-1.4.68-1.45.6-1.53.57-1.62.48-1.7.42-1.83.34-1.95.27-2.1.17-1.24.03-.06-2 1.2-.03 2-.16 1.83-.24 1.72-.33 1.6-.38 1.52-.45 1.43-.52 1.36-.57 1.3-.63 1.24-.7 1.2-.73 1.14-.8 1.1-.88 1.1-.93 1.03-1 1-1.1 1-1.18.94-1.28.93-1.4.9-1.5.84-1.65.82-1.8.77-1.96.7-2.15.65-2.35.56-2.56.45-2.8.32-3.04.18-3.28v-3.5l-.2-3.74-.4-3.9-.64-4-.87-4.07-1.1-4.03-1.3-3.93-1.45-3.75-1.6-3.54-1.7-3.27-1.76-3-1.8-2.75-1.83-2.46-1.82-2.2-1.8-1.98-1.8-1.75-1.77-1.56-1.74-1.38-1.3-.93-1.85-1.2-1.93-1.08-2-1-2.1-.9-2.22-.8-2.3-.7-2.45-.58-2.55-.47-2.7-.33-2.8-.2-2.96-.02-3.1.14-3.2.32-3.33.53-3.42.74-3.5.95-3.52 1.2-3.53 1.42-3.5 1.64-3.42 1.85-3.32 2.04-3.17 2.2-3.02 2.34-2.8 2.46-2.62 2.56-2.4 2.64-2.2 2.7-1.97 2.72-1.8 2.76-1.56 2.78-1.38 2.8-1.2 2.82-.55 1.53-1.87-.67.57-1.58 1.24-2.92 1.43-2.9 1.63-2.88 1.83-2.86 2.05-2.83 2.26-2.78 2.48-2.73 2.7-2.63 2.9-2.54 3.08-2.42 3.27-2.27 3.4-2.08 3.53-1.9 3.6-1.7 3.64-1.45 3.63-1.23 3.6-1 3.53-.76 3.43-.55 3.32-.34 3.2-.15z" fill="#5e5e5e"/><path d="M662.55 220.97l-1.05.03v-2l1-.03zM587.58 162.06l-7.02 13.25-2.1-14.84z" fill="#5e5e5e"/><path d="M589.1 161.3l-9.1 17.2-2.74-19.26zm-8 10.82l4.95-9.3-6.42-1.14z" fill="#5e5e5e"/><use xlink:href="#c" transform="matrix(1,0,0,1,597.2950717395904,93.41855583565975) translate(0.005000000000002558 14.222222222222223)"/><path d="M316 380c-8.84 0-16 7.16-16 16v48c0 8.84 7.16 16 16 16h128c8.84 0 16-7.16 16-16v-48c0-8.84-7.16-16-16-16z" stroke="#5e5e5e" stroke-width="3" fill="#fff"/><use xlink:href="#d" transform="matrix(1,0,0,1,308,388) translate(7.339506172839506 36.44444444444444)"/><use xlink:href="#e" transform="matrix(1,0,0,1,308,388) translate(68.88271604938271 36.44444444444444)"/><path d="M776 340c-8.84 0-16 7.16-16 16v48c0 8.84 7.16 16 16 16h128c8.84 0 16-7.16 16-16v-48c0-8.84-7.16-16-16-16z" stroke="#5e5e5e" stroke-width="3" fill="#fff"/><use xlink:href="#f" transform="matrix(1,0,0,1,768,348) translate(30.73456790123457 23.111111111111114)"/><use xlink:href="#g" transform="matrix(1,0,0,1,768,348) translate(100.91975308641975 23.111111111111114)"/><use xlink:href="#e" transform="matrix(1,0,0,1,768,348) translate(38.11111111111111 49.77777777777778)"/><path d="M497.53 221.03l-2.3.08-2.96.3-2.73.47-2.52.6-2.35.75-2.2.85-2.05.97-1.93 1.07-1.84 1.2-1.73 1.3-1.64 1.4-1.55 1.5-1.46 1.66-1.38 1.77-1.28 1.9-1.18 2.05-1.07 2.2-.97 2.32-.82 2.48-.67 2.62-.52 2.75-.32 2.86-.15 2.96.05 3 .26 3.05.46 3.05.67 3 .87 2.92 1.05 2.84 1.2 2.73 1.4 2.6 1.52 2.45 1.67 2.3 1.78 2.16 1.9 2 2.04 1.88 2.16 1.72.6.44 4.56 3 4.28 2.35 4 1.78 3.74 1.32 3.47.9 3.22.56 3 .28 2.78.02 2.6-.2 2.44-.37 2.3-.55 2.16-.7 2.05-.9 1.95-1 1.87-1.2 1.8-1.35 1.7-1.54 1.66-1.74 1.6-1.98 1.52-2.25 1.44-2.58 1.36-2.96 1.24-3.4.3-1.14 1.94.53-.33 1.2-1.3 3.57-1.42 3.1-1.52 2.72-1.62 2.4-1.7 2.1-1.76 1.86-1.84 1.64-1.92 1.46-2 1.27-2.1 1.1-2.2.94-2.33.78-2.44.6-2.6.4-2.77.2-2.96-.02-3.15-.3-3.4-.58-3.62-.94-3.9-1.37-4.15-1.84-4.42-2.43-4.67-3.08-.67-.5-2.24-1.8-2.13-1.94-2.02-2.1-1.88-2.27-1.74-2.4-1.6-2.58-1.44-2.7-1.28-2.85-1.1-2.96-.9-3.05-.7-3.13-.5-3.17-.26-3.18-.05-3.14.15-3.1.36-2.98.54-2.88.7-2.75.87-2.6 1-2.47 1.14-2.3 1.24-2.17 1.35-2.02 1.45-1.88 1.55-1.75 1.64-1.6 1.74-1.5 1.83-1.38 1.96-1.25 2.05-1.14 2.2-1.03 2.3-.9 2.5-.78 2.64-.64 2.87-.47 3.1-.32 2.37-.07z" fill="#5e5e5e"/><path d="M498.5 221l-1 .03-.06-2 1.06-.03zM542.3 279.46l-9.18-1.2 6.46-13.55z" fill="#5e5e5e"/><path d="M543.55 280.63l-11.92-1.57L540 261.5zm-8.93-3.2l6.46.86-1.92-10.38z" fill="#5e5e5e"/><use xlink:href="#h" transform="matrix(1,0,0,1,363.6023044063237,273.11346390218426) translate(0.005000000000002558 14.222222222222223)"/><use xlink:href="#i" transform="matrix(1,0,0,1,363.6023044063237,273.11346390218426) translate(64.15314814814815 14.222222222222223)"/><path d="M981.73 399.37l-3.36 2.84-4.4 2.96-6.1 3.22-32.95 14.68-10.7 3.8-5.6 1.5-3.5.65-2.38.27-1.74.04-1.34-.06-1.07-.14-.88-.18-.74-.2-.62-.25-.55-.26-.48-.27-.43-.3-.4-.3-.35-.34-.32-.36-.3-.37-.26-.4-.24-.44-.22-.48-.18-.53-.17-.6-.13-.65-.06-.56 1.98-.22.06.48.1.5.12.45.14.4.15.32.18.3.18.28.2.25.2.24.25.2.28.23.3.2.35.2.4.2.5.18.58.18.73.15.9.12 1.2.06 1.58-.03 2.24-.24 3.34-.62 5.45-1.45 10.55-3.75L967 406.58l5.95-3.14 4.2-2.83 2.6-2.17h2.9zm26.18-55.05l1.5.1 1.07.15.8.16.63.16.5.16.43.16.35.16.3.16.26.16.23.16.2.16.18.16.16.16.15.17.13.17.12.17.1.17.1.18.07.18.07.18.06.2.05.2.03.2.03.2.03.23v.23l-.02.25-.02.27-.05.3-.08.32-.1.36-.16.4-.2.46-.3.55-.38.67-.56.82-.8 1.04-1.25 1.44-2.02 2.07-3.6 3.25-1.34 1.2-2.74 2.86-2.34 3.03-2.2 3.58-2.4 5.4h-2.17l2.78-6.33 2.33-3.8 2.5-3.2 2.85-3 1.4-1.24 3.54-3.2 1.93-1.98 1.17-1.34.74-.96.5-.72.32-.56.22-.44.16-.35.1-.3.08-.24.05-.2.03-.17.02-.15V348.43l-.03-.08-.03-.08-.02-.07-.03-.08-.03-.06-.05-.07-.04-.08-.03-.07-.06-.07-.05-.07-.08-.07-.1-.08-.1-.08-.12-.1-.16-.1-.2-.1-.25-.1-.3-.13-.4-.12-.52-.14-.7-.13-.94-.13-1.38-.1-2.08-.02-3.44.17-6.64.72-25.98 4.63-29.63 5.35-.35-1.97 29.63-5.34 26.05-4.65 6.76-.73 3.57-.17z" fill="#5e5e5e"/><path d="M904.24 422.5l-2 .06-.04-1.06h2zM939.4 360.9l-14.68-3.1 13.7-6.1z" fill="#5e5e5e"/><path d="M940.53 362.17l-19.03-4.04 17.77-7.92zm-12.6-4.72l10.32 2.2-.68-6.5z" fill="#5e5e5e"/><use xlink:href="#c" transform="matrix(1,0,0,1,931.2977649739948,377.09366945673) translate(0.005000000000002558 14.222222222222223)"/><path d="M260 358.02l-.16 4.17.02 4.2.2 4.15.42 4.07.58 3.9.73 3.72.86 3.48.96 3.23 1.05 3 1.1 2.73 1.17 2.5 1.2 2.3 1.2 2.1 1.24 1.9 1.24 1.72 1.25 1.58 1.25 1.43 1.26 1.32 1.25 1.2 1.27 1.07 1.26.98 1.28.9.83.53-1.08 1.7-.88-.56-1.35-.95-1.34-1.06-1.34-1.15-1.33-1.26-1.32-1.38-1.32-1.5-1.3-1.65-1.3-1.8-1.3-1.98-1.25-2.17-1.24-2.37-1.2-2.6-1.14-2.83-1.08-3.08-1-3.33-.88-3.57-.75-3.8-.6-4-.42-4.16-.22-4.26-.02-4.3.18-4.25.28-3.15h2zm42.97-50.3l2.92.2 3.12.35 3.35.54 3.57.78 3.78 1 3.98 1.3 4.15 1.55 4.26 1.85 4.35 2.14 4.33 2.4 4.26 2.67 4.12 2.84 3.9 3.02 3.67 3.1 3.37 3.2 3.08 3.18 2.77 3.18 2.47 3.13 2.18 3.08 1.92 3 1.67 2.92 1.43 2.84 1.24 2.75 1.04 2.68.88 2.6.7 2.55.57 2.48.42 2.43.3 2.36.17 2.34.03 1.27-2 .05-.02-1.22-.17-2.24-.28-2.28-.4-2.32-.55-2.4-.68-2.43-.84-2.52-1-2.58-1.2-2.67-1.4-2.75-1.62-2.84-1.86-2.9-2.12-3-2.4-3.06-2.72-3.1-3-3.13-3.3-3.1-3.6-3.06-3.83-2.94-4.03-2.8-4.17-2.6-4.25-2.37-4.25-2.1-4.17-1.82-4.06-1.52-3.88-1.25-3.7-.97-3.46-.75-3.25-.53-3.03-.35-2.83-.18-2.63-.03-2.44.08-2.27.2-2.1.27-2 .37-1.84.44-1.73.5-1.64.57-1.54.6-1.45.68-1.38.73-1.32.77-1.16.76-1.18.85-1.17.94-1.17 1.03-1.18 1.13-1.17 1.25-1.18 1.38-1.18 1.5-1.2 1.7-1.16 1.83-1.16 2.04-1.14 2.24-.84 1.87h-2.18l.07-.17 1.14-2.55 1.18-2.33 1.2-2.12 1.23-1.92 1.23-1.75 1.24-1.6 1.24-1.44 1.24-1.3 1.24-1.2 1.25-1.1 1.23-1 1.25-.9 1.25-.8 1.4-.82 1.46-.77 1.53-.7 1.63-.65 1.72-.6 1.83-.52 1.96-.47 2.07-.38 2.2-.3 2.38-.2 2.55-.1z" fill="#5e5e5e"/><path d="M381 378.5h-2l-.03-1 2-.05zM295.4 419.12l-15 .6 2.5-8.93z" fill="#5e5e5e"/><path d="M298.5 420l-19.44.77 3.26-11.57zm-16.77-1.34l10.54-.4-8.77-5.87z" fill="#5e5e5e"/><use xlink:href="#c" transform="matrix(1,0,0,1,203.47025209045722,333.41416168757434) translate(0.005000000000002558 14.222222222222223)"/><path d="M791 310.26l13.4 3.4 8.48 2.56 5.9 2.05 4.33 1.7 3.3 1.47 2.6 1.28 2 1.1-.97 1.75-1.96-1.07-2.5-1.25-3.24-1.43-4.25-1.68-5.8-2.02-8.4-2.52-13.3-3.38-56.33-10.7v-2.05zm-165.4-47.62l.06.38.07.37.1.37.1.38.12.38.15.4.17.4.2.4.2.43.26.44.3.45.32.47.38.5.43.53.5.55.58.6.67.62.8.68.93.74 1.1.8 1.34.9 1.62.97 2 1.1 2.5 1.25 3.23 1.43 4.25 1.68 5.82 2.02 8.4 2.52 13.3 3.4 3.54.73v2.04l-4-.83-13.38-3.4-8.47-2.56-5.9-2.05-4.34-1.7-3.3-1.47-2.6-1.28-2.07-1.14-1.7-1.03-1.4-.92-1.18-.85-1-.8-.84-.72-.74-.68-.64-.65-.55-.62-.5-.6-.42-.55-.37-.54-.34-.53-.3-.5-.25-.5-.23-.5-.2-.47-.18-.47-.15-.47-.12-.46-.1-.46-.1-.45-.06-.46-.03-.3 1.98-.2z" fill="#5e5e5e"/><path d="M625.55 262.5l-2 .05-.02-1.05h2zM839.5 335.97L827 327.7l7.24-5.77z" fill="#5e5e5e"/><path d="M841.53 338.5l-16.24-10.7 9.4-7.5zm-12.84-10.86l8.8 5.8-3.72-9.87z" fill="#5e5e5e"/><use xlink:href="#j" transform="matrix(1,0,0,1,679.0431738496353,284.5730729679712) translate(0.004999999999999005 14.222222222222223)"/><path d="M492.27 640c-8.84 0-16 7.16-16 16v48c0 8.84 7.16 16 16 16h128c8.83 0 16-7.16 16-16v-48c0-8.84-7.17-16-16-16z" stroke="#5e5e5e" stroke-width="3" fill="#fff"/><use xlink:href="#k" transform="matrix(1,0,0,1,484.26666666666677,648) translate(36.876543209876544 36.44444444444444)"/><path d="M738.2 690.7l6.96 5.76 5.7 4.33 4.9 3.4 4.38 2.8 3.97 2.28 3.67 1.92 3.4 1.6 3.22 1.35 3.03 1.14 2.9.93 2.8.78 2.7.65 2.63.5 2.57.38 2.52.26 2.48.15 1.5.03-.05 2-1.53-.03-2.57-.17-2.6-.27-2.66-.38-2.7-.52-2.8-.65-2.86-.8-3-.98-3.1-1.16-3.3-1.37-3.48-1.64-3.73-1.96-4.04-2.34-4.44-2.82-5-3.47-5.74-4.37-7-5.8-1.93-1.74h2.97zm-80.23-62.32l1.1.07 1.13.12 1.2.18 1.22.23 1.3.3 1.36.4 1.46.46 1.56.58 1.7.72 1.84.87 2.04 1.08 2.3 1.32 2.63 1.67 3.1 2.15 3.77 2.87 4.92 4.08 5.9 5.7v.4h.44l18.28 17.57h-2.9l-23.06-22.18-4.84-4-3.7-2.83-3.02-2.1-2.56-1.63-2.22-1.27-1.97-1.03-1.77-.84-1.62-.68-1.48-.55-1.38-.45-1.28-.36-1.22-.28-1.15-.22-1.1-.16-1.05-.1-1.02-.08-.98-.02-.96.02-.95.06-.93.1-.92.13-.9.18-.9.2-.92.26-.9.3-.93.35-.93.4-.64.3-.85-1.82.67-.3 1-.44 1-.38 1-.32 1-.28.98-.23 1-.2 1-.15 1-.1 1.02-.07 1.05-.02z" fill="#5e5e5e"/><path d="M798.5 719v2l-1.05-.02.04-2zM649.02 635.78l-13.8 5.87 7.7-12.86z" fill="#5e5e5e"/><path d="M650.67 636.16l-17.9 7.6 10-16.67zm-13.02 3.37l9.7-4.13-4.27-4.92z" fill="#5e5e5e"/><use xlink:href="#l" transform="matrix(1,0,0,1,655.8340691712522,669.1533966195298) translate(0.0049999999999954525 14.222222222222223)"/><use xlink:href="#m" transform="matrix(1,0,0,1,655.8340691712522,669.1533966195298) translate(78.96796296296296 14.222222222222223)"/><path d="M438.14 601.84l9.7 7.67 7.96 6.88 6.86 6.44 5.92 6.04-1.43 1.4-5.9-6-6.8-6.4-7.9-6.8-9.6-7.6-6.87-4.65h3.58zM315.8 466.86l.32 5.12.5 4.78.66 4.5.8 4.27.97 4.06 1.08 3.9 1.22 3.75 1.36 3.65 1.5 3.56 1.66 3.5 1.8 3.46 2 3.45 2.2 3.45 2.42 3.5 2.7 3.55 3.03 3.67 3.46 3.82 3.96 4.04 4.67 4.4 5.67 4.88 7.3 5.8 10.7 7.72 26.3 17.78h-3.56l-23.9-16.15-10.72-7.77-7.38-5.84-5.75-4.95-4.73-4.44-4.02-4.1-3.5-3.9-3.1-3.72-2.74-3.6-2.47-3.57-2.25-3.52-2.03-3.5-1.85-3.55-1.7-3.58-1.52-3.64-1.38-3.73-1.25-3.84-1.1-3.97-.98-4.16-.83-4.34-.67-4.6-.5-4.85-.33-5.2-.1-4.6 2-.03z" fill="#5e5e5e"/><path d="M315.68 461.47l.02.88-2 .04-.02-1.2zM477.78 641.16l-12.8-7.83 7.05-6.03z" fill="#5e5e5e"/><path d="M479.88 643.62l-16.6-10.16 9.15-7.8zm-13.2-10.43l9 5.5-4.04-9.74z" fill="#5e5e5e"/><use xlink:href="#l" transform="matrix(1,0,0,1,347.04465282008084,577.4764485852344) translate(0.0049999999999954525 14.222222222222223)"/><use xlink:href="#m" transform="matrix(1,0,0,1,347.04465282008084,577.4764485852344) translate(78.96796296296296 14.222222222222223)"/><path d="M551.67 591.5l1.76.23 1.9.38 2.03.58 2.2.78 2.4 1.04 2.62 1.35 2.84 1.73 3.06 2.18 3.28 2.68 3.46 3.28 3.6 3.9 3.64 4.54 3.58 5.16 1.24 2.07-1.72 1.02-1.2-2.02-3.5-5.05-3.56-4.43-3.5-3.8-3.37-3.17-3.17-2.6-2.95-2.1-2.7-1.65-2.48-1.3-2.28-.98-2.08-.73-1.9-.54-1.76-.36-1.63-.2-1.5-.1h-1.43l-1.33.1-1.26.2-1.2.26-1.17.35-1.13.42-1.1.5-1.08.58-1.06.67-1.05.78-1.05.9-1.06 1.02-1.06 1.2-1.07 1.37-1.07 1.62-1.1 1.9-1.1 2.3-1.1 2.74-1.08 3.35-1.03 4.15-.9 5.23-.7 6.7-.25 7.8-2-.06.26-7.88.7-6.85.94-5.36 1.05-4.3 1.13-3.48 1.15-2.88 1.16-2.4 1.17-2.04 1.16-1.73 1.14-1.5 1.16-1.3 1.15-1.1 1.16-1 1.17-.85 1.18-.75 1.2-.64 1.23-.56 1.25-.46 1.3-.37 1.35-.3 1.4-.2 1.48-.12H550z" fill="#5e5e5e"/><path d="M525.57 637.5l-.04 1h-2l.04-1.06zM595.1 635.6l-10.42-10.8 8.33-4.06z" fill="#5e5e5e"/><path d="M596.53 638.5L583 624.52l10.8-5.28zm-10.17-13.4l7.33 7.6-1.5-10.46z" fill="#5e5e5e"/><use xlink:href="#c" transform="matrix(1,0,0,1,559.2573050319886,576.7354702510152) translate(0.005000000000002558 14.222222222222223)"/><path d="M666.27 734.06L696.5 751l23.12 11.8 3.1 1.4h-4.73l-22.45-11.42-30.3-17-16.38-10.05 1.05-1.7zm36.96-31.73l17.64 15.9 15.36 15 10.84 11.53 6.92 8 4.33 5.45 2.77 3.8 1.46 2.2h-2.4l-.7-1.05-2.72-3.73-4.3-5.4-6.85-7.92-10.8-11.46-15.3-14.96-17.58-15.84-15.9-13.17-.23-.18h3.14zm-63.68-41.6l.75.1.87.17 1 .23 1.2.34 1.42.46 1.73.65 2.15.9 2.72 1.3 3.54 1.84 4.2 2.43h-3.3v.4l-1.87-1.08-3.46-1.8-2.64-1.26-2.07-.86-1.67-.62-1.34-.44-1.12-.3-.93-.23-.78-.15-.67-.1-.64-.06.2-2z" fill="#5e5e5e"/><path d="M638.8 660.62l-.03 2-1-.02v-2zM651.14 720.48l-5.15 7.7-9.3-11.78z" fill="#5e5e5e"/><path d="M652.74 719.9l-6.68 9.98-12.04-15.28zm-6.82 6.58l3.63-5.42-10.15-2.86z" fill="#5e5e5e"/><use xlink:href="#n" transform="matrix(1,0,0,1,704.329858450656,764.2011768041751) translate(0.005000000000002558 14.222222222222223)"/><path d="M334.37 700.65l6.7 7.26 3.47 2.88 23.37 16.72 7.3 3.8 5 1.85 3.84.92 1.5.22 1.55.13 1.76.06 2.07-.06 2.47-.2 3-.4 3.7-.73 4.78-1.2 6.38-2 9.24-3.48 17.24-7.68 19.37-9.1.86 1.8-19.4 9.12-17.3 7.7-9.35 3.54-6.48 2.03-4.87 1.24-3.83.74-3.1.43-2.58.2-2.2.06-1.87-.07-1.65-.15-1.66-.24-4.06-.97-5.2-1.94-7.54-3.92-23.54-16.84-3.64-3-6.92-7.5-.85-1.44h2.34zm139.4-43.38l-94.3.58-18.8 1.12-8.7.9-4.68.68-2.82.53-.3.07-7.54 2.3-3.84 2-2.27 1.78-1.47 1.65-1 1.66-.67 1.77-.38 2.1.02 2.83.36 1.86h-2.04l-.32-1.67-.02-3.2.44-2.45.8-2.12 1.18-1.96 1.7-1.94 2.57-2 4.18-2.17 7.8-2.4.4-.08 2.88-.54 4.77-.7 8.77-.9 18.9-1.13 94.36-.58z" fill="#5e5e5e"/><path d="M474.77 655.9v1.37h-1.02l-.02-2h1.12zM460 714.57l-3.25-8.7 15-.64z" fill="#5e5e5e"/><path d="M459.54 716.2l-4.2-11.26 19.43-.84zm-1.37-9.38l2.28 6.1 8.25-6.56z" fill="#5e5e5e"/><use xlink:href="#c" transform="matrix(1,0,0,1,270.68913738174564,679.0876652802492) translate(0.005000000000002558 14.222222222222223)"/><path d="M555.48 1066.9l1.44 75.9-2 .02-1.44-75.82-11.97-138.37h2.02zM535.32 815.8l4.05 64.82 2.3 26.65h-2l-2.3-26.52-4.05-64.88-1.77-93.37 2-.04z" fill="#5e5e5e"/><path d="M533.55 722.5l-2 .05-.02-1.05h2zM556.2 1158.07l-4.9-14.18 9.27-.18z" fill="#5e5e5e"/><path d="M556.27 1161.3l-6.36-18.38 12.03-.23zm-3.57-16.43l3.44 9.96 3.07-10.1z" fill="#5e5e5e"/><use xlink:href="#o" transform="matrix(1,0,0,1,500.70581810550516,907.2949599239711) translate(0.005000000000002558 14.222222222222223)"/><path d="M492.27 1162.8c-8.84 0-16 7.17-16 16v48c0 8.84 7.16 16 16 16h128c8.83 0 16-7.16 16-16v-48c0-8.83-7.17-16-16-16z" stroke="#5e5e5e" stroke-width="3" fill="#fff"/><use xlink:href="#p" transform="matrix(1,0,0,1,484.26666666666677,1170.8039310788913) translate(9.808641975308646 36.44444444444444)"/><use xlink:href="#q" transform="matrix(1,0,0,1,484.26666666666677,1170.8039310788913) translate(63.94444444444445 36.44444444444444)"/><path d="M1075.5 923.07l-1.27 3.82-2.24 6.02-2.8 6.6-3.44 7.32-4.25 8.12-5.23 9.08-6.5 10.23-8.07 11.6-10.04 13.2-12.55 15.16-15.7 17.42-19.58 20-24.28 22.76-29.55 25.5-34.82 27.56-38.98 28.32-40.73 27.07-39.36 23.86-35.33 19.47-29.98 14.9-24.57 10.97-19.8 7.86-15.9 5.55-12.82 3.9-10.42 2.67-8.57 1.83-7.1 1.2-6 .77-5.08.43-4.36.2h-3.77l-3.3-.15-2.9-.24-2.6-.32-2.3-.4-2.06-.43-1.88-.47-1.7-.52-1.56-.53-1.43-.57-1.32-.58-1.23-.6-1.13-.64-1.08-.64-1-.66-.92-.68-.88-.7-.83-.7-.8-.74-.73-.76-.7-.78-.67-.8-.63-.84-.6-.86-.58-.9-.55-.94-.5-.98-.5-1.02-.45-1.08-.42-1.14-.4-1.2-.35-1.28-.32-1.37-.27-1.45-.23-1.57-.18-1.7-.1-1.85-.03-1 2-.04v.95l.12 1.76.17 1.63.2 1.5.27 1.37.3 1.28.34 1.2.37 1.12.4 1.06.42 1 .43.95.48.92.5.86.53.83.55.8.6.77.6.75.65.7.68.7.73.7.76.65.8.64.87.64.93.6 1 .6 1.05.6 1.15.57 1.24.56 1.36.54 1.48.5 1.62.5 1.8.46 1.98.42 2.22.38 2.5.3 2.82.25 3.2.14h3.7l4.28-.2 5-.4 5.9-.76 7.03-1.2 8.5-1.8 10.34-2.67 12.74-3.85 15.83-5.52 19.72-7.83 24.5-10.93 29.9-14.88 35.26-19.42 39.3-23.82 40.66-27.03 38.9-28.26 34.76-27.52 29.48-25.43 24.22-22.7 19.54-19.94 15.64-17.36 12.5-15.08 10-13.16 8-11.52 6.46-10.16 5.2-9 4.2-8.05 3.42-7.23 2.75-6.54 2.2-5.96 1.27-3.76 45.53-150.1h2.1zm-39.38-691.8l24.37 1.26 19.02 1.8 15.28 2.07 12.53 2.25 10.46 2.34 8.84 2.36 7.58 2.37 6.56 2.36 5.74 2.33 5.05 2.3 4.48 2.3 4 2.25 3.6 2.23 3.23 2.2 2.94 2.2 2.68 2.16 2.54 2.25 1.58 1.53 1.58 1.65 1.56 1.8 1.57 1.93 1.56 2.13 1.56 2.33 1.57 2.55 1.58 2.83 1.6 3.13 1.58 3.5 1.6 3.93 1.57 4.43 1.57 5.06 1.54 5.8 1.48 6.73 1.4 7.9 1.24 9.34 1.02 11.2.67 13.67.12 16.92-.76 21.38-2.14 27.62-4.38 36.64-8.14 50.14-14.64 71.07-26.17 104.62-19.08 62.92h-2.1l19.25-63.45L1171 583.05l14.6-70.98 8.14-50.05 4.37-36.57 2.14-27.53.75-21.3-.13-16.83-.66-13.58-1-11.13-1.24-9.27-1.38-7.8-1.47-6.66-1.5-5.73-1.54-4.98-1.56-4.36-1.55-3.85-1.56-3.42-1.55-3.06-1.54-2.75-1.52-2.48-1.52-2.25-1.52-2.07-1.5-1.88-1.52-1.72-1.5-1.6-1.53-1.45-2.5-2.2-2.6-2.1-2.88-2.14-3.17-2.16-3.52-2.18-3.93-2.2-4.4-2.26-4.98-2.27-5.66-2.3-6.48-2.34-7.5-2.35-8.77-2.35-10.37-2.32-12.45-2.22-15.2-2.07-18.93-1.77-24.3-1.26-32.4-.3-46.5 1.5-83.55 6.37-158.26 14.85-18.93.63-10.9-.1-7.14-.37-.58-.05.18-2 .54.07 7.06.36 10.83.1 18.8-.63 158.23-14.85 83.6-6.37 46.6-1.52z" fill="#5e5e5e"/><path d="M557.3 1245.3l-2 .05-.03-1.05h2zM676.07 259.18l-13.12-7.26 14.9-1.84z" fill="#5e5e5e"/><path d="M676.8 260.73l-17.03-9.42 19.3-2.38zm-10.67-8.2l9.22 5.1 1.24-6.4z" fill="#5e5e5e"/><use xlink:href="#r" transform="matrix(1,0,0,1,1104.1483658371083,751.0382759672908) translate(0.004999999999999005 14.222222222222223)"/><path d="M673.72 1131.06l.38 3.1.24 3.64.03 4.2-.23 4.73-.56 5.24-.92 5.58-1.28 5.67-1.58 5.52-1.8 5.14-1.9 4.62-1.96 4.03-1.93 3.48-1.87 2.96-1.8 2.5-1.7 2.1-1.63 1.8-.46.45-1.4-1.42.42-.4 1.55-1.7 1.65-2.03 1.73-2.4 1.8-2.87 1.9-3.37 1.9-3.92 1.86-4.5 1.76-5.04 1.54-5.4 1.25-5.58.9-5.46.55-5.12.22-4.63-.03-4.07-.23-3.52-.36-3-.32-1.72h2.04zm-47.56-9.93l-.58.35-4.76 3.3-4.53 3.62-4.08 3.77-3.5 3.73-2.88 3.57-2.32 3.32-1.82 3.05-1.4 2.8-1.07 2.55-.78 2.34-.56 2.16-.37 2-.2 1.85-.03.8-2-.08.03-.86.22-2 .4-2.13.58-2.3.83-2.47 1.1-2.7 1.48-2.9 1.9-3.2 2.4-3.43 2.98-3.68 3.6-3.85 4.16-3.87 4.64-3.72 4.88-3.37 1.66-1z" fill="#5e5e5e"/><path d="M597.3 1160.3l-.03 1h-2l.03-1.06zM655.57 1199.5l-14.88 1.92 10.9-10.3z" fill="#5e5e5e"/><path d="M657.06 1200.3l-19.3 2.5 14.15-13.35zm-13.44-.27l10.45-1.35-2.8-5.9z" fill="#5e5e5e"/><use xlink:href="#h" transform="matrix(1,0,0,1,626.1580034911044,1108.3064209969668) translate(0.005000000000002558 14.222222222222223)"/><use xlink:href="#s" transform="matrix(1,0,0,1,626.1580034911044,1108.3064209969668) translate(64.15314814814815 14.222222222222223)"/><path d="M430.8 1125.46l1.4 5.75 2.1 6.9 2.85 7.84 3.45 8.17 3.76 7.76 3.73 6.75 3.44 5.55 3.05 4.38 2.65 3.4 2.28 2.64.4.42-1.43 1.38-.44-.46-2.36-2.72-2.72-3.48-3.1-4.47-3.52-5.63-3.78-6.84-3.8-7.85-3.5-8.26-2.87-7.92-2.12-7-1.44-5.86-.17-.87h2.04zm57.53 1.4l6.14 6.6 4.6 5.62 3.27 4.6 2.28 3.67 1.6 2.98 1.08 2.43.76 2 .52 1.7.34 1.47.2 1.26.1 1-2 .2-.08-.94-.2-1.14-.3-1.33-.47-1.58-.72-1.9-1.04-2.3-1.5-2.87-2.23-3.58-3.2-4.48-4.5-5.53-6.06-6.5-3.42-3.24h2.32v-.55zm-48.66-30.4l1.4.17 1.67.28 2 .5 2.5.77 3.1 1.2 3.9 1.8 4.64 2.53h-4.2l-1.33-.73-3.8-1.76-2.98-1.14-2.35-.73-1.9-.46-1.52-.26-1.28-.13-1.06-.04-.9.02-.8.07-.68.1-.6.14-.55.16-.48.17-.44.2-.4.2-.37.23-.36.24-.33.27-.3.28-.3.32-.25.28-.25.3-.24.36-.23.4-.24.44-.24.5-.25.58h-2.12l.25-.7.28-.68.28-.6.3-.54.3-.48.3-.44.3-.4.3-.37.4-.4.4-.4.44-.33.45-.32.5-.3.5-.27.57-.24.6-.23.67-.18.74-.16.82-.13.9-.08 1.05-.02z" fill="#5e5e5e"/><path d="M509.27 1161.3h-2l-.04-1 2-.06zM471.98 1193.17l-14.65-3.23 4.7-8z" fill="#5e5e5e"/><path d="M474.77 1194.8l-19-4.18 6.08-10.37zm-15.9-5.54l10.3 2.27-7-7.9z" fill="#5e5e5e"/><use xlink:href="#c" transform="matrix(1,0,0,1,370.4952315745525,1103.6994044359617) translate(0.005000000000002558 14.222222222222223)"/><path d="M139.03 845.24l-.1 5.87.15 10.43.63 11.04 1.17 11.7 1.76 12.47 2.44 13.24 3.2 14.08 4.1 14.97 5.05 15.87 6.12 16.76 7.28 17.63 8.52 18.38 9.8 19 11.02 19.4 12.2 19.48 13.2 19.25 13.97 18.66 14.45 17.7 14.62 16.45 14.5 15 14.13 13.45 13.56 11.86 12.84 10.34 12.08 8.9 11.27 7.6 10.47 6.43 9.7 5.43 9 4.54 8.35 3.78 7.73 3.12 7.2 2.55 6.68 2.06 6.25 1.65 5.85 1.3 5.5.96 5.17.7 4.88.43 4.63.2 4.4.04 4.2-.15 4.02-.32 3.85-.46 3.7-.6 3.57-.74 3.46-.86 3.35-1 3.27-1.1 2.27-.9.7 1.88-2.3.9-3.34 1.14-3.44 1-3.53.9-3.67.75-3.78.6-3.94.47-4.08.32-4.28.14-4.48-.03-4.72-.22-4.97-.45-5.25-.7-5.58-.97-5.93-1.3-6.32-1.67-6.77-2.1-7.26-2.6-7.8-3.15-8.42-3.8-9.08-4.6-9.78-5.45-10.55-6.5-11.33-7.63-12.15-8.95-12.9-10.38-13.63-11.9-14.2-13.5-14.56-15.07-14.68-16.52-14.5-17.76-14.02-18.72-13.25-19.32-12.26-19.56-11.07-19.46-9.83-19.08L169 990.1l-7.33-17.7-6.15-16.86-5.07-15.95-4.1-15.05-3.24-14.17-2.45-13.32-1.77-12.54-1.17-11.8-.62-11.12-.16-10.5.1-5.93 2.17-42.06h2zM272.8 437.06l2.75.2 2.84.33 2.57.4-.3 1.97-2.55-.4-2.76-.32-2.66-.2-2.58-.07-2.5.03-2.46.14-2.4.22-2.36.33-2.34.4-2.3.53-2.3.6-2.3.73-2.28.83-2.3.93-2.3 1.06-2.36 1.18-2.37 1.34-2.42 1.5-2.47 1.7-2.54 1.87-2.6 2.1-2.7 2.38-2.78 2.68-2.9 3.02-3.03 3.44-3.16 3.93-3.34 4.5-3.53 5.2-3.74 6.05-3.98 7.08-4.26 8.38-4.57 10-4.9 12.06-5.3 14.74-5.7 18.26-6.12 22.96-6.5 29.33-6.8 38.07-6.8 50.02-6.1 65.72-1 19.46h-2l1-19.6 6.13-65.82 6.8-50.1 6.8-38.15 6.53-29.4 6.15-23.04 5.73-18.34 5.32-14.82 4.94-12.14 4.6-10.07 4.28-8.46 4.03-7.16 3.8-6.1 3.57-5.28 3.4-4.58 3.2-4 3.1-3.5 2.95-3.08 2.85-2.73 2.76-2.42 2.67-2.17 2.6-1.92 2.54-1.73 2.5-1.55 2.44-1.38 2.4-1.23 2.4-1.1 2.38-.98 2.37-.86 2.37-.74 2.38-.64 2.4-.53 2.4-.44 2.45-.32 2.48-.24 2.55-.13 2.6-.02z" fill="#5e5e5e"/><path d="M476.17 1233.33l-.98.38-.74-1.86.94-.36zM295.42 443.3l-15 .4 2.64-8.88z" fill="#5e5e5e"/><path d="M298.52 444.23l-19.45.5 3.42-11.52zm-16.75-1.56l10.54-.28-8.68-5.98z" fill="#5e5e5e"/><use xlink:href="#t" transform="matrix(1,0,0,1,35.95110949239056,781.7788118092496) translate(0.0049999999999954525 14.222222222222223)"/><use xlink:href="#u" transform="matrix(1,0,0,1,35.95110949239056,781.7788118092496) translate(57.88154320987655 14.222222222222223)"/><use xlink:href="#v" transform="matrix(1,0,0,1,35.95110949239056,781.7788118092496) translate(72.69635802469136 14.222222222222223)"/><use xlink:href="#w" transform="matrix(1,0,0,1,35.95110949239056,781.7788118092496) translate(120.99265432098767 14.222222222222223)"/><use xlink:href="#x" transform="matrix(1,0,0,1,35.95110949239056,781.7788118092496) translate(138.72104938271607 14.222222222222223)"/><path d="M920 160c0 11.05-8.95 20-20 20s-20-8.95-20-20 8.95-20 20-20 20 8.95 20 20z" stroke="#c92d39" stroke-width="3" fill="#fff"/><path d="M912 160c0 6.63-5.37 12-12 12s-12-5.37-12-12 5.37-12 12-12 12 5.37 12 12z" stroke="#c92d39" stroke-width="3"/><path d="M767.92 202.25L752.9 212.8l-7.8 4.96-6.43 3.72-5.85 3.06-5.58 2.63-5.47 2.3-5.47 2.03-5.57 1.8-5.76 1.62-6 1.4-6.37 1.22-6.8 1-7.35.77-8.04.52-7.88.16-.04-2 7.84-.16 7.96-.5 7.27-.76 6.72-1 6.27-1.2 5.94-1.38 5.67-1.58 5.5-1.8 5.4-2 5.38-2.26 5.5-2.6 5.77-3 6.37-3.7 7.7-4.9 15-10.52 5.57-3.95h3.45zm92.2-40.4l-5.67.6-6.72.98-6.28 1.2-5.93 1.4-5.67 1.57-5.5 1.8-5.4 2-5.38 2.26-3.55 1.67h-4.5l1.66-.87 5.58-2.63 5.46-2.3 5.48-2.03 5.57-1.8 5.76-1.62 6-1.4 6.37-1.22 6.8-1 5.72-.6z" fill="#5e5e5e"/><path d="M662.55 239.98l-1.05.02v-2l1-.02zM875.27 160.15l-14.04 5.3-.43-9.27z" fill="#5e5e5e"/><path d="M878.5 160l-18.2 6.86-.56-12zm-16.34 4.02l9.87-3.72-10.17-2.8z" fill="#5e5e5e"/><use xlink:href="#y" transform="matrix(1,0,0,1,716.8057958496019,175.33289675166972) translate(0.0049999999999954525 14.222222222222223)"/><path d="M518.02 408.18l-4.85 2.4-5.07 2.2-5.32 1.95-5.62 1.73-6 1.5-6.45 1.24-7 .95-7.68.62-7.5.2-.05-2 7.44-.2 7.6-.6 6.9-.95 6.33-1.22 5.9-1.46 5.52-1.7 5.2-1.92 4.97-2.14 1.7-.85h4.44zm62.53-128.14l-.42 9.65-1.2 13.46-1.47 11.14-1.68 9.47-1.83 8.2-1.94 7.17-2 6.36-2.1 5.7-2.14 5.12-2.2 4.66-2.22 4.25-2.27 3.9-2.3 3.6-2.36 3.32-.88 1.2-4.37 5.46-3.48 3.9h-2.72l.4-.4 4.27-4.78 4.32-5.4.85-1.14 2.3-3.27 2.26-3.52 2.23-3.82 2.18-4.17 2.15-4.6 2.1-5.04 2.07-5.6 2-6.3 1.9-7.08 1.82-8.1 1.67-9.4 1.45-11.04 1.18-13.38.43-9.6z" fill="#5e5e5e"/><path d="M462.55 420.97l-1.05.03v-2l1-.03zM584.2 279.1l-9.26-.2 4.98-14.16z" fill="#5e5e5e"/><path d="M585.56 280.14l-12.02-.3L580 261.5zm-9.22-2.22l6.52.16-3.02-10.1z" fill="#5e5e5e"/><use xlink:href="#z" transform="matrix(1,0,0,1,513.504334776729,386.5974736839656) translate(0.004999999999999005 14.222222222222223)"/><path d="M866.6 307.28l.93 1.13.9 1.2.84 1.2.8 1.27.77 1.33.73 1.4.68 1.45.65 1.55.62 1.64.57 1.76.5 1.88.5 2.03.4 2.2.36 2.4.27 2.63.2 2.92.03 2.23-2 .04-.04-2.2-.18-2.82-.27-2.55-.34-2.3-.4-2.13-.46-1.94-.5-1.8-.54-1.68-.6-1.56-.6-1.47-.66-1.4-.68-1.3-.74-1.26-.76-1.2-.8-1.14-.84-1.1-.88-1.07-.93-1.05-.6-.62h2.73zm-58.43-17.62l10.67.43 7.35.6 2.4.3v2l-2.62-.3-7.26-.62-10.6-.42-73.87-.1v-2zm-139.7-19.57l2.46 1.76 2.6 1.72 2.74 1.67 2.93 1.6 3.15 1.57 3.4 1.52 3.7 1.46 4.05 1.4 4.47 1.36 1.62.4h-7.12l-3.73-1.3-3.77-1.48-3.48-1.55-3.22-1.6-3-1.65-2.83-1.7-2.66-1.77-2.53-1.82-.2-.15 1.25-1.57z" fill="#5e5e5e"/><path d="M876.38 338.5h-2l-.02-1 2-.05zM670.3 266.8l-6.54 6.56-6.85-13.34z" fill="#5e5e5e"/><path d="M671.98 266.52l-8.48 8.53-8.88-17.3zm-7.96 5.16l4.6-4.62-9.4-4.76z" fill="#5e5e5e"/><use xlink:href="#z" transform="matrix(1,0,0,1,828.6019849197658,285.5994643077707) translate(0.004999999999999005 14.222222222222223)"/><path d="M518.04 557.56l-2.5 13.16-2.1 14.26-1.66 15.7-1.1 17.65-.4 19.2-2-.06.4-19.23 1.1-17.72 1.66-15.8 2.12-14.33 2.52-13.26 1.17-5h2.06zm94.58-277.54l-.03 1.74-1.12 17.72-1.66 15.8-2.1 14.33-2.53 13.26-2.94 12.46-3.34 11.98-3.84 11.8-4.47 12.03-5.43 12.9-40.02 77.42-7.24 15.34-5.38 12.8-4.45 11.95-3 9.26h-2.1l3.2-9.9 4.5-12.03 5.42-12.9 7.25-15.4 40-77.37 5.4-12.8 4.45-11.95 3.8-11.72 3.33-11.9 2.9-12.4 2.5-13.15 2.1-14.26 1.65-15.7 1.1-17.65.04-1.7z" fill="#5e5e5e"/><path d="M510.3 637.5l-.03 1h-2l.02-1.05zM616.28 279.1l-9.27-.2 4.93-14.16z" fill="#5e5e5e"/><path d="M617.63 280.12l-12.02-.24 6.4-18.38zm-9.23-2.2l6.52.15-3.05-10.1z" fill="#5e5e5e"/><use xlink:href="#A" transform="matrix(1,0,0,1,420.8604657878678,530.8073213368501) translate(0.0049999999999954525 14.222222222222223)"/><use xlink:href="#B" transform="matrix(1,0,0,1,420.8604657878678,530.8073213368501) translate(43.461790123456794 14.222222222222223)"/><use xlink:href="#C" transform="matrix(1,0,0,1,420.8604657878678,530.8073213368501) translate(53.33833333333334 14.222222222222223)"/><path d="M420.9 211.8l12.4 2.37 12.68 1.87 14.16 1.48 16.9 1.05 20.48.4-.04 2-20.52-.4-17-1.06-14.23-1.48-12.75-1.88-12.48-2.38-9.3-2.2h8.7zm-117.86-22.37l16.72 1.04v2l-16.8-1.04-2.98-.06.04-2z" fill="#5e5e5e"/><path d="M498.5 219v2l-1.05-.02.04-2zM298.9 194.98l-14.16-4.92 14.35-4.34z" fill="#5e5e5e"/><path d="M299.88 196.38L281.5 190l18.62-5.64zm-11.9-6.25l9.95 3.46.13-6.53z" fill="#5e5e5e"/><use xlink:href="#D" transform="matrix(1,0,0,1,319.75588400704964,190.2335336173085) translate(0.005000000000002558 14.222222222222223)"/><use xlink:href="#E" transform="matrix(1,0,0,1,319.75588400704964,190.2335336173085) translate(51.313641975308656 14.222222222222223)"/><path d="M360.48 481.93l1.12 3.84 1.28 3.56 1.42 3.3 1.55 3.07 1.66 2.86 1.78 2.66 1.88 2.5 1.98 2.3 2.1 2.17 2.18 2 2.3 1.86 2.38 1.72 2.5 1.57 2.62 1.44 2.72 1.28 2.84 1.13 2.95 1 3.07.8 3.2.66 3.3.47 3.4.27 3.55.07 3.64-.14 3.73-.38 3.84-.62 3.93-.9 4-1.14 4.06-1.46 4.12-1.75 4.78-2.4h4.46l-8.4 4.2-4.23 1.8-4.2 1.5-4.1 1.18-4.05.9-3.96.65-3.87.4-3.76.15-3.66-.08-3.53-.28-3.42-.5-3.3-.66-3.2-.85-3.06-1-2.96-1.2-2.83-1.33-2.7-1.5-2.62-1.63-2.5-1.8-2.37-1.93-2.27-2.08-2.17-2.25-2.06-2.4-1.95-2.6-1.84-2.76-1.7-2.95-1.6-3.18-1.48-3.4-1.32-3.68-1.16-3.97-.54-2.35 1.95-.45zm105.62-40.67l3.45.63 2.7.84 2.2 1 1.87 1.13 1.58 1.26 1.38 1.4 1.22 1.58 1.07 1.8.9 2.1.76 2.52.5 3.07.18 3.87-.38 5-1.3 6.46-2.6 7.75-.7 1.74-3.67 7.2-1.2 1.74h-2.42l1.9-2.76 3.56-7.02.66-1.6 2.5-7.56 1.27-6.23.38-4.77-.15-3.63-.48-2.83-.67-2.27-.82-1.88-.94-1.6-1.07-1.37-1.2-1.23-1.4-1.1-1.64-1-2-.9-2.46-.78-3.2-.6-3.43-.18.12-2z" fill="#5e5e5e"/><path d="M462.58 441.06l-.1 2-.98-.06v-2zM363.48 478.4l-9.22 1 3.1-14.68z" fill="#5e5e5e"/><path d="M364.96 479.25l-11.96 1.3 4-19.05zm-9.43-1l6.48-.7-4.3-9.62z" fill="#5e5e5e"/><use xlink:href="#h" transform="matrix(1,0,0,1,419.82648060036684,492.364628323823) translate(0.005000000000002558 14.222222222222223)"/><use xlink:href="#F" transform="matrix(1,0,0,1,419.82648060036684,492.364628323823) translate(64.15314814814815 14.222222222222223)"/><path d="M816 680c-8.84 0-16 7.16-16 16v48c0 8.84 7.16 16 16 16h128c8.84 0 16-7.16 16-16v-48c0-8.84-7.16-16-16-16z" stroke="#5e5e5e" stroke-width="3" fill="#fff"/><use xlink:href="#G" transform="matrix(1,0,0,1,808,688) translate(18.327160493827158 23.111111111111114)"/><use xlink:href="#e" transform="matrix(1,0,0,1,808,688) translate(38.11111111111111 49.77777777777778)"/><path d="M853.38 467.86l-2.42 1.06-3.36 1.2-5.17 1.46-10.73 2.25-28.8 5.35-5.43 1.54-3.56 1.27-2.55 1.1-.5.26-.92-1.77.56-.3 2.67-1.17 3.7-1.32 5.57-1.57 28.87-5.36 10.65-2.23 5.04-1.43 3.22-1.14.24-.1h4.68zm-4.24-38.5l4.94 5.74 3.1 4.15 2.05 3.15 1.4 2.5.34.72h-2.23l-1.22-2.2-1.98-3.03-3.02-4.04-4.86-5.65-7.23-7.33v-.9l1-.96z" fill="#5e5e5e"/><path d="M841.43 421.53l-1 1v-1.03h.97zM794.14 485.2l-12.2 8.7 4.76-14.22z" fill="#5e5e5e"/><path d="M795.85 485.2L780 496.5l6.2-18.44zm-12 6.1l8.6-6.12-5.24-3.88z" fill="#5e5e5e"/><use xlink:href="#H" transform="matrix(1,0,0,1,788.3669424117687,445.6202894137017) translate(0.0049999999999954525 14.222222222222223)"/><use xlink:href="#I" transform="matrix(1,0,0,1,788.3669424117687,445.6202894137017) translate(74.96796296296296 14.222222222222223)"/><use xlink:href="#J" transform="matrix(1,0,0,1,788.3669424117687,445.6202894137017) translate(89.78277777777777 14.222222222222223)"/><path d="M928.54 639.27l1.8 2.45 1.73 2.8 1.66 3.15 1.55 3.6 1.42 4.08 1.24 4.66 1 5.34.68 6.1.22 6.02-2 .07-.22-5.93-.66-5.97-.97-5.18-1.2-4.52-1.38-3.94-1.5-3.47-1.6-3.03-1.64-2.65-1.7-2.34-1.5-1.73h2.63zm-44.57.76l-1.72 2.26-1.67 2.58-1.6 2.94-1.53 3.35-1.4 3.83-1.24 4.38-.2.96-1.95-.4.22-1.03 1.28-4.52 1.45-3.97 1.58-3.48 1.68-3.07 1.75-2.7 1.8-2.38h2.68z" fill="#5e5e5e"/><path d="M939.88 678.5h-2l-.04-1 2-.06zM878.14 661.6l-6.12 13.68-3.1-14.68z" fill="#5e5e5e"/><path d="M879.62 660.74l-7.95 17.76-4-19.04zm-7.26 11.32l4.3-9.62-6.48-.7z" fill="#5e5e5e"/><use xlink:href="#n" transform="matrix(1,0,0,1,864.3343736020233,617.4375338928932) translate(0.005000000000002558 14.222222222222223)"/><path d="M1011.55 716.8l-7.4 5.06-10.26 5.36-11.17 4.28-2.77.7-.5-1.94 2.66-.67 10.95-4.2 10.04-5.25 7.23-4.92.26-.23h3.04zm-7.82-27.48l6.6 1.12 3.88 1.15 2.5 1.05 1.7 1h.02-4.44l-.45-.18-3.64-1.08-6.38-1.08-12.6-.6-28.87 2.1-.15-2 29-2.1z" fill="#5e5e5e"/><path d="M962.07 692.8l-.97.08-.18-1.42-.23-.55 1.23-.08zM979.5 735.96l-14.8-2.32 13.35-6.83z" fill="#5e5e5e"/><path d="M980.72 737.16l-19.22-3 17.32-8.87zm-12.83-4.04l10.4 1.64-1.02-6.44z" fill="#5e5e5e"/><use xlink:href="#c" transform="matrix(1,0,0,1,963.3611442668505,693.66445953424) translate(0.005000000000002558 14.222222222222223)"/><path d="M1060.66 349.9l3 3.52 3.1 3.97 3.12 4.36 3.08 4.7 2.95 4.97 2.77 5.1 2.5 5.13 2.2 5.07 1.93 4.94 1.62 4.75 1.33 4.53 1.07 4.3.83 4.05.62 3.8.43 3.6.26 3.38.1 3.17v3l-.15 2.8-.24 2.67-.33 2.53-.43 2.4-.5 2.28-.57 2.17-.65 2.08-.7 2-.78 1.9-.84 1.85-.9 1.78-.96 1.73-1.02 1.66-1.1 1.6-1.15 1.58-1.24 1.54-1.32 1.5-1.4 1.45-1.46 1.42-1.5 1.43-1.8 1.9-2.25 2.57-2.83 3.52-3.7 5-5.02 7.46-7.3 11.88-11.78 21.12L985 630.1l-16.77 33.58-5.65 10.15-3.06 4.98-1.94 2.9-.74.98-1.6-1.18.7-.97 1.9-2.8 3-4.9 5.62-10.1 16.75-33.52 54.67-112.05 11.82-21.2 7.33-11.95 5.08-7.53 3.75-5.07 2.9-3.6 2.28-2.6 1.88-1.98 1.53-1.47 1.44-1.4 1.34-1.4 1.26-1.42 1.18-1.47 1.1-1.5 1.06-1.55.98-1.58.92-1.65.86-1.7.8-1.77.74-1.84.7-1.9.6-2 .56-2.1.48-2.2.4-2.32.34-2.44.23-2.58.15-2.74.02-2.9-.1-3.1-.26-3.28-.4-3.5-.62-3.74-.8-3.97-1.06-4.22-1.3-4.45-1.6-4.68-1.9-4.86-2.17-5-2.46-5.06-2.73-5.02-2.9-4.9-3.04-4.63-3.08-4.32-3.05-3.9-2.94-3.45-2.78-3.02-.44-.43h2.76zm-172.63-56.8l61.63 11.54 30.8 7.16 19.26 5.35 13.18 4.26 9.5 3.54 3.6 1.5h-.6v1.92l-3.73-1.56-9.43-3.5-13.1-4.24-19.18-5.32-30.7-7.14-61.57-11.55-20.58-3.4v-2.03zm-203.5-35l19.25 4.47 139.06 23.03H830.6l-127.2-21.07-19.37-4.5-6.98-1.93.54-1.93z" fill="#5e5e5e"/><path d="M956.86 682.66l-.62.85-1.6-1.2.6-.82zM677.84 252.43l-2.92 8.8-12.08-8.9z" fill="#5e5e5e"/><path d="M679.23 251.43l-3.8 11.4-15.66-11.52zm-4.82 8.17l2.06-6.18-10.55-.07z" fill="#5e5e5e"/><use xlink:href="#z" transform="matrix(1,0,0,1,1025.4030564850764,326.4397935433177) translate(0.004999999999999005 14.222222222222223)"/><path d="M858.07 1005.48l-6 23.4-6.1 20.27-6.16 17.7-6.16 15.6-6.15 13.85-6.15 12.36-6.1 11.1-6.07 10.03-6.04 9.1-6.02 8.28-6 7.58-6 6.96-6.02 6.4-6.04 5.92-6.07 5.47-6.13 5.07-6.18 4.7-6.28 4.35-6.36 4.04-6.5 3.75-6.62 3.47-6.8 3.2-6.97 2.93-7.2 2.68-7.44 2.42-7.73 2.15-8.06 1.9-8.42 1.6-8.85 1.3-9.33.98-9.87.62-9.48.2-.05-2 9.44-.2 9.78-.6 9.24-.98 8.76-1.3 8.34-1.58 7.98-1.88 7.65-2.14 7.37-2.4 7.12-2.64 6.9-2.9 6.72-3.16 6.55-3.43 6.42-3.7 6.3-4 6.2-4.3 6.1-4.65 6.06-5 6-5.42 6-5.85 5.94-6.34 5.95-6.9 5.96-7.53 5.97-8.22 6-9.03 6.02-9.96 6.06-11.03 6.1-12.3 6.12-13.75 6.14-15.52 6.13-17.63 6.08-20.18 5.98-23.33 4.7-22.22h2.05zM880.8 780l-.18 19.02-2.48 60.45-3.96 47.6-4.87 38.8-2.62 15.6h-2.03l2.68-15.9 4.86-38.7 3.95-47.53 2.47-60.37.2-18.98z" fill="#5e5e5e"/><path d="M638.82 1224.85l-1.05.02v-2l1-.02zM884.46 779.05l-9.27-.1 4.77-14.2z" fill="#5e5e5e"/><path d="M885.82 780.06l-12.02-.12 6.2-18.44zm-9.25-2.1l6.52.07-3.17-10.06z" fill="#5e5e5e"/><use xlink:href="#K" transform="matrix(1,0,0,1,758.5328495089526,961.4675693528777) translate(0.0049999999999954525 14.222222222222223)"/><use xlink:href="#u" transform="matrix(1,0,0,1,758.5328495089526,961.4675693528777) translate(57.88154320987655 14.222222222222223)"/><use xlink:href="#v" transform="matrix(1,0,0,1,758.5328495089526,961.4675693528777) translate(72.69635802469136 14.222222222222223)"/><use xlink:href="#w" transform="matrix(1,0,0,1,758.5328495089526,961.4675693528777) translate(120.99265432098767 14.222222222222223)"/><use xlink:href="#L" transform="matrix(1,0,0,1,758.5328495089526,961.4675693528777) translate(138.72104938271607 14.222222222222223)"/><path d="M604.23 722.5l-.1 1.23-.38 2.65-1.16 5.78-3.73 14.38-8.42 26.77-7.4 19.93-3.87 8.86-2.05 4.06-1.2 2.1-.8 1.22-.56.75-.4.5-.3.33-.26.24-.2.18-.16.13-.14.1-.12.08-.1.06-.1.04-.1.04-.07.03-.06.02h-.07l-.06.02h-.29l-.05-.02h-.05l-.05-.03-.05-.02-.04-.02h-.05l-.05-.04-.06-.04-.05-.04-.06-.04-.04-.06-.06-.06-.07-.08-.07-.1-.07-.1-.1-.13-.1-.15-.08-.22-.1-.27-.14-.36-.14-.5-.15-.73-.2-1.1-.18-1.78-.15-3.26.05-6.96 1.42-21.6 3.2-34.35" stroke="#5e5e5e" stroke-width="2" fill="none"/><path d="M605.24 722.56l-2-.06.03-1h2z" fill="#5e5e5e"/><path d="M575.98 724.72l3.37 14.62-9.24-.8z" stroke="#5e5e5e" stroke-width="2" fill="#5e5e5e"/><use xlink:href="#M" transform="matrix(1,0,0,1,554.3162657357259,812.581567940836) translate(0.0049999999999954525 14.222222222222223)"/><path d="M455.92 828.03l-5.26 6.36-2.5 2.44-1.46 1.16-.97.63-.7.36-.57.2-.46.13-.4.07-.35.02h-.32l-.3-.05-.27-.07-.26-.1-.25-.1-.24-.15-.22-.17-.22-.2-.22-.26-.22-.3-.2-.36-.22-.47-.2-.64-.2-.88-.17-1.34-.03-2.3.4-4.66 1.77-9.3h2.04l-1.82 9.57-.38 4.46.03 2.1.14 1.15.15.68.14.43.13.28.1.2.1.13.1.1.06.06.07.06.07.02.06.04.07.02.08.02h.1l.12.02h.15l.2-.05.27-.07.37-.14.53-.27.8-.53 1.3-1.03 2.35-2.3 5.13-6.2 5.85-8.75h2.4zm25.5-109.3l-7.8 11.76-7.97 16.66-2.3 6.23-13.25 43.36H448l13.45-44 2.35-6.38 8.07-16.88 7.87-11.88zm24.9 20.4l-3.1 7.05-27.5 50.58h-2.28l28-51.46 3.06-6.98z" fill="#5e5e5e"/><path d="M481.92 717.95l-.53.8-1.67-1.1.6-.92zM510.08 739.5l-8.66-3.3 9.42-11.68z" fill="#5e5e5e"/><path d="M511 740.93l-11.22-4.3L512 721.5zm-7.94-5.18l6.1 2.33.53-10.53z" fill="#5e5e5e"/><use xlink:href="#N" transform="matrix(1,0,0,1,391.0606705204734,796.7567681405608) translate(0.005000000000002558 14.222222222222223)"/><path d="M160 144c0-3.3 2.7-6 6-6h108c3.3 0 6 2.7 6 6v92c0 3.3-2.7 6-6 6H166c-3.3 0-6-2.7-6-6z" stroke="#5e5e5e" stroke-width="3" fill="#fff"/><use xlink:href="#O" transform="matrix(1,0,0,1,172,150) translate(12.845679012345684 17.77777777777778)"/><use xlink:href="#P" transform="matrix(1,0,0,1,172,150) translate(3.6481481481481524 44.44444444444444)"/><use xlink:href="#Q" transform="matrix(1,0,0,1,172,150) translate(41.85802469135803 44.44444444444444)"/><use xlink:href="#R" transform="matrix(1,0,0,1,172,150) translate(15.932098765432102 71.11111111111111)"/><path d="M344.35 296.4l4.78 1.9 4 1.92 3.43 1.9 2.97 1.88 2.6 1.9 2.32 1.9 2.07 1.93 1.88 2 1.7 2.03 1.57 2.13 1.44 2.22 1.34 2.38 1.23 2.55 1.14 2.8 1.06 3.1.96 3.55.85 4.2.74 5.2.57 7.18.1 10.9-2 .03-.1-10.83-.55-7.07-.72-5.07-.83-4.06-.93-3.43-1-3-1.1-2.67-1.18-2.45-1.27-2.27-1.38-2.13-1.5-2.02-1.62-1.95-1.8-1.9-1.97-1.85-2.22-1.83-2.5-1.82-2.86-1.82-3.32-1.83-3.9-1.85-4.67-1.88-12.5-4.32h6.13zm-123.32-51.36l.1 1.37.12 1.25.16 1.13.2 1.03.24.97.25.9.26.84.3.8.32.77.34.73.37.7.38.68.42.66.45.65.48.63.53.63.57.63.62.63.67.63.75.65.84.67.94.68 1.06.7 1.22.74 1.42.77 1.7.84 2.06.93 2.63 1.04 3.54 1.23 5.34 1.6 8.42 2.12h-8.17l-.78-.2-5.4-1.62-3.63-1.26-2.7-1.07-2.16-.95-1.76-.88-1.5-.82-1.3-.78-1.12-.75-1-.74-.9-.7-.8-.7-.75-.7-.68-.7-.63-.7-.57-.7-.54-.7-.5-.7-.46-.74-.44-.76-.4-.77-.38-.8-.35-.85-.33-.88-.3-.92-.27-.98-.25-1.04-.2-1.12-.2-1.2-.13-1.32-.1-1.46v-.6l2-.04z" fill="#5e5e5e"/><path d="M221.02 244.5l-2 .05-.02-1.05h2zM384.7 361.02l-4.7 14.24-4.57-14.28z" fill="#5e5e5e"/><path d="M386.08 360.02L380 378.5l-5.94-18.53zm-6.05 12l3.3-10-6.53-.03z" fill="#5e5e5e"/><use xlink:href="#S" transform="matrix(1,0,0,1,238.23796337330745,272.6192827215802) translate(0.005000000000002558 14.222222222222223)"/><use xlink:href="#T" transform="matrix(1,0,0,1,238.23796337330745,272.6192827215802) translate(61.140802469135814 14.222222222222223)"/><path d="M118.1 95.44l-.8 1.05-.8 1.12-.76 1.24-.74 1.34-.72 1.47-.68 1.6-.65 1.76-.6 1.94-.54 2.14-.47 2.36-.4 2.6-.26 2.85-.15 3.15.02 3.42.2 3.7.43 3.96.67 4.2.92 4.33 1.18 4.42 1.4 4.4 1.64 4.3 1.8 4.1 1.92 3.84 2 3.55 2.06 3.23 2.06 2.92 2.06 2.6 2.03 2.32 2 2.05 1.93 1.8 1.9 1.6 1.83 1.38 1.8 1.22 1.1.67-1.03 1.7-1.16-.7-1.87-1.27-1.93-1.45-1.96-1.65-2-1.88-2.07-2.12-2.1-2.4-2.1-2.68-2.13-3-2.1-3.32-2.07-3.64-1.97-3.94-1.84-4.2-1.66-4.38-1.44-4.5-1.2-4.52-.95-4.44-.68-4.28-.45-4.07-.2-3.8-.03-3.52.15-3.23.3-2.96.4-2.68.48-2.46.58-2.23.63-2.04.68-1.87.72-1.7.77-1.56.8-1.43.8-1.32.86-1.22.62-.8h2.6zm68.96-2.46l4.1 2.22 3.8 2.3 3.44 2.33 3.1 2.34 2.78 2.3 2.46 2.3 2.17 2.2 1.93 2.16 1.67 2.1 1.47 2.03 1.28 1.98 1.12 1.92.96 1.87.83 1.82.7 1.8.6 1.74.48 1.7.4 1.7.28 1.7.2 1.67.14 1.66v.64l-1.98.05-.02-.6-.12-1.55-.2-1.57-.28-1.6-.36-1.6-.46-1.62-.56-1.66-.67-1.7-.77-1.72-.92-1.78-1.05-1.84-1.23-1.9-1.4-1.94-1.62-2.02-1.85-2.08-2.1-2.15-2.4-2.2-2.7-2.26-3-2.28-3.38-2.28-3.7-2.25-4-2.17-1.72-.8v-2.23z" fill="#5e5e5e"/><path d="M221 136.5h-2l-.03-1 2-.05zM155.4 189.1l-15 .5 2.57-8.9z" fill="#5e5e5e"/><path d="M158.5 190l-19.44.64 3.33-11.55zm-16.76-1.45l10.54-.35-8.73-5.9z" fill="#5e5e5e"/><use xlink:href="#h" transform="matrix(1,0,0,1,99.61359890292597,73.15426359421568) translate(0.005000000000002558 14.222222222222223)"/><use xlink:href="#s" transform="matrix(1,0,0,1,99.61359890292597,73.15426359421568) translate(64.15314814814815 14.222222222222223)"/><path d="M157.63 218.08l-1.12.15-1.15.27-1.3.43-1.52.66-1.76.96-2.1 1.4-2.5 2.04-2.96 2.9-3.42 4.05-3.7 5.23-3.48 6.02-2.77 5.97-1.85 5.17-1.06 4.1-.52 3.15-.17 2.4v.2h-2v-.26l.18-2.58.56-3.33 1.1-4.28 1.92-5.34 2.85-6.12 3.57-6.18 3.8-5.38 3.55-4.17 3.1-3.04 2.63-2.14 2.25-1.5 1.92-1.07 1.67-.74 1.5-.5 1.32-.3 1.23-.16zm17.8 41.63l-3.44 2.83-1 .68h-3.57l3.36-2.27 3.38-2.77z" fill="#5e5e5e"/><path d="M158.5 218.04l-.98.05-.1-2 1.08-.06zM179.04 260.9l-7.96-4.76 11.3-9.86z" fill="#5e5e5e"/><path d="M179.7 262.46l-10.32-6.17 14.66-12.8zm-6.93-6.47l5.6 3.34 2.35-10.3z" fill="#5e5e5e"/><use xlink:href="#c" transform="matrix(1,0,0,1,87.83493543257794,263.20792126026527) translate(0.005000000000002558 14.222222222222223)"/><path d="M447.16 181.73l19.06 4.48 14.6 2.8-.38 1.96-14.64-2.8-19.15-4.5-39.1-11.52h7.08zM295.84 147.3l13.45.84 12.98 1.37 8.82 1.3h-15.56l-6.42-.67-13.37-.83-13.27-.28.04-2z" fill="#5e5e5e"/><path d="M282.55 147.02l-.04 2-1-.02v-2zM495.7 192.34l-14.8 2.37 1.43-9.15z" fill="#5e5e5e"/><path d="M498.9 192.84l-19.2 3.08 1.85-11.88zm-16.8.67l10.4-1.66-9.4-4.77z" fill="#5e5e5e"/><g><use xlink:href="#U" transform="matrix(1,0,0,1,299.33636807066193,150.8085148344037) translate(0.0049999999999954525 14.222222222222223)"/><use xlink:href="#V" transform="matrix(1,0,0,1,299.33636807066193,150.8085148344037) translate(46.375370370370376 14.222222222222223)"/><use xlink:href="#W" transform="matrix(1,0,0,1,299.33636807066193,150.8085148344037) translate(72.00500000000001 14.222222222222223)"/></g><path d="M700 504c0-3.3 2.7-6 6-6h148c3.3 0 6 2.7 6 6v92c0 3.3-2.7 6-6 6H706c-3.3 0-6-2.7-6-6z" stroke="#5e5e5e" stroke-width="3" fill="#fff"/><g><use xlink:href="#X" transform="matrix(1,0,0,1,712,510) translate(13.740740740740748 17.77777777777778)"/><use xlink:href="#Y" transform="matrix(1,0,0,1,712,510) translate(90.22222222222221 17.77777777777778)"/><use xlink:href="#Z" transform="matrix(1,0,0,1,712,510) translate(22.382716049382715 44.44444444444444)"/><use xlink:href="#aa" transform="matrix(1,0,0,1,712,510) translate(101.2716049382716 44.44444444444444)"/><use xlink:href="#ab" transform="matrix(1,0,0,1,712,510) translate(35.9320987654321 71.11111111111111)"/></g><path d="M776.3 659.6l.02 4.15.18 2.65.24 1.93.15.82h-2.04l-.1-.52-.25-2.04-.18-2.77-.03-4.3.66-7.95h2zm4.6-55.02l-2.14 25.67h-2l2.16-25.83z" fill="#5e5e5e"/><path d="M780.9 604.6l-1.98-.16.08-.94h2zM797.1 687.8l-3.2-.45v-2.64z" fill="#5e5e5e"/><path d="M800 689.24l-6.1-.88v-2.02l.3.05-.3-.3v-2.78z" fill="#5e5e5e"/><g><use xlink:href="#ac" transform="matrix(1,0,0,1,696.5137825270149,630.2483555296226) translate(0.0049999999999954525 14.222222222222223)"/><use xlink:href="#I" transform="matrix(1,0,0,1,696.5137825270149,630.2483555296226) translate(89.68401234567901 14.222222222222223)"/><use xlink:href="#ad" transform="matrix(1,0,0,1,696.5137825270149,630.2483555296226) translate(104.49882716049382 14.222222222222223)"/></g><path d="M862.5 549.97l3.62-.1 11.06-.8 22.65-2.65 25-4.04 16.5-3.44 9.6-2.46 5.76-1.77 3.63-1.3 2.43-1 1.7-.77 1.2-.64.9-.54.7-.44.54-.4.42-.32.34-.3.28-.26.22-.23.2-.2.15-.2.14-.18.1-.17.1-.16.08-.16.07-.14.05-.14.04-.12.03-.13.04-.1.02-.12v-.12l.02-.1V525.9l-.03-.12-.03-.1-.03-.13-.04-.12-.04-.13-.06-.13-.06-.14-.08-.14-.1-.16-.1-.17-.12-.17-.14-.2-.18-.2-.2-.2-.27-.26-.3-.27-.4-.3-.48-.36-.62-.4-.8-.47-1.08-.57-1.46-.7-2.05-.85-3.03-1.1-4.68-1.46-7.65-2-13.18-2.83-22.2-3.7-26.82-3.26-3.94-.3" stroke="#5e5e5e" stroke-width="2" fill="none"/><path d="M862.55 550.97l-1.05.03v-2l1-.03z" fill="#5e5e5e"/><path d="M864.73 504l14.52-3.76-.56 9.26z" stroke="#5e5e5e" stroke-width="2" fill="#5e5e5e"/><g><use xlink:href="#ae" transform="matrix(1,0,0,1,946.7041907463538,497.03618927798493) translate(0.005000000000002558 14.222222222222223)"/></g><path d="M644.55 464.14l-.03 1.7.06 2.06.22 2.54.45 3.14.77 3.9 1.22 4.83 1.83 5.87 2.55 6.84 3.28 7.56 3.85 7.7 4.1 7.22 4.08 6.33 3.8 5.3 3.46 4.26 3.04 3.4 2.7 2.67 2.36 2.12 2.08 1.67 1.86 1.33 1.65 1.05 1.48.84 1.35.67 1.23.54 1.13.42 1.04.32.97.24.93.17.86.1.68.07-.16 2-.74-.07-.97-.13-1.02-.2-1.08-.27-1.15-.35-1.23-.45-1.33-.57-1.45-.72-1.6-.88-1.73-1.1-1.95-1.4-2.17-1.75-2.44-2.2-2.77-2.74-3.14-3.48-3.5-4.35-3.88-5.36-4.13-6.43-4.17-7.3-3.9-7.8-3.3-7.64-2.6-6.95-1.86-5.95-1.25-4.93-.8-4-.45-3.26-.23-2.64-.1-2.17.05-1.8.04-.55h2zm44.72.7l4.62 4.1 3.84 4.03 3.06 3.74 1.43 2.08-1.65 1.14-1.38-2-2.96-3.63-3.74-3.9-4.5-4.02-3.8-2.88h3.3z" fill="#5e5e5e"/><path d="M698.5 549v2l-1.05-.03.05-2zM706.5 493.46l-9.2-11.86 8.7-3.14z" fill="#5e5e5e"/><path d="M707.58 496.5l-11.92-15.37 11.3-4.07zm-8.65-14.42l6.46 8.33-.34-10.53z" fill="#5e5e5e"/><g><use xlink:href="#af" transform="matrix(1,0,0,1,606.566791055212,442.1667984174565) translate(0.005000000000002558 14.222222222222223)"/><use xlink:href="#ag" transform="matrix(1,0,0,1,606.566791055212,442.1667984174565) translate(64.15314814814815 14.222222222222223)"/></g><path d="M520.02 82.5l.18 7.1.5 6.63.74 5.66.92 5.04 1.12 4.74 1.4 4.82 2 5.73 8.24 21.27 1.4 4.82 1.12 4.75.92 5.04.25 1.95" stroke="#5e5e5e" stroke-width="2" fill="none"/><path d="M519.93 81.5l1.07-.03.03 1.03-2 .05-.03-1.16z" fill="#5e5e5e"/><path d="M539.8 175.27l-5.55-13.94 9.25-.6z" stroke="#5e5e5e" stroke-width="2" fill="#5e5e5e"/><path d="M744.28 467.74l1.6 10.74.8 7.47.37 5.8.08 3.73-2 .04-.08-3.68-.36-5.72-.8-7.4-1.6-10.65-4.9-26.15h2.05zm-2.73-95.14l-.1.06-.58.48-.57.5-.55.5-.53.54-.5.57-.5.6-.48.63-.47.67-.45.7-.44.78-.43.82-.42.88-.4.96-.4 1.04-.37 1.15-.35 1.27-.32 1.42-.3 1.6-.28 1.8-.2 2.1-.17 2.44-.06 2.9.08 3.57.3 4.5.63 6 1.77 9.5h-2.03l-1.72-9.2-.66-6.13-.3-4.58-.07-3.64.06-3 .16-2.53.22-2.17.28-1.9.32-1.7.35-1.5.38-1.35.4-1.22.42-1.12.43-1.04.46-.96.46-.9.5-.83.48-.8.52-.73.53-.7.54-.66.56-.63.6-.6.6-.56.63-.54.65-.53.12-.08z" fill="#5e5e5e"/><path d="M747.15 496.5h-2l-.02-1 2-.05zM755.38 367.86l-12.54 8.23-2.44-8.96z" fill="#5e5e5e"/><path d="M758.5 367l-16.27 10.68-3.16-11.6zm-15.06 7.5l8.82-5.8-10.54-.5z" fill="#5e5e5e"/><g><use xlink:href="#ah" transform="matrix(1,0,0,1,632.433940078727,420.5906609413688) translate(0.0049999999999954525 14.222222222222223)"/><use xlink:href="#ai" transform="matrix(1,0,0,1,632.433940078727,420.5906609413688) translate(46.375370370370376 14.222222222222223)"/><use xlink:href="#aj" transform="matrix(1,0,0,1,632.433940078727,420.5906609413688) translate(72.00500000000001 14.222222222222223)"/><use xlink:href="#ak" transform="matrix(1,0,0,1,632.433940078727,420.5906609413688) translate(154.77043209876547 14.222222222222223)"/></g><defs><path fill="#333" d="M30-248c87 1 191-15 191 75 0 78-77 80-158 76V0H30v-248zm33 125c57 0 124 11 124-50 0-59-68-47-124-48v98" id="al"/><path fill="#333" d="M141-36C126-15 110 5 73 4 37 3 15-17 15-53c-1-64 63-63 125-63 3-35-9-54-41-54-24 1-41 7-42 31l-33-3c5-37 33-52 76-52 45 0 72 20 72 64v82c-1 20 7 32 28 27v20c-31 9-61-2-59-35zM48-53c0 20 12 33 32 33 41-3 63-29 60-74-43 2-92-5-92 41" id="am"/><path fill="#333" d="M177-190C167-65 218 103 67 71c-23-6-38-20-44-43l32-5c15 47 100 32 89-28v-30C133-14 115 1 83 1 29 1 15-40 15-95c0-56 16-97 71-98 29-1 48 16 59 35 1-10 0-23 2-32h30zM94-22c36 0 50-32 50-73 0-42-14-75-50-75-39 0-46 34-46 75s6 73 46 73" id="an"/><path fill="#333" d="M24-231v-30h32v30H24zM24 0v-190h32V0H24" id="ao"/><path fill="#333" d="M117-194c89-4 53 116 60 194h-32v-121c0-31-8-49-39-48C34-167 62-67 57 0H25l-1-190h30c1 10-1 24 2 32 11-22 29-35 61-36" id="ap"/><g id="a"><use transform="matrix(0.06172839506172839,0,0,0.06172839506172839,0,0)" xlink:href="#al"/><use transform="matrix(0.06172839506172839,0,0,0.06172839506172839,14.814814814814813,0)" xlink:href="#am"/><use transform="matrix(0.06172839506172839,0,0,0.06172839506172839,27.160493827160494,0)" xlink:href="#an"/><use transform="matrix(0.06172839506172839,0,0,0.06172839506172839,39.50617283950617,0)" xlink:href="#ao"/><use transform="matrix(0.06172839506172839,0,0,0.06172839506172839,44.382716049382715,0)" xlink:href="#ap"/><use transform="matrix(0.06172839506172839,0,0,0.06172839506172839,56.72839506172839,0)" xlink:href="#am"/></g><path fill="#333" d="M115-194c55 1 70 41 70 98S169 2 115 4C84 4 66-9 55-30l1 105H24l-1-265h31l2 30c10-21 28-34 59-34zm-8 174c40 0 45-34 45-75s-6-73-45-74c-42 0-51 32-51 76 0 43 10 73 51 73" id="aq"/><path fill="#333" d="M114-163C36-179 61-72 57 0H25l-1-190h30c1 12-1 29 2 39 6-27 23-49 58-41v29" id="ar"/><path fill="#333" d="M96-169c-40 0-48 33-48 73s9 75 48 75c24 0 41-14 43-38l32 2c-6 37-31 61-74 61-59 0-76-41-82-99-10-93 101-131 147-64 4 7 5 14 7 22l-32 3c-4-21-16-35-41-35" id="as"/><path fill="#333" d="M24 0v-261h32V0H24" id="at"/><g id="b"><use transform="matrix(0.06172839506172839,0,0,0.06172839506172839,0,0)" xlink:href="#aq"/><use transform="matrix(0.06172839506172839,0,0,0.06172839506172839,12.345679012345679,0)" xlink:href="#ar"/><use transform="matrix(0.06172839506172839,0,0,0.06172839506172839,19.691358024691358,0)" xlink:href="#ao"/><use transform="matrix(0.06172839506172839,0,0,0.06172839506172839,24.5679012345679,0)" xlink:href="#ap"/><use transform="matrix(0.06172839506172839,0,0,0.06172839506172839,36.913580246913575,0)" xlink:href="#as"/><use transform="matrix(0.06172839506172839,0,0,0.06172839506172839,48.02469135802468,0)" xlink:href="#ao"/><use transform="matrix(0.06172839506172839,0,0,0.06172839506172839,52.90123456790123,0)" xlink:href="#aq"/><use transform="matrix(0.06172839506172839,0,0,0.06172839506172839,65.24691358024691,0)" xlink:href="#am"/><use transform="matrix(0.06172839506172839,0,0,0.06172839506172839,77.5925925925926,0)" xlink:href="#at"/></g><path fill="#333" d="M24 0v-248h52V0H24" id="au"/><path fill="#333" d="M135-194c87-1 58 113 63 194h-50c-7-57 23-157-34-157-59 0-34 97-39 157H25l-1-190h47c2 12-1 28 3 38 12-26 28-41 61-42" id="av"/><path fill="#333" d="M137-138c1-29-70-34-71-4 15 46 118 7 119 86 1 83-164 76-172 9l43-7c4 19 20 25 44 25 33 8 57-30 24-41C81-84 22-81 20-136c-2-80 154-74 161-7" id="aw"/><path fill="#333" d="M115-3C79 11 28 4 28-45v-112H4v-33h27l15-45h31v45h36v33H77v99c-1 23 16 31 38 25v30" id="ax"/><path fill="#333" d="M135-150c-39-12-60 13-60 57V0H25l-1-190h47c2 13-1 29 3 40 6-28 27-53 61-41v41" id="ay"/><path fill="#333" d="M85 4C-2 5 27-109 22-190h50c7 57-23 150 33 157 60-5 35-97 40-157h50l1 190h-47c-2-12 1-28-3-38-12 25-28 42-61 42" id="az"/><path fill="#333" d="M190-63c-7 42-38 67-86 67-59 0-84-38-90-98-12-110 154-137 174-36l-49 2c-2-19-15-32-35-32-30 0-35 28-38 64-6 74 65 87 74 30" id="aA"/><path fill="#333" d="M25-224v-37h50v37H25zM25 0v-190h50V0H25" id="aB"/><path fill="#333" d="M110-194c64 0 96 36 96 99 0 64-35 99-97 99-61 0-95-36-95-99 0-62 34-99 96-99zm-1 164c35 0 45-28 45-65 0-40-10-65-43-65-34 0-45 26-45 65 0 36 10 65 43 65" id="aC"/><path fill="#333" d="M185-48c-13 30-37 53-82 52C43 2 14-33 14-96s30-98 90-98c62 0 83 45 84 108H66c0 31 8 55 39 56 18 0 30-7 34-22zm-45-69c5-46-57-63-70-21-2 6-4 13-4 21h74" id="aD"/><g id="c"><use transform="matrix(0.04938271604938272,0,0,0.04938271604938272,0,0)" xlink:href="#au"/><use transform="matrix(0.04938271604938272,0,0,0.04938271604938272,4.938271604938272,0)" xlink:href="#av"/><use transform="matrix(0.04938271604938272,0,0,0.04938271604938272,15.753086419753087,0)" xlink:href="#aw"/><use transform="matrix(0.04938271604938272,0,0,0.04938271604938272,25.629629629629633,0)" xlink:href="#ax"/><use transform="matrix(0.04938271604938272,0,0,0.04938271604938272,31.506172839506174,0)" xlink:href="#ay"/><use transform="matrix(0.04938271604938272,0,0,0.04938271604938272,38.41975308641976,0)" xlink:href="#az"/><use transform="matrix(0.04938271604938272,0,0,0.04938271604938272,49.23456790123458,0)" xlink:href="#aA"/><use transform="matrix(0.04938271604938272,0,0,0.04938271604938272,59.111111111111114,0)" xlink:href="#aA"/><use transform="matrix(0.04938271604938272,0,0,0.04938271604938272,68.98765432098767,0)" xlink:href="#aB"/><use transform="matrix(0.04938271604938272,0,0,0.04938271604938272,73.92592592592595,0)" xlink:href="#aC"/><use transform="matrix(0.04938271604938272,0,0,0.04938271604938272,84.74074074074076,0)" xlink:href="#av"/><use transform="matrix(0.04938271604938272,0,0,0.04938271604938272,95.55555555555557,0)" xlink:href="#aD"/><use transform="matrix(0.04938271604938272,0,0,0.04938271604938272,105.4320987654321,0)" xlink:href="#aw"/></g><path fill="#333" d="M212-179c-10-28-35-45-73-45-59 0-87 40-87 99 0 60 29 101 89 101 43 0 62-24 78-52l27 14C228-24 195 4 139 4 59 4 22-46 18-125c-6-104 99-153 187-111 19 9 31 26 39 46" id="aE"/><path fill="#333" d="M100-194c63 0 86 42 84 106H49c0 40 14 67 53 68 26 1 43-12 49-29l28 8c-11 28-37 45-77 45C44 4 14-33 15-96c1-61 26-98 85-98zm52 81c6-60-76-77-97-28-3 7-6 17-6 28h103" id="aF"/><g id="d"><use transform="matrix(0.06172839506172839,0,0,0.06172839506172839,0,0)" xlink:href="#aE"/><use transform="matrix(0.06172839506172839,0,0,0.06172839506172839,15.987654320987653,0)" xlink:href="#ar"/><use transform="matrix(0.06172839506172839,0,0,0.06172839506172839,23.333333333333332,0)" xlink:href="#aF"/><use transform="matrix(0.06172839506172839,0,0,0.06172839506172839,35.67901234567901,0)" xlink:href="#am"/><use transform="matrix(0.06172839506172839,0,0,0.06172839506172839,48.02469135802469,0)" xlink:href="#ar"/></g><path fill="#333" d="M59-47c-2 24 18 29 38 22v24C64 9 27 4 27-40v-127H5v-23h24l9-43h21v43h35v23H59v120" id="aG"/><path fill="#333" d="M85-194c31 0 48 13 60 33l-1-100h32l1 261h-30c-2-10 0-23-3-31C134-8 116 4 85 4 32 4 16-35 15-94c0-66 23-100 70-100zm9 24c-40 0-46 34-46 75 0 40 6 74 45 74 42 0 51-32 51-76 0-42-9-74-50-73" id="aH"/><g id="e"><use transform="matrix(0.06172839506172839,0,0,0.06172839506172839,0,0)" xlink:href="#aq"/><use transform="matrix(0.06172839506172839,0,0,0.06172839506172839,12.345679012345679,0)" xlink:href="#am"/><use transform="matrix(0.06172839506172839,0,0,0.06172839506172839,24.691358024691358,0)" xlink:href="#ar"/><use transform="matrix(0.06172839506172839,0,0,0.06172839506172839,32.03703703703704,0)" xlink:href="#aG"/><use transform="matrix(0.06172839506172839,0,0,0.06172839506172839,38.20987654320988,0)" xlink:href="#ao"/><use transform="matrix(0.06172839506172839,0,0,0.06172839506172839,43.086419753086425,0)" xlink:href="#aH"/><use transform="matrix(0.06172839506172839,0,0,0.06172839506172839,55.4320987654321,0)" xlink:href="#am"/></g><path fill="#333" d="M232-93c-1 65-40 97-104 97C67 4 28-28 28-90v-158h33c8 89-33 224 67 224 102 0 64-133 71-224h33v155" id="aI"/><path fill="#333" d="M135-143c-3-34-86-38-87 0 15 53 115 12 119 90S17 21 10-45l28-5c4 36 97 45 98 0-10-56-113-15-118-90-4-57 82-63 122-42 12 7 21 19 24 35" id="aJ"/><g id="f"><use transform="matrix(0.06172839506172839,0,0,0.06172839506172839,0,0)" xlink:href="#aI"/><use transform="matrix(0.06172839506172839,0,0,0.06172839506172839,15.987654320987653,0)" xlink:href="#ap"/><use transform="matrix(0.06172839506172839,0,0,0.06172839506172839,28.333333333333332,0)" xlink:href="#ao"/><use transform="matrix(0.06172839506172839,0,0,0.06172839506172839,33.20987654320987,0)" xlink:href="#ar"/><use transform="matrix(0.06172839506172839,0,0,0.06172839506172839,40.55555555555555,0)" xlink:href="#aJ"/><use transform="matrix(0.06172839506172839,0,0,0.06172839506172839,51.66666666666666,0)" xlink:href="#aF"/></g><use transform="matrix(0.06172839506172839,0,0,0.06172839506172839,0,0)" xlink:href="#am" id="g"/><path fill="#333" d="M199 0l-22-63H83L61 0H9l90-248h61L250 0h-51zm-33-102l-36-108c-10 38-24 72-36 108h72" id="aK"/><path fill="#333" d="M133-34C117-15 103 5 69 4 32 3 11-16 11-54c-1-60 55-63 116-61 1-26-3-47-28-47-18 1-26 9-28 27l-52-2c7-38 36-58 82-57s74 22 75 68l1 82c-1 14 12 18 25 15v27c-30 8-71 5-69-32zm-48 3c29 0 43-24 42-57-32 0-66-3-65 30 0 17 8 27 23 27" id="aL"/><g id="h"><use transform="matrix(0.04938271604938272,0,0,0.04938271604938272,0,0)" xlink:href="#aK"/><use transform="matrix(0.04938271604938272,0,0,0.04938271604938272,12.790123456790125,0)" xlink:href="#aA"/><use transform="matrix(0.04938271604938272,0,0,0.04938271604938272,22.66666666666667,0)" xlink:href="#aD"/><use transform="matrix(0.04938271604938272,0,0,0.04938271604938272,32.543209876543216,0)" xlink:href="#ay"/><use transform="matrix(0.04938271604938272,0,0,0.04938271604938272,39.4567901234568,0)" xlink:href="#aA"/><use transform="matrix(0.04938271604938272,0,0,0.04938271604938272,49.33333333333334,0)" xlink:href="#aL"/></g><path fill="#333" d="M88-194c31-1 46 15 58 34l-1-101h50l1 261h-48c-2-10 0-23-3-31C134-8 116 4 84 4 32 4 16-41 15-95c0-56 19-97 73-99zm17 164c33 0 40-30 41-66 1-37-9-64-41-64s-38 30-39 65c0 43 13 65 39 65" id="aM"/><path fill="#333" d="M67-93c0 74 22 123 53 168H70C40 30 18-18 18-93s22-123 52-168h50c-32 44-53 94-53 168" id="aN"/><path fill="#333" d="M102-93c0 74-22 123-52 168H0C30 29 54-18 53-93c0-74-22-123-53-168h50c30 45 52 94 52 168" id="aO"/><g id="i"><use transform="matrix(0.04938271604938272,0,0,0.04938271604938272,0,0)" xlink:href="#aM"/><use transform="matrix(0.04938271604938272,0,0,0.04938271604938272,10.814814814814815,0)" xlink:href="#aD"/><use transform="matrix(0.04938271604938272,0,0,0.04938271604938272,20.69135802469136,0)" xlink:href="#aN"/><use transform="matrix(0.04938271604938272,0,0,0.04938271604938272,26.567901234567902,0)" xlink:href="#aO"/></g><path fill="#333" d="M238-95c0 69-44 99-111 99C63 4 22-25 22-93v-155h51v151c-1 38 19 59 55 60 90 1 49-130 58-211h52v153" id="aP"/><g id="j"><use transform="matrix(0.04938271604938272,0,0,0.04938271604938272,0,0)" xlink:href="#aP"/><use transform="matrix(0.04938271604938272,0,0,0.04938271604938272,12.790123456790125,0)" xlink:href="#av"/><use transform="matrix(0.04938271604938272,0,0,0.04938271604938272,23.60493827160494,0)" xlink:href="#aB"/><use transform="matrix(0.04938271604938272,0,0,0.04938271604938272,28.543209876543212,0)" xlink:href="#ay"/><use transform="matrix(0.04938271604938272,0,0,0.04938271604938272,35.45679012345679,0)" xlink:href="#aw"/><use transform="matrix(0.04938271604938272,0,0,0.04938271604938272,45.333333333333336,0)" xlink:href="#aD"/></g><g id="k"><use transform="matrix(0.06172839506172839,0,0,0.06172839506172839,0,0)" xlink:href="#al"/><use transform="matrix(0.06172839506172839,0,0,0.06172839506172839,14.814814814814813,0)" xlink:href="#am"/><use transform="matrix(0.06172839506172839,0,0,0.06172839506172839,27.160493827160494,0)" xlink:href="#ar"/><use transform="matrix(0.06172839506172839,0,0,0.06172839506172839,34.50617283950617,0)" xlink:href="#aG"/><use transform="matrix(0.06172839506172839,0,0,0.06172839506172839,40.67901234567901,0)" xlink:href="#ao"/><use transform="matrix(0.06172839506172839,0,0,0.06172839506172839,45.55555555555556,0)" xlink:href="#aH"/><use transform="matrix(0.06172839506172839,0,0,0.06172839506172839,57.901234567901234,0)" xlink:href="#am"/></g><path fill="#333" d="M24 0v-248h195v40H76v63h132v40H76v65h150V0H24" id="aQ"/><path fill="#333" d="M220-157c-53 9-28 100-34 157h-49v-107c1-27-5-49-29-50C55-147 81-57 75 0H25l-1-190h47c2 12-1 28 3 38 10-53 101-56 108 0 13-22 24-43 59-42 82 1 51 116 57 194h-49v-107c-1-25-5-48-29-50" id="aR"/><path fill="#333" d="M135-194c53 0 70 44 70 98 0 56-19 98-73 100-31 1-45-17-59-34 3 33 2 69 2 105H25l-1-265h48c2 10 0 23 3 31 11-24 29-35 60-35zM114-30c33 0 39-31 40-66 0-38-9-64-40-64-56 0-55 130 0 130" id="aS"/><path fill="#333" d="M12 0v-35l95-120H19v-35h142v35L67-36h103V0H12" id="aT"/><g id="l"><use transform="matrix(0.04938271604938272,0,0,0.04938271604938272,0,0)" xlink:href="#aQ"/><use transform="matrix(0.04938271604938272,0,0,0.04938271604938272,11.851851851851853,0)" xlink:href="#aR"/><use transform="matrix(0.04938271604938272,0,0,0.04938271604938272,27.654320987654323,0)" xlink:href="#aS"/><use transform="matrix(0.04938271604938272,0,0,0.04938271604938272,38.46913580246914,0)" xlink:href="#aD"/><use transform="matrix(0.04938271604938272,0,0,0.04938271604938272,48.345679012345684,0)" xlink:href="#aT"/><use transform="matrix(0.04938271604938272,0,0,0.04938271604938272,57.23456790123457,0)" xlink:href="#aL"/><use transform="matrix(0.04938271604938272,0,0,0.04938271604938272,67.11111111111111,0)" xlink:href="#ay"/></g><g id="m"><use transform="matrix(0.04938271604938272,0,0,0.04938271604938272,0,0)" xlink:href="#aS"/><use transform="matrix(0.04938271604938272,0,0,0.04938271604938272,10.814814814814815,0)" xlink:href="#aL"/><use transform="matrix(0.04938271604938272,0,0,0.04938271604938272,20.69135802469136,0)" xlink:href="#ay"/><use transform="matrix(0.04938271604938272,0,0,0.04938271604938272,27.604938271604947,0)" xlink:href="#ax"/><use transform="matrix(0.04938271604938272,0,0,0.04938271604938272,33.48148148148149,0)" xlink:href="#aB"/><use transform="matrix(0.04938271604938272,0,0,0.04938271604938272,38.41975308641976,0)" xlink:href="#aM"/><use transform="matrix(0.04938271604938272,0,0,0.04938271604938272,49.23456790123458,0)" xlink:href="#aL"/></g><path fill="#333" d="M24-248c120-7 223 5 221 122C244-46 201 0 124 0H24v-248zM76-40c74 7 117-18 117-86 0-67-45-88-117-82v168" id="aU"/><g id="n"><use transform="matrix(0.04938271604938272,0,0,0.04938271604938272,0,0)" xlink:href="#aK"/><use transform="matrix(0.04938271604938272,0,0,0.04938271604938272,12.790123456790125,0)" xlink:href="#aA"/><use transform="matrix(0.04938271604938272,0,0,0.04938271604938272,22.66666666666667,0)" xlink:href="#aD"/><use transform="matrix(0.04938271604938272,0,0,0.04938271604938272,32.543209876543216,0)" xlink:href="#ay"/><use transform="matrix(0.04938271604938272,0,0,0.04938271604938272,39.4567901234568,0)" xlink:href="#aA"/><use transform="matrix(0.04938271604938272,0,0,0.04938271604938272,49.33333333333334,0)" xlink:href="#aL"/><use transform="matrix(0.04938271604938272,0,0,0.04938271604938272,59.209876543209894,0)" xlink:href="#aU"/><use transform="matrix(0.04938271604938272,0,0,0.04938271604938272,72.00000000000001,0)" xlink:href="#aD"/></g><path fill="#333" d="M121-226c-27-7-43 5-38 36h38v33H83V0H34v-157H6v-33h28c-9-59 32-81 87-68v32" id="aV"/><path fill="#333" d="M24-248c93 1 206-16 204 79-1 75-69 88-152 82V0H24v-248zm52 121c47 0 100 7 100-41 0-47-54-39-100-39v80" id="aW"/><g id="o"><use transform="matrix(0.04938271604938272,0,0,0.04938271604938272,0,0)" xlink:href="#aV"/><use transform="matrix(0.04938271604938272,0,0,0.04938271604938272,5.8765432098765435,0)" xlink:href="#aB"/><use transform="matrix(0.04938271604938272,0,0,0.04938271604938272,10.814814814814817,0)" xlink:href="#av"/><use transform="matrix(0.04938271604938272,0,0,0.04938271604938272,21.629629629629633,0)" xlink:href="#aW"/><use transform="matrix(0.04938271604938272,0,0,0.04938271604938272,33.48148148148149,0)" xlink:href="#aL"/><use transform="matrix(0.04938271604938272,0,0,0.04938271604938272,43.35802469135803,0)" xlink:href="#ay"/><use transform="matrix(0.04938271604938272,0,0,0.04938271604938272,50.271604938271615,0)" xlink:href="#ax"/><use transform="matrix(0.04938271604938272,0,0,0.04938271604938272,56.14814814814817,0)" xlink:href="#aB"/><use transform="matrix(0.04938271604938272,0,0,0.04938271604938272,61.08641975308644,0)" xlink:href="#aM"/><use transform="matrix(0.04938271604938272,0,0,0.04938271604938272,71.90123456790124,0)" xlink:href="#aL"/></g><path fill="#333" d="M63-220v92h138v28H63V0H30v-248h175v28H63" id="aX"/><g id="p"><use transform="matrix(0.06172839506172839,0,0,0.06172839506172839,0,0)" xlink:href="#aX"/><use transform="matrix(0.06172839506172839,0,0,0.06172839506172839,13.518518518518517,0)" xlink:href="#ao"/><use transform="matrix(0.06172839506172839,0,0,0.06172839506172839,18.39506172839506,0)" xlink:href="#ap"/><use transform="matrix(0.06172839506172839,0,0,0.06172839506172839,30.74074074074074,0)" xlink:href="#am"/><use transform="matrix(0.06172839506172839,0,0,0.06172839506172839,43.08641975308642,0)" xlink:href="#at"/></g><g id="q"><use transform="matrix(0.06172839506172839,0,0,0.06172839506172839,0,0)" xlink:href="#al"/><use transform="matrix(0.06172839506172839,0,0,0.06172839506172839,14.814814814814813,0)" xlink:href="#am"/><use transform="matrix(0.06172839506172839,0,0,0.06172839506172839,27.160493827160494,0)" xlink:href="#ar"/><use transform="matrix(0.06172839506172839,0,0,0.06172839506172839,34.50617283950617,0)" xlink:href="#aG"/><use transform="matrix(0.06172839506172839,0,0,0.06172839506172839,40.67901234567901,0)" xlink:href="#ao"/><use transform="matrix(0.06172839506172839,0,0,0.06172839506172839,45.55555555555556,0)" xlink:href="#aH"/><use transform="matrix(0.06172839506172839,0,0,0.06172839506172839,57.901234567901234,0)" xlink:href="#am"/></g><path fill="#333" d="M169-182c-1-43-94-46-97-3 18 66 151 10 154 114 3 95-165 93-204 36-6-8-10-19-12-30l50-8c3 46 112 56 116 5-17-69-150-10-154-114-4-87 153-88 188-35 5 8 8 18 10 28" id="aY"/><path fill="#333" d="M25 0v-261h50V0H25" id="aZ"/><g id="r"><use transform="matrix(0.04938271604938272,0,0,0.04938271604938272,0,0)" xlink:href="#aY"/><use transform="matrix(0.04938271604938272,0,0,0.04938271604938272,11.851851851851853,0)" xlink:href="#aL"/><use transform="matrix(0.04938271604938272,0,0,0.04938271604938272,21.7283950617284,0)" xlink:href="#aZ"/><use transform="matrix(0.04938271604938272,0,0,0.04938271604938272,26.666666666666668,0)" xlink:href="#aB"/><use transform="matrix(0.04938271604938272,0,0,0.04938271604938272,31.60493827160494,0)" xlink:href="#ay"/></g><g id="s"><use transform="matrix(0.04938271604938272,0,0,0.04938271604938272,0,0)" xlink:href="#aM"/><use transform="matrix(0.04938271604938272,0,0,0.04938271604938272,10.814814814814815,0)" xlink:href="#aD"/></g><path fill="#333" d="M147 0H94L2-248h55l64 206c17-72 42-137 63-206h54" id="ba"/><path fill="#333" d="M128 0H69L1-190h53L99-40l48-150h52" id="bb"/><g id="t"><use transform="matrix(0.04938271604938272,0,0,0.04938271604938272,0,0)" xlink:href="#ba"/><use transform="matrix(0.04938271604938272,0,0,0.04938271604938272,10.518518518518519,0)" xlink:href="#aC"/><use transform="matrix(0.04938271604938272,0,0,0.04938271604938272,21.333333333333336,0)" xlink:href="#aZ"/><use transform="matrix(0.04938271604938272,0,0,0.04938271604938272,26.271604938271608,0)" xlink:href="#bb"/><use transform="matrix(0.04938271604938272,0,0,0.04938271604938272,36.14814814814815,0)" xlink:href="#aD"/><use transform="matrix(0.04938271604938272,0,0,0.04938271604938272,46.0246913580247,0)" xlink:href="#ay"/></g><use transform="matrix(0.04938271604938272,0,0,0.04938271604938272,0,0)" xlink:href="#aL" id="u"/><path fill="#333" d="M25-224v-37h50v37H25zM75 22c2 45-34 59-81 51V38c22 5 31-5 31-27v-201h50V22" id="bc"/><path fill="#333" d="M195-6C206 82 75 100 31 46c-4-6-6-13-8-21l49-6c3 16 16 24 34 25 40 0 42-37 40-79-11 22-30 35-61 35-53 0-70-43-70-97 0-56 18-96 73-97 30 0 46 14 59 34l2-30h47zm-90-29c32 0 41-27 41-63 0-35-9-62-40-62-32 0-39 29-40 63 0 36 9 62 39 62" id="bd"/><g id="v"><use transform="matrix(0.04938271604938272,0,0,0.04938271604938272,0,0)" xlink:href="#bc"/><use transform="matrix(0.04938271604938272,0,0,0.04938271604938272,4.938271604938272,0)" xlink:href="#az"/><use transform="matrix(0.04938271604938272,0,0,0.04938271604938272,15.753086419753087,0)" xlink:href="#bd"/><use transform="matrix(0.04938271604938272,0,0,0.04938271604938272,26.567901234567902,0)" xlink:href="#aL"/><use transform="matrix(0.04938271604938272,0,0,0.04938271604938272,36.44444444444444,0)" xlink:href="#ay"/></g><path fill="#333" d="M168-19C124 19 11 11 16-68c3-43 29-60 59-75-25-44-12-111 53-106 37 3 64 15 64 52 0 43-40 52-69 68 12 22 27 41 43 59 14-19 21-38 28-64l37 13c-8 29-19 52-34 74 12 10 32 16 52 10v35c-28 11-65-2-81-17zm-58-139c19-9 43-14 43-39 0-14-10-22-25-22-34 0-33 41-18 61zM60-68c-3 40 55 47 79 25-18-20-34-42-48-67-18 8-30 20-31 42" id="be"/><use transform="matrix(0.04938271604938272,0,0,0.04938271604938272,0,0)" xlink:href="#be" id="w"/><g id="x"><use transform="matrix(0.04938271604938272,0,0,0.04938271604938272,0,0)" xlink:href="#aL"/><use transform="matrix(0.04938271604938272,0,0,0.04938271604938272,9.876543209876544,0)" xlink:href="#av"/><use transform="matrix(0.04938271604938272,0,0,0.04938271604938272,20.69135802469136,0)" xlink:href="#aV"/><use transform="matrix(0.04938271604938272,0,0,0.04938271604938272,26.567901234567902,0)" xlink:href="#aB"/><use transform="matrix(0.04938271604938272,0,0,0.04938271604938272,31.506172839506174,0)" xlink:href="#ax"/><use transform="matrix(0.04938271604938272,0,0,0.04938271604938272,37.38271604938272,0)" xlink:href="#ay"/><use transform="matrix(0.04938271604938272,0,0,0.04938271604938272,44.296296296296305,0)" xlink:href="#aB"/><use transform="matrix(0.04938271604938272,0,0,0.04938271604938272,49.23456790123458,0)" xlink:href="#aC"/><use transform="matrix(0.04938271604938272,0,0,0.04938271604938272,60.0493827160494,0)" xlink:href="#av"/></g><path fill="#333" d="M67-125c0 53 21 87 73 88 37 1 54-22 65-47l45 17C233-25 199 4 140 4 58 4 20-42 15-125 8-235 124-281 211-232c18 10 29 29 36 50l-46 12c-8-25-30-41-62-41-52 0-71 34-72 86" id="bf"/><path fill="#333" d="M175 0L67-191c6 58 2 128 3 191H24v-248h59L193-55c-6-58-2-129-3-193h46V0h-61" id="bg"/><g id="y"><use transform="matrix(0.04938271604938272,0,0,0.04938271604938272,0,0)" xlink:href="#bf"/><use transform="matrix(0.04938271604938272,0,0,0.04938271604938272,12.790123456790125,0)" xlink:href="#aD"/><use transform="matrix(0.04938271604938272,0,0,0.04938271604938272,22.66666666666667,0)" xlink:href="#ay"/><use transform="matrix(0.04938271604938272,0,0,0.04938271604938272,29.580246913580254,0)" xlink:href="#ay"/><use transform="matrix(0.04938271604938272,0,0,0.04938271604938272,36.49382716049384,0)" xlink:href="#aL"/><use transform="matrix(0.04938271604938272,0,0,0.04938271604938272,46.37037037037038,0)" xlink:href="#ay"/><use transform="matrix(0.04938271604938272,0,0,0.04938271604938272,53.28395061728396,0)" xlink:href="#bg"/><use transform="matrix(0.04938271604938272,0,0,0.04938271604938272,66.07407407407409,0)" xlink:href="#aL"/><use transform="matrix(0.04938271604938272,0,0,0.04938271604938272,75.95061728395063,0)" xlink:href="#bb"/><use transform="matrix(0.04938271604938272,0,0,0.04938271604938272,85.82716049382718,0)" xlink:href="#aD"/><use transform="matrix(0.04938271604938272,0,0,0.04938271604938272,95.70370370370372,0)" xlink:href="#bd"/><use transform="matrix(0.04938271604938272,0,0,0.04938271604938272,106.51851851851853,0)" xlink:href="#aL"/><use transform="matrix(0.04938271604938272,0,0,0.04938271604938272,116.39506172839508,0)" xlink:href="#aM"/><use transform="matrix(0.04938271604938272,0,0,0.04938271604938272,127.20987654320989,0)" xlink:href="#aC"/><use transform="matrix(0.04938271604938272,0,0,0.04938271604938272,138.0246913580247,0)" xlink:href="#ay"/></g><g id="z"><use transform="matrix(0.04938271604938272,0,0,0.04938271604938272,0,0)" xlink:href="#aY"/><use transform="matrix(0.04938271604938272,0,0,0.04938271604938272,11.851851851851853,0)" xlink:href="#aL"/><use transform="matrix(0.04938271604938272,0,0,0.04938271604938272,21.7283950617284,0)" xlink:href="#aZ"/><use transform="matrix(0.04938271604938272,0,0,0.04938271604938272,26.666666666666668,0)" xlink:href="#aB"/><use transform="matrix(0.04938271604938272,0,0,0.04938271604938272,31.60493827160494,0)" xlink:href="#ay"/></g><g id="A"><use transform="matrix(0.04938271604938272,0,0,0.04938271604938272,0,0)" xlink:href="#aY"/><use transform="matrix(0.04938271604938272,0,0,0.04938271604938272,11.851851851851853,0)" xlink:href="#aL"/><use transform="matrix(0.04938271604938272,0,0,0.04938271604938272,21.7283950617284,0)" xlink:href="#aZ"/><use transform="matrix(0.04938271604938272,0,0,0.04938271604938272,26.666666666666668,0)" xlink:href="#aB"/><use transform="matrix(0.04938271604938272,0,0,0.04938271604938272,31.60493827160494,0)" xlink:href="#ay"/></g><path fill="#333" d="M27 80v-341h46V80H27" id="bh"/><use transform="matrix(0.04938271604938272,0,0,0.04938271604938272,0,0)" xlink:href="#bh" id="B"/><path fill="#333" d="M144 0l-44-69L55 0H2l70-98-66-92h53l41 62 40-62h54l-67 91 71 99h-54" id="bi"/><path fill="#333" d="M110-194c64 0 96 36 96 99 0 64-35 99-97 99-61 0-95-36-95-99 0-62 34-99 96-99zm-1 164c35 0 45-28 45-65 0-40-10-65-43-65-34 0-45 26-45 65 0 36 10 65 43 65zM81-208v-5l45-51h45v8l-60 48H81" id="bj"/><g id="C"><use transform="matrix(0.04938271604938272,0,0,0.04938271604938272,0,0)" xlink:href="#aQ"/><use transform="matrix(0.04938271604938272,0,0,0.04938271604938272,11.851851851851853,0)" xlink:href="#ay"/><use transform="matrix(0.04938271604938272,0,0,0.04938271604938272,18.765432098765434,0)" xlink:href="#ay"/><use transform="matrix(0.04938271604938272,0,0,0.04938271604938272,25.679012345679016,0)" xlink:href="#aC"/><use transform="matrix(0.04938271604938272,0,0,0.04938271604938272,36.49382716049383,0)" xlink:href="#ay"/><use transform="matrix(0.04938271604938272,0,0,0.04938271604938272,43.40740740740741,0)" xlink:href="#aU"/><use transform="matrix(0.04938271604938272,0,0,0.04938271604938272,56.19753086419754,0)" xlink:href="#aD"/><use transform="matrix(0.04938271604938272,0,0,0.04938271604938272,66.07407407407408,0)" xlink:href="#bf"/><use transform="matrix(0.04938271604938272,0,0,0.04938271604938272,78.8641975308642,0)" xlink:href="#aC"/><use transform="matrix(0.04938271604938272,0,0,0.04938271604938272,89.67901234567901,0)" xlink:href="#av"/><use transform="matrix(0.04938271604938272,0,0,0.04938271604938272,100.49382716049382,0)" xlink:href="#aD"/><use transform="matrix(0.04938271604938272,0,0,0.04938271604938272,110.37037037037035,0)" xlink:href="#bi"/><use transform="matrix(0.04938271604938272,0,0,0.04938271604938272,120.2469135802469,0)" xlink:href="#aB"/><use transform="matrix(0.04938271604938272,0,0,0.04938271604938272,125.18518518518519,0)" xlink:href="#bj"/><use transform="matrix(0.04938271604938272,0,0,0.04938271604938272,136,0)" xlink:href="#av"/></g><g id="D"><use transform="matrix(0.04938271604938272,0,0,0.04938271604938272,0,0)" xlink:href="#bf"/><use transform="matrix(0.04938271604938272,0,0,0.04938271604938272,12.790123456790125,0)" xlink:href="#ay"/><use transform="matrix(0.04938271604938272,0,0,0.04938271604938272,19.703703703703706,0)" xlink:href="#aD"/><use transform="matrix(0.04938271604938272,0,0,0.04938271604938272,29.58024691358025,0)" xlink:href="#aL"/><use transform="matrix(0.04938271604938272,0,0,0.04938271604938272,39.4567901234568,0)" xlink:href="#ay"/></g><g id="E"><use transform="matrix(0.04938271604938272,0,0,0.04938271604938272,0,0)" xlink:href="#aw"/><use transform="matrix(0.04938271604938272,0,0,0.04938271604938272,9.876543209876544,0)" xlink:href="#aD"/><use transform="matrix(0.04938271604938272,0,0,0.04938271604938272,19.75308641975309,0)" xlink:href="#aw"/><use transform="matrix(0.04938271604938272,0,0,0.04938271604938272,29.629629629629633,0)" xlink:href="#aB"/><use transform="matrix(0.04938271604938272,0,0,0.04938271604938272,34.567901234567906,0)" xlink:href="#aC"/><use transform="matrix(0.04938271604938272,0,0,0.04938271604938272,45.38271604938272,0)" xlink:href="#av"/></g><g id="F"><use transform="matrix(0.04938271604938272,0,0,0.04938271604938272,0,0)" xlink:href="#aU"/><use transform="matrix(0.04938271604938272,0,0,0.04938271604938272,12.790123456790125,0)" xlink:href="#aD"/></g><path fill="#333" d="M30 0v-248h187v28H63v79h144v27H63v87h162V0H30" id="bk"/><path fill="#333" d="M100-194c62-1 85 37 85 99 1 63-27 99-86 99S16-35 15-95c0-66 28-99 85-99zM99-20c44 1 53-31 53-75 0-43-8-75-51-75s-53 32-53 75 10 74 51 75" id="bl"/><g id="G"><use transform="matrix(0.06172839506172839,0,0,0.06172839506172839,0,0)" xlink:href="#bk"/><use transform="matrix(0.06172839506172839,0,0,0.06172839506172839,14.814814814814813,0)" xlink:href="#aJ"/><use transform="matrix(0.06172839506172839,0,0,0.06172839506172839,25.925925925925924,0)" xlink:href="#aq"/><use transform="matrix(0.06172839506172839,0,0,0.06172839506172839,38.2716049382716,0)" xlink:href="#aF"/><use transform="matrix(0.06172839506172839,0,0,0.06172839506172839,50.61728395061728,0)" xlink:href="#ar"/><use transform="matrix(0.06172839506172839,0,0,0.06172839506172839,57.962962962962955,0)" xlink:href="#am"/><use transform="matrix(0.06172839506172839,0,0,0.06172839506172839,70.30864197530863,0)" xlink:href="#ap"/><use transform="matrix(0.06172839506172839,0,0,0.06172839506172839,82.65432098765432,0)" xlink:href="#aH"/><use transform="matrix(0.06172839506172839,0,0,0.06172839506172839,95,0)" xlink:href="#bl"/></g><g id="H"><use transform="matrix(0.04938271604938272,0,0,0.04938271604938272,0,0)" xlink:href="#aB"/><use transform="matrix(0.04938271604938272,0,0,0.04938271604938272,4.938271604938272,0)" xlink:href="#av"/><use transform="matrix(0.04938271604938272,0,0,0.04938271604938272,15.753086419753087,0)" xlink:href="#bd"/><use transform="matrix(0.04938271604938272,0,0,0.04938271604938272,26.567901234567902,0)" xlink:href="#ay"/><use transform="matrix(0.04938271604938272,0,0,0.04938271604938272,33.48148148148148,0)" xlink:href="#aD"/><use transform="matrix(0.04938271604938272,0,0,0.04938271604938272,43.358024691358025,0)" xlink:href="#aw"/><use transform="matrix(0.04938271604938272,0,0,0.04938271604938272,53.23456790123457,0)" xlink:href="#aL"/><use transform="matrix(0.04938271604938272,0,0,0.04938271604938272,63.111111111111114,0)" xlink:href="#ay"/></g><use transform="matrix(0.04938271604938272,0,0,0.04938271604938272,0,0)" xlink:href="#aL" id="I"/><g id="J"><use transform="matrix(0.04938271604938272,0,0,0.04938271604938272,0,0)" xlink:href="#aY"/><use transform="matrix(0.04938271604938272,0,0,0.04938271604938272,11.851851851851853,0)" xlink:href="#aD"/><use transform="matrix(0.04938271604938272,0,0,0.04938271604938272,21.7283950617284,0)" xlink:href="#aw"/><use transform="matrix(0.04938271604938272,0,0,0.04938271604938272,31.60493827160494,0)" xlink:href="#aB"/><use transform="matrix(0.04938271604938272,0,0,0.04938271604938272,36.543209876543216,0)" xlink:href="#bj"/><use transform="matrix(0.04938271604938272,0,0,0.04938271604938272,47.35802469135803,0)" xlink:href="#av"/></g><g id="K"><use transform="matrix(0.04938271604938272,0,0,0.04938271604938272,0,0)" xlink:href="#ba"/><use transform="matrix(0.04938271604938272,0,0,0.04938271604938272,10.518518518518519,0)" xlink:href="#aC"/><use transform="matrix(0.04938271604938272,0,0,0.04938271604938272,21.333333333333336,0)" xlink:href="#aZ"/><use transform="matrix(0.04938271604938272,0,0,0.04938271604938272,26.271604938271608,0)" xlink:href="#bb"/><use transform="matrix(0.04938271604938272,0,0,0.04938271604938272,36.14814814814815,0)" xlink:href="#aL"/><use transform="matrix(0.04938271604938272,0,0,0.04938271604938272,46.0246913580247,0)" xlink:href="#ay"/></g><g id="L"><use transform="matrix(0.04938271604938272,0,0,0.04938271604938272,0,0)" xlink:href="#bb"/><use transform="matrix(0.04938271604938272,0,0,0.04938271604938272,9.876543209876544,0)" xlink:href="#aB"/><use transform="matrix(0.04938271604938272,0,0,0.04938271604938272,14.814814814814817,0)" xlink:href="#aw"/><use transform="matrix(0.04938271604938272,0,0,0.04938271604938272,24.69135802469136,0)" xlink:href="#aB"/><use transform="matrix(0.04938271604938272,0,0,0.04938271604938272,29.629629629629633,0)" xlink:href="#ax"/><use transform="matrix(0.04938271604938272,0,0,0.04938271604938272,35.50617283950618,0)" xlink:href="#aL"/><use transform="matrix(0.04938271604938272,0,0,0.04938271604938272,45.38271604938272,0)" xlink:href="#av"/><use transform="matrix(0.04938271604938272,0,0,0.04938271604938272,56.19753086419754,0)" xlink:href="#ax"/><use transform="matrix(0.04938271604938272,0,0,0.04938271604938272,62.074074074074076,0)" xlink:href="#aD"/></g><g id="M"><use transform="matrix(0.04938271604938272,0,0,0.04938271604938272,0,0)" xlink:href="#aQ"/><use transform="matrix(0.04938271604938272,0,0,0.04938271604938272,11.851851851851853,0)" xlink:href="#av"/><use transform="matrix(0.04938271604938272,0,0,0.04938271604938272,22.666666666666668,0)" xlink:href="#aA"/><use transform="matrix(0.04938271604938272,0,0,0.04938271604938272,32.543209876543216,0)" xlink:href="#aC"/><use transform="matrix(0.04938271604938272,0,0,0.04938271604938272,43.35802469135803,0)" xlink:href="#av"/><use transform="matrix(0.04938271604938272,0,0,0.04938271604938272,54.17283950617284,0)" xlink:href="#ax"/><use transform="matrix(0.04938271604938272,0,0,0.04938271604938272,60.0493827160494,0)" xlink:href="#ay"/><use transform="matrix(0.04938271604938272,0,0,0.04938271604938272,66.96296296296298,0)" xlink:href="#aL"/><use transform="matrix(0.04938271604938272,0,0,0.04938271604938272,76.83950617283952,0)" xlink:href="#ay"/><use transform="matrix(0.04938271604938272,0,0,0.04938271604938272,83.7530864197531,0)" xlink:href="#bf"/><use transform="matrix(0.04938271604938272,0,0,0.04938271604938272,96.54320987654323,0)" xlink:href="#aL"/><use transform="matrix(0.04938271604938272,0,0,0.04938271604938272,106.41975308641979,0)" xlink:href="#ay"/><use transform="matrix(0.04938271604938272,0,0,0.04938271604938272,113.33333333333337,0)" xlink:href="#ax"/><use transform="matrix(0.04938271604938272,0,0,0.04938271604938272,119.20987654320992,0)" xlink:href="#aL"/></g><path fill="#333" d="M240-174c0 40-23 61-54 70L253 0h-59l-57-94H76V0H24v-248c93 4 217-23 216 74zM76-134c48-2 112 12 112-38 0-48-66-32-112-35v73" id="bm"/><g id="N"><use transform="matrix(0.04938271604938272,0,0,0.04938271604938272,0,0)" xlink:href="#bm"/><use transform="matrix(0.04938271604938272,0,0,0.04938271604938272,12.790123456790125,0)" xlink:href="#aD"/><use transform="matrix(0.04938271604938272,0,0,0.04938271604938272,22.66666666666667,0)" xlink:href="#bb"/><use transform="matrix(0.04938271604938272,0,0,0.04938271604938272,32.543209876543216,0)" xlink:href="#aD"/><use transform="matrix(0.04938271604938272,0,0,0.04938271604938272,42.41975308641976,0)" xlink:href="#aZ"/><use transform="matrix(0.04938271604938272,0,0,0.04938271604938272,47.35802469135803,0)" xlink:href="#aL"/><use transform="matrix(0.04938271604938272,0,0,0.04938271604938272,57.23456790123457,0)" xlink:href="#ay"/><use transform="matrix(0.04938271604938272,0,0,0.04938271604938272,64.14814814814815,0)" xlink:href="#bf"/><use transform="matrix(0.04938271604938272,0,0,0.04938271604938272,76.93827160493828,0)" xlink:href="#aL"/><use transform="matrix(0.04938271604938272,0,0,0.04938271604938272,86.81481481481482,0)" xlink:href="#ay"/><use transform="matrix(0.04938271604938272,0,0,0.04938271604938272,93.7283950617284,0)" xlink:href="#ax"/><use transform="matrix(0.04938271604938272,0,0,0.04938271604938272,99.60493827160495,0)" xlink:href="#aL"/></g><g id="O"><use transform="matrix(0.06172839506172839,0,0,0.06172839506172839,0,0)" xlink:href="#bk"/><use transform="matrix(0.06172839506172839,0,0,0.06172839506172839,14.814814814814813,0)" xlink:href="#aJ"/><use transform="matrix(0.06172839506172839,0,0,0.06172839506172839,25.925925925925924,0)" xlink:href="#aq"/><use transform="matrix(0.06172839506172839,0,0,0.06172839506172839,38.2716049382716,0)" xlink:href="#aF"/><use transform="matrix(0.06172839506172839,0,0,0.06172839506172839,50.61728395061728,0)" xlink:href="#ar"/><use transform="matrix(0.06172839506172839,0,0,0.06172839506172839,57.962962962962955,0)" xlink:href="#am"/></g><g id="P"><use transform="matrix(0.06172839506172839,0,0,0.06172839506172839,0,0)" xlink:href="#aq"/><use transform="matrix(0.06172839506172839,0,0,0.06172839506172839,12.345679012345679,0)" xlink:href="#bl"/><use transform="matrix(0.06172839506172839,0,0,0.06172839506172839,24.691358024691358,0)" xlink:href="#ar"/></g><g id="Q"><use transform="matrix(0.06172839506172839,0,0,0.06172839506172839,0,0)" xlink:href="#as"/><use transform="matrix(0.06172839506172839,0,0,0.06172839506172839,11.11111111111111,0)" xlink:href="#ar"/><use transform="matrix(0.06172839506172839,0,0,0.06172839506172839,18.45679012345679,0)" xlink:href="#aF"/><use transform="matrix(0.06172839506172839,0,0,0.06172839506172839,30.80246913580247,0)" xlink:href="#am"/><use transform="matrix(0.06172839506172839,0,0,0.06172839506172839,43.148148148148145,0)" xlink:href="#ar"/></g><g id="R"><use transform="matrix(0.06172839506172839,0,0,0.06172839506172839,0,0)" xlink:href="#aJ"/><use transform="matrix(0.06172839506172839,0,0,0.06172839506172839,11.11111111111111,0)" xlink:href="#aF"/><use transform="matrix(0.06172839506172839,0,0,0.06172839506172839,23.45679012345679,0)" xlink:href="#aJ"/><use transform="matrix(0.06172839506172839,0,0,0.06172839506172839,34.5679012345679,0)" xlink:href="#ao"/><use transform="matrix(0.06172839506172839,0,0,0.06172839506172839,39.44444444444444,0)" xlink:href="#bl"/><use transform="matrix(0.06172839506172839,0,0,0.06172839506172839,51.79012345679012,0)" xlink:href="#ap"/></g><g id="S"><use transform="matrix(0.04938271604938272,0,0,0.04938271604938272,0,0)" xlink:href="#aw"/><use transform="matrix(0.04938271604938272,0,0,0.04938271604938272,9.876543209876544,0)" xlink:href="#aD"/><use transform="matrix(0.04938271604938272,0,0,0.04938271604938272,19.75308641975309,0)" xlink:href="#aw"/><use transform="matrix(0.04938271604938272,0,0,0.04938271604938272,29.629629629629633,0)" xlink:href="#aB"/><use transform="matrix(0.04938271604938272,0,0,0.04938271604938272,34.567901234567906,0)" xlink:href="#aC"/><use transform="matrix(0.04938271604938272,0,0,0.04938271604938272,45.38271604938272,0)" xlink:href="#av"/></g><g id="T"><use transform="matrix(0.04938271604938272,0,0,0.04938271604938272,0,0)" xlink:href="#aA"/><use transform="matrix(0.04938271604938272,0,0,0.04938271604938272,9.876543209876544,0)" xlink:href="#ay"/><use transform="matrix(0.04938271604938272,0,0,0.04938271604938272,16.790123456790127,0)" xlink:href="#aD"/><use transform="matrix(0.04938271604938272,0,0,0.04938271604938272,26.666666666666668,0)" xlink:href="#aL"/><use transform="matrix(0.04938271604938272,0,0,0.04938271604938272,36.543209876543216,0)" xlink:href="#aM"/><use transform="matrix(0.04938271604938272,0,0,0.04938271604938272,47.35802469135803,0)" xlink:href="#aL"/></g><g id="U"><use transform="matrix(0.04938271604938272,0,0,0.04938271604938272,0,0)" xlink:href="#aD"/><use transform="matrix(0.04938271604938272,0,0,0.04938271604938272,9.876543209876544,0)" xlink:href="#ay"/><use transform="matrix(0.04938271604938272,0,0,0.04938271604938272,16.790123456790127,0)" xlink:href="#ay"/><use transform="matrix(0.04938271604938272,0,0,0.04938271604938272,23.70370370370371,0)" xlink:href="#aC"/><use transform="matrix(0.04938271604938272,0,0,0.04938271604938272,34.518518518518526,0)" xlink:href="#ay"/></g><g id="V"><use transform="matrix(0.04938271604938272,0,0,0.04938271604938272,0,0)" xlink:href="#aM"/><use transform="matrix(0.04938271604938272,0,0,0.04938271604938272,10.814814814814815,0)" xlink:href="#aD"/></g><g id="W"><use transform="matrix(0.04938271604938272,0,0,0.04938271604938272,0,0)" xlink:href="#aA"/><use transform="matrix(0.04938271604938272,0,0,0.04938271604938272,9.876543209876544,0)" xlink:href="#aC"/><use transform="matrix(0.04938271604938272,0,0,0.04938271604938272,20.69135802469136,0)" xlink:href="#av"/><use transform="matrix(0.04938271604938272,0,0,0.04938271604938272,31.506172839506174,0)" xlink:href="#aD"/><use transform="matrix(0.04938271604938272,0,0,0.04938271604938272,41.38271604938272,0)" xlink:href="#bi"/><use transform="matrix(0.04938271604938272,0,0,0.04938271604938272,51.25925925925927,0)" xlink:href="#aB"/><use transform="matrix(0.04938271604938272,0,0,0.04938271604938272,56.19753086419754,0)" xlink:href="#aC"/><use transform="matrix(0.04938271604938272,0,0,0.04938271604938272,67.01234567901236,0)" xlink:href="#av"/></g><g id="X"><use transform="matrix(0.06172839506172839,0,0,0.06172839506172839,0,0)" xlink:href="#bk"/><use transform="matrix(0.06172839506172839,0,0,0.06172839506172839,14.814814814814813,0)" xlink:href="#aJ"/><use transform="matrix(0.06172839506172839,0,0,0.06172839506172839,25.925925925925924,0)" xlink:href="#aq"/><use transform="matrix(0.06172839506172839,0,0,0.06172839506172839,38.2716049382716,0)" xlink:href="#aF"/><use transform="matrix(0.06172839506172839,0,0,0.06172839506172839,50.61728395061728,0)" xlink:href="#ar"/><use transform="matrix(0.06172839506172839,0,0,0.06172839506172839,57.962962962962955,0)" xlink:href="#am"/></g><g id="Y"><use transform="matrix(0.06172839506172839,0,0,0.06172839506172839,0,0)" xlink:href="#aq"/><use transform="matrix(0.06172839506172839,0,0,0.06172839506172839,12.345679012345679,0)" xlink:href="#bl"/><use transform="matrix(0.06172839506172839,0,0,0.06172839506172839,24.691358024691358,0)" xlink:href="#ar"/></g><g id="Z"><use transform="matrix(0.06172839506172839,0,0,0.06172839506172839,0,0)" xlink:href="#ao"/><use transform="matrix(0.06172839506172839,0,0,0.06172839506172839,4.876543209876543,0)" xlink:href="#ap"/><use transform="matrix(0.06172839506172839,0,0,0.06172839506172839,17.22222222222222,0)" xlink:href="#an"/><use transform="matrix(0.06172839506172839,0,0,0.06172839506172839,29.5679012345679,0)" xlink:href="#ar"/><use transform="matrix(0.06172839506172839,0,0,0.06172839506172839,36.913580246913575,0)" xlink:href="#aF"/><use transform="matrix(0.06172839506172839,0,0,0.06172839506172839,49.25925925925925,0)" xlink:href="#aJ"/><use transform="matrix(0.06172839506172839,0,0,0.06172839506172839,60.37037037037037,0)" xlink:href="#bl"/></g><use transform="matrix(0.06172839506172839,0,0,0.06172839506172839,0,0)" xlink:href="#am" id="aa"/><path fill="#333" d="M100-194c62-1 85 37 85 99 1 63-27 99-86 99S16-35 15-95c0-66 28-99 85-99zM99-20c44 1 53-31 53-75 0-43-8-75-51-75s-53 32-53 75 10 74 51 75zM76-211c8-23 27-35 38-54h36v5l-58 49H76" id="bn"/><g id="ab"><use transform="matrix(0.06172839506172839,0,0,0.06172839506172839,0,0)" xlink:href="#aJ"/><use transform="matrix(0.06172839506172839,0,0,0.06172839506172839,11.11111111111111,0)" xlink:href="#aF"/><use transform="matrix(0.06172839506172839,0,0,0.06172839506172839,23.45679012345679,0)" xlink:href="#aJ"/><use transform="matrix(0.06172839506172839,0,0,0.06172839506172839,34.5679012345679,0)" xlink:href="#ao"/><use transform="matrix(0.06172839506172839,0,0,0.06172839506172839,39.44444444444444,0)" xlink:href="#bn"/><use transform="matrix(0.06172839506172839,0,0,0.06172839506172839,51.79012345679012,0)" xlink:href="#ap"/></g><g id="ac"><use transform="matrix(0.04938271604938272,0,0,0.04938271604938272,0,0)" xlink:href="#aB"/><use transform="matrix(0.04938271604938272,0,0,0.04938271604938272,4.938271604938272,0)" xlink:href="#av"/><use transform="matrix(0.04938271604938272,0,0,0.04938271604938272,15.753086419753087,0)" xlink:href="#bd"/><use transform="matrix(0.04938271604938272,0,0,0.04938271604938272,26.567901234567902,0)" xlink:href="#ay"/><use transform="matrix(0.04938271604938272,0,0,0.04938271604938272,33.48148148148148,0)" xlink:href="#aD"/><use transform="matrix(0.04938271604938272,0,0,0.04938271604938272,43.358024691358025,0)" xlink:href="#aw"/><use transform="matrix(0.04938271604938272,0,0,0.04938271604938272,53.23456790123457,0)" xlink:href="#aL"/><use transform="matrix(0.04938271604938272,0,0,0.04938271604938272,63.111111111111114,0)" xlink:href="#aM"/><use transform="matrix(0.04938271604938272,0,0,0.04938271604938272,73.92592592592592,0)" xlink:href="#aC"/></g><g id="ad"><use transform="matrix(0.04938271604938272,0,0,0.04938271604938272,0,0)" xlink:href="#aw"/><use transform="matrix(0.04938271604938272,0,0,0.04938271604938272,9.876543209876544,0)" xlink:href="#aD"/><use transform="matrix(0.04938271604938272,0,0,0.04938271604938272,19.75308641975309,0)" xlink:href="#aw"/><use transform="matrix(0.04938271604938272,0,0,0.04938271604938272,29.629629629629633,0)" xlink:href="#aB"/><use transform="matrix(0.04938271604938272,0,0,0.04938271604938272,34.567901234567906,0)" xlink:href="#aC"/><use transform="matrix(0.04938271604938272,0,0,0.04938271604938272,45.38271604938272,0)" xlink:href="#av"/></g><g id="ae"><use transform="matrix(0.04938271604938272,0,0,0.04938271604938272,0,0)" xlink:href="#aB"/><use transform="matrix(0.04938271604938272,0,0,0.04938271604938272,4.938271604938272,0)" xlink:href="#av"/><use transform="matrix(0.04938271604938272,0,0,0.04938271604938272,15.753086419753087,0)" xlink:href="#aw"/><use transform="matrix(0.04938271604938272,0,0,0.04938271604938272,25.629629629629633,0)" xlink:href="#ax"/><use transform="matrix(0.04938271604938272,0,0,0.04938271604938272,31.506172839506174,0)" xlink:href="#ay"/><use transform="matrix(0.04938271604938272,0,0,0.04938271604938272,38.41975308641976,0)" xlink:href="#az"/><use transform="matrix(0.04938271604938272,0,0,0.04938271604938272,49.23456790123458,0)" xlink:href="#aA"/><use transform="matrix(0.04938271604938272,0,0,0.04938271604938272,59.111111111111114,0)" xlink:href="#aA"/><use transform="matrix(0.04938271604938272,0,0,0.04938271604938272,68.98765432098767,0)" xlink:href="#aB"/><use transform="matrix(0.04938271604938272,0,0,0.04938271604938272,73.92592592592595,0)" xlink:href="#aC"/><use transform="matrix(0.04938271604938272,0,0,0.04938271604938272,84.74074074074076,0)" xlink:href="#av"/><use transform="matrix(0.04938271604938272,0,0,0.04938271604938272,95.55555555555557,0)" xlink:href="#aD"/><use transform="matrix(0.04938271604938272,0,0,0.04938271604938272,105.4320987654321,0)" xlink:href="#aw"/></g><g id="af"><use transform="matrix(0.04938271604938272,0,0,0.04938271604938272,0,0)" xlink:href="#aK"/><use transform="matrix(0.04938271604938272,0,0,0.04938271604938272,12.790123456790125,0)" xlink:href="#aA"/><use transform="matrix(0.04938271604938272,0,0,0.04938271604938272,22.66666666666667,0)" xlink:href="#aD"/><use transform="matrix(0.04938271604938272,0,0,0.04938271604938272,32.543209876543216,0)" xlink:href="#ay"/><use transform="matrix(0.04938271604938272,0,0,0.04938271604938272,39.4567901234568,0)" xlink:href="#aA"/><use transform="matrix(0.04938271604938272,0,0,0.04938271604938272,49.33333333333334,0)" xlink:href="#aL"/></g><g id="ag"><use transform="matrix(0.04938271604938272,0,0,0.04938271604938272,0,0)" xlink:href="#aM"/><use transform="matrix(0.04938271604938272,0,0,0.04938271604938272,10.814814814814815,0)" xlink:href="#aD"/></g><g id="ah"><use transform="matrix(0.04938271604938272,0,0,0.04938271604938272,0,0)" xlink:href="#aD"/><use transform="matrix(0.04938271604938272,0,0,0.04938271604938272,9.876543209876544,0)" xlink:href="#ay"/><use transform="matrix(0.04938271604938272,0,0,0.04938271604938272,16.790123456790127,0)" xlink:href="#ay"/><use transform="matrix(0.04938271604938272,0,0,0.04938271604938272,23.70370370370371,0)" xlink:href="#aC"/><use transform="matrix(0.04938271604938272,0,0,0.04938271604938272,34.518518518518526,0)" xlink:href="#ay"/></g><g id="ai"><use transform="matrix(0.04938271604938272,0,0,0.04938271604938272,0,0)" xlink:href="#aM"/><use transform="matrix(0.04938271604938272,0,0,0.04938271604938272,10.814814814814815,0)" xlink:href="#aD"/></g><g id="aj"><use transform="matrix(0.04938271604938272,0,0,0.04938271604938272,0,0)" xlink:href="#aA"/><use transform="matrix(0.04938271604938272,0,0,0.04938271604938272,9.876543209876544,0)" xlink:href="#aC"/><use transform="matrix(0.04938271604938272,0,0,0.04938271604938272,20.69135802469136,0)" xlink:href="#av"/><use transform="matrix(0.04938271604938272,0,0,0.04938271604938272,31.506172839506174,0)" xlink:href="#aD"/><use transform="matrix(0.04938271604938272,0,0,0.04938271604938272,41.38271604938272,0)" xlink:href="#bi"/><use transform="matrix(0.04938271604938272,0,0,0.04938271604938272,51.25925925925927,0)" xlink:href="#aB"/><use transform="matrix(0.04938271604938272,0,0,0.04938271604938272,56.19753086419754,0)" xlink:href="#aC"/><use transform="matrix(0.04938271604938272,0,0,0.04938271604938272,67.01234567901236,0)" xlink:href="#av"/></g><g id="ak"><use transform="matrix(0.04938271604938272,0,0,0.04938271604938272,0,0)" xlink:href="#az"/><use transform="matrix(0.04938271604938272,0,0,0.04938271604938272,10.814814814814815,0)" xlink:href="#av"/><use transform="matrix(0.04938271604938272,0,0,0.04938271604938272,21.62962962962963,0)" xlink:href="#aB"/><use transform="matrix(0.04938271604938272,0,0,0.04938271604938272,26.567901234567902,0)" xlink:href="#ay"/><use transform="matrix(0.04938271604938272,0,0,0.04938271604938272,33.48148148148148,0)" xlink:href="#aw"/><use transform="matrix(0.04938271604938272,0,0,0.04938271604938272,43.358024691358025,0)" xlink:href="#aD"/></g></defs></g></svg>