<svg id="Layer_1" enable-background="new 0 0 512 512" height="512" viewBox="0 0 512 512" width="512" xmlns="http://www.w3.org/2000/svg"><g><g><path d="m475.68 284.9c0 105.45-8.69 210.91-8.69 210.91s-13.15 1.08-34.81 2.49c-39.69 2.56-107.93 6.2-176.17 6.2-50.73 0-101.46-2.01-140.46-4.1-41.1-28.42-65.94-61.67-75.14-75.37-2.08-38.95-4.09-89.54-4.09-140.13 0-42.23 1.4-84.47 3.07-119.93 2.5-53.08 5.63-90.99 5.63-90.99s105.49-8.69 210.99-8.69c68.24 0 136.48 3.64 176.17 6.21 21.66 1.4 34.81 2.48 34.81 2.48s3.12 37.89 5.63 90.96c1.67 35.47 3.06 77.71 3.06 119.96z" fill="#dcf8ff"/><path d="m472.62 164.94c1.67 35.47 3.06 77.71 3.06 119.96 0 105.45-8.69 210.91-8.69 210.91s-13.15 1.08-34.81 2.49c2.03-26.99 8.5-120.2 8.5-213.4 0-93.21-6.47-186.41-8.5-213.4 21.66 1.4 34.81 2.48 34.81 2.48s3.12 37.89 5.63 90.96z" fill="#d2e1f9"/><path d="m115.55 500.4c-41.1-28.42-65.94-61.67-75.14-75.37 0 0 37.13-3.29 74.69-2.25 0 0 2.45 34.77.45 77.62z" fill="#d2e1f9"/><path d="m472.62 164.94-.12.01s-13.15-1.05-34.88-2.44c-40.59-2.56-111.11-6.25-181.62-6.25-108.25 0-216.5 8.69-216.5 8.69l-.11.02c2.5-53.08 5.63-90.99 5.63-90.99s105.49-8.69 210.99-8.69c68.24 0 136.48 3.64 176.17 6.21 21.66 1.4 34.81 2.48 34.81 2.48s3.12 37.89 5.63 90.96z" fill="#ff5f85"/><path d="m466.99 73.98s3.12 37.89 5.63 90.96l-.12.01s-13.15-1.05-34.88-2.44c-1.96-42.66-4.35-76.46-5.44-91.01 21.66 1.4 34.81 2.48 34.81 2.48z" fill="#b2527e"/></g><g><path d="m344.389 495.257c-31.392 1.157-61.129 1.743-88.384 1.743-40.237 0-84.831-1.244-132.66-3.7 1.42-39.376-.738-70.716-.762-71.047-.271-3.848-3.417-6.863-7.273-6.97-27.398-.763-54.829.78-67.816 1.684-2.441-47.765-3.679-92.16-3.679-132.065 0-15.283.186-31.485.553-48.155.091-4.141-3.192-7.572-7.333-7.663-4.125-.12-7.572 3.191-7.663 7.333-.37 16.779-.557 33.092-.557 48.485 0 42.297 1.38 89.578 4.101 140.528.072 1.351.508 2.657 1.262 3.78 9.058 13.494 34.704 48.044 77.101 77.36 1.141.789 2.479 1.246 3.864 1.32 50.898 2.727 98.291 4.109 140.861 4.109 27.438 0 57.361-.59 88.937-1.753 4.139-.153 7.371-3.632 7.219-7.771-.153-4.138-3.626-7.385-7.771-7.218zm-290.087-63.706c12.638-.781 32.804-1.714 53.701-1.417.496 10.239 1.224 31.042.563 55.898-25.642-19.694-43.702-40.566-54.264-54.481z"/><path d="m474.47 73.364c-.301-3.656-3.203-6.558-6.859-6.859-.44-.036-19.073-1.553-48.222-3.311 2.298-22.431-1.267-39.304-10.629-50.229-9.669-11.281-22.668-12.965-29.556-12.965-9.999 0-18.583 3.596-24.827 10.4-9.18 10.004-12.85 26.525-10.908 49.104-15.818-.577-32.412-1.054-49.315-1.356 1.628-20.318-1.946-35.657-10.66-45.67-4.953-5.693-14.142-12.478-29.79-12.478-9.999 0-18.583 3.596-24.827 10.4-8.995 9.803-12.7 25.862-11.018 47.748-16.907.302-33.503.78-49.323 1.356 1.888-20.891-1.601-36.633-10.407-46.871-4.957-5.763-14.173-12.633-29.925-12.633-9.999 0-18.583 3.596-24.827 10.4-9.182 10.006-12.851 26.531-10.907 49.116.107 1.24.228 2.462.363 3.666-29.271 1.763-47.993 3.288-48.434 3.324-3.656.301-6.557 3.202-6.859 6.858-.046.553-4.594 56.137-7.09 125.927-.148 4.14 3.087 7.615 7.227 7.763 4.125.146 7.615-3.088 7.763-7.227.344-9.604.726-18.936 1.13-27.89 24.905-1.834 117.7-8.177 209.431-8.177 22.073 0 45.861.367 70.705 1.092 4.167.135 7.595-3.138 7.715-7.278.121-4.141-3.138-7.595-7.278-7.715-24.989-.729-48.924-1.099-71.142-1.099-90.089 0-181.161 6.082-208.713 8.085 1.792-35.883 3.795-63.887 4.704-75.884 8.065-.609 23.367-1.71 43.47-2.91 4.011 15.979 11.366 27.607 21.972 34.684 8.752 5.84 18.03 7.372 25.357 7.372 7.762 0 13.334-1.719 13.773-1.859 3.932-1.251 6.094-5.437 4.864-9.375s-5.431-6.137-9.374-4.931c-.144.044-14.482 4.295-26.424-3.771-6.789-4.585-11.767-12.288-14.884-22.996 30.533-1.68 68.993-3.371 109.111-4.058 3.674 18.537 11.408 31.833 23.077 39.619 8.752 5.84 18.03 7.372 25.357 7.372 7.762 0 13.334-1.719 13.773-1.859 3.932-1.251 6.094-5.437 4.864-9.375s-5.431-6.137-9.374-4.931c-.144.044-14.482 4.295-26.424-3.771-7.66-5.173-13.014-14.316-15.992-27.265 6.94-.072 13.906-.11 20.866-.11 30.667 0 61.458.746 89.657 1.801 3.787 17.766 11.416 30.562 22.773 38.139 8.752 5.84 18.03 7.372 25.357 7.372 7.762 0 13.334-1.719 13.773-1.859 3.932-1.251 6.094-5.437 4.864-9.375-1.229-3.938-5.43-6.137-9.374-4.931-.144.044-14.482 4.295-26.424-3.771-7.196-4.86-12.357-13.223-15.425-24.953 46.801 1.991 84.381 4.655 98.809 5.744.905 11.982 2.897 39.937 4.688 75.882-15.716-1.146-52.047-3.62-96.761-5.518-4.15-.196-7.636 3.037-7.811 7.175-.176 4.138 3.037 7.635 7.175 7.811 46.367 1.968 83.654 4.556 98.113 5.624 1.534 34.027 2.765 73.598 2.765 112.967 0 89.27-6.331 179.583-8.17 203.933-12.34.934-41.605 3.024-78.828 4.842-4.137.202-7.328 3.72-7.125 7.857.196 4.013 3.511 7.135 7.485 7.134.123 0 .247-.003.372-.009 49.709-2.428 85.337-5.342 85.691-5.372 3.656-.301 6.558-3.203 6.859-6.859.087-1.058 8.715-106.978 8.715-211.527.003-104.562-8.625-210.482-8.712-211.54zm-367.055-15.135c-1.547-17.969.879-31.001 7.015-37.688 3.374-3.677 8.008-5.542 13.774-5.542 8.079 0 14.321 2.495 18.554 7.415 6.237 7.251 8.507 20.207 6.649 37.679-16.464.683-31.85 1.454-45.575 2.218-.158-1.33-.298-2.691-.417-4.082zm125.474-.302c-1.494-17.813.939-30.737 7.04-37.386 3.374-3.677 8.008-5.542 13.774-5.542 8.03 0 14.246 2.464 18.475 7.324 6.029 6.927 8.396 19.161 6.94 35.603-7.684-.087-15.402-.134-23.114-.134-7.711.001-15.431.048-23.115.135zm125.526.302c-1.547-17.969.879-31.001 7.015-37.688 3.374-3.677 8.008-5.542 13.774-5.542 4.312 0 12.405 1.004 18.166 7.726 6.595 7.696 8.992 21.308 7.027 39.599-13.785-.768-29.252-1.544-45.808-2.231-.062-.615-.12-1.236-.174-1.864z"/><path d="m125.16 326.841c-20.462 18.08-35.32 25.237-35.454 25.301-2.628 1.236-4.306 3.877-4.309 6.781s1.672 5.548 4.298 6.788c1.032.487 17.655 8.143 41.895 8.142 12.356 0 26.697-1.991 41.95-7.936 3.859-1.504 5.769-5.852 4.265-9.711s-5.849-5.771-9.712-4.264c-22.861 8.91-43.578 7.481-56.859 4.75 6.452-4.359 14.626-10.453 23.858-18.61 31.085-27.466 46.761-65.596 37.273-90.662-3.47-9.167-13.654-24.546-42.879-24.546-15.002 0-26.44 4.919-33.994 14.62-15.47 19.866-7.501 52.33-7.155 53.702 1.014 4.011 5.083 6.438 9.096 5.431s6.451-5.08 5.45-9.095c-1.847-7.409-4.645-29.189 4.465-40.85 4.631-5.927 11.873-8.809 22.138-8.809 15.413 0 25.12 4.999 28.851 14.856 7.125 18.825-7.448 51.379-33.177 74.112z"/><path d="m331.051 326.841c-20.462 18.08-35.32 25.237-35.454 25.301-2.628 1.236-4.306 3.877-4.309 6.781s1.672 5.548 4.298 6.788c1.032.487 17.655 8.143 41.895 8.142 12.356 0 26.697-1.991 41.95-7.936 3.859-1.504 5.769-5.852 4.265-9.711s-5.849-5.771-9.712-4.264c-22.861 8.91-43.578 7.481-56.859 4.75 6.452-4.359 14.626-10.453 23.858-18.609 31.086-27.467 46.762-65.596 37.274-90.663-3.47-9.167-13.655-24.546-42.88-24.546-15.002 0-26.44 4.919-33.994 14.62-15.47 19.866-7.501 52.33-7.155 53.702 1.014 4.011 5.082 6.438 9.096 5.431 4.013-1.007 6.451-5.08 5.45-9.095-1.847-7.409-4.645-29.189 4.465-40.85 4.631-5.927 11.873-8.809 22.138-8.809 15.413 0 25.12 4.999 28.851 14.856 7.125 18.825-7.448 51.379-33.177 74.112z"/><path d="m233.143 237.874c21.479 0 30.208 2.182 30.537 56.918.025 4.142 3.386 7.501 7.545 7.455 4.142-.025 7.48-3.403 7.455-7.545-.304-50.654-6.699-71.829-45.537-71.829-13.633 0-28.7 1.993-37.084 16.771-6.091 10.736-8.464 27.196-8.464 58.704 0 31.509 2.373 47.968 8.464 58.705 8.384 14.778 23.451 16.771 37.084 16.771 29.229 0 40.804-11.346 44.233-43.356.441-4.119-2.54-7.815-6.659-8.256-4.123-.442-7.815 2.54-8.256 6.659-2.766 25.823-9.408 29.954-29.318 29.954-22.699 0-30.548-2.929-30.548-60.475 0-57.547 7.849-60.476 30.548-60.476z"/><path d="m412.052 373.8c.2.016.399.023.597.023 3.875 0 7.159-2.983 7.469-6.912 5.531-70.21.052-136.51-.004-137.171-.349-4.127-3.971-7.184-8.105-6.84-4.127.349-7.19 3.978-6.841 8.105.055.65 5.428 65.784-.004 134.729-.325 4.13 2.759 7.741 6.888 8.066z"/></g></g></svg>