<svg id="Capa_1" enable-background="new 0 0 512 512" height="512" viewBox="0 0 512 512" width="512" xmlns="http://www.w3.org/2000/svg"><g><g><path d="m364.776 372.31c-.012 22.612-16.648 41.769-39.035 44.97-9.699 1.387-19.613 2.105-29.696 2.105h-80.092c-10.509 0-20.835-.781-30.925-2.285-22.29-3.322-38.809-22.424-38.809-44.959v-.184-52.041h218.556v52.394z" fill="#e4e1e5"/><path d="m504.475 166.145v9.35c0 115.112-93.317 208.429-208.429 208.429h-80.092c-115.112-.001-208.429-93.317-208.429-208.429v-9.35l66.798-34.094h363.733z" fill="#f8f7f8"/><path d="m90.489 175.495v-9.35l66.798-34.094h-82.965l-66.797 34.094v9.35c0 115.112 93.317 208.429 208.429 208.429h80.092c.481 0 .94-.001 1.42-.005-114.451-.775-206.977-93.793-206.977-208.424z" fill="#efedee"/><g><path d="m504.47 166.146c0 6.652-2.99 13.103-8.598 19.244-28.584 31.273-125.143 54.289-239.872 54.289-112.281 0-207.164-22.043-237.946-52.303-6.843-6.722-10.525-13.846-10.525-21.23 0-40.614 111.237-73.533 248.471-73.533s248.47 32.919 248.47 73.533z" fill="#e4e1e5"/></g><g><path d="m87.523 187.374c0-36.443 35.901-69.123 92.653-91.275-100.138 9.488-172.647 37.26-172.647 70.047 0 7.384 3.682 14.508 10.525 21.23 14.53 14.284 43.349 26.735 81.534 35.904-7.841-11.344-12.065-23.403-12.065-35.906z" fill="#d6d1d6"/><g id="XMLID_1_"><g><path d="m489.723 182.585c3.051 1.366 3.67 5.455 1.129 7.627-33.685 28.788-126.106 49.467-234.853 49.467-107.124 0-198.411-20.064-233.303-48.186-2.418-1.948-2.135-5.714.563-7.251 17.759-10.115 42.744-18.943 72.93-25.882 2.271-.522 4.579-.866 6.901-1.054l190.043-15.39 137.386 18.868c.683.094 1.353.222 2.022.393 19.601 5.046 45.52 16.187 57.182 21.408z" fill="#d99684"/></g></g><g><path d="m381.758 132.423c2.86-3.703 7.289-6.149 12.332-6.315 8.969-.295 16.478 6.736 16.773 15.706l.08 2.446c.087 2.638 2.221 4.764 4.858 4.842 8.97.265 16.027 7.751 15.762 16.72s-7.75 16.027-16.72 15.762c-19.75-.582-35.73-16.509-36.379-36.257l-.08-2.446c-.129-3.925 1.147-7.573 3.374-10.458z" fill="#d1836c"/></g><g><path d="m278.138 146.479c-.268-.944-.456-1.905-.55-2.876-.459-4.742 1.16-9.647 4.861-13.238 6.416-6.227 16.762-5.845 23.094.468l1.422 1.418c1.886 1.88 4.892 1.932 6.891.174 6.72-5.916 16.964-5.281 22.902 1.427 4.301 4.859 5.148 11.57 2.754 17.167l-6.791 6.225c-6.49 5.949-15.048 9.278-23.843 8.891-.126-.006-.254-.012-.38-.019-8.84-.477-17.069-4.677-22.95-11.296z" fill="#d1836c"/></g><path d="m190.318 145.07c3.525-2.921 8.247-4.352 13.112-3.518l2.412.413c2.601.445 5.114-1.217 5.721-3.785 2.065-8.733 10.818-14.139 19.551-12.074 8.732 2.064 14.139 10.817 12.074 19.551-4.546 19.229-23.362 31.676-42.836 28.337l-2.412-.413c-3.872-.663-7.189-2.648-9.566-5.41-.135-.157-.25-.329-.379-.492l-10.238-11.566 1.376-4.773z" fill="#d1836c"/><g><path d="m160.064 188.295c-4.627-.695-8.919-3.374-11.519-7.698-4.623-7.69-2.137-17.673 5.554-22.297l2.097-1.261c2.261-1.359 3.08-4.259 1.865-6.601-4.135-7.964-1.031-17.773 6.933-21.907 7.963-4.135 17.773-1.031 21.907 6.933 9.105 17.536 2.972 39.247-13.962 49.427l-2.097 1.261c-3.367 2.024-7.174 2.685-10.778 2.143z" fill="#d1836c"/></g><g fill="#d1836c"><path d="m150.368 161.382c.433-2.753.038-5.661-1.344-8.324-3.442-6.63-11.608-9.214-18.238-5.772-1.949 1.012-4.363.33-5.495-1.552l-1.049-1.746c-3.849-6.403-12.16-8.473-18.562-4.624-3.6 2.164-5.829 5.737-6.409 9.59-.451 3 .099 6.17 1.785 8.973l1.049 1.746c8.475 14.099 26.55 19.204 41.149 11.623 1.268-.658 2.386-1.493 3.345-2.453z"/><path d="m240.18 131.932c.701-1.764 1.697-3.375 2.932-4.768 3.159-3.566 7.853-5.721 13.003-5.458 8.93.457 15.697 8.291 15.388 17.227l-.069 2.008c-.092 2.673 1.935 4.895 4.596 5.166 8.968.913 15.499 8.964 14.501 17.961-1 9.013-9.62 15.369-18.623 14.276-14.792-1.797-26.727-12.137-31.136-25.67-2.028-5.766-2.435-11.978-1.178-17.959z"/></g></g><g><path d="m334.966 181.141c-4.097-2.262-7.189-6.267-8.121-11.225-1.659-8.818 4.146-17.313 12.964-18.972l2.405-.452c2.594-.488 4.369-2.922 4.044-5.54-1.107-8.905 5.216-17.021 14.122-18.127 8.904-1.107 17.021 5.215 18.127 14.122 2.436 19.608-10.867 37.829-30.285 41.482l-2.405.452c-3.861.726-7.661.022-10.851-1.74z" fill="#d1836c"/></g><path d="m87.523 187.374c0-9.921 2.679-19.559 7.694-28.785-30.026 6.97-54.854 15.811-72.452 25.935-2.445 1.407-2.703 4.811-.522 6.6 15.514 12.714 42.538 23.799 77.344 32.155-7.84-11.343-12.064-23.402-12.064-35.905z" fill="#d1836c"/></g><g><path d="m433.833 106.936c-47.604-14.087-110.76-21.845-177.833-21.845-9.798 0-19.775.175-29.654.519-4.154.145-7.402 3.629-7.258 7.783.145 4.154 3.631 7.391 7.783 7.258 9.705-.338 19.505-.51 29.13-.51 141.995 0 240.95 34.785 240.95 66.004 0 3.097-1.058 6.283-3.082 9.494-15.067-8.027-34.336-15.145-57.421-21.213-1.006-1.94-2.284-3.755-3.825-5.39-3.81-4.041-8.795-6.573-14.231-7.27l-.006-.2c-.209-6.347-2.877-12.232-7.512-16.573-4.635-4.34-10.684-6.62-17.029-6.407-5.918.195-11.459 2.563-15.662 6.599-.384-.341-.78-.672-1.189-.991-5.01-3.903-11.242-5.618-17.539-4.837-6.979.867-12.872 4.7-16.595 10.069-.157-.188-.305-.38-.468-.564-4.209-4.755-10.017-7.586-16.355-7.971-5.55-.342-10.911 1.231-15.35 4.444l-.142-.141c-4.488-4.474-10.447-6.937-16.783-6.937h-.038c-6.35.01-12.316 2.491-16.799 6.988-.326.327-.625.674-.929 1.016-.918-1.622-2.032-3.15-3.336-4.548-4.332-4.642-10.214-7.32-16.56-7.54-6.563-.226-12.847 2.244-17.488 6.816-1.802-.963-3.726-1.722-5.768-2.204-6.178-1.461-12.557-.428-17.961 2.909-4.725 2.918-8.208 7.292-9.985 12.476l-.198-.034c-3.334-.571-6.706-.412-9.908.41-.379-.856-.776-1.708-1.213-2.549-2.927-5.637-7.872-9.795-13.926-11.711-6.056-1.916-12.492-1.359-18.127 1.567-7.781 4.04-12.37 11.813-12.764 19.997-5.354-3.592-12.212-4.647-18.543-2.483-2.913-4.425-7.315-7.548-12.485-8.836-5.456-1.358-11.116-.512-15.935 2.385-5.401 3.247-9.036 8.685-9.973 14.92-.194 1.285-.256 2.58-.21 3.867-29.745 7.035-54.443 15.956-72.17 26.057-2.892-3.879-4.397-7.774-4.397-11.614 0-24.324 63.071-54.933 179.958-63.751 4.144-.313 7.251-3.925 6.938-8.069s-3.921-7.26-8.069-6.938c-53.213 4.013-101.453 13.337-135.834 26.255-37.972 14.265-58.042 32.421-58.042 52.502v9.349c0 61.258 26.181 119.872 71.83 160.811 1.437 1.288 3.233 1.923 5.022 1.923 2.064 0 4.119-.844 5.605-2.501 2.775-3.093 2.516-7.851-.578-10.626-37.383-33.527-60.725-79.795-65.781-129.263 13.049 11.212 33.891 21.176 62.07 29.514 47.605 14.088 110.761 21.845 177.833 21.845 18.586 0 37.166-.609 55.221-1.81 4.147-.276 7.284-3.861 7.008-8.007-.275-4.147-3.849-7.276-8.007-7.009-17.725 1.179-35.967 1.777-54.222 1.777-108.204 0-191.405-20.2-224.881-43.628 16.548-8.679 39.074-16.417 66.043-22.66 7.421 10.569 19.437 16.461 31.773 16.46 3.775 0 7.578-.566 11.289-1.71.503 1.326 1.125 2.619 1.871 3.861 3.665 6.099 9.806 10.205 16.849 11.263 1.167.176 2.341.262 3.513.262 4.294 0 8.549-1.166 12.263-3.398l2.097-1.261c5.441-3.271 9.943-7.539 13.424-12.431 2.019.994 4.181 1.705 6.425 2.089l2.414.414c2.552.438 5.094.649 7.607.649 12.818 0 24.839-5.514 33.237-14.674 7.447 10.352 19.06 17.272 32.159 18.545.785.076 1.566.114 2.344.114 5.491 0 10.767-1.884 15.062-5.418 3.058-2.516 5.39-5.683 6.862-9.242 4.591 1.516 9.392 2.288 14.203 2.288 3.087 0 6.174-.324 9.21-.957 1.602 6.384 5.756 11.803 11.566 15.013 3.53 1.948 7.496 2.956 11.495 2.956 1.464 0 2.934-.135 4.385-.408l2.404-.452c12.58-2.366 23.016-9.824 29.502-19.889 7.916 11.254 20.841 18.739 35.506 19.171.241.007.481.011.72.011 6.083 0 11.843-2.284 16.289-6.475 3.497-3.297 5.86-7.475 6.886-12.062 17.236 4.828 32.286 10.37 44.358 16.335-6.722 5.09-15.712 10.061-26.696 14.662-28.385 11.889-67.83 20.876-114.074 25.987-4.131.457-7.108 4.176-6.652 8.306.425 3.85 3.684 6.698 7.47 6.698.276 0 .555-.015.836-.046 47.654-5.267 88.539-14.626 118.234-27.064 11.563-4.843 24.246-11.426 33.948-19.79-10.151 101.342-95.925 180.73-199.895 180.73h-80.092c-39.064 0-76.943-11.23-109.542-32.477-3.483-2.268-8.144-1.287-10.412 2.195-2.269 3.482-1.286 8.144 2.195 10.412 12.892 8.403 26.553 15.342 40.76 20.766 1.061 10.84 5.443 21.143 12.617 29.448 8.296 9.605 19.784 15.927 32.349 17.799 10.536 1.57 21.313 2.367 32.035 2.367h80.092c10.291 0 20.641-.733 30.761-2.181 24.105-3.446 42.697-23.176 45.198-46.972 28.477-10.679 54.595-27.411 76.743-49.559 40.788-40.789 63.251-95.02 63.251-152.702v-9.349c-.002-23.601-27.032-44.075-78.169-59.208zm-109.157 302.894c-9.417 1.346-19.05 2.029-28.631 2.029h-80.092c-9.981 0-20.012-.74-29.815-2.202-15.113-2.252-26.884-12.924-30.899-26.882 19.577 5.726 39.99 8.673 60.715 8.673h80.092c20.445 0 40.452-2.835 59.585-8.295-4.187 13.805-16.109 24.554-30.955 26.677zm-216.124-254.034-1.049-1.746c-.92-1.529-.939-3.007-.793-3.978.268-1.78 1.304-3.333 2.844-4.259.946-.569 2.006-.86 3.081-.86.487 0 .977.06 1.462.181 1.556.387 2.867 1.358 3.693 2.731l1.05 1.748c3.175 5.279 9.945 7.191 15.412 4.352 1.424-.738 3.049-.879 4.577-.396 1.528.484 2.777 1.534 3.516 2.957.741 1.429.73 2.793.589 3.685-.111.704-1.171 2.82-1.667 3.317-.437.438-.937.805-1.484 1.089-11.083 5.756-24.799 1.879-31.231-8.821zm60.509 22.645-2.097 1.261c-2.222 1.336-4.371 1.363-5.783 1.152-2.588-.389-4.843-1.895-6.188-4.135-1.2-1.997-1.551-4.342-.988-6.603s1.974-4.167 3.971-5.368l2.098-1.261c5.659-3.403 7.707-10.658 4.664-16.517-2.216-4.269-.547-9.547 3.722-11.763 2.067-1.074 4.429-1.278 6.652-.575 2.221.702 4.035 2.228 5.11 4.297 7.279 14.019 2.377 31.374-11.161 39.512zm32.562-11.863-2.415-.414c-.918-.158-1.718-.437-2.41-.781 1.532-5.236 2.117-10.744 1.684-16.249 1.189-.313 2.44-.377 3.676-.167l2.412.413c6.504 1.119 12.795-3.043 14.315-9.469.536-2.267 1.923-4.191 3.906-5.415 1.984-1.224 4.324-1.602 6.591-1.067 2.267.536 4.191 1.923 5.415 3.906 1.225 1.983 1.603 4.323 1.068 6.591-3.635 15.371-18.675 25.321-34.242 22.652zm81.441-3.463c-.226 2.319-1.34 4.411-3.139 5.891-1.799 1.481-4.073 2.168-6.387 1.946-10.977-1.067-20.399-8.089-24.677-18.147.654-1.749 1.209-3.555 1.648-5.416 1.24-5.244.677-10.631-1.56-15.444 1.724-1.82 4.122-2.816 6.631-2.731 2.329.08 4.487 1.063 6.076 2.766s2.421 3.925 2.341 6.254l-.084 2.445c-.228 6.598 4.742 12.269 11.313 12.908 4.787.466 8.303 4.74 7.838 9.528zm40.121-9.615c-.682.998-1.281 2.036-1.798 3.104-7.835 3.032-16.695 2.628-24.225-1.099-1.864-6.247-6.244-11.499-12.066-14.449.217-1.945 1.077-3.773 2.486-5.187 3.396-3.405 8.929-3.415 12.337-.019l1.734 1.728c4.675 4.661 12.21 4.885 17.157.509 1.745-1.545 3.985-2.321 6.313-2.175 2.326.141 4.457 1.18 6.001 2.926 1.549 1.75 2.277 4.044 2.136 6.323-4.041 1.766-7.526 4.609-10.075 8.339zm23.646 21.533-2.405.452c-2.546.48-4.572-.242-5.821-.931-2.291-1.265-3.882-3.462-4.364-6.029-.43-2.29.056-4.61 1.371-6.535 1.314-1.923 3.3-3.221 5.588-3.652l2.406-.452c6.488-1.221 10.934-7.309 10.121-13.863-.287-2.313.343-4.598 1.775-6.436s3.494-3.009 5.807-3.296c2.31-.286 4.598.342 6.436 1.775 1.838 1.432 3.009 3.494 3.296 5.807 1.946 15.675-8.687 30.24-24.21 33.16zm74.476-3.342c-1.695 1.598-3.907 2.438-6.242 2.372-15.787-.466-28.56-13.196-29.08-28.982l-.08-2.446c-.085-2.592.936-4.482 1.808-5.612 1.599-2.071 4.013-3.307 6.624-3.393.098-.003.196-.005.294-.005 2.22 0 4.325.831 5.955 2.356 1.701 1.593 2.68 3.752 2.756 6.081l.08 2.448c.219 6.597 5.558 11.918 12.158 12.115 2.329.069 4.492 1.04 6.09 2.736s2.44 3.912 2.372 6.242c-.068 2.327-1.04 4.489-2.735 6.088z"/><path d="m206.14 191.995c-4.156 0-7.525 3.369-7.525 7.525s3.369 7.525 7.525 7.525h8.376c4.156 0 7.525-3.369 7.525-7.525s-3.369-7.525-7.525-7.525z"/><path d="m338.964 209.57c0-4.156-3.369-7.525-7.525-7.525h-22.269c-4.156 0-7.525 3.369-7.525 7.525s3.369 7.525 7.525 7.525h22.269c4.155 0 7.525-3.369 7.525-7.525z"/><path d="m81.847 180.952c-4.156 0-7.525 3.369-7.525 7.525s3.369 7.525 7.525 7.525h7.035c4.156 0 7.525-3.369 7.525-7.525s-3.369-7.525-7.525-7.525z"/><path d="m247.013 202.045c-4.156 0-7.525 3.369-7.525 7.525s3.369 7.525 7.525 7.525h5.695c4.156 0 7.525-3.369 7.525-7.525s-3.369-7.525-7.525-7.525z"/><path d="m383.712 203.703c4.156 0 7.525-3.369 7.525-7.525s-3.369-7.525-7.525-7.525h-7.705c-4.156 0-7.525 3.369-7.525 7.525s3.369 7.525 7.525 7.525z"/><path d="m117.69 194.551c-4.156 0-7.525 3.369-7.525 7.525s3.369 7.525 7.525 7.525h14.977c4.156 0 7.525-3.369 7.525-7.525s-3.369-7.525-7.525-7.525z"/></g></g></svg>