<svg id="Capa_1" enable-background="new 0 0 510.309 510.309" height="512" viewBox="0 0 510.309 510.309" width="512" xmlns="http://www.w3.org/2000/svg"><g><g><path d="m363.571 371.08c-.012 22.537-16.593 41.631-38.906 44.821-9.667 1.382-19.548 2.098-29.598 2.098h-79.827c-10.474 0-20.766-.778-30.823-2.277-22.216-3.311-38.681-22.35-38.681-44.811v-.183-40.676h217.834v41.028z" fill="#e4e1e5"/><path d="m502.809 165.596v9.319c0 114.732-93.009 207.741-207.741 207.741h-79.827c-114.732-.001-207.741-93.009-207.741-207.741v-9.319l53.84-29.619h371.282z" fill="#efedee"/><path d="m80.73 162.74v-10.39l28.233-16.373h-47.623l-53.84 29.619v9.319c0 114.732 93.009 207.741 207.741 207.741h16.089c-87.481-30.54-150.6-117.452-150.6-219.916z" fill="#e4e1e5"/><g><path d="m502.804 165.597c0 6.63-2.98 13.06-8.57 19.18-28.49 31.17-124.73 54.11-239.08 54.11-111.91 0-206.48-21.97-237.16-52.13-6.82-6.7-10.49-13.8-10.49-21.16 0-40.48 110.87-73.29 247.65-73.29s247.65 32.81 247.65 73.29z" fill="#e4e1e5"/></g><path d="m86.417 218.233c-7.884-10.663-12.126-21.962-12.126-33.675 0-35.187 38.227-66.736 98.691-88.121-96.387 10.029-165.478 37.204-165.478 69.16 0 7.36 3.67 14.46 10.49 21.16 12.937 12.717 37.233 23.978 69.399 32.75-.327-.424-.661-.847-.976-1.274z" fill="#d6d1d6"/><g><g id="XMLID_132_"><g><g><path d="m488.618 182.271c2.79 1.224 3.353 4.932 1.055 6.932-33.202 28.891-125.653 49.684-234.519 49.684-108.617 0-200.9-20.696-234.287-49.489-1.485-1.281-1.313-3.636.373-4.637 20.379-12.087 51.013-22.385 88.534-29.914l51.18-7.99c29.97-3.49 62.61-5.41 96.77-5.41 44.25 0 85.95 3.22 122.58 8.91l42.69 8.28c23.049 5.477 53.28 18.219 65.624 23.634z" fill="#f8f7f8"/></g></g></g><path d="m20.714 189.265c13.469 11.689 36.64 22.05 66.671 30.24-4.342-18.164-6.655-37.179-6.655-56.765v-1.145c-24.484 6.548-44.809 14.429-59.655 23.265-1.6.951-1.767 3.184-.361 4.405z" fill="#efedee"/><g id="XMLID_101_"><g fill="#ecc8bf"><path d="m166.674 162.867c0 2.73-.45 5.36-1.26 7.84-18.58 4.38-37.15 4.35-55.72-.09v-.01c-.8-2.45-1.23-5.05-1.23-7.74 0-14.85 13.03-26.89 29.1-26.89 16.08 0 29.11 12.04 29.11 26.89z"/><path d="m233.844 198.627c0 2.22-.36 4.36-1.02 6.39-15.14 3.56-30.27 3.54-45.41-.07v-.01c-.64-2-1-4.12-1-6.31 0-12.1 10.62-21.91 23.72-21.91 13.09 0 23.71 9.81 23.71 21.91z"/><path d="m330.894 192.567c0 2.61-.43 5.14-1.21 7.51v.01c-17.82 4.2-35.63 4.17-53.45-.08v-.01c-.76-2.36-1.18-4.85-1.18-7.43 0-14.25 12.5-25.8 27.92-25.8s27.92 11.55 27.92 25.8z"/><path d="m424.784 177.777c-17.82 4.2-35.63 4.17-53.45-.08v-.01c-.76-2.35-1.18-4.84-1.18-7.43 0-14.24 12.5-25.8 27.92-25.8s27.92 11.56 27.92 25.8c0 2.62-.43 5.14-1.21 7.52z"/></g></g></g></g><g><path d="m462.945 117.503c-28.02-12.167-66.861-21.539-112.324-27.101-4.106-.504-7.852 2.422-8.355 6.534-.503 4.111 2.422 7.852 6.534 8.355 44.051 5.39 81.456 14.371 108.171 25.971 24.723 10.736 38.338 22.929 38.338 34.334 0 3.148-1.027 6.332-2.988 9.514-16.616-8.87-38.298-16.603-64.604-23.038-6.331-9.089-17.251-15.11-29.644-15.11-7.22 0-13.939 2.046-19.545 5.548-37.179-5.6-78.863-8.564-120.801-8.564-32.316 0-63.854 1.712-93.842 5.054-6.661-6.483-15.994-10.527-26.318-10.527-14.64 0-27.293 8.121-33.143 19.818-35.579 7.406-64.709 17.304-84.961 28.837-2.963-3.929-4.463-7.808-4.463-11.532 0-31.116 98.628-65.786 240.154-65.786 21.032 0 41.931.791 62.118 2.349 4.136.322 7.736-2.771 8.055-6.9.319-4.13-2.77-7.736-6.9-8.055-20.57-1.589-41.857-2.394-63.273-2.394-66.852 0-129.799 7.732-177.246 21.773-50.968 15.083-77.908 35.489-77.908 59.013v9.318c0 61.056 26.095 119.476 71.593 160.28 1.432 1.284 3.222 1.917 5.005 1.917 2.057 0 4.105-.841 5.586-2.493 2.766-3.083 2.508-7.825-.576-10.591-37.292-33.444-60.562-79.608-65.576-128.959 9.562 8.242 23.312 15.832 41.037 22.559 33.765 12.814 81.243 22.145 133.689 26.271.2.016.399.023.597.023 3.875 0 7.16-2.983 7.469-6.912.325-4.129-2.759-7.74-6.889-8.065-80.873-6.364-135.541-23.276-160.838-41.089 16.111-8.452 37.765-15.95 63.763-22.081-.068.175-.137.35-.192.532-1.208 3.962 1.024 8.153 4.986 9.362 12.635 3.853 25.359 5.78 38.083 5.78s25.448-1.927 38.083-5.78c3.962-1.208 6.194-5.399 4.986-9.362-.937-3.07-3.665-5.093-6.69-5.29-.154-2.724-.654-5.363-1.448-7.884 27.295-2.778 55.851-4.188 85.059-4.188 37.412 0 74.59 2.393 108.401 6.943-1.932 3.78-3.121 7.954-3.402 12.355-2.783.406-5.222 2.359-6.096 5.227-1.208 3.962 1.024 8.153 4.986 9.361 12.149 3.705 24.384 5.558 36.62 5.558 12.235 0 24.47-1.853 36.619-5.558 3.962-1.208 6.194-5.399 4.986-9.361-.389-1.276-1.091-2.369-1.992-3.23 16.951 4.787 31.681 10.241 43.556 16.126-31.873 23.995-116.054 45.015-226.251 45.015-10.535 0-21.169-.201-31.609-.598-4.155-.144-7.623 3.07-7.78 7.209s3.07 7.623 7.209 7.78c10.629.404 21.456.609 32.179.609 66.851 0 129.798-7.732 177.246-21.773 28.104-8.316 48.885-18.254 61.889-29.438-10.186 100.936-95.645 179.985-199.222 179.985h-79.827c-38.935 0-76.689-11.193-109.18-32.37-3.471-2.261-8.116-1.283-10.378 2.188-2.262 3.47-1.282 8.117 2.188 10.378 12.849 8.375 26.465 15.291 40.625 20.697 1.058 10.804 5.425 21.073 12.575 29.351 8.269 9.573 19.719 15.874 32.242 17.74 10.501 1.565 21.243 2.359 31.929 2.359h79.827c10.257 0 20.573-.731 30.659-2.174 24.025-3.435 42.556-23.099 45.049-46.817 28.383-10.644 54.415-27.32 76.49-49.395 40.653-40.654 63.042-94.706 63.042-152.198v-9.318c.002-22.749-25.755-38.709-47.362-48.092zm-346.92 46.808c-.04-.48-.062-.961-.062-1.443 0-10.695 9.691-19.396 21.604-19.396s21.604 8.701 21.604 19.396c0 .507-.026 1.012-.07 1.516-14.333 2.754-28.745 2.726-43.076-.073zm207.579 244.165c-9.386 1.342-18.987 2.022-28.536 2.022h-79.827c-9.948 0-19.946-.738-29.717-2.195-15.063-2.245-26.795-12.881-30.797-26.793 19.512 5.707 39.858 8.644 60.514 8.644h79.827c20.378 0 40.318-2.826 59.388-8.268-4.173 13.761-16.055 24.474-30.852 26.59zm54.096-237.083c-.026-.377-.045-.754-.045-1.133 0-10.09 9.159-18.299 20.417-18.299s20.417 8.209 20.417 18.299c0 .402-.019.802-.048 1.201-13.555 2.577-27.186 2.55-40.741-.068z"/><path d="m210.131 169.212c-16.266 0-29.658 11.787-31.082 26.772-2.4.657-4.422 2.486-5.202 5.041-1.208 3.962 1.024 8.153 4.986 9.362 10.43 3.181 20.933 4.771 31.437 4.771 10.503 0 21.006-1.591 31.436-4.771 3.962-1.208 6.194-5.4 4.986-9.362-.81-2.655-2.962-4.527-5.484-5.113-1.461-14.951-14.838-26.7-31.077-26.7zm-16.214 29.43c0-.005-.001-.01-.001-.015 0-7.949 7.274-14.416 16.215-14.416 8.94 0 16.214 6.467 16.214 14.416 0 .021-.002.041-.003.062-10.791 1.944-21.635 1.93-32.425-.047z"/><path d="m303.135 210.694c12.235 0 24.47-1.853 36.62-5.558 3.962-1.208 6.194-5.399 4.986-9.361-.909-2.981-3.508-4.982-6.426-5.276-1.139-17.402-16.552-31.234-35.343-31.234-18.808 0-34.233 13.857-35.346 31.283-2.782.406-5.222 2.36-6.097 5.227-1.208 3.962 1.024 8.153 4.986 9.361 12.15 3.706 24.385 5.558 36.62 5.558zm-.163-36.429c11.258 0 20.417 8.209 20.417 18.299 0 .401-.019.802-.048 1.201-13.556 2.576-27.187 2.549-40.742-.068-.026-.377-.045-.754-.045-1.133.001-10.09 9.16-18.299 20.418-18.299z"/><path d="m131.309 193.088h-3.565c-4.142 0-7.5 3.358-7.5 7.5s3.358 7.5 7.5 7.5h3.565c4.142 0 7.5-3.358 7.5-7.5s-3.358-7.5-7.5-7.5z"/><path d="m253.612 174.265c4.142 0 7.5-3.358 7.5-7.5s-3.358-7.5-7.5-7.5h-3.641c-4.142 0-7.5 3.358-7.5 7.5s3.358 7.5 7.5 7.5z"/><path d="m376.106 210.713c4.142 0 7.5-3.358 7.5-7.5s-3.358-7.5-7.5-7.5h-3.381c-4.142 0-7.5 3.358-7.5 7.5s3.358 7.5 7.5 7.5z"/></g></g></svg>