<svg id="Layer_1" height="512" viewBox="0 0 512 512" width="512" xmlns="http://www.w3.org/2000/svg" data-name="Layer 1"><path d="m336 244.729h-160l-160 56h480z" fill="#3e5c72"/><path d="m176 202.729h160v42h-160z" fill="#598baa"/><path d="m176 44.729h160v118h-160z" fill="#3e5c72"/><path d="m176 244.729-160 56h70l130-56z" fill="#304756"/><path d="m176 202.729h40v42h-40z" fill="#3e5c72"/><path d="m176 44.729h40v118h-40z" fill="#304756"/><path d="m176 162.729h160v40h-160z" fill="#bcdcfc"/><path d="m176 162.729h40v40h-40z" fill="#598baa"/><path d="m179.08 300.729h35.56v42h-35.56z" fill="#bcdcfc"/><path d="m107.96 300.729v41.86a135.3 135.3 0 0 1 -91.96-41.86z" fill="#304756"/><path d="m143.52 300.729v42h-29.52q-3.03 0-6.04-.14v-41.86z" fill="#bcdcfc"/><path d="m143.52 300.729h35.56v42h-35.56z" fill="#598baa"/><path d="m250.21 300.729h35.56v42h-35.56z" fill="#bcdcfc"/><path d="m214.64 300.729h35.57v42h-35.57z" fill="#598baa"/><path d="m356.89 300.729h35.57v42h-35.57z" fill="#598baa"/><path d="m321.33 300.729h35.56v42h-35.56z" fill="#bcdcfc"/><path d="m392.46 300.729h103.54a135.325 135.325 0 0 1 -98 42h-5.54z" fill="#304756"/><path d="m285.77 300.729h35.56v42h-35.56z" fill="#598baa"/><g fill="#284268"><path d="m174 399.33c0-5.918 2.654-8.683 6.327-12.509a6 6 0 1 0 -8.656-8.311c-4.309 4.49-9.671 10.074-9.671 20.82s5.362 16.334 9.672 20.823c3.674 3.827 6.328 6.592 6.328 12.512s-2.654 8.685-6.328 12.512c-4.31 4.489-9.672 10.075-9.672 20.823a6 6 0 0 0 12 0c0-5.92 2.654-8.685 6.328-12.512 4.31-4.488 9.672-10.075 9.672-20.823s-5.362-16.334-9.672-20.823c-3.674-3.827-6.328-6.592-6.328-12.512z"/><path d="m219 399.33c0-5.918 2.654-8.683 6.327-12.509a6 6 0 1 0 -8.656-8.311c-4.309 4.49-9.671 10.074-9.671 20.82s5.362 16.334 9.672 20.823c3.674 3.827 6.328 6.592 6.328 12.512s-2.654 8.685-6.328 12.512c-4.31 4.489-9.672 10.075-9.672 20.823a6 6 0 0 0 12 0c0-5.92 2.654-8.685 6.328-12.512 4.31-4.488 9.672-10.075 9.672-20.823s-5.362-16.334-9.672-20.823c-3.674-3.827-6.328-6.592-6.328-12.512z"/><path d="m264 399.33c0-5.466 2.229-8.213 5.63-11.781a6 6 0 1 0 -8.686-8.28c-4.525 4.748-8.944 10.207-8.944 20.061 0 10.748 5.362 16.334 9.672 20.823 3.674 3.827 6.328 6.592 6.328 12.512s-2.654 8.685-6.328 12.512c-4.31 4.489-9.672 10.075-9.672 20.823a6 6 0 0 0 12 0c0-5.92 2.654-8.685 6.328-12.512 4.31-4.488 9.672-10.075 9.672-20.823s-5.362-16.334-9.672-20.823c-3.674-3.827-6.328-6.592-6.328-12.512z"/><path d="m309 399.33c0-5.918 2.654-8.683 6.327-12.509a6 6 0 1 0 -8.656-8.311c-4.309 4.49-9.671 10.074-9.671 20.82s5.362 16.334 9.672 20.823c3.674 3.827 6.328 6.592 6.328 12.512s-2.654 8.685-6.328 12.512c-4.31 4.489-9.672 10.075-9.672 20.823a6 6 0 0 0 12 0c0-5.92 2.654-8.685 6.328-12.512 4.31-4.488 9.672-10.075 9.672-20.823s-5.362-16.334-9.672-20.823c-3.674-3.827-6.328-6.592-6.328-12.512z"/><path d="m354 399.33c0-5.918 2.654-8.683 6.327-12.509a6 6 0 1 0 -8.656-8.311c-4.309 4.49-9.671 10.074-9.671 20.82s5.362 16.334 9.672 20.823c3.674 3.827 6.328 6.592 6.328 12.512s-2.654 8.685-6.328 12.512c-4.31 4.489-9.672 10.075-9.672 20.823a6 6 0 0 0 12 0c0-5.92 2.654-8.685 6.328-12.512 4.31-4.488 9.672-10.075 9.672-20.823s-5.362-16.334-9.672-20.823c-3.674-3.827-6.328-6.592-6.328-12.512z"/><path d="m198.667 90.673a6 6 0 0 0 -6 6v48.614a6 6 0 0 0 12 0v-48.614a6 6 0 0 0 -6-6z"/><path d="m198.667 66.48a6 6 0 0 0 -6 6v4.807a6 6 0 0 0 12 0v-4.807a6 6 0 0 0 -6-6z"/><path d="m497.982 296.337-155.982-54.594v-195.743a6 6 0 0 0 -6-6h-160a6 6 0 0 0 -6 6v195.743l-155.982 54.594a5.969 5.969 0 0 0 -2.348 9.787l-.015.014a141.961 141.961 0 0 0 102.345 43.862h284a141.961 141.961 0 0 0 102.345-43.862l-.015-.014a5.969 5.969 0 0 0 -2.348-9.787zm-315.982-244.337h148v106h-148zm0 118h148v28h-148zm0 40h148v30h-148zm-80.041 127.421a130.19 130.19 0 0 1 -70.751-29.421h70.751zm35.562.579h-23.562v-30h23.562zm35.561 0h-23.561v-30h23.561zm35.563 0h-23.563v-30h23.563zm35.562 0h-23.562v-30h23.562zm35.563 0h-23.563v-30h23.563zm35.562 0h-23.562v-30h23.562zm35.562 0h-23.562v-30h23.562zm35.561 0h-23.561v-30h23.561zm-335.15-42 125.715-44h157.96l125.72 44zm347.15 41.994v-29.994h82.337a130 130 0 0 1 -82.337 29.994z"/></g></svg>