<svg id="Layer_1" enable-background="new 0 0 512 512" height="512" viewBox="0 0 512 512" width="512" xmlns="http://www.w3.org/2000/svg"><g><g><g><path d="m158.85 255.681s-9.07-1.96-21.57-5.79c-11.58-3.54-26.13-8.7-39.11-15.4-25.39 16.68-58.14 27.44-58.14 27.44-10.09-73.01-7.42-141.98-7.42-141.98l97.54-5.12 21.28-1.12s9.84 68.3 7.42 141.97z" fill="#ff5f85"/><path d="m334.45 229.331s-9.79-.88-23.26-3.31c-11.74-2.11-26.28-5.4-39.55-10.3-23.17 19.65-54.37 34.35-54.37 34.35-18.88-71.24-24.6-140.02-24.6-140.02l95.54-16.9 21.63-3.83s18.06 66.59 24.61 140.01z" fill="#ffd176"/><path d="m504.5 169.261s-8.79.75-21.34.79c-12.26.04-28.11-.59-42.86-3.26-19.43 23.4-47.61 43.3-47.61 43.3-30.92-66.86-48.46-133.6-48.46-133.6l91.32-33.35 20.49-7.48s29.31 62.43 48.46 133.6z" fill="#77e0ab"/><path d="m471.62 504.501s-8.43-2.77-20.05-7.68c-11.28-4.76-25.58-11.54-38.09-19.76-26.99 13.92-60.68 21.19-60.68 21.19-2.43-73.67 7.41-141.98 7.41-141.98l97.53 5.13 21.29 1.12s2.67 68.97-7.41 141.98z" fill="#ff5f85"/><path d="m318.86 349.171s-3.33 68.93-19.72 140.79c0 0-8.67-3.72-20.35-9.97-10.66-5.68-23.81-13.47-35.18-22.45-28.09 11.5-62.29 15.8-62.29 15.8 3.98-73.6 19.72-140.79 19.72-140.79l97.02 13.69z" fill="#be94ff"/><path d="m157.29 325.911s-10.49 68.21-34.28 137.95c0 0-8.84-4.95-20.41-12.86-9.77-6.69-21.48-15.49-31.44-25.21-29.14 8.5-63.6 9.19-63.6 9.19 11.63-72.79 34.28-137.95 34.28-137.95l95.07 23.78z" fill="#77e0ab"/></g><path d="m334.45 229.331s-9.79-.88-23.26-3.31c-6.81-56.94-17.36-107.84-22.98-132.87l21.63-3.83s18.06 66.59 24.61 140.01z" fill="#ffa792"/><path d="m157.29 325.911s-10.49 68.21-34.28 137.95c0 0-8.84-4.95-20.41-12.86 18.03-55.05 29.32-105.73 34.31-130.19z" fill="#65c1b0"/><path d="m504.5 169.261s-8.79.75-21.34.79c-15.82-49.49-34.16-95.35-47.61-126.91l20.49-7.48s29.31 62.43 48.46 133.6z" fill="#65c1b0"/><path d="m158.85 255.681s-9.07-1.96-21.57-5.79c-.7-51.5-4.62-107.04-7.13-135.06l21.28-1.12s9.84 68.3 7.42 141.97z" fill="#b2527e"/><path d="m318.86 349.171s-3.33 68.93-19.72 140.79c0 0-8.67-3.72-20.35-9.97 9.84-52.6 16.31-106.66 19.27-133.75z" fill="#8e77f2"/><path d="m471.62 504.501s-8.43-2.77-20.05-7.68c5.31-54.85 6.21-105.93 6.17-135.42l21.29 1.12s2.67 68.97-7.41 141.98z" fill="#b2527e"/></g><g><path d="m6.474 120.433c.797.11 7.258.98 18.566 1.863-.355 13.396-1.396 75.819 7.56 140.664.305 2.204 1.572 4.159 3.459 5.337 1.205.751 2.582 1.137 3.971 1.137.787 0 1.578-.124 2.342-.375 1.312-.432 31.021-10.288 56.25-25.958 26.724 12.938 57.296 19.624 58.646 19.915 2.176.471 4.444-.05 6.197-1.418s2.809-3.443 2.882-5.666c1.942-59.033-4.004-115.25-6.47-135.436 1.179-.108 2.362-.219 3.551-.332 7.492-.716 14.973-1.523 22.44-2.422.892 8.691 2.732 24.833 5.913 45.445.572 3.706 3.766 6.357 7.403 6.357.38 0 .766-.029 1.153-.089 4.094-.632 6.9-4.462 6.268-8.556-3.151-20.422-4.985-36.63-5.85-45.072 34.826-4.77 69.285-11.526 102.979-20.195 3.831 15.087 16.418 67.378 22.358 125.151-11.843-1.62-33.294-5.247-51.848-12.098-2.538-.937-5.384-.435-7.449 1.315-15.097 12.804-34.01 23.57-44.589 29.159-3.293-13.145-6.367-27.011-9.165-41.35-.793-4.065-4.731-6.714-8.798-5.925-4.065.793-6.718 4.732-5.925 8.798 3.507 17.973 7.445 35.234 11.704 51.306.57 2.151 2.066 3.938 4.083 4.877 1.004.468 2.085.701 3.166.701 1.092 0 2.184-.238 3.195-.715 1.25-.588 29.54-14.004 52.679-32.643 28.097 9.573 59.253 12.471 60.628 12.595 2.211.201 4.402-.592 5.975-2.164 1.573-1.571 2.367-3.758 2.17-5.972-5.568-62.486-19.583-120.731-23.689-136.897 1.875-.517 3.749-1.038 5.619-1.567 5.079-1.435 10.139-2.915 15.18-4.438 5.517 19.319 21.97 73.649 46.857 127.473.935 2.021 2.719 3.522 4.87 4.098.639.171 1.29.255 1.938.255 1.534 0 3.049-.471 4.327-1.374 1.129-.797 26.67-18.939 46.231-41.328 29.328 4.532 60.513 1.956 61.889 1.839 2.213-.188 4.229-1.349 5.503-3.167 1.275-1.819 1.678-4.109 1.101-6.254-2.847-10.582-6.091-21.606-9.642-32.768-1.255-3.947-5.474-6.13-9.42-4.874-3.947 1.255-6.129 5.473-4.874 9.42 2.496 7.846 4.836 15.618 6.988 23.208-11.93.469-33.666.639-53.165-2.882-2.663-.482-5.375.509-7.104 2.59-12.651 15.239-29.414 29.137-38.866 36.486-22.495-50.447-37.32-99.667-42.31-117.187 33.604-10.796 66.299-23.569 97.837-38.217 4.143 9.209 14.383 32.644 25.284 62.725 1.105 3.051 3.984 4.947 7.052 4.947.848 0 1.711-.145 2.555-.451 3.894-1.411 5.907-5.712 4.496-9.606-11.155-30.781-21.655-54.773-25.837-64.057 14.647-7.129 29.031-14.667 43.127-22.605 3.609-2.033 4.887-6.606 2.855-10.215-2.033-3.609-6.607-4.886-10.215-2.855-126.968 71.502-253.9 96.141-338.026 104.221-91.209 8.76-153.205.49-153.949.388-4.104-.571-7.889 2.298-8.457 6.401s2.298 7.89 6.401 8.457zm33.545 2.836c10.775.568 23.929.994 39.152.994 18.918 0 41.037-.658 65.749-2.518 2.235 18.128 7.743 69.182 6.676 124.43-11.56-3.057-32.406-9.279-49.988-18.348-2.406-1.241-5.293-1.09-7.555.396-16.54 10.862-36.621 19.236-47.799 23.49-7.404-59.569-6.573-115.099-6.235-128.444z"/><path d="m503.924 348.073c-.656.019-66.586 1.847-160.09-5.688-86.171-6.944-214.064-23.486-333.993-62.861-3.934-1.291-8.173.851-9.465 4.787-1.292 3.935.851 8.173 4.787 9.465 8.977 2.947 17.997 5.768 27.039 8.468-2.159 6.656-5.51 17.353-9.391 31.011-1.132 3.984 1.18 8.132 5.164 9.264.685.195 1.375.288 2.054.288 3.268 0 6.273-2.153 7.21-5.452 3.875-13.638 7.259-24.402 9.374-30.914 34.278 9.733 68.726 17.773 102.249 24.416-2.987 17.216-12.634 68.453-30.011 121.778-10.166-6.317-28.284-18.381-42.453-32.209-1.937-1.889-4.74-2.59-7.338-1.833-18.989 5.537-40.642 7.653-52.567 8.44 3.04-17.509 6.915-35.925 11.549-54.881.983-4.024-1.481-8.083-5.505-9.067-4.024-.981-8.083 1.481-9.066 5.504-5.542 22.675-10.021 44.613-13.312 65.205-.351 2.194.29 4.431 1.749 6.107s3.626 2.619 5.807 2.574c1.38-.028 32.663-.737 61.357-8.321 21.786 20.213 49.075 35.577 50.281 36.252 1.133.633 2.395.955 3.662.955.907 0 1.817-.165 2.685-.497 2.078-.796 3.695-2.476 4.414-4.582 19.441-57.01 30.178-113.628 33.479-132.584 9.569 1.796 19.047 3.48 28.409 5.059-4.235 20.042-14.988 75.375-18.172 134.181-.12 2.22.751 4.378 2.377 5.894 1.627 1.515 3.842 2.23 6.047 1.953 1.37-.172 32.407-4.159 60.153-14.71 23.773 17.817 52.512 30.234 53.781 30.778.945.405 1.951.607 2.956.607 1.168 0 2.335-.273 3.401-.816 1.983-1.009 3.416-2.847 3.911-5.017 1.933-8.475 3.782-17.345 5.497-26.363.773-4.069-1.898-7.996-5.967-8.77-4.07-.774-7.996 1.898-8.77 5.967-1.079 5.674-2.211 11.285-3.385 16.771-10.768-5.215-30.044-15.313-45.576-27.58-2.125-1.677-4.987-2.081-7.491-1.055-18.306 7.498-39.615 11.873-51.394 13.907 3.73-55.036 13.637-105.396 17.447-123.32 37.463 5.96 72.782 10.247 104.209 13.33-.758 11.425-2.911 38.892-7.828 72.327-.603 4.098 2.231 7.909 6.329 8.512.37.054.738.081 1.101.081 3.659 0 6.863-2.682 7.411-6.41 4.923-33.482 7.122-61.134 7.926-73.106 5.784.52 11.415.997 16.879 1.437 3.217.259 6.401.507 9.552.744-1.816 13.868-9.234 75.429-7.097 140.399.073 2.223 1.129 4.298 2.882 5.666 1.754 1.369 4.025 1.889 6.197 1.418 1.35-.292 31.922-6.978 58.646-19.915 25.229 15.669 54.938 25.526 56.25 25.958.764.251 1.555.375 2.342.375 1.389 0 2.767-.386 3.971-1.137 1.887-1.178 3.154-3.133 3.459-5.337 9.386-67.959 7.792-133.258 7.515-142.249 11.308-.028 17.604-.204 17.806-.21 4.14-.123 7.397-3.578 7.274-7.718-.121-4.141-3.578-7.416-7.717-7.276zm-38.53 146.206c-11.179-4.254-31.26-12.627-47.8-23.49-2.263-1.485-5.15-1.637-7.555-.396-17.582 9.068-38.428 15.291-49.988 18.348-1.195-62 5.898-118.799 7.334-129.573 43.743 2.944 79.975 3.851 104.167 4.06.187 5.588 1.944 65.861-6.158 131.051z"/><circle cx="61.664" cy="335.308" r="7.5"/><circle cx="91.474" cy="344.097" r="7.5"/><circle cx="122.944" cy="350.327" r="7.5"/><circle cx="224.733" cy="368.541" r="7.5"/><circle cx="255.303" cy="374.157" r="7.5"/><circle cx="287.243" cy="377.058" r="7.5"/><circle cx="387.942" cy="386.038" r="7.5"/><circle cx="418.883" cy="388.958" r="7.5"/><circle cx="449.962" cy="390.058" r="7.5"/><circle cx="62.684" cy="148.488" r="7.5"/><circle cx="93.764" cy="150.408" r="7.5"/><circle cx="124.704" cy="147.488" r="7.5"/><circle cx="225.233" cy="136.818" r="7.5"/><circle cx="257.063" cy="132.808" r="7.5"/><circle cx="287.413" cy="126.118" r="7.5"/><circle cx="380.933" cy="97.168" r="7.5"/><circle cx="411.583" cy="87.678" r="7.5"/><circle cx="440.323" cy="75.808" r="7.5"/></g></g></svg>