<svg id="Layer_1" enable-background="new 0 0 512 512" height="512" viewBox="0 0 512 512" width="512" xmlns="http://www.w3.org/2000/svg"><g><g><path d="m468.46 448.301s-12.68 7.47-37.74 13.18c-7.43 1.7-15.95 3.24-25.56 4.38-9.97 1.19-21.11 1.95-33.41 2.02h-231.5c-12.3-.07-23.44-.83-33.41-2.02-41.99-5-63.3-17.56-63.3-17.56 37.56-165.91 172.17-270.78 172.17-270.78-52.43-34.23-54-88.2-54-88.2s19.33-19.87 53.38-19.87c29.34 0 40.91 27.72 40.91 27.72s11.57-27.72 40.91-27.72c5.46 0 10.54.51 15.22 1.37 24.53 4.49 38.16 18.5 38.16 18.5s-1.57 53.97-54 88.2c0 0 134.61 104.87 172.17 270.78z" fill="#ff5f85"/><g fill="#b2527e"><path d="m163.23 362.221v105.66h-22.98c-12.3-.07-23.44-.83-33.41-2.02 7.47-23.14 24.9-68.12 56.39-103.64z"/><path d="m405.16 465.861c-9.97 1.19-21.11 1.95-33.41 2.02h-22.98v-105.66c31.49 35.52 48.92 80.5 56.39 103.64z"/><path d="m350.29 89.321s-1.57 53.97-54 88.2l-5.67-2.09c25.71-46.48 23.93-87.37 21.51-104.61 24.53 4.49 38.16 18.5 38.16 18.5z"/><path d="m468.46 448.301s-12.68 7.47-37.74 13.18c-18.01-180.49-140.1-286.05-140.1-286.05l5.67 2.09s134.61 104.87 172.17 270.78z"/></g><path d="m348.769 362.218h-185.539c-11.108 35.595-20.752 77.691-25.327 124.876 0 0 45.906 17.407 118.097 17.407s118.097-17.407 118.097-17.407c-4.576-47.185-14.22-89.282-25.328-124.876z" fill="#ff5f85"/></g><g><path d="m475.776 446.649c-20.776-91.762-71.017-164.89-109.504-210.079-2.685-3.153-7.418-3.534-10.573-.847-3.153 2.686-3.532 7.419-.847 10.573 36.587 42.957 84.086 111.817 104.95 197.927-10.51 4.716-37.926 14.859-81.336 16.044-4.74-33.824-12.292-67.45-22.538-100.284-1.234-3.954-5.434-6.161-9.394-4.925-3.954 1.234-6.159 5.44-4.925 9.394 11.975 38.374 20.181 77.853 24.417 117.439-7.831 2.454-23.858 6.918-46.163 10.338-4.095.628-6.904 4.456-6.276 8.55.568 3.709 3.764 6.364 7.403 6.364.378 0 .762-.029 1.146-.087 33.977-5.21 53.791-12.636 54.618-12.949 3.164-1.2 5.133-4.369 4.806-7.736-.36-3.718-.756-7.435-1.185-11.151 59.719-1.888 90.552-19.663 91.894-20.453 2.81-1.657 4.228-4.938 3.507-8.118z"/><path d="m278.339 496.431c-7.373.378-14.888.569-22.339.569-55.907 0-96.051-10.755-110.026-15.116 4.237-39.585 12.443-79.064 24.417-117.432 1.234-3.954-.971-8.16-4.925-9.394-3.953-1.232-8.16.971-9.394 4.925-10.245 32.832-17.799 66.458-22.538 100.284-43.423-1.185-70.842-11.334-81.335-16.043 9.568-39.501 25.543-78.802 47.531-116.913 2.07-3.588.839-8.174-2.749-10.245-3.588-2.07-8.175-.839-10.245 2.749-23.804 41.261-40.799 83.934-50.512 126.834-.72 3.18.697 6.461 3.506 8.117 1.341.791 32.175 18.565 91.893 20.453-.429 3.716-.824 7.433-1.185 11.15-.327 3.368 1.642 6.537 4.806 7.737 1.927.731 48.027 17.894 120.756 17.894 7.706 0 15.48-.198 23.106-.589 4.137-.212 7.318-3.737 7.106-7.874s-3.713-7.324-7.873-7.106z"/><path d="m291.754 183.498c1.219.963 16.648 13.247 37.71 34.899 1.47 1.511 3.422 2.271 5.377 2.271 1.884 0 3.771-.706 5.229-2.124 2.969-2.888 3.035-7.637.146-10.606-9.336-9.599-17.547-17.372-24.019-23.23 1.421.094 2.843.192 4.263.294.184.013.366.02.548.02 3.896 0 7.188-3.012 7.473-6.96.299-4.131-2.809-7.723-6.94-8.021-1.063-.077-2.127-.151-3.19-.223 37.641-34.882 39.375-78.208 39.435-80.282.059-2.028-.707-3.994-2.122-5.448-.342-.351-3.732-3.769-9.907-7.818 12.419-44.055-11.147-72.404-12.197-73.636-2.678-3.142-7.378-3.513-10.531-.853-3.155 2.661-3.554 7.386-.909 10.554.803.962 18.271 22.429 10.029 56.682-9.249-3.919-21.079-7.063-35.235-7.063-20.745 0-33.792 11.576-40.929 20.883-1.893-2.459-4.197-5.076-6.942-7.585-3.058-2.794-7.802-2.583-10.597.476-2.794 3.057-2.581 7.801.476 10.596 6.949 6.352 10.139 13.692 10.157 13.735 1.16 2.782 3.881 4.583 6.895 4.596h.034c3 0 5.721-1.805 6.902-4.565.403-.945 10.174-23.135 34.004-23.135 23.789 0 39.782 10.815 45.58 15.488-.57 4.855-2.199 14.516-6.75 25.977-8.117 20.444-21.472 37.32-39.73 50.224-30.97-1.196-60.097-.633-79.876.105-18.334-12.917-31.74-29.83-39.879-50.329-4.562-11.488-6.187-21.167-6.754-26.004 1.958-1.597 5.085-3.899 9.307-6.241.352-.158.688-.341 1.004-.546 7.149-3.816 17.184-7.601 29.788-8.482 4.132-.289 7.247-3.873 6.958-8.005-.288-4.131-3.856-7.242-8.005-6.958-10.999.769-20.409 3.399-28.086 6.584-8.09-34.079 9.26-55.436 10.087-56.427 2.662-3.152 2.278-7.867-.865-10.547-3.153-2.688-7.888-2.31-10.573.843-1.047 1.229-24.485 29.423-12.3 73.268-6.557 4.221-10.148 7.845-10.48 8.187-1.415 1.454-2.181 3.419-2.122 5.448.061 2.075 1.799 45.413 39.452 80.296-2.012.124-3.125.202-3.208.208-4.132.298-7.238 3.889-6.94 8.021.299 4.132 3.899 7.232 8.021 6.94.094-.007 1.561-.11 4.194-.267-19.445 17.564-54.361 52.222-87.729 101.229-2.332 3.424-1.446 8.089 1.978 10.42 1.292.88 2.761 1.302 4.214 1.302 2.398 0 4.755-1.148 6.206-3.28 45.815-67.286 95.933-107.797 99.696-110.792 4.667-.16 9.792-.307 15.287-.421-12.888 15.198-26.993 44.109-19.368 94.834.56 3.719 3.758 6.386 7.407 6.386.371 0 .747-.027 1.125-.084 4.096-.616 6.917-4.436 6.302-8.531-4.563-30.345-1.039-56.18 10.188-74.711 5.367-8.859 11.344-14.128 14.96-16.777 3.616 2.649 9.593 7.917 14.961 16.777 11.227 18.531 14.75 44.366 10.188 74.711-.615 4.096 2.206 7.916 6.302 8.531.378.057.754.084 1.125.084 3.648 0 6.848-2.668 7.407-6.386 7.64-50.825-6.536-79.75-19.445-94.924 4.984.087 10.068.215 15.213.392z"/><circle cx="256.005" cy="452.482" r="7.5"/><circle cx="201.494" cy="449.482" r="7.5"/><circle cx="310.494" cy="449.482" r="7.5"/><circle cx="100.004" cy="420.912" r="7.5"/><circle cx="412.005" cy="420.912" r="7.5"/></g></g></svg>