<svg id="Capa_1" enable-background="new 0 0 510.309 510.309" height="512" viewBox="0 0 510.309 510.309" width="512" xmlns="http://www.w3.org/2000/svg"><g><g><path d="m363.571 387.792c-.012 22.537-16.593 41.631-38.906 44.821-9.667 1.382-19.548 2.098-29.598 2.098h-79.827c-10.474 0-20.766-.778-30.823-2.277-22.216-3.311-38.681-22.35-38.681-44.811v-.183-43.281h217.834v43.633z" fill="#e4e1e5"/><path d="m502.537 182.232.272 9.395c0 114.732-93.009 207.741-207.741 207.741h-79.827c-114.732-.001-207.741-93.01-207.741-207.742v-9.319l179.756-50.903h180.636z" fill="#f8f7f8"/><path d="m73.912 176.014v-10.546l115.588-34.063h-2.243l-179.757 50.903v9.319c0 114.732 93.009 207.741 207.741 207.741h13.913c-90.153-30.878-155.242-119.2-155.242-223.354z" fill="#efedee"/><g><g id="XMLID_160_"><g><path d="m502.563 181.149c0 6.63-2.98 13.06-8.57 19.18-28.49 31.17-124.73 54.11-239.08 54.11-111.91 0-206.48-21.97-237.16-52.13-6.82-6.7-10.49-13.8-10.49-21.16 0-40.48 110.87-73.29 247.65-73.29s247.65 32.81 247.65 73.29z" fill="#e4e1e5"/></g><path d="m76.623 222.149c0-42.135 28.484-80.216 74.37-107.54-84.859 11.626-143.73 37.045-143.73 66.54 0 7.36 3.67 14.46 10.49 21.16 11.562 11.366 32.202 21.568 59.422 29.871-.36-3.315-.552-6.659-.552-10.031z" fill="#d6d1d6"/><g><path d="m472.574 216.219.39.71c-41.77 23.02-123.86 38.67-218.31 38.67s-176.54-15.65-218.31-38.67l.39-.71c4.55-9.34 4.31-21.13 9.7-29.53 5.6-8.7 16.45-13.36 22.85-21.05 6.6-7.92 9.26-19.42 16.61-26.26 7.53-7 19.21-8.79 27.4-14.66 8.33-5.96 13.82-16.41 22.72-21.2 9-4.84 20.76-3.63 30.21-7.27 9.52-3.66 17.43-12.43 27.28-14.87 9.89-2.46 20.99 1.59 31.07.36 10.11-1.23 19.91-7.82 30.08-7.82s19.97 6.59 30.07 7.82c10.09 1.23 21.19-2.82 31.08-.36 9.84 2.44 17.76 11.21 27.28 14.87 9.45 3.64 21.21 2.43 30.21 7.27 8.9 4.79 14.38 15.24 22.72 21.2 8.19 5.86 19.87 7.66 27.4 14.66 7.35 6.84 10.01 18.34 16.61 26.26 6.4 7.69 17.25 12.35 22.85 21.06 5.39 8.39 5.15 20.18 9.7 29.52z" fill="#dfae91"/></g><path d="m94.71 236.198c6.869-12.985 20.179-19.94 28.029-31.417 8.096-11.821 11.359-28.985 20.375-39.193 9.237-10.448 23.564-13.119 33.61-21.88 10.218-8.895 16.953-24.492 27.87-31.641 11.04-7.224 25.465-5.418 37.057-10.851 11.545-5.401 21.153-18.237 33.046-22.047-6.653-2.318-13.261-5.249-20.044-5.249-10.17 0-19.97 6.59-30.08 7.82-10.08 1.23-21.18-2.82-31.07-.36-9.85 2.44-17.76 11.21-27.28 14.87-9.45 3.64-21.21 2.43-30.21 7.27-8.9 4.79-14.39 15.24-22.72 21.2-8.19 5.87-19.87 7.66-27.4 14.66-7.35 6.84-10.01 18.34-16.61 26.26-6.4 7.69-17.25 12.35-22.85 21.05-5.39 8.4-5.15 20.19-9.7 29.53l-.39.71c14.619 8.057 34.182 15.209 57.48 21.105.286-.621.572-1.24.887-1.837z" fill="#d79c7a"/></g><g fill="#fcf0b6"><circle cx="230.077" cy="180.149" r="15.711"/><circle cx="112.981" cy="187.876" r="16.458"/><circle cx="317.019" cy="137.326" r="18.718"/><circle cx="397.327" cy="189.942" r="12.952"/></g></g></g><g><path d="m475.805 140.411c-3.65-1.963-8.195-.593-10.157 3.055-1.961 3.648-.593 8.196 3.056 10.157 13.568 7.294 22.292 15.19 25.357 22.761-11.383-6.257-25.401-12.024-41.767-17.167-.088-.028-.177-.045-.266-.069-.511-.731-1.05-1.45-1.633-2.15-4.535-5.445-10.607-8.943-15.965-12.029-3.788-2.182-7.366-4.243-9.997-6.69-.745-.693-1.461-1.459-2.161-2.275 6.074 1.68 11.862 3.45 17.312 5.302.8.272 1.613.401 2.414.401 3.123 0 6.039-1.967 7.101-5.089 1.332-3.922-.767-8.182-4.688-9.514-11.1-3.772-23.485-7.212-36.82-10.246-1.151-1.106-2.381-2.156-3.724-3.117-5.722-4.093-12.461-5.937-18.407-7.563-4.242-1.161-8.249-2.256-11.451-3.979-3.277-1.762-6.44-4.532-9.788-7.464-4.827-4.227-9.817-8.598-16.286-11.087-6.51-2.504-13.157-2.608-19.586-2.708-4.431-.069-8.615-.135-12.183-1.021-3.599-.894-7.346-2.803-11.312-4.825-5.708-2.909-11.609-5.917-18.489-6.754-6.887-.839-13.341.663-19.582 2.116-4.334 1.009-8.427 1.961-12.125 1.961s-7.791-.953-12.125-1.961c-6.241-1.453-12.694-2.956-19.581-2.116-6.88.838-12.782 3.846-18.49 6.754-3.967 2.022-7.714 3.932-11.313 4.825-3.567.886-7.751.951-12.181 1.02-6.429.101-13.078.204-19.587 2.709-6.469 2.489-11.459 6.859-16.286 11.086-3.348 2.933-6.511 5.702-9.788 7.464-3.204 1.722-7.21 2.818-11.453 3.979-5.946 1.626-12.685 3.47-18.407 7.563-1.466 1.049-2.797 2.201-4.037 3.42-65.408 15.07-101.41 38.169-101.41 65.148v9.318c0 54.777 20.603 106.974 58.013 146.977 1.477 1.579 3.476 2.377 5.479 2.377 1.835 0 3.675-.67 5.122-2.022 3.025-2.83 3.184-7.576.355-10.601-30.155-32.244-48.56-73.008-52.941-116.467 13.005 11.181 33.783 21.116 61.88 29.431 47.448 14.041 110.395 21.773 177.246 21.773 18.631 0 37.244-.613 55.322-1.822 4.133-.276 7.259-3.851 6.982-7.984-.277-4.134-3.852-7.259-7.984-6.983-17.745 1.187-36.021 1.789-54.32 1.789-97.461 0-174.574-16.442-213.148-36.842 1.667-1.895 3.586-3.757 5.564-5.673 3.618-3.503 7.358-7.126 10.225-11.59 2.988-4.653 4.785-9.672 6.522-14.526 1.78-4.973 3.461-9.669 6.122-12.864 2.821-3.386 7.244-5.934 11.928-8.632 4.349-2.505 8.845-5.096 12.726-8.706 3.99-3.711 6.954-8.074 9.821-12.294 2.993-4.406 5.82-8.568 9.257-11.027 3.541-2.532 8.445-3.875 13.638-5.295 4.864-1.331 9.893-2.707 14.598-5.235 4.776-2.568 8.737-6.037 12.568-9.391 4.017-3.518 7.811-6.84 11.79-8.371 4.022-1.548 9.081-1.626 14.436-1.71 5.078-.079 10.33-.161 15.562-1.46 5.265-1.307 9.964-3.702 14.509-6.018 4.755-2.423 9.246-4.712 13.493-5.229 4.254-.516 9.167.625 14.366 1.836 4.968 1.156 10.105 2.352 15.526 2.352 5.42 0 10.557-1.196 15.525-2.352 5.2-1.211 10.111-2.353 14.367-1.835 4.247.518 8.737 2.806 13.492 5.229 4.545 2.316 9.244 4.711 14.509 6.018 5.233 1.3 10.484 1.382 15.563 1.461 5.354.084 10.412.163 14.434 1.71 3.979 1.531 7.773 4.854 11.79 8.372 3.83 3.354 7.791 6.824 12.568 9.392 4.704 2.529 9.732 3.904 14.596 5.235 5.193 1.42 10.098 2.762 13.639 5.294 3.437 2.459 6.264 6.621 9.257 11.027 2.866 4.22 5.83 8.583 9.82 12.294 3.881 3.61 8.377 6.2 12.726 8.705 4.683 2.698 9.106 5.247 11.927 8.632 2.661 3.195 4.343 7.891 6.122 12.863 1.737 4.854 3.534 9.874 6.522 14.526 2.866 4.464 6.607 8.087 10.226 11.591 2.089 2.023 4.105 3.987 5.835 5.992-3.923 2.068-8.221 4.09-12.885 6.044-28.279 11.849-67.581 20.805-113.656 25.902-4.117.456-7.086 4.162-6.63 8.279.424 3.837 3.672 6.676 7.445 6.676.274 0 .554-.015.833-.046 47.483-5.253 88.219-14.581 117.804-26.977 11.519-4.826 24.152-11.385 33.819-19.718-10.117 101.007-95.608 180.134-199.236 180.134h-79.827c-45.233 0-87.915-14.716-123.431-42.558-3.26-2.556-7.975-1.984-10.529 1.275-2.556 3.26-1.985 7.974 1.275 10.529 17.232 13.509 36.037 24.133 55.949 31.736 1.073 10.771 5.435 21.006 12.565 29.262 8.269 9.573 19.719 15.874 32.242 17.74 10.501 1.565 21.243 2.359 31.929 2.359h79.827c10.257 0 20.572-.731 30.659-2.174 24.025-3.435 42.557-23.099 45.049-46.817 28.383-10.644 54.414-27.32 76.49-49.395 40.654-40.654 63.043-94.706 63.043-152.198v-9.318c-.001-15.493-11.61-29.589-34.505-41.897zm-430.631 45.473c-1.928 3.002-4.896 5.877-8.039 8.92-2.631 2.548-5.463 5.307-7.985 8.457-3.833-2.86-6.92-5.762-9.222-8.677l1.664-.909c.149-.081.295-.167.438-.259 7.085-4.519 15.753-8.829 25.855-12.876-.806 1.934-1.68 3.739-2.711 5.344zm39.703-47.606c-2.632 2.448-6.21 4.509-9.999 6.692-5.356 3.086-11.428 6.584-15.964 12.029-1.239 1.487-2.29 3.057-3.23 4.671-16.174 5.52-29.783 11.683-40.496 18.337 1.569-9.965 12.973-18.617 22.656-24.277 12.242-7.157 28.914-13.734 48.861-19.344-.594.671-1.2 1.309-1.828 1.892zm238.727 286.91c-9.386 1.342-18.986 2.022-28.536 2.022h-79.827c-9.948 0-19.946-.738-29.717-2.195-15.031-2.24-26.739-12.835-30.764-26.704 19.402 5.652 39.689 8.555 60.481 8.555h79.827c20.378 0 40.319-2.826 59.388-8.268-4.173 13.761-16.056 24.474-30.852 26.59zm156.855-221.561c-2.594-3.307-5.551-6.176-8.285-8.823-3.143-3.044-6.111-5.918-8.04-8.922-1.509-2.349-2.682-5.129-3.798-8.113 11.745 4.28 21.819 8.898 30.049 13.78l1.436.856c-2.508 3.744-6.324 7.517-11.362 11.222z"/><path d="m230.077 156.938c-12.799 0-23.211 10.413-23.211 23.211 0 12.799 10.413 23.211 23.211 23.211s23.211-10.413 23.211-23.211-10.413-23.211-23.211-23.211zm0 31.423c-4.528 0-8.211-3.684-8.211-8.211s3.684-8.211 8.211-8.211 8.211 3.684 8.211 8.211-3.684 8.211-8.211 8.211z"/><path d="m89.023 187.876c0 13.21 10.748 23.958 23.958 23.958s23.958-10.748 23.958-23.958c0-13.211-10.748-23.958-23.958-23.958s-23.958 10.747-23.958 23.958zm32.916 0c0 4.939-4.019 8.958-8.958 8.958-4.94 0-8.958-4.019-8.958-8.958 0-4.94 4.019-8.958 8.958-8.958 4.94 0 8.958 4.018 8.958 8.958z"/><path d="m343.237 137.326c0-14.457-11.762-26.218-26.218-26.218s-26.218 11.761-26.218 26.218 11.762 26.218 26.218 26.218 26.218-11.761 26.218-26.218zm-26.217 11.218c-6.186 0-11.218-5.033-11.218-11.218s5.032-11.218 11.218-11.218 11.218 5.032 11.218 11.218-5.033 11.218-11.218 11.218z"/><path d="m397.327 210.394c11.277 0 20.452-9.175 20.452-20.453 0-11.277-9.175-20.452-20.452-20.452s-20.452 9.175-20.452 20.452c0 11.279 9.175 20.453 20.452 20.453zm0-25.904c3.006 0 5.452 2.446 5.452 5.452s-2.446 5.453-5.452 5.453-5.452-2.446-5.452-5.453 2.446-5.452 5.452-5.452z"/><path d="m185.973 138.905c4.142 0 7.5-3.358 7.5-7.5s-3.358-7.5-7.5-7.5h-9.906c-4.142 0-7.5 3.358-7.5 7.5s3.358 7.5 7.5 7.5z"/><path d="m326.972 208.855h8.766c4.143 0 7.5-3.358 7.5-7.5s-3.357-7.5-7.5-7.5h-8.766c-4.143 0-7.5 3.358-7.5 7.5s3.357 7.5 7.5 7.5z"/><path d="m265.128 118.608c0-4.142-3.357-7.5-7.5-7.5h-7.43c-4.142 0-7.5 3.358-7.5 7.5s3.358 7.5 7.5 7.5h7.43c4.143 0 7.5-3.358 7.5-7.5z"/><path d="m160.052 184.871c-4.142 0-7.5 3.358-7.5 7.5s3.358 7.5 7.5 7.5h8.42c4.142 0 7.5-3.358 7.5-7.5s-3.358-7.5-7.5-7.5z"/><path d="m376.007 142.611h-5.448c-4.143 0-7.5 3.358-7.5 7.5s3.357 7.5 7.5 7.5h5.448c4.143 0 7.5-3.358 7.5-7.5s-3.358-7.5-7.5-7.5z"/></g></g></svg>