<svg id="Layer_1" height="512" viewBox="0 0 512 512" width="512" xmlns="http://www.w3.org/2000/svg" data-name="Layer 1"><path d="m222.37 244.79v.79 42.78l.2.61 66.06.06v-43.45-.79z" fill="#d3ae8c"/><path d="m252.37 288.36v-42.78-.79h-30v.79 42.78l.2.61h30z" fill="#efccaf"/><path d="m461.43 14.12-141 234.67-19.71-33.03.6-.36 120.9-201.28z" fill="#e75163"/><path d="m422.22 14.12-120.9 201.28-.6.36-26.53-44.47 1.41-.84 95.18-156.33z" fill="#bdcde0"/><path d="m370.78 14.12-95.18 156.33-1.41.84-20.21-33.89 2.02-1.21 75.57-122.07z" fill="#e75163"/><path d="m180.43 14.12h-39.21l140 234.67h39.21z" fill="#f9828e"/><path d="m141.22 14.12 140 234.67h-51.44l-140-234.67z" fill="#d4e1f4"/><path d="m89.78 14.12h-39.21l140 234.67h39.21z" fill="#f9828e"/><path d="m288.63 283.03a110.544 110.544 0 1 1 -33.13-5.08 110.025 110.025 0 0 1 33.13 5.08z" fill="#fff399"/><path d="m255.5 305.07a82.845 82.845 0 1 1 -82.84 82.85 82.844 82.844 0 0 1 82.84-82.85z" fill="#e8b95b"/><path d="m291.31 379.88-17.9 17.45 4.22 24.65-22.13-11.64-22.13 11.64 4.22-24.65-17.9-17.45 24.74-3.6 11.07-22.42 11.07 22.42z" fill="#fff399"/><path d="m202.66 387.92a82.853 82.853 0 0 1 67.84-81.47 82.845 82.845 0 1 0 0 162.93 82.849 82.849 0 0 1 -67.84-81.46z" fill="#ce9e4a"/><g fill="#284268"><path d="m185.418 251.867a6 6 0 0 0 5.153 2.925h25.8v23.965a115.964 115.964 0 1 0 78.268 0v-23.965h25.795a6 6 0 0 0 5.136-2.913h.007l141-234.675a6 6 0 0 0 -5.143-9.09h-129.863a6 6 0 0 0 -5.1 2.841l-71.771 115.945-69.118-115.857a6 6 0 0 0 -5.153-2.925h-129.858a6 6 0 0 0 -5.153 9.074zm174.046 136.051a103.964 103.964 0 1 1 -103.964-103.963 104.082 104.082 0 0 1 103.964 103.963zm-131.1-112.75v-20.376h54.268v20.376a116.181 116.181 0 0 0 -54.268 0zm222.46-255.05-130.377 216.994-12.539-21.018 117.706-195.976zm-39.208 0-110.683 184.282-19.287-32.33 92.507-151.952zm-76.7 0h25.184l-85.412 140.3-13.069-21.907zm-157.893 0 132.84 222.674h-25.237l-132.841-222.674zm-39.209 0 132.839 222.674h-37.465l-132.841-222.674zm-51.438 0 132.839 222.674h-25.236l-132.842-222.674z"/><path d="m166.655 387.918a88.845 88.845 0 1 0 88.845-88.844 88.945 88.945 0 0 0 -88.845 88.844zm165.69 0a76.845 76.845 0 1 1 -76.845-76.844 76.932 76.932 0 0 1 76.845 76.844z"/><path d="m255.5 347.861a6 6 0 0 0 -5.38 3.345l-9.671 19.594-21.622 3.142a6 6 0 0 0 -3.326 10.234l15.647 15.251-3.694 21.536a6 6 0 0 0 8.706 6.325l19.34-10.168 19.34 10.167a6 6 0 0 0 8.706-6.325l-3.694-21.536 15.648-15.251a6 6 0 0 0 -3.326-10.234l-21.624-3.141-9.67-19.593a6 6 0 0 0 -5.38-3.346zm10.2 34.359 12.714 1.848-9.2 8.967a6 6 0 0 0 -1.726 5.311l2.172 12.662-11.371-5.978a6 6 0 0 0 -5.584 0l-11.372 5.978 2.172-12.662a6 6 0 0 0 -1.725-5.311l-9.2-8.967 12.72-1.848a6 6 0 0 0 4.517-3.282l5.686-11.52 5.686 11.52a6 6 0 0 0 4.511 3.282z"/><path d="m229.445 340.835a6 6 0 1 0 -5.82-10.494 65.881 65.881 0 0 0 -33.925 57.577 6 6 0 0 0 12 0 53.876 53.876 0 0 1 27.745-47.083z"/><path d="m251.686 322.227c-2.11.121-4.231.345-6.306.665a6 6 0 1 0 1.833 11.859c1.7-.262 3.431-.445 5.159-.543 1.032-.06 2.084-.09 3.127-.09a6 6 0 1 0 0-12c-1.271 0-2.555.037-3.813.109z"/></g></svg>