<svg id="Layer_1" height="512" viewBox="0 0 512 512" width="512" xmlns="http://www.w3.org/2000/svg" data-name="Layer 1"><path d="m150.658 98.487h210.683v45.601h-210.683z" fill="#4d7187"/><path d="m378 27h-244a24.007 24.007 0 0 0 -24 24v47.49h292v-47.49a24.007 24.007 0 0 0 -24-24z" fill="#304756"/><path d="m174 27h-40a24.006 24.006 0 0 0 -24 24v47.49h40v-47.49a24.007 24.007 0 0 1 24-24z" fill="#3e5c72"/><path d="m409.3 447.423c0 20.75-15.4 37.581-34.39 37.581h-237.822c-18.99 0-34.39-16.831-34.39-37.581v-259.623c0-24.141 17.91-43.711 40-43.711h226.602c22.09 0 40 19.57 40 43.711z" fill="#f39c4e"/><path d="m142.7 447.423v-259.623c0-24.141 17.911-43.711 40-43.711h-40c-22.09 0-40 19.57-40 43.711v259.623c0 20.75 15.4 37.581 34.39 37.581h40c-18.99-.004-34.39-16.831-34.39-37.581z" fill="#ffad69"/><path d="m219.889 216.179h189.413v219.864h-189.413z" fill="#d05458"/><g fill="#284268"><path d="m369.3 138h-2.3v-34h35c3.313 0 6-2.2 6-5.512v-47.488a30.034 30.034 0 0 0 -30-30h-244a30.034 30.034 0 0 0 -30 30v47.488c0 3.313 2.687 5.512 6 5.512h35v34h-2.3c-25.367 0-45.7 22.392-45.7 49.8v259.62c0 24.03 17.817 43.58 40.09 43.58h237.82c22.273 0 40.09-19.55 40.09-43.58v-259.62c0-27.408-20.333-49.8-45.7-49.8zm-253.3-46v-41a18.021 18.021 0 0 1 18-18h244a18.021 18.021 0 0 1 18 18v41zm239 12v34h-198v-34zm48 106h-183.106a5.894 5.894 0 0 0 -5.894 5.894v29.106a6 6 0 0 0 12 0v-23h177v208h-177v-145a6 6 0 0 0 -12 0v151.106a5.894 5.894 0 0 0 5.894 5.894h183.106v5.42c0 17.413-12.435 31.58-28.09 31.58h-237.82c-15.655 0-28.09-14.167-28.09-31.58v-259.62c0-20.792 14.949-37.8 33.7-37.8h226.6c18.748 0 33.7 17.008 33.7 37.8z"/><path d="m133 259.41a6 6 0 0 0 -6 6v62.99a6 6 0 0 0 12 0v-62.99a6 6 0 0 0 -6-6z"/><path d="m133 205.673a6 6 0 0 0 -6 6v31.614a6 6 0 1 0 12 0v-31.614a6 6 0 0 0 -6-6z"/><path d="m133 178.48a6 6 0 0 0 -6 6v4.807a6 6 0 1 0 12 0v-4.807a6 6 0 0 0 -6-6z"/></g></svg>