<svg id="Layer_1" height="512" viewBox="0 0 512 512" width="512" xmlns="http://www.w3.org/2000/svg" data-name="Layer 1"><path d="m295.11 399.508v54.11a39.11 39.11 0 1 1 -78.219 0v-54.91h78.219z" fill="#526d7a"/><path d="m411.308 329.369a89.671 89.671 0 0 1 -58.859 21.91h-192.9a89.671 89.671 0 0 1 -58.859-21.91l-.06.07v38.19a31.071 31.071 0 0 0 31.07 31.079h248.6a31.071 31.071 0 0 0 31.07-31.079v-38.19z" fill="#4d7187"/><path d="m442.448 242.75v18.53a89.99 89.99 0 0 1 -90 90h-192.9a89.99 89.99 0 0 1 -90-90v-18.53z" fill="#5f91d4"/><path d="m69.552 211.44h372.895v31.31h-372.895z" fill="#cde5f7"/><path d="m268.34 481.277a39.028 39.028 0 0 1 -11.45-27.659v-54.91h-40v54.91a39.11 39.11 0 0 0 59.11 33.618 39.261 39.261 0 0 1 -7.66-5.959z" fill="#38505e"/><path d="m140.631 367.629v-18.365a89.737 89.737 0 0 1 -39.939-19.895l-.06.07v38.19a31.071 31.071 0 0 0 31.07 31.079h40a31.071 31.071 0 0 1 -31.071-31.079z" fill="#3e5c72"/><path d="m109.552 261.28v-18.53h-40v18.53a89.99 89.99 0 0 0 90 90h40a89.99 89.99 0 0 1 -90-90z" fill="#5483b5"/><path d="m69.552 211.441h40v31.31h-40z" fill="#bcdcfc"/><path d="m310.009 90.952v17.96h-27.339v-17.96a44.34 44.34 0 1 0 -88.679 0v120.489h-27.35v-120.489a71.684 71.684 0 1 1 143.368 0z" fill="#d05458"/><g fill="#284268"><path d="m181.608 270h87.555a6 6 0 0 0 0-12h-87.555a6 6 0 0 0 0 12z"/><path d="m124.983 271h31.983a6 6 0 0 0 0-12h-31.983a6 6 0 0 0 0 12z"/><path d="m97.777 259a6 6 0 1 0 0 12h6.223a6 6 0 0 0 0-12z"/><path d="m442.448 205h-242.448v-36h17v16.827a6 6 0 0 0 12 0v-16.827h12.266a6 6 0 0 0 0-12h-12.266v-17.785a6 6 0 0 0 -12 0v17.785h-17v-66.054a38.5 38.5 0 0 1 77 0v17.962a5.806 5.806 0 0 0 5.669 6.092h27.34a6.072 6.072 0 0 0 5.991-6.092v-17.962a77.5 77.5 0 1 0 -155 0v114.054h-91.448c-3.314 0-5.552 3.129-5.552 6.442v49.836a95.534 95.534 0 0 0 31 70.655v35.7c0 20.444 16.259 37.367 36.7 37.367h79.3v48.625a45 45 0 1 0 90 0v-48.625h79.3c20.442 0 36.7-16.923 36.7-37.366v-35.7a95.534 95.534 0 0 0 31-70.655v-49.837c0-3.313-2.238-6.442-5.552-6.442zm-269.448-114.054a65.5 65.5 0 1 1 131 0v12.054h-15v-12.054a50.5 50.5 0 0 0 -101 0v114.054h-15zm116 362.679a33 33 0 1 1 -66 0v-48.625h66zm116-85.991c0 13.826-10.875 25.366-24.7 25.366h-248.6c-13.826 0-24.7-11.54-24.7-25.366v-26.342a95.11 95.11 0 0 0 52.552 15.708h192.9a95.11 95.11 0 0 0 52.548-15.708zm31-130.634h-294a6 6 0 0 0 0 12h294v12.278a83.476 83.476 0 0 1 -83.552 83.722h-192.9a83.476 83.476 0 0 1 -83.548-83.722v-12.278h26a6 6 0 0 0 0-12h-26v-20h360z"/></g></svg>