<svg id="Capa_1" enable-background="new 0 0 510.309 510.309" height="512" viewBox="0 0 510.309 510.309" width="512" xmlns="http://www.w3.org/2000/svg"><g><g><path d="m363.571 371.08c-.012 22.537-16.593 41.631-38.906 44.821-9.667 1.382-19.548 2.098-29.598 2.098h-79.827c-10.474 0-20.766-.778-30.823-2.277-22.216-3.311-38.681-22.35-38.681-44.811v-.183-44.504h217.834v44.856z" fill="#e4e1e5"/><path d="m502.775 165.582.034 9.333c0 114.732-93.009 207.741-207.741 207.741h-79.827c-114.732-.001-207.741-93.009-207.741-207.741l.032-9.364 43.465-26.638h388.067z" fill="#f8f7f8"/><path d="m77.7 156.583.035-11.203 9.441-6.467h-36.179l-43.465 26.638-.032 9.364c0 112.052 88.728 203.378 199.752 207.584-76.455-39.31-129.552-125.683-129.552-225.916z" fill="#efedee"/><g><path d="m502.804 164.438c0 6.63-2.98 13.06-8.57 19.18-28.49 31.17-124.73 54.11-239.08 54.11-111.91 0-206.48-21.97-237.16-52.13-6.82-6.7-10.49-13.8-10.49-21.16 0-40.48 110.87-73.29 247.65-73.29s247.65 32.81 247.65 73.29z" fill="#efedee"/></g><path d="m72.724 188.644c0-33.107 21.003-63.48 55.994-87.234-72.577 12.779-121.214 36.219-121.214 63.028 0 7.36 3.67 14.46 10.49 21.16 11.565 11.369 32.213 21.573 59.442 29.877-3.084-8.678-4.712-17.646-4.712-26.831z" fill="#e4e1e5"/><path d="m357.354 147.197-95.06-5.75-108.46 6.28c-58.848 7.463-106.704 21.067-134.336 38.088-.779.48-.864 1.571-.192 2.191 11.065 10.208 29.493 19.44 53.425 27.151h53.066 270.808l42.453-.48c23.339-7.655 41.304-16.772 52.125-26.832 1.494-1.389 1.001-3.864-.906-4.585-16.497-6.233-81.341-29.839-132.923-36.063z" fill="#dfae91"/><g><path d="m424.954 198.907c7.58 8.48 12.66 14.15 14.11 15.77-45.32 14.87-110.93 24.21-183.91 24.21-72.19 0-137.17-9.14-182.43-23.73.01 0 5.48-6.12 14.55-16.25 90.06-100.65 247.62-100.65 337.68 0z" fill="#fbe88c"/></g><path d="m72.724 188.644c0-8.914 1.527-17.632 4.436-26.075-23.759 6.589-43.404 14.463-57.662 23.245-.779.48-.864 1.571-.192 2.191 11.065 10.208 29.493 19.44 53.425 27.151h4.599c-3.011-8.578-4.606-17.438-4.606-26.512z" fill="#d79c7a"/><path d="m138.201 223.13c41.336-54.241 95.139-86.64 151.374-97.233-72.441-10.738-149.133 13.59-202.3 73.01-9.07 10.13-14.54 16.25-14.55 16.25 17.511 5.645 37.985 10.469 60.676 14.269 1.483-1.947 3.079-4.04 4.8-6.296z" fill="#fbe372"/></g><path d="m405.496 99.67c-4.041-.898-8.05 1.648-8.95 5.691-.899 4.043 1.648 8.05 5.692 8.95 56.538 12.583 93.07 32.714 93.07 51.284 0 3.146-1.025 6.328-2.984 9.507-29.85-15.903-76.586-28.311-132.815-35.193-3.177-1.561-6.387-3.068-9.648-4.49-29.66-12.938-61.201-19.498-93.747-19.498-.002 0-.001 0-.003 0-32.544 0-64.087 6.56-93.745 19.496-3.647 1.591-7.237 3.275-10.779 5.039-56.84 7.311-103.365 20.256-132.207 36.712-2.88-3.863-4.38-7.744-4.38-11.572 0-31.116 98.628-65.786 240.154-65.786 40.404 0 80.444 2.968 115.791 8.584 4.095.653 7.934-2.141 8.584-6.23.649-4.091-2.14-7.934-6.23-8.584-36.111-5.737-76.965-8.77-118.145-8.77-66.852 0-129.799 7.732-177.246 21.773-50.968 15.083-77.908 35.489-77.908 59.013v9.318c0 61.057 26.095 119.477 71.593 160.28 1.433 1.284 3.222 1.917 5.005 1.917 2.057 0 4.105-.841 5.587-2.493 2.765-3.083 2.507-7.825-.576-10.591-37.261-33.416-60.525-79.53-65.565-128.836 13.006 11.175 33.779 21.106 61.865 29.417 47.447 14.041 110.395 21.773 177.246 21.773s129.799-7.732 177.246-21.773c28.104-8.316 48.885-18.254 61.889-29.438-10.186 100.936-95.646 179.985-199.222 179.985h-79.826c-38.936 0-76.689-11.193-109.18-32.37-3.473-2.263-8.117-1.283-10.379 2.188-2.262 3.47-1.282 8.117 2.188 10.378 12.849 8.375 26.465 15.291 40.625 20.697 1.058 10.803 5.425 21.073 12.575 29.351 8.269 9.573 19.719 15.874 32.242 17.74 10.5 1.565 21.243 2.359 31.929 2.359h79.826c10.257 0 20.572-.731 30.659-2.174 24.025-3.435 42.557-23.099 45.049-46.817 28.383-10.644 54.414-27.32 76.49-49.395 40.654-40.654 63.043-94.706 63.043-152.198v-9.318c0-27.47-37.223-50.883-104.813-65.926zm-81.892 308.806c-9.386 1.342-18.986 2.022-28.536 2.022h-79.826c-9.948 0-19.946-.738-29.718-2.195-15.063-2.245-26.795-12.881-30.797-26.793 19.512 5.707 39.858 8.644 60.515 8.644h79.826c20.378 0 40.319-2.826 59.388-8.268-4.173 13.761-16.056 24.474-30.852 26.59zm157.813-222.117c-9.203 6.931-22.777 13.612-40.077 19.613-2.502-2.796-6.181-6.907-10.796-12.064-11.386-12.725-23.898-24.019-37.436-33.816 36.334 6.497 66.69 15.505 88.309 26.267zm-146.869 41.158c17.804-18.297 35.866-35.775 53.915-52.182 5.627 4.281 11.05 8.855 16.273 13.7-11.696 10.908-23.433 22.302-34.997 33.967-11.145 1.753-22.892 3.271-35.191 4.515zm-54.773 3.506c25.297-26.986 51.171-52.358 77.135-75.624 6.533 3.379 12.871 7.07 19.001 11.078-21.496 19.652-42.989 40.789-64.026 62.973-10.381.724-21.097 1.253-32.11 1.573zm-24.621.359c-8.951 0-17.728-.14-26.321-.407 4.771-5.242 9.563-10.437 14.341-15.523 2.836-3.019 2.688-7.766-.332-10.602-3.02-2.835-7.764-2.688-10.602.332-7.631 8.125-15.304 16.508-22.859 24.951-9.784-.542-19.298-1.252-28.513-2.116 30.992-34.787 62.856-67.095 94.907-96.214 9.036.798 17.971 2.146 26.781 4.045-16.095 14.652-32.191 30.116-47.985 46.133-2.908 2.95-2.875 7.698.075 10.606 1.461 1.441 3.363 2.16 5.266 2.16 1.937 0 3.873-.746 5.341-2.234 17.991-18.246 36.373-35.766 54.689-52.152 7.53 2.289 14.954 4.991 22.257 8.106-28.086 25.446-56.026 53.279-83.212 82.9-1.276.006-2.549.015-3.833.015zm-101.577-6.479c-13.514-13.346-27.572-26.649-41.909-39.646 5.842-5.147 11.928-9.957 18.248-14.422 15.238 13.85 30.099 27.986 44.286 42.131-3.89 4.324-7.765 8.689-11.627 13.089-3.037-.367-6.036-.752-8.998-1.152zm-52.876-29.316c9.199 8.325 18.297 16.764 27.198 25.275-15.237-2.755-29.202-5.957-41.714-9.495l6.676-7.459c2.553-2.852 5.168-5.623 7.84-8.321zm136.601-48.229c-4.689-4.662-9.45-9.326-14.26-13.964 10.37-1.565 20.893-2.381 31.533-2.453-5.767 5.378-11.527 10.846-17.273 16.417zm-32.219-10.39c7.269 6.897 14.478 13.905 21.517 20.901-5.406 5.369-10.8 10.816-16.176 16.346-9.962-9.906-20.267-19.818-30.761-29.6 8.315-3.093 16.772-5.668 25.354-7.716.023.022.043.047.066.069zm-20.779 64.887c-13.309-13.255-27.199-26.499-41.43-39.508 6.94-4.189 14.132-7.988 21.556-11.401 12.17 11.23 24.115 22.664 35.598 34.087-5.261 5.534-10.503 11.142-15.724 16.822zm231.104-2.253c1.335 1.416 2.655 2.852 3.958 4.308l6.28 7.018c-9.16 2.636-19.114 5.09-29.794 7.319 6.51-6.343 13.039-12.572 19.556-18.645zm-333.724-5.696c-4.909 5.486-8.753 9.782-11.253 12.574-16.705-5.687-30.022-12.008-39.417-18.583 20.887-10.998 50.801-20.264 87.048-27.024-13.131 9.616-25.291 20.642-36.378 33.033z"/></g></svg>