<svg id="Layer_1" height="512" viewBox="0 0 512 512" width="512" xmlns="http://www.w3.org/2000/svg" data-name="Layer 1"><path d="m341.48 9.2a167.359 167.359 0 0 1 0 236.67l-18.36-18.59a142.338 142.338 0 0 0 .41-199.08l-.41-.41z" fill="#b9c8db"/><path d="m323.53 28.2a142.338 142.338 0 0 1 -.41 199.08l-61-61.77v-75.95l61-61.77z" fill="#d9dfe8"/><path d="m184.04 82.34h78.08v92.09h-78.08z" fill="#b9c8db"/><path d="m247.4 353.89h-49.15a11 11 0 0 0 0 22h49.15a11 11 0 0 0 0-22z" fill="#f3e08d"/><path d="m247.4 480.8h-49.15a11 11 0 1 0 0 22h49.15a11 11 0 0 0 0-22z" fill="#f3e08d"/><path d="m203.89 174.43h37.87v179.46h-37.87z" fill="#d3ae8c"/><path d="m203.89 36.3h37.87v46.04h-37.87z" fill="#d3ae8c"/><path d="m184.04 101.87v53.03h-20.73a31.139 31.139 0 0 1 -20.64-7.82l-21.16-18.7 21.16-18.69a31.139 31.139 0 0 1 20.64-7.82z" fill="#d9dfe8"/><path d="m245.76 480.77v.03h-45.87v-.03-23h45.87z" fill="#75967a"/><path d="m199.89 398.89h45.87v58.88h-45.87z" fill="#9ac5a1"/><path d="m199.89 375.89h45.87v23h-45.87z" fill="#75967a"/><path d="m336.962 44.152a143.24 143.24 0 0 0 -13.432-15.952l-.41-.41-61 61.77v75.95l30 30.379v-83.732a55.045 55.045 0 0 1 15.88-38.676z" fill="#e6e9ef"/><path d="m184.04 82.34h30v92.09h-30z" fill="#9daebf"/><g fill="#284268"><path d="m117.536 132.881 21.157 18.7a37.15 37.15 0 0 0 24.618 9.318h14.727v13.535a6 6 0 0 0 6 6h13.848v167.472a16.981 16.981 0 0 0 -4 33.392v94.087a16.989 16.989 0 0 0 4.366 33.41h49.148a16.989 16.989 0 0 0 4.365-33.41v-94.085a16.98 16.98 0 0 0 -4-33.392v-167.477h14.354a5.978 5.978 0 0 0 4.4-1.93l70.69 71.58a6 6 0 0 0 4.25 1.784h.019a6 6 0 0 0 4.242-1.757c67.587-67.587 67.587-177.559 0-245.146a6 6 0 0 0 -4.242-1.757h-.019a5.993 5.993 0 0 0 -4.25 1.784l-71.586 72.487a5.963 5.963 0 0 0 -3.5-1.138h-14.359v-40.038a6 6 0 0 0 -6-6h-37.878a6 6 0 0 0 -6 6v40.038h-13.848a6 6 0 0 0 -6 6v13.535h-14.727a37.151 37.151 0 0 0 -24.618 9.319l-21.157 18.7a6 6 0 0 0 0 8.992zm223.89-115.081a161.354 161.354 0 0 1 0 219.48l-9.968-10.094a148.306 148.306 0 0 0 0-199.292zm-73.308 74.227 54.895-55.587a136.318 136.318 0 0 1 0 182.192l-54.9-55.588zm-15.718 399.773a5.006 5.006 0 0 1 -5 5h-49.148a5 5 0 0 1 0-10h49.148a5.006 5.006 0 0 1 5 5zm-12.635-86.908v46.885h-33.879v-46.89zm-33.878-12v-11h33.878v11zm33.878 70.885v11.023h-33.879v-11.028zm12.635-98.89a5.006 5.006 0 0 1 -5 5h-49.148a5 5 0 0 1 0-10h49.148a5.006 5.006 0 0 1 5 5zm-42.513-17v-167.456h25.878v167.456zm0-305.591h25.878v34.042h-25.879zm-19.849 46.042h66.08v80.093h-66.08zm-43.4 25.846a25.152 25.152 0 0 1 16.671-6.311h14.727v41.027h-14.725a25.156 25.156 0 0 1 -16.672-6.311l-16.069-14.2z"/><path d="m328.162 162.584a125.131 125.131 0 0 0 1.138-65.864 6 6 0 0 0 -11.63 2.96 113.121 113.121 0 0 1 -1.027 59.543 6 6 0 1 0 11.519 3.361z"/><path d="m320.14 86.839a6 6 0 0 0 3.189-7.863c-1.27-3-2.676-5.991-4.18-8.883a6 6 0 0 0 -10.649 5.536c1.358 2.611 2.628 5.31 3.775 8.022a5.993 5.993 0 0 0 7.863 3.188z"/></g></svg>