<svg id="Layer_1" enable-background="new 0 0 512 512" height="512" viewBox="0 0 512 512" width="512" xmlns="http://www.w3.org/2000/svg"><g><g><path d="m461 445.79s-18.19 1.3-48.07 2.75c-4.01.2-8.24.4-12.66.6-37.33 1.67-88.57 3.34-144.27 3.34-111.39 0-205-6.69-205-6.69 53.65-83.57 118.82-155.67 118.82-155.67-33.58 1.31-68.19 14.36-68.19 14.36 53.63-82.87 111.92-148.78 111.92-148.78-30.01 2-51.19 8.44-51.19 8.44 37.14-62.41 81.18-112.78 91.43-124.21 1.44-1.59 2.21-2.43 2.21-2.43s51.3 55.5 93.64 126.64c0 0-21.18-6.44-51.19-8.44 0 0 58.29 65.91 111.92 148.78 0 0-34.61-13.05-68.19-14.36 0 0 65.17 72.1 118.82 155.67z" fill="#77e0ab"/><path d="m461 445.79s-18.19 1.3-48.07 2.75c-42.39-89.76-108.21-178.5-108.21-178.5 25.57-1.57 46.83-1 46.83-1-46.55-72.61-86.2-129.17-86.2-129.17 18.11-3.52 33.98-2.22 33.98-2.22-13.18-35.57-37.17-81.83-45.54-97.72 1.44-1.59 2.21-2.43 2.21-2.43s51.3 55.5 93.64 126.64c0 0-21.18-6.44-51.19-8.44 0 0 58.29 65.91 111.92 148.78 0 0-34.61-13.05-68.19-14.36 0 0 65.17 72.1 118.82 155.67z" fill="#65c1b0"/><circle cx="256" cy="22.5" fill="#58768c" r="15"/><circle cx="222.087" cy="317.552" fill="#ff5f85" r="15"/><circle cx="365.565" cy="405.913" fill="#be94ff" r="15"/><circle cx="256" cy="181.435" fill="#ffe878" r="15"/><path d="m289.91 502.22s-10.76 1.57-24.85 2.1c-2.9.11-5.94.18-9.06.18-18.26 0-33.91-2.28-33.91-2.28.78-24.29 6.26-49.74 6.26-49.74h55.3s5.48 25.45 6.26 49.74z" fill="#e2a67d"/><path d="m289.91 502.22s-10.76 1.57-24.85 2.1c-.64-19.32-2.04-37.43-3.42-51.84h22.01s5.48 25.45 6.26 49.74z" fill="#d18766"/></g><g><path d="m147.223 238.78c1.347 1.007 2.922 1.493 4.483 1.493 2.285 0 4.541-1.04 6.014-3.011 5.557-7.436 10.937-14.486 16.05-21.077 16.658 6.342 44.183 15.24 80.929 21.713.439.078.878.115 1.31.115 3.571 0 6.736-2.561 7.378-6.2.718-4.08-2.006-7.969-6.086-8.688-32.354-5.7-57.49-13.442-73.786-19.367 20.94-26.411 35.452-42.869 35.65-43.093 2.015-2.278 2.454-5.547 1.113-8.276-1.342-2.729-4.191-4.378-7.231-4.176-13.854.925-25.837 2.757-34.879 4.507 6.392-10.119 12.896-19.845 19.308-29.04 2.89.128 5.721.191 8.494.191 33.401 0 58.265-8.947 74.442-17.548 5.68-3.02 10.63-6.158 14.87-9.178 3.124 4.138 6.327 8.455 9.579 12.932 1.467 2.02 3.754 3.092 6.073 3.092 1.528 0 3.071-.466 4.402-1.433 3.352-2.435 4.094-7.125 1.659-10.476-3.412-4.696-6.77-9.221-10.044-13.551 4.99-4.6 7.535-7.828 7.75-8.105 2.537-3.262 1.95-7.951-1.303-10.499-3.255-2.548-7.963-1.974-10.521 1.27-.04.051-1.734 2.168-5.118 5.38-12.017-15.365-22.25-27.446-28.749-34.908 5.738-4.081 9.489-10.784 9.489-18.347.001-12.407-10.093-22.5-22.499-22.5s-22.5 10.093-22.5 22.5c0 7.565 3.753 14.269 9.494 18.35-10.531 12.105-30.892 36.38-52.93 67.319-3.96-.358-7.97-.842-12.031-1.455-4.093-.613-7.917 2.201-8.535 6.297s2.201 7.917 6.297 8.535c1.514.229 3.015.438 4.502.631-8.194 12.012-16.453 24.812-24.376 38.126-1.583 2.66-1.366 6.018.541 8.456 1.906 2.438 5.116 3.454 8.081 2.557.157-.048 12.421-3.711 31.156-6.268-6.792 8.105-16.038 19.356-26.775 32.983-4.327-1.845-6.646-2.994-6.799-3.071-3.693-1.869-8.207-.39-10.078 3.307-1.87 3.696-.39 8.208 3.307 10.078.267.135 1.629.817 4.042 1.908-4.404 5.709-8.985 11.733-13.691 18.031-2.48 3.317-1.801 8.017 1.518 10.496zm108.777-223.78c4.136 0 7.5 3.364 7.5 7.5s-3.364 7.5-7.5 7.5-7.5-3.364-7.5-7.5 3.364-7.5 7.5-7.5zm.002 33.756c6.188 7.044 17.087 19.788 30.13 36.479-3.823 2.699-8.308 5.515-13.466 8.215-19.264 10.084-40.923 15.255-64.658 15.468 20.699-28.374 39.159-50.094 47.994-60.162z"/><path d="m337.17 443.875c-27.783.732-55.093 1.104-81.17 1.104-86.161 0-162.404-4.063-191.709-5.847 13.178-19.931 26.884-39.087 39.985-56.56 15.628 2.389 38.667 5.151 66.874 6.301.104.004.208.006.311.006 4.002 0 7.324-3.16 7.489-7.194.168-4.139-3.05-7.631-7.188-7.799-22.859-.932-42.391-2.987-57.094-4.995 33.269-43.252 60.301-73.276 60.719-73.738 2.023-2.239 2.509-5.472 1.23-8.206-1.277-2.733-4.056-4.433-7.085-4.317-18.253.709-36.585 4.688-49.992 8.35 5.544-8.234 11.298-16.562 17.209-24.906 2.395-3.38 1.596-8.061-1.784-10.456-3.381-2.394-8.062-1.595-10.456 1.785-10.28 14.512-20.095 28.981-29.171 43.009-1.759 2.718-1.573 6.258.458 8.779 2.032 2.521 5.45 3.456 8.483 2.313.271-.102 22.221-8.284 47.466-12.083-12.161 14.183-31.971 37.933-53.97 66.875-8.013-1.381-12.49-2.391-12.66-2.429-4.036-.932-8.061 1.592-8.99 5.628-.928 4.037 1.592 8.062 5.629 8.99.33.076 2.369.539 5.945 1.235-14.25 19.229-29.047 40.271-43.01 62.021-1.43 2.228-1.58 5.044-.395 7.411s3.531 3.934 6.172 4.122c.833.059 75.053 5.29 168.85 6.471-1.724 9.735-4.206 26.123-4.725 42.234-.123 3.814 2.638 7.112 6.414 7.663.661.097 16.404 2.36 34.995 2.36s34.334-2.263 34.995-2.36c3.776-.55 6.537-3.849 6.414-7.663-.519-16.11-3-32.498-4.725-42.233 14.74-.184 29.74-.476 44.88-.875 4.141-.109 7.409-3.554 7.3-7.695-.108-4.142-3.533-7.374-7.694-7.301zm-81.17 53.125c-10.382 0-19.974-.771-26.075-1.401.944-14.26 3.225-28.147 4.615-35.702 7.069.053 14.23.082 21.46.082 7.069 0 14.228-.027 21.461-.081 1.39 7.549 3.67 21.425 4.614 35.702-6.101.629-15.693 1.4-26.075 1.4z"/><path d="m467.312 441.739c-21.17-32.976-44.256-64.324-64.448-90.193 2.155-.883 4.3-1.781 6.434-2.694 3.809-1.629 5.574-6.038 3.945-9.846s-6.036-5.576-9.846-3.945c-3.378 1.445-6.783 2.851-10.213 4.217-13.3-16.678-24.817-30.397-32.93-39.859 25.245 3.8 47.194 11.981 47.463 12.083 3.032 1.144 6.453.211 8.485-2.309 2.033-2.521 2.219-6.063.459-8.782-12.58-19.441-25.459-38.005-37.803-55.031.701-.035 1.402-.07 2.103-.107 4.137-.219 7.312-3.75 7.093-7.886-.219-4.137-3.769-7.298-7.886-7.093-4.007.212-8.015.382-12.02.509-21.353-28.688-40.221-51.858-51.858-65.756 18.743 2.557 31.009 6.221 31.163 6.268 2.965.901 6.176-.112 8.086-2.55 1.909-2.438 2.125-5.799.541-8.46-5.944-9.99-12.413-20.251-19.225-30.499-2.293-3.45-6.948-4.386-10.398-2.094-3.449 2.293-4.387 6.948-2.094 10.397 3.244 4.88 6.408 9.762 9.471 14.613-9.042-1.75-21.028-3.583-34.882-4.508-3.026-.201-5.891 1.447-7.231 4.176-1.341 2.729-.901 5.998 1.113 8.276.377.426 25.06 28.446 56.783 70.423-16.992-.017-33.876-.802-50.468-2.351-4.131-.381-7.779 2.646-8.165 6.771-.385 4.125 2.646 7.78 6.771 8.165 17.237 1.609 34.774 2.415 52.422 2.415 3.514 0 7.034-.033 10.556-.097 10.259 13.94 21.005 29.071 31.725 44.987-13.406-3.661-31.737-7.64-49.99-8.349-2.995-.126-5.808 1.584-7.085 4.317-1.278 2.734-.793 5.967 1.23 8.206.334.37 17.777 19.744 41.826 49.701-50.569 18.111-106.431 27.984-166.462 29.387-4.142.097-7.42 3.532-7.323 7.673.096 4.082 3.434 7.325 7.495 7.325.059 0 .118 0 .178-.002 63.534-1.485 122.604-12.238 175.945-32 18.415 23.444 39.529 51.787 59.439 81.899-14.395.879-40.091 2.309-72.552 3.527-4.139.155-7.369 3.637-7.214 7.776.152 4.043 3.478 7.219 7.49 7.219.095 0 .19-.001.286-.005 51.026-1.914 85.471-4.354 85.813-4.379 2.641-.188 4.986-1.755 6.172-4.122s1.035-5.185-.394-7.413z"/><path d="m222.087 340.052c12.406 0 22.5-10.093 22.5-22.5s-10.094-22.5-22.5-22.5-22.5 10.093-22.5 22.5 10.094 22.5 22.5 22.5zm0-30c4.136 0 7.5 3.364 7.5 7.5s-3.364 7.5-7.5 7.5-7.5-3.364-7.5-7.5 3.364-7.5 7.5-7.5z"/><path d="m388.065 405.913c0-12.407-10.094-22.5-22.5-22.5s-22.5 10.093-22.5 22.5 10.094 22.5 22.5 22.5 22.5-10.093 22.5-22.5zm-22.5 7.5c-4.136 0-7.5-3.364-7.5-7.5s3.364-7.5 7.5-7.5 7.5 3.364 7.5 7.5-3.364 7.5-7.5 7.5z"/><path d="m278.5 181.435c0-12.407-10.094-22.5-22.5-22.5s-22.5 10.093-22.5 22.5 10.094 22.5 22.5 22.5 22.5-10.093 22.5-22.5zm-22.5 7.5c-4.136 0-7.5-3.364-7.5-7.5s3.364-7.5 7.5-7.5 7.5 3.364 7.5 7.5-3.364 7.5-7.5 7.5z"/><circle cx="143.514" cy="415.696" r="7.5"/><circle cx="283.344" cy="412.306" r="7.5"/><circle cx="304.993" cy="332.556" r="7.5"/><circle cx="274.214" cy="276.916" r="7.5"/><circle cx="194.913" cy="255.996" r="7.5"/><circle cx="274.214" cy="133.956" r="7.5"/></g></g></svg>