<svg id="Layer_1" height="512" viewBox="0 0 512 512" width="512" xmlns="http://www.w3.org/2000/svg" data-name="Layer 1"><path d="m120.02 369.82h272.64v40h-272.64z" fill="#9ac5a1"/><path d="m120.02 212.82h272.64v157h-272.64z" fill="#75967a"/><path d="m120.02 158.52v1.35 52.95h272.64v-54.3z" fill="#9ac5a1"/><path d="m382.93 59.49h-253.19a30 30 0 0 0 -30 30v69.03h313.19v-69.03a30 30 0 0 0 -30-30z" fill="#75967a"/><path d="m323.34 132.84h41.99v52.36h-41.99z" fill="#f3e08d"/><path d="m147.34 132.84h41.99v52.36h-41.99z" fill="#f3e08d"/><path d="m303.49 284.85h-94.98a20 20 0 0 0 -20 20v40h134.98v-40a20 20 0 0 0 -20-20z" fill="#7c7e38"/><path d="m188.51 344.85h134.98v64.97h-134.98z" fill="#5e5b2a"/><path d="m238 326.32h35.99v46.36h-35.99z" fill="#f3e08d"/><rect fill="#7c7e38" height="83" rx="30" width="332.64" x="90.02" y="409.82"/><path d="m341.92 409.82h38.16v83h-38.16z" fill="#5e5b2a"/><path d="m457.34 288.5v60a20 20 0 0 1 -20 20h-44.68v-80z" fill="#9ac5a1"/><path d="m392.66 251.17h64.68v37.33h-64.68z" fill="#7c7e38"/><path d="m120.02 288.5v80h-45.36a20 20 0 0 1 -20-20v-60z" fill="#9ac5a1"/><path d="m120.02 251.17v37.33h-.68-64.68v-37.33h64.68z" fill="#7c7e38"/><path d="m120.02 369.82h30v40h-30z" fill="#b5e2ba"/><path d="m150.02 158.52h-30v1.35 52.95h30v-52.95z" fill="#b5e2ba"/><path d="m120.02 212.82h30v157h-30z" fill="#95bc99"/><path d="m159.74 59.49h-30a30 30 0 0 0 -30 30v69.03h30v-69.03a30 30 0 0 1 30-30z" fill="#95bc99"/><path d="m120.02 462.82v-23a30 30 0 0 1 30-30h-30a30 30 0 0 0 -30 30v23a30 30 0 0 0 30 30h30a30 30 0 0 1 -30-30z" fill="#9e9e46"/><path d="m131.92 409.82h38.16v83h-38.16z" fill="#5e5b2a"/><g fill="#284268"><path d="m74.661 374.5h39.356v29.83a36.052 36.052 0 0 0 -30 35.491v23a36.041 36.041 0 0 0 36 36h272.644a36.041 36.041 0 0 0 36-36v-23a36.052 36.052 0 0 0 -30-35.491v-29.83h38.678a26.029 26.029 0 0 0 26-26v-97.332a6 6 0 0 0 -6-6h-58.678v-80.647h14.272a6 6 0 0 0 6-6v-69.03a36.041 36.041 0 0 0 -36-36h-66.9v-22.312a18.021 18.021 0 0 0 -18-18h-88.348a18.021 18.021 0 0 0 -18 18v22.312h-61.941a36.041 36.041 0 0 0 -36 36v69.03a6 6 0 0 0 6 6h14.273v80.647h-59.356a6 6 0 0 0 -6 6v97.332a26.029 26.029 0 0 0 26 26zm72.683-183.3h41.99a6 6 0 0 0 6-6v-20.679h122.01v20.679a6 6 0 0 0 6 6h41.99a6 6 0 0 0 6-6v-20.679h15.327v42.3h-260.644v-42.3h15.327v20.679a6 6 0 0 0 6 6zm6-12v-40.357h29.99v40.357zm176 0v-40.357h29.99v40.357zm57.317 39.623v145h-57.174v-58.976a26.029 26.029 0 0 0 -26-26h-94.974a26.029 26.029 0 0 0 -26 26v58.976h-56.5v-145zm0 157v28h-57.174v-28zm-148.656 2.857h35.995a6 6 0 0 0 6-6v-21.833h37.492v52.974h-122.979v-52.974h37.492v21.833a6 6 0 0 0 6 6zm6-12v-34.358h23.995v34.358zm35.995-27.833v-12.525a6 6 0 0 0 -6-6h-35.99a6 6 0 0 0 -6 6v12.525h-37.497v-34a14.015 14.015 0 0 1 14-14h94.974a14.015 14.015 0 0 1 14 14v34zm-97.482 36.976v28h-56.5v-28zm-18.432 111h-26.167v-71h26.162zm171.838 0h-159.843v-71h159.838zm38.162 0h-26.167v-71h26.162zm42.58-47v23a24.027 24.027 0 0 1 -24 24h-6.58v-71h6.58a24.027 24.027 0 0 1 23.995 23.998zm34.678-91.32a14.015 14.015 0 0 1 -14 14h-38.683v-68h52.678zm0-91.333v25.33h-52.683v-25.332zm-247.659-225.991a6.007 6.007 0 0 1 6-6h88.352a6.007 6.007 0 0 1 6 6v22.312h-100.352zm-97.941 121.342v-63.03a24.027 24.027 0 0 1 24-24h253.189a24.027 24.027 0 0 1 24 24v63.03h-35.6v-19.678a6 6 0 0 0 -6-6h-41.99a6 6 0 0 0 -6 6v19.678h-122.009v-19.678a6 6 0 0 0 -6-6h-41.99a6 6 0 0 0 -6 6v19.678zm14.273 263.3h5.9v71h-5.9a24.027 24.027 0 0 1 -24-24v-23a24.027 24.027 0 0 1 24-24zm-59.356-158.653h53.356v25.332h-53.356zm0 37.333h53.356v68h-39.356a14.015 14.015 0 0 1 -14-14z"/><path d="m148.169 253a6 6 0 0 0 6-6v-6.876a6 6 0 0 0 -12 0v6.876a6 6 0 0 0 6 6z"/><path d="m148.169 342.473a6 6 0 0 0 6-6v-70.279a6 6 0 0 0 -12 0v70.279a6 6 0 0 0 6 6z"/></g></svg>