<svg id="Layer_1" height="512" viewBox="0 0 512 512" width="512" xmlns="http://www.w3.org/2000/svg" data-name="Layer 1"><path d="m112.23 91.52-16.04 2.39a10.372 10.372 0 0 0 -3.8 19.16l1.49.9a10.311 10.311 0 0 1 4.98 7.73 10.377 10.377 0 0 0 19.12 4.31l6.95-11.16z" fill="#d8776a"/><path d="m416.23 98.54-18.35-1.63-12.42 21.69 9.51 12.88a9.006 9.006 0 0 0 7.35 3.77 9.2 9.2 0 0 0 9.33-9.09 9.262 9.262 0 0 1 4.1-7.51l4.8-3.21a9.25 9.25 0 0 0 -4.32-16.9z" fill="#d8776a"/><path d="m285.57 472.26a28.735 28.735 0 0 1 -28.74 29.08h-1.66a28.737 28.737 0 0 1 -28.74-28.74v-12.25h57.48l1.5-.02z" fill="#a2d4a8"/><path d="m284.44 388.15.97 72.18-1.5.02h-57.48v-72.19h57.48z" fill="#fbe08b"/><path d="m283.91 349.16h-57.48v39h57.48l.53-.01z" fill="#a2d4a8"/><path d="m246.43 472.6v-12.25h-20v12.25a28.737 28.737 0 0 0 28.74 28.74h1.66a28.7 28.7 0 0 0 9.171-1.5 28.743 28.743 0 0 1 -19.571-27.24z" fill="#8bb790"/><path d="m226.43 388.16h20v72.19h-20z" fill="#e8cf87"/><path d="m226.43 349.16h20v39h-20z" fill="#8bb790"/><path d="m201.31 91.47q-4.305 2.07-8.47 4.54a117.688 117.688 0 0 0 -21.99 16.69 34.517 34.517 0 0 1 -45.72 1.9 35.961 35.961 0 0 1 -3.09-2.85 34.524 34.524 0 0 1 .95-48.8c74.5-71.68 193.43-69.38 265.11 5.13a34.519 34.519 0 0 1 -.95 48.81c-.58.56-1.18 1.1-1.79 1.59a34.5 34.5 0 0 1 -47.02-2.53 117.76 117.76 0 0 0 -17.5-14.97 112.978 112.978 0 0 0 -10.39-6.49 118.939 118.939 0 0 0 -109.14-3.02z" fill="#d05458"/><path d="m113.893 97.8a34.308 34.308 0 0 1 9.1-14.849c74.5-71.68 193.43-69.38 265.11 5.13a34.322 34.322 0 0 1 8.154 13.919 34.447 34.447 0 0 0 -8.157-33.92c-71.68-74.51-190.61-76.81-265.11-5.13a34.393 34.393 0 0 0 -9.1 34.849z" fill="#a54652"/><path d="m324.81 120.52-3.97-19.54a112.978 112.978 0 0 0 -10.39-6.49l-5.47 27.44a135.808 135.808 0 0 0 -2.63 26.61v29.63a46.406 46.406 0 0 1 -47.25 46.34c-25.37-.48-45.45-21.74-45.45-47.12v-29.4a136.084 136.084 0 0 0 -2.42-25.55l-5.92-30.97q-4.305 2.07-8.47 4.54l.08.13-5.5 23.88a136.081 136.081 0 0 0 -3.47 30.56v26.67c0 34.99 24.66 64.88 57.92 71.56l-.01.04v100.31h25v-99.36l-.05-.39a72.165 72.165 0 0 0 61.24-71.24v-28.13a136.295 136.295 0 0 0 -3.24-29.52z" fill="#6594b4"/><g fill="#284268"><path d="m89.312 118.224 1.489.891a4.4 4.4 0 0 1 2.1 3.261 16.183 16.183 0 0 0 12.667 14.129 16.855 16.855 0 0 0 3.713.417 16.151 16.151 0 0 0 13.794-7.739l3.82-6.139a40.586 40.586 0 0 0 48.112-6.019 113.149 113.149 0 0 1 8.714-7.568l-2.115 9.214a142.406 142.406 0 0 0 -3.606 31.911v26.666a79.153 79.153 0 0 0 21.736 54.658 77.272 77.272 0 0 0 36.264 21.683v22.411a6 6 0 0 0 12 0v-20.21c1.7.174 3.416.314 5.143.376.966.035 2 .052 2.961.052 1.618 0 2.9-.067 4.9-.164v86.946h-13.004v-27a6 6 0 0 0 -12 0v27h-9.574a6.515 6.515 0 0 0 -6.426 6.16v123.44c0 19.157 16.011 34.4 35.168 34.4h1.664a34.455 34.455 0 0 0 34.739-34.9l-1.662-123.142a6.031 6.031 0 0 0 -6-5.956h-10.909v-88.621a78.065 78.065 0 0 0 61-76.214v-28.125a142.319 142.319 0 0 0 -3.345-30.772l-.631-3.114q2.035 1.916 4 3.95a40.57 40.57 0 0 0 50.019 6.664l6.105 8.271a15.031 15.031 0 0 0 12.156 6.218 15.616 15.616 0 0 0 4.741-.746 15.05 15.05 0 0 0 10.611-14.243 3.249 3.249 0 0 1 1.44-2.636l4.8-3.212a15.245 15.245 0 0 0 -7.125-27.854l-13.038-1.163a40.224 40.224 0 0 0 -11.3-27.482 193.711 193.711 0 0 0 -273.6-5.3 40.371 40.371 0 0 0 -12.371 27.694l-11.162 1.659a16.373 16.373 0 0 0 -5.992 30.248zm312.83-14.913 13.556 1.21a3.244 3.244 0 0 1 1.517 5.929l-4.8 3.213a15.249 15.249 0 0 0 -6.762 12.385 3.245 3.245 0 0 1 -5.856 1.867l-6.482-8.782a40.138 40.138 0 0 0 8.827-15.822zm-122.57 368.762a22.784 22.784 0 0 1 -6.566 16.343 22.423 22.423 0 0 1 -16.174 6.584h-1.664c-12.54 0-23.168-9.862-23.168-22.4v-6.6h47.491zm-.243-18.073h-47.329v-60h46.517zm-1.339-99 .364 27h-46.354v-27zm44.01-176.833a65.775 65.775 0 0 1 -113.557 45.488 67.193 67.193 0 0 1 -18.443-46.407v-26.666a130.428 130.428 0 0 1 3.295-29.218l4.167-18.149 4.057 20.35a130.777 130.777 0 0 1 2.481 24.429v29.4c0 28.753 22.855 52.582 51.166 53.119.342.007.594.01.934.01a52.035 52.035 0 0 0 51.9-52.356v-29.629a130.646 130.646 0 0 1 2.686-25.44l3.89-19.124c.259.169.515.345.772.517l3.54 17.221c.007.036.011.071.019.106a130.354 130.354 0 0 1 3.093 28.224zm-108.7-56.854-5.116-26.4a113.027 113.027 0 0 1 95.475 2.766l-4.742 23.07a142.781 142.781 0 0 0 -2.917 27.789v29.629a40.1 40.1 0 0 1 -40.693 40.343c-21.819-.41-39.307-18.861-39.307-41.121v-29.4a142.78 142.78 0 0 0 -2.7-26.676zm-86.155-54.043a181.709 181.709 0 0 1 256.629 4.973 28.519 28.519 0 1 1 -41.106 39.544 124.6 124.6 0 0 0 -175.98-3.411 28.519 28.519 0 1 1 -39.543-41.106zm-33.72 36.051a4.26 4.26 0 0 1 3.646-3.476l10.7-1.595a40.254 40.254 0 0 0 9.631 17.328l-4.52 7.265a4.375 4.375 0 0 1 -8.061-1.818 16.472 16.472 0 0 0 -7.866-12.209l-1.489-.891a4.261 4.261 0 0 1 -2.041-4.604z"/><path d="m170.161 55.12a5.978 5.978 0 0 0 2.629-.611 182.31 182.31 0 0 1 89.091-18.143 6 6 0 1 0 .609-11.985 194.269 194.269 0 0 0 -94.968 19.347 6 6 0 0 0 2.639 11.392z"/><path d="m149.8 66.713a5.972 5.972 0 0 0 3.286-.984c1.988-1.3 4.031-2.588 6.073-3.815a6 6 0 1 0 -6.178-10.287c-2.181 1.308-4.358 2.673-6.481 4.073a6 6 0 0 0 3.3 11.017z"/></g></svg>