<svg id="Capa_1" enable-background="new 0 0 510.309 510.309" height="512" viewBox="0 0 510.309 510.309" width="512" xmlns="http://www.w3.org/2000/svg"><g><g><path d="m363.571 371.08c-.012 22.537-16.593 41.631-38.906 44.821-9.667 1.382-19.548 2.098-29.598 2.098h-79.827c-10.474 0-20.766-.778-30.823-2.277-22.216-3.311-38.681-22.35-38.681-44.811v-.183-54.975h217.834v55.327z" fill="#e4e1e5"/><path d="m502.809 165.596v9.319c0 114.732-93.009 207.741-207.741 207.741h-79.827c-114.732-.001-207.741-93.009-207.741-207.741l1.187-9.829 74.471-31.999h351.548z" fill="#efedee"/><path d="m78.574 152.836 1.298-11.435 18.194-8.315h-14.908l-74.471 32-1.187 9.829c0 114.732 93.009 207.741 207.741 207.741h20.098c-90.999-31.547-156.765-122.508-156.765-229.82z" fill="#e4e1e5"/><path d="m256.376 92.306c-136.78 0-247.65 32.81-247.65 73.29 0 7.36 3.67 14.46 10.49 21.16.093.092.195.182.289.274l87.397 15.798 246.72 8.747 110.763-24.818 26.166 3.001c.696-.681 4.275-4.292 4.905-4.982 5.59-6.12 8.57-12.55 8.57-19.18.001-40.48-110.87-73.29-247.65-73.29z" fill="#efedee"/><g><path d="m169.474 96.95c-93.905 10.415-160.747 37.217-160.747 68.646 0 7.36 3.67 14.46 10.49 21.16.093.092 3.132 2.855 3.226 2.946l62.275 9.115c1.781-42.024 34.818-79.047 84.756-101.867z" fill="#e4e1e5"/><g id="XMLID_162_"><g><path d="m489.644 185.558c1.805.594 2.3 2.9.911 4.197-31.64 29.546-124.642 49.132-235.379 49.132-108.232 0-199.123-20.55-232.733-49.184-1.669-1.422-1.461-4.072.429-5.185 43.392-25.55 131.643-43.07 234.874-43.07 93.211-.001 209.542 36.752 231.898 44.11z" fill="#f4bb87"/></g></g><g fill="#f2ab6a"><path d="m353.407 197.947-4.476-16.03c-.831-2.974-3.857-4.767-6.864-4.065l-23.425 5.462c-3.184.742-5.115 3.98-4.254 7.135l3.155 11.562c.707 2.592 3.111 4.352 5.795 4.244l24.745-.994c3.719-.151 6.325-3.73 5.324-7.314z"/><path d="m216.652 179.686v15.228c0 4.371 3.543 7.914 7.914 7.914h17.164c4.371 0 7.914-3.543 7.914-7.914v-16.317c0-4.568-3.856-8.187-8.415-7.898l-17.164 1.089c-4.168.265-7.413 3.722-7.413 7.898z"/></g></g><g><path d="m84.638 202.397c0-15.688 4.358-30.723 12.336-44.638-30.906 7.132-56.313 16.276-74.137 26.779-1.867 1.1-2.084 3.724-.435 5.13 13.219 11.279 35.33 21.303 63.881 29.314-1.085-5.43-1.645-10.966-1.645-16.585z" fill="#f2ab6a"/></g></g><g><path d="m462.945 117.503c-28.021-12.167-66.861-21.539-112.324-27.101-4.102-.502-7.852 2.421-8.355 6.534-.503 4.111 2.422 7.852 6.533 8.355 44.052 5.39 81.456 14.371 108.172 25.971 24.723 10.736 38.338 22.929 38.338 34.334 0 3.086-1.055 6.261-3.073 9.462-47.78-25.453-136.531-41.113-234.509-41.113-51.819 0-102.094 4.412-145.389 12.758-39.26 7.569-71.196 18.054-92.954 30.469-2.883-3.865-4.384-7.747-4.384-11.576 0-31.116 98.628-65.786 240.154-65.786 21.031 0 41.931.791 62.118 2.349 4.128.314 7.735-2.771 8.055-6.9.319-4.13-2.771-7.736-6.9-8.055-20.569-1.589-41.857-2.394-63.272-2.394-66.852 0-129.799 7.732-177.246 21.773-50.969 15.083-77.909 35.489-77.909 59.013v9.318c0 61.057 26.095 119.477 71.593 160.28 1.433 1.284 3.222 1.917 5.005 1.917 2.057 0 4.105-.841 5.587-2.493 2.765-3.083 2.507-7.825-.576-10.591-37.261-33.416-60.525-79.53-65.565-128.836 13.006 11.175 33.779 21.106 61.865 29.417 47.447 14.041 110.395 21.773 177.246 21.773 18.924 0 37.8-.63 56.103-1.873 4.133-.281 7.256-3.858 6.975-7.991-.28-4.133-3.861-7.248-7.99-6.975-17.967 1.22-36.5 1.838-55.087 1.838-107.852 0-190.78-20.135-224.143-43.487 45.315-23.838 132.247-38.95 226.715-38.95 91.631 0 177.385 14.492 223.555 37.348-6.638 5.027-15.493 9.939-26.302 14.487-28.08 11.817-67.141 20.778-112.961 25.915-4.116.461-7.079 4.172-6.617 8.289.43 3.833 3.676 6.665 7.443 6.665.279 0 .562-.015.846-.047 59.49-6.668 121.985-21.892 150.599-46.424-10.191 100.934-95.648 179.979-199.223 179.979h-79.828c-38.935 0-76.688-11.193-109.181-32.37-3.47-2.261-8.117-1.283-10.378 2.188-2.262 3.47-1.282 8.117 2.188 10.378 12.849 8.375 26.465 15.291 40.625 20.697 1.058 10.804 5.425 21.073 12.575 29.351 8.269 9.573 19.719 15.874 32.242 17.74 10.5 1.565 21.243 2.359 31.929 2.359h79.826c10.257 0 20.572-.731 30.659-2.174 24.025-3.435 42.557-23.099 45.049-46.817 28.383-10.644 54.414-27.32 76.49-49.395 40.654-40.654 63.043-94.706 63.043-152.198v-9.318c.002-22.75-25.755-38.71-47.362-48.093zm-139.341 290.973c-9.386 1.342-18.986 2.022-28.536 2.022h-79.826c-9.948 0-19.946-.738-29.718-2.195-15.063-2.245-26.794-12.881-30.797-26.793 19.512 5.707 39.858 8.644 60.514 8.644h79.828c20.377 0 40.318-2.826 59.387-8.268-4.173 13.761-16.056 24.474-30.852 26.59z"/><path d="m93.411 190.128c-1.027 4.013 1.394 8.098 5.406 9.125 26.876 6.877 59.331 11.96 93.854 14.698.201.016.402.024.601.024 3.873 0 7.157-2.98 7.469-6.908.327-4.129-2.754-7.742-6.884-8.069-33.683-2.671-65.262-7.608-91.321-14.277-4.016-1.025-8.098 1.395-9.125 5.407z"/><path d="m417.725 195.95c.604.149 1.208.221 1.804.221 3.369 0 6.432-2.287 7.275-5.704.993-4.021-1.462-8.086-5.483-9.079-8.521-2.104-17.562-4.053-26.872-5.793-4.072-.765-7.989 1.921-8.75 5.994-.762 4.071 1.923 7.989 5.994 8.75 9.029 1.687 17.787 3.576 26.032 5.611z"/><path d="m358.58 207.304c2.4-3.299 3.148-7.445 2.051-11.375l-4.476-16.029c-1.915-6.863-8.852-10.97-15.791-9.354l-23.425 5.463c-3.491.814-6.547 3.047-8.383 6.127-1.836 3.079-2.348 6.829-1.403 10.285l3.154 11.563c1.59 5.821 6.8 9.773 12.784 9.773.182 0 .365-.003.548-.011l24.745-.994c4.079-.162 7.795-2.148 10.196-5.448zm-34.165-8.599-2.317-8.495 20.057-4.677 3.44 12.321z"/><path d="m240.754 163.214-17.165 1.089c-8.095.514-14.437 7.271-14.437 15.383v15.228c0 8.5 6.914 15.414 15.413 15.414h17.164c8.499 0 15.414-6.915 15.414-15.414v-16.317c0-4.241-1.773-8.337-4.866-11.24-3.091-2.901-7.292-4.408-11.523-4.143zm1.39 31.7c0 .229-.186.414-.414.414h-17.164c-.228 0-.413-.186-.413-.414v-15.228c0-.218.17-.399.387-.413l17.165-1.089c.011 0 .023-.001.039-.001.063 0 .165.014.27.113.131.123.131.248.131.302v16.316z"/><path d="m272.897 200.645c-4.143 0-7.5 3.358-7.5 7.5s3.357 7.5 7.5 7.5h4.375c4.143 0 7.5-3.358 7.5-7.5s-3.357-7.5-7.5-7.5z"/><path d="m292.898 173.096c4.143 0 7.5-3.358 7.5-7.5s-3.357-7.5-7.5-7.5h-5.313c-4.143 0-7.5 3.358-7.5 7.5s3.357 7.5 7.5 7.5z"/><path d="m165.206 181.214c4.143 0 7.5-3.358 7.5-7.5s-3.357-7.5-7.5-7.5h-6.875c-4.143 0-7.5 3.358-7.5 7.5s3.357 7.5 7.5 7.5z"/></g></g></svg>