<svg id="Layer_1" height="512" viewBox="0 0 512 512" width="512" xmlns="http://www.w3.org/2000/svg" data-name="Layer 1"><path d="m389.227 305.986a83.137 83.137 0 0 1 -20.28 2.49h-155.736a83.384 83.384 0 0 1 -83.428-83.437v-.89h322.6v.89a83.462 83.462 0 0 1 -63.156 80.947z" fill="#486c8b"/><path d="m129.783 180.34h322.602v43.809h-322.602z" fill="#5784a0"/><path d="m204.581 383.674-8.819 31.29-21.3 75.518h-33.379l51.859-184.482v-.01a83.1 83.1 0 0 0 20.269 2.49h12.58z" fill="#486c8b"/><path d="m159.782 225.038v-.889h-30v.889a83.384 83.384 0 0 0 83.428 83.438h30a83.384 83.384 0 0 1 -83.428-83.438z" fill="#598baa"/><path d="m129.783 180.34h29.999v43.809h-29.999z" fill="#71a3bc"/><path d="m192.942 305.986v.014l-51.859 184.482h20l51.166-182.02a83.059 83.059 0 0 1 -19.307-2.476z" fill="#598baa"/><path d="m377.567 383.674-21.167-75.048v-.15h12.55a83.137 83.137 0 0 0 20.28-2.49l51.848 184.5h-33.378l-21.329-75.628z" fill="#486c8b"/><path d="m368.227 100.542h25.039v53.379h-25.039z" fill="#4aa853"/><path d="m386.367 414.854-.38.11h-190.225l8.819-31.29h172.986z" fill="#5784a0"/><path d="m305.659 100.542h25.029v53.379h-25.029z" fill="#a2d4a8"/><path d="m243.07 100.542h25.039v53.379h-25.039z" fill="#f94730"/><path d="m181.042 100.542h25.029v53.379h-25.029z" fill="#ea836f"/><path d="m88.824 112.621h55.709v29.209h-55.709z" fill="#4d7695"/><path d="m88.824 112.621v29.21h-14.6a14.605 14.605 0 1 1 0-29.21z" fill="#598baa"/><path d="m349.728 108.731a18.5 18.5 0 1 1 -18.49 18.5 18.5 18.5 0 0 1 18.49-18.5z" fill="#fad076"/><circle cx="287.159" cy="127.231" fill="#fad076" r="18.5"/><circle cx="224.571" cy="127.231" fill="#fad076" r="18.5"/><g fill="#284268"><path d="m452.385 175h-322.61a5.485 5.485 0 0 0 -5.775 5.6v44.7a89.492 89.492 0 0 0 61.665 85.054l-50.3 178.775a6.251 6.251 0 0 0 .966 5.37 6.067 6.067 0 0 0 4.754 2.5h33.375a6.222 6.222 0 0 0 5.775-4.609l20.065-71.39h181.557l20.072 71.391a6.22 6.22 0 0 0 5.771 4.609h33.375a6.18 6.18 0 0 0 5.776-7.808l-50.432-178.808a89.46 89.46 0 0 0 61.581-85.084v-44.7a5.355 5.355 0 0 0 -5.615-5.6zm-282.47 310h-20.915l48.19-171.448a89.524 89.524 0 0 0 16.022 1.448h4.653zm60.418-170h121.484l17.828 63h-157.137zm-26.65 94 5.44-19h163.908l5.441 19zm229.476 76h-20.914l-47.96-170h4.664a89.67 89.67 0 0 0 16.025-1.448zm-64.21-182h-155.737c-41.12 0-74.842-32.482-77.281-73h31.069a6 6 0 0 0 0-12h-31v-31h310v31h-239a6 6 0 0 0 0 12h239.229c-2.439 40.518-36.161 73-77.28 73z"/><path d="m183.457 252a6 6 0 0 0 6 6h83.613a6 6 0 0 0 0-12h-83.613a6 6 0 0 0 -6 6z"/><path d="m169.07 246h-4.807a6 6 0 0 0 0 12h4.807a6 6 0 0 0 0-12z"/><path d="m151 142.087v-9.087h24v21.177a5.887 5.887 0 0 0 6.041 5.823h25.033a5.789 5.789 0 0 0 5.926-5.823v-5.631a24.437 24.437 0 0 0 25 0v5.631a5.915 5.915 0 0 0 6.073 5.823h25.033a5.762 5.762 0 0 0 5.894-5.823v-5.977a25.7 25.7 0 0 0 13.276 3.781 26.13 26.13 0 0 0 12.724-3.435v5.631a5.567 5.567 0 0 0 5.656 5.823h25.034c3.313 0 6.31-2.51 6.31-5.823v-5.969c3 2.389 7.98 3.777 12.773 3.777 4.563 0 9.227-1.258 12.227-3.439v5.631a6.057 6.057 0 0 0 6.234 5.823h25.033a5.629 5.629 0 0 0 5.733-5.823v-21.177h22.262a6 6 0 0 0 0-12h-22.262v-20.2a5.6 5.6 0 0 0 -5.733-5.8h-25.033a6.033 6.033 0 0 0 -6.234 5.8v5.631c-3-2.181-7.664-3.439-12.227-3.439-4.793 0-9.773 1.388-12.773 3.777v-5.969c0-3.314-3-5.8-6.31-5.8h-25.034a5.543 5.543 0 0 0 -5.656 5.8v5.631a26.13 26.13 0 0 0 -12.724-3.439 25.7 25.7 0 0 0 -13.276 3.776v-5.968a5.739 5.739 0 0 0 -5.894-5.8h-25.033a5.891 5.891 0 0 0 -6.073 5.8v5.631a24.437 24.437 0 0 0 -25 0v-5.631a5.765 5.765 0 0 0 -5.926-5.8h-25.033a5.863 5.863 0 0 0 -6.041 5.8v20.2h-24v-8.116c0-3.313-3.155-5.884-6.469-5.884h-70.315a20.5 20.5 0 1 0 0 41h70.315c3.314 0 6.469-2.6 6.469-5.913zm223-35.087h13v41h-13zm-24.266 7.987a12.5 12.5 0 1 1 -12.5 12.5 12.513 12.513 0 0 1 12.5-12.5zm-37.734-7.987h13v41h-13zm-24.843 7.987a12.5 12.5 0 1 1 -12.5 12.5 12.513 12.513 0 0 1 12.5-12.5zm-38.157-7.987h13v41h-13zm-24.427 7.987a12.5 12.5 0 1 1 -12.5 12.5 12.514 12.514 0 0 1 12.5-12.5zm-37.573-7.987h13v41h-13zm-104 29h-8.784a8.5 8.5 0 1 1 0-17h8.784zm56 0h-44v-17h44z"/><path d="m212.869 75.6a6 6 0 0 0 12 0c0-4.381 1.826-6.283 4.85-9.433 3.458-3.6 8.194-8.536 8.194-17.743s-4.736-14.141-8.194-17.743c-3.024-3.15-4.85-5.052-4.85-9.432a6 6 0 1 0 -12 0c0 9.208 4.736 14.141 8.194 17.743 3.024 3.15 4.85 5.052 4.85 9.432s-1.826 6.282-4.851 9.432c-3.457 3.601-8.193 8.534-8.193 17.744z"/><path d="m255.812 75.6a6 6 0 1 0 12 0c0-4.381 1.826-6.283 4.85-9.433 3.458-3.6 8.194-8.536 8.194-17.743s-4.736-14.141-8.194-17.743c-3.024-3.15-4.85-5.052-4.85-9.432a6 6 0 0 0 -12 0c0 9.208 4.736 14.141 8.193 17.743 3.025 3.15 4.851 5.052 4.851 9.432s-1.826 6.282-4.851 9.432c-3.458 3.601-8.193 8.534-8.193 17.744z"/><path d="m297.712 75.6a6 6 0 1 0 12 0c0-4.381 1.826-6.283 4.85-9.433 3.458-3.6 8.193-8.536 8.193-17.743s-4.735-14.141-8.193-17.743c-3.024-3.15-4.85-5.052-4.85-9.432a6 6 0 0 0 -12 0c0 9.208 4.736 14.141 8.193 17.743 3.025 3.15 4.85 5.052 4.85 9.432s-1.825 6.282-4.85 9.432c-3.457 3.601-8.193 8.534-8.193 17.744z"/><path d="m340.655 75.6a6 6 0 1 0 12 0c0-4.381 1.825-6.283 4.85-9.433 3.458-3.6 8.193-8.536 8.193-17.743s-4.735-14.141-8.193-17.743c-3.025-3.15-4.85-5.052-4.85-9.432a6 6 0 0 0 -12 0c0 9.208 4.735 14.141 8.193 17.743 3.025 3.15 4.85 5.052 4.85 9.432s-1.825 6.282-4.85 9.432c-3.458 3.601-8.193 8.534-8.193 17.744z"/></g></svg>