<svg id="Capa_1" enable-background="new 0 0 510.309 510.309" height="512" viewBox="0 0 510.309 510.309" width="512" xmlns="http://www.w3.org/2000/svg"><g><g><path d="m363.571 380.082c-.012 22.537-16.593 41.631-38.906 44.821-9.667 1.382-19.548 2.098-29.598 2.098h-79.827c-10.474 0-20.766-.778-30.823-2.277-22.216-3.311-38.681-22.35-38.681-44.811v-.183-51.856h217.834v52.208z" fill="#e4e1e5"/><path d="m502.809 174.599v9.319c0 114.732-93.009 207.741-207.741 207.741h-79.827c-114.732-.001-207.741-93.01-207.741-207.742l-.49-9.324 161.917-14.386h255.313z" fill="#f8f7f8"/><path d="m86.934 175.69-.398-8.163-79.526 7.066.49 9.324c0 114.732 93.009 207.741 207.741 207.741h7.628c-79.651-34.227-135.935-118.018-135.935-215.968z" fill="#efedee"/><path d="m61.093 202.16 348.615 13.229 84.527-21.608c5.51-6.084 8.076-12.604 8.076-19.189 0-40.48-110.87-73.29-247.65-73.29s-247.651 32.811-247.651 73.291c0 7.36 3.67 14.46 10.49 21.16.043.042.078.085.121.127z" fill="#e4e1e5"/><g><g><g id="XMLID_182_"><g><path d="m494.234 193.781c-28.49 31.17-124.73 54.145-239.08 54.1-111.902-.044-206.851-21.851-237.533-52.002 10.58-6.75 24.693-13.098 41.023-18.638l144.9-18.7 141.98-2.1 92.04 14.92c23.14 6.37 42.42 13.97 56.67 22.42z" fill="#be8f7d"/></g></g></g><g><path d="m437.564 156.311v33.59c0 16.14-9.047 30.7-23.487 40.92-21.46 5.32-45.992 9.589-72.722 12.519-30-7.15-51.771-28.378-51.771-53.438v-33.59h147.98z" fill="#b37e67"/></g><ellipse cx="363.571" cy="156.308" fill="#c9a291" rx="73.99" ry="56.003"/><path d="m315.949 154.348c0-25.588 22.672-47.17 53.641-53.86-1.99-.122-3.987-.183-6.018-.183-40.864 0-73.99 25.073-73.99 56.003s33.126 56.003 73.99 56.003c7.057 0 13.888-.749 20.353-2.145-38.042-2.325-67.976-26.426-67.976-55.818z" fill="#be8f7d"/><ellipse cx="356.238" cy="156.308" fill="#fbe88c" rx="35.941" ry="28.275"/><g id="XMLID_183_"><g><path d="m224.944 205.911v41.42c-8.3-.29-16.48-.71-24.51-1.25-40.88-2.72-77.758-8.293-108.208-16.183l-.192-.157c-8.89-7.71-16.89-17.39-23.32-28.74-13.06-23.08-16.86-48.19-12.23-68.96 3.68-16.49 12.66-30.25 26.52-38.1 25.57-14.48 59.84-4.35 84.32 22.36z" fill="#c9a291"/></g><path d="m94.846 210.084c-13.06-23.08-16.86-48.19-12.23-68.96 3.68-16.49 12.66-30.25 26.52-38.1 10.342-5.856 22.102-7.701 34.067-6.038-20.099-11.258-42.281-13.191-60.199-3.045-13.86 7.85-22.84 21.61-26.52 38.1-4.63 20.77-.83 45.88 12.23 68.96 6.43 11.35 14.43 21.03 23.32 28.74l.192.157c6.904 1.789 14.155 3.452 21.692 4.997-7.189-6.987-13.686-15.304-19.072-24.811z" fill="#be8f7d"/><ellipse cx="129.714" cy="170.925" fill="#fbe88c" rx="40.356" ry="49.796" transform="matrix(.889 -.458 .458 .889 -63.885 78.401)"/><g><path d="m287.164 157.501c6.74 38.05-6.51 75.01-30.73 90.38-.43 0-.85 0-1.28 0-18.8 0-37.12-.62-54.72-1.8-20.18-12.05-36.37-36.12-41.63-65.82-8.31-46.83 13.69-89.89 49.14-96.17 35.45-6.29 70.91 26.58 79.22 73.41z" fill="#c9a291"/></g><path d="m185.118 185.586c-8.31-46.83 13.69-89.89 49.14-96.17 1.92-.341 3.832-.57 5.748-.685-10.157-4.793-21.105-6.584-32.062-4.64-35.45 6.28-57.45 49.34-49.14 96.17 5.26 29.7 21.45 53.77 41.63 65.82 6.584.441 13.268.804 20.041 1.086-17.214-12.987-30.655-35.03-35.357-61.581z" fill="#be8f7d"/></g><ellipse cx="224.944" cy="179.952" fill="#fbe88c" rx="35.414" ry="45.016" transform="matrix(.985 -.175 .175 .985 -27.966 42.042)"/></g></g><g><path d="m484.445 137.777c-14.775-9.532-35.436-17.876-61.399-24.816-14.881-12.391-36.03-20.157-59.475-20.157-10.827 0-21.159 1.668-30.619 4.669-22.712-2.199-46.403-3.424-70.455-3.629-.458-.004-.918-.005-1.377-.008-16.367-14.396-35.636-20.475-54.485-17.132-16.334 2.897-30.514 12.563-40.792 27.542-8.841-8.075-18.715-14.446-28.98-18.631-3.834-1.563-8.212.277-9.777 4.113-1.564 3.835.277 8.213 4.113 9.777 9.629 3.927 18.915 10.188 27.096 18.24-2.174 4.854-3.955 9.948-5.324 15.228-15.016-12.843-34.385-16.267-49.435-7.746-20.591 11.66-25.735 41.645-11.467 66.843 6.75 11.92 16.833 21.095 28.392 25.832 5.604 2.297 11.246 3.441 16.706 3.441 6.411 0 12.572-1.578 18.121-4.72 2.173-1.23 4.176-2.675 6.022-4.307 4.388 9.095 9.872 17.332 16.245 24.38-31.044-3.059-58.642-7.86-81.89-13.785-7.983-7.186-14.857-15.781-20.422-25.608-10.534-18.603-14.967-39.097-12.483-57.707 2.38-17.836 10.882-31.73 23.94-39.124 4.984-2.822 10.505-4.604 16.411-5.296 4.114-.482 7.058-4.208 6.576-8.322s-4.21-7.057-8.322-6.576c-7.902.927-15.323 3.33-22.056 7.142-13.938 7.892-23.895 21.057-28.795 37.75-23.347 9.694-50.514 26.008-50.514 49.428v9.319c0 64.901 28.869 125.696 79.205 166.796 1.393 1.137 3.071 1.69 4.739 1.69 2.174 0 4.331-.941 5.814-2.756 2.62-3.208 2.143-7.933-1.066-10.553-41.547-33.924-67.358-82.272-72.658-134.908 13.006 11.179 33.781 21.112 61.874 29.425 47.447 14.041 110.395 21.773 177.246 21.773s129.799-7.732 177.246-21.773c28.104-8.316 48.885-18.254 61.889-29.438-10.186 100.936-95.645 179.985-199.222 179.985h-79.827c-35.648 0-70.659-9.496-101.248-27.461-3.571-2.097-8.167-.903-10.266 2.669-2.098 3.572-.903 8.168 2.669 10.266 10.277 6.036 21.018 11.182 32.097 15.406 1.056 10.808 5.424 21.083 12.576 29.364 8.269 9.573 19.719 15.874 32.242 17.74 10.499 1.565 21.241 2.358 31.929 2.358h79.827c10.256 0 20.571-.731 30.659-2.173 24.025-3.435 42.556-23.099 45.049-46.817 28.383-10.644 54.415-27.32 76.49-49.395 40.653-40.654 63.042-94.706 63.042-152.198v-9.319c.003-13.36-8.699-25.748-25.861-36.821zm-160.841 279.702c-9.387 1.342-18.988 2.022-28.537 2.022h-79.827c-9.95 0-19.948-.738-29.717-2.194-15.072-2.247-26.809-12.893-30.805-26.818 19.558 5.72 39.941 8.67 60.521 8.67h79.827c20.378 0 40.318-2.826 59.388-8.268-4.171 13.759-16.053 24.472-30.85 26.588zm171.705-242.881c0 3.145-1.025 6.327-2.983 9.505-12.767-6.807-28.62-12.978-47.265-18.404v-9.391c0-7.977-1.915-15.608-5.377-22.648 34.812 11.91 55.625 26.943 55.625 40.938zm-50.248 6.751c14.025 4.27 26.191 8.959 36.355 14.013-9.832 7.404-24.65 14.524-43.673 20.832 4.757-8.174 7.318-17.132 7.318-26.295zm-30.806-56.384c.324.345.681.66 1.07.941 9.207 8.324 14.735 18.899 14.735 30.402 0 20.773-18.984 39.76-46.165 46.174-4.031.951-6.528 4.99-5.577 9.022s4.991 6.529 9.022 5.577c17.682-4.172 32.38-12.621 42.525-23.654-1.134 11.45-7.772 22.109-19.01 30.431-20.078 4.913-43.238 8.998-68.935 11.877-25.402-6.421-42.842-23.132-44.671-42.465 1.815 1.978 3.765 3.89 5.881 5.709 12.932 11.112 30.565 18.31 49.652 20.268.26.027.518.04.774.04 3.798 0 7.056-2.875 7.452-6.735.422-4.121-2.575-7.803-6.696-8.226-32.628-3.346-57.233-23.989-57.233-48.017 0-26.745 29.827-48.503 66.49-48.503 20.294-.002 38.481 6.671 50.686 17.159zm-124.952 91.263c4.983 8.605 12.384 16.215 21.663 22.285-11.588.794-23.581 1.352-35.948 1.64 5.933-6.821 10.74-14.928 14.285-23.925zm-1.4-83.446c-3.417-8.597-7.787-16.582-12.992-23.725 10.907.259 21.711.729 32.352 1.412-8.346 6.228-14.996 13.818-19.36 22.313zm-140.006 70.788c-6.188 3.504-13.911 3.664-21.748.452-8.46-3.467-15.928-10.337-21.028-19.343-10.193-18-7.588-38.815 5.805-46.399 11.59-6.563 27.913-1.119 38.809 12.942.056.072.12.134.178.203-.777 9.815-.302 19.97 1.503 30.147.922 5.2 2.176 10.274 3.722 15.188-1.921 2.885-4.35 5.173-7.241 6.81zm18.289-24.617c-7.569-42.683 11.751-81.926 43.068-87.479 31.314-5.554 62.952 24.654 70.521 67.336 6.004 33.855-5.25 67.301-27.367 81.334-.108.069-.196.155-.299.229-17.098-.06-33.559-.625-49.282-1.63-18.405-11.686-32.047-33.886-36.641-59.79zm-103.996 25.74c1.998 3.529 4.154 6.916 6.447 10.166-15.859-5.524-28.564-11.62-37.618-17.956 6.674-3.502 14.334-6.855 22.914-10.03 2.231 6.056 4.977 12.027 8.257 17.82zm-14.833-61.69c-.702 9.63.092 19.566 2.312 29.454-11.598 4.245-21.736 8.84-30.285 13.717-2.883-3.864-4.384-7.747-4.384-11.576 0-10.347 11.654-21.612 32.357-31.595z"/><path d="m356.238 192.082c23.953 0 43.44-16.048 43.44-35.774 0-19.727-19.487-35.775-43.44-35.775-23.954 0-43.441 16.048-43.441 35.775 0 19.726 19.488 35.774 43.441 35.774zm0-56.549c15.682 0 28.44 9.32 28.44 20.775s-12.758 20.774-28.44 20.774c-15.683 0-28.441-9.319-28.441-20.774s12.759-20.775 28.441-20.775z"/><path d="m267.199 172.459c-5.056-28.512-28.124-48.343-51.424-44.216-23.3 4.132-38.142 30.69-33.085 59.202 2.392 13.488 8.842 25.498 18.162 33.816 8.044 7.181 17.423 10.958 26.941 10.958 2.104 0 4.216-.185 6.321-.558 23.299-4.132 38.141-30.69 33.085-59.202zm-56.36 37.612c-6.821-6.089-11.573-15.054-13.38-25.245-3.612-20.368 5.779-39.125 20.935-41.813 15.154-2.689 30.423 11.697 34.036 32.065 3.612 20.369-5.779 39.126-20.935 41.813-7.003 1.24-14.337-1.18-20.656-6.82z"/></g></g></svg>