<svg id="Layer_1" height="512" viewBox="0 0 512 512" width="512" xmlns="http://www.w3.org/2000/svg" data-name="Layer 1"><circle cx="256" cy="256" fill="#fb6771" r="234.54"/><path d="m364.6 158.97-.35.79-7.82-17.54-17.94 6.87 6.88-17.94-17.55-7.81 17.55-7.82-6.88-17.94 17.94 6.88 7.82-17.55 7.81 17.55 17.95-6.88-6.88 17.94 17.54 7.82-17.54 7.81 6.88 17.94-17.95-6.87z" fill="#fff655"/><path d="m276.82 200.74 11.59 23.61-.04.05a106.324 106.324 0 0 0 -124.63-.34l11.45-23.32a56.585 56.585 0 0 1 50.63-31.67h.19a56.587 56.587 0 0 1 50.81 31.67z" fill="#7a8293"/><path d="m163.74 224.06a106.5 106.5 0 1 1 -44.41 86.53 105.987 105.987 0 0 1 44.41-86.53z" fill="#6d7486"/><path d="m61.46 256c0-122.792 94.373-223.532 214.54-233.683-6.6-.557-13.262-.857-20-.857-129.53 0-234.54 105.01-234.54 234.54s105.01 234.54 234.54 234.54c6.738 0 13.4-.3 20-.858-120.167-10.15-214.54-110.89-214.54-233.682z" fill="#e75163"/><path d="m226.07 177.63a56.555 56.555 0 0 1 14.938-6.531 56.563 56.563 0 0 0 -15-2.029h-.19a56.585 56.585 0 0 0 -50.63 31.67l-11.45 23.32a105.047 105.047 0 0 1 38.508-17.329l2.942-5.991a56.5 56.5 0 0 1 20.882-23.11z" fill="#8d94a0"/><path d="m149.33 310.59a106.269 106.269 0 0 1 91.494-105.429 106.538 106.538 0 0 0 -50.374 4.949 106.517 106.517 0 0 0 35.37 206.98 107.4 107.4 0 0 0 15-1.057 106.514 106.514 0 0 1 -91.49-105.443z" fill="#5b6272"/><g fill="#284268"><path d="m151.265 302.012a5.993 5.993 0 0 0 7.041-4.735 68.569 68.569 0 0 1 41.6-50.442 6 6 0 0 0 -4.525-11.114 80.532 80.532 0 0 0 -48.847 59.25 6 6 0 0 0 4.731 7.041z"/><path d="m214.411 242.653a6.048 6.048 0 0 0 .915-.07 69.613 69.613 0 0 1 10.5-.795 6 6 0 0 0 0-12 81.707 81.707 0 0 0 -12.311.933 6 6 0 0 0 .9 11.932z"/><path d="m256 15.463a240.537 240.537 0 0 0 -170.085 410.622 240.537 240.537 0 1 0 340.17-340.17 238.958 238.958 0 0 0 -170.085-70.452zm-228.537 240.537a228.536 228.536 0 0 1 385.837-165.786l-22.262 22.262-.272-.122 4.84-12.627a6 6 0 0 0 -7.75-7.75l-12.628 4.841-5.5-12.349a6 6 0 0 0 -10.961 0l-5.5 12.349-12.629-4.841a6 6 0 0 0 -7.75 7.75l4.841 12.627-12.349 5.5a6 6 0 0 0 0 10.962l12.349 5.5-4.841 12.628a6 6 0 0 0 7.75 7.75l12.629-4.841.121.272-35.13 35.13a20.862 20.862 0 0 1 -1.651-8.157v-27.478a48.392 48.392 0 1 0 -96.784 0v13.768a63.065 63.065 0 0 0 -50.023 34.712l-10.8 22a112.4 112.4 0 0 0 -27.432 151.847l-41.354 41.353a226.95 226.95 0 0 1 -62.751-157.3zm328.967-119.785a6 6 0 0 0 -2.146.4l-5.373 2.059 2.06-5.372a6 6 0 0 0 -3.161-7.629l-5.244-2.336 5.244-2.337a6 6 0 0 0 3.161-7.628l-2.06-5.372 5.373 2.06a6 6 0 0 0 7.628-3.162l2.336-5.243 2.336 5.243a6 6 0 0 0 7.628 3.162l5.373-2.06-2.06 5.373a6 6 0 0 0 3.162 7.627l1.264.563-19.475 19.475-.564-1.264a6 6 0 0 0 -5.482-3.559zm2.167 25.673v15.212a20.981 20.981 0 0 1 -32.657 17.445zm-166.155 53.879a100.268 100.268 0 0 1 86.068 9.239l-138.246 138.246a100.472 100.472 0 0 1 52.178-147.485zm-14.524-6.967 2.656-5.414a50.607 50.607 0 0 1 90.862 0l2.764 5.634a111.974 111.974 0 0 0 -96.282-.22zm110.55 23.222a100.476 100.476 0 1 1 -141.191 141.19zm1.383-18.352-7.642-15.571a63.064 63.064 0 0 0 -50.386-34.739v-13.74a36.392 36.392 0 1 1 72.784 0v27.48a32.791 32.791 0 0 0 4.758 17.05zm127.749 203.93a228.538 228.538 0 0 1 -318.9 4.185l40.049-40.049a112.465 112.465 0 1 0 158.244-158.245l20.366-20.365a32.968 32.968 0 0 0 53.241-26.026v-16.845l4.632-10.4 12.628 4.841a6 6 0 0 0 7.75-7.75l-4.84-12.628 12.348-5.5a6 6 0 0 0 0-10.962l-.336-.149 19.004-19.007a228.537 228.537 0 0 1 -4.186 318.9z"/></g></svg>