<svg id="Capa_1" enable-background="new 0 0 510.309 510.309" height="512" viewBox="0 0 510.309 510.309" width="512" xmlns="http://www.w3.org/2000/svg"><g><path d="m502.778 164.063c-1.123-40.195-111.653-72.673-247.874-72.673-136.918 0-247.9 32.81-247.9 73.29 0 7.36 3.674 14.46 10.501 21.16 30.711 30.16 125.377 52.13 237.4 52.13 114.465 0 210.803-22.94 239.321-54.11 5.271-5.765 8.253-11.803 8.577-18.027z" fill="#e4e1e5"/><path d="m70.233 181.608c0-30.807 23.037-58.952 61.059-80.471-74.285 12.657-124.288 36.372-124.288 63.543 0 7.36 3.674 14.46 10.501 21.16 12.086 11.869 34.08 22.468 63.135 30.96-6.766-11.147-10.407-22.954-10.407-35.192z" fill="#d6d1d6"/><g><g><g id="XMLID_185_"><g><path d="m488.294 181.554c2.79 1.239 3.353 4.994 1.055 7.019-33.202 29.253-125.653 50.306-234.519 50.306-108.617 0-200.9-20.955-234.287-50.109-1.485-1.297-1.313-3.682.373-4.695 20.379-12.238 51.013-22.666 88.534-30.289l51.18-8.09c29.97-3.534 62.61-5.478 96.77-5.478 44.25 0 85.95 3.26 122.58 9.022l42.69 8.384c23.049 5.545 53.279 18.448 65.624 23.93z" fill="#fcf1de"/></g></g></g><path d="m70.233 181.608c0-6.452 1.024-12.786 2.971-18.968-21.196 6.182-38.941 13.42-52.287 21.435-1.453.873-1.774 2.76-.889 4.096 12.498 10.926 33.474 20.696 60.612 28.629-6.766-11.147-10.407-22.954-10.407-35.192z" fill="#f6e2c4"/><g id="XMLID_184_"><circle cx="192.474" cy="225.685" fill="#f2ab6a" r="33.379"/><circle cx="188.582" cy="170.771" fill="#d1836c" r="42.284"/><circle cx="281.493" cy="207.805" fill="#f2ab6a" r="20.949"/><circle cx="289.764" cy="172.712" fill="#d1836c" r="35.093"/><circle cx="244.14" cy="223.675" fill="#fbe88c" r="38.912"/><circle cx="344.088" cy="200.859" fill="#f2ab6a" r="28.584"/><circle cx="350.439" cy="229.443" fill="#f2ab6a" r="24.527"/><circle cx="313.611" cy="233.258" fill="#a6d786" r="36.828"/><circle cx="142.453" cy="218.588" fill="#a6d786" r="36.98"/><circle cx="88.5" cy="215.353" fill="#fbe88c" r="31.202"/><circle cx="392.904" cy="215.353" fill="#d1836c" r="38.975"/></g><path d="m363.571 371.08c-.012 22.537-16.593 41.631-38.906 44.821-9.667 1.382-19.548 2.098-29.598 2.098h-79.827c-10.474 0-20.766-.778-30.823-2.277-22.216-3.311-38.681-22.35-38.681-44.811v-.183-33.454h217.834v33.806z" fill="#e4e1e5"/></g><path d="m502.791 164.977c-4.272 39.915-113.565 71.882-247.637 71.882-129.463 0-236.807-30.565-247.851-68.561v.01l.201 3.692c0 116.342 93 210.659 207.74 210.659h79.82c114.74 0 207.74-94.317 207.74-210.659z" fill="#f8f7f8"/><g><path d="m82.918 215.713c-42.226-12.294-70.257-28.98-75.615-47.415v.01l.201 3.692c0 116.342 93 210.659 207.74 210.659h1.737c-63.533-27.748-113.355-89.555-134.063-166.946z" fill="#efedee"/></g><path d="m432.4 106.583c-47.447-14.041-110.395-21.773-177.246-21.773-20.21 0-40.369.722-59.918 2.146-4.131.301-7.237 3.894-6.936 8.025s3.899 7.249 8.024 6.935c19.188-1.397 38.981-2.105 58.83-2.105 141.526 0 240.154 34.67 240.154 65.786 0 3.152-1.04 6.336-3.008 9.514-39.469-20.991-108.752-35.795-187.768-39.943-4.588-1.771-9.565-2.752-14.769-2.752-4.138 0-8.133.62-11.904 1.762-6.734-.149-13.501-.231-20.133-.231-12.813 0-25.704.286-38.385.828-8.308-7.039-19.044-11.296-30.76-11.296-14.564 0-27.616 6.574-36.365 16.902-57.153 7.298-103.862 20.254-132.835 36.791-2.881-3.866-4.381-7.748-4.381-11.576 0-11.558 13.931-23.888 39.227-34.719 27.325-11.7 65.473-20.674 110.318-25.953 4.113-.484 7.056-4.212 6.572-8.326s-4.21-7.053-8.326-6.572c-78.698 9.265-162.791 33.981-162.791 75.57v9.319c0 64.901 28.869 125.696 79.205 166.796 1.393 1.137 3.071 1.69 4.739 1.69 2.174 0 4.331-.941 5.814-2.756 2.62-3.208 2.143-7.933-1.066-10.553-41.547-33.924-67.358-82.272-72.658-134.908 13.006 11.179 33.781 21.112 61.874 29.425 47.447 14.041 110.395 21.773 177.246 21.773 43.348 0 86.092-3.341 123.61-9.663 4.084-.688 6.838-4.558 6.149-8.642-.688-4.084-4.557-6.837-8.642-6.15-3.927.662-7.925 1.283-11.966 1.878-.672-2.494-1.019-5.07-1.019-7.71 0-16.331 13.286-29.617 29.617-29.617 14.909 0 27.275 11.076 29.316 25.43-4.553 1.261-9.279 2.476-14.18 3.636-4.03.955-6.524 4.996-5.57 9.027.817 3.449 3.895 5.773 7.292 5.773.572 0 1.154-.066 1.735-.204 38.583-9.138 66.648-21.15 82.803-35.094-10.129 100.995-95.614 180.109-199.233 180.109h-79.827c-35.648 0-70.659-9.496-101.248-27.461-3.572-2.097-8.167-.903-10.266 2.669-2.098 3.572-.903 8.168 2.669 10.266 10.277 6.036 21.018 11.182 32.097 15.406 1.056 10.808 5.424 21.083 12.576 29.364 8.269 9.573 19.719 15.874 32.242 17.74 10.499 1.565 21.241 2.358 31.929 2.358h79.827c10.256 0 20.571-.731 30.659-2.173 24.025-3.435 42.556-23.099 45.049-46.817 28.383-10.644 54.415-27.32 76.49-49.395 40.653-40.654 63.042-94.706 63.042-152.198v-9.319c.004-23.523-26.937-43.929-77.905-59.012zm-108.796 301.894c-9.387 1.342-18.988 2.022-28.537 2.022h-79.827c-9.95 0-19.948-.738-29.717-2.194-15.072-2.247-26.809-12.893-30.805-26.818 19.558 5.72 39.941 8.67 60.521 8.67h79.827c20.378 0 40.318-2.826 59.388-8.268-4.171 13.759-16.053 24.472-30.85 26.588zm-33.422-192.324c5.603-7.056 14.072-11.204 23.172-11.204 13.674 0 25.132 9.127 28.557 21.748-16.84 1.881-34.375 3.207-52.255 3.957.584-2.891.895-5.845.895-8.857.001-1.913-.134-3.794-.369-5.644zm38.234-23.628c3.703-6.148 10.434-10.17 17.942-10.17 4.737 0 9.272 1.61 12.918 4.467-5.094 5.845-8.692 13.02-10.195 20.933-5.191-6.931-12.348-12.278-20.665-15.23zm-12.5-18.958c0 6.096-2.077 11.866-5.888 16.52-9.305.69-18.03 4.25-25.08 10.093-4.557-8.192-11.617-14.804-20.142-18.8-.791-2.518-1.193-5.135-1.193-7.813 0-14.42 11.731-26.152 26.152-26.152s26.151 11.731 26.151 26.152zm-189.002 47.12c.189-1.517.288-3.049.288-4.592 0-5.802-1.329-11.299-3.697-16.204 4.96-4.832 11.663-7.621 18.675-7.621 14.748 0 26.746 11.998 26.746 26.746 0 2.63-.377 5.187-1.115 7.65-14.471-1.634-28.139-3.648-40.897-5.979zm57-2.123c1.545.152 3.101.235 4.667.235 4.43 0 8.802-.624 13-1.817-.171 1.582-.264 3.188-.264 4.814 0 2.676.247 5.308.71 7.892-6.511-.423-12.894-.921-19.144-1.49.679-3.01 1.042-6.092 1.042-9.182.001-.151-.009-.301-.011-.452zm64.867-41.284c-.942-.06-1.889-.1-2.846-.1-3.525 0-6.952.424-10.243 1.2.364-2.382.551-4.801.551-7.241 0-7.844-1.916-15.244-5.287-21.776 8.591-.259 17.235-.402 25.85-.411-5.144 6.869-8.194 15.393-8.194 24.616 0 1.245.058 2.483.169 3.712zm-60.199-38.802c18.009 0 32.661 14.652 32.661 32.661 0 6.226-1.767 12.241-5.083 17.464-2.568 2.306-4.863 4.907-6.842 7.745-5.838 4.807-13.165 7.451-20.737 7.451-2.693 0-5.345-.332-7.925-.976-4.4-10.415-12.913-18.676-23.489-22.76-.825-2.896-1.247-5.885-1.247-8.925.001-18.009 14.652-32.66 32.662-32.66zm-47.661 32.661c0 2.071.141 4.125.408 6.157-10.026.207-19.589 4.047-26.966 10.635-6.574-5.737-15.159-9.225-24.549-9.225-15.083 0-28.301 8.945-34.166 22.208-9.925-4.136-18.191-8.511-24.618-13.007 25.447-13.312 65.108-24.344 112.115-31.154-1.442 4.542-2.224 9.374-2.224 14.386zm-71.205 35.093c3.672-7.512 11.36-12.526 20.097-12.526 12.345 0 22.389 10.043 22.389 22.389 0 .559-.026 1.114-.068 1.667-15.864-3.393-30.072-7.289-42.418-11.53zm147.924 24.315c-.872-2.814-1.322-5.741-1.322-8.75 0-16.331 13.286-29.617 29.617-29.617s29.617 13.286 29.617 29.617c0 3.229-.52 6.361-1.526 9.362-6.268.143-12.561.224-18.872.224-12.875-.001-25.391-.291-37.514-.836zm175.264-59.069c-7.933 0-15.384 2.091-21.846 5.736-6.615-6.258-15.427-9.859-24.701-9.859-5.523 0-10.803 1.272-15.538 3.55-.457-7.111-2.727-13.733-6.353-19.413 65.718 5.118 122.389 17.698 156.914 34.859-10.074 7.582-25.307 14.84-44.702 21.199-3.998-20.526-22.096-36.072-43.774-36.072z"/></g></svg>