<svg id="Layer_1" height="512" viewBox="0 0 512 512" width="512" xmlns="http://www.w3.org/2000/svg" data-name="Layer 1"><path d="m302.067 413.361v38.561a45.575 45.575 0 1 1 -91.15 0v-38.561z" fill="#ea836f"/><path d="m210.917 290.66h91.151v122.701h-91.151z" fill="#486c8b"/><path d="m210.917 250.63h91.151v40.03h-91.151z" fill="#ea836f"/><path d="m230.917 451.922v-38.561h-20v38.561a45.558 45.558 0 0 0 55.571 44.466 45.577 45.577 0 0 1 -35.571-44.466z" fill="#cc7266"/><path d="m210.917 290.66h20v122.701h-20z" fill="#598baa"/><path d="m210.917 250.63h20v40.03h-20z" fill="#cc7266"/><path d="m336.468 14.5-160.982.12a25.036 25.036 0 0 0 -24.86 27.77l14.22 129.641a25.03 25.03 0 0 0 24.9 22.3l133.142-.09a25.026 25.026 0 0 0 24.88-22.42l13.62-129.671a25.037 25.037 0 0 0 -24.92-27.65zm-5.75 35.19-8.27 99.541a6.829 6.829 0 0 1 -6.81 6.26h-32.661a6.829 6.829 0 0 1 -6.67-5.35l-7.86-35.62h-24.11l-7.86 35.62a6.829 6.829 0 0 1 -6.67 5.35h-32.66a6.837 6.837 0 0 1 -6.811-6.26l-8.27-99.541a6.825 6.825 0 0 1 6.8-7.39h135.052a6.825 6.825 0 0 1 6.8 7.388z" fill="#deedfd"/><path d="m279.027 194.269v56.361h-45.07v-56.331z" fill="#b8d7f7"/><g fill="#284268"><path d="m232 331.673a6 6 0 0 0 -6 6v50.614a6 6 0 1 0 12 0v-50.614a6 6 0 0 0 -6-6z"/><path d="m226 314.48v4.807a6 6 0 1 0 12 0v-4.807a6 6 0 0 0 -12 0z"/><path d="m336.491 9h-.024l-160.981-.126a30.836 30.836 0 0 0 -30.825 34.231l14.222 129.442a30.819 30.819 0 0 0 30.849 27.453h.019l38.249.022v44.978h-17.083a5.628 5.628 0 0 0 -5.917 5.634v201.29a51.5 51.5 0 1 0 103 0v-201.29a5.639 5.639 0 0 0 -5.93-5.634h-17.07v-44.944l37.9.022a30.9 30.9 0 0 0 30.844-27.711l13.611-129.636a30.474 30.474 0 0 0 -7.811-23.744 30.823 30.823 0 0 0 -23.053-9.987zm-40.491 442.924a39.5 39.5 0 1 1 -79 0v-32.924h79zm0-194.924v28h-34a6 6 0 0 0 0 12h34v110h-79v-110h5a6 6 0 0 0 0-12h-5v-28zm-56-12v-44.971l33 .02v44.951zm115.42-203.48-13.612 129.68a18.852 18.852 0 0 1 -18.918 16.882l-133.146-.082h-.012a18.865 18.865 0 0 1 -18.92-16.793l-14.223-129.556a18.626 18.626 0 0 1 18.906-20.8l160.982.149h.015a18.579 18.579 0 0 1 14.138 6.041 18.26 18.26 0 0 1 4.79 14.479z"/><path d="m323.918 36h-135.045a13.071 13.071 0 0 0 -12.783 14.114l8.273 99.33a12.723 12.723 0 0 0 12.784 11.556h32.666c5.971 0 11.239-3.748 12.526-9.579l6.821-30.421h14.471l6.821 30.421c1.287 5.831 6.555 9.579 12.526 9.579h32.666a12.689 12.689 0 0 0 12.783-11.519l8.273-99.416a12.975 12.975 0 0 0 -12.782-14.065zm-7.449 112.487c-.036.426-.4.513-.825.513h-32.666c-.385 0-.725-.027-.808-.4l-7.86-35.251a5.694 5.694 0 0 0 -5.859-4.349h-24.111a5.8 5.8 0 0 0 -5.859 4.469l-7.86 35.247c-.085.382-.417.284-.808.284h-32.666c-.427 0-.789-.087-.825-.513l-8.274-99.416a1 1 0 0 1 .216-.716.894.894 0 0 1 .609-.355h135.045c.241 0 .446.239.608.416a.7.7 0 0 1 .216.581z"/></g></svg>