<svg id="Layer_1" enable-background="new 0 0 512 512" height="512" viewBox="0 0 512 512" width="512" xmlns="http://www.w3.org/2000/svg"><g><g><g><path d="m255.999 7.5c-3.85 0-7.69.09-11.5.26-131.91 6.01-237 114.85-237 248.24s105.09 242.23 237 248.24c3.81.17 7.65.26 11.5.26 137.24 0 248.5-111.26 248.5-248.5s-111.26-248.5-248.5-248.5zm-20 248.5c0-11.05 8.95-20 20-20 11.04 0 20 8.95 20 20s-8.96 20-20 20c-11.05 0-20-8.95-20-20z" fill="#58768c"/><path d="m504.5 256c0 137.24-111.26 248.5-248.5 248.5-3.85 0-7.69-.09-11.5-.26 131.9-6.01 237-114.85 237-248.24s-105.1-242.23-237-248.24c3.81-.17 7.65-.26 11.5-.26 137.24 0 248.5 111.26 248.5 248.5z" fill="#3e5868"/></g><g><path d="m255.999 137c-3.37 0-6.7.14-10 .42-61.05 5.07-109 56.23-109 118.58s47.95 113.51 109 118.58c3.3.28 6.63.42 10 .42 65.72 0 118.99-53.28 118.99-119s-53.27-119-118.99-119zm0 139c-11.05 0-20-8.95-20-20s8.95-20 20-20c11.04 0 20 8.95 20 20s-8.96 20-20 20z" fill="#dcf8ff"/><path d="m374.99 256c0 65.72-53.27 119-118.99 119-3.37 0-6.7-.14-10-.42 61.04-5.07 108.99-56.23 108.99-118.58s-47.95-113.51-108.99-118.58c3.3-.28 6.63-.42 10-.42 65.72 0 118.99 53.28 118.99 119z" fill="#d2e1f9"/></g><g><path d="m255.999 172.39c-3.73 0-7.4.24-11 .72-40.98 5.38-72.62 40.44-72.62 82.89s31.64 77.51 72.62 82.89c3.6.48 7.27.72 11 .72 46.17 0 83.61-37.43 83.61-83.61s-37.44-83.61-83.61-83.61zm0 98.6c-8.28 0-15-6.71-15-14.99s6.72-14.99 15-14.99 15 6.71 15 14.99-6.72 14.99-15 14.99z" fill="#ff5f85"/><path d="m339.61 256c0 46.18-37.44 83.61-83.61 83.61-3.73 0-7.4-.24-11-.72 40.97-5.38 72.61-40.44 72.61-82.89s-31.64-77.51-72.61-82.89c3.6-.48 7.27-.72 11-.72 46.17 0 83.61 37.43 83.61 83.61z" fill="#b2527e"/></g><g><path d="m77.026 7.747s-.054.866 0 2.409c.053-1.543 0-2.409 0-2.409z"/><path d="m77.026 146.672s.054-.866 0-2.409c-.054 1.543 0 2.409 0 2.409z"/><ellipse cx="77.026" cy="77.21" fill="#ffe878" rx="69.463" ry="67.053"/><ellipse cx="437.054" cy="424.681" fill="#ff5f85" rx="49.681" ry="47.959"/><path d="m437.054 474.363s.038-.619 0-1.722c-.039 1.103 0 1.722 0 1.722z"/><path d="m437.054 375s-.038.619 0 1.722c.038-1.103 0-1.722 0-1.722z"/></g></g><g><path d="m42.984 398.034c1.446 2.165 3.822 3.335 6.243 3.335 1.432 0 2.879-.41 4.159-1.265 3.444-2.301 4.371-6.958 2.07-10.403-26.466-39.618-40.456-85.851-40.456-133.701 0-50.837 15.467-99.046 44.825-140.027 8.186 11.919 9.528 23.394 9.709 28.081-.064 1.825-.004 2.921.006 3.083.245 3.954 3.524 7.035 7.485 7.035s7.24-3.081 7.485-7.035c.01-.155.066-1.173.014-2.872.373-9.085 5.442-47.419 63.518-59.718 3.466-.734 5.946-3.794 5.946-7.337s-2.48-6.603-5.946-7.337c-12.553-2.658-22.631-6.508-30.721-11.005 40.692-28.736 88.41-43.868 138.679-43.868 79.276 0 153.505 39.021 198.564 104.382 1.455 2.111 3.798 3.244 6.182 3.244 1.467 0 2.95-.43 4.25-1.326 3.41-2.351 4.269-7.021 1.918-10.432-47.859-69.422-126.705-110.868-210.914-110.868-55.208 0-107.524 17.185-151.69 49.76-17.297-15.239-19.554-33.216-19.792-39.395.064-1.825.003-2.921-.007-3.083-.246-3.954-3.524-7.035-7.485-7.035s-7.24 3.081-7.485 7.035c-.01.161-.07 1.243-.008 3.044-.364 9.558-5.529 47.265-63.523 59.546-3.466.734-5.946 3.794-5.946 7.337s2.48 6.603 5.946 7.337c20.333 4.306 34.171 11.737 43.586 19.983-32.471 44.119-49.596 96.342-49.596 151.471 0 50.827 14.864 99.941 42.984 142.034zm33.23-357.799c.28-.522.55-1.043.812-1.562.261.519.532 1.04.812 1.562 6.432 12.017 18.93 26.905 43.093 36.975-24.163 10.07-36.661 24.958-43.093 36.975-.28.522-.551 1.044-.812 1.563-.261-.519-.532-1.04-.812-1.563-6.432-12.016-18.93-26.904-43.093-36.975 24.164-10.07 36.662-24.959 43.093-36.975z"/><path d="m485.954 143.368c-1.825-3.719-6.321-5.253-10.037-3.429-3.719 1.825-5.254 6.318-3.429 10.037 16.265 33.148 24.512 68.819 24.512 106.024 0 51.078-15.609 99.493-45.233 140.594-6.017-8.262-7.054-16.315-7.211-19.61.042-1.305.002-2.159-.016-2.449-.245-3.954-3.524-7.035-7.485-7.035s-7.24 3.082-7.485 7.035c-.018.286-.058 1.121-.018 2.395-.305 6.58-4.085 32.019-43.732 40.414-3.466.734-5.946 3.794-5.946 7.337s2.48 6.603 5.946 7.337c10.293 2.18 18.168 5.508 24.193 9.356-43.212 35.937-97.547 55.626-154.013 55.626-68.173 0-133.459-29.071-179.118-79.759-2.772-3.078-7.515-3.325-10.592-.553-3.078 2.772-3.325 7.514-.553 10.592 23.778 26.397 52.167 47.21 84.378 61.862 33.343 15.168 68.968 22.858 105.885 22.858 60.74 0 119.161-21.449 165.34-60.549 6.905 8.711 8.047 17.457 8.213 20.928-.042 1.305-.002 2.159.016 2.449.246 3.954 3.524 7.035 7.485 7.035s7.24-3.081 7.485-7.035c.018-.286.058-1.121.018-2.395.305-6.58 4.085-32.018 43.731-40.414 3.466-.734 5.946-3.794 5.946-7.337s-2.48-6.603-5.946-7.337c-11.108-2.352-19.4-6.042-25.589-10.279 32.281-44.032 49.301-96.099 49.301-151.066 0-39.515-8.763-77.41-26.046-112.632zm-48.9 304.458c-4.619-7.677-12.568-16.49-26.209-23.145 13.641-6.655 21.59-15.467 26.209-23.145 4.618 7.677 12.568 16.49 26.208 23.145-13.639 6.655-21.59 15.468-26.208 23.145z"/><path d="m145.196 300.132c-3.743 1.774-5.339 6.247-3.565 9.99 10.113 21.335 25.966 39.396 45.845 52.229 20.42 13.181 44.115 20.149 68.524 20.149 69.752 0 126.5-56.748 126.5-126.5s-56.748-126.5-126.5-126.5-126.5 56.748-126.5 126.5c0 5.381.342 10.799 1.016 16.103.522 4.108 4.273 7.015 8.386 6.494 4.109-.522 7.017-4.276 6.494-8.386-.595-4.679-.896-9.46-.896-14.211 0-61.481 50.019-111.5 111.5-111.5s111.5 50.019 111.5 111.5-50.019 111.5-111.5 111.5c-42.87 0-82.442-25.044-100.814-63.803-1.775-3.743-6.25-5.341-9.99-3.565z"/><path d="m266.56 165.494c-3.481-.402-7.034-.606-10.56-.606-50.239 0-91.112 40.873-91.112 91.112s40.873 91.112 91.112 91.112 91.112-40.873 91.112-91.112c0-30.314-15.015-58.556-40.165-75.547-3.433-2.32-8.095-1.416-10.414 2.016-2.319 3.433-1.416 8.095 2.016 10.414 21.016 14.198 33.563 37.793 33.563 63.117 0 41.968-34.144 76.112-76.112 76.112s-76.112-34.144-76.112-76.112 34.144-76.112 76.112-76.112c2.953 0 5.926.17 8.838.507 4.118.479 7.836-2.475 8.311-6.59.476-4.114-2.474-7.835-6.589-8.311z"/><path d="m256 233.515c-12.407 0-22.5 10.087-22.5 22.485s10.093 22.485 22.5 22.485 22.5-10.087 22.5-22.485-10.093-22.485-22.5-22.485zm0 29.97c-4.136 0-7.5-3.358-7.5-7.485s3.364-7.485 7.5-7.485 7.5 3.358 7.5 7.485-3.364 7.485-7.5 7.485z"/><path d="m57.5 461.86h-7.5v-7.5c0-4.142-3.358-7.5-7.5-7.5s-7.5 3.358-7.5 7.5v7.5h-7.5c-4.142 0-7.5 3.358-7.5 7.5s3.358 7.5 7.5 7.5h7.5v7.5c0 4.142 3.358 7.5 7.5 7.5s7.5-3.358 7.5-7.5v-7.5h7.5c4.142 0 7.5-3.358 7.5-7.5s-3.358-7.5-7.5-7.5z"/><path d="m450.313 42.093h19.593v19.593c0 4.142 3.358 7.5 7.5 7.5s7.5-3.358 7.5-7.5v-19.593h19.594c4.142 0 7.5-3.358 7.5-7.5s-3.358-7.5-7.5-7.5h-19.593v-19.593c0-4.142-3.358-7.5-7.5-7.5s-7.5 3.358-7.5 7.5v19.593h-19.593c-4.142 0-7.5 3.358-7.5 7.5s3.357 7.5 7.499 7.5z"/></g></g></svg>