<svg id="Layer_1" height="512" viewBox="0 0 512 512" width="512" xmlns="http://www.w3.org/2000/svg" data-name="Layer 1"><circle cx="256" cy="256" fill="#fb6771" r="234.54"/><path d="m346.51 62.99-29.88 22.84-6.15 33.58-30.02 28.12 37.52 61.83 40.83-82.05z" fill="#75967a"/><path d="m201.52 119.41-6.15-33.58-29.88-22.84-12.3 64.32 41.11 81.17 37.24-60.95z" fill="#75967a"/><path d="m309.16 179.9h-106.32l-13.18 42.18v15.13h132.68v-15.13z" fill="#9ac5a1"/><path d="m322.34 371.24v17.33a66.34 66.34 0 1 1 -132.68 0v-17.33z" fill="#9ac5a1"/><path d="m189.66 243.06h132.68v123.58h-132.68z" fill="#75967a"/><path d="m189.66 228.45h132.68v24.61h-132.68z" fill="#f3e08d"/><path d="m189.66 356.64h132.68v24.6h-132.68z" fill="#f3e08d"/><path d="m208.84 147.53h94.32v33.61h-94.32z" fill="#6d7486"/><path d="m264.36 57.09h-16.72l-10.54 61.44 2.63 87.92h32.54l2.63-87.92z" fill="#75967a"/><path d="m61.46 256c0-122.792 94.373-223.532 214.54-233.683-6.6-.557-13.262-.857-20-.857-129.53 0-234.54 105.01-234.54 234.54s105.01 234.54 234.54 234.54c6.738 0 13.4-.3 20-.858-120.167-10.15-214.54-110.89-214.54-233.682z" fill="#e75163"/><path d="m219.66 388.57v-17.33h-30v17.33a66.319 66.319 0 0 0 81.34 64.616 66.32 66.32 0 0 1 -51.34-64.616z" fill="#b6e0bb"/><path d="m189.66 243.06h30v123.58h-30z" fill="#9ac5a1"/><path d="m208.84 147.53h30v33.61h-30z" fill="#b0b5ca"/><path d="m232.84 179.9h-30l-13.18 42.18v15.13h30v-15.13z" fill="#b6e0bb"/><path d="m189.66 228.45h30v24.61h-30z" fill="#fff4c5"/><path d="m189.66 356.64h30v24.6h-30z" fill="#fff4c5"/><g fill="#284268"><path d="m213.971 281.819a6 6 0 0 0 6-6v-6.042a6 6 0 0 0 -12 0v6.042a6 6 0 0 0 6 6z"/><path d="m256 15.463a240.537 240.537 0 0 0 -170.085 410.622 240.537 240.537 0 1 0 340.17-340.17 238.958 238.958 0 0 0 -170.085-70.452zm-228.537 240.537a228.536 228.536 0 0 1 385.837-165.786l-58.38 58.38 9.261-18.606a6 6 0 0 0 .522-3.8l-12.303-64.328a6 6 0 0 0 -9.538-3.639l-29.875 22.847a6.006 6.006 0 0 0 -2.257 3.684l-5.794 31.627-24.66 23.1.623-20.77a5.824 5.824 0 0 0 -.084-1.194l-10.544-61.441a6 6 0 0 0 -5.913-4.986h-16.716a6 6 0 0 0 -5.913 4.986l-10.544 61.439a5.824 5.824 0 0 0 -.084 1.194l.623 20.77-24.66-23.1-5.794-31.625a6.006 6.006 0 0 0 -2.257-3.684l-29.877-22.847a6 6 0 0 0 -9.536 3.639l-12.3 64.328a6 6 0 0 0 .541 3.838l40.009 78.989-3.912 12.517-.162 98.21-93.562 93.558a226.95 226.95 0 0 1 -62.751-157.3zm244.8-43.552a6 6 0 0 0 6-5.821l.584-19.484h25.9l2.769 8.857-26.454 26.454h-84.844l11.034-35.31h25.9l.584 19.484a6 6 0 0 0 6 5.821zm-29.154-93.5 9.591-55.86h6.6l9.586 55.861-2.444 81.5h-20.885zm36.094 56.194.648-21.612h17.31v21.616zm32.349 33.786 4.226 13.524h-17.747zm-115.9 38.129v-12.6h73.4l-12.605 12.6zm48.8 12-48.8 48.8v-48.8zm-29.622-83.915v-21.615h17.31l.648 21.612zm-6-33.618a6 6 0 0 0 -6 6v27.619a6 6 0 0 0 -5.721 4.21l-4.136 13.237-33.51-66.16 10.093-52.779 20.323 15.541 5.734 31.3a6 6 0 0 0 1.8 3.3l18.941 17.742zm-13.17 245.715h120.68v1.332a60.34 60.34 0 1 1 -120.68 0zm0-12v-12.6h120.68v12.6zm0-24.6v-25.815l12.311-12.31v27.926a6 6 0 1 0 12 0v-39.926l41.456-41.456h54.913v91.578zm77.767-103.578 12.6-12.6h30.313v12.6zm41.459-67.7a6 6 0 0 0 -5.721-4.21v-27.626a6 6 0 0 0 -6-6h-7.522l18.941-17.742a6 6 0 0 0 1.8-3.3l5.734-31.295 20.323-15.541 10.1 52.8-24.3 48.827-11.14 11.14zm102.714 238.239a228.538 228.538 0 0 1 -318.9 4.185l85.047-85.046-.085 51.831a72.34 72.34 0 0 0 144.68 0l-.274-167.039-3.644-11.662 13.676-27.488 83.686-83.681a228.537 228.537 0 0 1 -4.186 318.9z"/></g></svg>