<svg id="Capa_1" enable-background="new 0 0 510.309 510.309" height="512" viewBox="0 0 510.309 510.309" width="512" xmlns="http://www.w3.org/2000/svg"><g><g><path d="m363.571 371.08c-.012 22.537-16.593 41.631-38.906 44.821-9.667 1.382-19.548 2.098-29.598 2.098h-79.827c-10.474 0-20.766-.778-30.823-2.277-22.216-3.311-38.681-22.35-38.681-44.811v-.183-45.81h217.834v46.162z" fill="#e4e1e5"/><path d="m502.095 165.58.005 9.335c0 114.732-92.876 207.741-207.444 207.741h-79.713c-114.567 0-207.443-93.009-207.443-207.741v-9.319z" fill="#f8f7f8"/><path d="m91.556 175.913v-10.314l-84.056-.003v9.319c0 112.361 89.08 203.872 200.372 207.608-68.881-37.399-116.316-115.859-116.316-206.61z" fill="#efedee"/><g><path d="m502.075 164.178c-1.123-40.195-111.653-72.673-247.874-72.673-136.918 0-247.9 32.81-247.9 73.29 0 7.36 3.674 14.46 10.501 21.16.302.297.605.588.92.883l62.602 13.232 220.951 18.66 164.739-31.892 27.51-2.863c5.271-5.765 8.253-11.803 8.577-18.027z" fill="#e4e1e5"/><path d="m65.512 168.59c0-23.699 16.827-45.649 45.453-63.62-63.332 13.276-104.663 35.122-104.663 59.825 0 7.36 3.674 14.46 10.501 21.16.302.297.605.588.92.883l57.339 12.12c-6.213-9.648-9.55-19.83-9.55-30.368z" fill="#d6d1d6"/><g><g id="XMLID_186_"><g><path d="m493.523 183.975c-28.49 31.17-124.019 54.905-238.369 54.905-111.91 0-206.752-21.882-237.432-52.042 19.13-12.2 48.852-22.778 85.302-30.588l78.91-10.21 196.07 3.14 58.89 13c23.44 6.409 56.629 21.795 56.629 21.795z" fill="#f4bb87"/></g></g></g><path d="m76.932 201.737c-.314-.444-.618-.881-.92-1.328-6.827-10.075-10.501-20.752-10.501-31.819 0-.873.029-1.742.074-2.61-19.52 6.116-35.8 13.164-47.864 20.858 14.016 13.779 41.647 25.885 77.957 34.911-7.576-6.309-14.03-13.041-18.746-20.012z" fill="#f2ab6a"/><path d="m275.314 173.229-35.666-39.442c-1.045-1.156-2.861-1.156-3.906 0l-29.959 33.131-11.176 13.373z" fill="#fcf6ed"/><path d="m328.177 134.221c0-4.271-3.462-7.733-7.733-7.733h-44.299c-4.271 0-7.733 3.462-7.733 7.733v43.462h59.765z" fill="#fcf6ed"/><g id="XMLID_189_"><g><path d="m387.394 146.439v40.32l-.09.06c-17.84 2.65-35.28 3.18-52.27 1.53l-13.73-2.27v-21.76-7.43c0-3.67 2.58-6.83 6.17-7.57l50.64-10.45c4.79-.98 9.28 2.68 9.28 7.57z" fill="#fcf6ed"/></g></g><g id="XMLID_191_"><g id="XMLID_192_"><g><path d="m165.484 162.459-4.97 16.18-13.67 4.3c-14.4 2.94-29.83 3.38-46.29 1.29l.16-1.29 3.93-34.69c.51-4.51 5.08-7.37 9.36-5.85l33.82 12.02z" fill="#fcf6ed"/></g></g><g><path d="m205.784 171.509v29.29l-19.91 1.02c-12.72.9-25.44-.46-38.16-4.11l.11-.39v-50.88c0-3.36 2.72-6.07 6.07-6.07h45.82c3.35 0 6.07 2.71 6.07 6.07z" fill="#fcf6ed"/></g></g><g id="XMLID_190_"><g><path d="m434.354 158.469v34.1h-46.96v-30.5l43.5-6.57c1.82-.28 3.46 1.13 3.46 2.97z" fill="#fcf6ed"/></g></g><g id="XMLID_188_"><g><path d="m333.734 207.089v1.18c-17.76 3.93-35.74 3.92-53.92.22v-1.4-33.38c0-4.48 3.64-8.11 8.12-8.11h37.69c4.48 0 8.11 3.63 8.11 8.11z" fill="#fcf6ed"/></g></g></g><g id="XMLID_187_"><g><path d="m231.834 205.929v.98c-14.74 3.26-29.65 3.26-44.73.19v-1.17-27.69c0-3.72 3.01-6.73 6.73-6.73h31.27c3.72 0 6.73 3.01 6.73 6.73z" fill="#fcf6ed"/></g></g></g><path d="m432.4 106.583c-47.447-14.041-110.394-21.773-177.246-21.773-13.053 0-26.212.304-39.111.904-4.138.192-7.335 3.703-7.143 7.84s3.685 7.339 7.84 7.143c12.668-.589 25.593-.888 38.414-.888 141.526 0 240.154 34.67 240.154 65.786 0 3.089-1.037 6.266-3.048 9.471-13.572-7.229-30.624-13.736-50.804-19.398-.55-1.986-1.664-3.791-3.26-5.165-2.323-1.998-5.387-2.88-8.424-2.424l-34.879 5.271v-6.914c0-4.597-2.044-8.898-5.608-11.802-3.562-2.903-8.185-4.038-12.69-3.107l-40.919 8.443v-5.751c0-8.4-6.833-15.233-15.232-15.233h-44.299c-8.399 0-15.233 6.833-15.233 15.233v11.899l-15.7-17.363c-1.918-2.121-4.657-3.337-7.517-3.337s-5.599 1.216-7.516 3.337l-16.896 18.685v-1.007c0-7.483-6.087-13.57-13.57-13.57h-45.814c-6.61 0-12.124 4.754-13.322 11.021l-24.061-8.552c-4.205-1.495-8.79-.996-12.576 1.369-3.786 2.364-6.246 6.264-6.749 10.7l-.285 2.514c-32.178 7.207-58.741 16.552-77.522 27.256-2.883-3.864-4.384-7.746-4.384-11.575 0-12.387 16.509-25.945 45.293-37.198 31.043-12.135 75.322-21.216 124.681-25.569 4.126-.364 7.176-4.004 6.812-8.13s-4.014-7.177-8.13-6.812c-51.475 4.54-96.021 13.718-128.825 26.541-35.871 14.023-54.831 31.717-54.831 51.168v9.319c0 64.901 28.869 125.696 79.205 166.796 1.393 1.137 3.071 1.69 4.739 1.69 2.174 0 4.331-.941 5.814-2.756 2.62-3.208 2.143-7.933-1.066-10.553-41.547-33.924-67.358-82.272-72.658-134.908 13.006 11.179 33.781 21.112 61.874 29.425 47.447 14.041 110.395 21.773 177.246 21.773 32.568 0 64.279-1.832 94.252-5.445 4.112-.496 7.044-4.231 6.549-8.344-.496-4.112-4.237-7.039-8.344-6.549-29.38 3.542-60.486 5.337-92.457 5.337-107.847 0-190.772-20.133-224.138-43.484 16.149-8.475 37.963-16.03 64.098-22.183l-1.128 9.955c-.241-.041-.48-.077-.722-.119-4.075-.716-7.967 2.012-8.682 6.092s2.012 7.967 6.092 8.682c10.235 1.794 20.187 2.691 29.79 2.691 4.928 0 9.762-.239 14.497-.712-.173.332-.332.675-.457 1.039-1.347 3.917.736 8.185 4.653 9.531 11.989 4.123 24.122 6.332 36.202 6.65.971 1.775 2.646 3.158 4.764 3.685 9.798 2.436 19.539 3.654 29.16 3.654 9.651 0 19.183-1.226 28.521-3.678 4.006-1.052 6.401-5.152 5.349-9.159-.561-2.139-1.996-3.812-3.816-4.753v-14.107c10.976-.064 22.021-.957 32.98-2.675v17.207c-2.841.49-5.267 2.602-6.008 5.58-.999 4.02 1.449 8.088 5.469 9.088 11.686 2.905 23.303 4.358 34.774 4.358 11.502 0 22.857-1.461 33.983-4.382 4.006-1.052 6.4-5.152 5.349-9.159-.645-2.457-2.437-4.304-4.65-5.126v-3.701c4.395.276 8.829.428 13.305.428 8.51 0 17.153-.503 25.872-1.499 1.09 2.796 3.802 4.78 6.984 4.78h49.502c4.143 0 7.5-3.358 7.5-7.5 0-2.24-.988-4.246-2.545-5.62v-15.559c15.338 4.51 28.551 9.506 39.464 14.922-4.273 3.234-9.475 6.423-15.553 9.502-20.715 10.493-50.578 19.338-86.362 25.577-4.081.712-6.812 4.596-6.101 8.677.636 3.645 3.803 6.212 7.38 6.212.428 0 .861-.037 1.297-.112 53.595-9.346 92.168-23.658 112.319-41.064-10.154 100.969-95.628 180.055-199.229 180.055h-79.827c-35.648 0-70.659-9.496-101.247-27.461-3.57-2.097-8.167-.903-10.266 2.669-2.098 3.572-.903 8.167 2.669 10.266 10.277 6.036 21.017 11.182 32.097 15.406 1.056 10.808 5.424 21.083 12.576 29.364 8.269 9.573 19.719 15.874 32.242 17.74 10.499 1.565 21.241 2.358 31.929 2.358h79.827c10.256 0 20.571-.731 30.659-2.173 24.025-3.435 42.556-23.099 45.049-46.817 28.383-10.644 54.415-27.32 76.49-49.395 40.654-40.654 63.043-94.706 63.043-152.198v-9.319c.001-23.522-26.94-43.928-77.908-59.011zm-108.796 301.894c-9.387 1.342-18.988 2.022-28.536 2.022h-79.827c-9.95 0-19.948-.738-29.717-2.194-15.073-2.247-26.809-12.893-30.804-26.818 19.558 5.72 39.941 8.669 60.521 8.669h79.827c20.378 0 40.319-2.826 59.388-8.268-4.173 13.76-16.056 24.473-30.852 26.589zm103.248-244.785v21.374h-31.957v-16.544zm-150.94-29.471c0-.129.104-.233.233-.233h44.299c.128 0 .232.104.232.233v9.966c-4.169 2.758-6.869 7.482-6.869 12.7v1.209h-25.876c-4.576 0-8.686 1.991-11.544 5.138l-.475-.526zm-38.217 8.589 23.544 26.036c-8.143.926-16.307 1.376-24.423 1.325-2.57-3.719-6.859-6.165-11.712-6.165h-6.576zm-39.412 5.055v16.141h-4.449c-7.848 0-14.232 6.385-14.232 14.233v16.337c-8.061.099-16.178-.789-24.273-2.653v-44.058zm-89.413 29.676 3.16-27.882 28.298 10.058v16.774c-9.924 1.573-20.448 1.922-31.458 1.05zm85.732 23.238v-21.773h29.735v21.683c-9.724 1.52-19.668 1.546-29.735.09zm92.715 1.436v-28.504c0-.339.275-.615.614-.615h37.688c.339 0 .614.276.614.615v28.367c-12.71 2.132-25.731 2.181-38.916.137zm53.917-20.885v-7.619c0-7.518-5.341-13.809-12.427-15.285v-1.538c0-.105.074-.197.178-.218l50.642-10.45c.052-.01.104-.021.186.045.082.067.082.123.082.173v33.809c-13.162 1.574-26.117 1.934-38.661 1.083z"/></g></svg>