<svg id="Layer_1" height="512" viewBox="0 0 512 512" width="512" xmlns="http://www.w3.org/2000/svg" data-name="Layer 1"><path d="m453.006 116.266c-.11-.06-.14-.12-.25-.18-.39-.21-.76-.42-1.16-.63-33.621-17.781-82.753-28.991-137.524-28.991h-.01a377.35 377.35 0 0 0 -58.072 4.39l91.083 334.68h116.173a4.172 4.172 0 0 0 4.18-4.15l1.31-187.326a34.874 34.874 0 0 1 10.7-24.62 73.141 73.141 0 0 0 9.661-11.421 48.963 48.963 0 0 0 8.15-25.72l.02-.16c-.02-21.338-16.591-40.872-44.261-55.872zm-71.883 55.912a.476.476 0 0 0 -.009-.05l.009-.05z" fill="#f4ad69"/><path d="m336.842 116.266c-.11-.06-.14-.12-.25-.18-.39-.21-.76-.42-1.16-.63-21.16-11.19-48.461-19.781-79.442-24.6a377.686 377.686 0 0 0 -58.082-4.39h-.01c-54.581 0-103.423 11.13-137.044 28.8-28.761 15.11-46.081 35.011-46.141 56.812v.05l.01.03a48.8 48.8 0 0 0 7.97 25.58 71.281 71.281 0 0 0 9.69 11.5 34.873 34.873 0 0 1 10.341 24.81l.81 187.326a4.182 4.182 0 0 0 4.19 4.16h299.349a4.18 4.18 0 0 0 4.19-4.15l1.31-187.326a34.864 34.864 0 0 1 10.69-24.62 72.673 72.673 0 0 0 9.67-11.421 49.062 49.062 0 0 0 8.151-25.72l.019-.16c-.019-21.337-16.603-40.871-44.261-55.871z" fill="#d68d51"/><path d="m93.535 421.375-.81-187.326a34.876 34.876 0 0 0 -10.34-24.81 71.281 71.281 0 0 1 -9.69-11.5 48.79 48.79 0 0 1 -7.971-25.58l-.01-.03v-.05c.06-21.8 17.381-41.7 46.142-56.812 28.37-14.911 67.579-25.165 111.929-28-8.136-.516-16.433-.8-24.877-.8h-.01c-54.581 0-103.423 11.13-137.044 28.8-28.761 15.11-46.081 35.011-46.141 56.812v.05l.01.03a48.8 48.8 0 0 0 7.97 25.58 71.281 71.281 0 0 0 9.69 11.5 34.873 34.873 0 0 1 10.341 24.81l.81 187.326a4.182 4.182 0 0 0 4.19 4.16h50a4.182 4.182 0 0 1 -4.189-4.16z" fill="#bf7c4b"/><circle cx="290.011" cy="152.917" fill="#9e705c" r="10.87"/><path d="m277.43 208.419a12.945 12.945 0 1 1 -12.95 12.94 12.944 12.944 0 0 1 12.95-12.94z" fill="#9e705c"/><path d="m203.638 186.468a8.9 8.9 0 1 1 -8.9 8.89 8.891 8.891 0 0 1 8.9-8.89z" fill="#9e705c"/><path d="m157.687 127.766a11.126 11.126 0 1 1 -11.13 11.131 11.124 11.124 0 0 1 11.13-11.131z" fill="#9e705c"/><path d="m129.636 239.47a8.9 8.9 0 1 1 -8.9 8.89 8.89 8.89 0 0 1 8.9-8.89z" fill="#9e705c"/><path d="m85.455 168.647a8.9 8.9 0 1 1 -8.9 8.9 8.893 8.893 0 0 1 8.9-8.9z" fill="#9e705c"/><g fill="#284268"><path d="m456.255 111.213-1.857-1.06c-35.688-18.866-86.836-29.686-140.334-29.686a384.157 384.157 0 0 0 -58.164 4.344 384.258 384.258 0 0 0 -58-4.344c-53.205 0-104.172 10.749-139.833 29.492-31.736 16.678-49.113 38.706-49.202 62.041 0 .029.135.056.135.084v.1c0 .021-.136.041-.135.062 0 .04-.069.08-.068.112a54.682 54.682 0 0 0 8.947 28.716 77.367 77.367 0 0 0 10.483 12.478 28.948 28.948 0 0 1 8.516 20.535l.8 187.545a10.405 10.405 0 0 0 10.185 10.368h415.508a10.415 10.415 0 0 0 10.186-10.348l1.309-187.441a29 29 0 0 1 8.869-20.411 78.507 78.507 0 0 0 10.46-12.4 54.922 54.922 0 0 0 9.169-28.646c.02-.2.03-.411.03-.614-.023-22.762-16.708-44.39-47.004-60.927zm34.993 60.881a42.913 42.913 0 0 1 -7.138 22.58 66.354 66.354 0 0 1 -8.862 10.455 41.471 41.471 0 0 0 -12.517 29.122l-1.296 185.749h-104.162l.551-78.958a6 6 0 0 0 -12-.084l-.551 79.042h-295.738l-.8-185.748a41.3 41.3 0 0 0 -12.161-29.2 65.891 65.891 0 0 1 -8.879-10.587 42.855 42.855 0 0 1 -6.97-22.4c.075-18.671 15.312-36.958 42.925-51.465 34-17.867 82.929-28.122 134.258-28.122 51.6 0 100.7 10.309 134.723 28.293l1.349.781c26.353 14.286 40.942 32.141 41.119 50.308 0 .08-.01.159-.012.238a42.914 42.914 0 0 1 -7.139 22.58 66.292 66.292 0 0 1 -8.862 10.455 41.194 41.194 0 0 0 -12.516 29l-.466 66.83a6 6 0 0 0 6 6.042 6 6 0 0 0 6-5.958l.467-66.836a29 29 0 0 1 8.873-20.409 78.546 78.546 0 0 0 10.456-12.402 54.843 54.843 0 0 0 9.1-28.457 6.172 6.172 0 0 0 0-.769v-.1c0-.206.047-.409.027-.61-.352-22.521-16.963-43.885-46.963-60.259l-1.831-1.059a225.535 225.535 0 0 0 -44.133-17.156q9.9-.508 19.969-.523c51.6 0 100.7 10.313 134.723 28.3l1.349.785c26.354 14.286 40.943 32.14 41.12 50.308-.006.076-.01.155-.013.234z"/><path d="m85.455 162.652a14.9 14.9 0 1 0 14.895 14.9 14.912 14.912 0 0 0 -14.895-14.9zm0 17.79a2.9 2.9 0 1 1 2.895-2.9 2.9 2.9 0 0 1 -2.895 2.9z"/><path d="m277.431 202.415a18.946 18.946 0 1 0 18.946 18.946 18.968 18.968 0 0 0 -18.946-18.946zm0 25.892a6.946 6.946 0 1 1 6.946-6.946 6.954 6.954 0 0 1 -6.946 6.946z"/><path d="m157.687 121.771a17.124 17.124 0 1 0 17.124 17.129 17.144 17.144 0 0 0 -17.124-17.129zm0 22.248a5.124 5.124 0 1 1 5.124-5.124 5.13 5.13 0 0 1 -5.124 5.124z"/><path d="m203.639 180.465a14.9 14.9 0 1 0 14.9 14.9 14.912 14.912 0 0 0 -14.9-14.9zm0 17.791a2.9 2.9 0 1 1 2.9-2.9 2.9 2.9 0 0 1 -2.9 2.9z"/><path d="m290.011 136.048a16.872 16.872 0 1 0 16.872 16.872 16.891 16.891 0 0 0 -16.872-16.872zm0 21.744a4.872 4.872 0 1 1 4.872-4.872 4.878 4.878 0 0 1 -4.872 4.872z"/><path d="m129.639 233.465a14.9 14.9 0 1 0 14.9 14.9 14.912 14.912 0 0 0 -14.9-14.9zm0 17.791a2.9 2.9 0 1 1 2.9-2.9 2.9 2.9 0 0 1 -2.9 2.9z"/><path d="m66.08 305h-.038a5.988 5.988 0 0 0 -5.963 6.038l.056 9a6 6 0 0 0 6 5.962h.038a5.986 5.986 0 0 0 5.962-6.037l-.056-9a6 6 0 0 0 -5.999-5.963z"/><path d="m66.022 297h.031a5.989 5.989 0 0 0 5.97-6.029l-.29-57.088a64.163 64.163 0 0 0 -19.133-45.436 42.609 42.609 0 0 1 -5.771-6.792 19.8 19.8 0 0 1 -3.111-10.115 6 6 0 0 0 -11.988.54 31.763 31.763 0 0 0 5.114 16.231 54.494 54.494 0 0 0 7.392 8.741 52.1 52.1 0 0 1 15.494 36.9l.289 57.082a6 6 0 0 0 6.003 5.966z"/></g></svg>