<svg id="Layer_1" enable-background="new 0 0 512 512" height="512" viewBox="0 0 512 512" width="512" xmlns="http://www.w3.org/2000/svg"><g><g><path d="m181.072 75.489-35 31.6-39.51 35.67c-34.13-3.44-60.76-32.25-60.76-67.27 0-31.3 21.26-57.62 50.13-65.33 5.58-1.49 11.45-2.29 17.5-2.29 37.36 0 67.64 30.27 67.64 67.62z" fill="#77e0ab"/><path d="m146.072 107.089v-31.6c0-31.3-21.27-57.63-50.14-65.33 5.58-1.49 11.45-2.29 17.5-2.29 37.36 0 67.64 30.27 67.64 67.62z" fill="#65c1b0"/><path d="m286.042 379.639c-6.81 0-13.03-.84-18.69-2.42-49.34-13.62-56.89-81.87-56.28-121.64h149.94c.68 44.33-8.77 124.06-74.97 124.06z" fill="#dcf8ff"/><path d="m286.042 379.639c-6.81 0-13.03-.84-18.69-2.42 48.07-13.57 56.73-81.16 56.69-121.64h36.97c.68 44.33-8.77 124.06-74.97 124.06z" fill="#d2e1f9"/><path d="m466.112 127.689c.11 52.99-24.4 130.74-167.89 134.88-3.97.12-8.03.18-12.18.18-122.77 0-164.24-51.04-176-99.33-10.56-43.35 2.83-84.49 2.83-84.49s150.95-6.68 309.48-1.44c12.26.41 24.58.88 36.87 1.44 0 0 6.83 20.98 6.89 48.76z" fill="#dcf8ff"/><path d="m466.112 127.689c.11 52.99-24.4 130.74-167.89 134.88 137.99-53.18 130.21-154 124.13-185.08 12.26.41 24.58.88 36.87 1.44 0 0 6.83 20.98 6.89 48.76z" fill="#d2e1f9"/><path d="m466.112 127.689c.11 52.99-24.4 130.74-167.89 134.88-3.97.12-8.03.18-12.18.18-122.77 0-164.24-51.04-176-99.33 0 0 37.27-43 89.7-43 68.87 0 76.37 38.26 134.98 38.26 49.84 0 62.29-15.18 87.66-24.29 10.88-3.9 24.13-6.69 43.72-6.69z" fill="#ffe878"/><path d="m466.112 127.689c.11 52.99-24.4 130.74-167.89 134.88 87.14-33.58 116.15-86.16 124.16-128.18 10.88-3.9 24.13-6.69 43.72-6.69z" fill="#ffd37b"/></g><g><path d="m466.35 76.607c-.967-2.97-3.673-5.03-6.793-5.171-34.344-1.555-68.944-2.483-102.301-2.973 5.415-11.365 15.136-30.484 27.225-48.688 7.653-1.151 27.997-3.978 48.081-4.78 4.139-.166 7.359-3.655 7.194-7.794-.165-4.138-3.638-7.345-7.794-7.194-26.251 1.05-52.018 5.284-53.102 5.463-2.022.335-3.819 1.483-4.973 3.178-16.265 23.888-28.448 49.373-33.095 59.607-58.284-.622-111.889.03-152.486.902-3.226-38.47-35.573-68.789-74.871-68.789-10.667 0-20.977 2.191-30.643 6.513-3.782 1.69-5.477 6.126-3.786 9.908 1.69 3.781 6.126 5.478 9.908 3.786 7.728-3.455 15.978-5.207 24.521-5.207 31.139 0 56.826 23.784 59.839 54.135-37.087.911-60.106 1.906-60.735 1.934-3.124.138-5.833 2.199-6.801 5.172-.564 1.732-8.272 26.09-7.254 57.139-26.296-6.655-45.184-30.313-45.184-58.263 0-11.725 3.375-23.084 9.762-32.85 2.267-3.467 1.294-8.115-2.172-10.382-3.467-2.267-8.115-1.294-10.382 2.172-7.987 12.213-12.208 26.411-12.208 41.06 0 36.66 26.014 67.411 61.443 73.878 2.463 18.888 8.675 39.135 21.665 57.701 2.375 3.394 7.051 4.22 10.445 1.845s4.22-7.051 1.845-10.445c-7.342-10.494-12.209-21.736-15.316-32.951 9.091-9.18 40.536-37.592 81.365-37.592 33.932 0 51.416 9.417 69.926 19.388 17.223 9.277 35.032 18.87 65.046 18.87 12.564 0 23.521-.922 33.494-2.82 4.069-.774 6.74-4.7 5.967-8.77-.774-4.069-4.706-6.743-8.77-5.966-9.039 1.719-19.078 2.555-30.691 2.555-26.231 0-40.922-7.913-57.933-17.076-18.433-9.929-39.325-21.182-77.039-21.182-38.981 0-69.646 21.787-84.879 35.258-3.648-27.216 1.239-51.805 3.777-61.98 30.544-1.19 184.379-6.536 334.793-.02 1.624 6.508 4.214 18.93 4.909 34.171-28.519 1.13-43.479 8.478-57.986 15.603l-.151.074c-3.718 1.826-5.251 6.32-3.425 10.039 1.304 2.654 3.967 4.195 6.737 4.195 1.109 0 2.237-.247 3.301-.77l.151-.075c13.549-6.655 26.414-12.973 51.383-14.053-.949 20.666-6.165 44.168-21.066 64.643-26.683 36.66-77.569 55.248-151.247 55.248-56.011 0-99.155-10.857-128.233-32.271-3.334-2.457-8.031-1.744-10.486 1.592-2.457 3.335-1.744 8.03 1.592 10.486 15.019 11.06 33.274 19.537 54.628 25.398.056 29.791 4.734 78.702 31.992 106.382 11.592 11.771 26.033 18.47 43.008 19.972v110.148c-48.945-.51-105.341-5.719-105.934-5.774-4.123-.384-7.779 2.647-8.164 6.771-.384 4.124 2.647 7.779 6.771 8.164.63.059 63.635 5.879 114.827 5.879 51.191 0 114.197-5.82 114.827-5.879 4.124-.385 7.156-4.04 6.771-8.164-.385-4.125-4.056-7.156-8.164-6.771-.594.055-56.975 5.264-105.935 5.774v-110.147c16.902-1.496 31.293-8.145 42.86-19.823 2.915-2.943 2.893-7.692-.05-10.607-2.944-2.915-7.692-2.894-10.606.051-10.468 10.568-23.455 15.704-39.704 15.704-16.31 0-29.335-5.175-39.82-15.822-23.025-23.38-27.217-67.598-27.639-92.267 20.119 4.128 42.636 6.204 67.459 6.204 24.877 0 47.38-2.063 67.462-6.169-.284 17.303-2.378 43.15-10.99 65.192-1.508 3.858.397 8.208 4.256 9.715.896.35 1.819.516 2.728.516 2.999 0 5.831-1.811 6.987-4.772 9.726-24.892 12.021-53.268 12.057-74.232 35.977-9.855 63.071-27.155 80.948-51.773 40.863-56.271 17.857-129.053 16.858-132.123z"/><path d="m186.192 186.9c0-4.142-3.358-7.5-7.5-7.5s-7.5 3.358-7.5 7.5 3.358 7.5 7.5 7.5 7.5-3.358 7.5-7.5z"/><circle cx="224.092" cy="165.52" r="7.5"/><circle cx="300.781" cy="212.46" r="7.5"/></g></g></svg>