<svg id="Layer_1" height="512" viewBox="0 0 512 512" width="512" xmlns="http://www.w3.org/2000/svg" data-name="Layer 1"><circle cx="256" cy="256" fill="#fb6771" r="234.54"/><path d="m61.46 256c0-122.792 94.373-223.532 214.54-233.683-6.6-.557-13.262-.857-20-.857-129.53 0-234.54 105.01-234.54 234.54s105.01 234.54 234.54 234.54c6.738 0 13.4-.3 20-.858-120.167-10.15-214.54-110.89-214.54-233.682z" fill="#e75163"/><path d="m439.32 159.59v55.75h-24.19v-35.44-20.31z" fill="#b0b5ca"/><path d="m239.44 226.86 28.99 42.61a37.07 37.07 0 0 1 -35.75-9.6l-10.19-10.18 8.28-22.83z" fill="#4a5160"/><path d="m122.78 226.86-50.1 138.21h107.98l50.11-138.21z" fill="#9ac5a1"/><path d="m101.72 179.9v19.07l21.06 27.89h292.35v-46.96z" fill="#6d7486"/><path d="m116.41 146.93h298.72v32.97h-298.72z" fill="#4a5160"/><path d="m165.36 307.95-10.15 26.8h-71.54l9.75-26.9.27.1z" fill="#75967a"/><path d="m175.69 280.68-10.33 27.27h-71.67l-.27-.1 9.92-27.35.49.18z" fill="#607c63"/><path d="m185.85 253.87-10.16 26.81h-71.86l-.49-.18 9.68-26.73.27.1z" fill="#75967a"/><path d="m122.78 226.86-50.1 138.21h30l50.1-138.21z" fill="#aad6af"/><path d="m131.72 198.97v-19.07h-15.31-14.69v19.07l21.06 27.89h30z" fill="#8890a0"/><path d="m146.41 179.9v-32.97h-30v32.97h15.31z" fill="#666f7f"/><path d="m93.69 307.95-.27-.1-9.75 26.9h30l9.714-26.8z" fill="#97ba9b"/><path d="m123.384 307.95.036-.1 9.855-27.17h-29.445l-.49-.18-9.92 27.35.27.1z" fill="#84a587"/><path d="m133.275 280.68.065-.18 9.644-26.63h-29.694l-.27-.1-9.68 26.73.49.18z" fill="#97ba9b"/><g fill="#284268"><path d="m153.067 194.85h-4.06a6 6 0 0 0 0 12h4.06a6 6 0 0 0 0-12z"/><path d="m256 15.463a240.537 240.537 0 0 0 -170.085 410.622 240.537 240.537 0 1 0 340.17-340.17 238.958 238.958 0 0 0 -170.085-70.452zm-228.537 240.537a228.536 228.536 0 0 1 385.837-165.786l-50.715 50.715h-246.177a6 6 0 0 0 -6 6v26.971h-8.683a6 6 0 0 0 -6 6v19.076a6 6 0 0 0 1.212 3.616l19.1 25.284-48.996 135.149a6 6 0 0 0 5.641 8.045h59.763l-42.231 42.23a226.95 226.95 0 0 1 -62.751-157.3zm147.92-49.15h121.282l-14.006 14h-156.887l-18.047-23.894v-11.056h209.893l-10.669 10.669a5.976 5.976 0 0 0 -4.2-1.716h-127.366a6 6 0 0 0 0 12zm-30.938 152.22h-63.207l6.64-18.315h67.332a6 6 0 0 0 5.611-3.874l30.64-80.881a6 6 0 0 0 -5.611-8.125h-64.3l5.444-15.019h95.217l-27.552 76zm40.563-23.594-8.553 23.594h-15.041zm-18-48.8-5.783 15.266h-59.279l5.534-15.266zm-55.175-12 5.367-14.807h59.96l-5.609 14.807zm44.846 39.266-5.61 14.808h-58.841l5.372-14.803zm68.24-53.351 3.522 3.521a42.667 42.667 0 0 0 5.99 4.971l-19.749 19.748zm4.516-12.454 5.541-15.287h1.291l13.927 20.468-7.084 7.084a30.864 30.864 0 0 1 -6.185-4.775zm16.387 26.524a43.289 43.289 0 0 0 13.1 2.046 42.825 42.825 0 0 0 11.059-1.451 6 6 0 0 0 3.412-9.171l-7.693-11.301 14.522-14.521-.469 24.094a34.852 34.852 0 0 1 -34.666 34h-22.957zm4.96-41.811h19.88l-11.83 11.831zm7.154 31.844c-.673-.021-1.343-.072-2.011-.136l1.141-1.142zm-135.528-90.794v-20.971h228.178l-20.968 20.971zm212.18 12h74.543v34.958h-109.5zm12-12 20.968-20.968h41.575v20.968zm71.012 243.7a228.538 228.538 0 0 1 -318.9 4.185l50.716-50.716h31.248a6 6 0 0 0 5.641-3.955l18.727-51.661 5.1-5.1h34.957a46.915 46.915 0 0 0 46.664-45.763l.617-31.736h122.761a6 6 0 0 0 6-6v-5.519h18.187a6 6 0 0 0 6-6v-55.75a6 6 0 0 0 -6-6h-18.187v-6.656a6 6 0 0 0 -6-6h-35.575l42.23-42.23a228.537 228.537 0 0 1 -4.186 318.901zm3.53-208.265v-43.75h12.187v43.751z"/></g></svg>