<svg id="Layer_1" enable-background="new 0 0 512 512" height="512" viewBox="0 0 512 512" width="512" xmlns="http://www.w3.org/2000/svg"><g><g><path d="m475.68 284.9c0 105.45-8.69 210.91-8.69 210.91s-13.15 1.08-34.81 2.49c-39.69 2.56-107.93 6.2-176.17 6.2-50.73 0-101.46-2.01-140.46-4.1-41.1-28.42-65.94-61.67-75.14-75.37-2.08-38.95-4.09-89.54-4.09-140.13 0-42.23 1.4-84.47 3.07-119.93 2.5-53.08 5.63-90.99 5.63-90.99s105.49-8.69 210.99-8.69c68.24 0 136.48 3.64 176.17 6.21 21.66 1.4 34.81 2.48 34.81 2.48s3.12 37.89 5.63 90.96c1.67 35.47 3.06 77.71 3.06 119.96z" fill="#dcf8ff"/><path d="m472.62 164.94c1.67 35.47 3.06 77.71 3.06 119.96 0 105.45-8.69 210.91-8.69 210.91s-13.15 1.08-34.81 2.49c2.03-26.99 8.5-120.2 8.5-213.4 0-93.21-6.47-186.41-8.5-213.4 21.66 1.4 34.81 2.48 34.81 2.48s3.12 37.89 5.63 90.96z" fill="#d2e1f9"/><path d="m115.55 500.4c-41.1-28.42-65.94-61.67-75.14-75.37 0 0 37.13-3.29 74.69-2.25 0 0 2.45 34.77.45 77.62z" fill="#d2e1f9"/><path d="m472.62 164.94-.12.01s-13.15-1.05-34.88-2.44c-40.59-2.56-111.11-6.25-181.62-6.25-108.25 0-216.5 8.69-216.5 8.69l-.11.02c2.5-53.08 5.63-90.99 5.63-90.99s105.49-8.69 210.99-8.69c68.24 0 136.48 3.64 176.17 6.21 21.66 1.4 34.81 2.48 34.81 2.48s3.12 37.89 5.63 90.96z" fill="#ff5f85"/><path d="m466.99 73.98s3.12 37.89 5.63 90.96l-.12.01s-13.15-1.05-34.88-2.44c-1.96-42.66-4.35-76.46-5.44-91.01 21.66 1.4 34.81 2.48 34.81 2.48z" fill="#b2527e"/></g><g><path d="m344.389 495.257c-31.398 1.156-61.135 1.743-88.384 1.743-40.231 0-84.825-1.244-132.659-3.699 1.419-39.376-.74-70.716-.762-71.047-.271-3.848-3.417-6.863-7.273-6.97-27.399-.762-54.829.78-67.816 1.684-2.442-47.759-3.679-92.155-3.679-132.066 0-15.292.187-31.493.554-48.154.092-4.141-3.191-7.572-7.333-7.664-4.131-.097-7.572 3.192-7.663 7.333-.37 16.771-.558 33.083-.558 48.485 0 42.303 1.38 89.584 4.101 140.528.072 1.351.508 2.657 1.263 3.78 9.059 13.495 34.706 48.046 77.102 77.361 1.142.789 2.479 1.246 3.864 1.32 50.904 2.727 98.297 4.109 140.861 4.109 27.433 0 57.354-.59 88.937-1.752 4.139-.153 7.371-3.632 7.219-7.771-.156-4.14-3.631-7.383-7.774-7.22zm-290.087-63.705c12.646-.781 32.822-1.715 53.7-1.417.496 10.239 1.224 31.042.563 55.898-25.639-19.694-43.7-40.566-54.263-54.481z"/><path d="m474.47 73.365c-.301-3.656-3.203-6.558-6.859-6.859-.44-.036-19.073-1.553-48.222-3.312 2.298-22.431-1.266-39.304-10.629-50.229-9.669-11.28-22.668-12.965-29.556-12.965-9.998 0-18.583 3.596-24.826 10.399-9.18 10.005-12.85 26.526-10.908 49.104-15.818-.577-32.412-1.054-49.316-1.356 1.629-20.318-1.945-35.657-10.658-45.67-4.955-5.692-14.145-12.477-29.792-12.477-9.998 0-18.583 3.596-24.826 10.399-8.995 9.803-12.7 25.863-11.019 47.748-16.906.302-33.502.78-49.322 1.357 1.888-20.891-1.601-36.633-10.408-46.871-4.958-5.763-14.173-12.633-29.925-12.633-9.998 0-18.583 3.596-24.826 10.399-9.182 10.007-12.852 26.532-10.908 49.117.107 1.24.228 2.462.364 3.665-29.271 1.764-47.992 3.288-48.434 3.324-3.656.301-6.558 3.202-6.859 6.858-.046.553-4.593 56.137-7.09 125.927-.148 4.139 3.088 7.615 7.227 7.763 4.167.155 7.616-3.087 7.764-7.227.344-9.604.726-18.936 1.13-27.89 24.904-1.834 117.699-8.177 209.431-8.177 22.072 0 45.861.367 70.705 1.092 4.114.128 7.594-3.137 7.716-7.278.12-4.141-3.138-7.595-7.278-7.715-24.989-.729-48.925-1.099-71.143-1.099-90.089 0-181.16 6.082-208.713 8.085 1.792-35.883 3.795-63.887 4.705-75.884 8.065-.609 23.366-1.71 43.469-2.91 4.01 15.979 11.366 27.607 21.972 34.684 8.752 5.839 18.029 7.372 25.356 7.372 7.762 0 13.335-1.72 13.773-1.859 3.947-1.256 6.129-5.475 4.872-9.422-1.256-3.947-5.477-6.128-9.421-4.872-.14.045-14.358 4.242-26.256-3.696-6.855-4.574-11.876-12.306-15.014-23.083 30.533-1.681 68.993-3.371 109.111-4.059 3.674 18.538 11.408 31.833 23.077 39.62 8.752 5.839 18.029 7.372 25.356 7.372 7.762 0 13.335-1.72 13.773-1.859 3.947-1.256 6.129-5.475 4.872-9.422-1.256-3.947-5.477-6.128-9.421-4.872-.141.045-14.358 4.242-26.256-3.696-7.729-5.157-13.127-14.329-16.121-27.352 6.941-.072 13.907-.11 20.866-.11 30.667 0 61.458.746 89.657 1.801 3.787 17.767 11.416 30.562 22.773 38.14 8.752 5.839 18.029 7.372 25.356 7.372 7.762 0 13.335-1.72 13.773-1.859 3.947-1.256 6.129-5.475 4.872-9.422-1.256-3.947-5.477-6.128-9.421-4.872-.14.045-14.358 4.242-26.256-3.696-7.263-4.846-12.468-13.238-15.554-25.04 46.801 1.991 84.381 4.656 98.81 5.745.905 11.982 2.897 39.937 4.688 75.881-15.716-1.146-52.047-3.62-96.761-5.517-4.136-.194-7.636 3.037-7.812 7.175s3.037 7.636 7.175 7.811c46.369 1.968 83.655 4.556 98.114 5.624 1.534 34.027 2.765 73.597 2.765 112.967 0 89.27-6.33 179.583-8.169 203.933-12.341.934-41.605 3.024-78.829 4.843-4.137.202-7.327 3.72-7.125 7.857.196 4.013 3.511 7.135 7.485 7.134.123 0 .247-.003.372-.009 49.709-2.428 85.338-5.343 85.691-5.372 3.656-.301 6.559-3.203 6.859-6.859.087-1.058 8.715-106.978 8.715-211.527.004-104.564-8.624-210.484-8.711-211.541zm-367.054-15.136c-1.547-17.969.878-31.001 7.015-37.688 3.373-3.677 8.008-5.541 13.773-5.541 8.079 0 14.321 2.495 18.554 7.415 6.237 7.251 8.507 20.207 6.649 37.679-16.463.683-31.849 1.454-45.574 2.218-.159-1.331-.298-2.691-.417-4.083zm125.474-.302c-1.494-17.813.938-30.737 7.04-37.386 3.373-3.677 8.008-5.541 13.773-5.541 8.03 0 14.246 2.464 18.476 7.325 6.029 6.927 8.395 19.16 6.94 35.603-7.683-.087-15.402-.134-23.113-.134-7.713-.001-15.432.046-23.116.133zm125.526.302c-1.547-17.969.878-31.001 7.015-37.688 3.373-3.677 8.008-5.541 13.773-5.541 4.312 0 12.405 1.004 18.166 7.726 6.595 7.696 8.992 21.307 7.028 39.599-13.785-.768-29.252-1.544-45.808-2.231-.062-.616-.121-1.237-.174-1.865z"/><path d="m331.044 417.853c.2.016.399.023.597.023 3.875 0 7.159-2.982 7.469-6.912 7.537-95.66.073-185.977-.003-186.878-.349-4.127-3.979-7.19-8.105-6.84-4.128.349-7.19 3.978-6.842 8.105.075.889 7.435 90.04-.003 184.435-.325 4.13 2.758 7.741 6.887 8.067z"/><path d="m232.092 232.219c25.432 0 38.971 15.191 42.837 28.199 1.181 3.97 5.355 6.235 9.326 5.052 3.971-1.18 6.232-5.355 5.053-9.326-7.029-23.646-29.487-38.926-57.216-38.926-21.894 0-38.39 5.786-49.031 17.196-12.967 13.903-11.938 30.927-11.888 31.645.275 3.956 3.573 7.007 7.479 7.006.174 0 .35-.006.526-.019 4.132-.288 7.25-3.843 6.961-7.975-.025-.468-.519-11.553 8.048-20.593 7.708-8.134 20.462-12.259 37.905-12.259z"/><path d="m183.061 400.68c10.642 11.41 27.138 17.196 49.031 17.196 21.806 0 35.59-8.84 43.313-16.257 10.146-9.742 15.965-23.138 15.965-36.753 0-14.835-6.628-28.43-18.663-38.278-4.383-3.586-9.423-6.612-15.047-9.055 10.04-4.363 18.205-10.558 24.062-18.41 2.477-3.32 1.792-8.02-1.528-10.496-3.318-2.476-8.02-1.792-10.495 1.528-9.567 12.828-28.236 19.892-52.568 19.892-4.143 0-7.5 3.358-7.5 7.5s3.357 7.5 7.5 7.5c19.632 0 35.565 4.547 46.077 13.149 8.488 6.945 13.163 16.417 13.163 26.669 0 18.426-15.519 38.01-44.278 38.01-17.443 0-30.197-4.125-37.904-12.26-8.528-9-8.077-20.027-8.048-20.586.26-4.111-2.848-7.667-6.963-7.954-4.116-.277-7.716 2.827-8.004 6.959-.051.719-1.08 17.742 11.887 31.646z"/></g></g></svg>