<svg id="Layer_1" height="512" viewBox="0 0 512 512" width="512" xmlns="http://www.w3.org/2000/svg" data-name="Layer 1"><path d="m455.69 53.13a25.965 25.965 0 0 1 0 36.71l-9.94 9.93-36.7-36.7 9.93-9.94a25.971 25.971 0 0 1 36.71 0z" fill="#75967a"/><path d="m393.259 69.607h39.997v51.905h-39.997z" fill="#9ac5a1" transform="matrix(.707 -.707 .707 .707 53.469 320.206)"/><path d="m417.47 128.05-28.29 28.29-36.7-36.71 28.28-28.28z" fill="#75967a"/><path d="m352.48 119.63-28.28 28.29 22.56 22.56.37.36c.24-.27.49-.53.75-.79l31.58-3.99 9.72-9.72z" fill="#9ac5a1"/><path d="m346.76 170.48-22.56-22.56-35.36 35.35 36.7 36.71 18.36-18.36 3.23-30.78z" fill="#75967a"/><path d="m288.84 183.27 36.7 36.71-238.89 238.89a25.954 25.954 0 0 1 -36.7-36.71z" fill="#6d7486"/><path d="m462.05 247.51a25.951 25.951 0 1 1 -36.7 36.7l-77.47-77.46a25.949 25.949 0 0 1 -.75-35.91c.24-.27.49-.53.75-.79a25.953 25.953 0 0 1 31.58-3.99 26.242 26.242 0 0 1 5.13 3.99z" fill="#6d7486"/><g fill="#284268"><path d="m248.961 242.065-4.862 4.862a6 6 0 0 0 8.485 8.486l4.862-4.862a6 6 0 0 0 -8.485-8.486z"/><path d="m230.527 260.5-106.263 106.263a6 6 0 0 0 8.485 8.485l106.263-106.263a6 6 0 0 0 -8.485-8.485z"/><path d="m388.829 165.8c-.1-.1-.214-.2-.32-.305l71.419-71.419a31.953 31.953 0 1 0 -45.189-45.186l-369.031 369.031a31.953 31.953 0 1 0 45.192 45.189l252.435-252.438c.1.1.2.215.305.32l77.46 77.463a31.953 31.953 0 1 0 45.189-45.189zm34.395-108.425a19.954 19.954 0 0 1 28.219 28.219l-5.69 5.69-28.218-28.219zm-14.175 14.176 28.218 28.218-19.8 19.8-28.217-28.219zm-28.284 28.284 28.218 28.218-19.8 19.8-28.218-28.218zm-298.353 354.79a19.954 19.954 0 0 1 -28.219-28.219l234.648-234.647 28.218 28.218zm254.2-254.2-11.071 11.072-28.219-28.219 26.878-26.878 14.986 14.986a32.026 32.026 0 0 0 -2.566 29.031zm-3.934-52.5 19.8-19.8 28.222 28.212-2.441 2.441a32.026 32.026 0 0 0 -30.89 3.826zm125.129 132.044a19.978 19.978 0 0 1 -28.219 0l-77.463-77.463a19.953 19.953 0 1 1 28.219-28.218l77.463 77.463a19.977 19.977 0 0 1 0 28.218z"/></g></svg>