<svg id="Capa_1" enable-background="new 0 0 513.087 513.087" height="512" viewBox="0 0 513.087 513.087" width="512" xmlns="http://www.w3.org/2000/svg"><g><g><path d="m449.495 355.375-8.921 15.119c-6.627 11.23-18.695 18.122-31.735 18.122h-305.59c-13.04 0-25.108-6.892-31.735-18.122l-8.921-15.119-13.814-22.792h413.577z" fill="#e4e1e5"/><g><circle cx="178.044" cy="218.053" fill="#fcf1de" r="93.002"/><path d="m122.259 221.827c0-48.2 36.668-87.835 83.631-92.534-8.792-2.755-18.145-4.243-27.845-4.243-51.364 0-93.002 41.638-93.002 93.002s41.638 93.002 93.002 93.002c3.163 0 6.289-.16 9.371-.468-37.761-11.833-65.157-47.096-65.157-88.759z" fill="#f6e2c4"/><circle cx="344.157" cy="217.473" fill="#fcf1de" r="93.002"/><path d="m289.357 218.053c0-42.817 27.708-79.253 66.436-92.859-3.817-.477-7.69-.723-11.636-.723-51.364 0-93.002 41.638-93.002 93.002s41.638 93.002 93.002 93.002c3.112 0 6.187-.156 9.22-.454-37.453-14.253-64.02-50.053-64.02-91.968z" fill="#f6e2c4"/><g><path d="m114.754 228.644c-3.206 0-6.173-2.072-7.165-5.296l-1.901-6.179c-1.219-3.959 1.003-8.156 4.962-9.374 3.963-1.218 8.156 1.003 9.374 4.963l1.901 6.179c1.219 3.959-1.003 8.156-4.962 9.374-.735.226-1.479.333-2.209.333z" fill="#f6e2c4"/></g><path d="m498.646 310.475h-484.205c-3.833 0-6.941 3.108-6.941 6.941v7.402c0 16.876 13.68 30.556 30.556 30.556h436.975c16.876 0 30.556-13.68 30.556-30.556v-7.402c.001-3.833-3.107-6.941-6.941-6.941z" fill="#f8f7f8"/><path d="m69.093 333.967c-14.443 0-26.537-10.024-29.726-23.492h-24.926c-3.833 0-6.941 3.108-6.941 6.941v7.402c0 16.876 13.681 30.556 30.556 30.556h436.975c13.688 0 25.273-9.001 29.162-21.408h-435.1z" fill="#efedee"/></g></g><g><path d="m343.658 183.282v-6.156c0-4.142-3.357-7.5-7.5-7.5s-7.5 3.358-7.5 7.5v6.156c0 4.142 3.357 7.5 7.5 7.5s7.5-3.358 7.5-7.5z"/><path d="m324.655 209.024-4.034-4.033c-2.931-2.93-7.68-2.928-10.606.001-2.929 2.929-2.929 7.678.001 10.606l4.034 4.033c1.465 1.464 3.384 2.196 5.303 2.196 1.92 0 3.84-.732 5.304-2.197 2.928-2.929 2.928-7.678-.002-10.606z"/><path d="m374.592 159.642-3.024-4.37c-2.356-3.405-7.027-4.256-10.436-1.898-3.405 2.357-4.256 7.029-1.898 10.436l3.024 4.37c1.456 2.104 3.795 3.232 6.174 3.232 1.472 0 2.959-.432 4.262-1.333 3.405-2.359 4.255-7.031 1.898-10.437z"/><path d="m358.013 227.206c1.357 0 2.732-.369 3.968-1.141 3.513-2.195 4.581-6.822 2.386-10.335l-3.361-5.378c-2.195-3.512-6.824-4.58-10.335-2.385-3.513 2.195-4.581 6.822-2.386 10.335l3.361 5.378c1.422 2.277 3.867 3.526 6.367 3.526z"/><path d="m380.398 195.874c1.245 2.789 3.983 4.444 6.853 4.444 1.021 0 2.061-.21 3.054-.653l4.37-1.951c3.782-1.689 5.479-6.124 3.791-9.906s-6.125-5.48-9.906-3.791l-4.37 1.951c-3.783 1.688-5.48 6.124-3.792 9.906z"/><path d="m303.702 163.331c-3.665-1.938-8.2-.54-10.138 3.12l-3.024 5.714c-1.938 3.661-.541 8.2 3.12 10.138 1.119.592 2.319.873 3.502.873 2.689 0 5.29-1.451 6.636-3.993l3.024-5.714c1.938-3.661.541-8.2-3.12-10.138z"/><path d="m295.351 258.24c.61.152 1.222.226 1.824.226 3.36 0 6.419-2.276 7.271-5.684l1.512-6.05c1.004-4.019-1.439-8.09-5.458-9.094-4.014-1.001-8.09 1.439-9.095 5.458l-1.512 6.05c-1.004 4.019 1.439 8.091 5.458 9.094z"/><path d="m327.587 258.464h4.369c4.143 0 7.5-3.358 7.5-7.5s-3.357-7.5-7.5-7.5h-4.369c-4.143 0-7.5 3.358-7.5 7.5s3.357 7.5 7.5 7.5z"/><path d="m290.888 208.278c0-4.142-3.357-7.5-7.5-7.5s-7.5 3.358-7.5 7.5v8.739c0 4.142 3.357 7.5 7.5 7.5s7.5-3.358 7.5-7.5z"/><path d="m382.878 257.624c4.143 0 7.5-3.358 7.5-7.5v-4.37c0-4.142-3.357-7.5-7.5-7.5s-7.5 3.358-7.5 7.5v4.37c0 4.142 3.357 7.5 7.5 7.5z"/><path d="m354.651 289.347c1.351 0 2.718-.365 3.949-1.129l6.722-4.173c3.52-2.185 4.601-6.809 2.416-10.328-2.186-3.519-6.81-4.6-10.328-2.416l-6.722 4.173c-3.52 2.185-4.601 6.809-2.416 10.328 1.421 2.288 3.872 3.545 6.379 3.545z"/><path d="m403.019 235.504c.422.071.841.105 1.255.105 3.595 0 6.77-2.592 7.387-6.255l1.133-6.722c.688-4.084-2.064-7.954-6.149-8.642-4.084-.691-7.953 2.065-8.642 6.149l-1.133 6.722c-.689 4.086 2.064 7.955 6.149 8.643z"/><path d="m147.705 206.452c1.919 0 3.839-.732 5.303-2.196 2.93-2.929 2.93-7.678.001-10.607l-4.353-4.353c-2.93-2.928-7.679-2.929-10.606 0-2.93 2.929-2.93 7.678-.001 10.607l4.353 4.353c1.464 1.464 3.383 2.196 5.303 2.196z"/><path d="m152.07 240.288h5.704c4.143 0 7.5-3.358 7.5-7.5s-3.357-7.5-7.5-7.5h-5.704c-4.143 0-7.5 3.358-7.5 7.5s3.358 7.5 7.5 7.5z"/><path d="m155.482 169.817c.454.083.905.123 1.351.123 3.555 0 6.712-2.539 7.37-6.16.741-4.075-1.962-7.979-6.037-8.72l-5.229-.951c-4.077-.74-7.979 1.962-8.721 6.038s1.962 7.979 6.037 8.72z"/><path d="m181.043 215.141 6.18 1.426c.567.131 1.135.193 1.693.193 3.414 0 6.501-2.346 7.301-5.815.932-4.036-1.585-8.063-5.621-8.995l-6.18-1.426c-4.035-.931-8.063 1.585-8.994 5.622-.932 4.036 1.585 8.063 5.621 8.995z"/><path d="m187.895 176.573c.882.337 1.786.497 2.677.497 3.019 0 5.865-1.836 7.007-4.823l1.709-4.469c1.479-3.869-.457-8.205-4.326-9.684-3.868-1.479-8.205.458-9.684 4.327l-1.709 4.469c-1.48 3.868.456 8.204 4.326 9.683z"/><path d="m120.023 212.758c-1.218-3.959-5.411-6.181-9.374-4.963-3.959 1.218-6.181 5.415-4.962 9.374l1.901 6.179c.992 3.225 3.959 5.296 7.165 5.296.73 0 1.474-.107 2.209-.333 3.959-1.218 6.181-5.415 4.962-9.374z"/><path d="m161.562 278.239c1.406 2.344 3.891 3.643 6.438 3.643 1.313 0 2.644-.345 3.852-1.069 3.552-2.131 4.704-6.738 2.573-10.29l-3.208-5.348c-2.131-3.553-6.739-4.704-10.29-2.573-3.552 2.131-4.704 6.738-2.573 10.29z"/><path d="m189.503 260.371c1.919 0 3.839-.732 5.304-2.197l3.09-3.09c2.929-2.929 2.929-7.678 0-10.606-2.93-2.929-7.678-2.929-10.607 0l-3.09 3.09c-2.929 2.929-2.929 7.678 0 10.606 1.464 1.465 3.384 2.197 5.303 2.197z"/><path d="m128.942 265.424c1.464 1.464 3.384 2.196 5.303 2.196s3.839-.732 5.304-2.197c2.929-2.929 2.929-7.678-.001-10.607l-6.18-6.179c-2.928-2.929-7.677-2.928-10.606 0-2.929 2.929-2.929 7.678.001 10.607z"/><path d="m224.916 215.778c1.919 0 3.839-.732 5.304-2.197 2.929-2.929 2.929-7.678 0-10.606l-3.09-3.09c-2.93-2.929-7.678-2.929-10.607 0s-2.929 7.678 0 10.606l3.09 3.09c1.464 1.464 3.384 2.197 5.303 2.197z"/><path d="m224.51 269.845c.575.135 1.148.199 1.715.199 3.405 0 6.487-2.335 7.296-5.793l1.802-7.705c.943-4.034-1.562-8.068-5.595-9.011-4.032-.943-8.067 1.562-9.011 5.595l-1.802 7.705c-.943 4.033 1.562 8.068 5.595 9.01z"/><path d="m498.646 302.975h-101.727c28.628-17.73 47.741-49.424 47.741-85.502 0-28.356-12.072-55.534-33.12-74.565-3.072-2.778-7.815-2.54-10.594.533-2.777 3.073-2.539 7.815.533 10.593 17.909 16.193 28.181 39.315 28.181 63.439 0 47.146-38.356 85.502-85.503 85.502-47.146 0-85.502-38.356-85.502-85.502s38.356-85.502 85.502-85.502c11.204 0 22.104 2.139 32.396 6.356 3.833 1.57 8.214-.263 9.783-4.096 1.571-3.833-.263-8.213-4.096-9.784-12.105-4.961-24.918-7.476-38.083-7.476-55.417 0-100.502 45.085-100.502 100.502 0 36.078 19.112 67.771 47.74 85.502h-61.046c5.761-3.572 11.2-7.746 16.225-12.502 3.009-2.848 3.139-7.595.292-10.603-2.85-3.009-7.597-3.138-10.603-.292-15.959 15.105-36.779 23.384-58.741 23.384-.368 0-.738-.002-1.107-.007-22.41-.284-43.482-9.17-59.335-25.022-33.338-33.337-33.338-87.582 0-120.918 15.853-15.852 36.925-24.739 59.335-25.022 22.396-.278 43.623 8.019 59.849 23.376 3.008 2.846 7.755 2.717 10.603-.292 2.847-3.009 2.717-7.755-.292-10.603-18.761-17.756-43.234-27.489-69.048-27.489-.432 0-.867.002-1.301.008-26.346.334-51.117 10.78-69.753 29.415-39.186 39.186-39.186 102.945 0 142.131 5.561 5.56 11.671 10.385 18.203 14.436h-40.14c-4.143 0-7.5 3.358-7.5 7.5s3.357 7.5 7.5 7.5h413.551v6.844c0 12.713-10.343 23.056-23.056 23.056h-106.911c-4.143 0-7.5 3.358-7.5 7.5s3.357 7.5 7.5 7.5h68.242l-2.246 3.807c-5.254 8.903-14.939 14.434-25.276 14.434h-305.59c-10.337 0-20.022-5.531-25.276-14.434l-2.246-3.807h260.432c4.143 0 7.5-3.358 7.5-7.5s-3.357-7.5-7.5-7.5h-298.103c-12.714 0-23.057-10.343-23.057-23.056v-6.844h37.573c4.143 0 7.5-3.358 7.5-7.5s-3.357-7.5-7.5-7.5h-38.132c-7.962 0-14.441 6.478-14.441 14.441v7.402c0 20.984 17.072 38.056 38.057 38.056h20.253l6.745 11.43c7.938 13.454 22.574 21.811 38.194 21.811h305.59c15.62 0 30.256-8.357 38.194-21.811l6.745-11.43h21.253c20.984 0 38.056-17.072 38.056-38.056v-7.402c0-7.963-6.478-14.441-14.441-14.441z"/></g></g></svg>