<svg id="Layer_1" height="512" viewBox="0 0 512 512" width="512" xmlns="http://www.w3.org/2000/svg" data-name="Layer 1"><path d="m440.043 304.171h-368.086a12.669 12.669 0 0 0 -12.68 12.67v7.66a12.659 12.659 0 0 0 11.9 12.65h64.823l40 40 40-40h224.823a12.659 12.659 0 0 0 11.9-12.65v-7.66a12.669 12.669 0 0 0 -12.68-12.67z" fill="#52ce58"/><path d="m463.293 174.849v56a23.175 23.175 0 0 1 -10.49-2.3c-11.11-5.471-14.49-18.831-30.97-18.831-20.731 0-20.731 21.131-41.461 21.131s-20.72-21.131-41.451-21.131-20.73 21.131-41.45 21.131-20.731-21.131-41.461-21.131-20.73 21.131-41.461 21.131-20.72-21.131-41.45-21.131-20.731 21.131-41.461 21.131-20.73-21.131-41.461-21.131c-16.49 0-19.87 13.36-30.98 18.831a23.175 23.175 0 0 1 -10.49 2.3v-56z" fill="#d05458"/><path d="m103.737 324.5v-7.66a12.669 12.669 0 0 1 12.68-12.67h-44.46a12.669 12.669 0 0 0 -12.68 12.67v7.66a12.659 12.659 0 0 0 11.9 12.65h44.46a12.659 12.659 0 0 1 -11.9-12.65z" fill="#48b74b"/><path d="m93.166 174.849h-44.459v56a23.175 23.175 0 0 0 10.49-2.3c11.11-5.471 14.49-18.831 30.98-18.831a27.487 27.487 0 0 1 2.989.171z" fill="#ad4955"/><path d="m447.853 265.84a22.339 22.339 0 0 0 -14.71-6.54h-354.696a22.451 22.451 0 0 0 1.16 44.871h352.376a22.451 22.451 0 0 0 15.87-38.331z" fill="#f7941e"/><path d="m391.442 75.5h-270.884a82.4 82.4 0 0 0 -82.411 82.411v16.941h435.707v-16.944a82.4 82.4 0 0 0 -82.412-82.408z" fill="#f39c4e"/><path d="m101.615 281.582a22.45 22.45 0 0 1 21.008-22.682l-44.457.557a22.451 22.451 0 0 0 1.723 44.853l44.457-.558a22.449 22.449 0 0 1 -22.731-22.17z" fill="#ef8a37"/><path d="m120.558 75.5a82.4 82.4 0 0 0 -82.411 82.411v16.941h44.459v-16.944a82.4 82.4 0 0 1 82.412-82.408z" fill="#ef8a37"/><path d="m216 337.151-40 40-40-40h-97.853v16.941a82.4 82.4 0 0 0 82.411 82.408h270.884a82.4 82.4 0 0 0 82.412-82.411v-16.938z" fill="#f39c4e"/><path d="m82.606 354.092v-16.941h-44.459v16.941a82.4 82.4 0 0 0 82.411 82.408h44.46a82.4 82.4 0 0 1 -82.412-82.408z" fill="#ef8a37"/><path d="m421.833 209.719c-20.73 0-20.73 21.131-41.461 21.131s-20.721-21.131-41.451-21.131-20.73 21.131-41.45 21.131-20.731-21.131-41.461-21.131-20.73 21.131-41.461 21.131-20.72-21.131-41.45-21.131-20.731 21.131-41.461 21.131-20.73-21.131-41.461-21.131c-16.49 0-19.87 13.36-30.98 18.831l.08.15v17.92a12.677 12.677 0 0 0 12.68 12.68h253.543a12.91 12.91 0 0 1 12.91 12.91v31.241c0 .24.01.48.02.72a16.371 16.371 0 0 0 32.711 0c.01-.24.02-.48.02-.72v-31.241a12.91 12.91 0 0 1 12.91-12.91h55.971a12.677 12.677 0 0 0 12.68-12.68v-17.92l.08-.15c-11.109-5.471-14.489-18.831-30.969-18.831z" fill="#ffe0b6"/><path d="m103.737 246.62v-17.92l-.08-.15a33.27 33.27 0 0 0 8.743-6.75c-5.732-5.736-10.868-12.079-22.227-12.079-16.49 0-19.87 13.36-30.98 18.831l.08.15v17.92a12.677 12.677 0 0 0 12.68 12.68h44.46a12.677 12.677 0 0 1 -12.676-12.682z" fill="#efcb8e"/><g fill="#284268"><path d="m224 92h-103.442a65.77 65.77 0 0 0 -61.722 43.989 6.2 6.2 0 0 0 5.66 8.18 6.212 6.212 0 0 0 5.66-4.227 53.724 53.724 0 0 1 50.402-35.942h103.442a6 6 0 0 0 0-12z"/><path d="m261.5 92h-15a6 6 0 0 0 0 12h15a6 6 0 0 0 0-12z"/><path d="m391.092 69h-270.534a88.818 88.818 0 0 0 -88.558 88.558v17.3a6.164 6.164 0 0 0 6.146 6.142h4.854v49.851a5.878 5.878 0 0 0 5.856 6 30.852 30.852 0 0 0 4.144-.278v10.05a18.331 18.331 0 0 0 7.06 14.459 28.532 28.532 0 0 0 -.083 41.329 18.771 18.771 0 0 0 -6.977 14.433v7.66a17.64 17.64 0 0 0 1.265 6.5h-16.119a6.253 6.253 0 0 0 -6.146 6.142v16.946c0 48.75 39.808 88.908 88.558 88.908h270.884c48.75 0 88.558-40.158 88.558-88.908v-16.946a6.253 6.253 0 0 0 -6.146-6.146h-16.119a17.64 17.64 0 0 0 1.265-6.5v-7.66a18.771 18.771 0 0 0 -6.977-14.433 28.421 28.421 0 0 0 -.234-41.507 18.9 18.9 0 0 0 7.211-14.856v-9.471a30.852 30.852 0 0 0 4.144.278 5.878 5.878 0 0 0 5.856-6v-49.851h4.854a6.164 6.164 0 0 0 6.146-6.146v-16.946a89.17 89.17 0 0 0 -88.908-88.908zm76.908 274v11.092c0 42.133-34.425 76.908-76.558 76.908h-270.884c-42.134 0-76.558-34.775-76.558-76.908v-11.092h89.515l38.242 38.316a6 6 0 0 0 8.486-.037l38.242-38.279zm-353-90h-43.044a6.976 6.976 0 0 1 -6.956-6.956v-13.938a53.476 53.476 0 0 0 8.726-7.618c4.994-5.09 8.6-8.768 16.449-8.768s11.455 3.678 16.449 8.768c5.4 5.508 12.129 12.363 25.014 12.363s19.609-6.851 25.012-12.364c4.993-5.09 8.6-8.767 16.446-8.767s11.453 3.677 16.446 8.767c5.4 5.509 12.129 12.364 25.013 12.364s19.608-6.855 25.011-12.364c4.993-5.09 8.6-8.767 16.445-8.767s11.452 3.677 16.445 8.767c5.4 5.509 12.128 12.364 25.012 12.364s19.606-6.855 25.009-12.364c4.992-5.09 8.6-8.767 16.442-8.767s11.451 3.677 16.444 8.767c5.4 5.509 12.128 12.364 25.012 12.364s19.608-6.855 25.012-12.364c4.993-5.09 8.6-8.767 16.445-8.767s11.451 3.677 16.444 8.767a53.547 53.547 0 0 0 8.724 7.618v14.518a6.377 6.377 0 0 1 -6.377 6.377h-56.548a19.131 19.131 0 0 0 -19.075 19.075v30.911a10.734 10.734 0 0 1 -9.305 10.772 10.5 10.5 0 0 1 -11.695-10.309v-31.237a19.269 19.269 0 0 0 -19.212-19.212h-169.788a6 6 0 0 0 0 12h170.5a6.5 6.5 0 0 1 6.5 6.5v26.5h-252.395a16.226 16.226 0 0 1 -16.248-16.363 16.609 16.609 0 0 1 16.643-16.364v-.273h35a6 6 0 0 0 0-12zm317.4 45h-55.4v-25.788a7.233 7.233 0 0 1 7.212-7.212h47.788v.273a16.61 16.61 0 0 1 16.644 16.364 16.227 16.227 0 0 1 -16.244 16.363zm14.6 18.844v7.66a6.661 6.661 0 0 1 -5.357 6.5h-225.643a6.076 6.076 0 0 0 -4.243 1.83l-35.757 35.79-35.757-35.812a6.057 6.057 0 0 0 -4.243-1.812h-65.643a6.661 6.661 0 0 1 -5.357-6.5v-7.66a7.072 7.072 0 0 1 6.956-6.84h261.25a22.16 22.16 0 0 0 20.24 15.636c10.447.482 19.519-5.636 22.51-15.636h64.088a7.072 7.072 0 0 1 6.956 6.844zm21-147.844h-39a6 6 0 0 0 0 12h28v42.943c-4-1.393-6.787-4.276-10.3-7.859-5.4-5.508-12.056-12.364-24.939-12.364s-19.572 6.856-24.976 12.364c-4.993 5.09-8.582 8.767-16.427 8.767s-11.443-3.677-16.436-8.767c-5.4-5.508-12.124-12.364-25.006-12.364s-19.605 6.856-25.007 12.364c-4.992 5.09-8.6 8.767-16.441 8.767s-11.452-3.677-16.445-8.767c-5.4-5.508-12.128-12.364-25.011-12.364s-19.612 6.856-25.012 12.364c-4.993 5.09-8.6 8.767-16.445 8.767s-11.453-3.677-16.447-8.767c-5.4-5.508-12.129-12.364-25.012-12.364s-19.609 6.856-25.012 12.364c-4.993 5.09-8.6 8.767-16.446 8.767s-11.455-3.678-16.449-8.768c-5.4-5.507-12.129-12.363-25.014-12.363s-19.467 6.856-24.875 12.364c-3.515 3.583-6.3 6.466-10.3 7.859v-42.943h334a6 6 0 0 0 0-12h-345v-11.092a77.135 77.135 0 0 1 76.908-76.908h270.534a76.783 76.783 0 0 1 76.558 76.558z"/></g></svg>