<svg id="Layer_1" height="512" viewBox="0 0 512 512" width="512" xmlns="http://www.w3.org/2000/svg" data-name="Layer 1"><path d="m93.379 138.651a142.847 142.847 0 0 0 48.73 271.79v.14a16.635 16.635 0 0 0 33.27 0v-21.03a17.335 17.335 0 1 1 34.67 0v48.07a16.635 16.635 0 0 0 33.27 0l4.11-277.4a142.923 142.923 0 0 0 -154.05-21.57zm98.32 167.32a53.56 53.56 0 1 1 0-75.74 53.559 53.559 0 0 1 .001 75.74z" fill="#f39c4e"/><path d="m82.829 369.091a142.735 142.735 0 0 1 86.014-243.015 142.819 142.819 0 1 0 -26.734 284.365s-34.37-16.441-59.28-41.35z" fill="#ef8a37"/><path d="m262.3 344.771q3.6 3.6 7.38 6.88a144.649 144.649 0 0 1 -26.02 27.49h-.34v-57.2l.28-.18a143.162 143.162 0 0 0 18.7 23.01z" fill="#ef8a37"/><path d="m210.049 389.551v9.88a142.135 142.135 0 0 1 -34.67 9.86v-19.74a17.335 17.335 0 1 1 34.67 0z" fill="#ef8a37"/><path d="m325.419 205.911a53.56 53.56 0 1 0 75.74 0 53.559 53.559 0 0 0 -75.74 0zm-22.58-91.57h.01a142.888 142.888 0 0 1 157.63 24.78 36.116 36.116 0 0 0 -6.77 29.97 47.626 47.626 0 0 0 16.55 77.43 36.091 36.091 0 0 0 30.74 35.2 142.846 142.846 0 0 1 -231.32 69.93q-3.78-3.285-7.38-6.88a142.663 142.663 0 0 1 -14.87-184.55 144.7 144.7 0 0 1 14.87-17.43 142.41 142.41 0 0 1 40.54-28.45z" fill="#ea836f"/><path d="m309.679 351.651q-3.78-3.285-7.38-6.88a142.663 142.663 0 0 1 -14.87-184.55 144.7 144.7 0 0 1 14.87-17.43 142.41 142.41 0 0 1 40.54-28.45h.01a142.486 142.486 0 0 1 40.4-11.971 143.144 143.144 0 0 0 -80.4 11.971h-.01a142.41 142.41 0 0 0 -40.54 28.45 144.7 144.7 0 0 0 -14.87 17.43 142.663 142.663 0 0 0 14.87 184.55q3.6 3.6 7.38 6.88a142.615 142.615 0 0 0 113.621 33.549 142.072 142.072 0 0 1 -73.621-33.549z" fill="#ea604e"/><g fill="#284268"><circle cx="255.463" cy="462.1" r="9"/><circle cx="142" cy="444" r="9"/><circle cx="269.836" cy="415.743" r="8"/><circle cx="100" cy="165" r="7"/><circle cx="164" cy="155" r="7"/><circle cx="202" cy="203" r="7"/><circle cx="169" cy="352" r="7"/><circle cx="220" cy="353" r="7"/><circle cx="211" cy="322" r="7"/><circle cx="90" cy="204" r="7"/><circle cx="202" cy="155" r="7"/><circle cx="139" cy="186" r="7"/><path d="m409.687 145a6 6 0 0 0 -6-6h-17.955a6 6 0 1 0 0 12h17.955a6 6 0 0 0 6-6z"/><path d="m463.726 264.106a6 6 0 0 0 -8.487-8.485l-10.911 10.912a6 6 0 0 0 8.486 8.485z"/><path d="m354.312 126h-13.465a6 6 0 0 0 0 12h13.465a6 6 0 0 0 0-12z"/><path d="m366 154.807a6 6 0 0 0 -6 6v13.465a6 6 0 0 0 12 0v-13.465a6 6 0 0 0 -6-6z"/><path d="m410.664 174.518-8.976 8.977a6 6 0 1 0 8.486 8.485l8.976-8.98a6 6 0 0 0 -8.486-8.485z"/><path d="m455 307.416a6 6 0 0 0 -6 6v17.954a6 6 0 0 0 12 0v-17.954a6 6 0 0 0 -6-6z"/><path d="m462.037 283a6 6 0 0 0 0 12h13.463a6 6 0 0 0 0-12z"/><path d="m441.592 237.357a6 6 0 0 0 -8.485 0l-4.488 4.489a6 6 0 0 0 8.485 8.485l4.488-4.488a6 6 0 0 0 0-8.486z"/><path d="m387.977 135.387a6 6 0 0 0 4.242-10.242l-6.734-6.733a6 6 0 1 0 -8.485 8.488l6.733 6.733a5.978 5.978 0 0 0 4.244 1.754z"/><path d="m501.82 275.839a30.093 30.093 0 0 1 -25.562-29.278 5.98 5.98 0 0 0 -3.719-5.532 41.3 41.3 0 0 1 -14.117-9.282 41.762 41.762 0 0 1 -.414-58.413 5.809 5.809 0 0 0 1.6-5.294 30.014 30.014 0 0 1 5.541-25.087 6.063 6.063 0 0 0 -.585-8.162 148.87 148.87 0 0 0 -163.8-26.034 5.841 5.841 0 0 0 -.641.291 147.654 147.654 0 0 0 -42.07 29.323 149.673 149.673 0 0 0 -11.731 13.2 148.653 148.653 0 0 0 -197.736 11.35c-58.024 58.025-58.024 152.438 0 210.463a148.923 148.923 0 0 0 88.165 42.606 22.618 22.618 0 0 0 44.27-1.512 135.3 135.3 0 0 0 22.976-6.2v29.4a22.5 22.5 0 1 0 45 0v-55.378a72.689 72.689 0 0 0 9.895-8.9 155.32 155.32 0 0 0 11.843-13.254 149.525 149.525 0 0 0 198.265-11.126v.03a150.654 150.654 0 0 0 38.025-65.695 6.357 6.357 0 0 0 -5.2-7.516zm-381.62 25.948a47.559 47.559 0 1 1 67.258 0 47.613 47.613 0 0 1 -67.258 0zm83.8 93.676a125.154 125.154 0 0 1 -23 6.714v-12.57a11.5 11.5 0 0 1 23 0zm46.4-30.556c-.41.411-.4.812-1.4 1.218v-27.185c2.859 3.4 5.866 6.706 9.055 9.894 1.188 1.189 2.4 2.344 3.618 3.485a146.921 146.921 0 0 1 -11.273 12.588zm209.637-24.314c-53.347 53.346-140.147 53.1-193.5-.245a136.577 136.577 0 0 1 -36.264-64.729 6 6 0 0 0 -5.83-4.619h-.043a6.012 6.012 0 0 0 -5.843 7.393 144.107 144.107 0 0 0 18.443 44.13v115.154a10.5 10.5 0 1 1 -21 0v-48.07a23.5 23.5 0 0 0 -47 0v21.028a10.488 10.488 0 0 1 -10.446 10.637 10.612 10.612 0 0 1 -10.594-10.609c0-.145.04-.289.04-.432v-82.815c2 .181 3.862.136 5.771.136a57.991 57.991 0 0 0 42.14-17.552h.014c23.221-23 23.228-60.872.006-84.094a59.612 59.612 0 0 0 -84.277 84.332 58.653 58.653 0 0 0 24.346 14.762v78.831a136.211 136.211 0 0 1 -78.979-38.931c-53.346-53.343-53.321-140.143.026-193.489a136.7 136.7 0 0 1 182.236-10.111 148.153 148.153 0 0 0 -24.669 75.486 6 6 0 0 0 11.992.423 136.371 136.371 0 0 1 74.225-115.254 10.49 10.49 0 0 1 -2.249 11.473l-40.45 40.45a16.711 16.711 0 1 0 23.633 23.634l32.822-32.822a4.712 4.712 0 0 1 6.665 6.663l-22.724 22.723a16.692 16.692 0 0 0 9.221 28.31 59.557 59.557 0 0 0 97.654 63.57 59.559 59.559 0 0 0 -84.228-84.23l-7.5 7.5a4.712 4.712 0 0 1 -6.663-6.665l22.724-22.723a16.711 16.711 0 1 0 -23.636-23.63l-32.821 32.822a4.712 4.712 0 0 1 -6.663-6.664l40.45-40.45a22.445 22.445 0 0 0 4.663-24.963 136.484 136.484 0 0 1 51.44-10.009 138.391 138.391 0 0 1 20.536 1.567 135.807 135.807 0 0 1 68.876 31.6 35.356 35.356 0 0 0 -3.581 7.889h-9.4a6 6 0 0 0 0 12h7.281a45.184 45.184 0 0 0 .4 7.242 53.684 53.684 0 0 0 17.216 83.344 42.161 42.161 0 0 0 28.934 35.574 136.918 136.918 0 0 1 -33.394 54.433zm-63.118-63.119a47.537 47.537 0 1 1 0-67.259 47.613 47.613 0 0 1 0 67.259z"/></g></svg>