<svg id="Layer_1" enable-background="new 0 0 512 512" height="512" viewBox="0 0 512 512" width="512" xmlns="http://www.w3.org/2000/svg"><g><g><path d="m303.96 456.524c0 26.49-21.47 47.98-47.96 47.98-4.87 0-9.57-.73-14-2.08-19.66-5.99-33.96-24.28-33.96-45.9z" fill="#ffc17d"/><path d="m303.96 456.524c0 26.49-21.47 47.98-47.96 47.98-4.87 0-9.57-.73-14-2.08 19.66-5.99 33.96-24.28 33.96-45.9z" fill="#ffaa80"/><path d="m448.72 446.564s-24.07 2.8-62.66 5.44c-34.17 2.32-79.74 4.52-130.06 4.52-107.14 0-192.72-9.96-192.72-9.96 35.43-12.27 46.66-42.19 48.33-80.25.67-15.23-.19-31.75-1.66-48.97-6.15-72.71-22.93-157.74 20.13-209.19l125.92-43.67 122.61 42.51 3.31 1.15c43.07 51.45 26.28 136.49 20.13 209.2-1.47 17.22-2.33 33.74-1.66 48.97 1.67 38.05 12.91 67.98 48.33 80.25z" fill="#ffe878"/><path d="m448.72 446.564s-24.07 2.8-62.66 5.44c-53.89-57.64 8.23-235.37-7.45-345.01l3.31 1.15c43.07 51.45 26.28 136.49 20.13 209.2-1.47 17.22-2.33 33.74-1.66 48.97 1.67 38.05 12.91 67.98 48.33 80.25z" fill="#ffd37b"/><path d="m400.39 366.314c-12.29 1.33-24.58 2.44-36.77 3.35-131.15 9.76-252.01-3.35-252.01-3.35.67-15.23-.19-31.75-1.66-48.97l.05-.05s122.9 13.18 255.94 3.26c11.97-.89 24.01-1.97 36.06-3.26l.05.05c-1.47 17.22-2.33 33.74-1.66 48.97z" fill="#77e0ab"/><path d="m400.39 366.314c-12.29 1.33-24.58 2.44-36.77 3.35-.1-15.39.84-31.92 2.32-49.11 11.97-.89 24.01-1.97 36.06-3.26l.05.05c-1.47 17.22-2.33 33.74-1.66 48.97z" fill="#65c1b0"/><g fill="#ff5f85"><path d="m234.02 91.344c-4.45 5.05-10.53 9.54-17.67 13.26-40.6 21.21-115.46 17.56-119.99-49.81-3.14-46.66 51.36-66.51 114.08-23.57 6.49 4.45 13.07 9.57 19.69 15.4z"/><path d="m415.63 54.794c-2.46 36.7-25.8 54.49-53.1 59.66-22.81 4.31-48.39-.19-66.88-9.84-7.14-3.72-13.22-8.22-17.68-13.27l3.89-44.72c6.62-5.83 13.2-10.95 19.69-15.4 27.09-18.55 52.65-25.38 72.69-23.39 26.36 2.6 43.17 20.46 41.39 46.96z"/></g><g fill="#b2527e"><path d="m415.63 54.794c-2.46 36.7-25.8 54.49-53.1 59.66 43.84-53.98 24.72-90.97 11.71-106.62 26.36 2.6 43.17 20.46 41.39 46.96z"/><path d="m230.13 46.624 3.89 44.72c-4.45 5.05-10.53 9.54-17.67 13.26-10.36-10.23-16.78-24.44-16.78-40.12 0-12.43 4.04-23.93 10.87-33.26 6.49 4.45 13.07 9.57 19.69 15.4z"/><path d="m312.43 64.484c0 15.68-6.42 29.89-16.78 40.13-7.14-3.72-13.22-8.22-17.68-13.27l3.89-44.72c6.62-5.83 13.2-10.95 19.69-15.4 6.84 9.33 10.88 20.83 10.88 33.26z"/></g><ellipse cx="256" cy="64.488" fill="#ff5f85" rx="31.435" ry="31.447"/></g><g><path d="m450.96 439.48c-52.434-18.18-46.003-80.656-38.556-152.998 3.353-32.581 6.821-66.271 4.769-97.699-2.123-32.526-10.064-58.267-24.216-78.356 17.867-11.766 28.342-30.784 29.974-55.101 1.127-16.794-4.446-31.569-15.694-41.603-13.497-12.042-33.554-16.35-56.46-12.126-4.07.75-6.761 4.66-6.012 8.733s4.657 6.766 8.724 6.018c18.265-3.366 33.81-.32 43.779 8.573 7.831 6.985 11.535 17.152 10.713 29.4-2.133 31.795-21.228 44.819-36.87 50.146-29.894 10.178-68.014.456-84.952-15.388 5.458-6.706 8.734-15.259 8.734-24.564 0-5.768-1.26-11.247-3.516-16.176 9.076-7.564 18.331-13.968 27.574-19.076 3.622-2.002 4.937-6.564 2.938-10.19-2.001-3.627-6.557-4.944-10.18-2.941-9.792 5.411-19.556 12.124-29.102 20.003-6.961-6.548-16.324-10.564-26.606-10.564-10.286 0-19.652 4.02-26.614 10.572-19.58-16.146-40.138-27.384-59.822-32.655-20.373-5.455-38.935-4.498-53.677 2.769-18.533 9.137-28.313 27.022-26.833 49.068 1.632 24.321 12.11 43.341 29.981 55.106-12.663 17.952-20.312 40.292-23.313 67.978-.447 4.118 2.526 7.818 6.64 8.265.274.03.547.044.817.044 3.775 0 7.023-2.848 7.439-6.691 2.816-25.983 9.994-46.549 21.895-62.657 1.158.455 2.336.887 3.535 1.296 9.689 3.299 20.456 4.961 31.623 4.961 8.565 0 17.365-.978 26.089-2.944 17.975-4.052 33.667-11.978 43.657-21.963 5.524 3.021 11.857 4.74 18.582 4.74 6.722 0 13.051-1.717 18.573-4.735 9.99 9.983 25.68 17.906 43.652 21.958 8.725 1.967 17.523 2.944 26.089 2.944 11.166 0 21.935-1.661 31.623-4.961 1.204-.41 2.386-.844 3.547-1.301 30.955 41.859 24.38 105.735 18.014 167.578-.889 8.639-1.767 17.167-2.532 25.538-124.713 12.64-249.371 2.597-277.936-.044-.765-8.357-1.641-16.87-2.529-25.493-2.282-22.167-4.641-45.088-5.186-67.043-.102-4.141-3.574-7.445-7.676-7.311-4.136.103-7.406 3.543-7.304 7.684.56 22.538 2.95 45.755 5.261 68.207 7.447 72.342 13.877 134.818-38.556 152.998-3.302 1.145-5.375 4.423-4.995 7.901.379 3.477 3.111 6.23 6.582 6.635.26.03 26.425 3.054 67.094 5.742.168.011.335.017.501.017 3.912 0 7.206-3.041 7.468-7.006.273-4.133-2.854-7.705-6.982-7.978-16.819-1.111-31.117-2.279-42.087-3.265 15.303-12.022 24.736-29.989 28.635-54.334.658-4.11 1.154-8.332 1.51-12.656 19.722 1.813 74.831 6.237 142.959 6.237 12.402 0 25.252-.147 38.381-.483 4.136-.106 7.404-3.548 7.298-7.689-.104-4.141-3.578-7.378-7.68-7.306-85.424 2.186-158.134-3.704-180.256-5.757.163-10.838-.33-22.192-1.181-33.927 20.754 1.857 75.651 6.101 143.557 6.101 40.788 0 86.27-1.532 131.863-6.032-.849 11.729-1.34 23.076-1.175 33.908-17.293 1.757-35.398 3.156-53.927 4.164-4.131.225-7.299 3.76-7.074 7.896.218 3.997 3.523 7.092 7.474 7.092.136 0 .275-.003.414-.011 18.474-1.005 36.539-2.394 53.82-4.137.356 4.304.85 8.508 1.506 12.6 3.898 24.339 13.328 42.303 28.623 54.326-32.784 2.932-95.451 7.506-167.368 7.506-27.381 0-55.815-.66-84.51-1.961-4.164-.188-7.636 3.015-7.824 7.152s3.011 7.644 7.145 7.831c10.104.458 20.177.837 30.184 1.137 3.296 27.463 26.707 48.818 55.005 48.818 28.301 0 51.713-21.359 55.006-48.824 79.501-2.4 137.663-9.078 138.368-9.16 3.471-.404 6.202-3.157 6.582-6.635.379-3.478-1.694-6.756-4.996-7.901zm-310.085-335.013c-15.642-5.327-34.737-18.351-36.87-50.146-1.068-15.908 5.503-28.198 18.503-34.607 18.803-9.271 55.425-7.008 98.113 28.633-2.255 4.928-3.513 10.404-3.513 16.17 0 9.301 3.274 17.851 8.728 24.556-16.935 15.846-55.064 25.575-84.961 15.394zm115.125-16.006c-13.183 0-23.909-10.742-23.909-23.945s10.726-23.946 23.909-23.946 23.909 10.742 23.909 23.945-10.726 23.946-23.909 23.946zm0 408.54c-19.884 0-36.46-14.455-39.803-33.423 13.448.296 26.743.445 39.803.445 13.643 0 26.957-.164 39.804-.448-3.341 18.969-19.919 33.426-39.804 33.426z"/><circle cx="149.409" cy="79.16" r="7.5"/><circle cx="146.302" cy="41.003" r="7.5"/><circle cx="184.88" cy="62.511" r="7.5"/><circle cx="362.578" cy="79.16" r="7.5"/><circle cx="365.685" cy="41.003" r="7.5"/><circle cx="327.106" cy="62.511" r="7.5"/></g></g></svg>