<svg id="Layer_1" height="512" viewBox="0 0 512 512" width="512" xmlns="http://www.w3.org/2000/svg" data-name="Layer 1"><path d="m501.17 153.16v109.3l-38.92-20.35h-.44v-68.6h.44z" fill="#6d7486"/><path d="m427.66 171.37h-.43v72.89h.08 34.5v-72.89z" fill="#5fa8ed"/><g fill="#6d7486"><path d="m343.61 253.56h41.28v79.26h-41.28z"/><path d="m299.06 171.37h-135.22v72.89h135.69.11v-72.89z"/><path d="m199.24 124.15h53.55v18.92h-53.55z"/></g><path d="m103.98 180.82v53.99l27.9 10.77v-75.53z" fill="#75967a"/><path d="m103.98 180.82v53.99l-38.78 7.47a32.649 32.649 0 0 1 -29.43-9.15l-24.94-25.32 24.94-25.32a32.67 32.67 0 0 1 29.43-9.14z" fill="#9ac5a1"/><path d="m131.88 191.29h31.96v33.05h-31.96z" fill="#d4e1f4"/><path d="m212.6 143.07h26.83v28.3h-26.83z" fill="#b0b5ca"/><path d="m190.22 195.35h109.42v24.92h-109.42z" fill="#4a5160"/><path d="m299.64 227.56h127.59v26h-127.59z" fill="#9ac5a1"/><path d="m299.64 188.07h127.59v39.49h-127.59z" fill="#75967a"/><path d="m299.64 162.07h127.59v26h-127.59z" fill="#9ac5a1"/><path d="m258.53 244.26v143.59h-35.51v-109.24l-20.44-34.35z" fill="#4a5160"/><path d="m40.83 207.81 24.94-25.32a32.593 32.593 0 0 1 10.316-7.043l-10.886-2.097a32.67 32.67 0 0 0 -29.43 9.14l-24.94 25.32 24.94 25.32a32.649 32.649 0 0 0 29.43 9.15l10.89-2.1a32.572 32.572 0 0 1 -10.32-7.052z" fill="#85af8a"/><path d="m299.64 227.56h30v26h-30z" fill="#85af8a"/><path d="m299.64 188.07h30v39.49h-30z" fill="#627f66"/><path d="m299.64 162.07h30v26h-30z" fill="#85af8a"/><path d="m504.282 148.03a6 6 0 0 0 -5.888-.184l-34.35 17.961-30.811-.436v-3.3a6 6 0 0 0 -6-6h-127.593a6 6 0 0 0 -6 6v3.3h-48.212v-16.305h7.362a6 6 0 0 0 6-6v-18.912a6 6 0 0 0 -6-6h-53.55a6 6 0 0 0 -6 6v18.912a6 6 0 0 0 6 6h7.36v16.305h-42.76a6 6 0 0 0 -6 6v13.92h-19.956v-15.245a6 6 0 0 0 -8.16-5.6l-26.3 10.15-37.093-7.141a38.563 38.563 0 0 0 -34.831 10.829l-24.948 25.316a6 6 0 0 0 0 8.421l24.948 25.322a38.558 38.558 0 0 0 34.833 10.826l37.093-7.14 26.3 10.15a6 6 0 0 0 8.16-5.6v-15.243h19.958v13.92a6 6 0 0 0 6 6h35.324l17.858 30v107.59a6 6 0 0 0 6 6h35.5a6 6 0 0 0 6-6v-137.59h29.114v3.3a6 6 0 0 0 6 6h37.973v73.257a6 6 0 0 0 6 6h41.276a6 6 0 0 0 6-6v-73.254h36.344a6 6 0 0 0 6-6v-3.3l30.813-.435 34.348 17.96a6 6 0 0 0 8.78-5.317v-109.3a6 6 0 0 0 -2.892-5.137zm-406.3 81.827-33.917 6.529a26.6 26.6 0 0 1 -24.017-7.465l-20.799-21.108 20.8-21.107a26.594 26.594 0 0 1 24.017-7.465l33.917 6.529zm27.906 6.977-15.91-6.134v-45.769l15.906-6.138zm31.958-18.5h-19.962v-21.043h19.958zm47.4-81.27v-6.912h41.55v6.912zm28.188 12v16.305h-14.834v-16.303zm19.1 232.78h-23.5v-103.236a6.006 6.006 0 0 0 -.844-3.069l-15.049-25.283h39.4zm41.106-167.57h-97.421v-12.921h97.421zm0-24.921h-103.421a6 6 0 0 0 -6 6v24.921a6 6 0 0 0 6 6h103.421v11.982h-123.8v-60.885h123.8zm85.249 137.463h-29.276v-67.257h29.276zm42.344-79.257h-115.593v-14h115.593zm0-26h-115.593v-27.49h115.593zm0-39.49h-115.593v-14h115.593zm34.575 56.187h-22.575v-60.885h22.577zm39.366 14.3-27.365-14.308v-60.868l27.366-14.309z" fill="#284268"/></svg>