<svg id="Capa_1" enable-background="new 0 0 513.086 513.086" height="512" viewBox="0 0 513.086 513.086" width="512" xmlns="http://www.w3.org/2000/svg"><g><g><g><g><g><g><path d="m125.182 297.702-23.762-16.692v-42.053l23.762-21.485h128.261v80.23z" fill="#fcf1de"/></g><g><path d="m171.707 217.472h169.338 12.821c22.155 0 40.115-17.96 40.115-40.115 0-22.155-17.96-40.115-40.115-40.115h-12.821-169.338l-22.639 31.813v23.042z" fill="#fcf6ed"/></g><path d="m362.439 197.205h-12.821-116.183c-4.881 0-8.455-4.462-7.552-9.258.616-3.271.939-6.644.939-10.092v-.996c0-15.586-6.573-29.657-17.08-39.617h-38.035l-22.639 31.813v23.042l6.956 7.797 15.683 17.578h169.338 12.821c20.496 0 37.4-15.353 39.816-35.197-7.353 9.117-18.619 14.93-31.243 14.93z" fill="#fcf1de"/><path d="m172.205 217.472h-13.816c-21.88 0-39.617-17.737-39.617-39.617v-.996c0-21.88 17.737-39.617 39.617-39.617h13.816c21.88 0 39.617 17.737 39.617 39.617v.996c0 21.88-17.737 39.617-39.617 39.617z" fill="#fcf6ed"/><path d="m144.309 177.855v-.996c0-19.888 14.643-36.356 33.743-39.188-1.913-.284-3.855-.428-5.847-.428h-13.816c-21.88 0-39.617 17.737-39.617 39.617v.996c0 21.88 17.737 39.617 39.617 39.617h13.816c1.992 0 3.948-.151 5.861-.435-19.101-2.833-33.757-19.294-33.757-39.183z" fill="#fcf1de"/><path d="m125.9 297.702h-13.816c-21.88 0-39.617-17.737-39.617-39.617v-.996c0-21.88 17.737-39.617 39.617-39.617h13.816c21.88 0 39.617 17.737 39.617 39.617v.996c0 21.88-17.737 39.617-39.617 39.617z" fill="#fcf6ed"/><path d="m96.897 258.085v-.996c0-20.079 14.941-36.658 34.31-39.253-1.737-.233-3.506-.364-5.307-.364h-13.816c-21.88 0-39.617 17.737-39.617 39.617v.996c0 21.88 17.737 39.617 39.617 39.617h13.816c1.801 0 3.554-.117 5.291-.35-19.369-2.595-34.294-19.188-34.294-39.267z" fill="#fcf1de"/><path d="m218.65 297.702h169.338 12.821c22.155 0 40.115-17.96 40.115-40.115 0-22.155-17.96-40.115-40.115-40.115h-12.821-169.338l-10.253 34.466z" fill="#fcf6ed"/><path d="m427.062 279.295h-12.821-124.43c-8.17 0-14.424-7.008-13.823-15.156.098-1.324.147-2.662.147-4.011v-5.082c0-14.548-5.729-27.776-15.035-37.574h-42.45l-10.253 34.466 10.253 45.764h169.338 12.821c14.492 0 27.188-7.687 34.237-19.204-2.581.521-5.25.797-7.984.797z" fill="#fcf1de"/><path d="m221.517 299.745h-18.555c-21.88 0-39.617-17.737-39.617-39.617v-5.081c0-21.88 17.737-39.617 39.617-39.617h18.555c21.88 0 39.617 17.737 39.617 39.617v5.081c0 21.88-17.737 39.617-39.617 39.617z" fill="#fcf6ed"/><path d="m185.625 260.128v-5.081c0-21.255 16.74-38.597 37.755-39.57-.618-.029-1.238-.047-1.863-.047h-18.555c-21.88 0-39.617 17.737-39.617 39.617v5.081c0 21.88 17.737 39.617 39.617 39.617h18.555c.625 0 1.245-.018 1.863-.047-21.015-.973-37.755-18.315-37.755-39.57z" fill="#fcf1de"/><path d="m205.83 270.457c-7.097 0-12.87-5.774-12.87-12.87s5.774-12.87 12.87-12.87h12.821c7.096 0 12.869 5.774 12.869 12.87s-5.774 12.87-12.869 12.87z" fill="#f6e2c4"/></g><g><path d="m112.362 270.457c-7.097 0-12.87-5.774-12.87-12.87s5.774-12.87 12.87-12.87h12.821c7.096 0 12.869 5.774 12.869 12.87s-5.774 12.87-12.869 12.87z" fill="#f6e2c4"/></g></g><path d="m450.716 342.726-8.921 15.119c-6.627 11.23-18.695 18.122-31.735 18.122h-305.59c-13.04 0-25.108-6.892-31.735-18.122l-8.921-15.119-13.814-22.792h413.577z" fill="#e4e1e5"/><path d="m499.868 297.702h-484.205c-3.833 0-6.941 3.108-6.941 6.941v7.526c0 16.876 13.68 30.556 30.556 30.556h436.975c16.876 0 30.556-13.68 30.556-30.556v-7.526c0-3.833-3.108-6.941-6.941-6.941z" fill="#f8f7f8"/><path d="m504.985 322.524h-436.975c-14.915 0-27.326-10.688-30.011-24.821h-22.336c-3.833 0-6.941 3.108-6.941 6.941v7.526c0 16.876 13.68 30.556 30.556 30.556h436.975c13.241 0 24.511-8.423 28.754-20.203-.008 0-.015.001-.022.001z" fill="#efedee"/></g><path d="m158.887 190.227c-7.097 0-12.87-5.774-12.87-12.87s5.774-12.87 12.87-12.87h12.821c7.096 0 12.869 5.774 12.869 12.87s-5.774 12.87-12.869 12.87z" fill="#f6e2c4"/></g><g><path d="m185.459 257.587c0 11.232 9.139 20.37 20.371 20.37h12.82c11.231 0 20.369-9.138 20.369-20.37s-9.138-20.37-20.369-20.37h-12.82c-11.232.001-20.371 9.138-20.371 20.37zm20.371-5.369h12.82c2.961 0 5.369 2.409 5.369 5.37s-2.408 5.37-5.369 5.37h-12.82c-2.962 0-5.371-2.409-5.371-5.37s2.409-5.37 5.371-5.37z"/><path d="m158.887 197.727h12.82c11.232 0 20.37-9.138 20.37-20.37s-9.138-20.37-20.37-20.37h-12.82c-11.232 0-20.37 9.138-20.37 20.37s9.137 20.37 20.37 20.37zm0-25.739h12.82c2.961 0 5.37 2.409 5.37 5.37s-2.409 5.37-5.37 5.37h-12.82c-2.961 0-5.37-2.409-5.37-5.37s2.409-5.37 5.37-5.37z"/><path d="m145.552 257.587c0-11.232-9.138-20.37-20.369-20.37h-12.821c-11.232 0-20.37 9.138-20.37 20.37s9.138 20.37 20.37 20.37h12.821c11.231 0 20.369-9.138 20.369-20.37zm-38.561 0c0-2.961 2.409-5.37 5.37-5.37h12.821c2.961 0 5.369 2.409 5.369 5.37s-2.408 5.37-5.369 5.37h-12.821c-2.961 0-5.37-2.409-5.37-5.37z"/><path d="m498.646 290.202h-63.194c8.033-8.528 12.972-20.002 12.972-32.615 0-26.255-21.36-47.615-47.615-47.615h-12.3c8.033-8.528 12.972-20.002 12.972-32.615 0-26.255-21.36-47.615-47.615-47.615h-75.77c-4.143 0-7.5 3.358-7.5 7.5s3.357 7.5 7.5 7.5h75.77c4.826 0 9.407 1.062 13.532 2.951l-50.544 27.907c-15.301 8.449-33.763 8.812-49.388.971l-58.795-29.51c-.652-.796-1.334-1.566-2.036-2.318h39.085c4.143 0 7.5-3.358 7.5-7.5s-3.357-7.5-7.5-7.5h-87.332c-25.98 0-47.117 21.136-47.117 47.117v.996c0 12.403 4.825 23.695 12.687 32.117h-12.094c-25.98 0-47.117 21.137-47.117 47.117v.996c0 12.403 4.825 23.694 12.687 32.117h-62.994c-7.962-.001-14.44 6.477-14.44 14.44v7.402c0 20.984 17.071 38.056 38.056 38.056h20.253l6.745 11.43c7.938 13.454 22.574 21.811 38.194 21.811h305.59c15.62 0 30.256-8.357 38.194-21.811l6.745-11.43h21.253c20.984 0 38.056-17.072 38.056-38.056v-7.402c0-7.963-6.478-14.441-14.44-14.441zm-84.305-62.278-23.823 13.153c-3.626 2.002-4.942 6.565-2.94 10.191 1.367 2.477 3.93 3.876 6.572 3.876 1.226 0 2.469-.301 3.618-.936l29.178-16.11c4.067 5.441 6.478 12.188 6.478 19.488 0 17.977-14.621 32.604-32.596 32.615h-147.249c7.862-8.422 12.687-19.714 12.687-32.117v-.996c0-2.734-.247-5.411-.697-8.019l42.113 21.137c9.539 4.787 19.994 7.179 30.454 7.179 10.581 0 21.166-2.448 30.808-7.342 3.693-1.875 5.168-6.389 3.293-10.083-1.874-3.693-6.387-5.167-10.082-3.293-14.945 7.586-32.793 7.636-47.744.132l-58.795-29.51c-.652-.797-1.334-1.567-2.036-2.319h147.23c4.825.002 9.405 1.064 13.531 2.954zm-195.193-2.952c17.71 0 32.117 14.408 32.117 32.117v.996c0 17.703-14.397 32.106-32.098 32.117h-13.855c-17.701-.01-32.098-14.414-32.098-32.117v-.996c0-17.709 14.407-32.117 32.117-32.117zm-48.246 0c-2.008 2.151-3.815 4.49-5.396 6.987-1.581-2.497-3.388-4.836-5.396-6.987zm-5.396 58.244c1.581 2.497 3.388 4.835 5.396 6.986h-10.791c2.007-2.151 3.814-4.49 5.395-6.986zm95.232-93.239c9.612 4.824 20.062 7.228 30.501 7.228 11.33 0 22.647-2.832 32.865-8.473l55.898-30.863c4.067 5.441 6.478 12.188 6.478 19.488 0 17.984-14.631 32.615-32.615 32.615h-147.23c7.862-8.422 12.687-19.714 12.687-32.117v-.996c0-2.734-.247-5.411-.697-8.019zm-134.467-13.117c0-17.709 14.407-32.117 32.117-32.117h13.816c17.71 0 32.117 14.408 32.117 32.117v.996c0 17.709-14.407 32.117-32.117 32.117h-13.816c-17.71 0-32.117-14.408-32.117-32.117zm-46.524 81.225v-.996c0-17.709 14.407-32.117 32.117-32.117h13.816c17.709 0 32.116 14.408 32.116 32.117v.996c0 17.703-14.397 32.106-32.097 32.117h-13.855c-17.7-.011-32.097-14.414-32.097-32.117zm418.339 53.961c0 12.713-10.343 23.056-23.056 23.056h-284.526c-4.143 0-7.5 3.358-7.5 7.5s3.357 7.5 7.5 7.5h245.857l-2.247 3.807c-5.254 8.903-14.939 14.434-25.276 14.434h-305.59c-10.337 0-20.022-5.531-25.276-14.434l-2.247-3.807h82.682c4.143 0 7.5-3.358 7.5-7.5s-3.357-7.5-7.5-7.5h-120.351c-12.713 0-23.056-10.343-23.056-23.056v-6.844h483.086z"/></g></g></svg>