<svg id="Capa_1" enable-background="new 0 0 511.361 511.361" height="512" viewBox="0 0 511.361 511.361" width="512" xmlns="http://www.w3.org/2000/svg"><g><g><path d="m450.714 164.678c12.97-32.69 3.352-74.215-35.735-93.235l-.043-.021c-10.026-4.879-18.89-11.851-25.993-20.447l-3.456-4.183c-4.455-5.391-12.717-5.391-17.172 0l-3.456 4.183c-7.103 8.595-15.967 15.568-25.993 20.447-39.095 19.024-48.708 60.562-35.726 93.255l15.241 31.227h118.945z" fill="#f8f7f8"/></g></g><g><g><path d="m207.543 165.678c12.97-32.69 3.352-74.215-35.735-93.235l-.043-.021c-10.026-4.879-18.89-11.851-25.993-20.447l-3.456-4.183c-4.455-5.391-12.717-5.391-17.172 0l-3.456 4.183c-7.103 8.595-15.967 15.568-25.993 20.447-39.095 19.024-48.708 60.562-35.726 93.255l15.241 31.227h118.945z" fill="#f8f7f8"/><g><path d="m99.916 147.312c-10.27 0-18.044-9.488-15.795-19.509 4.41-19.646 17.107-37.783 39.372-48.617 10.026-4.879 18.89-11.851 25.993-20.447l1.16-1.395c-1.702-1.708-3.332-3.503-4.874-5.369l-3.456-4.183c-4.455-5.391-12.717-5.391-17.172 0l-6.539 7.913c-6.117 7.402-13.995 13.15-22.91 16.716-39.095 19.024-48.708 60.562-35.726 93.255l15.241 31.227h18.624 5.875 94.447l13.389-31.227c2.339-5.895 3.931-12.079 4.76-18.365h-112.389z" fill="#efedee"/></g><g><g><path d="m369.211 147.312c-10.232 0-18.701-7.772-19.789-17.946-.675-6.31-2.025-12.541-4.058-18.582-.407-1.21-.84-2.406-1.297-3.586-2.034-5.255-.621-11.268 3.655-14.937 4.816-4.131 10.376-7.805 16.71-10.888 8.916-3.566 16.794-9.314 22.911-16.716l6.539-7.913c.055-.066.114-.102.17-.167-1.786-1.778-3.498-3.652-5.109-5.602l-3.456-4.183c-4.455-5.391-12.717-5.391-17.172 0l-6.539 7.913c-6.117 7.402-13.995 13.15-22.91 16.716-39.095 19.024-48.708 60.562-35.726 93.255l15.241 31.227h9.517 5.658 5.323.213 98.234l13.389-31.227c2.215-5.582 3.769-11.436 4.632-17.377zm-33.068 42.554 2.734-6.376v11.977z" fill="#efedee"/></g></g><path d="m329.493 167.313c12.97-32.69 3.352-74.215-35.735-93.235l-.043-.021c-10.026-4.879-18.89-11.851-25.993-20.447l-3.456-4.183c-4.455-5.391-12.717-5.391-17.172 0l-3.456 4.183c-7.103 8.595-15.967 15.568-25.993 20.447-39.095 19.024-48.708 60.562-35.726 93.255l15.241 31.227h118.945z" fill="#f8f7f8"/></g></g><path d="m224.536 147.312c-11.112 0-18.937-10.778-15.663-21.397 5.405-17.529 17.732-33.374 37.936-43.205 10.026-4.879 18.89-11.851 25.993-20.447l1.419-1.703c-2.297-2.176-4.473-4.499-6.498-6.95l-3.456-4.183c-4.455-5.391-12.717-5.391-17.172 0l-6.539 7.913c-6.117 7.402-13.995 13.15-22.911 16.716-39.095 19.024-48.708 60.562-35.726 93.255l15.241 31.227h1.086 23.854 94.004l13.389-31.227c2.541-6.406 4.202-13.152 4.957-20h-109.914z" fill="#efedee"/><g><g><path d="m498.053 387.799h-484.745v71.239c0 3.832 3.106 6.939 6.939 6.939h470.868c3.832 0 6.939-3.107 6.939-6.939v-71.239z" fill="#f7d8a4"/><g><g><path d="m477.958 225.991h-444.554v-49.018c0-5.335 4.325-9.66 9.66-9.66h425.235c5.335 0 9.66 4.325 9.66 9.66v49.018z" fill="#f6e2c4"/><path d="m489.014 316.395h-466.667c-8.2 0-14.848-6.647-14.848-14.848v-83.709c0-8.2 6.647-14.848 14.848-14.848h466.667c8.2 0 14.848 6.647 14.848 14.848v83.709c0 8.2-6.648 14.848-14.848 14.848z" fill="#fcf1de"/><path d="m83.917 280.717c-16.509 0-29.892-13.383-29.892-29.892v-47.835h-31.678c-8.2 0-14.848 6.647-14.848 14.848v83.709c0 8.2 6.647 14.848 14.848 14.848h466.667c8.2 0 14.848-6.647 14.848-14.848v-20.83z" fill="#f6e2c4"/><path d="m489.014 429.799h-466.667c-8.2 0-14.848-6.647-14.848-14.848v-83.709c0-8.2 6.647-14.848 14.848-14.848h466.667c8.2 0 14.848 6.647 14.848 14.848v83.709c0 8.2-6.648 14.848-14.848 14.848z" fill="#fcf1de"/><path d="m81.197 397.522c-16.641 0-30.13-13.49-30.13-30.13v-50.997h-28.72c-8.2 0-14.848 6.647-14.848 14.848v83.709c0 8.2 6.647 14.848 14.848 14.848h466.667c8.2 0 14.848-6.647 14.848-14.848v-17.429h-422.665z" fill="#f6e2c4"/></g></g></g><g><path d="m208.216 136.599c.332.043.662.065.988.065 3.707 0 6.93-2.748 7.427-6.522 1.089-8.28 4.93-15.556 11.106-21.042 3.097-2.75 3.378-7.491.627-10.588-2.75-3.096-7.491-3.378-10.588-.627-8.912 7.915-14.451 18.393-16.018 30.299-.539 4.107 2.352 7.874 6.458 8.415z"/><path d="m294.771 130.143c.498 3.774 3.72 6.521 7.426 6.521.327 0 .657-.021.99-.065 4.107-.542 6.997-4.31 6.455-8.416-1.57-11.909-7.114-22.386-16.031-30.3-3.098-2.749-7.839-2.466-10.588.632s-2.466 7.838.632 10.588c6.179 5.483 10.023 12.759 11.116 21.04z"/><path d="m263.181 130.615v-37.756c0-4.142-3.358-7.5-7.5-7.5s-7.5 3.358-7.5 7.5v37.756c0 4.142 3.358 7.5 7.5 7.5s7.5-3.358 7.5-7.5z"/><path d="m405.012 109.102c6.18 5.484 10.024 12.76 11.116 21.041.498 3.774 3.72 6.521 7.426 6.521.327 0 .657-.021.99-.065 4.107-.542 6.997-4.31 6.455-8.416-1.57-11.909-7.114-22.387-16.031-30.3-3.098-2.749-7.839-2.466-10.588.632s-2.466 7.838.632 10.587z"/><path d="m377.039 138.115c4.142 0 7.5-3.358 7.5-7.5v-37.756c0-4.142-3.358-7.5-7.5-7.5s-7.5 3.358-7.5 7.5v37.756c0 4.142 3.357 7.5 7.5 7.5z"/><path d="m96.393 97.882c-8.917 7.913-14.461 18.391-16.031 30.3-.542 4.106 2.348 7.875 6.455 8.416.333.044.663.065.99.065 3.706 0 6.929-2.747 7.426-6.521 1.092-8.281 4.936-15.557 11.116-21.041 3.098-2.75 3.381-7.49.632-10.588-2.749-3.096-7.489-3.379-10.588-.631z"/><path d="m134.323 85.359c-4.142 0-7.5 3.358-7.5 7.5v37.756c0 4.142 3.358 7.5 7.5 7.5s7.5-3.358 7.5-7.5v-37.756c0-4.142-3.358-7.5-7.5-7.5z"/><path d="m511.361 217.838c0-12.322-10.025-22.347-22.347-22.347h-3.557v-18.519c0-9.462-7.698-17.16-17.16-17.16h-7.159c8.428-33.193-2.836-73.061-42.783-92.5-9.125-4.44-17.029-10.658-23.494-18.48l-3.456-4.182c-3.553-4.3-8.79-6.766-14.367-6.766-5.578 0-10.815 2.466-14.368 6.766l-3.457 4.183c-6.032 7.298-13.392 13.232-21.876 17.636-3.677 1.908-5.11 6.436-3.202 10.112s6.437 5.111 10.112 3.202c10.282-5.337 19.208-12.535 26.529-21.394l3.457-4.183c.95-1.149 2.166-1.321 2.805-1.321s1.855.172 2.805 1.321l3.457 4.183c7.84 9.487 17.426 17.027 28.535 22.434 33.951 16.52 42.401 51.266 33.711 78.99h-42.815c-4.142 0-7.5 3.358-7.5 7.5s3.358 7.5 7.5 7.5h65.566c1.191 0 2.16.969 2.16 2.16v18.519h-429.553v-18.519c0-1.191.969-2.16 2.16-2.16h327.68c4.142 0 7.5-3.358 7.5-7.5s-3.358-7.5-7.5-7.5h-30.962c8.428-33.192-2.835-73.061-42.783-92.5-9.125-4.44-17.029-10.658-23.494-18.48l-3.457-4.183c-3.553-4.299-8.791-6.765-14.368-6.765s-10.814 2.466-14.367 6.765l-3.457 4.183c-4.229 5.118-9.208 9.635-14.798 13.424-3.429 2.324-4.324 6.987-2 10.416s6.987 4.325 10.416 2c6.77-4.589 12.808-10.068 17.945-16.285l3.457-4.183c.95-1.149 2.165-1.32 2.805-1.32s1.855.171 2.805 1.321l3.457 4.182c7.84 9.488 17.426 17.029 28.535 22.435 33.951 16.521 42.401 51.266 33.711 78.99h-136.989c-7.833-24.591-1.47-50.675 16.859-67.602 3.043-2.81 3.232-7.555.421-10.598-2.81-3.043-7.555-3.232-10.598-.421-21.529 19.881-29.745 49.835-22.28 78.621h-105.787c-8.69-27.724-.238-62.471 33.753-79.011 11.066-5.385 20.653-12.926 28.493-22.413l3.457-4.183c.949-1.149 2.165-1.321 2.804-1.321s1.855.172 2.805 1.321l3.457 4.182c7.323 8.862 16.253 16.062 26.541 21.4 3.677 1.908 8.204.474 10.111-3.203 1.908-3.677.474-8.204-3.203-10.111-8.489-4.405-15.853-10.34-21.886-17.641l-3.457-4.182c-3.553-4.3-8.79-6.766-14.368-6.766s-10.814 2.466-14.367 6.766l-3.457 4.183c-6.464 7.822-14.369 14.04-23.536 18.501-39.909 19.42-51.169 59.286-42.741 92.479h-7.159c-9.462 0-17.16 7.698-17.16 17.16v18.519h-3.557c-12.32-.002-22.345 10.023-22.345 22.345v83.709c0 5.695 2.145 10.897 5.665 14.848-3.52 3.95-5.665 9.152-5.665 14.847v83.709c0 5.774 2.201 11.043 5.808 15.013v29.073c0 7.961 6.478 14.439 14.439 14.439h470.867c7.961 0 14.439-6.478 14.439-14.439v-29.073c3.607-3.97 5.808-9.24 5.808-15.013v-83.709c0-5.695-2.145-10.897-5.665-14.848 3.52-3.951 5.665-9.152 5.665-14.848zm-496.361 0c0-4.051 3.296-7.347 7.347-7.347h84.87v98.404h-84.87c-4.051 0-7.347-3.296-7.347-7.348zm7.347 204.461c-4.051 0-7.347-3.296-7.347-7.348v-83.709c0-4.051 3.296-7.348 7.347-7.348h84.87v98.404h-84.87zm-1.539 36.178v-21.237c.509.035 1.021.059 1.539.059h337.761c4.142 0 7.5-3.358 7.5-7.5s-3.358-7.5-7.5-7.5h-237.891v-98.404h52.89c4.142 0 7.5-3.358 7.5-7.5s-3.358-7.5-7.5-7.5h-52.89v-98.404h366.797c4.051 0 7.347 3.296 7.347 7.347v83.709c0 4.051-3.296 7.348-7.347 7.348h-281.918c-4.142 0-7.5 3.358-7.5 7.5s3.358 7.5 7.5 7.5h281.918c4.051 0 7.347 3.296 7.347 7.348v83.709c0 4.051-3.296 7.348-7.347 7.348h-96.917c-4.142 0-7.5 3.358-7.5 7.5s3.358 7.5 7.5 7.5h96.917c.518 0 1.03-.024 1.539-.059v21.237h-469.745z"/><path d="m74.579 247.937h6.707c4.142 0 7.5-3.358 7.5-7.5s-3.358-7.5-7.5-7.5h-6.707c-4.142 0-7.5 3.358-7.5 7.5s3.358 7.5 7.5 7.5z"/><path d="m74.579 285.916h6.707c4.142 0 7.5-3.358 7.5-7.5s-3.358-7.5-7.5-7.5h-6.707c-4.142 0-7.5 3.358-7.5 7.5s3.358 7.5 7.5 7.5z"/><path d="m81.286 384.853h-6.707c-4.142 0-7.5 3.358-7.5 7.5s3.358 7.5 7.5 7.5h6.707c4.142 0 7.5-3.358 7.5-7.5s-3.358-7.5-7.5-7.5z"/><path d="m74.579 361.874h6.707c4.142 0 7.5-3.358 7.5-7.5s-3.358-7.5-7.5-7.5h-6.707c-4.142 0-7.5 3.358-7.5 7.5s3.358 7.5 7.5 7.5z"/></g></g></svg>