<svg id="Layer_1" enable-background="new 0 0 512 512" height="512" viewBox="0 0 512 512" width="512" xmlns="http://www.w3.org/2000/svg"><g><g><path d="m332.457 423.682-33.92-14.588-136.739-58.803-73.488-170.688s29.182-16.794 78.736-41.118l97.502-44.88c65.718-28.327 145.556-58.923 231.922-83.813 2.666-.771 5.353-1.534 8.033-2.291-10.995 41.231-23.539 80.999-36.734 118.518l-32.081 84.379c-52.093 127.597-103.231 213.284-103.231 213.284z" fill="#ffe878"/><path d="m332.457 423.682-33.92-14.588c113.632-162.012 176.246-333.153 197.933-399.302 2.666-.771 5.353-1.534 8.033-2.291-10.995 41.231-23.539 80.999-36.734 118.518l-32.081 84.379c-52.093 127.597-103.231 213.284-103.231 213.284z" fill="#ffd37b"/><path d="m307.249 504.498c-1.245-.552-12.028-5.395-28.935-14.708-33.566-18.491-91.266-54.596-146.37-109.672-82.843-82.803-122.78-171.488-124.442-175.214 0 0 30.031-27.796 80.808-25.3.339.735 34.068 74.727 101.773 142.404 40.213 40.199 82.66 68.42 110.661 84.768 19.141 11.179 31.523 16.815 31.819 16.956 2.49 50.756-25.314 80.766-25.314 80.766z" fill="#e2a67d"/><path d="m307.249 504.498c-1.245-.552-12.028-5.395-28.935-14.708 25.908-38.566 24.02-71.962 22.429-83.014 19.141 11.179 31.523 16.815 31.819 16.956 2.491 50.756-25.313 80.766-25.313 80.766z" fill="#d18766"/><path d="m219.328 178.012c-24.876 0-45.856-16.723-52.29-39.534l-.007-.007c-1.138-4.08-1.824-8.344-1.987-12.749 26.34-12.608 57.24-26.75 91.718-41.373.325.311.643.615.962.933.007.007.007.007.007.007 9.836 9.836 15.924 23.419 15.924 38.424 0 29.982-24.324 54.292-54.327 54.299z" fill="#ff5f85"/><path d="m219.328 178.012c-24.876 0-45.856-16.723-52.29-39.534 9.829 9.829 23.412 15.903 38.417 15.903 30.002.007 54.327-24.303 54.327-54.299 0-5.134-.714-10.09-2.051-14.793 9.836 9.836 15.924 23.419 15.924 38.424 0 29.982-24.324 54.292-54.327 54.299z" fill="#b2527e"/><path d="m294.55 318.981c-19.813 0-37.045-11.08-45.82-27.393-3.939-7.319-6.173-15.691-6.173-24.586-.007-28.701 23.278-51.972 52-51.972 8.895 0 17.26 2.227 24.572 6.159 16.327 8.761 27.428 25.986 27.428 45.813 0 28.708-23.285 51.979-52.007 51.979z" fill="#ff5f85"/><path d="m294.55 318.981c-19.813 0-37.045-11.08-45.82-27.393 19.693 10.6 44.767 7.587 61.383-9.03s19.622-41.684 9.016-61.37c16.327 8.761 27.428 25.986 27.428 45.813 0 28.709-23.285 51.98-52.007 51.98z" fill="#b2527e"/><path d="m451.894 205.01c-7.241 3.833-15.5 6.01-24.282 6.01-2.312-.007-4.589-.148-6.823-.445-25.491-3.345-45.184-25.145-45.184-51.534.007-28.701 23.285-51.979 52.007-51.979 10.904 0 21.015 3.352 29.366 9.086 8.825 6.039 15.676 14.729 19.438 24.911-8.047 22.231-16.284 43.607-24.522 63.951z" fill="#ff5f85"/><path d="m476.416 141.059c-8.047 22.231-16.285 43.607-24.522 63.951-7.241 3.833-15.5 6.01-24.282 6.01-2.312-.007-4.589-.148-6.823-.445 12.148-30.109 24.31-61.674 36.189-94.427 8.825 6.038 15.676 14.728 19.438 24.911z" fill="#b2527e"/></g><g><path d="m205.094 433.441c-24.386-18.279-47.213-38.004-67.847-58.628-71.504-71.469-110.612-147.248-120.452-167.727 9.081-6.574 32.508-20.594 66.717-20.132 5.612 11.422 22.796 44.426 51.515 82.757 2.483 3.314 7.183 3.989 10.499 1.505 3.315-2.484 3.989-7.185 1.505-10.5-26.254-35.041-42.573-65.454-48.894-78.035 10.192-5.656 32.77-17.921 64.676-33.748 9.612 21.669 31.268 36.574 56.514 36.574 34.089 0 61.823-27.722 61.823-61.796 0-9.354-2.047-18.356-5.934-26.524 11.252-4.798 22.584-9.517 33.786-14.071 3.837-1.56 5.684-5.935 4.124-9.772-1.56-3.838-5.935-5.684-9.772-4.124-12.047 4.897-24.241 9.984-36.329 15.154-1.575-1.9-3.274-3.72-5.092-5.452-2.165-2.062-5.348-2.641-8.1-1.474-31.015 13.149-61.978 27.116-92.03 41.512-2.692 1.29-4.363 4.053-4.255 7.036.103 2.849.395 5.646.864 8.378-39.179 19.375-64.968 33.712-71.943 37.647-51.991-1.725-82.763 26.17-84.066 27.374-2.356 2.18-3.063 5.618-1.759 8.551 1.684 3.787 42.192 93.714 125.996 177.477 21.134 21.123 44.502 41.318 69.453 60.021 1.349 1.011 2.927 1.499 4.493 1.499 2.281 0 4.534-1.037 6.007-3.002 2.488-3.315 1.815-8.016-1.499-10.5zm49.825-340.153c7.275 8.472 11.232 19.109 11.232 30.423 0 25.803-21.005 46.796-46.823 46.796-23.692 0-43.209-17.326-46.371-40.25 26.834-12.774 54.359-25.189 81.962-36.969z"/><path d="m509.763 2.157c-1.92-1.892-4.709-2.608-7.304-1.874-52.892 14.957-107.825 33.377-163.273 54.749-3.865 1.49-5.791 5.831-4.301 9.695 1.49 3.866 5.833 5.79 9.695 4.301 50.57-19.492 100.691-36.504 149.193-50.645-8.518 30.816-18.319 62.358-29.232 94.075-10.31-8.152-23.258-12.897-36.927-12.897-32.813 0-59.509 26.684-59.509 59.483 0 31.671 24.899 57.639 56.162 59.379-42.043 101.165-82.906 174.7-94.805 195.469-19.048-9.571-78.87-42.009-134.078-97.189-8.892-8.888-17.688-18.396-26.143-28.261-2.696-3.146-7.431-3.51-10.575-.814-3.146 2.695-3.51 7.43-.814 10.575 8.705 10.157 17.765 19.951 26.929 29.11 59.264 59.235 123.494 92.903 140.426 101.216.433 33.985-13.601 57.536-20.163 66.663-10.664-5.13-36.486-18.273-68.69-39.676-3.45-2.292-8.105-1.354-10.397 2.095-2.293 3.45-1.355 8.105 2.095 10.397 41.983 27.902 72.781 41.847 76.155 43.346.979.435 2.015.646 3.042.646 2.045 0 4.052-.837 5.504-2.403 1.207-1.303 29.186-32.133 27.384-84.195 8.095-13.902 54.242-94.702 100.96-208.432 4.978-1.155 9.799-2.945 14.308-5.332 1.561-.826 2.78-2.177 3.442-3.814 8.685-21.459 16.969-43.062 24.622-64.209.603-1.665.597-3.488-.016-5.149-1.832-4.965-4.295-9.582-7.277-13.774 13.595-38.94 25.556-77.697 35.57-115.26.695-2.605-.062-5.383-1.983-7.275zm-63.749 197.39c-5.736 2.604-12.044 3.97-18.399 3.97-24.542 0-44.509-19.95-44.509-44.473 0-24.528 19.967-44.483 44.509-44.483 17.672 0 33.735 10.601 40.775 26.639-7 19.24-14.517 38.843-22.376 58.347z"/><path d="m294.554 207.528c-6.01 0-11.945.895-17.638 2.658-3.957 1.226-6.17 5.427-4.944 9.384s5.427 6.171 9.384 4.944c4.254-1.318 8.695-1.986 13.199-1.986 24.539 0 44.502 19.952 44.502 44.476s-19.963 44.476-44.502 44.476-44.502-19.952-44.502-44.476c0-7.643 1.97-15.177 5.696-21.79 2.034-3.608.757-8.182-2.852-10.216-3.608-2.035-8.182-.758-10.216 2.852-4.991 8.855-7.629 18.937-7.629 29.154 0 32.795 26.693 59.475 59.502 59.475 32.81 0 59.502-26.681 59.502-59.475 0-32.795-26.692-59.476-59.502-59.476z"/><path d="m166.746 195.97c-4.036-.939-8.066 1.57-9.005 5.604-.215.924-5.083 22.795 10.82 37.727 1.448 1.359 3.292 2.032 5.132 2.032 1.999 0 3.993-.794 5.469-2.366 2.835-3.02 2.686-7.766-.334-10.602-9.5-8.919-6.615-22.764-6.47-23.427.916-4.022-1.59-8.032-5.612-8.968z"/><path d="m309.449 169.496c-2.697 3.12-2.369 7.836.74 10.553 1.422 1.242 3.18 1.852 4.931 1.852 2.089 0 4.168-.868 5.651-2.566.624-.714 15.203-17.733 8.186-38.384-1.332-3.921-5.591-6.022-9.514-4.688-3.922 1.333-6.021 5.592-4.688 9.514 4.182 12.305-5.116 23.495-5.306 23.719z"/><path d="m335.531 341.287c-3.191-2.642-7.919-2.196-10.56.995-8.272 9.994-22.64 7.982-22.994 7.93-4.077-.657-7.916 2.096-8.596 6.168-.683 4.085 2.077 7.951 6.162 8.633.284.047 2.518.4 5.882.4 7.727 0 21.412-1.863 31.1-13.567 2.643-3.19 2.197-7.918-.994-10.559z"/><circle cx="213.673" cy="241.537" r="7.5"/><circle cx="279.133" cy="260.087" r="7.5"/><circle cx="378.693" cy="233.837" r="7.5"/><circle cx="213.673" cy="145.297" r="7.5"/><circle cx="344.203" cy="103.107" r="7.5"/><circle cx="435.683" cy="66.758" r="7.5"/><circle cx="429.653" cy="145.287" r="7.5"/></g></g></svg>