<svg id="Layer_1" height="512" viewBox="0 0 512 512" width="512" xmlns="http://www.w3.org/2000/svg" data-name="Layer 1"><path d="m463.9 251.92a99.94 99.94 0 0 0 -48.21-22.3 101 101 0 0 0 -16.79-1.39 99.888 99.888 0 0 0 -97.96 79.5h-89.88a99.8 99.8 0 0 0 -97.96-79.4 101.512 101.512 0 0 0 -16.84 1.4 99.8 99.8 0 0 0 -83.4 98.35c0 55.36 44.89 100.44 100.24 100.44a100.981 100.981 0 0 0 87.44-50.79h110.92a100.981 100.981 0 0 0 87.44 50.79c55.35 0 100.24-45.28 100.24-100.63a99.077 99.077 0 0 0 -35.24-75.97z" fill="#6d7486"/><path d="m401.09 115.82 62.81 136.1a99.94 99.94 0 0 0 -48.21-22.3l-15.6-33.8a55.678 55.678 0 0 0 -103.05 4.81l-.67-18.92-1.44-40.59c-.02-.67-.04-1.35-.04-2.02a55.66 55.66 0 0 1 106.2-23.28z" fill="#9ac5a1"/><path d="m400.09 195.82 15.6 33.8a101 101 0 0 0 -16.79-1.39 99.888 99.888 0 0 0 -97.96 79.5h-.09l-3.81-107.1a55.674 55.674 0 0 1 103.05-4.81z" fill="#75967a"/><path d="m296.37 181.71-.43.02h-79.88l-.43-.02-4.48 126.02h89.7z" fill="#7c7e38"/><path d="m217.11 139.1c0 .67-.02 1.35-.04 2.02l-1.44 40.59-.67 18.93a55.671 55.671 0 0 0 -103.05-4.82l-15.65 33.91a99.929 99.929 0 0 0 -48.28 22.44l62.93-136.35a55.66 55.66 0 0 1 106.2 23.28z" fill="#9ac5a1"/><path d="m214.96 200.64-3.81 107.09h-.09a99.8 99.8 0 0 0 -97.96-79.4 101.512 101.512 0 0 0 -16.84 1.4l15.65-33.91a55.677 55.677 0 0 1 103.05 4.82z" fill="#75967a"/><path d="m399.29 250.1a77.785 77.785 0 1 1 -77.78 77.79 77.793 77.793 0 0 1 77.78-77.79z" fill="#adf0e5"/><path d="m112.04 250.1a77.785 77.785 0 1 1 -77.79 77.79 77.793 77.793 0 0 1 77.79-77.79z" fill="#adf0e5"/><path d="m399.29 276.08a51.805 51.805 0 1 1 -51.8 51.81 51.806 51.806 0 0 1 51.8-51.81z" fill="#6addc7"/><path d="m112.04 276.08a51.805 51.805 0 1 1 -51.8 51.81 51.806 51.806 0 0 1 51.8-51.81z" fill="#6addc7"/><path d="m216.93 330.38h78.14v22.26h-78.14z" fill="#6addc7"/><path d="m269.4 307.1v.63h-26.8v-77.91a13.4 13.4 0 0 1 26.8 0z" fill="#bfb363"/><path d="m176.456 85.542a55.656 55.656 0 0 0 -65.546 30.278l-62.93 136.35a99.932 99.932 0 0 1 39.483-20.546l53.447-115.8a55.619 55.619 0 0 1 35.546-30.282z" fill="#c3eac6"/><path d="m377.49 327.89a51.826 51.826 0 0 1 36.8-49.595 51.8 51.8 0 1 0 0 99.181 51.813 51.813 0 0 1 -36.8-49.586z" fill="#56bfab"/><path d="m90.24 327.89a51.826 51.826 0 0 1 36.8-49.595 51.8 51.8 0 1 0 0 99.181 51.813 51.813 0 0 1 -36.8-49.586z" fill="#56bfab"/><g fill="#284268"><path d="m112.041 244.1a83.786 83.786 0 1 0 83.787 83.786 83.881 83.881 0 0 0 -83.787-83.786zm0 155.572a71.786 71.786 0 1 1 71.787-71.786 71.867 71.867 0 0 1 -71.787 71.786z"/><path d="m295.07 324.375h-78.14a6 6 0 0 0 -6 6v22.267a6 6 0 0 0 6 6h78.14a6 6 0 0 0 6-6v-22.267a6 6 0 0 0 -6-6zm-6 22.267h-66.14v-10.267h66.14z"/><path d="m112.041 270.085a57.8 57.8 0 1 0 57.8 57.8 57.867 57.867 0 0 0 -57.8-57.8zm0 103.6a45.8 45.8 0 1 1 45.8-45.8 45.853 45.853 0 0 1 -45.8 45.802z"/><path d="m399.293 244.1a83.786 83.786 0 1 0 83.787 83.786 83.881 83.881 0 0 0 -83.787-83.786zm0 155.572a71.786 71.786 0 1 1 71.787-71.786 71.867 71.867 0 0 1 -71.787 71.786z"/><path d="m399.293 270.085a57.8 57.8 0 1 0 57.8 57.8 57.867 57.867 0 0 0 -57.8-57.8zm0 103.6a45.8 45.8 0 1 1 45.8-45.8 45.853 45.853 0 0 1 -45.8 45.802z"/><path d="m129.99 122.471a5.994 5.994 0 0 0 7.962-2.934l2.4-5.2a6 6 0 1 0 -10.9-5.027l-2.4 5.2a6 6 0 0 0 2.938 7.961z"/><path d="m100.593 186.175a5.994 5.994 0 0 0 7.962-2.934l22.5-48.756a6 6 0 0 0 -10.9-5.028l-22.5 48.756a6 6 0 0 0 2.938 7.962z"/><path d="m468.8 248.216-62.258-134.911a61.844 61.844 0 0 0 -55.988-35.826 61.664 61.664 0 0 0 -61.624 63.853l1.222 34.4h-68.3l1.222-34.4a61.664 61.664 0 0 0 -61.624-63.853 61.844 61.844 0 0 0 -55.988 35.826l-62.37 135.149q-2.611 2.279-5.1 4.736a104.815 104.815 0 0 0 -31.13 74.893c0 58.69 47.66 106.438 106.242 106.438a107.033 107.033 0 0 0 90.846-50.794h104.1a107.033 107.033 0 0 0 90.85 50.794c58.582 0 106.242-47.836 106.242-106.635a104.67 104.67 0 0 0 -31.142-74.847q-2.529-2.509-5.2-4.823zm-153.98-143.562a49.253 49.253 0 0 1 35.734-15.175 49.811 49.811 0 0 1 45.093 28.854l54.2 116.732a105.525 105.525 0 0 0 -30.025-10.81l-14.283-30.95a61.666 61.666 0 0 0 -103.239-13.778l-1.373-38.621a49.254 49.254 0 0 1 13.893-36.252zm90.957 117.8c-2.281-.143-4.574-.223-6.881-.223a105.5 105.5 0 0 0 -93.118 55.322l-2.7-75.945a49.671 49.671 0 0 1 91.568-3.273zm-184.356-34.727h69.158l4.05 114h-19.229v-71.9a19.4 19.4 0 0 0 -38.792 0v71.9h-19.237zm41.975 42.1v71.9h-14.796v-71.9a7.4 7.4 0 0 1 14.792 0zm-147.043-111.494a49.811 49.811 0 0 1 45.093-28.854 49.665 49.665 0 0 1 49.632 51.427l-1.372 38.616a61.671 61.671 0 0 0 -103.248 13.783l-14.335 31.064a105.389 105.389 0 0 0 -30.048 10.859zm92.568 83.27-2.7 75.961a105.445 105.445 0 0 0 -93.121-55.236c-2.322 0-4.631.081-6.928.226l11.177-24.221a49.672 49.672 0 0 1 91.568 3.27zm189.979 220.918a95 95 0 0 1 -82.226-47.774 6 6 0 0 0 -5.207-3.02h-110.93a6 6 0 0 0 -5.207 3.02 95 95 0 0 1 -82.23 47.774c-51.965 0-94.242-42.365-94.242-94.438a92.9 92.9 0 0 1 27.595-66.383 94.362 94.362 0 0 1 158.74 47.269 6 6 0 0 0 5.869 4.754h89.876a6 6 0 0 0 5.869-4.754 94.385 94.385 0 0 1 158.743-47.41 92.755 92.755 0 0 1 27.588 66.327c0 52.182-42.277 94.635-94.238 94.635z"/></g></svg>