<svg id="Layer_1" enable-background="new 0 0 512 512" height="512" viewBox="0 0 512 512" width="512" xmlns="http://www.w3.org/2000/svg"><g><g><g><path d="m472.46 492.644s-10.76 1.517-30.61 3.453c-35.73 3.503-100.91 8.403-185.85 8.403-132.14 0-216.46-11.856-216.46-11.856 5.48-243.001 70.7-394.526 70.7-394.526s131.85-11.307 264.17-2.196c9.13.639 18.26 1.357 27.35 2.196 0 0 65.22 151.525 70.7 394.526z" fill="#dcf8ff"/><path d="m472.46 492.644s-10.76 1.517-30.61 3.453c-.63-189.618-52.17-355.205-67.44-400.175 9.13.639 18.26 1.357 27.35 2.196 0 0 65.22 151.525 70.7 394.526z" fill="#d2e1f9"/></g><g><path d="m280.85 431.687s-7.82 1.138-18.07 1.537c-2.17.08-4.44.13-6.78.13-13.38 0-24.85-1.667-24.85-1.667.57-17.764 4.59-36.377 4.59-36.377h40.52s4.02 18.612 4.59 36.377z" fill="#e2a67d"/><path d="m280.85 431.687s-7.82 1.138-18.07 1.537c-.66-14.531-2.14-28.064-3.44-37.914h16.92s4.02 18.612 4.59 36.377z" fill="#d18766"/></g><path d="m365.91 391.897s-11.36.808-29.69 1.657c-20.21.938-48.91 1.916-80.22 1.916-59.72 0-109.91-3.573-109.91-3.573 28.76-44.72 63.71-83.302 63.71-83.302-17.73.689-35.98 7.465-36.55 7.675 28.74-44.341 59.99-79.6 59.99-79.6-16.09 1.068-27.44 4.521-27.44 4.521 17.31-29.052 37.43-53.223 45.99-63.043 2.67-3.054 4.21-4.72 4.21-4.72s27.51 29.69 50.2 67.764c0 0-11.35-3.453-27.44-4.521 0 0 31.25 35.259 59.99 79.6-.57-.21-18.82-6.986-36.55-7.675 0-.002 34.95 38.581 63.71 83.301z" fill="#77e0ab"/><path d="m302.2 308.594s34.95 38.582 63.71 83.302c0 0-11.36.808-29.69 1.657-25.05-41.996-68.9-99.161-68.9-99.161 16.4.309 29.07 1.996 29.07 1.996-27.76-45.528-46.72-71.626-46.72-71.626 12.98-.848 24.33.519 24.33.519s-11.79-29.96-22.21-47.135c2.67-3.054 4.21-4.72 4.21-4.72s27.51 29.69 50.2 67.764c0 0-11.35-3.453-27.44-4.521 0 0 31.25 35.259 59.99 79.6-.57-.21-18.82-6.986-36.55-7.675z" fill="#65c1b0"/></g><g><path d="m130.818 493.347c-42.006-2.54-71.241-5.755-83.616-7.257 3.77-138.211 26.826-246.069 45.671-312.603 1.126-3.978-1.191-8.115-5.177-9.239s-8.131 1.189-9.257 5.167c-19.387 68.446-43.174 180.058-46.4 323.074-.085 3.794 2.687 7.051 6.452 7.581.336.047 34.251 4.764 91.421 8.221.154.009.308.014.46.014 3.935 0 7.238-3.06 7.479-7.033.25-4.127-2.899-7.675-7.033-7.925z"/><path d="m479.962 492.488c-.958-42.506-3.828-85.113-8.527-126.638-.465-4.108-4.186-7.057-8.294-6.598-4.116.464-7.076 4.171-6.611 8.278 4.401 38.886 7.18 78.737 8.269 118.557-22.301 2.698-99.421 10.942-208.798 10.942-26.83 0-53.718-.497-79.919-1.476-4.141-.172-7.62 3.069-7.775 7.2s3.075 7.606 7.214 7.76c26.385.987 53.463 1.487 80.479 1.487 131.152 0 216.662-11.811 217.51-11.931 3.766-.53 6.538-3.787 6.452-7.581z"/><path d="m94.253 142.708c3.936 1.287 8.173-.851 9.464-4.779 5.274-16.047 9.505-27.152 11.72-32.727 6.544-.496 19.836-1.437 38.042-2.391 1.047 19.239 5.366 33.748 5.738 34.967 1.207 3.952 5.393 6.175 9.353 4.976 3.96-1.201 6.197-5.381 4.998-9.334-.082-.271-4.05-13.687-5.023-31.344 44.015-1.989 108.262-3.53 174.934-.433-.925 17.758-4.913 31.332-5.044 31.77-1.207 3.954 1.025 8.137 4.987 9.342.729.222 1.465.327 2.19.327 3.213 0 6.186-2.077 7.171-5.305.375-1.228 4.75-15.924 5.759-35.356 12.666.723 25.371 1.622 37.994 2.728 7.403 18.709 37.722 100.501 55.446 226.524.526 3.741 3.738 6.446 7.418 6.446.347 0 .698-.024 1.052-.074 4.102-.575 6.96-4.359 6.385-8.453-20.5-145.755-57.807-233.573-58.181-234.442-1.085-2.522-3.466-4.249-6.205-4.5-14.562-1.335-29.25-2.394-43.881-3.219-.887-17.441-5.262-36.635-17.212-52.739-17.081-23.02-45.8-34.692-85.358-34.692s-68.276 11.672-85.358 34.692c-12.04 16.226-16.391 35.589-17.231 53.134-26.843 1.396-43.323 2.778-43.816 2.82-2.756.236-5.158 1.967-6.25 4.504-.234.543-5.819 13.587-13.881 38.113-1.291 3.928.853 8.156 4.789 9.445zm88.48-99.155c14.102-18.966 38.753-28.582 73.267-28.582s59.165 9.616 73.267 28.582c9.525 12.809 13.249 28.468 14.163 43.104-66.602-3.058-130.698-1.544-174.888.437.868-14.762 4.571-30.604 14.191-43.541z"/><path d="m223.654 431.453c-.123 3.807 2.638 7.098 6.414 7.648.49.072 12.166 1.747 25.932 1.747s25.442-1.675 25.932-1.747c3.776-.549 6.537-3.841 6.414-7.648-.344-10.649-1.85-21.457-3.076-28.761 45.793-.835 80.759-3.294 81.178-3.324 2.641-.188 4.986-1.752 6.171-4.114 1.186-2.362 1.036-5.173-.394-7.396-17.894-27.818-38.329-53.486-51.306-69.009 8.69 2.024 15.096 4.403 15.199 4.441 3.031 1.143 6.453.211 8.485-2.305 2.033-2.517 2.218-6.051.458-8.766-17.547-27.064-36.182-50.973-48.1-65.563 4.406.903 7.013 1.676 7.061 1.691 2.962.899 6.175-.112 8.085-2.545s2.125-5.788.542-8.444c-22.837-38.303-49.997-67.783-51.142-69.019-1.419-1.533-3.416-2.404-5.507-2.404s-4.088.871-5.507 2.404c-1.145 1.236-28.305 30.716-51.142 69.019-1.582 2.654-1.365 6.002.54 8.436 1.905 2.432 5.115 3.445 8.078 2.557.052-.016 2.661-.79 7.069-1.693-11.918 14.59-30.552 38.499-48.099 65.563-1.758 2.712-1.573 6.244.458 8.76 2.031 2.517 5.452 3.449 8.482 2.311.105-.039 6.5-2.414 15.18-4.437-2.42 2.893-5.103 6.145-7.991 9.709-2.604 3.215-2.104 7.928 1.117 10.527 3.221 2.598 7.944 2.1 10.548-1.115 11.948-14.751 20.542-24.261 20.627-24.355 2.023-2.234 2.508-5.461 1.229-8.19-1.278-2.728-4.064-4.434-7.085-4.309-6.46.25-12.932 1.239-18.693 2.446 24.495-35.25 47.778-61.639 48.046-61.942 2.014-2.273 2.453-5.536 1.112-8.259-1.341-2.724-4.193-4.363-7.231-4.168-4.08.272-7.872.689-11.279 1.166 13.472-20.365 27.174-37.054 34.542-45.624 7.365 8.563 21.059 25.239 34.541 45.625-3.408-.477-7.199-.894-11.28-1.166-3.042-.209-5.89 1.443-7.231 4.167s-.902 5.986 1.112 8.26c.268.303 23.551 26.692 48.046 61.942-5.761-1.207-12.233-2.195-18.693-2.446-3.031-.121-5.807 1.581-7.085 4.309s-.794 5.955 1.229 8.19c.317.35 29.395 32.588 55.874 71.606-18.65 1.049-55.481 2.768-96.514 2.768s-77.865-1.719-96.516-2.768c4.261-6.281 8.812-12.717 13.604-19.238 2.45-3.334 1.728-8.018-1.612-10.463-3.34-2.444-8.034-1.726-10.483 1.609-7.744 10.538-14.882 20.875-21.217 30.723-1.43 2.223-1.58 5.034-.394 7.396s3.531 3.926 6.171 4.114c.419.03 35.384 2.489 81.177 3.324-1.226 7.303-2.732 18.111-3.076 28.76zm18.268-28.553c4.623.042 9.323.065 14.078.065s9.455-.023 14.078-.065c.94 5.318 2.22 13.551 2.89 22.152-4.383.407-10.462.825-16.968.825s-12.585-.418-16.968-.825c.67-8.602 1.95-16.834 2.89-22.152z"/><circle cx="243.084" cy="279.055" r="7.5"/><circle cx="223.744" cy="354.797" r="7.5"/><circle cx="283.344" cy="337.9" r="7.5"/></g></g></svg>