<svg id="Layer_1" enable-background="new 0 0 512 512" height="512" viewBox="0 0 512 512" width="512" xmlns="http://www.w3.org/2000/svg"><path d="m472.73 94.179c-91.105-48.252-194.34-68.784-296.975-59.063l-146.525 271.148.07.16 452.951-207.1v-.1z" fill="#f7c365"/><path d="m29.3 306.424-.07.03v172.783l451.209-198.861 1.811-181.052z" fill="#ddab5b"/><path d="m225.809 35.116c8.28-.784 16.562-1.365 24.845-1.742-24.976-1.193-50.006-.611-74.9 1.742l-146.524 271.148.07.16 66.084-29.954z" fill="#d8a55b"/><path d="m95.811 276.022-66.511 30.402-.07.03v172.783l70.585-31.033z" fill="#c1944c"/><circle cx="104.7" cy="382.194" fill="#fcd29a" r="25.127"/><path d="m399.533 238.692c8.943.004 16.188 7.257 16.184 16.2s-7.257 16.188-16.2 16.184c-8.941-.004-16.187-7.256-16.184-16.197.001-8.94 7.249-16.188 16.189-16.187z" fill="#fcd29a"/><ellipse cx="261.607" cy="129.246" fill="#fcd29a" rx="17.869" ry="17.869" transform="matrix(.16 -.987 .987 .16 92.125 366.772)"/><path d="m200.182 73.407c7.401-.003 13.402 5.994 13.405 13.395s-5.994 13.402-13.395 13.405-13.402-5.994-13.405-13.395c0-.002 0-.003 0-.005 0-7.399 5.996-13.397 13.395-13.4z" fill="#fcd29a"/><path d="m196.738 230.523c6.666 10.743 3.361 24.857-7.383 31.523-10.743 6.666-24.857 3.361-31.523-7.383-6.666-10.743-3.361-24.857 7.383-31.523 3.625-2.249 7.806-3.441 12.072-3.44 7.925-.021 15.291 4.078 19.451 10.823z" fill="#fcd29a"/><path d="m408.3 134.632c3.194 12.552-4.393 25.317-16.945 28.511s-25.317-4.393-28.511-16.945 4.393-25.317 16.945-28.511c1.888-.48 3.829-.724 5.777-.724 10.725.003 20.083 7.277 22.734 17.669z" fill="#fcd29a"/><g fill="#284268"><path d="m98.115 243.986c2.915 1.576 6.555.49 8.131-2.425l53.556-99.1c1.515-2.947.353-6.564-2.594-8.079-2.863-1.471-6.377-.421-7.963 2.379l-53.556 99.1c-1.571 2.914-.486 6.55 2.426 8.125z"/><path d="m163.828 122.386c2.915 1.575 6.556.489 8.131-2.426l6.017-11.133c1.515-2.947.353-6.564-2.594-8.079-2.863-1.471-6.377-.421-7.963 2.379l-6.019 11.128c-1.575 2.916-.488 6.556 2.428 8.131z"/><path d="m484.837 94.086-9.506-5.034c-92.014-48.828-196.336-69.577-300.031-59.676-1.993.189-3.761 1.359-4.713 3.121l-147.042 270.905c-.514.894-1.545 1.922-1.545 3v172.598c0 2.028 1.769 3.918 3.467 5.026 1.11.639 2.369.975 3.65.974.894.001 1.779-.172 2.606-.51l450.825-198.655c2.167-.945 3.583-3.067 3.626-5.43l1.831-180.956c.031-2.24-1.191-4.309-3.168-5.363zm-10.821 182.33-439.016 193.384v-159.534l53.747-24.266c3.019-1.323 4.393-4.843 3.07-7.862s-4.843-4.393-7.862-3.07c-.043.019-.087.039-.13.059l-40.783 18.513 136.54-252.609c99.985-8.927 200.417 11.265 289.183 58.141l-57.41 27.41c-7.698-14.309-25.539-19.669-39.848-11.971-12.995 6.991-18.801 22.526-13.577 36.326l-159.259 72.188c-10.746-11.763-28.994-12.588-40.757-1.841-6.81 6.221-10.235 15.324-9.214 24.491l-27.257 12.355c-3.002 1.361-4.332 4.898-2.971 7.9.198.438.449.85.746 1.227l.041.053c1.699 2.157 4.652 2.877 7.153 1.743l26.1-11.829c8.061 13.749 25.743 18.36 39.492 10.299 11.755-6.892 17.087-21.068 12.789-33.999l159.685-72.38c11.372 11.596 29.992 11.778 41.589.405 5.645-5.536 8.823-13.111 8.817-21.016 0-.772-.039-1.535-.1-2.292l61.016-29.129zm-71.135-135.881c0 9.625-7.803 17.428-17.428 17.428s-17.428-7.803-17.428-17.428 7.803-17.428 17.428-17.428c9.621.011 17.417 7.807 17.428 17.428zm-208.618 102.078c0 9.317-7.553 16.87-16.87 16.87s-16.87-7.553-16.87-16.87 7.553-16.87 16.87-16.87c9.313.01 16.86 7.557 16.87 16.87z"/><path d="m200.263 106.373c10.707 0 19.387-8.68 19.387-19.387s-8.68-19.387-19.387-19.387-19.387 8.68-19.387 19.387c.012 10.702 8.685 19.375 19.387 19.387zm0-26.774c4.08 0 7.387 3.307 7.387 7.387s-3.307 7.387-7.387 7.387-7.387-3.307-7.387-7.387c.008-4.076 3.311-7.379 7.387-7.387z"/><path d="m377.222 254.884c0 12.247 9.929 22.176 22.176 22.176s22.176-9.929 22.176-22.176-9.927-22.175-22.174-22.176c-12.243.012-22.165 9.933-22.178 22.176zm32.352 0c0 5.62-4.556 10.176-10.176 10.176s-10.176-4.556-10.176-10.176 4.556-10.176 10.176-10.176h.002c5.617.007 10.168 4.559 10.174 10.176z"/><path d="m104.879 350.962c-17.176 0-31.1 13.924-31.1 31.1s13.924 31.1 31.1 31.1 31.1-13.924 31.1-31.1c-.02-17.168-13.932-31.08-31.1-31.1zm0 50.2c-10.549 0-19.1-8.551-19.1-19.1s8.551-19.1 19.1-19.1 19.1 8.551 19.1 19.1c-.012 10.544-8.556 19.089-19.1 19.102z"/><path d="m261.621 153.229c13.172 0 23.85-10.678 23.85-23.85s-10.678-23.85-23.85-23.85-23.85 10.678-23.85 23.85c.015 13.166 10.684 23.835 23.85 23.85zm0-35.7c6.545 0 11.85 5.305 11.85 11.85s-5.305 11.85-11.85 11.85-11.85-5.305-11.85-11.85c.008-6.541 5.309-11.842 11.85-11.85z"/></g></svg>