<svg id="Capa_1" enable-background="new 0 0 513.087 513.087" height="512" viewBox="0 0 513.087 513.087" width="512" xmlns="http://www.w3.org/2000/svg"><g><g><g><path d="m464.133 294.553 14.21 22.45h-444.81l14.99-22.45 38.26-50.75c25.43-33.73 58.41-57.37 94.42-70.93l74.36-11.16 107.58 26.61 31.64 21.83c11.41 9.81 22 21.02 31.52 33.65z" fill="#fbe88c"/></g><path d="m62.592 339.449 8.921 15.119c6.627 11.23 18.695 18.122 31.735 18.122h305.591c13.04 0 25.108-6.892 31.735-18.122l8.921-15.119 12.739-22.45h-410.622z" fill="#e4e1e5"/><g><g><path d="m394.783 210.153-31.64-21.83-107.58-26.61-74.36 11.16c-36.01 13.56-68.99 37.2-94.42 70.93l-38.26 50.75-14.99 22.45h45.074l5.634-8.438 38.26-50.75c14.738-19.549 32.016-35.703 50.947-48.474 3.221-2.173 7.306-2.466 10.91-1.015.019.008.037.015.056.022l26.136 10.454c3.967 1.587 7.769 3.56 11.349 5.892l7.613 4.958c19.168 12.481 41.39 19.079 64.265 19.079 10.297 0 20.563-1.354 30.512-4.022 2.697-.724 5.479-1.099 8.27-1.117l46.509-.292c13.23-.083 24.613-8.203 29.031-20.665-4.297-4.391-8.737-8.546-13.316-12.482zm-205.244-10.645c8.871-4.886 18.023-9.098 27.383-12.623l12.749-1.913z" fill="#fbe372"/></g><path d="m368.58 183.319 20.381 16.532c11.675 9.469 5.046 28.354-9.986 28.448l-46.509.293c-4.074.026-8.127.573-12.062 1.629-28.183 7.561-58.252 2.785-82.705-13.138l-7.613-4.957c-4.405-2.869-9.082-5.297-13.963-7.249l-26.138-10.455c-14.802-5.921-12.975-27.433 2.613-30.774l51.07-10.944 34.45-5.932 70.812 20.992z" fill="#f8f7f8"/><path d="m368.58 183.319-19.649-15.555-21.366-6.334.684 5.625-34.486 4.195v-19.841l-15.645-4.638-34.45 5.932-51.07 10.944c-15.588 3.34-17.415 24.853-2.613 30.774l10.786 4.314c2.146-2.942 5.372-5.221 9.637-6.135l32.049-6.868c7.033-1.507 14.344-.552 20.816 2.587 10.344 5.018 22.696 9.182 35.865 12.027 11.809 2.551 23.707 3.9 34.407 3.9 21.416 0 36.413-5.304 42.614-14.78z" fill="#efedee"/><ellipse cx="306.277" cy="167.303" fill="#f4bb87" rx="23.806" ry="64.28" transform="matrix(.211 -.977 .977 .211 78.071 431.345)"/><path d="m266.863 164.121c2.522-11.675 15.772-19.59 33.833-22.038-30.079-4.553-54.76.126-57.248 11.646-1.847 8.551 9.008 18.723 26.693 26.776-3.184-5.41-4.44-11.007-3.278-16.384z" fill="#f2ab6a"/><path d="m498.646 294.55h-484.205c-3.833 0-6.941 3.108-6.941 6.941v7.402c0 16.876 13.68 30.556 30.556 30.556h436.975c16.876 0 30.556-13.68 30.556-30.556v-7.402c0-3.834-3.108-6.941-6.941-6.941z" fill="#f8f7f8"/><path d="m75.205 319.352c-14.908 0-27.315-10.679-30.008-24.803h-30.756c-3.833 0-6.941 3.108-6.941 6.941v7.402c0 16.876 13.68 30.556 30.556 30.556h436.975c13.202 0 24.447-8.372 28.718-20.097h-428.544z" fill="#efedee"/><g fill="#be8f7d"><path d="m175.572 268.225-8.32-7.741c-3.011-2.802-3.181-7.514-.379-10.525l7.741-8.32c2.802-3.011 7.514-3.181 10.525-.379l8.32 7.741c3.011 2.802 3.181 7.514.379 10.525l-7.741 8.32c-2.802 3.011-7.514 3.181-10.525.379z"/><path d="m95.879 235.199-8.32-7.741c-3.011-2.802-3.181-7.514-.379-10.525l17.422-18.723c2.802-3.011 7.514-3.181 10.525-.379l8.32 7.741c3.011 2.802 3.181 7.514.379 10.525l-17.422 18.723c-2.802 3.011-7.514 3.18-10.525.379z"/><path d="m400.437 265.926-7.848 5.641c-4.283 3.079-10.251 2.103-13.33-2.18l-2.794-3.887c-3.079-4.283-2.103-10.251 2.18-13.33l7.848-5.641c4.283-3.079 10.251-2.103 13.33 2.18l2.794 3.887c3.079 4.283 2.103 10.251-2.18 13.33z"/></g></g></g><g><path d="m498.646 287.049h-30.341l-36.008-47.759c-9.106-12.077-19.421-23.188-30.665-33.091-1.245-4.663-3.946-8.929-7.945-12.173l-16.936-13.736c1.622-19.215-30.259-36.326-63.862-43.587-30.987-6.694-64.087-5.147-74.119 9.38l-47.742 10.231c-6.595 1.413-11.937 5.268-15.199 10.599-18.544 7.268-35.917 17-51.77 28.984l-3.822-3.556c-2.923-2.72-6.742-4.142-10.72-3.995-3.99.144-7.686 1.833-10.405 4.755l-17.422 18.722c-2.72 2.923-4.139 6.73-3.995 10.72s1.832 7.686 4.755 10.405l1.893 1.762c-1.212 1.523-2.401 3.052-3.554 4.58l-36.009 47.759h-30.339c-7.963 0-14.441 6.479-14.441 14.442v7.402c0 20.984 17.072 38.056 38.056 38.056h20.253l6.745 11.43c7.938 13.454 22.573 21.811 38.194 21.811h305.591c15.621 0 30.256-8.357 38.194-21.811l6.745-11.43h21.253c20.984 0 38.056-17.072 38.056-38.056v-7.402c0-7.963-6.478-14.442-14.441-14.442zm-78.327-38.728 29.2 38.729h-30.352l-12.51-16.592c6.023-5.778 7.059-15.269 2.049-22.239l-2.794-3.886c-2.658-3.698-6.598-6.14-11.092-6.875-4.402-.72-8.817.291-12.472 2.831-1.414-1.516-2.847-3.01-4.299-4.483l.973-.006c8.477-.053 15.942-4.459 20.076-11.521 7.648 7.423 14.76 15.472 21.221 24.042zm-231.971 6.096-7.664 8.319-.003-.002-8.316-7.667 7.667-8.317zm-23.741 28.626c2.178-2.889 4.465-5.73 6.819-8.514 2.706 2.125 5.961 3.184 9.213 3.184 4.009 0 8.007-1.599 10.947-4.758l7.742-8.32c4.781-5.138 5.227-12.765 1.534-18.385 10.851-8.412 22.566-15.617 34.944-21.507 6.175 3.816 12.663 6.997 19.374 9.501-24.109 13.122-45.612 31.095-63.028 52.805h-30.566zm61.067-9.679c6.671 4.166 13.112 8.74 19.284 13.685h-33.081c4.376-4.802 8.99-9.36 13.797-13.685zm42.108 13.685c-9.321-8.799-19.376-16.751-30.009-23.736 5.668-4.324 11.573-8.311 17.668-11.97 16.592 9.687 31.649 21.657 44.959 35.706zm52.703 0c-14.45-17.262-31.146-31.992-49.787-43.94 2.24-1.079 4.497-2.124 6.778-3.113 5.404.808 10.867 1.224 16.346 1.224 3.202 0 6.409-.152 9.611-.432 17.939 12.42 33.801 27.68 47.165 45.405l.645.856zm49.545 0-7.454-9.886c-11.357-15.063-24.419-28.451-38.927-40.004 2.907-.677 5.88-1.049 8.865-1.068l23.838-.15c4.922 4.308 9.69 8.899 14.244 13.73-4.362 5.804-4.677 14.008-.221 20.207l2.794 3.887c2.658 3.698 6.598 6.14 11.092 6.875.932.152 1.864.228 2.789.228 2.566 0 5.077-.587 7.383-1.707l5.948 7.889h-30.351zm26.029-27.213-7.848 5.642c-.57.41-1.145.421-1.528.359-.382-.062-.924-.257-1.334-.827l-2.794-3.887c-.66-.918-.45-2.203.469-2.863l7.847-5.642c.361-.26.78-.385 1.194-.385.639 0 1.269.296 1.669.854l2.794 3.886c.659.919.449 2.203-.469 2.863zm-208.69-81.135c.127-1.497.993-6.476 6.801-7.72l42.686-9.147c3.217 8.827 12.667 15.801 19.11 19.699 3.544 2.145 8.154 1.009 10.299-2.534 2.145-3.544 1.01-8.155-2.534-10.299-10.209-6.178-13.363-11.489-12.953-13.386 1.029-4.766 22.325-11.859 58.942-3.948s53.086 23.162 52.056 27.928c-1.029 4.766-22.325 11.86-58.942 3.948-3.379-.73-6.808-1.586-10.189-2.546-3.988-1.13-8.132 1.183-9.263 5.168s1.183 8.132 5.168 9.263c3.688 1.046 7.427 1.98 11.116 2.778 11.394 2.461 23.071 3.81 33.788 3.81 14.811 0 27.772-2.583 35.587-8.364l15.196 12.326c4.319 3.503 3.135 8.104 2.669 9.431s-2.417 5.658-7.979 5.692l-46.51.292c-4.71.03-9.406.664-13.957 1.885-26.09 7-54.034 2.56-76.669-12.179l-7.613-4.958c-4.807-3.13-9.944-5.797-15.271-7.927l-26.137-10.455c-5.514-2.207-5.528-7.261-5.401-8.757zm-77.35 24.62 8.317 7.667-17.345 18.723-.003-.002-8.316-7.667zm-17.251 44.999c1.112-1.474 2.259-2.95 3.431-4.42 1.541.515 3.143.786 4.748.786 4.009 0 8.008-1.599 10.948-4.758l17.422-18.723c3.432-3.688 4.627-8.661 3.668-13.254 12.353-9.354 25.697-17.243 39.847-23.54 1.1 5.391 4.031 10.126 8.367 13.517-22.832 12.831-42.867 29.788-59.664 50.559-2.605 3.221-2.105 7.943 1.115 10.548 1.389 1.123 3.055 1.669 4.712 1.669 2.186 0 4.354-.952 5.836-2.784 17.958-22.206 39.883-39.716 65.166-52.07l14.973 5.989c2.612 1.045 5.16 2.264 7.638 3.607-10.867 5.789-21.216 12.525-30.899 20.179-2.9-2.621-6.64-4-10.548-3.85-3.99.144-7.686 1.832-10.405 4.755l-7.741 8.319c-2.72 2.923-4.139 6.73-3.995 10.72.114 3.177 1.222 6.158 3.139 8.618-2.731 3.207-5.38 6.488-7.897 9.827l-9.829 13.036h-31.724l2.924-3.877c2.494-3.307 1.834-8.01-1.473-10.503-3.307-2.494-8.01-1.834-10.503 1.473l-9.732 12.908h-28.724zm405.319 60.573c0 12.713-10.343 23.056-23.056 23.056h-102.182c-4.142 0-7.5 3.358-7.5 7.5s3.358 7.5 7.5 7.5h63.512l-2.246 3.807c-5.253 8.903-14.938 14.434-25.275 14.434h-305.592c-10.337 0-20.022-5.531-25.275-14.434l-2.246-3.807h265.161c4.142 0 7.5-3.358 7.5-7.5s-3.358-7.5-7.5-7.5h-302.832c-12.713 0-23.056-10.343-23.056-23.056v-6.844h483.087z"/><path d="m223.413 187.897c1.483 1.69 3.557 2.554 5.641 2.554 1.756 0 3.52-.613 4.944-1.862 3.113-2.732 3.423-7.471.691-10.584l-2.737-3.119c-2.732-3.114-7.471-3.422-10.584-.691-3.114 2.732-3.423 7.471-.691 10.584z"/><path d="m280.517 217.045c.888 0 1.792-.159 2.671-.494l3.639-1.388c3.87-1.476 5.811-5.81 4.335-9.68s-5.808-5.811-9.68-4.335l-3.639 1.388c-3.87 1.476-5.811 5.81-4.335 9.68 1.14 2.99 3.988 4.829 7.009 4.829z"/><path d="m310.406 175.725c.684 0 1.378-.094 2.068-.292l3.213-.92c3.982-1.14 6.287-5.292 5.146-9.274-1.141-3.983-5.294-6.284-9.274-5.146l-3.213.92c-3.982 1.14-6.287 5.292-5.146 9.274.943 3.293 3.944 5.438 7.206 5.438z"/></g></g></svg>