<svg id="Layer_1" height="512" viewBox="0 0 512 512" width="512" xmlns="http://www.w3.org/2000/svg" data-name="Layer 1"><path d="m359 20.99-34 26-7 53-34.16 32 42.69 70.35 46.47-93.35z" fill="#75967a"/><path d="m194 99.99-7-53-34-26-14 88 46.78 92.36 42.38-69.36z" fill="#75967a"/><path d="m316.5 170.24h-121l-15 48v203.99a75.5 75.5 0 0 0 151 0v-203.99z" fill="#9ac5a1"/><path d="m202.33 131.99h107.34v38.25h-107.34z" fill="#5f6572"/><path d="m180.5 385.89h151v28h-151z" fill="#f3e08d"/><path d="m180.5 224.08h151v28h-151z" fill="#f3e08d"/><path d="m265.51 14.27h-19.02l-12 84.72 3 100.05h37.02l3-100.05z" fill="#75967a"/><path d="m210.5 422.23v-203.99l15-48h-30l-15 48v203.99a75.545 75.545 0 0 0 90.5 74.005 75.508 75.508 0 0 1 -60.5-74z" fill="#afddb4"/><path d="m202.33 131.99h30v38.25h-30z" fill="#7b8391"/><path d="m180.5 385.89h30v28h-30z" fill="#ffeea9"/><path d="m180.5 224.08h30v28h-30z" fill="#ffeea9"/><g fill="#284268"><path d="m378.926 108.042-14-88a6 6 0 0 0 -9.57-3.823l-34 26a6.005 6.005 0 0 0 -2.3 3.981l-6.719 50.873-29.597 27.718.769-25.626a6.117 6.117 0 0 0 -.056-1.021l-12-84.713a6 6 0 0 0 -5.941-5.159h-19.024a6 6 0 0 0 -5.941 5.159l-12 84.713a6.117 6.117 0 0 0 -.056 1.021l.769 25.626-29.592-27.718-6.719-50.873a6.005 6.005 0 0 0 -2.3-3.981l-34-26a6 6 0 0 0 -9.57 3.823l-14 88a6 6 0 0 0 .573 3.654l45.682 90.19-4.552 14.567-.282 205.779a81.5 81.5 0 1 0 162.992 0l-.273-205.779-4.247-13.59 45.4-91.2a6 6 0 0 0 .554-3.621zm-96.581 29.95h21.329v26.256h-22.117zm-30.645-117.72h8.6l11.2 79.046-2.81 93.722h-25.379l-2.811-93.722zm-20.209 178.947a6 6 0 0 0 6 5.821h37.024a6 6 0 0 0 6-5.821l.689-22.976h30.886l13.075 41.84h-138.324l13.075-41.84h30.884zm-1.836-61.227.788 26.251h-22.117v-26.256zm-84.425-29.984 12.115-76.147 24.033 18.378 6.674 50.532a6 6 0 0 0 1.847 3.593l23.085 21.624h-10.657a6 6 0 0 0 -6 6v32.258h-.827a6 6 0 0 0 -5.727 4.21l-5.315 17.01zm180.27 314.224a69.5 69.5 0 1 1 -138.992 0v-2.344h138.992zm0-14.344h-139v-16h139zm0-28h-139v-121.8h139zm0-133.8h-139v-16h139zm2.31-59.763-5.583-17.867a6 6 0 0 0 -5.727-4.21h-.822v-32.263a6 6 0 0 0 -6-6h-10.657l23.079-21.621a6 6 0 0 0 1.847-3.593l6.674-50.532 24.033-18.378 12.118 76.17z"/><path d="m208.169 283.985a6 6 0 0 0 6-6v-6.876a6 6 0 0 0 -12 0v6.876a6 6 0 0 0 6 6z"/><path d="m208.169 373.458a6 6 0 0 0 6-6v-70.279a6 6 0 0 0 -12 0v70.279a6 6 0 0 0 6 6z"/></g></svg>