<svg id="Layer_1" height="512" viewBox="0 0 512 512" width="512" xmlns="http://www.w3.org/2000/svg" data-name="Layer 1"><path d="m286.7 174.52 17.09 34.81-.05.07a156.78 156.78 0 0 0 -183.76-.51l16.87-34.37a83.448 83.448 0 0 1 74.66-46.7h.26a83.466 83.466 0 0 1 74.93 46.7z" fill="#5f6572"/><path d="m465.52 60.39-18.57 12.98 3.95 22.32-22.31-3.95-12.98 18.57-12.98-18.57-22.32 3.95 3.95-22.32-18.57-12.98 18.57-12.98-3.95-22.31 22.32 3.95 12.98-18.57 12.98 18.57 22.31-3.95-3.95 22.31z" fill="#fb6771"/><path d="m197.63 140.45a83.412 83.412 0 0 1 29.134-11.269 83.417 83.417 0 0 0 -14.994-1.361h-.26a83.448 83.448 0 0 0 -74.66 46.7l-16.87 34.37a156.517 156.517 0 0 1 39.37-20.56c.287-.1.578-.2.866-.294l6.634-13.516a83.433 83.433 0 0 1 30.78-34.07z" fill="#474d59"/><path d="m119.98 208.89a157.033 157.033 0 1 1 -65.5 127.6 156.517 156.517 0 0 1 65.5-127.6z" fill="#6d7486"/><path d="m84.48 336.49a156.758 156.758 0 0 1 142.027-156.3c-4.937-.469-9.938-.717-15-.717a157.025 157.025 0 1 0 0 314.05c5.06 0 10.062-.249 15-.717a157.035 157.035 0 0 1 -142.027-156.316z" fill="#5f6675"/><g fill="#284268"><path d="m211.506 499.521c89.894 0 163.028-73.134 163.028-163.027a163.356 163.356 0 0 0 -65.934-130.978l-16.51-33.641a89.438 89.438 0 0 0 -74.582-49.86v-22.868a56.506 56.506 0 0 1 113.011 0v40.517a45.8 45.8 0 0 0 91.605 0v-28.2l9.189-13.147 18.544 3.283a6 6 0 0 0 6.955-6.954l-3.286-18.546 15.432-10.785a6 6 0 0 0 0-9.836l-15.431-10.79 3.283-18.544a6 6 0 0 0 -6.954-6.955l-18.545 3.284-10.786-15.432a6 6 0 0 0 -9.836 0l-10.789 15.432-18.541-3.284a6 6 0 0 0 -6.954 6.954l3.283 18.545-15.432 10.786a6 6 0 0 0 0 9.836l15.432 10.789-3.283 18.545a6 6 0 0 0 6.954 6.954l18.541-3.287 10.218 14.619v26.733a33.8 33.8 0 0 1 -67.605 0v-40.517a68.506 68.506 0 0 0 -137.011 0v22.9a89.469 89.469 0 0 0 -74.047 49.832l-16.2 33.01a163.367 163.367 0 0 0 -66.78 131.609c.004 89.889 73.138 163.023 163.031 163.023zm196.04-411.221a6 6 0 0 0 -5.964-2.471l-13.865 2.455 2.455-13.865a6 6 0 0 0 -2.471-5.964l-11.534-8.061 11.533-8.063a6 6 0 0 0 2.471-5.964l-2.454-13.867 13.866 2.456a5.993 5.993 0 0 0 5.963-2.472l8.061-11.533 8.062 11.534a6 6 0 0 0 5.964 2.471l13.867-2.456-2.455 13.865a6 6 0 0 0 2.471 5.964l11.533 8.061-11.534 8.061a6 6 0 0 0 -2.471 5.964l2.456 13.868-13.865-2.455a6 6 0 0 0 -5.964 2.471l-6.117 8.753a5.924 5.924 0 0 0 -3.7.269zm-265.315 88.862a77.465 77.465 0 0 1 139.085 0l7.817 15.929a162.919 162.919 0 0 0 -154.529-.386zm19.112 16.831a151.028 151.028 0 0 1 201.191 142.5c0 83.277-67.751 151.027-151.028 151.027s-151.027-67.749-151.027-151.026a151.269 151.269 0 0 1 100.864-142.501z"/><path d="m109.16 316.316a103.946 103.946 0 0 1 63.052-76.466 6 6 0 0 0 -4.524-11.114 115.908 115.908 0 0 0 -70.3 85.272 6 6 0 1 0 11.777 2.308z"/><path d="m194.684 233.473a6.067 6.067 0 0 0 .915-.07 105.423 105.423 0 0 1 15.907-1.2 6 6 0 0 0 0-12 117.443 117.443 0 0 0 -17.723 1.343 6 6 0 0 0 .9 11.932z"/></g></svg>