<svg id="Layer_1" height="512" viewBox="0 0 512 512" width="512" xmlns="http://www.w3.org/2000/svg" data-name="Layer 1"><path d="m180.911 100.5a79.234 79.234 0 0 1 153.938-18.72l.17-.06a83.654 83.654 0 0 1 21.78-2.86 86.042 86.042 0 0 1 85.988 86.289 84.958 84.958 0 0 1 -10.959 41.97c-16.97 30.029-25.18 64.219-25.18 98.718v118.363h-290.576v-107.661c0-40.959-12.6-80.739-35.06-114.988a72.568 72.568 0 0 1 99.6-101.079z" fill="#deedfd"/><path d="m416.2 424.2h-311.208a4.669 4.669 0 0 0 -4.67 4.67v50.359a4.669 4.669 0 0 0 4.67 4.67h311.208a4.667 4.667 0 0 0 4.66-4.67v-50.361a4.667 4.667 0 0 0 -4.66-4.668z" fill="#b8d7f7"/><path d="m176.071 316.539c0-40.959-12.6-80.739-35.059-114.988a72.8 72.8 0 0 1 30.688-105.923 72.647 72.647 0 0 0 -90.688 105.923c22.46 34.249 35.06 74.029 35.06 114.988v107.661h60v-107.661z" fill="#bcdcfc"/><path d="m150.321 479.227v-50.359a4.669 4.669 0 0 1 4.67-4.67h-50a4.669 4.669 0 0 0 -4.67 4.67v50.359a4.669 4.669 0 0 0 4.67 4.67h50a4.669 4.669 0 0 1 -4.67-4.67z" fill="#97c9fa"/><g fill="#284268"><path d="m356.8 72.864a89.119 89.119 0 0 0 -18.236 1.865 85.211 85.211 0 0 0 -162.39 16.382 78.666 78.666 0 0 0 -100.214 113.73c22.292 34 34.04 72.621 34.04 111.7v101.459h-5.008a11.024 11.024 0 0 0 -10.992 10.992v50.238a10.8 10.8 0 0 0 10.77 10.77h311.43a10.836 10.836 0 0 0 10.8-10.8v-50.327a10.905 10.905 0 0 0 -10.873-10.873h-3.127v-112.162c0-34.4 8.264-67.515 24.226-95.765a91.379 91.379 0 0 0 11.648-44.925c0-50.885-41.351-92.284-92.074-92.284zm69.978 131.306c-16.978 30.048-25.778 65.204-25.778 101.668v112.162h-66.043l6.357-57.491a6 6 0 1 0 -11.928-1.318l-6.502 58.809h-54.884v-84.991a6 6 0 0 0 -12 0v84.991h-54.195l-6.5-58.809a6 6 0 1 0 -11.927 1.318l6.354 57.491h-13.732a6 6 0 0 0 0 12h239v48h-309v-48h30a6 6 0 0 0 0-12h-14v-101.463c0-41.419-12.427-82.318-36-118.276a66.58 66.58 0 0 1 88.7-94.351c-.045 1.135-.085 2.271-.085 3.417a6 6 0 0 0 12 0 73.226 73.226 0 0 1 146.451 0 6 6 0 0 0 12 0 85.085 85.085 0 0 0 -2.661-21.127 77.442 77.442 0 0 1 14.4-1.338c44.105 0 79.987 36.015 79.987 80.284a79.274 79.274 0 0 1 -10.014 39.024z"/><path d="m138.742 303.008a6 6 0 0 0 -5.795 6.2c.082 2.431.124 4.9.124 7.33a6 6 0 0 0 12 0c0-2.566-.044-5.169-.131-7.735a6 6 0 0 0 -6.198-5.795z"/><path d="m136.873 291.268a6.011 6.011 0 0 0 5.949-6.836 239.958 239.958 0 0 0 -37.557-98.783 43.82 43.82 0 0 1 -7.053-24.126 6 6 0 0 0 -12 0 55.783 55.783 0 0 0 9.018 30.706 228.062 228.062 0 0 1 35.709 93.871 6 6 0 0 0 5.934 5.168z"/></g></svg>