<svg id="Layer_1" enable-background="new 0 0 512 512" height="512" viewBox="0 0 512 512" width="512" xmlns="http://www.w3.org/2000/svg"><g><g><g><g><path d="m444.049 149.741-20.42 1.39-24.18 1.65s-13.05-24.82 8.72-32.61c3.04-1.09 6.76-1.84 11.3-2.15 36.98-2.52 24.58 31.72 24.58 31.72z" fill="#dcf8ff"/><path d="m444.049 149.741-20.42 1.39c1.25-3.87 7.91-27.77-15.46-30.96 3.04-1.09 6.76-1.84 11.3-2.15 36.98-2.52 24.58 31.72 24.58 31.72z" fill="#d2e1f9"/><path d="m428.279 246.691c-5.52.38-10.92-1.31-15.99-4.48-16.14-10.09-28.77-35.18-30.2-56.01-1.61-23.55 11.62-33.97 30.07-37.43 2.99-.56 6.12-.94 9.34-1.16 23.11-1.57 42.43 5.52 44.3 32.88 1.87 27.35-14.4 64.62-37.52 66.2z" fill="#ff5f85"/><path d="m428.279 246.691c-5.52.38-10.92-1.31-15.99-4.48 16.27-10.95 26.64-39.58 25.12-61.72-1.32-19.31-11.34-28.53-25.25-31.72 2.99-.56 6.12-.94 9.34-1.16 23.11-1.57 42.43 5.52 44.3 32.88 1.87 27.35-14.4 64.62-37.52 66.2z" fill="#b2527e"/></g><g><path d="m278.43 146.861-18.59-3.77-25.22-5.11s-6.03-27.6 17.34-29.15c3.17-.21 6.88.06 11.21.94 36.32 7.37 15.26 37.09 15.26 37.09z" fill="#dcf8ff"/><path d="m278.43 146.861-18.59-3.77c2.5-3.88 15.04-25.37-7.88-34.26 3.17-.21 6.88.06 11.21.94 36.32 7.37 15.26 37.09 15.26 37.09z" fill="#d2e1f9"/><path d="m291.22 182.281c-5.47 26.87-31.07 58.48-53.78 53.88-6.86-1.39-12.67-5.93-17.29-12.33-10.66-14.78-14.97-39.48-11.15-58.24 5.47-26.87 25.55-31.36 48.25-26.75.54.11 1.08.22 1.61.34 21.88 4.85 37.7 16.86 32.36 43.1z" fill="#be94ff"/><path d="m291.22 182.281c-5.47 26.87-31.07 58.48-53.78 53.88-6.86-1.39-12.67-5.93-17.29-12.33 20.33-3 40.8-30.37 45.62-54.06 2.8-13.78-.23-23.63-6.91-30.59 21.88 4.85 37.7 16.86 32.36 43.1z" fill="#8e77f2"/></g><g><path d="m114.311 117.071-17.69-8.67-22.44-10.99s1.14-27.92 23.81-23.88c3.2.57 6.84 1.78 10.96 3.8 33.27 16.311 5.36 39.74 5.36 39.74z" fill="#dcf8ff"/><path d="m114.311 117.071-17.69-8.67c3.44-3.16 20.71-20.56 1.37-34.87 3.2.57 6.84 1.78 10.96 3.8 33.27 16.311 5.36 39.74 5.36 39.74z" fill="#d2e1f9"/><path d="m117.711 154.571c-12.1 24.61-44.88 48.73-65.68 38.54-4.88-2.39-8.67-6.46-11.45-11.61-9.07-16.77-7.45-45 1.81-63.84 10.99-22.34 28.93-23.81 47.7-16.27 1.92.76 3.84 1.63 5.77 2.57 20.8 10.2 33.96 25.99 21.85 50.61z" fill="#77e0ab"/><path d="m117.711 154.571c-12.1 24.61-44.88 48.73-65.68 38.54-4.88-2.39-8.67-6.46-11.45-11.61 19.92-.2 44.42-20.39 54.52-40.93 8.28-16.85 4.73-29.57-5.01-39.18 1.92.76 3.84 1.63 5.77 2.57 20.8 10.2 33.96 25.99 21.85 50.61z" fill="#65c1b0"/></g></g><g><path d="m112.551 410.54-19.69-1.34-24.91-1.7s-9.08-25.08 11.48-30.73c3.47-.95 7.77-1.35 13.1-.99 36.98 2.52 20.02 34.76 20.02 34.76z" fill="#dcf8ff"/><path d="m112.551 410.54-19.69-1.34c2.48-5.6 10.33-27.19-13.43-32.43 3.47-.95 7.77-1.35 13.1-.99 36.98 2.52 20.02 34.76 20.02 34.76z" fill="#d2e1f9"/><path d="m129.911 443.96c-1.88 27.36-23.08 62.07-46.19 60.49-4.77-.33-9.24-2.17-13.32-5.13-15.74-11.39-25.68-39.36-24.2-61.07 1.45-21.24 13.42-30.27 29.52-32.5 4.63-.64 9.61-.72 14.78-.37 23.12 1.57 41.28 11.22 39.41 38.58z" fill="#ff5f85"/><path d="m129.911 443.96c-1.88 27.36-23.08 62.07-46.19 60.49-4.77-.33-9.24-2.17-13.32-5.13 16.89-9.4 30.29-35.43 31.76-56.93 1.51-21.97-9.91-32.52-26.44-36.64 4.63-.64 9.61-.72 14.78-.37 23.12 1.57 41.28 11.22 39.41 38.58z" fill="#b2527e"/></g><g><path d="m277.38 395.74-20.7 4.2-23.11 4.68s-13.49-19.03-.26-30.41c3.3-2.84 8.26-5.21 15.52-6.68 36.33-7.37 28.55 28.21 28.55 28.21z" fill="#dcf8ff"/><path d="m277.38 395.74-20.7 4.2c.81-8.06.44-27.87-23.37-25.73 3.3-2.84 8.26-5.21 15.52-6.68 36.33-7.37 28.55 28.21 28.55 28.21z" fill="#d2e1f9"/><path d="m274.56 493.92c-5.26 1.06-10.67.19-15.95-2.12-17.53-7.66-33.63-31.11-37.83-51.76-5.22-25.63 9.75-37.68 30.84-42.75 1.03-.25 2.07-.48 3.13-.69 22.7-4.6 42.78-.12 48.25 26.76 5.47 26.87-5.74 65.95-28.44 70.56z" fill="#77e0ab"/><path d="m274.56 493.92c-5.26 1.06-10.67.19-15.95-2.12 16.65-11.49 24.27-43.61 19.57-66.72-3.62-17.77-13.63-25.75-26.56-27.79 1.03-.25 2.07-.48 3.13-.69 22.7-4.6 42.78-.12 48.25 26.76 5.47 26.87-5.74 65.95-28.44 70.56z" fill="#65c1b0"/></g><g><path d="m437.819 355.17-17.26 8.46-22.87 11.21s-25.31-21.26 1.01-37.36c1.32-.81 2.76-1.6 4.35-2.38 33.28-16.309 34.77 20.07 34.77 20.07z" fill="#dcf8ff"/><path d="m437.819 355.17-17.26 8.46c-1.07-6.35-5.66-25.53-21.86-26.15 1.32-.81 2.76-1.6 4.35-2.38 33.28-16.309 34.77 20.07 34.77 20.07z" fill="#d2e1f9"/><path d="m459.969 450.87c-4.84 2.37-10.34 2.89-16.08 1.96-18.87-3.04-40.32-21.62-49.6-40.5-10.64-21.63-1.77-36.45 14.65-46.64 2.27-1.41 4.68-2.72 7.2-3.96 20.8-10.2 41.36-10.93 53.47 13.69 12.1 24.62 11.15 65.26-9.64 75.45z" fill="#ffe878"/><path d="m459.969 450.87c-4.84 2.37-10.34 2.89-16.08 1.96 11.41-16.09 10.26-47.1.33-67.3-8.52-17.34-21.24-22.1-35.28-19.84 2.27-1.41 4.68-2.72 7.2-3.96 20.8-10.2 41.36-10.93 53.47 13.69 12.1 24.62 11.15 65.26-9.64 75.45z" fill="#ffd37b"/></g></g><g><path d="m4.345 14.305c34.127 15.837 69.951 29.527 107.104 40.949l-6.127 12.463c-9.365-3.168-17.481-2.758-24.192 1.239-8.545 5.088-12.041 14.482-13.468 21.053-13.704 1.232-24.662 9.425-31.996 24.344-1.828 3.717-.295 8.212 3.422 10.039 3.717 1.829 8.212.296 10.039-3.422 5.82-11.838 16.015-23.703 43.433-10.269 11.567 5.668 18.705 12.27 21.217 19.624 2.069 6.057 1.156 12.904-2.791 20.934-10.792 21.953-39.716 42.925-55.649 35.118-8.736-4.281-13.924-18.404-13.216-35.981.167-4.139-3.054-7.629-7.192-7.796-4.15-.154-7.629 3.053-7.796 7.192-.976 24.236 7.101 42.948 21.604 50.054 4.34 2.126 9.121 3.18 14.21 3.18 9.018 0 19.006-3.307 29.218-9.807 13.584-8.646 25.653-21.858 32.282-35.344 5.713-11.621 6.899-22.522 3.525-32.4-.923-2.703-2.184-5.305-3.778-7.802 4.33-5.154 9.608-13.652 8.407-23.5-.944-7.742-5.581-14.398-13.809-19.854l7.236-14.72c20.416 5.897 41.211 11.117 62.328 15.64 23.506 5.035 47.432 9.216 71.639 12.527l-2.772 13.617c-9.863-.697-17.611 1.749-23.092 7.313-6.975 7.08-7.979 17.047-7.695 23.766-12.947 4.654-21.471 15.349-24.787 31.638-2.997 14.723-1.52 32.546 3.953 47.677 6.436 17.797 17.215 29.065 30.35 31.73 1.999.406 4.025.606 6.071.606 11.388 0 23.348-6.228 34.267-17.988 10.953-11.797 19.281-27.629 22.278-42.352 3.053-14.999.282-27.322-8.234-36.627-.694-.758-1.427-1.493-2.196-2.205 2.882-6.079 5.833-15.627 2.182-24.846-2.873-7.256-9.048-12.527-18.397-15.728l2.987-14.675c24.412 2.965 49.078 5.048 73.859 6.232 17.354.829 33.608 1.167 48.587 1.167 4.504 0 8.892-.031 13.16-.088l.993 14.506c-9.692 1.942-16.51 6.356-20.315 13.172-4.834 8.657-3.169 18.509-1.116 24.914-.857.605-1.681 1.237-2.469 1.898-9.671 8.102-14.045 19.953-12.999 35.221.282 4.132 3.839 7.26 7.995 6.97 4.132-.283 7.253-3.862 6.97-7.995-.709-10.357 1.799-17.782 7.667-22.699 5.347-4.479 13.68-7.134 24.768-7.892 30.47-2.076 35.406 12.75 36.306 25.901.834 12.171-2.446 27.037-8.559 38.796-6.135 11.8-14.148 18.875-21.985 19.41-9.859.664-21.572-9.187-29.805-25.124-1.9-3.68-6.426-5.121-10.105-3.221-3.68 1.901-5.122 6.426-3.221 10.106 10.847 20.998 26.462 33.273 42.12 33.273.678 0 1.355-.023 2.032-.069 13.371-.913 25.542-10.664 34.272-27.456 7.423-14.278 11.241-31.751 10.215-46.74-1.135-16.583-8.173-28.308-20.391-34.626 1.168-6.623 1.489-16.635-4.491-24.573-4.7-6.236-12.054-9.685-21.925-10.291l-.945-13.801c48.683-1.416 78.385-6.066 80.156-6.35 4.09-.655 6.875-4.501 6.22-8.592-.654-4.09-4.5-6.875-8.591-6.22-.425.068-30.202 4.732-78.813 6.145l-.73-10.657c-.282-4.133-3.861-7.253-7.995-6.97-4.132.283-7.253 3.862-6.97 7.995l.681 9.949c-18.027.239-38.171-.002-60.002-1.045-21.341-1.019-45.427-2.881-71.562-6.048l1.892-9.295c.826-4.059-1.795-8.019-5.853-8.845-4.058-.827-8.02 1.794-8.846 5.853l-2.11 10.364c-39.933-5.458-84.1-13.99-130.22-27.118l3.463-7.044c1.828-3.717.295-8.212-3.422-10.039-3.713-1.827-8.21-.296-10.039 3.422l-4.605 9.368c-35.189-10.676-71.359-24.075-107.523-40.857-3.757-1.744-8.217-.111-9.96 3.646s-.111 8.216 3.646 9.96zm94.815 82.926c-5.689-2.787-11.137-4.78-16.314-5.988 1.048-3.633 2.902-7.596 5.986-9.416 4.591-2.708 11.68-.274 16.819 2.244 5.133 2.516 11.392 6.62 12.057 11.887.447 3.545-1.557 7.432-3.794 10.481-4.132-3.341-9.055-6.415-14.754-9.208zm184.708 83.551c-4.877 23.961-27.546 51.544-44.935 48.025-7.697-1.562-14.704-9.628-19.226-22.132-4.507-12.46-5.794-27.628-3.361-39.583 2.195-10.784 7.334-22.356 26.379-22.356 3.771 0 8.088.454 13.035 1.458 10.891 2.21 18.801 5.938 23.508 11.082 5.167 5.643 6.672 13.332 4.6 23.506zm-7.507-55.195c1.328 3.315.376 7.576-1.014 11.089-4.847-2.19-10.39-3.922-16.604-5.183-6.213-1.26-11.991-1.812-17.307-1.673.092-3.778.881-8.081 3.403-10.62 3.751-3.778 11.224-3.215 16.834-2.078.002 0 .003.001.005.001 5.606 1.138 12.706 3.53 14.683 8.464zm160.038 4.19c2.165 2.849 2.378 7.219 1.97 10.977-5.252-.838-11.054-1.052-17.38-.62s-12.049 1.419-17.142 2.952c-.913-3.663-1.293-8.011.46-11.121 2.609-4.63 9.956-6.068 15.664-6.46.005 0 .01-.001.014-.001.003 0 .005 0 .008-.001 5.714-.386 13.188.038 16.406 4.274z"/><path d="m511.301 262.104c-1.742-3.756-6.203-5.389-9.96-3.646-36.178 16.789-72.359 30.185-107.526 40.853l-4.603-9.362c-1.826-3.717-6.321-5.25-10.039-3.422-3.718 1.827-5.249 6.322-3.422 10.039l3.46 7.038c-46.226 13.156-90.421 21.681-130.218 27.124l-2.11-10.364c-.826-4.059-4.787-6.684-8.845-5.853-4.059.826-6.679 4.786-5.853 8.845l1.892 9.295c-24.294 2.947-46.732 4.753-66.724 5.805-4.136.218-7.313 3.747-7.096 7.884.21 4.002 3.522 7.106 7.483 7.106.133 0 .266-.003.4-.01 23.128-1.216 46.15-3.218 68.948-5.986l2.987 14.676c-9.349 3.201-15.523 8.473-18.397 15.728-3.651 9.22-.7 18.768 2.182 24.847-.769.712-1.502 1.447-2.195 2.205-8.517 9.305-11.288 21.628-8.235 36.627 2.997 14.722 11.325 30.555 22.278 42.352 10.92 11.762 22.878 17.989 34.267 17.988 2.045 0 4.072-.201 6.071-.606 15.723-3.189 28.244-19.106 33.494-42.578.904-4.042-1.64-8.052-5.683-8.957-4.04-.903-8.052 1.64-8.956 5.682-3.861 17.266-12.229 29.203-21.838 31.152-17.394 3.532-40.057-24.064-44.935-48.025-2.07-10.173-.565-17.862 4.602-23.507 4.707-5.143 12.617-8.871 23.508-11.081 29.923-6.072 36.783 7.979 39.414 20.899.826 4.059 4.785 6.681 8.846 5.853 4.059-.826 6.68-4.787 5.853-8.845-3.316-16.288-11.841-26.983-24.788-31.637.284-6.719-.72-16.686-7.695-23.767-5.481-5.564-13.228-8.012-23.092-7.314l-2.772-13.617c25.261-3.455 50.214-7.857 74.696-13.186 20.066-4.368 39.841-9.367 59.272-14.98l7.236 14.719c-8.228 5.456-12.865 12.112-13.809 19.854-1.202 9.848 4.076 18.346 8.406 23.5-1.594 2.497-2.855 5.099-3.778 7.803-3.374 9.878-2.188 20.779 3.525 32.4 6.63 13.485 18.698 26.698 32.282 35.343 10.213 6.5 20.199 9.806 29.219 9.806 5.089 0 9.871-1.053 14.21-3.179 8.172-4.004 14.412-11.743 18.045-22.378 6.288-18.412 4.243-44.366-4.975-63.116-7.334-14.92-18.292-23.114-31.997-24.345-1.428-6.572-4.923-15.964-13.467-21.052-6.713-3.997-14.827-4.406-24.193-1.239l-6.127-12.464c37.154-11.423 72.982-25.114 107.104-40.949 3.76-1.741 5.392-6.2 3.648-9.958zm-244.139 114.855c2.523 2.541 3.31 6.847 3.403 10.621-5.316-.14-11.095.412-17.307 1.672-6.215 1.261-11.758 2.993-16.605 5.183-1.389-3.512-2.341-7.774-1.013-11.089 1.977-4.934 9.076-7.326 14.683-8.464.002 0 .003-.001.005-.001 5.613-1.136 13.084-1.698 16.834 2.078zm195.712 1.77c7.481 15.219 9.265 36.94 4.24 51.65-1.616 4.732-4.741 10.959-10.449 13.757-15.936 7.807-44.858-13.167-55.65-35.119-3.947-8.03-4.86-14.877-2.791-20.934 2.512-7.354 9.65-13.956 21.217-19.624 27.419-13.433 37.614-1.567 43.433 10.27zm-39.706-39.142c3.086 1.821 4.94 5.787 5.987 9.415-5.176 1.208-10.625 3.201-16.314 5.988-5.7 2.793-10.622 5.867-14.754 9.208-2.237-3.049-4.24-6.936-3.793-10.481.664-5.267 6.923-9.371 12.056-11.887 5.139-2.517 12.227-4.95 16.818-2.243z"/><path d="m124.392 409.251c-.788-.66-1.612-1.293-2.469-1.898 2.054-6.405 3.718-16.256-1.116-24.914-3.806-6.816-10.624-11.229-20.316-13.171l.995-14.52c4.34.059 8.805.09 13.389.09 4.951 0 10.053-.037 15.277-.116 4.142-.063 7.448-3.471 7.386-7.612s-3.479-7.423-7.612-7.386c-9.591.145-18.745.142-27.413.027l.682-9.956c.283-4.133-2.837-7.712-6.97-7.995-4.136-.292-7.712 2.838-7.995 6.97l-.73 10.664c-48.568-1.415-78.44-6.092-78.814-6.151-4.093-.655-7.935 2.132-8.589 6.222-.654 4.09 2.13 7.935 6.22 8.59 1.559.25 31.247 4.911 80.157 6.334l-.946 13.817c-9.869.607-17.225 4.052-21.924 10.289-5.979 7.936-5.659 17.947-4.492 24.57-12.219 6.318-19.256 18.046-20.391 34.629-1.027 14.989 2.791 32.462 10.214 46.74 8.73 16.792 20.902 26.543 34.272 27.456.688.047 1.374.07 2.061.07 12.677-.001 25.258-7.957 35.632-22.611 9.3-13.136 15.465-29.927 16.491-44.917 1.045-15.268-3.328-27.118-12.999-35.221zm-48.789-21.715c3.218-4.235 10.698-4.659 16.405-4.273.003 0 .005 0 .008.001.005 0 .009.001.014.001 5.709.391 13.055 1.83 15.665 6.46 1.754 3.112 1.372 7.462.461 11.122-5.094-1.533-10.817-2.52-17.144-2.952-6.326-.433-12.128-.219-17.38.618-.407-3.759-.194-8.128 1.971-10.977zm46.823 55.912c-1.638 23.92-19.77 53.554-37.167 53.552-.343 0-.688-.011-1.031-.035-7.837-.535-15.85-7.609-21.985-19.41-6.113-11.759-9.392-26.625-8.559-38.796.843-12.314 5.224-26.097 30.788-26.097 1.738 0 3.579.064 5.519.196 11.088.757 19.422 3.412 24.768 7.891 5.868 4.917 8.376 12.342 7.667 22.699z"/></g></g></svg>