<svg id="Capa_1" enable-background="new 0 0 513.087 513.087" height="512" viewBox="0 0 513.087 513.087" width="512" xmlns="http://www.w3.org/2000/svg"><g><g><g><path d="m402.844 95.613-32.856 19.306-57.258 7.319c-47.503 6.072-71.914 60.101-45.076 99.763 28.583 42.24 92.62 35.951 112.439-11.043l24.001-56.91 22.925-31.949c6.092-8.49 3.864-20.346-4.894-26.046-5.823-3.79-13.29-3.96-19.281-.44z" fill="#d79c7a"/><path d="m422.126 96.054c-5.824-3.79-13.291-3.961-19.282-.441l-32.857 19.306-57.258 7.319c-39.055 4.992-62.493 42.4-54.682 77.589h8.409l-4.288 12.353c1.51 3.344 3.326 6.63 5.486 9.821 26.449 39.087 83.251 36.614 107.289-1.207l-40.05-34.061c-7.265-6.83-15.071-12.91-23.314-18.2-10.758-6.904-8.633-23.425 3.615-27.085 3.363-1.005 6.876-1.755 10.525-2.222l57.258-7.319 32.856-19.306c4.475-2.63 9.795-3.193 14.617-1.734-.18-5.779-3.083-11.402-8.324-14.813z" fill="#d08a61"/><path d="m410.753 338.791c26.98-2.968 34.628-38.587 11.245-52.369l-2.464-1.452-97.99-83.335c-55.177-52.232-142.636-51.292-195.292 3.481-27.394 28.495-43.061 69.025-35.97 116.019l2.659 17.625 9.847 47.365h250.728z" fill="#d79c7a"/><path d="m421.998 286.422-2.464-1.452-97.99-83.335c-3.586-3.394-7.298-6.556-11.137-9.501-3.335 4.511-6.245 9.415-8.623 14.678-11.422 25.279-8.959 54.086 6.587 77.061 14.984 22.145 38.86 34.847 65.506 34.85h.008c21.983 0 42.408-8.977 57.073-24.119-2.21-3.15-5.171-5.949-8.96-8.182z" fill="#d08a61"/><path d="m455.983 149.077-32.856 19.306-57.258 7.319c-47.503 6.072-71.914 60.101-45.076 99.763 28.583 42.24 92.62 35.951 112.439-11.043l24.001-56.91 22.925-31.949c6.092-8.49 3.864-20.346-4.894-26.046-5.823-3.789-13.29-3.96-19.281-.44z" fill="#d79c7a"/><path d="m382.284 196.075 51.291-6.557c3.937-.503 7.731-1.799 11.152-3.81l27.671-16.259c3.405-2.001 7.29-2.793 11.076-2.422.786-6.76-2.229-13.742-8.435-17.656-5.905-3.723-13.471-3.576-19.49-.039l-32.421 19.05-57.258 7.319c-47.503 6.072-71.915 60.101-45.076 99.763 3.647 5.389 7.865 9.984 12.501 13.809-20.213-38.811 4.059-87.454 48.989-93.198z" fill="#d08a61"/><path d="m307.445 279.061c-4.159-9.4-13.416-15.474-23.583-15.474-1.487 0-2.995.128-4.481.382l-17.275 2.944-50.021-36.682c-5.581-4.093-15.303-7.213-23.635-9.303-7.03-1.764-9.639-10.461-4.622-15.692.038-.04.077-.08.115-.12 19.667-20.458 44.192-33.411 70.074-38.884-45.043-9.461-93.69 3.441-127.764 38.884-27.394 28.495-43.061 69.025-35.97 116.019l2.659 17.625 9.847 47.365h57.691l-9.104-43.791c16.442 7.376 34.447 11.266 52.432 11.266 36.029 0 70.583-15.283 94.801-41.93l4.301-4.733c6.998-7.702 8.736-18.383 4.535-27.876z" fill="#d08a61"/><path d="m258.36 282.768-55.146-40.44c-24.732-18.137-59.847-9.488-73.328 18.059-11.854 24.223-2.012 53.474 22.073 65.604l1.036.522c45.349 22.84 100.362 12.643 134.512-24.932l4.301-4.732c6.975-7.674.316-19.836-9.907-18.093z" fill="#d79c7a"/></g><path d="m449.495 386.038-8.921 15.119c-6.627 11.23-18.695 18.122-31.735 18.122h-305.591c-13.04 0-25.108-6.892-31.735-18.122l-8.921-15.119-16.119-27.468h418.945z" fill="#e4e1e5"/><path d="m498.646 338.791h-484.205c-3.833 0-6.941 3.108-6.941 6.941v7.402c0 16.876 13.68 30.556 30.556 30.556h436.975c16.876 0 30.556-13.68 30.556-30.556v-7.402c0-3.833-3.108-6.941-6.941-6.941z" fill="#f8f7f8"/><path d="m76.193 365.401c-15.537 0-28.357-11.599-30.294-26.609h-31.458c-3.833 0-6.941 3.108-6.941 6.941v7.402c0 16.876 13.681 30.556 30.556 30.556h436.975c12.512 0 23.261-7.523 27.987-18.29z" fill="#efedee"/></g><g><path d="m498.646 331.292h-61.66c2.64-3.818 4.57-8.22 5.608-13.055 2.851-13.277-1.736-26.341-11.805-34.759 3.718-4.857 6.873-10.257 9.354-16.141l23.675-56.135 22.435-31.266c4.151-5.786 5.714-12.827 4.398-19.827-1.314-6.999-5.326-12.993-11.295-16.878-8.261-5.377-18.675-5.615-27.173-.621l-31.531 18.527-11.279 1.442 1.728-4.096 22.435-31.266c4.151-5.786 5.714-12.827 4.399-19.827-1.315-6.999-5.327-12.993-11.296-16.877-8.263-5.377-18.676-5.615-27.172-.621l-31.532 18.527-55.733 7.125c-25.83 3.302-47.126 19.667-57.034 43.321-47.513-9.801-98.694 3.993-134.322 41.052-31.457 32.721-44.945 76.167-37.979 122.336l1.364 9.037h-69.79c-7.963.002-14.441 6.48-14.441 14.442v7.402c0 20.984 17.072 38.056 38.056 38.056h18.868l8.13 13.778c7.938 13.453 22.573 21.811 38.194 21.811h305.59c15.621 0 30.256-8.357 38.194-21.811l8.13-13.778h19.868c20.984 0 38.057-17.072 38.057-38.056v-7.402c0-7.962-6.478-14.44-14.441-14.44zm-184.543-200.868 57.257-7.319c1.005-.128 1.975-.459 2.849-.973l32.857-19.306c3.562-2.092 7.927-1.993 11.391.261 2.502 1.628 4.184 4.141 4.735 7.075s-.104 5.886-1.845 8.312l-22.925 31.949c-.326.454-.6.943-.816 1.458l-5.44 12.899-20.554 2.627c-4.108.525-7.014 4.282-6.488 8.391s4.282 7.02 8.391 6.488l50.563-6.463c1.005-.128 1.975-.459 2.849-.973l32.856-19.306c3.564-2.093 7.929-1.994 11.392.26 2.502 1.628 4.184 4.141 4.734 7.076.552 2.934-.104 5.886-1.844 8.312l-22.925 31.948c-.325.454-.6.943-.816 1.458l-24.001 56.91c-8.222 19.494-25.7 32.367-46.756 34.435-21.056 2.063-40.706-7.159-52.562-24.681-8.857-13.089-11.86-28.704-8.457-43.967 3.427-15.367 13.028-28.728 26.342-36.656 3.56-2.119 4.727-6.722 2.607-10.281-2.12-3.56-6.726-4.726-10.281-2.606-6.07 3.614-11.516 8.127-16.218 13.314-15.384-13.132-32.818-22.576-51.128-28.369 8.181-17.635 24.543-29.756 44.233-32.273zm-216.405 189.592c-6.255-41.457 5.806-80.416 33.96-109.702 48.1-50.035 127.863-52.744 180.437-7.112-3.749 6.419-6.54 13.439-8.188 20.828-4.312 19.335-.521 39.095 10.674 55.638 13.602 20.1 35.311 31.565 59.102 31.564 2.43 0 4.883-.12 7.35-.362 14.992-1.472 28.549-7.278 39.39-16.472 7.517 5.692 8.895 14.223 7.507 20.688-1.504 7-6.948 14.887-17.702 16.204h-148.612c11.575-6.294 22.241-14.544 31.442-24.667l4.3-4.732c5.362-5.9 6.354-14.231 2.524-21.225-3.83-6.993-11.387-10.643-19.241-9.306l-20.408 3.479-31.495-23.096c-3.34-2.451-8.034-1.728-10.483 1.613-2.45 3.34-1.728 8.034 1.613 10.483l31.575 23.155c3.206 2.352 7.295 3.315 11.211 2.648l20.507-3.495c2.086-.359 3.128.927 3.564 1.723s.955 2.366-.468 3.932l-4.3 4.732c-31.766 34.95-83.409 44.522-125.589 23.277l-1.035-.521c-20.315-10.232-28.708-35.178-18.71-55.61 5.101-10.424 14.003-18.058 25.068-21.494 10.948-3.401 22.911-2.148 32.818 3.438 3.608 2.033 8.182.759 10.216-2.85s.758-8.183-2.85-10.217c-13.491-7.605-29.759-9.317-44.634-4.697-15.049 4.675-27.156 15.054-34.092 29.226-13.157 26.887-2.885 59.523 22.836 74.202h-46.586zm400.389 33.119c0 12.713-10.343 23.056-23.057 23.056h-103.458c-4.143 0-7.5 3.358-7.5 7.5s3.357 7.5 7.5 7.5h66.175l-3.632 6.155c-5.254 8.903-14.939 14.434-25.276 14.434h-305.59c-10.337 0-20.022-5.531-25.275-14.434l-3.632-6.155h265.201c4.143 0 7.5-3.358 7.5-7.5s-3.357-7.5-7.5-7.5h-301.487c-12.713 0-23.056-10.343-23.056-23.056v-6.843h483.087z"/><path d="m214.118 210.384h4.82c4.142 0 7.5-3.358 7.5-7.5s-3.358-7.5-7.5-7.5h-4.82c-4.142 0-7.5 3.358-7.5 7.5s3.358 7.5 7.5 7.5z"/><path d="m256.543 217.637h-3.864c-4.142 0-7.5 3.358-7.5 7.5s3.358 7.5 7.5 7.5h3.864c4.143 0 7.5-3.358 7.5-7.5s-3.357-7.5-7.5-7.5z"/><path d="m248.735 202.179h5.876c4.142 0 7.5-3.358 7.5-7.5s-3.357-7.5-7.5-7.5h-5.876c-4.142 0-7.5 3.358-7.5 7.5s3.358 7.5 7.5 7.5z"/><path d="m360.474 222.933h6.573c4.143 0 7.5-3.358 7.5-7.5s-3.357-7.5-7.5-7.5h-6.573c-4.143 0-7.5 3.358-7.5 7.5s3.358 7.5 7.5 7.5z"/><path d="m392.025 253.009h7.449c4.143 0 7.5-3.358 7.5-7.5s-3.357-7.5-7.5-7.5h-7.449c-4.143 0-7.5 3.358-7.5 7.5s3.357 7.5 7.5 7.5z"/></g></g></svg>