<svg id="Layer_1" height="512" viewBox="0 0 512 512" width="512" xmlns="http://www.w3.org/2000/svg" data-name="Layer 1"><path d="m432.46 222.06v67.88l51.33-34.39z" fill="#f3e08d"/><path d="m277.793 357.912h101.495v32h-101.495z" fill="#7c7e38" transform="matrix(.707 -.707 .707 .707 -168.167 341.795)"/><path d="m312.54 87.34h32v101.495h-32z" fill="#7c7e38" transform="matrix(.707 -.707 .707 .707 -1.415 272.758)"/><path d="m113.9 225.21h-29.46l30.35 30.34-30.35 30.35h29.46l28.33-28.33.35-3.68z" fill="#50dd5a"/><path d="m114.79 255.55-30.35 30.35h-29.45l30.34-30.35-30.34-30.34h29.45z" fill="#9be147"/><path d="m85.33 255.55-30.34 30.35h-26.78l28.56-30.35-28.56-30.34h26.78z" fill="#50dd5a"/><path d="m22.705 288.28a6 6 0 0 0 5.507 3.62h85.688a6 6 0 0 0 4.243-1.757l23.091-23.091 112.5 173.433a35.189 35.189 0 0 0 27.5 57.151 6 6 0 0 0 0-12 23.193 23.193 0 0 1 -16.4-39.593l27.8-27.8 7.106 7.106a6 6 0 0 0 8.485 0l71.768-71.768a6 6 0 0 0 0-8.485l-7.107-7.108a41.518 41.518 0 0 0 6.376-50.933 59.712 59.712 0 0 1 -8.424-25.505h55.638v28.388a6 6 0 0 0 9.34 4.984l51.324-34.388a6 6 0 0 0 -.06-10.009l-51.325-33.5a6 6 0 0 0 -9.279 5.024v27.5h-55.564a59.693 59.693 0 0 1 8.337-24.613 41.519 41.519 0 0 0 -6.376-50.934l7.107-7.107a6 6 0 0 0 0-8.485l-71.768-71.763a6 6 0 0 0 -8.485 0l-7.106 7.106-27.8-27.8a23.193 23.193 0 0 1 16.4-39.593 6 6 0 0 0 0-12 35.189 35.189 0 0 0 -27.5 57.151l-112.14 172.896-23.442-23.442a6 6 0 0 0 -4.243-1.757h-85.684a6 6 0 0 0 -4.369 10.112l24.691 26.234-24.691 26.234a6 6 0 0 0 -1.138 6.492zm415.758-55.141 34.447 22.481-34.447 23.08zm-134.494 179.486-14.141-14.143 63.282-63.282 14.142 14.141zm0-313.25 63.283 63.282-14.142 14.143-63.282-63.282zm-41.69-18.994 21.857 21.857-7.036 7.036a6 6 0 0 0 0 8.486l71.768 71.767a6 6 0 0 0 8.485 0l7.033-7.033a29.549 29.549 0 0 1 4.614 36.213 71.709 71.709 0 0 0 -10.137 30.847h-206.317zm96.5 181.173a71.7 71.7 0 0 0 10.221 31.739 29.548 29.548 0 0 1 -4.61 36.212l-7.033-7.032a6 6 0 0 0 -8.485 0l-71.772 71.767a6 6 0 0 0 0 8.485l7.036 7.037-21.857 21.857-110.312-170.065zm-247.368-30.346 23.876 23.876a5.972 5.972 0 0 0 -.068 1.008l-23.808 23.808h-12.483l20.1-20.1a6 6 0 0 0 0-8.485l-20.1-20.1zm-29.454 0 24.343 24.346-24.343 24.346h-12.483l20.1-20.1a6 6 0 0 0 0-8.485l-20.1-20.1zm-20.814 28.458a6 6 0 0 0 0-8.225l-19.043-20.233h10.4l24.35 24.346-24.35 24.346h-10.4z" fill="#284268"/></svg>