<svg id="Layer_1" height="512" viewBox="0 0 512 512" width="512" xmlns="http://www.w3.org/2000/svg" data-name="Layer 1"><path d="m177.93 364.46-.19.34-63.21 63.21a8.053 8.053 0 0 0 .14 11.44.435.435 0 0 0 .06.07 28.992 28.992 0 1 1 -48.87 14.51 6.572 6.572 0 0 0 .15-1.39 6.652 6.652 0 0 0 -8.04-6.5 29 29 0 1 1 14.51-48.87.435.435 0 0 0 .07.06 8.053 8.053 0 0 0 11.44.14l63.21-63.21.34-.19a82.055 82.055 0 0 0 30.39 30.39z" fill="#ffe0b6"/><path d="m30.244 418.5c12.72-14.534 35.955-15.412 49.923-2.6a.476.476 0 0 0 .081.063 9.912 9.912 0 0 0 13.217.149l68.951-63.173c-.574-.541-1.145-1.088-1.706-1.649a81.966 81.966 0 0 1 -13.17-17.22l-.34.19-63.21 63.21a8.053 8.053 0 0 1 -11.44-.14.435.435 0 0 1 -.07-.06 28.986 28.986 0 0 0 -47.724 30.458 29.424 29.424 0 0 1 5.488-9.228z" fill="#efcb8e"/><path d="m452.34 59.66c54.79 54.79 45.61 152.8-10.51 208.92-26.89 26.89-70.83 50.43-115.33 61.64a88.729 88.729 0 0 0 -20.8 8.13l-1.4.77-15.93 11.15c-32.72 28.01-77.32 33.14-110.44 14.19a82.055 82.055 0 0 1 -30.39-30.39c-18.95-33.12-13.82-77.72 14.19-110.44l11.15-15.93.77-1.4a88.729 88.729 0 0 0 8.13-20.8c11.21-44.5 34.75-88.44 61.64-115.33 56.12-56.12 154.13-65.3 208.92-10.51z" fill="#d05458"/><path d="m181.73 253.63 11.15-15.93.77-1.4a88.729 88.729 0 0 0 8.13-20.8c11.21-44.5 34.75-88.44 61.64-115.33 56.12-56.12 154.13-65.3 208.92-10.51 1.3 1.3 2.557 2.637 3.788 3.987a120.278 120.278 0 0 0 -23.788-33.987c-54.79-54.79-152.8-45.61-208.92 10.51-26.89 26.89-50.43 70.83-61.64 115.33a88.729 88.729 0 0 1 -8.13 20.8l-.77 1.4-11.15 15.93c-28.01 32.72-33.14 77.32-14.19 110.44a81.966 81.966 0 0 0 13.17 17.22c.475.474.958.934 1.441 1.394-12.129-31.461-5.333-69.953 19.579-99.054z" fill="#ba4d55"/><g fill="#284268"><path d="m240.864 121.251a6 6 0 0 0 5.013-2.694c2.092-3.169 4.248-6.242 6.409-9.135a6 6 0 0 0 -9.615-7.18c-2.3 3.077-4.589 6.342-6.808 9.7a6 6 0 0 0 5 9.307z"/><path d="m266.312 93.065c21.753-21.754 52.42-35.4 84.14-37.432 25.892-1.662 49.343 4.383 67.812 17.484a6 6 0 0 0 6.943-9.788c-20.738-14.71-46.854-21.511-75.523-19.671-34.59 2.218-68.071 17.134-91.858 40.922a6 6 0 0 0 8.486 8.485z"/><path d="m59.209 452.01a.658.658 0 0 1 .784.781 34.994 34.994 0 1 0 58.983-17.518l-.074-.074a2.246 2.246 0 0 1 -.688-1.593 1.883 1.883 0 0 1 .559-1.353l60.37-60.369a93.623 93.623 0 0 0 42.248 9.837c.372 0 .748 0 1.12-.007 24.965-.276 49.648-9.755 69.534-26.7l15.424-10.794 1.109-.606a82.465 82.465 0 0 1 19.39-7.576c45.252-11.4 90.506-35.624 118.1-63.219 28.258-28.258 45.969-67.92 48.592-108.818 2.74-42.721-10.782-81.284-38.08-108.582s-65.858-40.819-108.58-38.081c-40.9 2.624-80.56 20.335-108.817 48.593a175.211 175.211 0 0 0 -12.07 13.452 6 6 0 0 0 1.754 9.047l.016.008a5.985 5.985 0 0 0 7.517-1.482 165.37 165.37 0 0 1 11.267-12.54c26.224-26.224 63.074-42.663 101.1-45.1q5.038-.322 9.98-.322c35.21 0 66.654 12.216 89.352 34.913 24.822 24.823 37.107 60.1 34.591 99.332-2.44 38.027-18.879 74.877-45.1 101.1-26.151 26.15-69.277 49.167-112.548 60.067a94.5 94.5 0 0 0 -22.214 8.683l-1.4.766-.56.347-15.933 11.151-.474.368c-17.788 15.227-39.834 23.749-62.077 23.995-22.183.206-42.559-7.806-57.423-22.671s-22.916-35.258-22.67-57.422c.246-22.246 8.77-44.293 24-62.082q.183-.234.364-.469l11.145-15.935c.116-.187.232-.373.347-.56l.766-1.4a94.506 94.506 0 0 0 8.682-22.213 280.694 280.694 0 0 1 26.973-67.544 5.984 5.984 0 1 0 -10.437-5.857 292.8 292.8 0 0 0 -28.173 70.47 82.467 82.467 0 0 1 -7.576 19.39l-.607 1.111-10.793 15.422c-16.941 19.886-26.42 44.569-26.7 69.534a93.79 93.79 0 0 0 9.839 43.392l-60.373 60.464a2.045 2.045 0 0 1 -1.348.654 2.484 2.484 0 0 1 -1.591-.792c-.014-.013-.064-.117-.077-.131a34.979 34.979 0 1 0 -17.523 58.933zm-25.253-48.528a22.846 22.846 0 0 1 16.751-8.673 23.178 23.178 0 0 1 17.583 6.856 14.252 14.252 0 0 0 10.086 4.335h.024a13.92 13.92 0 0 0 9.835-4.181l58.24-58.29a86.248 86.248 0 0 0 22.025 22.023l-58.215 58.215a13.813 13.813 0 0 0 -4.075 9.857 14.112 14.112 0 0 0 4.164 10.021l.113.114a23 23 0 1 1 -38.756 11.5 12.657 12.657 0 0 0 -15-15 23 23 0 0 1 -22.783-36.782z"/></g></svg>