<svg id="Capa_1" enable-background="new 0 0 511.879 511.879" height="512" viewBox="0 0 511.879 511.879" width="512" xmlns="http://www.w3.org/2000/svg"><g><g><g><path d="m384.466 158.783c22.6 23.67 26.61 59.51 9.8 87.59l-94.12 157.18-230.22-38.87c-6.69-2.01-13.38-4.16-20.07-6.47-12.64-4.35-23.24-12.44-30.66-22.79-7.43-10.36-11.7-22.96-11.7-36.34 0-49.06 12.94-96.3 36.44-137.53 23.49-41.23 57.54-76.45 99.74-101.47 20.45-12.12 43.39-18.19 66.34-18.19 22.94 0 45.88 6.07 66.34 18.19 18.31 10.85 35.08 23.63 50.12 37.98z" fill="#c9e7b4"/></g><path d="m148.662 351.973c-6.69-2.01-13.38-4.16-20.07-6.47-12.64-4.35-23.24-12.44-30.66-22.79-7.43-10.36-11.7-22.96-11.7-36.34 0-49.06 12.94-96.3 36.44-137.53 23.49-41.23 57.54-76.45 99.74-101.47 2.377-1.409 4.799-2.744 7.24-3.989-6.505-.993-13.074-1.491-19.636-1.491-22.95 0-45.89 6.07-66.34 18.19-42.2 25.02-76.25 60.24-99.74 101.47-23.5 41.23-36.44 88.47-36.44 137.53 0 13.38 4.27 25.98 11.7 36.34 7.42 10.35 18.02 18.44 30.66 22.79 6.69 2.31 13.38 4.46 20.07 6.47l230.22 38.87 14.142-23.616z" fill="#b8de9c"/><g><path d="m126.016 206.503 185.16 178.63-11.03 18.42-230.22-38.87c-6.69-2.01-13.38-4.16-20.07-6.47-12.64-4.35-23.24-12.44-30.66-22.79-7.43-10.36-11.7-22.96-11.7-36.34 0-49.06 12.94-96.3 36.44-137.53 5.38-9.44 11.31-18.56 17.77-27.32 21.42 24.72 42.86 48.83 64.31 72.27z" fill="#b8de9c"/></g><path d="m311.176 385.133-7.189-6.935-155.325-26.225c-6.69-2.01-13.38-4.16-20.07-6.47-12.64-4.35-23.24-12.44-30.66-22.79-7.43-10.36-11.7-22.96-11.7-36.34 0-35.57 6.807-70.18 19.504-102.24-14.684-16.337-29.362-32.972-44.031-49.9-6.46 8.76-12.39 17.88-17.77 27.32-23.5 41.23-36.44 88.47-36.44 137.53 0 13.38 4.27 25.98 11.7 36.34 7.42 10.35 18.02 18.44 30.66 22.79 6.69 2.31 13.38 4.46 20.07 6.47l111.316 18.794 104.026 17.564 14.877 2.512z" fill="#a6d786"/><path d="m156.85 353.02 120.987 40.654 111.44-19.978 33.449-187.116c-16.143-16.11-34.398-30.353-54.519-42.278-20.45-12.12-43.4-18.18-66.34-18.18-22.95 0-45.89 6.06-66.34 18.18-30.281 17.945-56.35 41.127-77.333 68.032z" fill="#c9a291"/><path d="m368.192 144.311c-20.45-12.12-43.4-18.18-66.34-18.18-22.95 0-45.89 6.06-66.34 18.18-30.203 17.899-56.377 41.215-77.333 68.032l1.039 1.215 30.925 68.72c2.164-4.301 4.432-8.547 6.816-12.729l17.77-27.32c21.73-29.51 49.42-54.86 81.97-74.15 20.45-12.12 43.39-18.18 66.34-18.18 5.224 0 10.448.318 15.644.947-3.441-2.25-6.933-4.426-10.491-6.535z" fill="#be8f7d"/><g><path d="m282.242 358.997.003-.003-.01-.01c-42.94-44.06-85.83-91.08-128.68-140.52l-17.77 27.32c-23.5 41.23-36.44 88.48-36.44 137.54 0 13.32 4.23 25.92 11.61 36.26 7.38 10.35 17.91 18.45 30.51 22.79 14.01 4.83 28.03 9.02 42.04 12.57v-.01l87.26-24.449 25.451-43.004z" fill="#a6d786"/></g><path d="m166.59 349.36c5.983-28.164 16.281-55.07 30.382-79.808l.705-1.083c-14.712-16.371-29.419-33.042-44.121-50.005l-17.77 27.32c-23.5 41.23-36.44 88.48-36.44 137.54 0 13.32 4.23 25.92 11.61 36.26 7.38 10.35 17.91 18.45 30.51 22.79 9.826 3.388 19.657 6.444 29.486 9.202 0 0 11.616 3.132 11.626 3.135-.001-.001.621.156.928.234l87.26-24.459 2.801-4.732c-15.102-.9-38.845-4.552-60.679-8.357-31.87-5.554-53.019-36.394-46.298-68.037z" fill="#94cf6f"/><path d="m504.376 383.323c0 26.65-16.91 50.37-42.11 59.05-92.93 31.99-185.84 36.19-278.76 12.57v-.01c34.51-31.95 67.49-63.93 98.74-95.94 54.23-55.58 103.21-111.24 145.75-167.01 15.5 16.31 28.89 34.39 39.95 53.8 23.49 41.23 36.43 88.48 36.43 137.54z" fill="#b8de9c"/><g><path d="m489.84 396.028c-89.774 30.033-169.098 38.419-258.86 24.395-12.14 11.631-34.919 22.887-47.474 34.51v.01c92.92 23.62 185.83 19.42 278.76-12.57 23.241-8.005 39.432-28.812 41.808-52.903-4.417 2.645-9.182 4.867-14.234 6.558z" fill="#a6d786"/><circle cx="255.908" cy="199.117" fill="#fbe88c" r="28.874"/><path d="m277.835 180.341c-5.296-6.178-13.151-10.099-21.927-10.099-15.947 0-28.874 12.927-28.874 28.874 0 7.423 2.803 14.19 7.406 19.305 12.992-14.049 27.503-26.834 43.395-38.08z" fill="#f9de58"/><ellipse cx="300.142" cy="277.73" fill="#fbe88c" rx="22.793" ry="16.911" transform="matrix(.658 -.753 .753 .658 -106.473 321.126)"/></g></g><g><g><path d="m412.935 458.989c2.652-.562 5.306-1.113 7.955-1.683 29.659-31.154 57.391-62.125 82.603-92.241-2.115-5.438-3.948-10.962-5.596-16.547-.294.258-.577.533-.834.843-27.704 33.42-58.641 67.989-91.948 102.748-2.391 2.495-2.709 6.21-1.015 9.038 2.921-.79 5.858-1.527 8.835-2.158z"/></g><g><path d="m92.01 276.904c-20.09-21.608-40.766-44.483-61.5-68.026 3.105-8.777 6.671-17.397 10.674-25.827 19.411 22.155 38.746 43.709 57.577 64.163 1.479 1.606 3.496 2.42 5.52 2.42 1.815 0 3.637-.656 5.078-1.982 3.047-2.805 3.243-7.55.438-10.597-20.017-21.744-40.609-44.732-61.258-68.374.63-1.144 1.265-2.285 1.912-3.42 3.691-6.477 7.646-12.787 11.847-18.917 19.643 22.548 39.185 44.459 58.181 65.222 1.479 1.617 3.504 2.438 5.535 2.438 1.808 0 3.622-.65 5.061-1.966 3.057-2.796 3.267-7.541.471-10.596-9.769-10.677-19.687-21.669-29.686-32.886v-67.983c8.479-7.84 17.465-15.14 26.899-21.848v84.29c0 4.142 3.357 7.5 7.5 7.5s7.5-3.358 7.5-7.5v-94.223c1.241-.763 2.488-1.516 3.742-2.26 7.417-4.396 15.182-7.938 23.157-10.642v90.477c0 4.142 3.357 7.5 7.5 7.5s7.5-3.358 7.5-7.5v-94.53c8.87-1.798 17.892-2.59 26.899-2.404v69.074c0 4.142 3.357 7.5 7.5 7.5s7.5-3.358 7.5-7.5v-67.84c9.142 1.321 18.169 3.675 26.899 7.073v42.726c0 4.142 3.357 7.5 7.5 7.5s7.5-3.358 7.5-7.5v-35.686c1.03.571 2.057 1.149 3.074 1.752 8.218 4.871 16.167 10.198 23.825 15.912v13.689c0 4.142 3.357 7.5 7.5 7.5s7.5-3.358 7.5-7.5v-1.646c3.386 2.923 6.712 5.914 9.947 9 2.996 2.858 7.744 2.747 10.604-.25 2.859-2.997 2.747-7.745-.25-10.604-15.6-14.882-32.919-28.006-51.479-39.005-43.277-25.651-97.047-25.651-140.326 0-42.536 25.211-77.957 61.245-102.435 104.208-24.478 42.962-37.416 91.806-37.416 141.252 0 29.842 18.958 56.422 47.176 66.139 6.783 2.336 13.71 4.569 20.589 6.639.72.217 1.447.32 2.163.32 3.224 0 6.203-2.095 7.179-5.341 1.193-3.967-1.055-8.149-5.021-9.343-6.689-2.013-13.428-4.185-20.025-6.457-22.168-7.634-37.061-28.514-37.061-51.957 0-7.897.357-15.777 1.047-23.618 17.861 19.859 35.615 39.148 52.917 57.471 1.476 1.562 3.463 2.351 5.454 2.351 1.848 0 3.699-.678 5.148-2.047 3.012-2.844 3.147-7.59.304-10.602-20.021-21.204-40.653-43.702-61.359-66.896 1.658-10.189 3.896-20.275 6.702-30.201 18.822 21.266 37.556 41.937 55.811 61.573 1.478 1.589 3.483 2.393 5.495 2.393 1.828 0 3.66-.665 5.104-2.007 3.034-2.822 3.207-7.568.387-10.601zm-5.152-161.331v36.048c-5.156-5.856-10.324-11.763-15.5-17.715 4.897-6.339 10.067-12.458 15.5-18.333z"/><path d="m474.463 242.071c-24.478-42.962-59.899-78.996-102.436-104.208-43.276-25.65-97.048-25.651-140.328.001-1.554.921-3.095 1.86-4.627 2.808-3.523 2.179-4.613 6.8-2.435 10.323 2.18 3.524 6.804 4.613 10.323 2.435 1.453-.898 2.914-1.789 4.389-2.662 38.561-22.855 86.469-22.855 125.029 0 19.643 11.642 37.679 25.727 53.699 41.815-38.975 50.634-83.901 102.159-135.808 155.669-38.346-39.578-78.34-83.283-119.031-130.074 13.444-17.411 28.971-33.214 46.164-46.819 3.248-2.57 3.797-7.287 1.227-10.536-2.569-3.249-7.287-3.797-10.535-1.227-33.406 26.436-60.916 60.683-79.556 99.039-18.768 38.619-28.688 81.735-28.688 124.688 0 29.843 18.958 56.422 47.175 66.139 54.004 18.597 108.791 28.026 162.84 28.026s108.836-9.429 162.84-28.026c28.217-9.717 47.175-36.296 47.175-66.139-.001-49.446-12.94-98.29-37.417-141.252zm-7.567 17.533c-51.167 65.263-111.761 131.554-185.036 202.438-11.131-.492-22.289-1.416-33.458-2.724 82.092-78.205 149.367-151.322 205.072-222.888 2.77 4.276 5.428 8.629 7.956 13.066 1.898 3.332 3.715 6.704 5.466 10.108zm-22.356-36.134c-57.741 74.672-128.203 151.048-215.169 233.23-10.162-1.609-20.327-3.554-30.485-5.831 93.358-87.224 168.636-168.278 229.613-247.227 5.651 6.348 11.005 12.965 16.041 19.828zm-269.574 128.063c-17.219-18.675-34.9-38.314-52.597-58.41 3.104-8.795 6.677-17.414 10.673-25.824 37.588 42.897 74.657 83.227 110.38 120.085-5.916 5.83-11.912 11.685-17.994 17.568-9.22-9.52-18.66-19.413-28.704-30.084-2.839-3.016-7.585-3.159-10.602-.321-3.016 2.839-3.16 7.585-.32 10.602 10.081 10.71 19.559 20.643 28.818 30.204-6.002 5.744-12.085 11.515-18.248 17.312-27.925-28.848-56.81-59.972-85.976-92.64 1.66-10.185 3.896-20.278 6.698-30.21 15.77 17.818 31.489 35.233 46.844 51.886 1.479 1.604 3.494 2.416 5.516 2.416 1.817 0 3.641-.657 5.082-1.986 3.045-2.808 3.237-7.553.43-10.598zm96.82 7.45c-5.817 5.92-11.72 11.866-17.709 17.838-36.754-37.927-74.946-79.55-113.674-123.887 4.224-7.654 8.829-15.103 13.779-22.321 40.189 46.131 79.693 89.253 117.604 128.37zm-164.936 24.34c0-7.873.361-15.751 1.057-23.603 26.279 29.216 52.281 57.129 77.511 83.197-1.328 1.237-2.661 2.476-3.996 3.716-12.531-3.284-25.042-7.058-37.512-11.353-22.168-7.634-37.06-28.514-37.06-51.957zm352.969 51.957c-31.757 10.936-63.777 18.584-95.731 22.933 7.837-7.947 15.611-15.928 23.225-23.872 2.866-2.99 2.766-7.738-.225-10.604-2.989-2.866-7.737-2.766-10.604.225-11.783 12.294-23.935 24.688-36.146 36.886-12.499 1.057-24.974 1.601-37.408 1.63 66.879-65.391 123.069-127.04 171.153-187.763 3.884 8.86 7.292 17.913 10.201 27.121-25.88 32.219-54.757 65.491-85.907 98.958-2.822 3.032-2.651 7.778.381 10.6 1.444 1.345 3.278 2.01 5.107 2.01 2.01 0 4.015-.803 5.492-2.39 28.718-30.856 55.523-61.556 79.869-91.444 5.052 20.808 7.649 42.22 7.649 63.755.004 23.441-14.889 44.321-37.056 51.955z"/><path d="m255.908 162.742c-20.057 0-36.374 16.317-36.374 36.374s16.317 36.374 36.374 36.374 36.374-16.317 36.374-36.374-16.317-36.374-36.374-36.374zm0 57.749c-11.786 0-21.374-9.588-21.374-21.374s9.588-21.374 21.374-21.374 21.374 9.588 21.374 21.374-9.588 21.374-21.374 21.374z"/><path d="m300.139 250.396c-6.8 1.482-13.328 5.487-18.384 11.277s-8.145 12.798-8.697 19.735c-.61 7.657 1.999 14.633 7.159 19.14 4.018 3.508 9.022 5.198 14.299 5.198 8.266 0 17.194-4.15 24.014-11.959 5.056-5.79 8.145-12.798 8.697-19.735.609-7.657-2-14.633-7.159-19.139-5.16-4.506-12.423-6.151-19.929-4.517zm10.061 15.815c2.118 1.849 2.208 4.959 2.073 6.649-.294 3.696-2.132 7.728-5.043 11.061-5.929 6.788-13.798 8.257-17.147 5.329-2.117-1.849-2.208-4.959-2.073-6.649.295-3.696 2.133-7.728 5.044-11.061 2.91-3.333 6.657-5.697 10.279-6.487.655-.143 1.536-.281 2.492-.281 1.46 0 3.096.321 4.375 1.439z"/><path d="m330.744 223.627v-3.689c0-4.142-3.357-7.5-7.5-7.5s-7.5 3.358-7.5 7.5v3.689c0 4.142 3.357 7.5 7.5 7.5s7.5-3.358 7.5-7.5z"/><path d="m347.207 173.278c-4.143 0-7.5 3.358-7.5 7.5v4.384c0 4.142 3.357 7.5 7.5 7.5s7.5-3.358 7.5-7.5v-4.384c0-4.142-3.357-7.5-7.5-7.5z"/><path d="m353.991 227.991c0 4.142 3.357 7.5 7.5 7.5s7.5-3.358 7.5-7.5v-4.364c0-4.142-3.357-7.5-7.5-7.5s-7.5 3.358-7.5 7.5z"/><path d="m234.484 260.478v4.772c0 4.142 3.357 7.5 7.5 7.5s7.5-3.358 7.5-7.5v-4.772c0-4.142-3.357-7.5-7.5-7.5s-7.5 3.358-7.5 7.5z"/></g></g></g></svg>