<svg id="Layer_1" height="512" viewBox="0 0 512 512" width="512" xmlns="http://www.w3.org/2000/svg" data-name="Layer 1"><path d="m394.138 37.931a63.216 63.216 0 0 0 -63.194 61.348l28.175 54.5a63.215 63.215 0 1 0 35.019-115.848z" fill="#f7c365"/><path d="m54.648 99.279 38.581 49.618.24-.191h269.203l.24.191 38.581-49.618z" fill="#deedfd"/><path d="m362.672 148.706h-269.203l-.24.191 94.71 121.783h80.272l94.701-121.783z" fill="#f44753"/><path d="m286.273 501h-116.4l41.591-29.309a6.018 6.018 0 0 0 2.559-4.927v-143.864h28.1v143.864a6.035 6.035 0 0 0 2.549 4.927z" fill="#deedfd"/><path d="m214.028 322.9h-.984a16.08 16.08 0 0 1 -16.074-16.085v-36.135h62.211v36.132a16.089 16.089 0 0 1 -16.081 16.088z" fill="#cbdeef"/><path d="m123.331 148.897.24-.191h-30.102l-.24.191 94.71 121.783h30.103z" fill="#cc424f"/><path d="m226.069 466.764v-143.864h-12.041v143.864a6.021 6.021 0 0 1 -2.559 4.927l-41.591 29.309h12.041l41.591-29.309a6.021 6.021 0 0 0 2.559-4.927z" fill="#97c9fa"/><path d="m209.011 306.812v-36.132h-12.041v36.132a16.08 16.08 0 0 0 16.074 16.088h12.041a16.08 16.08 0 0 1 -16.074-16.088z" fill="#8fc1ea"/><path d="m84.75 99.279h-30.102l38.581 49.618.24-.19h29.713z" fill="#97c9fa"/><path d="m395.543 138.392a7.569 7.569 0 1 1 -13.948-1.044l7.757-10.014z" fill="#bcbec0"/><path d="m420.367 126.551a7.568 7.568 0 0 1 -3.833 14.088 7.706 7.706 0 0 1 -1.064-.07 7.558 7.558 0 0 1 -6.271-5.6l-.783-12.643z" fill="#bcbec0"/><path d="m437.455 103.232a7.569 7.569 0 0 1 -9.884 11.078l-9.492-8.388 11.429-5.459a7.6 7.6 0 0 1 7.947 2.769z" fill="#bcbec0"/><path d="m377.682 69.96.783 12.643-11.941-4.225a7.564 7.564 0 0 1 3.823-14.087 7.7 7.7 0 0 1 1.064.07 7.558 7.558 0 0 1 6.271 5.599z" fill="#bcbec0"/><path d="m404.8 59.946a7.545 7.545 0 0 1 .482 8.388l-8.382 9.492-5.461-11.426a7.566 7.566 0 0 1 13.361-6.454z" fill="#bcbec0"/><path d="m235.099 191.953h36.122v36.122h-36.122z" fill="#97c9fa"/><path d="m219.045 133.294-25.547 25.547 25.547 25.536 25.536-25.536z" fill="#97c9fa"/><path d="m431.02 79.97a7.649 7.649 0 0 1 -.07 1.06 7.52 7.52 0 0 1 -5.58 6.25l-12.6.78 4.21-11.9a7.538 7.538 0 0 1 14.04 3.81z" fill="#e2e4ed"/><g fill="#284268"><path d="m427.42 95.183a6.031 6.031 0 0 0 -1.079.393l-11.4 5.438a6 6 0 0 0 -1.389 9.91l9.462 8.363a5.962 5.962 0 0 0 .929.674 13.541 13.541 0 1 0 3.474-24.778zm4.626 12.18a1.541 1.541 0 0 1 -.3 2.159 1.529 1.529 0 0 1 -1.376.244l-2.069-1.829 2.491-1.188a1.6 1.6 0 0 1 1.254.614z"/><path d="m409.952 72.016a13.542 13.542 0 1 0 -24.78-3.474 6.091 6.091 0 0 0 .393 1.08l5.435 11.397a6 6 0 0 0 4.582 3.357 5.858 5.858 0 0 0 .834.059 6 6 0 0 0 4.5-2.027l8.362-9.461a5.985 5.985 0 0 0 .674-.931zm-10.195-6.416-1.828 2.069-1.19-2.492a1.535 1.535 0 0 1 .615-1.258 1.541 1.541 0 0 1 2.158.3 1.543 1.543 0 0 1 .245 1.381z"/><path d="m411.328 74.154-4.213 11.9a6 6 0 0 0 5.656 8c.123 0 .247 0 .37-.012l12.6-.777a5.976 5.976 0 0 0 1.136-.181 13.541 13.541 0 1 0 -15.066-19.978 5.983 5.983 0 0 0 -.483 1.048zm11.046 4.757a1.523 1.523 0 0 1 1.319-.456 1.633 1.633 0 0 1 1.307 1.745 1.376 1.376 0 0 1 -.8 1.146l-2.753.17z"/><path d="m383.081 69.084a13.5 13.5 0 0 0 -11.228-10.016 13.542 13.542 0 0 0 -8.75 25.081 6.022 6.022 0 0 0 1.042.486l11.9 4.213a6 6 0 0 0 7.99-6.026l-.777-12.6a6.058 6.058 0 0 0 -.177-1.138zm-14.181 4.5a1.543 1.543 0 1 1 2.433-1.835l.17 2.756z"/><path d="m422.851 121.824a5.983 5.983 0 0 0 -1.042-.486l-11.9-4.213a6 6 0 0 0 -7.99 6.026l.777 12.6a6.058 6.058 0 0 0 .18 1.135 13.5 13.5 0 0 0 11.224 10.019 13.542 13.542 0 0 0 8.75-25.081zm-5.344 11.884a1.541 1.541 0 0 1 -1.739 1.313 1.538 1.538 0 0 1 -1.148-.8l-.17-2.756 2.6.921a1.539 1.539 0 0 1 .457 1.322z"/><path d="m235 234h36a6 6 0 0 0 6-6v-36a6 6 0 0 0 -6-6h-36a6 6 0 0 0 -6 6v36a6 6 0 0 0 6 6zm6-36h24v24h-24z"/><path d="m187 449.441a6 6 0 1 0 12 0v-76.941a6 6 0 0 0 -12 0z"/><path d="m193 357.5a6 6 0 0 0 6-6v-6.942a6 6 0 0 0 -12 0v6.942a6 6 0 0 0 6 6z"/><path d="m183.43 274.5a6.184 6.184 0 0 0 4.736 2.5h2.834v29.639a21.78 21.78 0 0 0 17 21.442v137.973l-41.373 29.208a5.86 5.86 0 0 0 -2.222 6.634 5.978 5.978 0 0 0 5.761 4.1h116a5.875 5.875 0 0 0 3.373-10.738l-41.539-29.204v-137.973a21.78 21.78 0 0 0 17-21.442v-29.639h3.166a6.184 6.184 0 0 0 4.736-2.5l87.317-112.38a69.026 69.026 0 1 0 -35.095-68.12h-146.124v-40.849a30.1 30.1 0 0 0 -17.367-27.21l-42.107-19.549a6 6 0 1 0 -5.052 10.883l42.106 19.55a18.059 18.059 0 0 1 10.42 16.326v40.849h-111.666a5.914 5.914 0 0 0 -5.39 3.267 6.078 6.078 0 0 0 .654 6.365zm83.8 219.5h-78.13l25.9-18.22a11.785 11.785 0 0 0 5-9.726v-137.054h16v137.054a11.944 11.944 0 0 0 5.171 9.727zm-14.23-187.361c0 5.529-4.332 10.361-9.861 10.361h-29.945a10.473 10.473 0 0 1 -10.194-10.361v-29.639h50zm100.918-245.731a56.957 56.957 0 1 1 13.772 91.513l6.886-8.858a13.549 13.549 0 0 0 12.317 11.091c.344.025.689.038 1.031.038a13.544 13.544 0 0 0 12.842-17.777 6.084 6.084 0 0 0 -.462-1.052l-6.162-11.022a6 6 0 0 0 -2.976-2.617l14.568-18.734a5.831 5.831 0 0 0 .654-6.223 5.914 5.914 0 0 0 -5.388-3.267h-63.786a55.521 55.521 0 0 1 16.704-33.092zm32.482 79.887 1.691-2.182 1.346 2.409a1.533 1.533 0 0 1 -.53 1.3 1.552 1.552 0 0 1 -1.121.37 1.514 1.514 0 0 1 -1.053-.532 1.538 1.538 0 0 1 -.333-1.365zm-213.4 78.038a6 6 0 0 0 6-6v-57.833h10.332a5.883 5.883 0 0 0 -1.622 4.129 6.041 6.041 0 0 0 1.758 4.262l25.456 25.464a6 6 0 0 0 8.484.007l25.456-25.454a5.99 5.99 0 0 0 .069-8.408h23.067a6 6 0 0 0 0-12h-35.06l-13.532-13.532a6 6 0 0 0 -8.484-.037l-13.607 13.569h-22.317v-37h209.731l-28.921 37h-47.81a6 6 0 0 0 0 12h38.479l-85.248 110h-74.131l-85.19-110h61.09v57.833a6 6 0 0 0 6 6zm29.2-59.666 16.966-16.967 16.971 16.971-16.971 16.97zm-35.2-53.167v37h-70.42l-28.98-37z"/></g></svg>