<svg id="Layer_1" height="512" viewBox="0 0 512 512" width="512" xmlns="http://www.w3.org/2000/svg" data-name="Layer 1"><path d="m207.29 469.68h97.42v30.03h-97.42z" fill="#f3e08d"/><path d="m207.29 218.86h97.42v228.79h-97.42z" fill="#9ac5a1"/><path d="m294.3 187.67h-76.6a345.933 345.933 0 0 1 15.24-100.26l23.06-75.12 23.06 75.12a345.933 345.933 0 0 1 15.24 100.26z" fill="#c79a83"/><path d="m296.71 468.88v.8h-81.42v-.8-21.23h81.42z" fill="#f9d438"/><path d="m294.3 187.67h-76.6l-.01 31.19h76.62z" fill="#f9d438"/><path d="m207.29 218.86h30v228.79h-30z" fill="#81aa86"/><g fill="#284268"><path d="m207.292 505.712h97.416a6 6 0 0 0 6-6v-30.029a6 6 0 0 0 -6-6h-2v-10.029h2a6 6 0 0 0 6-6v-228.789a6 6 0 0 0 -6-6h-4.4l-.009-24.986c0-.071.011-.141.011-.213 0-.1-.01-.206-.016-.309a351.936 351.936 0 0 0 -15.494-101.706l-23.064-75.124a6 6 0 0 0 -11.472 0l-23.064 75.124a351.936 351.936 0 0 0 -15.5 101.706c-.006.1-.016.205-.016.309 0 .072.008.142.011.213l-.009 24.986h-4.4a6 6 0 0 0 -6 6v228.789a6 6 0 0 0 6 6h2v10.029h-2a6 6 0 0 0 -6 6v30.029a6 6 0 0 0 6.006 6zm31.382-416.539 17.326-56.44 17.326 56.44a339.976 339.976 0 0 1 14.895 92.493h-64.442a339.976 339.976 0 0 1 14.895-92.493zm-14.983 104.493h64.618v19.2h-64.618zm-10.4 31.2h85.416v216.788h-85.415zm77.416 228.789v10.029h-69.415v-10.03zm-77.416 22.029h85.416v18.029h-85.415z"/><path d="m237.457 235.554a6 6 0 0 0 -6 6v7.151a6 6 0 1 0 12 0v-7.151a6 6 0 0 0 -6-6z"/><path d="m237.457 262.666a6 6 0 0 0 -6 6v93.885a6 6 0 1 0 12 0v-93.885a6 6 0 0 0 -6-6z"/></g></svg>