<svg id="Capa_1" enable-background="new 0 0 511.659 511.659" height="512" viewBox="0 0 511.659 511.659" width="512" xmlns="http://www.w3.org/2000/svg"><g><g><path d="m333.908 235.703-33.83 139.94c-5.264 21.777-24.755 37.117-47.159 37.117h-158.285c-22.404 0-41.894-15.34-47.159-37.117l-33.83-139.94 39.273-47.614h231.133z" fill="#f6e2c4"/><path d="m333.908 235.703-49.858-47.614h-122.586-40.736-51.383-15.76-.668l-39.273 47.614 33.83 139.94c5.264 21.777 24.755 37.117 47.159 37.117h158.285c14.518 0 27.793-6.458 36.785-16.92h.025c.098-.114.188-.236.285-.351.255-.302.499-.613.747-.922.342-.427.684-.854 1.012-1.293.066-.088.138-.171.203-.259-.006.001-.012.001-.018.002 3.75-5.08 6.564-10.939 8.12-17.374zm-280.322 12.248-7.619-31.518 7.619-9.238zm26.21 108.422-7.257-30.018c-2.222-9.189 6.391-17.367 15.43-14.598.045.014.089.027.131.041 3.54 1.112 7.668 3.085 12.038 5.173 8.482 4.053 18.098 8.647 29.663 10.291 2.895.412 5.84.611 9.006.611 2.731 0 5.393-.151 7.999-.392 3.289-.304 6.313 1.814 7.089 5.025l10.806 44.698c.616 2.549 1.362 5.037 2.228 7.459 1.54 4.303-1.651 8.828-6.221 8.828h-33.754c-22.403-.001-41.893-15.341-47.158-37.118z" fill="#f7d8a4"/><path d="m340.654 216.293c0 13.322-10.481 24.086-19.739 35.49-7.782 9.587-14.639 22.781-27.602 30.256-10.977 6.33-25.987 6.318-39.856 10.677-12.369 3.887-24.417 12.74-38.519 14.744-13.026 1.851-27.098-3.135-41.163-3.135-14.063 0-28.135 4.986-41.159 3.135-14.102-2.004-26.15-10.856-38.52-14.744-13.87-4.359-28.88-4.347-39.858-10.678-12.964-7.476-19.821-20.67-27.603-30.258-9.257-11.404-19.738-22.167-19.738-35.489s10.481-24.086 19.739-35.49c7.782-9.587 14.639-22.781 27.602-30.256 10.977-6.33 25.987-6.318 39.856-10.677 12.369-3.887 24.417-12.74 38.519-14.744 13.026-1.851 27.098 3.135 41.163 3.135 14.063 0 28.135-4.986 41.159-3.135 14.102 2.004 26.15 10.856 38.52 14.744 13.87 4.359 28.88 4.347 39.858 10.678 12.964 7.476 19.821 20.67 27.603 30.258 9.258 11.405 19.738 22.168 19.738 35.489z" fill="#fcf0b6"/><path d="m61.03 204.219c0-21.467 4.826-41.816 13.426-60.018-7.358 1.393-14.367 2.973-20.217 6.346-12.964 7.476-19.82 20.669-27.603 30.256-9.258 11.404-19.739 22.168-19.739 35.49s10.481 24.085 19.738 35.489c7.782 9.588 14.639 22.782 27.603 30.258 10.383 5.987 24.371 6.307 37.591 10.011-19.268-24.069-30.799-54.602-30.799-87.832z" fill="#fbe88c"/><path d="m173.776 272.83c-37.459 0-73.59-8.136-99.129-22.323-18.944-10.523-30.254-23.314-30.254-34.214s11.31-23.691 30.254-34.214c25.539-14.186 61.67-22.323 99.129-22.323s73.59 8.136 99.129 22.323c18.944 10.523 30.254 23.314 30.254 34.214s-11.31 23.691-30.254 34.214c-25.539 14.187-61.67 22.323-99.129 22.323z" fill="#fbe372"/><path d="m44.394 216.294c0 9.423 8.457 20.258 22.987 29.82-4.125-13.232-6.35-27.303-6.35-41.895 0-4.628.238-9.2.676-13.713-11.034 8.499-17.313 17.667-17.313 25.788z" fill="#f9de58"/><g><path d="m497.066 219.622-36.959 152.882c-5.751 23.791-27.044 40.549-51.52 40.549h-172.924c-24.476 0-45.769-16.759-51.52-40.549l-36.959-152.882-4.093-21.204h358.068z" fill="#fcf1de"/><path d="m143.091 198.418 4.093 21.204 36.959 152.882c5.751 23.791 27.044 40.549 51.52 40.549h172.924c16.233 0 31.078-7.385 40.906-19.29l-169.391.009c-24.476 0-45.769-16.759-51.52-40.549l-10.176-42.092c-1.507-6.235 4.34-11.828 10.463-9.916.043.013.086.027.129.04 4.039 1.27 8.583 3.346 13.394 5.544 9.224 4.216 19.679 8.994 31.993 10.744 3.261.464 6.602.689 10.215.689 7.293 0 14.223-.928 20.924-1.825 5.906-.791 11.484-1.538 16.603-1.538s10.697.747 16.604 1.538c6.702.897 13.632 1.825 20.926 1.825 3.612 0 6.953-.226 10.214-.689 12.313-1.75 22.768-6.528 31.99-10.743 4.811-2.199 9.354-4.275 13.395-5.545 4.768-1.499 9.953-2.544 15.442-3.652 10.63-2.143 21.621-4.36 31.874-10.272 9.828-5.667 17.118-13.097 23.046-20.341l11.451-47.367 4.092-21.204h-358.07z" fill="#f6e2c4"/><path d="m504.159 198.418c0 14.555-10.958 26.488-21.072 38.947-8.502 10.474-16.346 24.472-30.509 32.639-11.993 6.916-28.17 7.408-43.322 12.17-13.513 4.247-26.797 13.378-42.202 15.567-14.23 2.022-29.565-2.873-44.929-2.873s-30.698 4.895-44.927 2.873c-15.406-2.189-28.691-11.321-42.205-15.568-15.153-4.762-31.329-5.255-43.322-12.17-14.163-8.167-22.008-22.166-30.51-32.641-10.113-12.459-21.07-24.392-21.07-38.946 0-14.555 10.958-26.488 21.072-38.947 8.502-10.474 16.346-24.472 30.509-32.639 11.993-6.916 28.17-7.408 43.322-12.17 13.513-4.247 26.797-13.378 42.202-15.567 14.23-2.022 29.565 2.873 44.929 2.873s30.698-4.895 44.927-2.873c15.406 2.189 28.691 11.321 42.205 15.568 15.153 4.762 31.329 5.255 43.322 12.17 14.163 8.167 22.008 22.166 30.51 32.641 10.113 12.459 21.07 24.392 21.07 38.946z" fill="#fdf5cb"/><path d="m206.622 121.217v.805c.315-.346.618-.7.94-1.042-.315.077-.626.159-.94.237z" fill="#fcf0b6"/><path d="m207.092 181.894c0-24.085 8.821-46.669 24.23-66.161-14.053 3.81-28.624 4.74-39.651 11.099-14.163 8.167-22.007 22.165-30.509 32.639-10.114 12.459-21.072 24.393-21.072 38.947s10.957 26.487 21.07 38.946c8.502 10.474 16.347 24.473 30.51 32.641 11.993 6.916 28.17 7.408 43.323 12.17 13.514 4.247 26.798 13.378 42.205 15.568 6.92.983 14.102.328 21.42-.602-54.721-23.044-91.526-66.024-91.526-115.247z" fill="#fcf0b6"/><path d="m322.125 260.184c-40.923 0-80.396-8.889-108.296-24.387-20.696-11.496-33.052-25.47-33.052-37.379s12.356-25.882 33.052-37.379c27.901-15.498 67.374-24.387 108.296-24.387s80.396 8.889 108.297 24.387c20.696 11.496 33.052 25.47 33.052 37.379s-12.356 25.882-33.052 37.379c-27.902 15.498-67.374 24.387-108.297 24.387z" fill="#fbe88c"/><path d="m207.092 181.894c0-6.059.56-12.022 1.64-17.867-17.609 10.874-27.956 23.496-27.956 34.391 0 11.909 12.356 25.882 33.052 37.379 4.143 2.301 8.547 4.453 13.167 6.455-12.721-18.119-19.903-38.628-19.903-60.358z" fill="#fbe372"/></g></g><g><path d="m511.659 198.418c0-15.946-10.202-28.375-20.068-40.396-.895-1.089-1.79-2.18-2.679-3.276-1.89-2.327-3.771-4.875-5.763-7.571-6.858-9.285-14.631-19.809-26.824-26.839-8.483-4.893-18.457-6.904-28.102-8.849-5.565-1.123-11.321-2.283-16.719-3.979-4.781-1.503-9.669-3.736-14.843-6.101-8.865-4.052-18.032-8.242-28.556-9.737-9.278-1.319-18.653-.063-27.721 1.15-6.052.811-12.311 1.648-18.261 1.648-5.951 0-12.21-.838-18.262-1.648-9.067-1.214-18.441-2.47-27.724-1.15-10.521 1.495-19.688 5.685-28.552 9.736-5.174 2.365-10.062 4.599-14.843 6.101-5.398 1.696-11.153 2.857-16.719 3.979-9.645 1.945-19.618 3.957-28.101 8.849-12.192 7.03-19.965 17.553-26.822 26.837-1.993 2.697-3.875 5.245-5.765 7.573-.889 1.095-1.784 2.186-2.678 3.274-9.867 12.022-20.07 24.453-20.07 40.399 0 8.722 3.056 16.392 7.436 23.519l24.564 101.61c.83 3.434 3.9 5.74 7.284 5.74.583 0 1.176-.069 1.769-.212 4.025-.973 6.501-5.026 5.527-9.052l-16.495-68.234c6.486 8.731 13.978 18.214 25.248 24.713 8.484 4.892 18.457 6.903 28.102 8.849 5.565 1.123 11.321 2.283 16.719 3.979 4.781 1.503 9.668 3.736 14.843 6.101 8.865 4.052 18.032 8.242 28.556 9.737 2.811.399 5.628.563 8.444.563 6.483 0 12.956-.867 19.277-1.713 6.052-.811 12.31-1.648 18.261-1.648s12.21.838 18.263 1.648c9.066 1.214 18.438 2.469 27.722 1.15 10.522-1.496 19.688-5.685 28.553-9.737 5.174-2.365 10.062-4.599 14.843-6.101 5.397-1.696 11.153-2.857 16.72-3.979 9.645-1.945 19.617-3.956 28.1-8.848 11.272-6.5 18.765-15.983 25.25-24.715l-28.757 118.955c-4.955 20.497-23.143 34.812-44.23 34.812h-172.923c-21.088 0-39.275-14.315-44.23-34.812l-4.307-17.816c-.973-4.026-5.021-6.501-9.053-5.528-4.025.973-6.501 5.026-5.527 9.052l4.307 17.816c6.588 27.253 30.771 46.287 58.811 46.287h172.924c28.039 0 52.223-19.034 58.811-46.287l36.826-152.33c4.378-7.128 7.434-14.797 7.434-23.519zm-34.395 34.221c-2.104 2.593-4.177 5.398-6.181 8.112-6.278 8.5-12.771 17.29-22.252 22.757-6.358 3.667-14.72 5.353-23.571 7.138-5.948 1.199-12.099 2.44-18.253 4.374-5.671 1.782-11.217 4.317-16.58 6.768-7.894 3.608-16.056 7.339-24.428 8.529-7.232 1.026-15.192-.039-23.621-1.167-6.54-.875-13.302-1.781-20.253-1.781s-13.713.905-20.252 1.781c-8.429 1.129-16.389 2.194-23.62 1.167-8.373-1.19-16.537-4.921-24.432-8.529-5.363-2.452-10.909-4.986-16.579-6.768-6.154-1.934-12.304-3.174-18.252-4.374-8.852-1.785-17.213-3.471-23.573-7.139-9.481-5.468-15.974-14.258-22.253-22.76-2.004-2.713-7.997-10.336-8.907-11.445-8.57-10.441-16.666-20.304-16.666-30.884 0-10.579 8.095-20.441 16.665-30.883.911-1.11 1.823-2.222 2.729-3.337 2.106-2.593 4.179-5.4 6.185-8.114 6.277-8.5 12.77-17.288 22.25-22.755 6.358-3.667 14.721-5.354 23.573-7.139 5.947-1.2 12.097-2.439 18.249-4.374 5.672-1.782 11.219-4.317 16.583-6.769 7.893-3.607 16.055-7.338 24.426-8.528 2.06-.292 4.177-.415 6.349-.415 5.454 0 11.245.775 17.273 1.582 6.54.875 13.303 1.781 20.253 1.781s13.713-.905 20.252-1.781c8.43-1.128 16.393-2.193 23.619-1.167 8.374 1.19 16.536 4.921 24.431 8.529 5.363 2.452 10.909 4.986 16.58 6.769 6.154 1.934 12.304 3.174 18.252 4.374 8.852 1.785 17.214 3.471 23.573 7.139 9.48 5.467 15.973 14.257 22.252 22.757 2.004 2.714 4.077 5.521 6.182 8.113.906 1.116 1.819 2.229 2.73 3.339 8.569 10.44 16.663 20.302 16.663 30.88 0 10.581-8.097 20.444-16.668 30.886-.911 1.107-1.823 2.218-2.728 3.334z"/><path d="m434.062 154.483c-28.979-16.098-69.779-25.33-111.938-25.33s-82.958 9.232-111.937 25.33c-23.458 13.029-36.911 29.043-36.911 43.936 0 14.892 13.453 30.905 36.911 43.935 28.98 16.098 69.78 25.331 111.937 25.331 24.016 0 48.113-3.037 69.688-8.783 4.003-1.066 6.384-5.175 5.317-9.178-1.065-4.003-5.177-6.382-9.177-5.317-20.335 5.416-43.098 8.278-65.829 8.278-39.688 0-77.832-8.545-104.654-23.444-21.549-11.969-29.194-24.084-29.194-30.822s7.646-18.854 29.194-30.823c26.821-14.898 64.966-23.443 104.654-23.443s77.833 8.544 104.654 23.443c21.549 11.969 29.194 24.084 29.194 30.822s-7.646 18.853-29.195 30.822c-2.906 1.615-6.066 3.209-9.391 4.737-3.764 1.73-5.412 6.184-3.682 9.948 1.73 3.763 6.185 5.411 9.947 3.681 3.67-1.688 7.172-3.455 10.409-5.253 23.458-13.03 36.911-29.043 36.911-43.935.003-14.892-13.45-30.906-36.908-43.935z"/><path d="m247.504 196.155c-4.143 0-7.5 3.358-7.5 7.5s3.357 7.5 7.5 7.5h5.401c4.143 0 7.5-3.358 7.5-7.5s-3.357-7.5-7.5-7.5z"/><path d="m295.222 166.894c-4.143 0-7.5 3.358-7.5 7.5s3.357 7.5 7.5 7.5h26.903c4.143 0 7.5-3.358 7.5-7.5s-3.357-7.5-7.5-7.5z"/><path d="m392.676 203.036h-12.32c-4.143 0-7.5 3.358-7.5 7.5s3.357 7.5 7.5 7.5h12.32c4.143 0 7.5-3.358 7.5-7.5s-3.358-7.5-7.5-7.5z"/><path d="m131.244 163.197c-.832-4.058-4.797-6.671-8.854-5.84-19.379 3.976-37.147 10.258-51.384 18.166-21.679 12.042-34.112 26.902-34.112 40.771s12.434 28.729 34.112 40.771c15.003 8.333 33.823 14.824 54.427 18.768.477.091.95.135 1.419.135 3.526 0 6.67-2.5 7.357-6.091.779-4.068-1.888-7.998-5.956-8.776-19.058-3.649-36.335-9.579-49.964-17.148-19.482-10.823-26.396-21.664-26.396-27.659s6.913-16.835 26.396-27.658c12.92-7.176 29.212-12.911 47.116-16.584 4.058-.833 6.672-4.797 5.839-8.855z"/><path d="m171.49 405.259h-76.856c-19.008 0-35.402-12.903-39.869-31.378l-25.182-104.167c11.824 18.838 32.731 30.457 55.053 30.457 4.9 0 9.696 1.359 13.867 3.931l6.035 3.72c10.018 6.174 21.544 9.924 33.334 10.845.199.016.396.023.592.023 3.877 0 7.162-2.986 7.47-6.917.322-4.129-2.764-7.739-6.894-8.061-9.425-.736-18.634-3.731-26.631-8.661l-6.035-3.719c-6.538-4.031-14.056-6.162-21.738-6.162-17.694 0-34.231-9.49-43.159-24.768l-1.152-1.972c-.967-1.653-2.055-3.25-3.231-4.742l-16.36-20.757c-7.694-9.762-7.606-23.326.214-32.987l11.901-14.706c1.156-1.428 2.225-2.946 3.177-4.509l2.618-4.296c10.332-16.962 28.344-27.692 48.179-28.705l.809-.041c3.97-.203 7.884-.975 11.633-2.293l30.598-10.761c3.907-1.374 5.961-5.656 4.587-9.563s-5.652-5.961-9.563-4.587l-30.598 10.761c-2.392.841-4.889 1.333-7.42 1.463l-.808.041c-24.796 1.265-47.311 14.679-60.226 35.881l-2.618 4.296c-.607.998-1.29 1.966-2.027 2.877l-11.9 14.705c-11.466 14.166-12.326 33.686-2.517 48.673l33.415 138.222c6.1 25.232 28.49 42.854 54.449 42.854h76.856c4.143 0 7.5-3.358 7.5-7.5s-3.36-7.497-7.503-7.497z"/><path d="m105.473 213.587c-4.143 0-7.5 3.358-7.5 7.5s3.357 7.5 7.5 7.5h4.944c4.143 0 7.5-3.358 7.5-7.5s-3.357-7.5-7.5-7.5z"/></g></g></svg>