<svg id="Layer_1" enable-background="new 0 0 512 512" height="512" viewBox="0 0 512 512" width="512" xmlns="http://www.w3.org/2000/svg"><g><g><path d="m475.68 284.9c0 105.45-8.69 210.91-8.69 210.91s-13.15 1.08-34.81 2.49c-39.69 2.56-107.93 6.2-176.17 6.2-50.73 0-101.46-2.01-140.46-4.1-41.1-28.42-65.94-61.67-75.14-75.37-2.08-38.95-4.09-89.54-4.09-140.13 0-42.23 1.4-84.47 3.07-119.93 2.5-53.08 5.63-90.99 5.63-90.99s105.49-8.69 210.99-8.69c68.24 0 136.48 3.64 176.17 6.21 21.66 1.4 34.81 2.48 34.81 2.48s3.12 37.89 5.63 90.96c1.669 35.47 3.06 77.71 3.06 119.96z" fill="#dcf8ff"/><path d="m472.62 164.94c1.67 35.47 3.06 77.71 3.06 119.96 0 105.45-8.69 210.91-8.69 210.91s-13.15 1.08-34.81 2.49c2.03-26.99 8.5-120.2 8.5-213.4 0-93.21-6.47-186.41-8.5-213.4 21.66 1.4 34.81 2.48 34.81 2.48s3.119 37.89 5.63 90.96z" fill="#d2e1f9"/><path d="m115.55 500.4c-41.1-28.42-65.94-61.67-75.14-75.37 0 0 37.13-3.29 74.69-2.25 0 0 2.45 34.77.45 77.62z" fill="#d2e1f9"/><path d="m472.62 164.94-.12.01s-13.15-1.05-34.88-2.44c-40.59-2.56-111.11-6.25-181.62-6.25-108.25 0-216.5 8.69-216.5 8.69l-.11.02c2.5-53.08 5.63-90.99 5.63-90.99s105.49-8.69 210.99-8.69c68.24 0 136.48 3.64 176.17 6.21 21.66 1.4 34.81 2.48 34.81 2.48s3.119 37.89 5.63 90.96z" fill="#ff5f85"/><path d="m466.99 73.98s3.12 37.89 5.63 90.96l-.12.01s-13.15-1.05-34.88-2.44c-1.96-42.66-4.35-76.46-5.44-91.01 21.66 1.4 34.81 2.48 34.81 2.48z" fill="#b2527e"/></g><g><path d="m344.389 495.257c-31.391 1.157-61.129 1.743-88.385 1.743-40.237 0-84.83-1.244-132.659-3.7 1.42-39.376-.739-70.716-.762-71.047-.271-3.848-3.417-6.863-7.273-6.97-27.397-.762-54.829.78-67.816 1.684-2.442-47.76-3.679-92.155-3.679-132.065 0-15.274.186-31.476.553-48.155.091-4.141-3.192-7.572-7.333-7.663-4.171-.091-7.572 3.193-7.663 7.333-.369 16.788-.557 33.101-.557 48.485 0 42.303 1.38 89.584 4.101 140.528.072 1.351.508 2.657 1.263 3.78 9.059 13.494 34.705 48.045 77.101 77.36 1.142.789 2.479 1.246 3.864 1.32 50.898 2.727 98.291 4.109 140.861 4.109 27.439 0 57.362-.59 88.938-1.753 4.139-.153 7.371-3.632 7.219-7.771-.155-4.138-3.633-7.384-7.773-7.218zm-290.085-63.703c12.646-.779 32.822-1.712 53.698-1.42.496 10.239 1.224 31.042.563 55.898-25.638-19.692-43.698-40.563-54.261-54.478z"/><path d="m474.469 73.364c-.301-3.656-3.203-6.558-6.859-6.859-.44-.036-19.073-1.553-48.222-3.311 2.298-22.431-1.266-39.304-10.629-50.229-9.669-11.281-22.668-12.965-29.556-12.965-9.998 0-18.583 3.596-24.826 10.4-9.18 10.004-12.85 26.525-10.908 49.104-15.818-.577-32.412-1.054-49.315-1.356 1.628-20.318-1.946-35.657-10.659-45.67-4.954-5.693-14.144-12.478-29.792-12.478-9.998 0-18.583 3.596-24.826 10.4-8.995 9.803-12.7 25.862-11.019 47.747-16.906.302-33.502.78-49.321 1.357 1.887-20.891-1.601-36.633-10.408-46.871-4.958-5.763-14.173-12.633-29.926-12.633-9.998 0-18.583 3.596-24.826 10.4-9.182 10.006-12.852 26.531-10.907 49.116.107 1.24.228 2.462.364 3.666-29.271 1.763-47.991 3.288-48.433 3.324-3.656.301-6.558 3.202-6.859 6.858-.046.553-4.594 56.137-7.09 125.927-.148 4.14 3.088 7.615 7.227 7.763 4.15.151 7.616-3.087 7.764-7.227.343-9.603.726-18.936 1.13-27.89 24.903-1.834 117.699-8.178 209.432-8.178 22.073 0 45.861.367 70.704 1.092 4.127.124 7.595-3.137 7.716-7.278.12-4.141-3.138-7.595-7.278-7.715-24.988-.729-48.924-1.099-71.142-1.099-90.089 0-181.161 6.082-208.714 8.085 1.792-35.883 3.796-63.887 4.705-75.884 8.065-.609 23.366-1.71 43.469-2.91 4.011 15.979 11.365 27.607 21.972 34.683 8.752 5.84 18.03 7.372 25.357 7.372 7.762 0 13.335-1.719 13.773-1.859 3.932-1.251 6.094-5.437 4.864-9.375-1.229-3.938-5.433-6.135-9.374-4.931-.145.044-14.482 4.294-26.425-3.771-6.789-4.585-11.767-12.288-14.884-22.996 30.532-1.68 68.993-3.371 109.11-4.058 3.674 18.537 11.408 31.833 23.078 39.619 8.752 5.84 18.03 7.372 25.357 7.372 7.762 0 13.335-1.719 13.773-1.859 3.932-1.251 6.094-5.437 4.864-9.375s-5.433-6.135-9.374-4.931c-.145.044-14.482 4.294-26.425-3.771-7.66-5.173-13.014-14.316-15.992-27.265 6.94-.072 13.906-.11 20.866-.11 30.667 0 61.458.746 89.656 1.801 3.787 17.766 11.417 30.562 22.773 38.139 8.752 5.84 18.03 7.372 25.357 7.372 7.762 0 13.335-1.719 13.773-1.859 3.932-1.251 6.094-5.437 4.864-9.375s-5.435-6.135-9.374-4.931c-.145.044-14.482 4.294-26.425-3.771-7.196-4.86-12.357-13.223-15.424-24.953 46.801 1.991 84.381 4.655 98.809 5.744.905 11.982 2.897 39.937 4.688 75.882-15.716-1.146-52.048-3.62-96.76-5.518-4.163-.192-7.636 3.037-7.812 7.175s3.037 7.635 7.175 7.811c46.368 1.968 83.654 4.557 98.114 5.624 1.534 34.027 2.765 73.597 2.765 112.967 0 89.27-6.331 179.583-8.17 203.933-12.338.934-41.593 3.023-78.828 4.842-4.137.202-7.327 3.72-7.125 7.857.196 4.013 3.511 7.135 7.485 7.134.123 0 .247-.003.372-.009 49.709-2.428 85.337-5.342 85.69-5.372 3.656-.301 6.559-3.203 6.859-6.859.087-1.058 8.716-106.978 8.716-211.527.002-104.56-8.627-210.48-8.714-211.538zm-367.054-15.135c-1.547-17.969.878-31.001 7.015-37.688 3.374-3.677 8.008-5.542 13.773-5.542 8.079 0 14.322 2.495 18.555 7.415 6.237 7.251 8.507 20.206 6.649 37.679-16.463.683-31.849 1.454-45.575 2.218-.158-1.33-.298-2.691-.417-4.082zm125.474-.302c-1.494-17.813.938-30.737 7.04-37.386 3.374-3.677 8.008-5.542 13.773-5.542 8.03 0 14.246 2.464 18.476 7.325 6.029 6.927 8.395 19.16 6.94 35.603-7.684-.087-15.403-.134-23.114-.134-7.712 0-15.431.047-23.115.134zm125.526.302c-1.547-17.969.878-31.001 7.015-37.688 3.374-3.677 8.008-5.542 13.773-5.542 4.312 0 12.405 1.004 18.166 7.726 6.595 7.696 8.992 21.308 7.028 39.599-13.785-.768-29.252-1.544-45.808-2.231-.062-.615-.12-1.236-.174-1.864z"/><path d="m271.671 224.964c-.307-3.62-3.165-6.498-6.782-6.833-3.634-.342-6.957 1.974-7.923 5.476-.155.563-15.978 56.629-55.871 90.062-3.175 2.661-3.592 7.391-.931 10.566 1.483 1.77 3.609 2.683 5.752 2.683 1.699 0 3.409-.575 4.813-1.751 23.011-19.285 38.46-44.738 48.016-64.825.4 9.07.772 19.646 1.018 31.35.086 4.141 3.466 7.41 7.655 7.341 4.141-.087 7.428-3.514 7.341-7.656-.823-39.316-3.065-66.146-3.088-66.413z"/><path d="m267.583 322.978h-.058c-4.115 0-7.468 3.32-7.499 7.443-.194 25.618-1.135 50.308-2.799 73.504-22.621-.309-39.532-2.098-39.809-2.128-4.134-.442-7.817 2.532-8.264 6.649-.446 4.118 2.529 7.817 6.647 8.264 1.268.138 21.549 2.289 47.716 2.289 13.511 0 28.595-.574 43.432-2.295 4.114-.478 7.063-4.2 6.586-8.314-.479-4.116-4.216-7.057-8.314-6.586-11.029 1.279-22.311 1.887-32.954 2.088 1.638-23.193 2.565-47.828 2.759-73.356.032-4.143-3.3-7.526-7.443-7.558z"/></g></g></svg>