<svg id="Layer_1" height="512" viewBox="0 0 512 512" width="512" xmlns="http://www.w3.org/2000/svg" data-name="Layer 1"><path d="m21.086 166.428h469.828v36.615h-469.828z" fill="#598baa"/><path d="m21.086 166.428h30.001v36.615h-30.001z" fill="#6aa6c4"/><path d="m33.176 203.162h445.648v201.073h-445.648z" fill="#486c8b"/><path d="m33.176 203.162h30.001v201.073h-30.001z" fill="#598baa"/><path d="m415.843 263.355h-89.682a20.517 20.517 0 0 0 -20.6 20.434v9.271h130.882v-9.271a20.517 20.517 0 0 0 -20.6-20.434z" fill="#a2d4a8"/><path d="m351.442 80h-49.881a9.961 9.961 0 0 0 -10 9.915v8.269h69.881v-8.269a9.961 9.961 0 0 0 -10-9.915z" fill="#ea836f"/><path d="m355.742 98.184-.96 20.067h-56.561l-.96-20.067z" fill="#a2d4a8"/><path d="m354.782 118.251-1.22 25.432-.42-.02h-53.281l-.42.02-1.22-25.432z" fill="#ea836f"/><path d="m353.562 143.683-1.03 21.426h-52.061l-1.03-21.426.42-.02h53.281z" fill="#a2d4a8"/><path d="m235.84 263.355h-89.682a20.517 20.517 0 0 0 -20.6 20.434v9.271h130.882v-9.271a20.517 20.517 0 0 0 -20.6-20.434z" fill="#ea836f"/><path d="m392.932 418.928h-12.99v-125.868h-17.88v125.868h-12.99a21.494 21.494 0 0 0 -21.572 21.377v21.753h18v-17.787a7.537 7.537 0 0 1 7.57-7.5h35.86a7.537 7.537 0 0 1 7.57 7.5v17.787h18v-21.753a21.494 21.494 0 0 0 -21.568-21.377z" fill="#b8d7f7"/><path d="m212.929 418.928h-12.99v-125.868h-17.88v125.868h-12.99a21.494 21.494 0 0 0 -21.569 21.377v21.753h18v-17.787a7.538 7.538 0 0 1 7.571-7.5h35.86a7.537 7.537 0 0 1 7.57 7.5v17.787h18v-21.753a21.494 21.494 0 0 0 -21.572-21.377z" fill="#b8d7f7"/><path d="m104.737 119.431v37.161a8.559 8.559 0 0 0 8.591 8.517h28.99a8.55 8.55 0 0 0 8.58-8.517v-37.161z" fill="#fbe08b"/><path d="m394.363 359.029h-44.847a14.6 14.6 0 0 0 -14.6 14.6v3.651h74.049v-3.65a14.6 14.6 0 0 0 -14.602-14.601z" fill="#90b9dd"/><path d="m210.632 359.029h-44.847a14.6 14.6 0 0 0 -14.6 14.6v3.651h74.05v-3.65a14.6 14.6 0 0 0 -14.603-14.601z" fill="#90b9dd"/><g fill="#284268"><path d="m59 246.673a6 6 0 0 0 -6 6v81.614a6 6 0 0 0 12 0v-81.614a6 6 0 0 0 -6-6z"/><path d="m59 219.48a6 6 0 0 0 -6 6v4.807a6 6 0 1 0 12 0v-4.807a6 6 0 0 0 -6-6z"/><path d="m491.093 159h-132.343l2.492-56.917a5.817 5.817 0 0 0 5.758-6v-8.34a15.433 15.433 0 0 0 -15.563-15.743h-31.437v-17.078a5.781 5.781 0 0 0 -3.5-5.561l-14.683-6a6.032 6.032 0 0 0 -4.663 11.122l10.846 4.482v13.035h-6.437a15.433 15.433 0 0 0 -15.563 15.744v8.34a5.817 5.817 0 0 0 5.758 6l2.492 56.916h-137.919a13.877 13.877 0 0 0 .532-3h13.393a5.952 5.952 0 0 0 5.744-6.189v-21.847a5.756 5.756 0 0 0 -5.744-5.964h-13.256v-4.487c0-3.314-2.782-5.513-6.1-5.513h-46.16a5.388 5.388 0 0 0 -5.74 5.513v37.48a14.466 14.466 0 0 0 .317 4.007h-78.231a6.1 6.1 0 0 0 -6.086 6.086v36.753a6.179 6.179 0 0 0 6.161 6.161h5.839v196.762a6.256 6.256 0 0 0 6.238 6.238h142.762v3h-6.933c-15.201 0-28.067 11.944-28.067 27.145v21.933c0 3.314 3.186 5.922 6.5 5.922h18c3.314 0 5.5-2.608 5.5-5.922v-17.933c0-.864 1.2-1.145 2.067-1.145h35.866c.864 0 1.067.281 1.067 1.145v17.933c0 3.314 3.186 5.922 6.5 5.922h18c3.314 0 5.5-2.608 5.5-5.922v-21.933a26.816 26.816 0 0 0 -27.067-27.145h-6.933v-3h150v3h-6.933c-15.201 0-28.067 11.944-28.067 27.145v21.933c0 3.314 3.186 5.922 6.5 5.922h18c3.314 0 5.5-2.608 5.5-5.922v-17.933c0-.864 1.2-1.145 2.067-1.145h35.866c.864 0 1.067.281 1.067 1.145v17.933c0 3.314 3.186 5.922 6.5 5.922h18c3.314 0 5.5-2.608 5.5-5.922v-21.933a26.816 26.816 0 0 0 -27.067-27.145h-6.933v-3h92.822a6.2 6.2 0 0 0 6.178-6.178v-196.822h5.914a6.1 6.1 0 0 0 6.086-6.086v-37.007a5.907 5.907 0 0 0 -5.907-5.907zm-334.093-25h7v10h-7zm141-46.256a3.44 3.44 0 0 1 3.563-3.744h49.874a3.44 3.44 0 0 1 3.563 3.744v2.256h-57zm7.166 48.256-.649-14h43.966l-.649 14zm42.1 12-.459 10h-40.607l-.458-10zm-43.318-38-.391-8h45.892l-.392 8zm-192.948 14h34v30.993a3.064 3.064 0 0 1 -2.681 3.007h-28.99c-1.426 0-2.329-1.582-2.329-3.007zm101.933 302a14.808 14.808 0 0 1 15.067 15.145v15.855h-6v-11.855a12.807 12.807 0 0 0 -13.067-13.145h-35.866c-7.481 0-14.067 5.664-14.067 13.145v11.855h-6v-15.855c0-8.584 7.483-15.145 16.067-15.145zm-24.933-12v-31h6v31zm-26.1-43a7.842 7.842 0 0 1 7.6-5h43a7.842 7.842 0 0 1 7.6 5zm26.1-72h6v55h-6zm-56-12v-3.723a13.97 13.97 0 0 1 14.161-14.277h89.678a13.97 13.97 0 0 1 14.161 14.277v3.723zm260.933 139a14.808 14.808 0 0 1 15.067 15.145v15.855h-6v-11.855a12.807 12.807 0 0 0 -13.067-13.145h-35.866c-7.481 0-14.067 5.664-14.067 13.145v11.855h-6v-15.855c0-8.584 7.483-15.145 16.067-15.145zm-24.933-12v-31h6v31zm-26.1-43a7.842 7.842 0 0 1 7.6-5h43a7.842 7.842 0 0 1 7.6 5zm26.1-72h6v55h-6zm-56-12v-3.723a13.97 13.97 0 0 1 14.161-14.277h89.678a13.97 13.97 0 0 1 14.161 14.277v3.723zm173-91h-370a6 6 0 0 0 0 12h358v191h-87v-16h20.5c3.314 0 5.5-2.608 5.5-5.922v-3.5a19.244 19.244 0 0 0 -19.5-19.578h-6.5v-55h50.445c3.313 0 5.555-3.054 5.555-6.367v-9.356a25.979 25.979 0 0 0 -26.161-26.277h-89.678a25.979 25.979 0 0 0 -26.161 26.277v9.356c0 3.313 2.242 6.367 5.555 6.367h50.445v55h-6.5c-11.028 0-20.5 8.55-20.5 19.578v3.5c0 3.314 3.186 5.922 6.5 5.922h20.5v16h-150v-16h20.5c3.314 0 5.5-2.608 5.5-5.922v-3.5a19.244 19.244 0 0 0 -19.5-19.578h-6.5v-55h50.445c3.313 0 5.555-3.054 5.555-6.367v-9.356a25.979 25.979 0 0 0 -26.161-26.277h-89.678a25.979 25.979 0 0 0 -26.161 26.277v9.356c0 3.313 2.242 6.367 5.555 6.367h50.445v55h-6.5c-11.028 0-20.5 8.55-20.5 19.578v3.5c0 3.314 3.186 5.922 6.5 5.922h20.5v16h-137v-191h36a6 6 0 0 0 0-12h-48v-25h458z"/></g></svg>