<svg id="Layer_1" enable-background="new 0 0 512 512" height="512" viewBox="0 0 512 512" width="512" xmlns="http://www.w3.org/2000/svg"><g><g><path d="m466.42 318.91c-5.75 24.16-10.56 46.11-10.26 63.54h-400.32c.3-17.5-4.56-39.57-10.34-63.86-11-46.23-25.35-100.5-13.87-146.63 13.97-56.14 66.2-100.23 209.26-103.1 4.93-.1 9.96-.15 15.11-.15 154.54 0 209.92 45.18 224.37 103.26 11.5 46.24-2.94 100.64-13.95 146.94z" fill="#ff5f85"/><path d="m466.42 318.91c-5.75 24.16-10.56 46.11-10.26 63.54h-30.01c.42-92.5 135.09-307.2-185.26-313.59 4.93-.1 9.96-.15 15.11-.15 154.54 0 209.92 45.18 224.37 103.26 11.5 46.24-2.94 100.64-13.95 146.94z" fill="#b2527e"/><path d="m466.42 318.91-2.33.61c-6.96-3.86-15.34-8.92-23.8-15.02-5.17-3.73-10.38-7.85-15.3-12.32-24.68 22.39-56.33 36-56.33 36s-31.65-13.61-56.32-36c-24.68 22.39-56.33 36-56.33 36s-31.65-13.61-56.33-36c-24.68 22.39-56.32 36-56.32 36s-31.65-13.61-56.33-36c-12.99 11.78-27.9 21.13-39.12 27.35l-2.41-.94c-11-46.23-25.35-100.5-13.87-146.63 5.4 2.38 33.21 15.14 55.4 34.84 24.68-21.91 56.33-35.24 56.33-35.24s31.64 13.33 56.32 35.24c24.68-21.91 56.33-35.24 56.33-35.24s31.65 13.33 56.33 35.24c24.67-21.91 56.32-35.24 56.32-35.24s31.65 13.33 56.33 35.24c9.03-8.02 19-14.89 28-20.38 13.09-7.97 24.15-13.03 27.38-14.45 11.5 46.24-2.94 100.64-13.95 146.94z" fill="#77e0ab"/><g><path d="m480.57 499.69s-11.43.46-30.3 1.1c-42.27 1.41-121.89 3.71-194.27 3.71-104.7 0-224.57-4.81-224.57-4.81-12.22-63.18 0-116.35 0-116.35s119.87-4.81 224.57-4.81c72 0 151.17 2.27 193.6 3.7 19.28.64 30.97 1.11 30.97 1.11s12.22 53.17 0 116.35z" fill="#dcf8ff"/><path d="m480.57 499.69s-11.43.46-30.3 1.1c7.22-51.35 2.47-97.27-.67-118.56 19.28.64 30.97 1.11 30.97 1.11s12.22 53.17 0 116.35z" fill="#d2e1f9"/></g><path d="m335.36 71.69-42.2.73-116.52 2.03c5.49-32.43 30.47-58.26 62.52-65.14 5.51-1.19 11.23-1.81 17.1-1.81 39.02 0 71.57 27.56 79.1 64.19z" fill="#dcf8ff"/><path d="m335.36 71.69-42.2.73c-7.04-35.7-30.59-53.89-54-63.11 5.51-1.19 11.23-1.81 17.1-1.81 39.02 0 71.57 27.56 79.1 64.19z" fill="#d2e1f9"/><path d="m466.42 318.91-2.33.61c-6.96-3.86-15.34-8.92-23.8-15.02 9.01-38.08 18.07-80.14 12.7-118.08 13.09-7.97 24.15-13.03 27.38-14.45 11.5 46.24-2.94 100.64-13.95 146.94z" fill="#65c1b0"/><g fill="#c0ffde"><ellipse cx="256.009" cy="249.493" rx="15" ry="14.985"/><ellipse cx="142.609" cy="249.493" rx="15" ry="14.985"/><ellipse cx="369.409" cy="249.493" rx="15" ry="14.985"/></g></g><g><circle cx="200.315" cy="155.154" r="7.5"/><circle cx="88.94" cy="155.153" r="7.5"/><circle cx="423.06" cy="155.154" r="7.5"/><circle cx="311.685" cy="155.153" r="7.5"/><circle cx="200.315" cy="335.154" r="7.5"/><circle cx="88.94" cy="335.152" r="7.5"/><circle cx="423.06" cy="335.154" r="7.5"/><circle cx="311.685" cy="335.152" r="7.5"/><path d="m487.878 381.659c-.758-3.297-3.629-5.679-7.009-5.814-.192-.008-6.394-.255-17.054-.633 1.007-17.499 6.294-39.554 11.852-62.737 14.301-59.652 32.098-133.892-9.288-186.372-24.132-30.601-65.149-50.181-124.404-59.159-2.594-10.592-7.109-20.498-13.444-29.49-2.385-3.386-7.063-4.196-10.451-1.811-3.386 2.386-4.197 7.065-1.811 10.451 4.092 5.808 7.267 12.074 9.485 18.709-21.135-2.4-44.369-3.592-69.755-3.592-25.046 0-48.157 1.207-69.249 3.607 9.792-29.4 37.547-49.818 69.508-49.818 12.1 0 24.085 2.995 34.662 8.662 3.651 1.956 8.197.583 10.153-3.069 1.956-3.651.583-8.197-3.069-10.153-12.748-6.83-27.183-10.44-41.746-10.44-40.945 0-76.166 27.849-85.723 66.957-26.232 3.965-48.964 9.971-68.004 17.991-3.817 1.608-5.608 6.006-4.001 9.823s6.005 5.61 9.823 4.001c35.545-14.971 85.22-22.562 147.647-22.562 53.889 0 98.376 5.655 132.225 16.808 29.55 9.737 51.882 23.993 66.376 42.373 7.858 9.964 13.308 20.865 16.883 32.424-10.004 4.816-29.151 14.921-46.495 29.136-24.311-19.924-52.163-31.774-53.416-32.302-1.861-.785-3.961-.784-5.822 0-1.252.528-29.105 12.378-53.416 32.302-24.311-19.924-52.163-31.774-53.416-32.302-1.861-.784-3.961-.784-5.822 0-1.252.527-29.104 12.377-53.416 32.302-24.311-19.924-52.163-31.774-53.415-32.302-1.861-.785-3.961-.784-5.822 0-1.252.528-29.105 12.378-53.416 32.302-17.307-14.184-36.408-24.276-46.429-29.104 6.488-21.049 18.567-38.053 36.464-51.481 3.313-2.486 3.983-7.187 1.498-10.5-2.486-3.312-7.186-3.984-10.5-1.498-69.174 51.904-48.411 138.514-31.728 208.107 5.558 23.183 10.845 45.239 11.852 62.738-10.601.375-16.786.621-17.054.632-3.38.136-6.251 2.518-7.009 5.814-.513 2.234-12.433 55.458-.054 119.457.661 3.417 3.586 5.93 7.063 6.07.242.009 24.573.981 60.252 2.038.076.002.151.003.226.003 4.039 0 7.373-3.213 7.493-7.278.123-4.141-3.134-7.596-7.274-7.719-25.236-.747-44.775-1.452-54.096-1.802-7.995-46.758-2.565-87.397-.062-101.823 25.468-.954 128.142-4.576 218.331-4.576 15.366 0 31.997.105 49.429.313 4.108.088 7.54-3.268 7.589-7.41s-3.268-7.54-7.41-7.589c-17.491-.208-34.182-.314-49.607-.314-71.126 0-149.964 2.245-192.822 3.669-.818-14.835-4.348-32.04-8.601-50.318 9.252-5.289 21.227-12.885 32.451-22.259 24.297 20.323 52.113 32.412 53.364 32.95 1.893.814 4.037.813 5.929 0 1.251-.539 29.065-12.628 53.362-32.948 24.297 20.32 52.111 32.41 53.362 32.948 1.893.813 4.036.813 5.929 0 1.251-.539 29.066-12.628 53.362-32.948 24.296 20.32 52.111 32.41 53.362 32.948.946.407 1.956.61 2.964.61 1.009 0 2.018-.204 2.964-.61 1.251-.539 29.066-12.627 53.364-32.95 11.218 9.37 23.187 16.963 32.435 22.251-4.254 18.28-7.785 35.487-8.603 50.324-24.768-.825-61.517-1.924-101.673-2.698-4.126-.086-7.563 3.212-7.643 7.354-.08 4.141 3.212 7.563 7.354 7.643 58.898 1.136 110.444 2.971 127.47 3.609 2.504 14.428 7.934 55.064-.062 101.822-25.567.958-128.15 4.574-218.27 4.574-36.11 0-77.933-.57-124.307-1.696-4.154-.099-7.579 3.175-7.68 7.316s3.175 7.58 7.315 7.68c46.495 1.128 88.44 1.7 124.671 1.7 103.647 0 223.669-4.767 224.87-4.815 3.477-.14 6.402-2.653 7.063-6.07 12.38-63.998.46-117.222-.054-119.456zm-26.831-72.54c-9.387-5.592-20.858-13.274-31.019-22.492-2.858-2.594-7.219-2.593-10.077 0-19.136 17.356-43.031 29.412-51.288 33.308-8.258-3.897-32.153-15.952-51.288-33.308-2.858-2.593-7.219-2.593-10.077 0-19.135 17.356-43.031 29.412-51.288 33.308-8.258-3.897-32.152-15.952-51.288-33.308-2.858-2.593-7.219-2.593-10.077 0-19.135 17.356-43.031 29.412-51.288 33.308-8.258-3.897-32.153-15.952-51.288-33.308-2.858-2.593-7.219-2.593-10.077 0-10.167 9.222-21.644 16.908-31.035 22.501-.012-.05-.024-.1-.036-.15-7.976-33.271-17.017-70.982-15.924-105.42.23-7.258.91-14.164 2.045-20.73 10.897 5.459 29.482 15.797 45.009 29.585 2.841 2.522 7.119 2.522 9.96 0 19.177-17.028 43.138-28.846 51.347-32.635 8.209 3.789 32.169 15.606 51.346 32.635 2.842 2.523 7.119 2.522 9.96 0 19.177-17.029 43.139-28.847 51.347-32.635 8.21 3.789 32.17 15.606 51.347 32.635 1.42 1.261 3.2 1.892 4.98 1.892s3.56-.631 4.98-1.892c19.18-17.031 43.145-28.849 51.349-32.636 8.202 3.78 32.118 15.564 51.344 32.637 2.841 2.522 7.119 2.522 9.96 0 15.523-13.784 34.18-24.153 45.081-29.614 6.817 39.472-4.038 84.752-13.969 126.18-.014.045-.025.092-.036.139z"/><path d="m256.009 227.008c-12.407 0-22.5 10.087-22.5 22.485s10.093 22.485 22.5 22.485 22.5-10.087 22.5-22.485-10.093-22.485-22.5-22.485zm0 29.971c-4.136 0-7.5-3.358-7.5-7.485s3.364-7.485 7.5-7.485 7.5 3.358 7.5 7.485-3.364 7.485-7.5 7.485z"/><path d="m142.608 227.008c-12.407 0-22.5 10.087-22.5 22.485s10.093 22.485 22.5 22.485 22.5-10.087 22.5-22.485-10.093-22.485-22.5-22.485zm0 29.971c-4.136 0-7.5-3.358-7.5-7.485s3.364-7.485 7.5-7.485 7.5 3.358 7.5 7.485-3.364 7.485-7.5 7.485z"/><path d="m369.409 227.008c-12.407 0-22.5 10.087-22.5 22.485s10.093 22.485 22.5 22.485 22.5-10.087 22.5-22.485-10.093-22.485-22.5-22.485zm0 29.971c-4.136 0-7.5-3.358-7.5-7.485s3.364-7.485 7.5-7.485 7.5 3.358 7.5 7.485-3.364 7.485-7.5 7.485z"/><path d="m99.664 406.108c-4.115-.474-7.831 2.493-8.296 6.608-.132 1.163-3.188 28.817-.002 57.498.426 3.836 3.673 6.673 7.445 6.672.276 0 .556-.015.837-.046 4.117-.458 7.083-4.166 6.626-8.282-2.988-26.896-.045-53.769-.001-54.154.465-4.115-2.494-7.83-6.609-8.296z"/><path d="m179.001 406.149c-4.119-.473-7.83 2.493-8.296 6.608-.131 1.163-3.188 28.818-.001 57.498.426 3.836 3.674 6.673 7.445 6.672.276 0 .556-.015.837-.046 4.117-.458 7.083-4.166 6.626-8.282-2.995-26.956-.032-53.888-.001-54.157.463-4.114-2.495-7.827-6.61-8.293z"/><path d="m263.5 469.428v-55.826c0-4.142-3.358-7.5-7.5-7.5s-7.5 3.358-7.5 7.5v55.826c0 4.142 3.358 7.5 7.5 7.5s7.5-3.358 7.5-7.5z"/><path d="m412.352 476.84c.281.031.561.046.837.046 3.771 0 7.019-2.837 7.445-6.672 3.187-28.68.13-56.334-.001-57.498-.466-4.117-4.182-7.082-8.296-6.608-4.116.466-7.075 4.18-6.609 8.296.031.268 3.001 27.128-.001 54.154-.459 4.117 2.508 7.825 6.625 8.282z"/><path d="m333.015 476.882c.281.031.561.046.837.046 3.771 0 7.019-2.837 7.445-6.672 3.187-28.68.13-56.335-.001-57.498-.466-4.115-4.181-7.066-8.294-6.608-4.115.465-7.075 4.178-6.611 8.293.03.269 2.994 27.201-.001 54.157-.459 4.116 2.508 7.824 6.625 8.282z"/></g></g></svg>