<svg id="Layer_1" height="512" viewBox="0 0 512 512" width="512" xmlns="http://www.w3.org/2000/svg" data-name="Layer 1"><path d="m84.57 412.45v55.28a19.994 19.994 0 0 0 20 20h302.86a19.994 19.994 0 0 0 20-20v-55.28z" fill="#9ac5a1"/><path d="m84.57 201.32h342.86v211.23h-342.86z" fill="#75967a"/><path d="m427.43 201.32h-342.86c32.5-54.1 49.68-63.03 49.68-126.14v-.8a50.087 50.087 0 0 1 50.11-50.11v31.89a50.1 50.1 0 0 0 50.1 50.11h43.08a50.1 50.1 0 0 0 50.1-50.11v-31.89a50.1 50.1 0 0 1 50.11 50.11v.8c0 31.56 4.29 49.56 12.65 66.45s20.78 32.64 37.03 59.69z" fill="#9ac5a1"/><path d="m328.93 240.32v78.73a12 12 0 0 0 12 12h47.82a12 12 0 0 0 12-12v-78.73z" fill="#797e37"/><path d="m220.09 240.32v78.73a12 12 0 0 0 12 12h47.82a12 12 0 0 0 12-12v-78.73z" fill="#797e37"/><path d="m400.75 240.32-35.91 36.74-35.91-36.74z" fill="#a1a348"/><path d="m291.91 240.32-35.91 36.74-35.91-36.74z" fill="#a1a348"/><path d="m376.83 386.08v46.84h-10.15-231.51v-46.84h231.51z" fill="#d4e1f4"/><path d="m430.04 376.55h-63.21v65.9h63.21a14 14 0 0 0 14-14v-37.9a14 14 0 0 0 -14-14z" fill="#f3e08d"/><path d="m84.57 201.32h30v211.23h-30z" fill="#99b59c"/><path d="m114.57 467.73v-55.28h-30v55.28a19.994 19.994 0 0 0 20 20h30a19.994 19.994 0 0 1 -20-20z" fill="#bae2bf"/><path d="m164.25 75.18v-.8a50.074 50.074 0 0 1 20.11-40.148v-9.962a50.087 50.087 0 0 0 -50.11 50.11v.8c0 63.11-17.18 72.04-49.68 126.14h30c32.5-54.1 49.68-63.03 49.68-126.14z" fill="#bae2bf"/><path d="m81.96 376.55a14 14 0 0 0 -14 14v37.9a14 14 0 0 0 14 14h63.21v-65.9z" fill="#f3e08d"/><path d="m111.25 240.32v78.73a12 12 0 0 0 12 12h47.82a12 12 0 0 0 12-12v-78.73z" fill="#797e37"/><path d="m183.07 240.32-35.91 36.74-35.91-36.74z" fill="#a1a348"/><path d="m97.96 428.45v-37.9a14 14 0 0 1 14-14h-30a14 14 0 0 0 -14 14v37.9a14 14 0 0 0 14 14h30a14 14 0 0 1 -14-14z" fill="#ffefae"/><g fill="#284268"><path d="m232.089 337.045h47.822a18.02 18.02 0 0 0 18-18v-78.726a6 6 0 0 0 -6-6h-71.822a6 6 0 0 0 -6 6v78.726a18.02 18.02 0 0 0 18 18zm45.566-90.726-21.655 22.153-21.655-22.153zm-51.566 8.722 25.62 26.209a6 6 0 0 0 8.582 0l25.62-26.209v64a6.007 6.007 0 0 1 -6 6h-47.822a6.007 6.007 0 0 1 -6-6z"/><path d="m189.069 319.045v-78.726a6 6 0 0 0 -6-6h-71.821a6 6 0 0 0 -6 6v78.726a18.02 18.02 0 0 0 18 18h47.821a18.019 18.019 0 0 0 18-18zm-20.256-72.726-21.654 22.153-21.659-22.153zm-51.565 72.726v-64l25.62 26.209a6 6 0 0 0 8.581 0l25.62-26.209v64a6.006 6.006 0 0 1 -6 6h-47.821a6.006 6.006 0 0 1 -6-6z"/><path d="m340.931 337.045h47.821a18.02 18.02 0 0 0 18-18v-78.726a6 6 0 0 0 -6-6h-71.821a6 6 0 0 0 -6 6v78.726a18.019 18.019 0 0 0 18 18zm45.569-90.726-21.655 22.153-21.654-22.153zm-51.565 8.722 25.62 26.209a6 6 0 0 0 8.581 0l25.62-26.209v64a6.006 6.006 0 0 1 -6 6h-47.825a6.006 6.006 0 0 1 -6-6z"/><path d="m196.019 126.242c-1.816-1.524-3.592-3.144-5.278-4.816a86.241 86.241 0 0 1 -20.815-33.171 6 6 0 1 0 -11.355 3.881 98.308 98.308 0 0 0 23.722 37.813c1.92 1.9 3.943 3.749 6.012 5.485a6 6 0 0 0 7.714-9.192z"/><path d="m221.515 141.042a85.341 85.341 0 0 1 -8.577-3.7 6 6 0 0 0 -5.353 10.74 97.51 97.51 0 0 0 9.786 4.224 6 6 0 0 0 4.144-11.262z"/><path d="m78.566 448.142v19.591a26.029 26.029 0 0 0 26 26h302.868a26.029 26.029 0 0 0 26-26v-19.591a20.017 20.017 0 0 0 16.609-19.69v-37.9a20.017 20.017 0 0 0 -16.609-19.69v-169.545a6 6 0 0 0 -.857-3.09c-7.02-11.683-13.319-21.258-18.876-29.707-19.94-30.313-29.948-45.528-29.948-93.339v-.8a56.173 56.173 0 0 0 -56.109-56.109 6 6 0 0 0 -6 6v31.9a44.159 44.159 0 0 1 -44.109 44.109h-43.07a44.159 44.159 0 0 1 -44.109-44.109v-31.9a6 6 0 0 0 -6-6 56.173 56.173 0 0 0 -56.109 56.109v.8c0 47.811-10.008 63.026-29.948 93.339-5.557 8.449-11.856 18.024-18.876 29.707a6 6 0 0 0 -.857 3.09v169.541a20.017 20.017 0 0 0 -16.609 19.69v37.9a20.017 20.017 0 0 0 16.609 19.694zm342.868 19.591a14.015 14.015 0 0 1 -14 14h-302.868a14.015 14.015 0 0 1 -14-14v-19.281h54.6a6 6 0 0 0 6-6v-3.534h209.668v3.534a6 6 0 0 0 6 6h54.6zm-270.268-40.815v-34.836h209.668v34.836zm286.877-36.37v37.9a8.009 8.009 0 0 1 -8 8h-57.209v-53.9h57.209a8.009 8.009 0 0 1 8 8zm-329.719-215.433c20.584-31.293 31.923-48.531 31.923-99.934v-.8a44.177 44.177 0 0 1 38.109-43.7v25.482a56.172 56.172 0 0 0 56.109 56.109h43.07a56.172 56.172 0 0 0 56.109-56.109v-25.489a44.177 44.177 0 0 1 38.109 43.7v.8c0 51.4 11.339 68.641 31.923 99.934 3.972 6.038 8.328 12.662 13.041 20.2h-321.434c4.717-7.531 9.069-14.155 13.041-20.193zm-17.758 32.2h330.868v163.233h-54.6a6 6 0 0 0 -6 6v3.534h-209.668v-3.534a6 6 0 0 0 -6-6h-54.6zm-16.609 183.233a8.009 8.009 0 0 1 8-8h57.209v53.9h-57.209a8.009 8.009 0 0 1 -8-8z"/></g></svg>