<svg id="Capa_1" enable-background="new 0 0 511.361 511.361" height="512" viewBox="0 0 511.361 511.361" width="512" xmlns="http://www.w3.org/2000/svg"><g><g><g><path d="m401.903 198.768c1.627-8.319 2.485-16.894 2.485-25.658 0-70.539-55.087-128.901-126.79-138.719l-43.858.135c-71.204 10.229-125.767 68.379-125.767 138.584 0 8.765.859 17.339 2.486 25.658l30.961 98.43h246.088z" fill="#f8f7f8"/></g><path d="m152.066 148.472c8.963-37.556 33.862-69.398 67.63-88.831 2.318-1.334 5.227-.698 6.895 1.392 3.494 4.379 7.997 7.957 13.279 10.438 4.914 2.308 10.381 3.529 15.811 3.529s10.896-1.221 15.81-3.529c10.709-5.031 18.22-14.563 20.606-26.151l.009-.045c.532-2.592 2.809-4.456 5.455-4.466l7.621-.027c-8.849-2.932-18.058-5.086-27.583-6.39l-43.858.135c-71.204 10.229-125.767 68.379-125.767 138.584 0 8.765.859 17.339 2.486 25.658l30.961 98.43h38.44l-6.292-20.002h216.864l11.47-78.428c1.291-6.599 2.089-13.361 2.367-20.25h-228.467c-15.757 0-27.394-14.721-23.737-30.047z" fill="#efedee"/><path d="m477.958 257.197h-444.554v-49.018c0-5.335 4.325-9.66 9.66-9.66h425.235c5.335 0 9.66 4.325 9.66 9.66v49.018z" fill="#f6e2c4"/><path d="m489.014 347.601h-466.667c-8.2 0-14.848-6.647-14.848-14.848v-83.709c0-8.2 6.647-14.848 14.848-14.848h466.667c8.2 0 14.848 6.647 14.848 14.848v83.709c0 8.2-6.648 14.848-14.848 14.848z" fill="#fcf1de"/><path d="m83.917 311.923c-16.509 0-29.892-13.383-29.892-29.892v-47.835h-31.678c-8.2 0-14.848 6.647-14.848 14.848v83.709c0 8.2 6.647 14.848 14.848 14.848h466.667c8.2 0 14.848-6.647 14.848-14.848v-20.83z" fill="#f6e2c4"/><g><path d="m246.249 57.895c-13.403-6.297-16.989-23.71-7.164-34.79l2.523-2.845c7.484-8.441 20.663-8.441 28.147 0l2.523 2.845c9.825 11.08 6.239 28.493-7.164 34.79-5.976 2.807-12.891 2.807-18.865 0z" fill="#e17983"/></g><path d="m498.053 419.005h-484.745v71.239c0 3.832 3.106 6.939 6.939 6.939h470.868c3.832 0 6.939-3.107 6.939-6.939v-71.239z" fill="#f7d8a4"/><g><path d="m489.014 461.005h-466.667c-8.2 0-14.848-6.647-14.848-14.848v-83.709c0-8.2 6.647-14.848 14.848-14.848h466.667c8.2 0 14.848 6.647 14.848 14.848v83.709c0 8.2-6.648 14.848-14.848 14.848z" fill="#fcf1de"/><path d="m81.197 428.728c-16.641 0-30.13-13.49-30.13-30.13v-50.997h-28.72c-8.2 0-14.848 6.647-14.848 14.848v83.709c0 8.2 6.647 14.848 14.848 14.848h466.667c8.2 0 14.848-6.647 14.848-14.848v-17.429h-422.665z" fill="#f6e2c4"/></g></g><g><path d="m511.361 249.294c0-12.322-10.025-22.347-22.347-22.347h-3.557v-18.519c0-9.462-7.698-17.16-17.159-17.16h-57.612c.554-4.295.937-8.626 1.097-12.965.152-4.14-3.081-7.618-7.22-7.771-4.155-.15-7.618 3.08-7.771 7.22-.166 4.53-.593 9.052-1.239 13.516h-278.765c-.873-6.011-1.315-12.096-1.315-18.158 0-13.473 2.182-26.755 6.361-39.421 11.613 16.89 27.809 28.925 48.357 35.833.793.267 1.599.393 2.391.393 3.133 0 6.055-1.979 7.108-5.112 1.32-3.926-.792-8.179-4.719-9.499-20.978-7.053-36.064-19.781-46.035-38.829 5.401-10.792 12.355-20.924 20.748-30.081.44-.48.889-.952 1.336-1.426 6.271 8.08 14.563 13.755 25.154 17.203.771.251 1.554.371 2.323.371 3.16 0 6.099-2.013 7.13-5.18 1.283-3.938-.871-8.171-4.81-9.453-8.2-2.67-14.305-6.965-18.857-13.329 18.265-15.532 40.543-26.318 64.576-31.187.026.137.044.274.073.412 1.905 9.251 7.901 16.86 16.45 20.876 4.011 1.884 8.315 2.827 12.621 2.826 4.305 0 8.611-.942 12.621-2.826 8.549-4.016 14.544-11.625 16.45-20.876.04-.195.067-.391.103-.586 24.865 4.852 47.357 15.871 65.556 31.347-4.553 6.371-10.661 10.671-18.867 13.342-3.939 1.282-6.092 5.515-4.81 9.453 1.031 3.167 3.97 5.18 7.13 5.18.77 0 1.552-.119 2.323-.371 10.599-3.451 18.905-9.121 25.18-17.207 8.85 9.385 16.304 19.974 22.07 31.489-9.971 19.06-25.06 31.795-46.046 38.851-3.926 1.32-6.039 5.573-4.719 9.499 1.053 3.134 3.975 5.112 7.108 5.112.792 0 1.599-.126 2.391-.393 20.559-6.912 36.752-18.965 48.364-35.871 1.483 4.503 2.74 9.104 3.717 13.805.736 3.541 3.856 5.976 7.335 5.976.505 0 1.019-.051 1.534-.158 4.055-.843 6.66-4.813 5.817-8.869-12.412-59.743-62.451-106.076-125.326-116.674-1.26-3.471-3.174-6.728-5.722-9.602l-2.522-2.844c-4.99-5.627-12.165-8.855-19.685-8.855s-14.695 3.228-19.685 8.854l-2.523 2.846c-2.592 2.923-4.529 6.242-5.787 9.78-34.438 6.052-65.908 23.094-89.059 48.352-24.604 26.841-38.153 61.237-38.153 96.85 0 6.059.403 12.136 1.183 18.158h-58.595c-9.461 0-17.159 7.698-17.159 17.16v18.519h-3.557c-12.322-.001-22.347 10.023-22.347 22.346v83.709c0 5.695 2.145 10.897 5.665 14.848-3.52 3.95-5.665 9.152-5.665 14.847v83.709c0 5.774 2.201 11.043 5.808 15.013v29.073c0 7.961 6.478 14.439 14.439 14.439h470.867c7.961 0 14.439-6.478 14.439-14.439v-29.073c3.607-3.97 5.808-9.24 5.808-15.013v-83.709c0-5.695-2.145-10.897-5.665-14.848 3.52-3.951 5.665-9.153 5.665-14.848zm-266.665-221.213 2.523-2.846c2.176-2.454 5.181-3.806 8.461-3.806s6.285 1.352 8.462 3.807l2.522 2.844c3.1 3.496 4.336 8.125 3.394 12.701s-3.908 8.339-8.136 10.326c-3.967 1.864-8.518 1.864-12.484 0-4.228-1.986-7.193-5.75-8.136-10.326s.295-9.206 3.394-12.7zm-203.792 180.347c0-1.191.969-2.16 2.159-2.16h425.235c1.19 0 2.159.969 2.159 2.16v18.519h-288.593c-4.142 0-7.5 3.358-7.5 7.5s3.358 7.5 7.5 7.5h307.15c4.051 0 7.347 3.296 7.347 7.347v83.709c0 4.051-3.296 7.348-7.347 7.348h-366.797v-98.404h27.658c4.142 0 7.5-3.358 7.5-7.5s-3.358-7.5-7.5-7.5h-108.971zm-25.904 40.866c0-4.051 3.296-7.347 7.347-7.347h84.87v98.404h-84.87c-4.051 0-7.347-3.296-7.347-7.348zm7.347 204.461c-4.051 0-7.347-3.296-7.347-7.348v-83.709c0-4.051 3.296-7.348 7.347-7.348h84.87v98.404h-84.87zm-1.539 36.177v-21.237c.509.035 1.021.059 1.539.059h374.747c4.142 0 7.5-3.358 7.5-7.5s-3.358-7.5-7.5-7.5h-274.877v-98.404h366.797c4.051 0 7.347 3.296 7.347 7.348v83.709c0 4.051-3.296 7.348-7.347 7.348h-59.932c-4.142 0-7.5 3.358-7.5 7.5s3.358 7.5 7.5 7.5h59.932c.518 0 1.03-.024 1.539-.059v21.237h-469.745z"/><path d="m74.579 279.392h6.707c4.142 0 7.5-3.358 7.5-7.5s-3.358-7.5-7.5-7.5h-6.707c-4.142 0-7.5 3.358-7.5 7.5s3.358 7.5 7.5 7.5z"/><path d="m74.579 317.371h6.707c4.142 0 7.5-3.358 7.5-7.5s-3.358-7.5-7.5-7.5h-6.707c-4.142 0-7.5 3.358-7.5 7.5s3.358 7.5 7.5 7.5z"/><path d="m81.286 416.309h-6.707c-4.142 0-7.5 3.358-7.5 7.5s3.358 7.5 7.5 7.5h6.707c4.142 0 7.5-3.358 7.5-7.5s-3.358-7.5-7.5-7.5z"/><path d="m74.579 393.33h6.707c4.142 0 7.5-3.358 7.5-7.5s-3.358-7.5-7.5-7.5h-6.707c-4.142 0-7.5 3.358-7.5 7.5s3.358 7.5 7.5 7.5z"/></g></g></svg>