<svg id="Layer_1" enable-background="new 0 0 512 512" height="512" viewBox="0 0 512 512" width="512" xmlns="http://www.w3.org/2000/svg"><g><g><path d="m475.35 81.27s-13.47 12.78-34.28 34.75c-47.73 50.37-134.06 149.08-185.07 252.88-.76-1.55-1.54-3.11-2.32-4.66-41.25-82.14-104-160.67-151.43-214.07h-.01c-37.61-42.36-65.59-68.9-65.59-68.9s107.45-12.55 219.35-12.55c62.26 0 123.13 3.88 164.9 7.33 33.3 2.75 54.45 5.22 54.45 5.22z" fill="#dcf8ff"/><path d="m475.35 81.27s-13.47 12.78-34.28 34.75c-47.73 50.37-134.06 149.08-185.07 252.88-.76-1.55-1.54-3.11-2.32-4.66 23.05-108.73 126.36-239.66 167.22-288.19 33.3 2.75 54.45 5.22 54.45 5.22z" fill="#d2e1f9"/><path d="m441.07 116.02c-47.73 50.37-134.06 149.08-185.07 252.88-.76-1.55-1.54-3.11-2.32-4.66-41.25-82.14-104-160.67-151.43-214.07 0 0 33.98-43 81.79-43 62.8 0 69.69 35.88 123.07 38.26 43.14 1.92 54.93-12.62 75.99-22.22 12.83-5.84 29.09-9.85 57.97-7.19z" fill="#77e0ab"/><path d="m441.07 116.02c-47.73 50.37-134.06 149.08-185.07 252.88-.76-1.55-1.54-3.11-2.32-4.66 17.57-82.89 81.79-178.68 129.42-241.03 12.83-5.84 29.09-9.85 57.97-7.19z" fill="#65c1b0"/><ellipse cx="130.364" cy="22.487" fill="#58768c" rx="15" ry="14.987"/><ellipse cx="256.866" cy="199.915" fill="#c0ffde" rx="25.716" ry="25.694"/></g><g><path d="m482.47 78.896c-.92-2.762-3.354-4.742-6.246-5.08-.71-.083-71.996-8.327-157.737-11.419-4.123-.151-7.616 3.085-7.766 7.225-.149 4.14 3.085 7.616 7.225 7.766 61.381 2.214 115.279 7.083 140.826 9.658-5.352 5.358-12.382 12.512-20.656 21.198-39.465-3.003-56.119 6.438-72.24 15.575-14.065 7.972-27.349 15.502-58.43 14.118-23.253-1.035-37.051-8.958-51.658-17.346-14.79-8.492-31.288-17.965-58.364-20.355-5.613-8.015-11.026-15.487-16.114-22.336 23.89-1.019 49.212-1.681 74.689-1.681 7.14 0 14.505.052 21.893.155h.106c4.093 0 7.44-3.29 7.498-7.396.058-4.142-3.253-7.546-7.395-7.604-7.457-.104-14.893-.157-22.102-.157-29.414 0-58.62.875-85.685 2.164-9.635-12.474-17.371-21.844-22.012-27.337 2.861-3.772 4.561-8.471 4.561-13.559 0-12.399-10.093-22.487-22.5-22.487s-22.5 10.088-22.5 22.487c0 12.4 10.093 22.488 22.5 22.488 1.828 0 3.606-.219 5.309-.633 3.361 3.948 9.06 10.772 16.351 19.988-66.139 3.703-115.522 9.401-116.249 9.486-2.892.337-5.326 2.318-6.246 5.08-.919 2.762-.158 5.807 1.954 7.81.528.501 53.45 50.912 110.664 122.318 1.481 1.849 3.66 2.811 5.858 2.811 1.645 0 3.301-.539 4.685-1.647 3.233-2.59 3.753-7.31 1.164-10.542-14.376-17.942-28.489-34.578-41.591-49.457 10.02-10.572 37.324-35.524 71.78-35.524 1.786 0 3.521.03 5.21.089 13.258 19.239 27.458 41.362 40.993 65.329-4.141 5.537-6.596 12.404-6.596 19.833 0 18.303 14.901 33.194 33.216 33.194s33.216-14.891 33.216-33.194-14.9-33.194-33.216-33.194c-5.37 0-10.446 1.281-14.939 3.551-10.887-19.118-22.163-37.051-33.028-53.282 16.314 3.34 27.64 9.844 39.421 16.609 15.519 8.911 31.566 18.125 58.461 19.323 2.758.123 5.392.182 7.922.182 29.924-.001 44.472-8.244 58.571-16.235 12.903-7.313 25.201-14.284 51.284-14.188-6.383 6.891-13.234 14.422-20.419 22.512-2.751 3.097-2.47 7.837.627 10.588 1.428 1.269 3.207 1.893 4.978 1.893 2.069 0 4.128-.851 5.61-2.52 36.942-41.593 64.886-68.183 65.164-68.446 2.111-2.003 2.873-5.048 1.953-7.811zm-352.106-48.921c-4.136 0-7.5-3.359-7.5-7.488 0-4.128 3.364-7.487 7.5-7.487s7.5 3.359 7.5 7.487c0 4.129-3.364 7.488-7.5 7.488zm-28.134 108.938c-20.807-23.148-38.286-41.124-49.008-51.865 21.138-2.127 61.701-5.823 109.976-8.297 4.837 6.369 10.066 13.422 15.555 21.073-36.882 2.207-64.88 26.931-76.523 39.089zm154.636 42.808c10.044 0 18.216 8.162 18.216 18.194s-8.171 18.194-18.216 18.194-18.216-8.162-18.216-18.194 8.172-18.194 18.216-18.194z"/><path d="m389.635 173.272c-3.17-2.668-7.9-2.261-10.567.908-52.737 62.653-94.08 122.499-123.069 178.123-20.553-39.401-47.582-81.334-80.494-124.858-2.498-3.304-7.201-3.958-10.506-1.459-3.304 2.499-3.957 7.202-1.459 10.506 35.624 47.111 64.201 92.237 84.96 134.157v126.31c-48.944-.51-105.341-5.72-105.934-5.775-4.123-.385-7.779 2.647-8.164 6.771s2.646 7.779 6.771 8.164c.63.06 63.635 5.881 114.827 5.881s114.197-5.821 114.827-5.879c4.125-.385 7.156-4.04 6.771-8.164s-4.038-7.154-8.164-6.771c-.593.055-56.975 5.264-105.935 5.775v-126.312c28.629-57.82 71.364-120.661 127.043-186.809 2.668-3.169 2.261-7.9-.907-10.568z"/><circle cx="169.524" cy="166.133" r="7.5"/><circle cx="321.344" cy="181.263" r="7.5"/><circle cx="237.604" cy="264.513" r="7.5"/></g></g></svg>