<svg id="Layer_1" height="512" viewBox="0 0 512 512" width="512" xmlns="http://www.w3.org/2000/svg" data-name="Layer 1"><path d="m317.323 104.667h50.313v26.878h-50.313z" fill="#fbe08b"/><path d="m403.462 440.612h-337.613v-269.393l337.153.21z" fill="#3e5c72"/><path d="m272.191 248.52v28.8h-75.081v-28.8-.29h75.081z" fill="#6fabc9"/><path d="m217.11 248.23h-20v.29 28.8h20v-28.8z" fill="#7dc6e2"/><path d="m413.462 440.612h-357.613a30 30 0 0 0 -30 30v16.41h417.614v-16.41a30 30 0 0 0 -30.001-30z" fill="#598baa"/><path d="m403.462 54.978v19.01h-337.613v-19.01a30 30 0 0 1 30-30h277.613a30 30 0 0 1 30 30z" fill="#3e5c72"/><path d="m65.849 171.219v269.393h30v-269.374z" fill="#365060"/><path d="m55.849 440.612a30 30 0 0 0 -30 30v16.41h30v-16.41a30 30 0 0 1 30-30z" fill="#486c8b"/><path d="m125.849 24.978h-30a30 30 0 0 0 -30 30v19.01h30v-19.01a30 30 0 0 1 30-30z" fill="#365060"/><path d="m466.533 195.979h-81.261v39.251h81.261a19.626 19.626 0 0 0 0-39.251z" fill="#da9e7b"/><path d="m432.693 95.918v53.381h-28.801-.43v-53.381h.43z" fill="#ea836f"/><path d="m286.871 205.969h98.401v19.28h-98.401z" fill="#7dc6e2"/><path d="m65.849 73.988v97.231h116.591v.21 76.801h104.431v-77.011h116.591v-97.231z" fill="#598baa"/><path d="m182.44 171.219v.21 76.801h30v-76.801-.21z" fill="#6fabc9"/><path d="m65.849 73.988h30v97.231h-30z" fill="#486c8b"/><path d="m234.65 97.328a25.671 25.671 0 1 1 -25.66 25.672 25.667 25.667 0 0 1 25.66-25.672z" fill="#ea836f"/><path d="m105.319 109.608h48.671v26h-48.671z" fill="#a2d4a8"/><path d="m183.76 341.361v68.481a25.562 25.562 0 0 0 25.56 25.56h57.78a25.553 25.553 0 0 0 25.55-25.56v-68.481z" fill="#da9e7b"/><path d="m183.76 312.521h108.891v28.84h-108.891z" fill="#97c9fa"/><g fill="#284268"><path d="m466.528 190h-57.528v-35h23.7c3.314 0 6.305-2.389 6.305-5.7v-53.383a6.2 6.2 0 0 0 -6.305-5.917h-23.7v-35.016a35.639 35.639 0 0 0 -35.543-35.984h-277.609a35.9 35.9 0 0 0 -35.848 35.984v380.016h-4.152a35.848 35.848 0 0 0 -35.848 35.848v16.168a5.984 5.984 0 0 0 5.984 5.984h417.473a5.543 5.543 0 0 0 5.543-5.543v-16.85a35.607 35.607 0 0 0 -35.607-35.607h-4.393v-194h57.528a25.5 25.5 0 1 0 0-51zm-57.528-88h18v41h-18zm-337-47.016a23.884 23.884 0 0 1 23.848-23.984h277.609a23.627 23.627 0 0 1 23.543 23.984v13.016h-325zm0 25.016h325v85h-325zm221 120v-23h104v13h-11.732a6.22 6.22 0 0 0 -6.268 5.982v4.018zm86 12v7h-86v-7zm-191 30v-65h93v65zm78 12v17h-63v-17zm147.457 193a23.543 23.543 0 0 1 23.543 23.543v10.457h-405v-10.393a23.607 23.607 0 0 1 23.607-23.607h42.393a6 6 0 0 0 0-12h-26v-258h104v71.229c0 3.313 3.121 5.771 6.435 5.771h8.565v23.318a5.836 5.836 0 0 0 6.115 5.682h75.075a5.576 5.576 0 0 0 5.81-5.682v-23.318h8.87a5.923 5.923 0 0 0 6.13-5.771v-17.229h86v4.232a6.043 6.043 0 0 0 6.268 5.768h11.732v194h-111.1a30.814 30.814 0 0 0 13.1-25.156v-3.844h-.222a38 38 0 1 0 0-76h.222v-17.477c0-3.314-3.034-5.523-6.347-5.523h-108.888a5.413 5.413 0 0 0 -5.765 5.523v97.321a30.927 30.927 0 0 0 12.726 25.156h-52.726a6 6 0 0 0 0 12zm-126.457-100v62.844c0 10.783-9.12 19.156-19.9 19.156h-57.779a19.04 19.04 0 0 1 -19.321-19.156v-62.844zm-97-12v-16h97v16zm109 59v-51.99a26 26 0 1 1 0 51.99zm167.528-165h-75.528v-27h75.528a13.5 13.5 0 1 1 0 27z"/><path d="m234.652 91.333a31.667 31.667 0 1 0 31.667 31.667 31.7 31.7 0 0 0 -31.667-31.667zm0 51.334a19.667 19.667 0 1 1 19.667-19.667 19.689 19.689 0 0 1 -19.667 19.667z"/><path d="m154 104h-49a6 6 0 0 0 -6 6v26a6 6 0 0 0 6 6h49a6 6 0 0 0 6-6v-26a6 6 0 0 0 -6-6zm-6 26h-37v-14h37z"/><path d="m364 104h-49a6 6 0 0 0 -6 6v26a6 6 0 0 0 6 6h49a6 6 0 0 0 6-6v-26a6 6 0 0 0 -6-6zm-6 26h-37v-14h37z"/><path d="m93 260.41a6 6 0 0 0 -6 6v62.99a6 6 0 0 0 12 0v-62.99a6 6 0 0 0 -6-6z"/><path d="m93 216.673a6 6 0 0 0 -6 6v21.614a6 6 0 1 0 12 0v-21.614a6 6 0 0 0 -6-6z"/><path d="m93 189.48a6 6 0 0 0 -6 6v4.807a6 6 0 1 0 12 0v-4.807a6 6 0 0 0 -6-6z"/></g></svg>