<svg id="Layer_1" height="512" viewBox="0 0 512 512" width="512" xmlns="http://www.w3.org/2000/svg" data-name="Layer 1"><path d="m495.64 135.86v91.47l-39.99 4.12-.01-.12v-99.47l.01-.12z" fill="#767178"/><path d="m440.94 374.43a41.055 41.055 0 1 1 -41.05 41.06 41.056 41.056 0 0 1 41.05-41.06z" fill="#fb6771"/><path d="m455.64 231.33.01.12-28.47 2.93v-105.57l28.47 2.93-.01.12z" fill="#c79a83"/><path d="m422.03 113.47a17.575 17.575 0 0 0 -29.99 11.71c-.02.24-.02.48-.02.72v111.38c0 .24 0 .48.02.72a17.577 17.577 0 0 0 35.14-.72v-111.38a17.553 17.553 0 0 0 -5.15-12.43z" fill="#d4e1f4"/><path d="m395.94 304.43a41.055 41.055 0 1 1 -41.05 41.06 41.056 41.056 0 0 1 41.05-41.06z" fill="#fb6771"/><path d="m392.02 125.9c0-.24 0-.48.02-.72l-251.71-25.92a83.648 83.648 0 0 0 -8.62-.44 81.665 81.665 0 0 0 -20.12 2.5 82.789 82.789 0 0 0 2.35 161.11l165.75-12.86 112.35-11.57c-.02-.24-.02-.48-.02-.72z" fill="#767178"/><path d="m350.94 374.43a41.055 41.055 0 1 1 -41.05 41.06 41.056 41.056 0 0 1 41.05-41.06z" fill="#fb6771"/><path d="m181.3 75.46h5.75a17.489 17.489 0 0 1 17.49 17.49v12.87l-.01.05-64.2-6.61a83.648 83.648 0 0 0 -8.62-.44 81.665 81.665 0 0 0 -20.12 2.5v-8.37a17.5 17.5 0 0 1 17.49-17.49z" fill="#75967a"/><path d="m134.83 55.46h46.47v20h-46.47z" fill="#9ac5a1"/><path d="m46.5 151.09h8.37a83.3 83.3 0 0 0 -.29 60.28h-8.08a30.14 30.14 0 0 1 0-60.28z" fill="#5c585e"/><path d="m429.89 415.49a41.061 41.061 0 0 1 26.053-38.22 41.055 41.055 0 1 0 0 76.431 41.058 41.058 0 0 1 -26.053-38.211z" fill="#ea606e"/><path d="m384.89 345.49a41.061 41.061 0 0 1 26.053-38.22 41.055 41.055 0 1 0 0 76.431 41.058 41.058 0 0 1 -26.053-38.211z" fill="#ea606e"/><path d="m365.943 377.27a41.055 41.055 0 1 0 0 76.431 41.054 41.054 0 0 1 0-76.431z" fill="#ea606e"/><path d="m84.58 211.37a82.8 82.8 0 0 1 57.01-110.05c2.02-.513 4.07-.94 6.142-1.3l-7.4-.762a83.648 83.648 0 0 0 -8.62-.44 81.665 81.665 0 0 0 -20.12 2.5 82.789 82.789 0 0 0 2.35 161.11l23.252-1.8a83.082 83.082 0 0 1 -52.614-49.258z" fill="#989599"/><path d="m279.69 249.57a88.27 88.27 0 1 1 -80.58-52.23 87.845 87.845 0 0 1 80.58 52.23z" fill="#5c585e"/><path d="m199.11 248.62a36.975 36.975 0 1 1 -36.97 36.97 36.974 36.974 0 0 1 36.97-36.97z" fill="#d4e1f4"/><path d="m140.86 285.59a88.2 88.2 0 0 1 73.213-86.971 88.245 88.245 0 1 0 .037 173.946 88.27 88.27 0 0 1 -73.25-86.975z" fill="#49434c"/><g fill="#284268"><path d="m303.887 415.488a47.056 47.056 0 0 0 92.056 13.759 47.057 47.057 0 1 0 45-60.816c-1.363 0-2.709.071-4.043.186a47.057 47.057 0 1 0 -81.913 0c-1.334-.115-2.68-.186-4.044-.186a47.11 47.11 0 0 0 -47.056 47.057zm92.056-13.758a46.727 46.727 0 0 0 -4.044-9.37c1.335.114 2.681.185 4.044.185s2.71-.071 4.044-.185a46.842 46.842 0 0 0 -4.044 9.37zm45-21.3a35.057 35.057 0 1 1 -35.056 35.057 35.1 35.1 0 0 1 35.056-35.056zm-45-70a35.057 35.057 0 1 1 -35.056 35.057 35.1 35.1 0 0 1 35.056-35.056zm-9.943 105.058a35.057 35.057 0 1 1 -35.057-35.057 35.1 35.1 0 0 1 35.057 35.057z"/><path d="m496.255 129.893-63.211-6.511a23.578 23.578 0 0 0 -45.88-4.726l-176.622-18.194v-7.517a23.515 23.515 0 0 0 -23.237-23.484v-14.006a6 6 0 0 0 -6-6h-46.473a6 6 0 0 0 -6 6v14.006a23.515 23.515 0 0 0 -23.232 23.484v3.873a88.557 88.557 0 0 0 -54.64 48.273h-4.46a36.14 36.14 0 0 0 0 72.279h4.128a88.263 88.263 0 0 0 12.452 20.365 89.364 89.364 0 0 0 43.674 29.019 94.254 94.254 0 1 0 181.411-12.023l99-10.2a23.616 23.616 0 0 0 22.435 16.333 23.611 23.611 0 0 0 23.442-21.057l63.211-6.511a6 6 0 0 0 5.385-5.968v-91.467a6 6 0 0 0 -5.383-5.968zm-453.173 51.707a88.794 88.794 0 0 0 3.266 23.771 24.138 24.138 0 0 1 .152-48.275h.049a88.593 88.593 0 0 0 -3.467 24.504zm97.75-120.14h34.473v8h-34.473zm-23.232 31.485a11.5 11.5 0 0 1 11.49-11.49h57.966a11.5 11.5 0 0 1 11.491 11.49v6.281l-57.595-5.933a88.582 88.582 0 0 0 -23.352.695zm81.516 274.9a82.25 82.25 0 1 1 82.244-82.245 82.343 82.343 0 0 1 -82.249 82.245zm186.903-135.257-102.761 10.586a94.241 94.241 0 0 0 -173.358 12 77.315 77.315 0 0 1 -37.531-25.037 75.825 75.825 0 0 1 -17.287-48.544 76.769 76.769 0 0 1 84.635-76.365l246.3 25.372zm35.162 4.7a11.593 11.593 0 0 1 -11.579 11.58 11.593 11.593 0 0 1 -11.58-11.58v-111.383a11.581 11.581 0 0 1 23.162 0zm28.459-11.25-16.459 1.7v-92.279l16.459 1.7zm40-4.12-28 2.884v-86.411l28 2.884z"/><path d="m199.111 242.624a42.971 42.971 0 1 0 42.971 42.976 43.019 43.019 0 0 0 -42.971-42.976zm0 73.941a30.971 30.971 0 1 1 30.971-30.97 31.005 31.005 0 0 1 -30.971 30.97z"/><path d="m98.032 142.795a55.414 55.414 0 0 0 -9.538 14.64 6 6 0 1 0 10.964 4.876 43.438 43.438 0 0 1 7.48-11.472 6 6 0 0 0 -8.906-8.044z"/><path d="m118.645 128.265a6 6 0 1 0 4.529 11.112 43.431 43.431 0 0 1 21.055-2.94l93.765 9.659a5.931 5.931 0 0 0 .622.032 6 6 0 0 0 .607-11.968l-93.764-9.66a55.252 55.252 0 0 0 -26.814 3.765z"/></g></svg>