<svg id="Capa_1" enable-background="new 0 0 511.361 511.361" height="512" viewBox="0 0 511.361 511.361" width="512" xmlns="http://www.w3.org/2000/svg"><g><g><path d="m186.451 161.479c10.375-18.668 10.684-42.612-2.602-62.341l2.92-21.233c.733-5.327-4.899-9.228-9.629-6.669l-13.186 7.134c-2.385 1.29-5.317.982-7.381-.776l-11.277-9.603c-2.065-1.759-5-2.067-7.385-.774l-13.429 7.276c-1.951 1.057-4.304 1.057-6.256 0l-13.429-7.276c-2.385-1.292-5.32-.985-7.385.774l-11.277 9.603c-2.064 1.758-4.997 2.066-7.381.776l-13.184-7.134c-4.73-2.559-10.362 1.342-9.629 6.669l2.92 21.233-.108.162c-13.246 19.669-12.98 43.533-2.691 62.18l11.449 18.004h111.754z" fill="#fbe88c"/><path d="m76.83 121.008c1.022-4.387 2.566-8.725 4.663-12.93 2.583-5.181 3.445-11.052 2.691-16.791l-1.505-11.457c-.034-.244-.04-.48-.047-.718-1.31.151-2.664-.087-3.876-.743l-13.186-7.133c-4.73-2.559-10.361 1.342-9.629 6.669l2.92 21.233-.108.162c-13.246 19.669-12.98 43.533-2.691 62.18l11.449 18.004h8.491 17.023 86.24l7.187-18.004c4.246-7.639 6.803-16.163 7.435-24.918h-104.593c-8.174-.001-14.319-7.593-12.464-15.554z" fill="#fbe372"/><path d="m183.849 99.138 2.92-21.233c.733-5.327-4.899-9.228-9.629-6.669l-9.713 5.255.729 5.302c.387 2.816-.104 5.671-1.339 8.231-11.669 24.197-11.051 52.631 2.23 76.699l.301.544 7.768 12.216h2.147l7.187-18.004c10.376-18.668 10.685-42.612-2.601-62.341z" fill="#fbe372"/><path d="m457.118 163.205c10.375-18.668 10.684-42.612-2.602-62.341l2.92-21.233c.733-5.327-4.899-9.228-9.629-6.669l-13.186 7.134c-2.385 1.29-5.317.982-7.381-.776l-11.277-9.603c-2.065-1.759-5-2.067-7.385-.774l-13.429 7.276c-1.951 1.057-4.304 1.057-6.256 0l-13.429-7.276c-2.385-1.292-5.319-.985-7.385.774l-11.277 9.603c-2.064 1.758-4.997 2.066-7.381.776l-13.186-7.134c-4.73-2.559-10.362 1.342-9.629 6.669l2.92 21.233-.109.162c-13.246 19.669-12.98 43.533-2.691 62.18l11.449 18.004h111.754z" fill="#fbe88c"/><path d="m353.694 121.506c-.554-10.282-3.021-20.461-7.384-30.023-1.654-3.625-2.272-7.637-1.729-11.585l.31-2.254-8.654-4.682c-4.73-2.559-10.361 1.342-9.629 6.669l2.92 21.233-.109.162c-13.246 19.669-12.98 43.533-2.691 62.18l11.095 17.448 3.82-9.568v10.124h108.288l7.187-18.004c4.524-8.141 7.133-17.284 7.536-26.644h-94.864c-8.491-.001-15.639-6.577-16.096-15.056z" fill="#fbe372"/><path d="m325.707 157.061c11.072-19.922 11.402-45.474-2.777-66.528l3.116-22.659c.782-5.685-5.228-9.848-10.276-7.117l-14.07 7.611c-2.545 1.377-5.674 1.048-7.877-.828l-12.034-10.248c-2.204-1.877-5.335-2.205-7.881-.826l-14.331 7.765c-2.082 1.128-4.593 1.128-6.676 0l-14.331-7.765c-2.545-1.379-5.677-1.051-7.881.826l-12.035 10.248c-2.203 1.876-5.332 2.205-7.877.828l-14.071-7.613c-5.047-2.731-11.057 1.432-10.276 7.117l3.116 22.659-.116.172c-14.136 20.99-13.852 46.457-2.872 66.356l12.218 19.213h119.26z" fill="#fcf0b6"/><path d="m332.902 136.561h-109.841c-11.934 0-20.937-10.832-18.763-22.566 1.017-5.488 2.784-10.927 5.354-16.178 2.867-5.857 3.852-12.459 3.005-18.925l-1.348-10.286c-.178-.078-.359-.144-.532-.237l-14.071-7.613c-5.047-2.731-11.057 1.432-10.275 7.117l3.116 22.659-.116.172c-14.136 20.99-13.852 46.457-2.872 66.356l12.218 19.213h9.473 109.787l.247-.618 7.423-18.596c3.539-6.366 5.974-13.311 7.195-20.498z" fill="#fbe88c"/><path d="m476.872 215.239h-444.554v-49.019c0-5.335 4.325-9.66 9.66-9.66h425.235c5.335 0 9.66 4.325 9.66 9.66v49.019z" fill="#f6e2c4"/><path d="m487.928 305.643h-466.666c-8.2 0-14.848-6.647-14.848-14.848v-83.709c0-8.2 6.647-14.848 14.848-14.848h466.667c8.2 0 14.848 6.647 14.848 14.848v83.709c-.001 8.2-6.649 14.848-14.849 14.848z" fill="#fcf1de"/><path d="m82.831 269.965c-16.509 0-29.892-13.383-29.892-29.892v-47.835h-31.677c-8.2 0-14.848 6.647-14.848 14.848v83.709c0 8.2 6.647 14.848 14.848 14.848h466.667c8.2 0 14.848-6.647 14.848-14.848v-20.83z" fill="#f6e2c4"/><path d="m496.967 377.047h-484.744v71.239c0 3.832 3.107 6.939 6.939 6.939h470.868c3.832 0 6.939-3.107 6.939-6.939v-71.239z" fill="#f7d8a4"/><g><path d="m487.928 419.047h-466.666c-8.2 0-14.848-6.647-14.848-14.848v-83.709c0-8.2 6.647-14.848 14.848-14.848h466.667c8.2 0 14.848 6.647 14.848 14.848v83.709c-.001 8.201-6.649 14.848-14.849 14.848z" fill="#fcf1de"/><path d="m80.111 386.77c-16.641 0-30.13-13.49-30.13-30.13v-50.997h-28.719c-8.2 0-14.848 6.647-14.848 14.848v83.709c0 8.2 6.647 14.848 14.848 14.848h466.667c8.2 0 14.848-6.647 14.848-14.848v-17.43z" fill="#f6e2c4"/></g></g><g><path d="m511.361 207.586c0-12.322-10.025-22.347-22.347-22.347h-3.557v-18.519c0-9.462-7.698-17.16-17.159-17.16h-.85c3.988-16.745 1.264-34.417-7.828-49.298l2.471-17.97c.718-5.219-1.526-10.324-5.857-13.324-4.332-3-9.9-3.306-14.534-.8l-12.2 6.601-10.427-8.88c-4.341-3.697-10.626-4.356-15.639-1.639l-12.577 6.814-12.576-6.814c-5.013-2.716-11.298-2.058-15.639 1.639l-11 9.367c-3.153 2.686-3.533 7.419-.847 10.573 2.685 3.153 7.419 3.532 10.573.847l10.427-8.88 12.438 6.739c4.147 2.247 9.101 2.248 13.247 0l12.438-6.739 10.427 8.88c4.339 3.695 10.622 4.355 15.631 1.644l10.959-5.929-2.554 18.568c-.251 1.827.179 3.682 1.209 5.211 8.663 12.863 10.881 28.762 6.288 43.391h-10.365c.062-6.788-.339-13.517-1.209-20.091-.543-4.106-4.316-6.998-8.419-6.451-4.106.543-6.995 4.313-6.451 8.419.784 5.922 1.141 11.993 1.08 18.123h-12.618c.027-6.622-.108-13.143-.41-19.465-.198-4.138-3.719-7.328-7.849-7.133-4.138.198-7.332 3.712-7.133 7.849.291 6.084.419 12.366.393 18.749h-16.188c-.023-6.385.109-12.667.403-18.745.2-4.137-2.992-7.653-7.129-7.853-4.134-.203-7.653 2.992-7.853 7.129-.305 6.319-.443 12.842-.42 19.469h-30.44c7.074-20.109 4.819-42.331-6.533-60.755l2.738-19.911c.749-5.445-1.593-10.772-6.112-13.902-4.519-3.129-10.328-3.449-15.163-.833l-13.773 7.452-11.777-10.029c-4.531-3.857-11.088-4.545-16.316-1.71l-14.097 7.637-14.096-7.637c-5.229-2.834-11.787-2.146-16.317 1.71l-11.777 10.029-13.774-7.452c-4.834-2.616-10.645-2.296-15.163.833-4.519 3.13-6.86 8.457-6.111 13.902l2.737 19.898c-11.409 18.395-13.726 40.636-6.707 60.768h-30.372c.018-6.58-.121-13.109-.428-19.469-.2-4.137-3.705-7.339-7.853-7.129-4.137.2-7.329 3.716-7.129 7.853.296 6.12.429 12.406.411 18.746h-16.204c-.022-6.339.108-12.627.401-18.749.198-4.137-2.996-7.652-7.133-7.85-4.132-.204-7.652 2.996-7.85 7.133-.305 6.36-.44 12.888-.419 19.466h-12.612c-.059-6.121.299-12.192 1.084-18.123.543-4.106-2.345-7.876-6.451-8.419-4.109-.546-7.876 2.344-8.419 6.451-.872 6.583-1.275 13.313-1.214 20.092h-10.36c-4.593-14.629-2.375-30.528 6.288-43.391 1.03-1.529 1.46-3.385 1.209-5.211l-2.553-18.571 10.958 5.928c5.012 2.712 11.293 2.052 15.632-1.643l10.427-8.88 12.438 6.739c4.147 2.247 9.101 2.248 13.247 0l12.438-6.739 10.427 8.88c3.154 2.686 7.887 2.307 10.573-.847s2.306-7.887-.847-10.573l-11-9.367c-4.341-3.697-10.625-4.356-15.639-1.639l-12.577 6.814-12.576-6.814c-5.014-2.716-11.299-2.058-15.639 1.639l-10.427 8.88-12.2-6.6c-4.633-2.507-10.203-2.201-14.533.8-4.331 3-6.575 8.105-5.857 13.324l2.471 17.97c-9.092 14.881-11.816 32.553-7.828 49.298h-1.85c-9.461 0-17.159 7.698-17.159 17.16v18.519h-3.557c-12.322 0-22.347 10.025-22.347 22.347v83.709c0 5.695 2.145 10.897 5.665 14.848-3.52 3.95-5.665 9.152-5.665 14.847v83.709c0 5.774 2.201 11.043 5.808 15.013v29.073c0 7.961 6.478 14.439 14.439 14.439h470.867c7.961 0 14.439-6.478 14.439-14.439v-29.073c3.607-3.97 5.808-9.24 5.808-15.013v-83.709c0-5.695-2.145-10.897-5.664-14.848 3.52-3.951 5.664-9.152 5.664-14.848zm-315.712-112.689.116-.172c1.031-1.53 1.463-3.387 1.211-5.215l-2.984-21.695 13.216 7.15c5.228 2.828 11.782 2.138 16.308-1.715l11.777-10.029 14.035 7.604c4.328 2.344 9.494 2.344 13.82 0l14.034-7.604 11.778 10.029c4.525 3.853 11.079 4.542 16.309 1.715l13.215-7.15-2.984 21.695c-.251 1.827.179 3.682 1.209 5.211 11.042 16.396 12.602 37.043 4.394 54.839h-10.382c.502-9.697.155-19.531-1.08-28.861-.543-4.106-4.311-6.996-8.419-6.451-4.106.543-6.994 4.313-6.451 8.419 1.149 8.682 1.457 17.859.943 26.892h-15.047c.183-9.489.063-19.115-.373-28.235-.198-4.137-3.708-7.342-7.85-7.133-4.137.198-7.331 3.712-7.133 7.85.425 8.884.54 18.27.355 27.518h-18.975c-.18-9.25-.06-18.634.369-27.514.2-4.137-2.992-7.653-7.129-7.854-4.142-.202-7.654 2.992-7.854 7.129-.441 9.119-.566 18.745-.387 28.239h-15.056c-.5-9.034-.179-18.207.982-26.881.55-4.105-2.333-7.879-6.438-8.429-4.104-.552-7.879 2.333-8.429 6.438-1.249 9.328-1.61 19.167-1.121 28.872h-10.451c-8.113-17.755-6.524-38.334 4.472-54.662zm-180.649 112.689c0-4.051 3.296-7.347 7.347-7.347h84.87v98.404h-84.87c-4.051 0-7.347-3.296-7.347-7.348zm7.347 204.461c-4.051 0-7.347-3.296-7.347-7.348v-83.709c0-4.051 3.296-7.348 7.347-7.348h84.87v98.404h-84.87zm-1.539 36.177v-21.237c.509.035 1.021.059 1.539.059h166.32c4.142 0 7.5-3.358 7.5-7.5s-3.358-7.5-7.5-7.5h-66.45v-98.404h285.575c4.142 0 7.5-3.358 7.5-7.5s-3.358-7.5-7.5-7.5h-285.575v-98.404h32.138c4.142 0 7.5-3.358 7.5-7.5s-3.358-7.5-7.5-7.5h-113.451v-18.518c0-1.191.969-2.16 2.159-2.16h425.235c1.19 0 2.159.969 2.159 2.16v18.519h-284.113c-4.142 0-7.5 3.358-7.5 7.5s3.358 7.5 7.5 7.5h302.67c4.051 0 7.347 3.296 7.347 7.347v83.709c0 4.051-3.296 7.348-7.347 7.348h-49.233c-4.142 0-7.5 3.358-7.5 7.5s3.358 7.5 7.5 7.5h49.233c4.051 0 7.347 3.296 7.347 7.348v83.709c0 4.051-3.296 7.348-7.347 7.348h-268.359c-4.142 0-7.5 3.358-7.5 7.5s3.358 7.5 7.5 7.5h268.359c.518 0 1.03-.024 1.539-.059v21.237h-469.745z"/><path d="m74.579 237.684h6.707c4.142 0 7.5-3.358 7.5-7.5s-3.358-7.5-7.5-7.5h-6.707c-4.142 0-7.5 3.358-7.5 7.5s3.358 7.5 7.5 7.5z"/><path d="m74.579 275.663h6.707c4.142 0 7.5-3.358 7.5-7.5s-3.358-7.5-7.5-7.5h-6.707c-4.142 0-7.5 3.358-7.5 7.5s3.358 7.5 7.5 7.5z"/><path d="m81.286 374.601h-6.707c-4.142 0-7.5 3.358-7.5 7.5s3.358 7.5 7.5 7.5h6.707c4.142 0 7.5-3.358 7.5-7.5s-3.358-7.5-7.5-7.5z"/><path d="m74.579 351.622h6.707c4.142 0 7.5-3.358 7.5-7.5s-3.358-7.5-7.5-7.5h-6.707c-4.142 0-7.5 3.358-7.5 7.5s3.358 7.5 7.5 7.5z"/></g></g></svg>