<svg id="Layer_1" height="512" viewBox="0 0 512 512" width="512" xmlns="http://www.w3.org/2000/svg" data-name="Layer 1"><path d="m138.962 131.619h234.076v41.113h-234.076z" fill="#3e5c72"/><path d="m483 287.063v30.835h-126.87-1.007v-30.835h1.007z" fill="#ea836f"/><path d="m29 286.063h126.87v30.835h-126.87z" fill="#ea836f"/><path d="m276.557 173.185v289.997h-41.114v-289.997-.453h41.114z" fill="#598baa"/><path d="m137.962 131.619h35.041v41.113h-35.041z" fill="#50768e"/><g fill="#284268"><path d="m29 470.143a6 6 0 0 0 6-6v-142.143h115v142.143a6 6 0 1 0 12 0v-212.043a26.4 26.4 0 0 0 -26.326-26.1h-100.674v-178.143a6 6 0 0 0 -12 0v416.286a6 6 0 0 0 6 6zm6-178.143h12a6 6 0 0 0 0-12h-12v-42h100.674a14.386 14.386 0 0 1 14.326 14.1v27.9h-63a6 6 0 0 0 0 12h63v18h-115z"/><path d="m350 252.1v212.043a6 6 0 1 0 12 0v-142.143h115v142.143a6 6 0 1 0 12 0v-416.286a6 6 0 1 0 -12 0v178.143h-100.673a26.4 26.4 0 0 0 -26.327 26.1zm127 57.9h-115v-18h115zm0-30h-115v-27.9a14.386 14.386 0 0 1 14.327-14.1h100.673z"/><path d="m138.245 179h91.755v285.143a5.879 5.879 0 0 0 6 5.857h40a5.879 5.879 0 0 0 6-5.857v-285.143h91.755a6.39 6.39 0 0 0 6.245-6.2v-40a6.044 6.044 0 0 0 -6.245-5.8h-235.51a6.044 6.044 0 0 0 -6.245 5.8v40a6.39 6.39 0 0 0 6.245 6.2zm131.755 279h-28v-279h28zm-126-319h224v28h-224z"/><path d="m205 334.4a6 6 0 1 0 12 0v-62.99a6 6 0 0 0 -12 0z"/><path d="m205 249.287a6 6 0 1 0 12 0v-21.614a6 6 0 0 0 -12 0z"/><path d="m211 211.287a6 6 0 0 0 6-6v-4.807a6 6 0 0 0 -12 0v4.807a6 6 0 0 0 6 6z"/></g></svg>