<svg id="Layer_1" enable-background="new 0 0 512 512" height="512" viewBox="0 0 512 512" width="512" xmlns="http://www.w3.org/2000/svg"><g><g><path d="m364.904 7.5c-169.043 14.312-300.993 64.075-300.993 64.075l300.993-5.67c4.566-34.501 0-58.405 0-58.405z" fill="#b2527e"/><path d="m455.999 283.68c0 106.03-7.91 212.08-7.91 212.08s-12.05 1.09-31.9 2.51c-36.16 2.59-98.18 6.23-160.19 6.23-96.04 0-192.09-8.74-192.09-8.74s-7.91-106.05-7.91-212.08c0-106.05 7.91-212.1 7.91-212.1s96.05-8.74 192.09-8.74c62.01 0 124.03 3.64 160.19 6.23 19.85 1.42 31.9 2.51 31.9 2.51s7.91 106.05 7.91 212.1z" fill="#ff5f85"/><path d="m448.089 71.58s7.91 106.05 7.91 212.1c0 106.03-7.91 212.08-7.91 212.08s-12.05 1.09-31.9 2.51c1.64-23.69 7.81-119.14 7.81-214.59 0-95.46-6.17-190.92-7.81-214.61 19.85 1.42 31.9 2.51 31.9 2.51z" fill="#b2527e"/><g><g><path d="m280.853 385.227s-7.82 1.138-18.07 1.537c-2.17.08-4.44.13-6.78.13-13.38 0-24.85-1.667-24.85-1.667.57-17.764 4.59-36.377 4.59-36.377h40.52s4.02 18.612 4.59 36.377z" fill="#e2a67d"/><path d="m280.853 385.227s-7.82 1.138-18.07 1.537c-.66-14.531-2.14-28.064-3.44-37.914h16.92s4.02 18.612 4.59 36.377z" fill="#d18766"/></g><path d="m365.913 345.437s-11.36.808-29.69 1.657c-20.21.938-48.91 1.916-80.22 1.916-59.72 0-109.91-3.573-109.91-3.573 28.76-44.72 63.71-83.302 63.71-83.302-17.73.689-35.98 7.465-36.55 7.675 28.74-44.341 59.99-79.6 59.99-79.6-16.09 1.068-27.44 4.521-27.44 4.521 17.31-29.052 37.43-53.223 45.99-63.043 2.67-3.054 4.21-4.72 4.21-4.72s27.51 29.69 50.2 67.764c0 0-11.35-3.453-27.44-4.521 0 0 31.25 35.259 59.99 79.6-.57-.21-18.82-6.986-36.55-7.675 0-.002 34.95 38.581 63.71 83.301z" fill="#77e0ab"/><path d="m302.203 262.134s34.95 38.582 63.71 83.302c0 0-11.36.808-29.69 1.657-25.05-41.996-68.9-99.161-68.9-99.161 16.4.309 29.07 1.996 29.07 1.996-27.76-45.528-46.72-71.626-46.72-71.626 12.98-.848 24.33.519 24.33.519s-11.79-29.96-22.21-47.135c2.67-3.054 4.21-4.72 4.21-4.72s27.51 29.69 50.2 67.764c0 0-11.35-3.453-27.44-4.521 0 0 31.25 35.259 59.99 79.6-.57-.21-18.82-6.986-36.55-7.675z" fill="#65c1b0"/></g></g><g><path d="m455.567 71.017c-.273-3.656-3.149-6.579-6.8-6.911-.544-.049-31.505-2.833-75.499-5.25 3.061-30.928-.817-51.818-.997-52.763-.721-3.771-4.165-6.387-8-6.066-14.255 1.207-28.832 2.718-43.326 4.493-4.111.503-7.036 4.244-6.533 8.355s4.252 7.042 8.355 6.533c11.91-1.458 23.875-2.736 35.665-3.811.863 8.192 1.778 23.354-.164 42.476-30.897-1.522-66.67-2.733-102.268-2.733-46.853 0-94.008 2.099-129.952 4.242 38.307-10.991 92.698-24.562 155.964-34.481 4.092-.642 6.889-4.479 6.248-8.571-.642-4.093-4.484-6.89-8.571-6.248-124.043 19.448-214.57 52.839-218.31 54.233-2.733.98-4.722 3.492-4.946 6.502-.016.208-1.575 21.216-3.287 53.268-.221 4.136 2.953 7.668 7.089 7.889 4.125.211 7.668-2.953 7.889-7.089 1.151-21.561 2.232-38.083 2.816-46.584 22.959-1.906 104.481-8.161 185.06-8.161s162.099 6.255 185.058 8.161c1.672 24.446 7.442 115.331 7.442 205.174 0 89.835-5.771 180.72-7.443 205.166-11.391.949-37.188 2.972-69.935 4.753-4.137.225-7.307 3.76-7.082 7.896.218 3.997 3.527 7.092 7.482 7.092.138 0 .275-.003.414-.011 44.633-2.428 76.514-5.309 76.831-5.338 3.65-.332 6.526-3.255 6.8-6.911.079-1.063 7.933-107.544 7.933-212.648 0-105.113-7.853-211.594-7.933-212.657z"/><path d="m329.807 495.508c-26.121.99-50.953 1.492-73.807 1.492-80.579 0-162.099-6.255-185.058-8.161-1.672-24.446-7.442-115.329-7.442-205.164 0-36.979.959-77.977 2.851-121.854.178-4.139-3.032-7.638-7.17-7.816-4.148-.16-7.638 3.033-7.816 7.17-1.901 44.092-2.865 85.307-2.865 122.501 0 105.104 7.853 211.584 7.933 212.648.272 3.656 3.148 6.579 6.8 6.911.963.086 97.489 8.765 192.767 8.765 23.042 0 48.066-.505 74.375-1.502 4.139-.157 7.367-3.64 7.21-7.779-.156-4.139-3.623-7.377-7.778-7.211z"/><path d="m171.476 308.989c-3.339-2.45-8.033-1.729-10.483 1.612-7.744 10.559-14.882 20.916-21.217 30.783-1.43 2.228-1.58 5.044-.394 7.411s3.531 3.934 6.171 4.122c.419.03 35.384 2.494 81.177 3.33-1.227 7.318-2.733 18.148-3.076 28.817-.123 3.814 2.638 7.112 6.414 7.663.49.072 12.166 1.75 25.932 1.75s25.442-1.679 25.932-1.75c3.776-.55 6.537-3.849 6.414-7.663-.343-10.669-1.849-21.499-3.076-28.817 45.792-.836 80.758-3.3 81.177-3.33 2.641-.188 4.986-1.755 6.172-4.122s1.035-5.183-.395-7.411c-17.894-27.873-38.328-53.59-51.306-69.144 8.69 2.028 15.097 4.411 15.199 4.45 3.031 1.142 6.453.211 8.486-2.31 2.032-2.521 2.218-6.063.458-8.782-17.547-27.117-36.183-51.073-48.101-65.692 4.406.904 7.013 1.679 7.061 1.694 2.964.902 6.176-.112 8.086-2.55 1.909-2.438 2.125-5.799.541-8.461-22.837-38.377-49.997-67.915-51.142-69.153-1.419-1.536-3.416-2.409-5.507-2.409s-4.088.873-5.507 2.409c-1.145 1.238-28.305 30.776-51.142 69.153-1.583 2.662-1.369 6.023.542 8.461 1.91 2.438 5.122 3.451 8.085 2.55.052-.016 2.648-.795 7.067-1.702-11.917 14.618-30.556 38.577-48.106 65.7-1.758 2.718-1.573 6.256.458 8.778 2.032 2.522 5.453 3.456 8.482 2.316.105-.04 6.501-2.419 15.18-4.446-2.42 2.899-5.103 6.157-7.991 9.728-2.604 3.221-2.104 7.944 1.117 10.548s7.943 2.105 10.548-1.117c11.949-14.78 20.542-24.309 20.628-24.403 2.023-2.239 2.507-5.472 1.229-8.206s-4.078-4.443-7.085-4.317c-6.46.251-12.932 1.241-18.693 2.451 24.495-35.319 47.778-61.76 48.046-62.063 2.014-2.278 2.453-5.547 1.112-8.275-1.341-2.729-4.2-4.375-7.23-4.176-4.081.272-7.872.69-11.279 1.168 13.47-20.403 27.172-37.124 34.541-45.712 7.368 8.588 21.07 25.309 34.541 45.712-3.407-.478-7.199-.896-11.279-1.168-3.04-.206-5.889 1.447-7.23 4.176s-.901 5.998 1.112 8.275c.268.303 23.551 26.744 48.046 62.063-5.761-1.21-12.232-2.2-18.693-2.451-2.995-.121-5.806 1.584-7.085 4.317-1.278 2.733-.793 5.967 1.229 8.206.317.351 29.395 32.652 55.874 71.747-18.648 1.051-55.474 2.773-96.503 2.773h-.013c-41.033 0-77.865-1.722-96.515-2.773 4.261-6.293 8.812-12.743 13.604-19.276 2.449-3.34 1.727-8.034-1.613-10.484zm70.446 47.468c4.623.042 9.322.065 14.078.065s9.455-.023 14.078-.065c.94 5.328 2.22 13.577 2.89 22.195-4.383.408-10.462.827-16.968.827-6.505 0-12.585-.418-16.968-.827.67-8.618 1.95-16.867 2.89-22.195z"/><path d="m336.076 420.078c-.372.04-37.7 4-80.077 4-42.376 0-79.704-3.96-80.076-4-4.116-.438-7.816 2.537-8.259 6.655s2.536 7.816 6.654 8.259c.38.041 38.465 4.086 81.681 4.086s81.301-4.046 81.681-4.086c4.118-.443 7.097-4.141 6.654-8.259-.442-4.118-4.144-7.096-8.258-6.655z"/><circle cx="243.082" cy="232.37" r="7.5"/><circle cx="223.742" cy="308.113" r="7.5"/><circle cx="283.342" cy="291.216" r="7.5"/></g></g></svg>