<svg id="Capa_1" enable-background="new 0 0 513.087 513.087" height="512" viewBox="0 0 513.087 513.087" width="512" xmlns="http://www.w3.org/2000/svg"><g><g><circle cx="324.776" cy="311.885" fill="#f9de58" r="24.207"/><circle cx="181.107" cy="314.868" fill="#f9de58" r="21.224"/><path d="m62.592 364.924 8.921 15.119c6.627 11.23 18.695 18.122 31.735 18.122h305.591c13.04 0 25.108-6.892 31.735-18.122l8.921-15.119 13.802-24.201h-411.554z" fill="#e4e1e5"/><g><g id="XMLID_195_"><g><path d="m467.588 205.49c53.767 32.285 30.208 112.783-33.014 112.783h-80.561c-63.222 0-86.781-80.498-33.014-112.783l51.232-30.768-2.852-31.613-1.496-4.695c-1.188-3.723 2.385-7.229 6.238-6.103l16.544 4.822c2.067.599 4.265.608 6.332.027l17.545-4.958c3.834-1.081 7.37 2.416 6.191 6.121l-1.524 4.786-2.852 31.613z" fill="#fbe88c"/></g></g><g id="XMLID_196_"><g><path d="m193.155 205.49c53.767 32.285 30.208 112.783-33.014 112.783h-80.561c-63.222 0-86.781-80.498-33.014-112.783l51.232-30.768-2.852-31.613-1.496-4.695c-1.188-3.723 2.385-7.229 6.238-6.103l16.544 4.822c2.067.599 4.265.608 6.332.027l17.545-4.958c3.834-1.081 7.37 2.416 6.191 6.121l-1.524 4.786-2.852 31.613z" fill="#fbe88c"/></g></g><path d="m78.281 203.663 39.261-24.671c8.753-5.501 13.697-15.433 12.809-25.732l-1.533-17.778-.025-.081-6.23 1.761c-2.067.581-4.265.572-6.332-.027l-16.544-4.822c-3.853-1.126-7.426 2.379-6.238 6.103l1.496 4.695 2.852 31.613-51.231 30.766c-53.767 32.285-30.208 112.783 33.014 112.783h.153c-39.455-23.042-46.885-86.065-1.452-114.61z" fill="#fbe372"/><g id="XMLID_194_"><g><path d="m193.155 205.49-34.226-20.555c-12.968 10.215-22.521 23.417-27.873 38.682-5.953 16.976-6.43 35.341-1.38 53.109 4.632 16.299 13.494 30.568 25.725 41.547h4.74c63.223 0 86.781-80.498 33.014-112.783z" fill="#f9de58"/><path d="m383.411 276.727c5.05-17.769 4.573-36.133-1.38-53.109-5.289-15.084-14.672-28.159-27.405-38.323l-33.627 20.195c-53.767 32.285-30.208 112.783 33.014 112.783h3.673c12.231-10.978 21.093-25.248 25.725-41.546z" fill="#fbe372"/><path d="m334.913 195.834c57.49 35.55 32.3 124.19-35.3 124.19h-86.14c-67.6 0-92.79-88.64-35.3-124.19l54.78-33.88-3.05-34.81-1.6-5.17c-1.27-4.1 2.55-7.96 6.67-6.72l17.69 5.31c2.21.66 4.56.67 6.77.03l18.76-5.46c4.1-1.19 7.88 2.66 6.62 6.74l-1.63 5.27-3.05 34.81z" fill="#fbe88c"/><g><path d="m211.844 202.785 40.839-27.952c8.624-5.902 13.433-15.966 12.608-26.384 0 0-3.482-28.162-3.519-28.536l-2.338.68c-2.21.64-4.56.63-6.77-.03l-17.69-5.31c-4.12-1.24-7.94 2.62-6.67 6.72l1.6 5.17 3.05 34.81-54.78 33.88c-53.32 32.971-35.495 111.615 21.298 122.85-27.573-31.173-28.171-88.152 12.372-115.898z" fill="#fbe372"/></g></g></g><path d="m498.646 315.864h-484.205c-3.833 0-6.941 3.108-6.941 6.941v11.563c0 16.876 13.68 30.556 30.556 30.556h436.975c16.876 0 30.556-13.68 30.556-30.556v-11.563c0-3.834-3.108-6.941-6.941-6.941z" fill="#f8f7f8"/><path d="m70.068 344.554c-16.249 0-29.529-12.684-30.494-28.69h-25.133c-3.833 0-6.941 3.108-6.941 6.941v11.563c0 16.876 13.681 30.556 30.556 30.556h436.975c13.303 0 24.624-8.51 28.82-20.377z" fill="#efedee"/></g></g><g><path d="m182.127 260.532c.637.167 1.274.246 1.903.246 3.329 0 6.369-2.233 7.251-5.604 3.833-14.656 12.578-27.788 24.623-36.977l9.284-7.083c3.293-2.513 3.926-7.219 1.414-10.512-2.513-3.293-7.219-3.925-10.512-1.414l-9.284 7.083c-14.693 11.208-25.36 27.228-30.036 45.106-1.049 4.009 1.35 8.108 5.357 9.155z"/><path d="m297.184 218.198c12.044 9.188 20.789 22.32 24.622 36.977.882 3.371 3.922 5.604 7.251 5.604.628 0 1.267-.08 1.902-.246 4.008-1.048 6.406-5.146 5.358-9.154-4.676-17.879-15.343-33.898-30.036-45.106-3.294-2.514-8-1.878-10.512 1.414s-1.878 7.999 1.415 10.511z"/><path d="m220.768 253.277c0 4.142 3.358 7.5 7.5 7.5s7.5-3.358 7.5-7.5v-.424c0-8.94 2.747-17.51 7.942-24.785 2.408-3.371 1.627-8.055-1.744-10.462-3.37-2.408-8.054-1.627-10.462 1.744-7.024 9.833-10.736 21.418-10.736 33.503z"/><path d="m277.32 252.853v.424c0 4.142 3.357 7.5 7.5 7.5s7.5-3.358 7.5-7.5v-.424c0-12.084-3.713-23.669-10.737-33.503-2.407-3.369-7.09-4.153-10.462-1.744-3.37 2.408-4.151 7.092-1.743 10.462 5.195 7.275 7.942 15.846 7.942 24.785z"/><path d="m439.824 216.31c-3.294-2.514-8.001-1.879-10.512 1.414-2.513 3.293-1.879 8 1.414 10.512 10.799 8.239 18.64 20.013 22.076 33.154.882 3.372 3.922 5.604 7.251 5.604.628 0 1.267-.08 1.902-.246 4.008-1.048 6.406-5.146 5.358-9.153-4.278-16.364-14.041-31.026-27.489-41.285z"/><path d="m419.936 266.993c4.143 0 7.5-3.358 7.5-7.5v-.384c0-11.106-3.412-21.752-9.867-30.789-2.408-3.372-7.093-4.151-10.462-1.744-3.37 2.408-4.151 7.092-1.743 10.462 4.627 6.478 7.072 14.109 7.072 22.07v.384c0 4.143 3.357 7.501 7.5 7.501z"/><path d="m73.264 216.31c-13.448 10.259-23.211 24.921-27.491 41.285-1.048 4.007 1.351 8.105 5.358 9.154.637.167 1.274.246 1.903.246 3.329 0 6.369-2.233 7.251-5.604 3.438-13.142 11.278-24.916 22.077-33.155 3.293-2.512 3.926-7.219 1.414-10.512-2.514-3.293-7.219-3.925-10.512-1.414z"/><path d="m105.98 226.576c-3.37-2.407-8.054-1.627-10.462 1.744-6.455 9.037-9.867 19.683-9.867 30.789v.384c0 4.142 3.358 7.5 7.5 7.5s7.5-3.358 7.5-7.5v-.384c0-7.961 2.446-15.593 7.073-22.07 2.407-3.371 1.627-8.055-1.744-10.463z"/><path d="m498.646 312.524h-22.016c7.577-6.196 13.838-14.157 18.324-23.617 11.442-24.132 8.304-52.608-7.994-72.545-2.622-3.207-7.347-3.681-10.554-1.06s-3.682 7.347-1.06 10.554c12.65 15.474 15.026 37.701 6.054 56.625-8.919 18.812-26.879 30.043-48.043 30.043h-88.216c12.337-9.427 21.607-22.886 26.248-39.216 7.904-27.809.028-55.605-20.145-74.423l23.79-14.71h13.298v17.238c0 4.142 3.357 7.5 7.5 7.5s7.5-3.358 7.5-7.5v-13.934l7.479 26.269c.938 3.298 3.942 5.448 7.209 5.448.68 0 1.371-.093 2.058-.289 3.984-1.134 6.294-5.283 5.159-9.267l-6.303-22.137 31.588 19.532c1.229.76 2.591 1.122 3.938 1.122 2.513 0 4.967-1.262 6.386-3.557 2.179-3.523 1.089-8.145-2.435-10.323l-24.48-15.137c.269-.773.423-1.6.423-2.465 0-4.142-3.357-7.5-7.5-7.5h-2.985l1.982-22.612 1.243-4.017c1.349-4.353.201-9.075-2.992-12.325-3.195-3.25-7.896-4.477-12.271-3.205l-17.013 4.948c-.615.18-1.27.177-1.889-.009l-16.044-4.818c-4.384-1.317-9.113-.115-12.337 3.137s-4.385 7.989-3.03 12.361l1.216 3.928 1.982 22.612h-2.985c-4.143 0-7.5 3.358-7.5 7.5 0 .865.154 1.692.423 2.465l-16.234 10.038-39.118-24.188c.412-.929.646-1.955.646-3.036 0-4.142-3.357-7.5-7.5-7.5h-4.131l2.265-25.854 1.396-4.507c1.403-4.528.211-9.441-3.112-12.822-3.323-3.382-8.213-4.658-12.769-3.336l-18.758 5.456c-.826.24-1.697.236-2.521-.011l-17.691-5.313c-4.565-1.37-9.481-.121-12.834 3.263-3.354 3.383-4.562 8.312-3.154 12.862l1.365 4.409 2.265 25.854h-4.132c-4.142 0-7.5 3.358-7.5 7.5 0 1.082.234 2.108.646 3.037l-39.118 24.188-16.235-10.039c.269-.773.423-1.6.423-2.465 0-4.142-3.358-7.5-7.5-7.5h-2.985l1.981-22.612 1.216-3.927c1.354-4.374.193-9.111-3.031-12.362-3.223-3.252-7.95-4.455-12.337-3.137l-16.044 4.819c-.616.185-1.27.188-1.889.008l-17.012-4.948c-4.374-1.272-9.077-.044-12.271 3.206s-4.341 7.972-2.993 12.324l1.244 4.018 1.981 22.612h-2.984c-4.142 0-7.5 3.358-7.5 7.5 0 .865.154 1.692.423 2.465l-35.378 21.876c-26.682 16.499-38.381 46.658-29.806 76.834 4.05 14.25 11.947 26.115 22.455 34.674h-21.982c-7.963-.002-14.441 6.477-14.441 14.44v7.402c0 20.984 17.072 38.056 38.056 38.056h20.253l6.745 11.43c7.938 13.454 22.573 21.811 38.194 21.811h305.59c15.62 0 30.256-8.357 38.194-21.811l6.745-11.43h21.254c20.984 0 38.057-17.072 38.057-38.056v-7.402c-.001-7.963-6.479-14.442-14.442-14.442zm-121.038-168.068c-.046-.519-.146-1.031-.297-1.529l11.306 3.395c3.395 1.02 6.988 1.035 10.393.045l12.31-3.58-.033.105c-.157.509-.26 1.033-.307 1.563l-2.167 24.72h-29.038zm-140.231-17.963c-.046-.531-.149-1.055-.307-1.563l-.416-1.343 13.849 4.159c3.603 1.083 7.414 1.1 11.025.049l14.947-4.348-.46 1.483c-.157.509-.26 1.033-.307 1.563l-2.45 27.961h-33.433zm-135.27 17.963c-.046-.531-.149-1.055-.307-1.563l-.033-.105 12.308 3.58c3.405.991 7 .975 10.395-.045l11.304-3.395c-.151.498-.25 1.01-.296 1.529l-2.166 24.72h-29.039zm-73.707 129.294c-5.083-17.887-2.041-44.328 23.266-59.976l42.486-26.27-6.303 22.137c-1.134 3.984 1.176 8.133 5.16 9.267.687.195 1.377.289 2.058.289 3.266 0 6.271-2.151 7.209-5.448l7.479-26.269v13.934c0 4.142 3.358 7.5 7.5 7.5s7.5-3.358 7.5-7.5v-17.238h13.298l23.8 14.716c-12.065 11.245-19.841 25.805-22.287 42.196-.611 4.097 2.214 7.914 6.311 8.525 4.096.609 7.914-2.214 8.525-6.311 2.365-15.847 11.069-29.587 24.635-39.059.077-.053.152-.11.228-.166.929-.642 1.879-1.266 2.853-1.868l52.97-32.753h15.654v19.778c0 4.142 3.358 7.5 7.5 7.5 4.143 0 7.5-3.358 7.5-7.5v-19.778h.315l9.444 33.169c.938 3.298 3.942 5.448 7.209 5.448.68 0 1.371-.093 2.058-.289 3.983-1.134 6.294-5.283 5.159-9.267l-7.494-26.322 48.539 30.013c.988.611 1.939 1.24 2.867 1.88.08.059.16.117.242.173 25.395 17.668 28.344 45.725 22.882 64.947-5.679 19.982-24.104 43.316-57.343 43.316h-86.149c-31.666 0-49.946-20.972-56.495-40.599-1.311-3.929-5.558-6.053-9.488-4.74-3.929 1.311-6.051 5.559-4.74 9.488 4.823 14.457 13.558 26.851 25.26 35.851h-88.3c-29.739-.01-46.226-20.892-51.308-38.774zm469.687 60.618c0 12.713-10.343 23.056-23.057 23.056h-120.731c-4.143 0-7.5 3.358-7.5 7.5s3.357 7.5 7.5 7.5h82.062l-2.246 3.807c-5.254 8.903-14.939 14.434-25.276 14.434h-305.59c-10.337 0-20.022-5.531-25.275-14.434l-2.246-3.807h246.582c4.143 0 7.5-3.358 7.5-7.5s-3.357-7.5-7.5-7.5h-284.254c-12.713 0-23.056-10.343-23.056-23.056v-6.844h483.087z"/></g></g></svg>