<svg id="Layer_1" height="512" viewBox="0 0 512 512" width="512" xmlns="http://www.w3.org/2000/svg" data-name="Layer 1"><path d="m349.82 53.02a143.833 143.833 0 0 0 -245.55 101.7v226.46l287.43 1.38.25-.27v-227.57a143.366 143.366 0 0 0 -42.13-101.7z" fill="#75967a"/><path d="m76.27 381.18h319.63v49.07h-319.63z" fill="#767178"/><path d="m56.42 430.25v70.87l339.58-1.1v-69.77z" fill="#5c585e"/><path d="m291.37 129.78v24.42h-31.05v67.41h-24.42v-67.41h-31.05v-24.42h31.05v-35.73h24.42v35.73z" fill="#f3e08d"/><path d="m453.87 430c17.4-18.43 41.71-20.25 41.71-20.25-6.34 5.9-16.19 14.24-21.76 22.67-18.59 28.11-12.26 63.44-10.84 68.23v.47h-24.52v-.47a116.206 116.206 0 0 1 -1.81-18.81c-.67-24.82 7.11-41.14 17.22-51.84z" fill="#49c160"/><path d="m436.84 405.52c19.01-26.7 45.2-36.26 45.84-36.48-18.78 26.46-24.16 41.47-28.81 60.96-10.11 10.7-17.89 27.02-17.22 51.84a116.206 116.206 0 0 0 1.81 18.81v.47h-6.8v-.75a14.692 14.692 0 0 0 -13.54-14.65l-.57-9.38c-.82-18.1 1.83-33.41 6.47-46.29a101.2 101.2 0 0 1 12.82-24.53z" fill="#d8ff33"/><path d="m428.99 332.75c5.86 20.31 8.63 67.33 7.85 72.77a101.2 101.2 0 0 0 -12.82 24.53 102.963 102.963 0 0 0 -12.06-24.69c-4.16-28.83 8.19-59.13 17.03-72.61z" fill="#81c83d"/><path d="m418.12 485.72a14.692 14.692 0 0 1 13.54 14.65v.75h-79.14v-1.1c-3.84-8.24 4.4-20.33 16.05-12.9.12.08.29 0 .44.02a23.4 23.4 0 0 1 17.22-18.19 23.727 23.727 0 0 1 5.76-.71 23.482 23.482 0 0 1 22.69 17.6 15.692 15.692 0 0 1 2.28-.17c.39 0 .78.02 1.16.05z" fill="#c79a83"/><path d="m411.96 405.36a102.963 102.963 0 0 1 12.06 24.69c-4.64 12.88-7.29 28.19-6.47 46.29l.57 9.38c-.38-.03-.77-.05-1.16-.05a15.692 15.692 0 0 0 -2.28.17 23.2 23.2 0 0 0 -2.25-5.6l.34-10.15c-.81-23.09-9.43-37.8-20.11-47.19-3.57-14.96-7.59-25.6-17.76-41.72-3.08-4.87-6.73-10.25-11.09-16.39 0 0 13.27 5.2 27.89 17.77a111.328 111.328 0 0 1 20.26 22.8z" fill="#c6e02d"/><path d="m392.66 422.9c10.68 9.39 19.3 24.1 20.11 47.19l-.34 10.15a23.4 23.4 0 0 0 -20.44-12 23.727 23.727 0 0 0 -5.76.71c-2.43-13.9-9.44-29.52-15.24-38.7-.26-.42-.52-.81-.77-1.2-5.57-8.43-15.41-16.77-21.75-22.67.43 0 25.48.07 44.19 16.52z" fill="#81c83d"/><path d="m248.11 10.88a143.847 143.847 0 0 0 -143.84 143.84v226.46h30v-226.46a143.867 143.867 0 0 1 128.839-143.064 145.462 145.462 0 0 0 -14.999-.776z" fill="#97ba9b"/><path d="m76.27 381.18h30v49.07h-30z" fill="#979299"/><path d="m56.42 430.25v70.87l30-.097v-70.773z" fill="#817c84"/><g fill="#284268"><path d="m204.849 160.2h25.051v61.413a6 6 0 0 0 6 6h24.415a6 6 0 0 0 6-6v-61.413h25.053a6 6 0 0 0 6-6v-24.418a6 6 0 0 0 -6-6h-25.052v-29.727a6 6 0 0 0 -6-6h-24.416a6 6 0 0 0 -6 6v29.727h-25.051a6 6 0 0 0 -6 6v24.418a6 6 0 0 0 6 6zm6-24.416h25.051a6 6 0 0 0 6-6v-29.729h12.415v29.727a6 6 0 0 0 6 6h25.053v12.418h-25.052a6 6 0 0 0 -6 6v61.413h-12.416v-61.413a6 6 0 0 0 -6-6h-25.051z"/><path d="m230.683 450.969a6 6 0 0 0 -6 6v16.265a6 6 0 0 0 12 0v-16.265a6 6 0 0 0 -6-6z"/><path d="m195.829 450.969a6 6 0 0 0 -6 6v16.265a6 6 0 0 0 12 0v-16.265a6 6 0 0 0 -6-6z"/><path d="m160.977 450.969a6 6 0 0 0 -6 6v16.265a6 6 0 0 0 12 0v-16.265a6 6 0 0 0 -6-6z"/><path d="m126.123 450.969a6 6 0 0 0 -6 6v16.265a6 6 0 1 0 12 0v-16.265a6 6 0 0 0 -6-6z"/><path d="m91.27 450.969a6 6 0 0 0 -6 6v16.265a6 6 0 1 0 12 0v-16.265a6 6 0 0 0 -6-6z"/><path d="m300.389 450.969a6 6 0 0 0 -6 6v16.265a6 6 0 1 0 12 0v-16.265a6 6 0 0 0 -6-6z"/><path d="m265.536 450.969a6 6 0 0 0 -6 6v16.265a6 6 0 0 0 12 0v-16.265a6 6 0 0 0 -6-6z"/><path d="m335.242 450.969a6 6 0 0 0 -6 6v16.265a6 6 0 0 0 12 0v-16.265a6 6 0 0 0 -6-6z"/><path d="m178.565 280.946h54.146a6 6 0 0 0 0-12h-54.146a6 6 0 0 0 0 12z"/><path d="m317.653 296.829h-139.088a6 6 0 0 0 0 12h139.088a6 6 0 0 0 0-12z"/><path d="m317.653 324.711h-139.088a6 6 0 0 0 0 12h139.088a6 6 0 0 0 0-12z"/><path d="m137.457 145.554a6 6 0 0 0 -6 6v7.151a6 6 0 1 0 12 0v-7.151a6 6 0 0 0 -6-6z"/><path d="m137.457 172.666a6 6 0 0 0 -6 6v167.885a6 6 0 0 0 12 0v-167.885a6 6 0 0 0 -6-6z"/><path d="m16.417 507.116h463.383a6 6 0 0 0 0-12h-11.8c-1.57-9.848-4.036-36.919 10.821-59.387 4.3-6.494 11.681-13.221 17.615-18.626 1.141-1.039 2.225-2.026 3.224-2.954a6 6 0 0 0 -4.529-10.38 77.765 77.765 0 0 0 -30.407 10.1c4.335-12.293 10.69-24.234 22.853-41.365a6 6 0 0 0 -6.9-9.127c-.754.269-18.675 6.771-36.174 23.981-.646.635-1.3 1.3-1.949 1.972-1.052-18.454-4.108-45.448-7.8-58.242a6 6 0 0 0 -10.783-1.623c-6.593 10.063-17.094 32.727-18.639 57.786-2.448-2.628-4.925-5.04-7.384-7.261v-225.267a149.845 149.845 0 0 0 -149.839-149.839c-82.621 0-149.838 67.216-149.838 149.839v220.46h-22a6 6 0 0 0 -6 6v43.065h-13.854a6 6 0 0 0 -6 6v64.868h-34a6 6 0 0 0 0 12zm341.181-12a5.321 5.321 0 0 1 1.682-3.47c1.459-1.278 3.5-1.1 6.05.528a6.278 6.278 0 0 0 4.064.949 6 6 0 0 0 5.5-4.836 17.2 17.2 0 0 1 3.006-6.879 17.428 17.428 0 0 1 30.965 5.923 6 6 0 0 0 6.735 4.442 8.993 8.993 0 0 1 1.361-.1 8.684 8.684 0 0 1 6.918 3.445zm17.625-69.379a74.625 74.625 0 0 0 -8.354-10.188 66.51 66.51 0 0 1 10.21 4.087 55.093 55.093 0 0 1 11.213 7.442 6.027 6.027 0 0 0 1.03.878c10.09 9.153 15.854 21.915 17.2 38.124a29.384 29.384 0 0 0 -14.534-3.838c-.348 0-.694.018-1.041.031a127.888 127.888 0 0 0 -15.724-36.536zm98.783-3.357a64.739 64.739 0 0 0 -5.189 6.73c-15.545 23.51-15.063 51.876-13.044 66.006h-12.131a126.627 126.627 0 0 1 -1-13.442c-.942-35.107 16.236-51.593 31.364-59.294zm-33.258-12.013a5.944 5.944 0 0 0 1.528-2.154 99.86 99.86 0 0 1 10.285-11.946 103.431 103.431 0 0 1 11.891-10.131c-8.482 14.764-12.561 26.664-16.052 40.986-10.15 11.343-18.453 28.664-17.75 54.875q.042 1.512.1 2.959a20.726 20.726 0 0 0 -6.92-4.091l-.293-4.8q-1.058-23.328 5.642-42.747a6.014 6.014 0 0 0 .82-2.29 94.391 94.391 0 0 1 10.749-20.661zm-14.219-59.952c3.176 20.446 4.575 46.719 4.435 53.115a108.207 108.207 0 0 0 -6.709 11.211 109.833 109.833 0 0 0 -6.509-11.569c-2.326-18.583 2.662-38.314 8.783-52.757zm-8.84 79.749a115.165 115.165 0 0 0 -3.713 13.8 62.136 62.136 0 0 0 -15.919-24.237 124.731 124.731 0 0 0 -14.685-36.2c12.205 9.473 26.494 24.548 34.317 46.637zm-307.418-275.441c0-76.005 61.833-137.839 137.838-137.839a137.845 137.845 0 0 1 137.838 137.839v215.707a104.569 104.569 0 0 0 -19.947-11.23 6 6 0 0 0 -7.083 9.06c1.727 2.432 3.327 4.727 4.828 6.92h-253.474zm-28 232.46h289.286a118.9 118.9 0 0 1 10.753 21.654 82.408 82.408 0 0 0 -33.871-8.458 6 6 0 0 0 -4.065 10.4c1 .929 2.084 1.916 3.225 2.955 3.467 3.158 7.426 6.768 10.978 10.518h-276.304zm-19.854 49.065h305.183a119.158 119.158 0 0 1 11.7 28.9 29.372 29.372 0 0 0 -14.019 14.152 15.174 15.174 0 0 0 -13.91 3.326 17.344 17.344 0 0 0 -5.776 12.494h-283.178z"/></g></svg>