<svg id="Layer_1" height="512" viewBox="0 0 512 512" width="512" xmlns="http://www.w3.org/2000/svg" data-name="Layer 1"><path d="m214.85 44.46a150.554 150.554 0 0 0 -.29 212.84l90.67 43.63a150.366 150.366 0 0 0 122.76-43.33z" fill="#9ac5a1"/><path d="m331.23 419.49h-239.86a30 30 0 0 0 -30 30v41.06h299.86v-41.06a30 30 0 0 0 -30-30z" fill="#75967a"/><path d="m285.31 326.17-.17-.25-73.93-23.01-77.63 116.58h155.71z" fill="#9ac5a1"/><path d="m356.68 93.27 22.82 23.16-34.98 57.7-46.52-46.52z" fill="#d4e1f4"/><path d="m229.078 62.983q.9-1.242 1.824-2.471l-16.052-16.052a150.554 150.554 0 0 0 -.29 212.84l90.67 43.63a151.332 151.332 0 0 0 31.179.111c-.393-.039-.786-.069-1.179-.111l-50.861-24.474c-80.497-38.735-107.601-141.056-55.291-213.473z" fill="#85af8a"/><path d="m121.37 419.49h-30a30 30 0 0 0 -30 30v41.06h30v-41.06a30 30 0 0 1 30-30z" fill="#5d7f61"/><path d="m211.21 302.91-77.63 116.58h30l72.48-108.846z" fill="#85af8a"/><path d="m214.56 257.3a50.581 50.581 0 1 1 -7.26 26.1 50.488 50.488 0 0 1 7.26-26.1z" fill="#d4e1f4"/><path d="m257.82 264.02a19.38 19.38 0 1 1 -19.38 19.38 19.386 19.386 0 0 1 19.38-19.38z" fill="#b0b5ca"/><g fill="#284268"><path d="m61.372 496.549h299.861a6 6 0 0 0 6-6v-41.056a36.041 36.041 0 0 0 -36-36h-36.2l-3.611-84.674a56.906 56.906 0 0 0 17.606-21.508q6.291.5 12.545.5a156.022 156.022 0 0 0 110.657-45.973 6 6 0 0 0 0-8.485l-80.136-80.136 32.532-53.674a6 6 0 0 0 -.855-7.319l-22.812-23.166a6 6 0 0 0 -7.306-.969l-54.684 32-79.876-79.874a6 6 0 0 0 -8.485 0 156.54 156.54 0 0 0 -3.414 218.09 56.359 56.359 0 0 0 -2.685 43.853l-74.148 111.335h-38.989a36.041 36.041 0 0 0 -36 36v41.056a6 6 0 0 0 6 6zm196.452-168.619a44.528 44.528 0 1 1 44.529-44.53 44.577 44.577 0 0 1 -44.529 44.53zm97.861-227.13 16.259 16.512-28.586 47.165-35.618-35.615zm-179.039 50.227a143.671 143.671 0 0 1 38.29-98l204.481 204.483a143.994 143.994 0 0 1 -106.394 38.044 56.5 56.5 0 0 0 -99.123-47.674 143.648 143.648 0 0 1 -37.254-96.853zm34.033 163.515a56.474 56.474 0 0 0 69.022 20.98l3.325 77.971h-138.247zm-143.307 134.951a24.028 24.028 0 0 1 24-24h239.861a24.027 24.027 0 0 1 24 24v35.056h-287.861z"/><path d="m286.743 438.64a6 6 0 0 0 -6 6v20.76a6 6 0 0 0 12 0v-20.76a6 6 0 0 0 -6-6z"/><path d="m249.023 438.64a6 6 0 0 0 -6 6v20.76a6 6 0 0 0 12 0v-20.76a6 6 0 0 0 -6-6z"/><path d="m211.3 438.64a6 6 0 0 0 -6 6v20.76a6 6 0 0 0 12 0v-20.76a6 6 0 0 0 -6-6z"/><path d="m173.582 438.64a6 6 0 0 0 -6 6v20.76a6 6 0 0 0 12 0v-20.76a6 6 0 0 0 -6-6z"/><path d="m135.862 438.64a6 6 0 0 0 -6 6v20.76a6 6 0 0 0 12 0v-20.76a6 6 0 0 0 -6-6z"/><path d="m98.142 438.64a6 6 0 0 0 -6 6v20.76a6 6 0 0 0 12 0v-20.76a6 6 0 0 0 -6-6z"/><path d="m324.464 438.64a6 6 0 0 0 -6 6v20.76a6 6 0 0 0 12 0v-20.76a6 6 0 0 0 -6-6z"/><path d="m352.7 62.462a6 6 0 0 0 6 6 44.964 44.964 0 0 1 44.914 44.914 6 6 0 0 0 12 0 56.978 56.978 0 0 0 -56.914-56.914 6 6 0 0 0 -6 6z"/><path d="m358.547 27.451a86.178 86.178 0 0 1 86.081 86.081 6 6 0 0 0 12 0 98.192 98.192 0 0 0 -98.081-98.081 6 6 0 0 0 0 12z"/><path d="m257.824 258.021a25.382 25.382 0 1 0 25.381 25.379 25.411 25.411 0 0 0 -25.381-25.379zm0 38.763a13.382 13.382 0 1 1 13.381-13.384 13.4 13.4 0 0 1 -13.381 13.384z"/><path d="m220.443 208a6 6 0 0 0 5.318-8.771 105.322 105.322 0 0 1 -8.3-74.883 6 6 0 0 0 -11.608-3.042 117.318 117.318 0 0 0 9.26 83.463 6 6 0 0 0 5.33 3.233z"/><path d="m217.513 105.732a6 6 0 0 0 8.082-2.584c.769-1.492 1.59-2.991 2.438-4.456a6 6 0 1 0 -10.383-6.017c-.947 1.636-1.863 3.309-2.721 4.975a6 6 0 0 0 2.584 8.082z"/></g></svg>