<svg id="Layer_1" height="512" viewBox="0 0 512 512" width="512" xmlns="http://www.w3.org/2000/svg" data-name="Layer 1"><path d="m488.053 157.343h-466.098v54.188l21.791 13.784-21.791 18.355v95.022l23.753 8.755-23.753 24.709v81.975h466.098v-68.59l-26.92-16.194 26.92-10.218v-49.627l-28.872-8.765 28.872-22.797v-35.913l-26.92-20.118 26.92-5.836z" fill="#fbe08b"/><path d="m61.793 157.343h-39.838v54.188l21.791 13.784-21.791 18.355v95.022l23.753 8.755-23.753 24.709v81.975h39.838z" fill="#e0c782"/><path d="m102.108 275.062v72.683a27.129 27.129 0 0 0 27.129 27.13h61.33a27.128 27.128 0 0 0 27.129-27.13v-72.683z" fill="#ea836f"/><path d="m102.108 242.326h115.588v32.736h-115.588z" fill="#97c9fa"/><path d="m34.902 76.463v33.274h441.449.607v-33.274z" fill="#3d5c6b"/><path d="m477.098 66.503h23.902v53.193h-23.902z" fill="#365060"/><path d="m11 66.503h23.902v53.193h-23.902z" fill="#365060"/><path d="m388.32 57.869h39.12v127.34h-39.12z" fill="#ea836f"/><path d="m84.56 57.869h40.116v127.34h-40.116z" fill="#ea836f"/><g fill="#284268"><path d="m70 207.663a6 6 0 0 0 -6 6v4.295a6 6 0 0 0 12 0v-4.295a6 6 0 0 0 -6-6z"/><path d="m70 230.958a6 6 0 0 0 -6 6v68a6 6 0 0 0 12 0v-68a6 6 0 0 0 -6-6z"/><path d="m287.589 235h60.765a6 6 0 1 0 0-12h-60.765a6 6 0 1 0 0 12z"/><path d="m408.354 253h-120.765a6 6 0 1 0 0 12h120.765a6 6 0 1 0 0-12z"/><path d="m408.354 283h-120.765a6 6 0 1 0 0 12h120.765a6 6 0 1 0 0-12z"/><path d="m408.354 313h-120.765a6 6 0 1 0 0 12h120.765a6 6 0 1 0 0-12z"/><path d="m408.354 343h-120.765a6 6 0 1 0 0 12h120.765a6 6 0 1 0 0-12z"/><path d="m408.354 373h-120.765a6 6 0 1 0 0 12h120.765a6 6 0 1 0 0-12z"/><path d="m224.064 263h-.064v-20.536a6.483 6.483 0 0 0 -6.464-6.464h-116.053a6.5 6.5 0 0 0 -6.483 6.483v45.517a6 6 0 0 0 12 0v-7h105v67.185a20.815 20.815 0 0 1 -20.815 20.815h-62.465a21.784 21.784 0 0 1 -21.72-21.72v-19.28a6 6 0 0 0 -12 0v20.185a32.815 32.815 0 0 0 32.815 32.815h62.485a33.8 33.8 0 0 0 33.7-33.7v-3.3h.064a40.5 40.5 0 0 0 0-81zm-12.528 5.94c0 .053.006.06.007.06h-104.543v-21h105zm12.528 63.06h-.064v-57h.064a28.5 28.5 0 0 1 0 57z"/><path d="m502 60h-24a5.826 5.826 0 0 0 -6 5.792v4.208h-38v-12.875a5.991 5.991 0 0 0 -5.859-6.125h-39.282a5.991 5.991 0 0 0 -5.859 6.125v12.875h-253v-12.875a5.991 5.991 0 0 0 -5.859-6.125h-40.281a5.991 5.991 0 0 0 -5.86 6.125v12.875h-38v-4.208a5.826 5.826 0 0 0 -6-5.792h-24a5.826 5.826 0 0 0 -6 5.792v53.408a5.834 5.834 0 0 0 6 5.8h24a5.834 5.834 0 0 0 6-5.8v-4.2h38v36h-57a6 6 0 0 0 -6 6v54.408a6 6 0 0 0 2.792 5.071l14.957 9.464-15.613 13.145a6 6 0 0 0 -2.136 4.59v95.412a6 6 0 0 0 3.924 5.63l15.241 5.62-17.49 18.193a6 6 0 0 0 -1.675 4.158v82.309a6 6 0 0 0 6 6h468a6 6 0 0 0 6-6v-68.867a6 6 0 0 0 -2.907-5.142l-16.448-9.891 15.484-5.877a6 6 0 0 0 3.871-5.613v-49.834a6 6 0 0 0 -4.258-5.741l-18-5.461 19.977-15.78a6 6 0 0 0 2.281-4.708v-36.06a6 6 0 0 0 -2.41-4.807l-16.483-12.312 14.164-3.072a6 6 0 0 0 4.729-5.863v-58.972a6 6 0 0 0 -6-6h-55v-36h38v4.2a5.835 5.835 0 0 0 6 5.8h24a5.835 5.835 0 0 0 6-5.8v-53.408a5.826 5.826 0 0 0 -6-5.792zm-474 53h-12v-41h12zm367-50h27v116h-27zm-265 19h253v21h-253zm0 33h253v36h-253zm-40-52h28v116h-28zm-50 40v-21h38v21zm443 60v48.133l-22.3 4.838a6 6 0 0 0 -2.319 10.671l24.619 18.392v30.145l-26.706 21.094a6 6 0 0 0 1.977 10.451l24.729 7.5v41.243l-23.162 8.792a6 6 0 0 0 -.964 10.751l24.126 14.515v59.475h-456v-73.893l22.174-23.065a6 6 0 0 0 -2.25-9.787l-19.924-7.347v-88.438l19.747-16.626a6 6 0 0 0 -.656-9.66l-19.091-12.084v-45.1h51v21.984a5.9 5.9 0 0 0 5.86 6.016h40.281a5.9 5.9 0 0 0 5.859-6.016v-21.984h253v21.984a5.9 5.9 0 0 0 5.859 6.016h39.282a5.9 5.9 0 0 0 5.859-6.016v-21.984zm-11-60h-38v-21h38zm24 10h-12v-41h12z"/></g></svg>