<svg id="Layer_1" enable-background="new 0 0 512 512" height="512" viewBox="0 0 512 512" width="512" xmlns="http://www.w3.org/2000/svg"><g><g><g fill="#97b0bf"><path d="m133.88 448.645c-6.27 29.52-17.79 54.47-17.79 54.47-10.58 1.23-21.75 1.49-31.36 1.35-14.61-.22-25.64-1.35-25.64-1.35-4.44-29.37 0-57.08 0-57.08l44.05 1.54z"/><path d="m452.91 503.115s-12.74 1.3-28.96 1.37c-8.81.05-18.65-.27-28.04-1.37 0 0-11.52-24.95-17.79-54.47l43.5-1.52 31.29-1.09s4.44 27.71 0 57.08z"/></g><path d="m133.88 448.645c-6.27 29.52-17.79 54.47-17.79 54.47-10.58 1.23-21.75 1.49-31.36 1.35 8.46-23.61 14.57-43.54 18.41-56.889z" fill="#7c97a5"/><path d="m452.91 503.115s-12.74 1.3-28.96 1.37c.09-23.53-1.14-43.62-2.33-57.36l31.29-1.09s4.44 27.71 0 57.08z" fill="#7c97a5"/><path d="m504.5 307.286c0 68.49-4.93 136.989-4.93 136.989s-11.07.51-29.88 1.23c-43.56 1.66-128.63 4.41-213.69 4.41-121.78 0-243.57-5.64-243.57-5.64s-4.93-68.499-4.93-136.989c0-68.499 4.93-136.999 4.93-136.999s121.79-5.65 243.57-5.65c85.06 0 170.13 2.76 213.69 4.42 18.81.72 29.88 1.23 29.88 1.23s4.93 68.5 4.93 136.999z" fill="#58768c"/><path d="m499.57 170.287s4.93 68.499 4.93 136.999c0 68.49-4.93 136.989-4.93 136.989s-11.07.51-29.88 1.23c1.14-17.34 4.81-77.789 4.81-138.219 0-60.439-3.67-120.889-4.81-138.229 18.81.721 29.88 1.23 29.88 1.23z" fill="#3e5868"/><path d="m449.5 307.286c0 29.9-.98 60.06-2.06 84.079-8.48.3-17.84.6-27.91.91-45.09 1.37-104.52 2.73-163.53 2.73-72.19 0-145.03-2.03-191.44-3.64-1.08-24-2.06-54.13-2.06-84.079 0-29.91.99-60.07 2.06-84.089 46.42-1.61 119.25-3.65 191.44-3.65 59.01 0 118.44 1.36 163.53 2.75 10.07.3 19.43.61 27.91.9 1.07 24.02 2.06 54.18 2.06 84.089z" fill="#77e0ab"/><path d="m449.5 307.286c0 29.9-.98 60.06-2.06 84.079-8.48.3-17.84.6-27.91.91 1.06-24.79 1.97-54.89 1.97-84.989 0-30.1-.91-60.209-1.97-84.989 10.07.3 19.43.61 27.91.9 1.07 24.02 2.06 54.18 2.06 84.089z" fill="#65c1b0"/><path d="m427.89 167.597h-343.78c.97-22.85 2.13-38.96 2.13-38.96s84.88-3.93 169.76-3.93c53.66 0 107.33 1.57 139.54 2.73 18.74.67 30.22 1.2 30.22 1.2s1.16 16.111 2.13 38.96z" fill="#97b0bf"/><path d="m427.89 167.597h-30.13c-.91-20.43-1.91-35.63-2.22-40.16 18.74.67 30.22 1.2 30.22 1.2s1.16 16.111 2.13 38.96z" fill="#7c97a5"/></g><g><path d="m507.052 169.744c-.272-3.79-3.337-6.778-7.134-6.953-.553-.026-25.976-1.19-64.844-2.456-.888-19.013-1.822-32.09-1.833-32.235-.272-3.79-3.337-6.778-7.134-6.954-.851-.039-86.03-3.94-170.107-3.94s-169.256 3.901-170.106 3.94c-3.797.176-6.861 3.164-7.134 6.953-.01.145-.946 13.218-1.833 32.228-38.924 1.27-64.499 2.447-64.844 2.463-3.797.176-6.861 3.164-7.134 6.953-.05.689-4.949 69.556-4.949 137.539 0 4.235.019 8.47.054 12.688.035 4.121 3.386 7.437 7.499 7.437h.063c4.143-.035 7.472-3.42 7.438-7.562-.035-4.177-.054-8.37-.054-12.562 0-55.18 3.256-110.978 4.465-129.802 15.181-.649 54.809-2.248 104.675-3.52 4.141-.105 7.412-3.548 7.306-7.689-.104-4.076-3.439-7.308-7.493-7.308-.064 0-.13.001-.195.002-11.161.285-21.811.586-31.792.889.485-10.22.977-18.608 1.316-24.014 21.683-.909 92.597-3.634 162.719-3.634s141.037 2.726 162.72 3.634c.339 5.408.831 13.798 1.315 24.022-45.432-1.378-104.923-2.723-164.035-2.723-27.463 0-57.188.29-88.35.861-4.142.076-7.437 3.495-7.361 7.636.076 4.142 3.487 7.454 7.637 7.361 31.07-.569 60.703-.858 88.074-.858 104.098 0 209.399 4.184 236.536 5.341 1.209 18.824 4.464 74.621 4.464 129.801 0 55.175-3.255 110.971-4.464 129.794-27.137 1.158-132.438 5.341-236.536 5.341-15.447 0-31.759-.093-48.479-.275-.028 0-.056 0-.084 0-4.104 0-7.452 3.304-7.498 7.418-.045 4.142 3.276 7.536 7.418 7.581 16.775.184 33.142.276 48.644.276 40.014 0 80.202-.616 116.085-1.442 6.512 27.373 16.561 49.298 17.014 50.279 1.096 2.372 3.346 4.003 5.94 4.306 9.263 1.08 18.878 1.439 27.581 1.439 16.811 0 30.212-1.342 31.05-1.428 3.404-.349 6.141-2.956 6.652-6.339 3.113-20.585 2.062-40.172 1.019-50.917 23.682-.866 38.161-1.529 38.576-1.548 3.797-.176 6.861-3.163 7.134-6.953.05-.688 4.948-69.555 4.948-137.531-.001-67.984-4.899-136.851-4.949-137.539zm-60.792 326.39c-9.185.653-27.696 1.56-45.223-.032-2.913-6.916-9.023-22.382-13.597-40.498 22.023-.56 42.032-1.18 58.864-1.757.874 8.705 1.903 24.926-.044 42.287z"/><path d="m166.705 441.538c-69.303-1.285-127.973-3.637-147.24-4.461-.827-12.837-2.606-42.855-3.646-77.977-.124-4.14-3.613-7.409-7.719-7.274-4.141.123-7.397 3.578-7.275 7.719 1.392 46.961 4.098 84.892 4.125 85.269.272 3.79 3.337 6.778 7.134 6.954.313.014 14.83.681 38.575 1.551-1.043 10.746-2.093 30.331 1.02 50.914.512 3.383 3.248 5.991 6.652 6.339.837.086 14.236 1.428 31.049 1.428 8.702 0 18.32-.36 27.581-1.439 2.596-.303 4.846-1.934 5.941-4.306.453-.982 10.499-22.902 17.011-50.272 8.616.198 17.475.384 26.514.551.047.001.094.001.142.001 4.077 0 7.42-3.267 7.496-7.361.077-4.14-3.218-7.56-7.36-7.636zm-55.741 54.564c-17.501 1.587-36.029.681-45.224.03-1.947-17.357-.919-33.575-.045-42.28 16.847.578 36.862 1.2 58.863 1.76-4.574 18.112-10.682 33.576-13.594 40.49z"/><path d="m316.562 212.478c-21.077-.284-41.453-.428-60.562-.428-71.606 0-143.771 1.985-191.699 3.65-3.908.136-7.057 3.253-7.231 7.16-1.374 30.648-2.07 59.052-2.07 84.422 0 25.416.695 53.818 2.066 84.416.175 3.907 3.323 7.024 7.231 7.16 47.928 1.665 120.092 3.65 191.702 3.65 71.606 0 143.771-1.985 191.699-3.65 3.908-.136 7.057-3.252 7.231-7.16 1.373-30.62 2.069-59.021 2.069-84.416 0-25.37-.696-53.773-2.069-84.422-.175-3.907-3.323-7.024-7.231-7.16-30.831-1.071-61.588-1.926-91.417-2.542-4.099-.102-7.567 3.202-7.652 7.344-.086 4.142 3.202 7.568 7.344 7.653 27.522.567 55.838 1.34 84.272 2.298 1.164 27.784 1.754 53.6 1.754 76.829 0 23.25-.59 49.064-1.754 76.822-47.674 1.606-116.228 3.404-184.246 3.404-68.022 0-136.576-1.798-184.249-3.404-1.161-27.74-1.75-53.554-1.75-76.822 0-23.229.59-49.046 1.754-76.829 47.674-1.606 116.228-3.404 184.246-3.404 19.041 0 39.349.144 60.358.427h.104c4.095 0 7.442-3.292 7.497-7.399.056-4.141-3.256-7.543-7.397-7.599z"/><path d="m96.543 305.492c0 28.264 2.056 46.79 29.528 46.79s29.528-18.527 29.528-46.79c0-28.264-2.056-46.79-29.528-46.79s-29.528 18.526-29.528 46.79zm44.057 0c0 31.79-3.661 31.79-14.528 31.79s-14.528 0-14.528-31.79 3.661-31.79 14.528-31.79 14.528 0 14.528 31.79z"/><path d="m170.4 306.672c0 28.264 2.056 46.79 29.528 46.79 27.474 0 29.529-18.527 29.529-46.79 0-28.264-2.056-46.79-29.529-46.79-27.472 0-29.528 18.526-29.528 46.79zm44.058 0c0 31.79-3.661 31.79-14.529 31.79-10.867 0-14.528 0-14.528-31.79s3.661-31.79 14.528-31.79c10.868 0 14.529 0 14.529 31.79z"/><path d="m282.543 305.492c0 28.264 2.056 46.79 29.528 46.79s29.528-18.527 29.528-46.79c0-28.264-2.056-46.79-29.528-46.79s-29.528 18.526-29.528 46.79zm44.057 0c0 31.79-3.661 31.79-14.528 31.79s-14.528 0-14.528-31.79 3.661-31.79 14.528-31.79 14.528 0 14.528 31.79z"/><path d="m415.458 306.672c0-28.264-2.056-46.79-29.529-46.79s-29.528 18.526-29.528 46.79 2.056 46.79 29.528 46.79c27.473 0 29.529-18.527 29.529-46.79zm-44.058 0c0-31.79 3.661-31.79 14.528-31.79 10.868 0 14.529 0 14.529 31.79s-3.661 31.79-14.529 31.79c-10.866 0-14.528 0-14.528-31.79z"/><path d="m143.744 36.102c.423.169 42.45 17.403 57.351 56.773 1.136 3 3.987 4.847 7.016 4.847.883 0 1.78-.157 2.653-.487 3.874-1.466 5.826-5.795 4.36-9.669-17.208-45.466-63.822-64.595-65.798-65.387-3.843-1.541-8.211.325-9.753 4.171-1.541 3.845.326 8.211 4.171 9.752z"/><path d="m301.237 97.236c.874.331 1.771.487 2.653.487 3.027 0 5.88-1.848 7.016-4.847 14.832-39.191 56.938-56.607 57.361-56.778 3.837-1.545 5.699-5.906 4.16-9.747-1.542-3.845-5.907-5.712-9.753-4.171-1.976.792-48.591 19.921-65.798 65.387-1.465 3.873.487 8.202 4.361 9.669z"/><path d="m256 80.65c4.143 0 7.5-3.358 7.5-7.5v-65.65c0-4.142-3.357-7.5-7.5-7.5s-7.5 3.358-7.5 7.5v65.65c0 4.142 3.357 7.5 7.5 7.5z"/><circle cx="256.005" cy="286.354" r="7.5"/><circle cx="256.005" cy="327.283" r="7.5"/></g></g></svg>