<svg id="Layer_1" enable-background="new 0 0 512 512" height="512" viewBox="0 0 512 512" width="512" xmlns="http://www.w3.org/2000/svg"><g><g><g fill="#97b0bf"><path d="m133.882 390.035c-6.27 29.52-17.79 54.47-17.79 54.47-10.58 1.23-21.75 1.49-31.36 1.35-14.61-.22-25.64-1.35-25.64-1.35-4.44-29.37 0-57.08 0-57.08l44.05 1.54z"/><path d="m452.911 444.504s-12.74 1.3-28.96 1.37c-8.81.05-18.65-.27-28.04-1.37 0 0-11.52-24.95-17.79-54.47l43.5-1.52 31.29-1.09c0 .001 4.44 27.71 0 57.08z"/></g><path d="m133.882 390.035c-6.27 29.52-17.79 54.47-17.79 54.47-10.58 1.23-21.75 1.49-31.36 1.35 8.46-23.61 14.57-43.54 18.41-56.889z" fill="#7c97a5"/><path d="m452.911 444.504s-12.74 1.3-28.96 1.37c.09-23.53-1.14-43.62-2.33-57.359l31.29-1.09s4.44 27.709 0 57.079z" fill="#7c97a5"/><path d="m504.501 248.676c0 68.489-4.93 136.989-4.93 136.989s-11.07.51-29.88 1.23c-43.56 1.66-128.63 4.41-213.69 4.41-121.78 0-243.57-5.64-243.57-5.64s-4.93-68.499-4.93-136.989c0-68.499 4.93-136.999 4.93-136.999s121.79-5.65 243.57-5.65c85.06 0 170.13 2.76 213.69 4.42 18.81.72 29.88 1.23 29.88 1.23s4.93 68.499 4.93 136.999z" fill="#58768c"/><path d="m499.572 111.677s4.93 68.499 4.93 136.999c0 68.489-4.93 136.989-4.93 136.989s-11.07.51-29.88 1.23c1.14-17.34 4.81-77.789 4.81-138.219 0-60.439-3.67-120.889-4.81-138.229 18.809.72 29.88 1.23 29.88 1.23z" fill="#3e5868"/><path d="m449.501 248.676c0 29.9-.98 60.06-2.06 84.079-8.48.3-17.84.6-27.91.91-45.09 1.37-104.52 2.73-163.53 2.73-72.19 0-145.03-2.03-191.44-3.64-1.08-24-2.06-54.13-2.06-84.079 0-29.91.99-60.07 2.06-84.089 46.42-1.61 119.25-3.65 191.44-3.65 59.01 0 118.44 1.36 163.53 2.75 10.07.3 19.43.61 27.91.9 1.071 24.019 2.06 54.179 2.06 84.089z" fill="#77e0ab"/><path d="m449.501 248.676c0 29.9-.98 60.06-2.06 84.079-8.48.3-17.84.6-27.91.91 1.06-24.79 1.97-54.89 1.97-84.989 0-30.1-.91-60.209-1.97-84.989 10.07.3 19.43.61 27.91.9 1.071 24.019 2.06 54.179 2.06 84.089z" fill="#65c1b0"/><path d="m427.892 108.987h-343.781c.97-22.85 2.13-38.96 2.13-38.96s84.88-3.93 169.76-3.93c53.66 0 107.33 1.57 139.54 2.73 18.74.67 30.22 1.2 30.22 1.2s1.16 16.11 2.131 38.96z" fill="#97b0bf"/><path d="m427.892 108.987h-30.13c-.91-20.43-1.91-35.63-2.22-40.16 18.74.67 30.22 1.2 30.22 1.2s1.159 16.11 2.13 38.96z" fill="#7c97a5"/></g><g><path d="m507.052 111.139c-.272-3.791-3.337-6.778-7.134-6.954-.553-.026-25.976-1.19-64.843-2.456-.888-19.014-1.823-32.091-1.834-32.236-.272-3.79-3.337-6.777-7.134-6.954-.85-.038-86.029-3.939-170.107-3.939-84.077 0-169.256 3.901-170.106 3.94-3.797.176-6.861 3.164-7.134 6.954-.01.145-.946 13.219-1.833 32.228-38.924 1.27-64.499 2.447-64.844 2.463-3.797.176-6.861 3.164-7.134 6.954-.05.687-4.949 69.556-4.949 137.54 0 4.234.02 8.469.054 12.687.034 4.121 3.385 7.439 7.499 7.439h.063c4.142-.034 7.472-3.418 7.438-7.561-.034-4.178-.054-8.372-.054-12.565 0-55.181 3.256-110.98 4.465-129.804 15.178-.649 54.806-2.249 104.676-3.52 4.141-.105 7.412-3.548 7.306-7.689-.105-4.141-3.497-7.401-7.688-7.306-11.161.285-21.811.586-31.792.889.485-10.22.977-18.608 1.316-24.014 21.681-.91 92.595-3.635 162.717-3.635 70.123 0 141.037 2.726 162.72 3.634.339 5.408.832 13.799 1.316 24.023-45.432-1.378-104.924-2.723-164.036-2.723-27.463 0-57.188.29-88.35.861-4.142.076-7.437 3.495-7.361 7.636.076 4.142 3.528 7.44 7.637 7.361 31.07-.569 60.703-.858 88.074-.858 104.098 0 209.399 4.184 236.536 5.341 1.209 18.825 4.464 74.623 4.464 129.804 0 55.176-3.255 110.972-4.464 129.796-27.137 1.158-132.438 5.341-236.536 5.341-15.447 0-31.759-.093-48.479-.275-4.135-.047-7.536 3.275-7.582 7.417-.045 4.142 3.276 7.536 7.418 7.582 16.775.184 33.142.276 48.644.276 40.014 0 80.202-.616 116.086-1.442 6.512 27.373 16.56 49.299 17.013 50.28 1.096 2.372 3.346 4.003 5.941 4.306 9.262 1.08 18.877 1.439 27.58 1.439 16.811 0 30.212-1.342 31.05-1.428 3.404-.348 6.141-2.957 6.652-6.339 3.113-20.585 2.062-40.172 1.019-50.918 23.682-.866 38.161-1.529 38.576-1.548 3.797-.176 6.861-3.163 7.134-6.954.05-.688 4.948-69.556 4.948-137.533 0-67.984-4.898-136.853-4.948-137.54zm-60.792 326.393c-9.195.652-27.726 1.556-45.223-.03-2.913-6.917-9.022-22.384-13.597-40.499 22.023-.56 42.032-1.18 58.864-1.757.874 8.705 1.903 24.926-.044 42.286z"/><path d="m166.705 382.936c-69.303-1.285-127.973-3.637-147.24-4.46-.827-12.837-2.606-42.856-3.646-77.979-.124-4.14-3.614-7.415-7.719-7.274-4.141.123-7.397 3.578-7.275 7.719 1.392 46.962 4.098 84.893 4.125 85.271.272 3.791 3.337 6.778 7.134 6.954.313.014 14.83.681 38.576 1.551-1.042 10.747-2.093 30.332 1.02 50.915.512 3.383 3.248 5.991 6.652 6.339.839.086 14.237 1.428 31.05 1.428 8.702 0 18.32-.36 27.58-1.439 2.596-.303 4.846-1.934 5.941-4.306.453-.982 10.499-22.903 17.011-50.273 8.616.198 17.475.384 26.514.551.047.001.094.001.142.001 4.077 0 7.42-3.267 7.496-7.361.076-4.141-3.219-7.56-7.361-7.637zm-55.741 54.566c-17.497 1.587-36.029.681-45.223.03-1.947-17.357-.919-33.575-.045-42.281 16.847.578 36.862 1.2 58.863 1.759-4.575 18.113-10.683 33.578-13.595 40.492z"/><path d="m316.562 153.873c-21.077-.284-41.453-.428-60.562-.428-71.592 0-143.762 1.985-191.699 3.65-3.908.136-7.057 3.253-7.231 7.16-1.374 30.649-2.07 59.053-2.07 84.423 0 25.417.695 53.819 2.066 84.418.175 3.907 3.323 7.024 7.231 7.16 47.928 1.665 120.092 3.65 191.702 3.65 71.606 0 143.771-1.985 191.699-3.65 3.908-.136 7.057-3.252 7.231-7.16 1.373-30.62 2.069-59.022 2.069-84.418 0-25.37-.696-53.774-2.069-84.424-.175-3.907-3.323-7.024-7.231-7.16-30.853-1.071-61.609-1.926-91.417-2.541-4.133-.079-7.567 3.203-7.652 7.344-.086 4.142 3.202 7.568 7.344 7.653 27.505.567 55.819 1.339 84.272 2.298 1.164 27.785 1.754 53.602 1.754 76.83 0 23.25-.59 49.065-1.754 76.824-47.674 1.606-116.228 3.404-184.246 3.404-68.022 0-136.576-1.798-184.249-3.404-1.161-27.74-1.75-53.555-1.75-76.824 0-23.229.59-49.046 1.754-76.83 47.682-1.606 116.241-3.404 184.246-3.404 19.041 0 39.349.144 60.358.427h.104c4.095 0 7.442-3.292 7.497-7.399.056-4.14-3.256-7.543-7.397-7.599z"/><path d="m99.979 280.517c-2.216 1.925-3.105 4.965-2.276 7.782.829 2.816 3.226 4.889 6.131 5.305 7.626 1.092 15.202 1.456 21.918 1.456 13.019 0 22.802-1.369 23.412-1.456 4.099-.587 6.944-4.384 6.359-8.483-.586-4.099-4.382-6.954-8.481-6.366-.149.021-10.896 1.506-24.454 1.267 33.43-33.195 33.059-53.915 29.368-63.792-3.718-9.951-13.479-16.132-25.477-16.132-11.224 0-19.479 3.224-24.536 9.581-6.716 8.443-4.615 18.622-4.354 19.755.932 4.036 4.957 6.554 8.995 5.62 4.036-.932 6.552-4.959 5.62-8.995-.009-.04-.748-4.244 1.478-7.043 2.576-3.239 8.381-3.918 12.797-3.918 2.719 0 9.273.622 11.425 6.381 3.561 9.528-4.533 30.04-37.925 59.038z"/><path d="m221.467 247.752c4.626-4.91 7.173-11.507 7.173-18.577 0-13.524-10.062-27.898-28.71-27.898-20.927 0-28.522 15.83-28.522 26.469 0 4.142 3.357 7.542 7.5 7.542 4.142 0 7.499-3.316 7.499-7.458.001-.033.1-3.308 1.895-6.29 2.133-3.542 5.937-5.264 11.629-5.264 10.823 0 13.71 8.107 13.71 12.898 0 3.23-1.098 6.175-3.09 8.291-2.319 2.461-5.724 3.709-10.117 3.709-4.143 0-7.5 3.358-7.5 7.5s3.357 7.5 7.5 7.5c9.738 0 13.207 6.199 13.207 12 0 3.354-1.222 6.597-3.354 8.898-2.459 2.654-5.943 4-10.356 4-5.692 0-9.496-1.722-11.629-5.264-1.635-2.715-1.862-5.673-1.89-6.206-.002-.037-.003-.063-.003-.075-.041-4.107-3.383-7.425-7.5-7.425-4.143 0-7.5 3.358-7.5 7.5 0 10.64 7.596 26.469 28.522 26.469 18.648 0 28.71-14.374 28.71-27.898 0-7.069-2.547-13.667-7.173-18.577-.286-.304-.591-.612-.916-.923.324-.308.629-.617.915-.921z"/><path d="m331.346 241.61c-12.747-1.145-25.764-.762-33.912-.296.132-9.941.717-21.252 3.311-23.786 1.832-1.79 9.084-1.62 17.479-1.423 3.461.082 7.384.173 11.783.173 4.143 0 7.5-3.358 7.5-7.5s-3.357-7.5-7.5-7.5c-4.224 0-8.053-.09-11.432-.169-13.223-.309-21.961-.515-28.312 5.688-7.091 6.927-7.867 18.865-7.867 42.595 0 2.119.896 4.139 2.468 5.561 1.57 1.422 3.673 2.115 5.778 1.902.178-.018 15.875-1.554 32.523-.768-.054 11.591-.38 20.248-2.4 22.257-2.008 1.996-11.452 1.942-22.396 1.879-2.417-.014-5.014-.029-7.804-.029-4.143 0-7.5 3.358-7.5 7.5s3.357 7.5 7.5 7.5l13.451.051c13.613 0 21.648-.621 27.324-6.264 6.835-6.795 6.835-17.17 6.835-39.901 0-3.883-2.963-7.123-6.829-7.47z"/><path d="m374.013 280.322c-2.417-.014-5.014-.029-7.804-.029-4.143 0-7.5 3.358-7.5 7.5s3.357 7.5 7.5 7.5c2.759 0 5.327.015 7.718.028 2.015.012 3.923.023 5.733.023 13.613 0 21.648-.621 27.324-6.264 6.835-6.795 6.835-17.17 6.835-39.901 0-15.677-.814-27.037-4.868-35.221-4.62-9.327-13.147-13.86-26.07-13.86-8.842 0-15.703 2.908-20.393 8.645-6.937 8.484-8.343 22.301-4.3 42.24.766 3.774 4.263 6.351 8.096 5.973.178-.018 15.906-1.552 32.525-.768-.054 11.591-.38 20.247-2.4 22.256-2.008 1.995-11.456 1.94-22.396 1.878zm-2.262-38.83c-2.151-14.897.438-20.918 2.35-23.256 1.102-1.347 3.211-3.139 8.78-3.139 10.33 0 15.067 1.084 15.828 26.067-10.594-.461-20.594-.067-26.958.328z"/><circle cx="256.004" cy="227.745" r="7.5"/><circle cx="256.004" cy="268.674" r="7.5"/></g></g></svg>