<svg id="Layer_1" height="512" viewBox="0 0 512 512" width="512" xmlns="http://www.w3.org/2000/svg" data-name="Layer 1"><path d="m205.08 61.52c-27.87 0-50.46-5.15-50.46-11.5v81.74h100.91v-81.74c0 6.35-22.59 11.5-50.45 11.5z" fill="#fb6771"/><path d="m154.62 50.02v81.74h30v-71.228c-17.671-1.79-30-5.822-30-10.512z" fill="#e05c69"/><path d="m306.92 61.52c-27.86 0-50.45-5.15-50.45-11.5v81.74h100.91v-81.74c0 6.35-22.59 11.5-50.46 11.5z" fill="#e75163"/><path d="m306.21 38.52h.71c27.87 0 50.46 5.15 50.46 11.5s-22.59 11.5-50.46 11.5-50.45-5.15-50.45-11.5c0-6.3 22.21-11.41 49.74-11.5z" fill="#ff97a1"/><path d="m205.79 38.52c27.53.09 49.74 5.2 49.74 11.5 0 6.35-22.59 11.5-50.45 11.5s-50.46-5.15-50.46-11.5 22.59-11.5 50.46-11.5z" fill="#ff97a1"/><path d="m357.84 134.75c-27.86 0-50.45-5.15-50.45-11.5v364.41c0 6.35 22.59 11.5 50.45 11.5s50.46-5.15 50.46-11.5v-364.41c0 6.35-22.59 11.5-50.46 11.5z" fill="#fb6771"/><path d="m357.38 112.23v-.47h.46c27.87 0 50.46 5.15 50.46 11.49s-22.59 11.5-50.46 11.5-50.45-5.15-50.45-11.5c0-6.3 22.29-11.42 49.9-11.49.03.16.06.31.09.47z" fill="#ff97a1"/><path d="m204.61 123.25c0 6.35-22.59 11.5-50.45 11.5s-50.46-5.15-50.46-11.5v364.41c0 6.35 22.59 11.5 50.46 11.5s50.45-5.15 50.45-11.5l.93-364.41z" fill="#fb6771"/><path d="m154.62 112.23c.03-.16.06-.31.09-.47 27.61.07 49.9 5.19 49.9 11.49 0 6.35-22.59 11.5-50.45 11.5s-50.46-5.15-50.46-11.5 22.59-11.49 50.46-11.49h.46z" fill="#ff97a1"/><path d="m256 134.75c-27.87 0-50.46-5.15-50.46-11.5v364.41c0 6.35 22.59 11.5 50.46 11.5s50.46-5.15 50.46-11.5v-364.41c0 6.35-22.59 11.5-50.46 11.5z" fill="#e75163"/><path d="m256.66 111.76c27.57.08 49.8 5.2 49.8 11.49 0 6.35-22.59 11.5-50.46 11.5s-50.46-5.15-50.46-11.5c0-6.29 22.21-11.4 49.75-11.49z" fill="#ff97a1"/><path d="m306.46 355.84a71.292 71.292 0 0 1 -100.89.03c-.32-.32-.64-.64-.96-.97a71.313 71.313 0 0 1 0-98.88c.32-.33.64-.65.96-.97a71.292 71.292 0 0 1 100.89.03c.31.31.62.63.93.95a71.288 71.288 0 0 1 0 98.86c-.31.32-.62.64-.93.95z" fill="#5fa8ed"/><circle cx="256" cy="305.46" fill="#d4e1f4" r="46.79"/><path d="m239.21 305.46a46.8 46.8 0 0 1 31.79-44.319 46.79 46.79 0 1 0 0 88.638 46.8 46.8 0 0 1 -31.79-44.319z" fill="#c0cfe2"/><path d="m184.62 50.02c0-5.158 14.906-9.525 35.44-10.982-4.519-.32-9.306-.5-14.27-.518h-.71c-27.87 0-50.46 5.15-50.46 11.5s22.59 11.5 50.46 11.5c5.222 0 10.26-.181 15-.517-20.545-1.456-35.46-5.823-35.46-10.983z" fill="#e58593"/><path d="m133.7 123.25c0-5.15 14.907-9.515 35.442-10.972-4.568-.324-9.41-.505-14.432-.518-.03.16-.06.31-.09.47v-.47h-.46c-27.87 0-50.46 5.15-50.46 11.49s22.59 11.5 50.46 11.5c5.222 0 10.26-.181 15-.517-20.545-1.456-35.46-5.823-35.46-10.983z" fill="#e58593"/><path d="m133.7 487.66v-353.9c-17.671-1.79-30-5.822-30-10.512v364.412c0 6.35 22.59 11.5 50.46 11.5 5.223 0 10.26-.181 15-.517-20.545-1.456-35.46-5.823-35.46-10.983z" fill="#e05c69"/><path d="m94.03 405.57h323.94v33.94h-323.94z" fill="#f3e08d"/><path d="m94.03 172.56h323.94v33.93h-323.94z" fill="#f3e08d"/><path d="m94.03 405.57h30v33.94h-30z" fill="#e5d07a"/><path d="m94.03 172.56h30v33.93h-30z" fill="#e5d07a"/><g fill="#284268"><path d="m256 252.67a52.789 52.789 0 1 0 52.789 52.788 52.849 52.849 0 0 0 -52.789-52.788zm0 93.578a40.789 40.789 0 1 1 40.789-40.79 40.836 40.836 0 0 1 -40.789 40.79z"/><path d="m276.942 303.947h-17.933v-25.413a6 6 0 0 0 -12 0v31.413a6 6 0 0 0 6 6h23.933a6 6 0 0 0 0-12z"/><path d="m94.029 445.506h3.671v42.157c0 16.234 43.211 17.5 56.455 17.5 13.912 0 27.056-1.249 37.01-3.517 4.609-1.05 10.053-2.6 14.007-5.207 12.143 7.96 40.532 8.724 50.825 8.724 13.912 0 27.056-1.249 37.01-3.517 4.609-1.05 10.052-2.6 14.007-5.207 12.143 7.96 40.532 8.724 50.825 8.724 13.912 0 27.056-1.249 37.011-3.517 8.346-1.9 19.444-5.421 19.444-13.979v-42.161h3.674a6 6 0 0 0 6-6v-33.938a6 6 0 0 0 -6-6h-3.668v-187.074h3.674a6 6 0 0 0 6-6v-33.938a6 6 0 0 0 -6-6h-3.674v-43.3c0-14.4-34-17.02-50.921-17.428v-55.807c0-14.886-36.324-17.184-52.571-17.463a43.286 43.286 0 0 0 -41.049-29.717h-27.518a43.287 43.287 0 0 0 -41.047 29.719c-12.46.211-24.1 1.425-33.126 3.481-8.346 1.9-19.444 5.42-19.444 13.98v55.806a165.086 165.086 0 0 0 -31.477 3.449c-8.346 1.9-19.444 5.42-19.444 13.979v43.3h-3.674a6 6 0 0 0 -6 6v33.938a6 6 0 0 0 6 6h3.671v187.075h-3.671a6 6 0 0 0 -6 6v33.938a6 6 0 0 0 6 6zm104.584 40.9c-3.542 2.518-19.141 6.75-44.455 6.75s-40.913-4.232-44.455-6.75v-40.9h88.91zm101.842 0c-3.542 2.518-19.142 6.75-44.455 6.75s-40.913-4.232-44.455-6.75v-40.9h88.91zm101.842 0c-3.542 2.518-19.142 6.75-44.455 6.75s-40.913-4.232-44.455-6.75v-40.9h88.913zm-183.307-377.13c-4.609 1.05-10.052 2.595-14.007 5.207-9.569-6.273-29.222-8.077-42.163-8.56a31.254 31.254 0 0 1 28.445-18.381h27.47a31.256 31.256 0 0 1 28.45 18.39 159.061 159.061 0 0 0 -28.195 3.344zm30.94 8.574c.009.3.023.605.023.91a6 6 0 0 0 6 6h.047a6 6 0 0 0 6-6c0-.305.014-.607.023-.911 18.129.5 30.483 3.185 35.97 5.406-6.077 2.459-20.55 5.5-41.993 5.5s-35.916-3.037-41.993-5.5c5.483-2.219 17.819-4.9 35.923-5.405zm-38.385 17.267c13.8 5.08 35.69 5.634 44.455 5.634 13.912 0 27.056-1.249 37.01-3.517a68.67 68.67 0 0 0 7.445-2.085v31.407h-88.91zm53.226-29.189a31.254 31.254 0 0 1 28.447-18.386h27.517a31.256 31.256 0 0 1 28.447 18.384 159.25 159.25 0 0 0 -28.35 3.35c-4.609 1.05-10.053 2.595-14.007 5.207-9.542-6.255-29.111-8.067-42.054-8.555zm48.616 29.189c13.8 5.08 35.69 5.634 44.455 5.634 13.912 0 27.056-1.249 37.011-3.517a68.654 68.654 0 0 0 7.444-2.085v31.407h-88.91zm38.566-16.357a6 6 0 0 0 12 0c0-.305-.016-.606-.023-.909 18.094.506 30.425 3.185 35.9 5.4-6.076 2.46-20.549 5.5-41.993 5.5s-35.916-3.037-41.993-5.5c5.5-2.225 17.891-4.915 36.081-5.409.014.309.028.612.028.918zm-.577-30.445a43.085 43.085 0 0 0 -30.641-12.773h-27.517a43.083 43.083 0 0 0 -30.752 12.89v-26.549c13.8 5.079 35.69 5.634 44.455 5.634 13.912 0 27.057-1.249 37.011-3.517a68.438 68.438 0 0 0 7.444-2.086zm-50.436-43.7c.022.48.037.961.037 1.447a6 6 0 0 0 12 0c0-.485-.021-.965-.037-1.446 18.132.5 30.487 3.185 35.975 5.407-6.077 2.459-20.55 5.5-41.994 5.5s-35.921-3.043-41.994-5.502c5.491-2.221 17.86-4.91 36.013-5.408zm-58.7-29.772h27.518a31.256 31.256 0 0 1 28.211 17.857 158.769 158.769 0 0 0 -28.058 3.338c-4.609 1.05-10.053 2.6-14.008 5.207-9.5-6.226-28.926-8.05-41.87-8.549a31.256 31.256 0 0 1 28.208-17.855zm-43.18 29.771c-.016.481-.037.961-.037 1.446a6 6 0 0 0 12 0c0-.486.015-.967.037-1.447 18.153.5 30.522 3.184 36.013 5.408-6.077 2.459-20.55 5.5-41.994 5.5s-35.917-3.037-41.994-5.5c5.488-2.221 17.843-4.906 35.975-5.407zm-38.436 17.269c13.8 5.079 35.69 5.634 44.455 5.634 13.912 0 27.056-1.249 37.01-3.517a68.617 68.617 0 0 0 7.445-2.086v26.567a43.081 43.081 0 0 0 -30.8-12.939h-27.47a43.085 43.085 0 0 0 -30.641 12.773zm-12.554 55.968c-.007.3-.023.605-.023.91a6 6 0 0 0 12 0c0-.306.014-.609.023-.914 18.19.494 30.583 3.184 36.081 5.409-6.077 2.459-20.549 5.5-41.993 5.5s-35.917-3.036-41.993-5.5c5.48-2.22 17.811-4.899 35.905-5.405zm-38.37 17.266c13.8 5.08 35.691 5.634 44.455 5.634 13.912 0 27.056-1.249 37.01-3.517a64.719 64.719 0 0 0 8.377-2.426v31.748h-89.842zm-9.674 43.439h311.945v21.938h-311.942zm155.974 192.212a65.31 65.31 0 1 1 65.31-65.31 65.384 65.384 0 0 1 -65.31 65.31zm44.455-2.118v30.918h-88.91v-30.918a77.049 77.049 0 0 0 88.91 0zm-101.842-11.45v42.368h-88.913v-187.074h88.91v41.224a77.148 77.148 0 0 0 0 103.482zm12.932-114.932v-29.774h88.91v29.774a77.045 77.045 0 0 0 -88.91 0zm101.842 114.932a77.148 77.148 0 0 0 0-103.482v-41.224h88.913v187.074h-88.91zm-213.358 54.368h311.942v21.938h-311.942z"/><path d="m137.457 227.554a6 6 0 0 0 -6 6v7.151a6 6 0 1 0 12 0v-7.151a6 6 0 0 0 -6-6z"/><path d="m137.457 254.666a6 6 0 0 0 -6 6v107.885a6 6 0 0 0 12 0v-107.885a6 6 0 0 0 -6-6z"/></g></svg>