<svg id="Capa_1" enable-background="new 0 0 513.086 513.086" height="512" viewBox="0 0 513.086 513.086" width="512" xmlns="http://www.w3.org/2000/svg"><g><g><g><path d="m379.721 314.676c38.535 0 69.773-31.239 69.773-69.773 0-68.833-55.801-124.634-124.634-124.634h-31.631c-35.565 0-67.649 14.898-90.356 38.792l-54.981 48.441v107.174z" fill="#f8f7f8"/></g><path d="m373.397 130.069c-14.925-6.321-31.308-9.8-48.536-9.8h-31.631c-35.565 0-67.649 14.898-90.356 38.792l-54.981 48.441v107.174h60.338v-97.358l36.018-31.734v129.091h62.833c15.105-13.874 24.592-33.773 24.592-55.851 0-33.659-13.962-64.109-36.396-85.881-9.512-9.232-6.995-25.227 4.982-30.906 16.161-7.663 34.233-11.952 53.308-11.952z" fill="#efedee"/><path d="m211.908 159.061h-45.942l-37.47 34.67v82.945l47.701 38h79.625c30.845 0 55.851-25.005 55.851-55.851 0-55.098-44.666-99.764-99.765-99.764z" fill="#f8f7f8"/><path d="m449.494 359.576-8.921 15.119c-6.627 11.23-18.695 18.122-31.735 18.122h-305.59c-13.04 0-25.108-6.892-31.735-18.122l-8.921-15.119-13.947-25.366h413.286z" fill="#e4e1e5"/><g><path d="m280.73 258.825c0-42.174-22.886-79.11-56.872-99.056-3.924-.469-7.901-.708-11.95-.708h-45.942l-37.47 34.67v82.945l47.701 38h77.199c16.619-12.978 27.334-33.18 27.334-55.851z" fill="#efedee"/><path d="m209.88 314.676h-78.107-14.099c-30.845 0-55.851-25.005-55.851-55.851 0-55.098 44.666-99.765 99.765-99.765h4.377c55.098 0 99.765 44.666 99.765 99.765.001 30.846-25.004 55.851-55.85 55.851z" fill="#f8f7f8"/><path d="m110.715 264.822c0-47.229 30.682-87.625 74.037-103.999-6.081-1.158-12.367-1.762-18.786-1.762h-4.377c-55.098 0-99.765 44.666-99.765 99.765 0 30.845 25.005 55.851 55.851 55.851h14.099 4.872c-15.753-11.43-25.931-29.504-25.931-49.855z" fill="#efedee"/><path d="m117.675 276.676c-9.843 0-17.851-8.008-17.851-17.851 0-34.057 27.707-61.765 61.765-61.765h4.378c34.058 0 61.765 27.708 61.765 61.765 0 9.843-8.008 17.851-17.851 17.851z" fill="#d99684"/><path d="m110.715 264.822c0-20.956 6.049-40.558 16.554-57.32-16.537 11.094-27.445 29.957-27.445 51.323 0 7.742 4.963 14.33 11.868 16.797-.639-3.508-.977-7.116-.977-10.8z" fill="#d1836c"/><path d="m498.646 314.676h-484.206c-3.833 0-6.941 3.108-6.941 6.941v7.402c0 16.876 13.68 30.556 30.556 30.556h436.975c16.876 0 30.556-13.68 30.556-30.556v-7.402c.001-3.833-3.107-6.941-6.94-6.941z" fill="#f8f7f8"/><path d="m75.242 343.331c-16.236 0-29.509-12.666-30.491-28.655h-30.311c-3.833 0-6.941 3.108-6.941 6.941v7.402c0 16.876 13.68 30.556 30.556 30.556h436.975c11.704 0 21.877-6.592 27.009-16.254z" fill="#efedee"/></g></g><g><path d="m235.231 258.825c0-38.193-31.072-69.265-69.265-69.265h-4.378c-38.192 0-69.265 31.072-69.265 69.265 0 13.979 11.372 25.351 25.351 25.351h92.206c13.979 0 25.351-11.372 25.351-25.351zm-127.907 0c0-29.922 24.343-54.265 54.265-54.265h4.378c29.922 0 54.265 24.343 54.265 54.265 0 5.708-4.644 10.351-10.351 10.351h-92.206c-5.707 0-10.351-4.643-10.351-10.351z"/><path d="m498.646 307.176h-73.242c19.14-14.078 31.591-36.745 31.591-62.273 0-33.011-12.241-64.617-34.469-88.997-2.79-3.062-7.535-3.28-10.595-.49-3.062 2.791-3.28 7.535-.489 10.596 19.702 21.61 30.553 49.627 30.553 78.891 0 34.337-27.936 62.273-62.273 62.273h-83.03c13.737-11.63 22.482-28.984 22.482-48.351 0-55.807-42.842-101.788-97.362-106.803 20.35-15.744 45.141-24.253 71.418-24.253h31.631c22.576 0 44.492 6.437 63.379 18.614 3.483 2.245 8.123 1.244 10.368-2.239 2.244-3.481 1.241-8.123-2.239-10.367-21.315-13.743-46.043-21.007-71.508-21.007h-31.631c-35.482 0-68.562 13.751-93.52 38.792h-38.121c-59.146 0-107.265 48.119-107.265 107.265 0 19.366 8.744 36.721 22.482 48.351h-62.366c-7.963 0-14.44 6.478-14.44 14.441v7.402c0 20.984 17.071 38.057 38.056 38.057h20.253l6.745 11.43c7.938 13.453 22.573 21.811 38.194 21.811h305.59c15.621 0 30.256-8.357 38.194-21.811l6.745-11.43h21.253c20.984 0 38.056-17.072 38.056-38.057v-7.402c0-7.965-6.478-14.443-14.44-14.443zm-429.322-48.351c0-50.875 41.39-92.265 92.265-92.265h4.378c33.904 0 65.01 18.538 81.18 48.379 1.972 3.642 6.521 4.995 10.167 3.021 3.642-1.973 4.994-6.525 3.021-10.167-9.276-17.118-22.785-31.028-38.823-40.736 46.379 4.818 82.661 44.134 82.661 91.766 0 26.661-21.69 48.351-48.351 48.351h-5.073c13.737-11.63 22.481-28.984 22.481-48.351 0-5.87-.486-11.789-1.445-17.595-.675-4.086-4.536-6.854-8.621-6.178-4.087.675-6.854 4.535-6.178 8.622.825 5 1.244 10.097 1.244 15.15 0 26.661-21.689 48.351-48.35 48.351h-92.206c-26.659.003-48.35-21.687-48.35-48.348zm428.762 70.194c0 12.713-10.343 23.057-23.056 23.057h-326.356c-4.143 0-7.5 3.358-7.5 7.5s3.357 7.5 7.5 7.5h287.687l-2.247 3.807c-5.254 8.903-14.939 14.434-25.276 14.434h-305.59c-10.337 0-20.022-5.531-25.276-14.434l-2.247-3.807h40.986c4.143 0 7.5-3.358 7.5-7.5s-3.357-7.5-7.5-7.5h-78.655c-12.713 0-23.056-10.343-23.056-23.057v-6.843h483.086z"/></g></g></svg>