<svg id="Layer_1" enable-background="new 0 0 512 512" height="512" viewBox="0 0 512 512" width="512" xmlns="http://www.w3.org/2000/svg"><g><g><path d="m504.5 353.94c0 16.81-2.95 33.62-2.95 33.62s-9.97.11-27.07.27c-24.65.24-64.11.57-109.87.81h-217.42c-77.41-.41-136.74-1.08-136.74-1.08s-2.95-16.81-2.95-33.62 2.95-33.63 2.95-33.63 122.78-1.38 245.55-1.38c87.48 0 174.96.7 218.03 1.1 17.38.16 27.52.28 27.52.28s2.95 16.82 2.95 33.63z" fill="#e2a67d"/><path d="m504.5 353.94c0 16.81-2.95 33.62-2.95 33.62s-9.97.11-27.07.27c1.85-30.65.4-56.61-.45-67.8 17.38.16 27.52.28 27.52.28s2.95 16.82 2.95 33.63z" fill="#d18766"/><g><g><path d="m462.53 504.5h-42.06c0-54.53.83-116.68.83-116.68h40.4s.83 62.15.83 116.68z" fill="#d18766"/><path d="m441.78 504.5c.99-48.76.38-93.42-.11-116.68h20.03s.83 62.15.83 116.68z" fill="#c16756"/></g><g><path d="m91.53 504.5h-42.06c0-54.53.83-116.68.83-116.68h40.4s.83 62.15.83 116.68z" fill="#d18766"/><path d="m70.78 504.5c.99-48.76.38-93.42-.11-116.68h20.03s.83 62.15.83 116.68z" fill="#c16756"/></g></g><path d="m401.09 319.45s-41.83 112.51-145.09 185.05c-1.34-.94-2.68-1.89-4-2.86-100.34-72.59-141.09-182.19-141.09-182.19z" fill="#ff5f85"/><path d="m401.09 319.45s-41.83 112.51-145.09 185.05c-1.34-.94-2.68-1.89-4-2.86 53.39-64.39 90.72-132.64 113.9-182.19z" fill="#b2527e"/><path d="m363 318.93h-214s-6.49-97.94 85.07-111.41c6.76-1 14.06-1.53 21.93-1.53 114.48 0 107 112.94 107 112.94z" fill="#dcf8ff"/><path d="m363 318.93h-34.95c.39-10.68 1.04-103.62-93.98-111.41 6.76-1 14.06-1.53 21.93-1.53 114.48 0 107 112.94 107 112.94z" fill="#d2e1f9"/><g><path d="m77.67 277.22c-5.45 0-9.95-1.06-13.65-2.89-23.75-11.75-14.8-55.3-14.8-55.3s12.87-1.56 30.17-1.5c8.21.02 17.43.41 26.74 1.5 0 0 11.96 58.19-28.46 58.19z" fill="#dcf8ff"/><path d="m77.67 277.22c-5.45 0-9.95-1.06-13.65-2.89 21.55-10.82 16.67-48.78 15.37-56.8 8.21.02 17.43.41 26.74 1.5 0 0 11.96 58.19-28.46 58.19z" fill="#d2e1f9"/></g><g><path d="m438.67 277.224c-5.45 0-9.95-1.06-13.65-2.89-23.75-11.75-14.8-55.3-14.8-55.3s12.87-1.56 30.17-1.5c8.21.02 17.43.41 26.74 1.5 0 0 11.96 58.19-28.46 58.19z" fill="#dcf8ff"/><path d="m438.67 277.224c-5.45 0-9.95-1.06-13.65-2.89 21.55-10.82 16.67-48.78 15.37-56.8 8.21.02 17.43.41 26.74 1.5 0 0 11.96 58.19-28.46 58.19z" fill="#d2e1f9"/></g></g><g><path d="m508.935 319.016c-.625-3.555-3.693-6.162-7.303-6.202-.509-.006-21.919-.244-55.458-.522v-28.183c8.222-1.412 14.934-5.259 20.015-11.491 15.484-18.989 8.589-53.63 8.288-55.096-.651-3.168-3.26-5.562-6.473-5.939-29.463-3.457-57.509-.14-58.689.003-3.201.388-5.796 2.778-6.445 5.936-.301 1.466-7.196 36.107 8.288 55.096 5.081 6.231 11.793 10.079 20.015 11.491v28.063c-17.949-.139-38.486-.281-60.593-.402-.354-15.979-4.144-53.486-30.127-81.247-15.924-17.014-37.305-27.315-63.738-30.75 1.148-2.698 1.784-5.664 1.784-8.776 0-12.4-10.093-22.489-22.5-22.489s-22.5 10.089-22.5 22.489c0 3.115.637 6.084 1.788 8.784-19.829 2.59-36.88 9.057-50.871 19.321-3.34 2.45-4.062 7.144-1.611 10.483 2.451 3.341 7.145 4.061 10.483 1.611 16.02-11.751 37.119-17.71 62.711-17.71 31.777 0 56.48 9.153 73.425 27.204 22.193 23.643 25.685 56.891 26.112 71.001-31.504-.155-65.583-.262-99.536-.262-33.956 0-68.036.107-99.541.262.324-10.997 2.499-33.612 13.935-54.195 2.012-3.621.707-8.187-2.914-10.199-3.62-2.011-8.187-.707-10.199 2.914-13.204 23.766-15.569 49.162-15.855 61.558-20.345.112-39.36.241-56.252.369v-28.029c8.222-1.412 14.934-5.259 20.015-11.491 15.484-18.989 8.589-53.63 8.288-55.096-.651-3.168-3.26-5.562-6.473-5.939-29.463-3.457-57.509-.14-58.689.003-3.201.388-5.796 2.778-6.445 5.936-.301 1.466-7.196 36.107 8.288 55.096 5.081 6.231 11.793 10.079 20.015 11.491v28.147c-36.026.293-59.275.552-59.805.558-3.609.041-6.678 2.647-7.302 6.202-.125.713-3.066 17.655-3.066 34.923 0 17.266 2.941 34.209 3.066 34.921.624 3.555 3.693 6.162 7.302 6.202.265.003 12.294.138 32.338.322-.219 18.322-.737 66.315-.737 109.116 0 4.142 3.358 7.5 7.5 7.5s7.5-3.358 7.5-7.5c0-42.764.519-90.732.737-108.983 7.79.067 16.365.137 25.589.208.219 18.405.735 66.172.735 108.775 0 4.142 3.358 7.5 7.5 7.5s7.5-3.358 7.5-7.5c0-42.454-.51-90.015-.732-108.664 13.912.099 28.973.196 44.801.282 22.196 33.904 57.982 78.967 108.59 114.519 1.293.909 2.802 1.363 4.311 1.363s3.018-.455 4.311-1.363c17.604-12.367 34.599-26.706 50.514-42.618 2.929-2.929 2.929-7.678 0-10.607-2.93-2.929-7.678-2.928-10.607 0-13.998 13.997-28.854 26.719-44.218 37.872-49.86-36.202-84.357-81.833-104.701-114.157-14.604-23.203-24.155-42.974-29.154-54.244 40.159-.251 87.125-.454 133.855-.454 46.726 0 93.688.203 133.845.454-8.269 18.599-28.972 60.389-64.493 102.984-2.653 3.181-2.225 7.91.957 10.563 1.402 1.17 3.105 1.74 4.799 1.74 2.148 0 4.281-.918 5.764-2.697 12.44-14.917 23.086-29.642 32.065-43.356 15.815-.086 30.864-.183 44.766-.282-.222 18.649-.732 66.21-.732 108.664 0 4.142 3.358 7.5 7.5 7.5s7.5-3.358 7.5-7.5c0-42.602.515-90.37.735-108.775 9.224-.071 17.799-.141 25.589-.208.218 18.251.737 66.219.737 108.983 0 4.142 3.358 7.5 7.5 7.5s7.5-3.358 7.5-7.5c0-42.802-.519-90.794-.737-109.116 20.045-.184 32.074-.319 32.339-.322 3.61-.041 6.678-2.647 7.303-6.202.125-.713 3.065-17.655 3.065-34.921-.002-17.267-2.942-34.209-3.067-34.922zm-252.935-120.53c-4.136 0-7.5-3.36-7.5-7.489s3.364-7.489 7.5-7.489 7.5 3.36 7.5 7.489-3.364 7.489-7.5 7.489zm-194.202 64.671c-7.549-9.235-7.31-26.841-6.075-37.211 8.541-.691 25.738-1.634 43.897-.041 1.239 10.37 1.487 28.006-6.07 37.252-3.611 4.418-8.804 6.565-15.876 6.565s-12.265-2.147-15.876-6.565zm71.847 117.907c-55.8-.324-100.648-.765-116.722-.933-.83-6.191-1.923-16.234-1.923-26.192 0-9.935 1.095-19.994 1.925-26.194 13.287-.138 46.224-.463 88.921-.755 3.683 8.87 12.628 28.897 27.799 54.074zm289.153-117.907c-7.549-9.235-7.31-26.841-6.075-37.211 8.541-.691 25.738-1.634 43.897-.041 1.239 10.37 1.487 28.006-6.07 37.252-3.611 4.418-8.804 6.565-15.876 6.565s-12.265-2.147-15.876-6.565zm72.278 116.974c-16.072.168-60.9.609-116.678.933 15.135-25.105 24.074-45.166 27.763-54.074 42.694.292 75.629.617 88.915.755.83 6.201 1.924 16.26 1.924 26.194s-1.094 19.992-1.924 26.192z"/><path d="m111.937 129.625c.772 3.5 3.874 5.885 7.316 5.885.536 0 1.079-.058 1.624-.178 4.045-.893 6.6-4.896 5.708-8.94-3.671-16.633-10.904-32.386-21.498-46.82-2.451-3.338-7.144-4.058-10.484-1.609-3.339 2.451-4.06 7.145-1.609 10.484 9.351 12.741 15.725 26.595 18.943 41.178z"/><path d="m44.37 47.118c.101.048 10.246 4.888 22.652 14.689 1.376 1.087 3.016 1.615 4.644 1.615 2.215 0 4.41-.978 5.89-2.852 2.567-3.25 2.014-7.966-1.236-10.534-13.86-10.948-25.098-16.272-25.57-16.493-3.748-1.758-8.204-.146-9.966 3.597-1.763 3.744-.155 8.21 3.586 9.978z"/><path d="m197.875 73.841c.33 3.914 3.608 6.871 7.465 6.871.211 0 .424-.009.638-.027 4.127-.348 7.192-3.976 6.844-8.103-3.231-38.372-19.469-67.545-20.158-68.767-2.032-3.605-6.599-4.878-10.208-2.85-3.607 2.029-4.887 6.6-2.862 10.21.153.272 15.335 27.68 18.281 62.666z"/><path d="m318.953 61.411c1.803 0 3.612-.646 5.05-1.957 7.492-6.828 15.632-12.618 24.194-17.21 3.65-1.958 5.023-6.503 3.065-10.154-1.957-3.65-6.503-5.022-10.154-3.065-9.65 5.175-18.804 11.682-27.209 19.341-3.062 2.79-3.282 7.534-.492 10.595 1.48 1.626 3.51 2.45 5.546 2.45z"/><path d="m275.572 122.878c.763.246 1.537.363 2.298.363 3.167 0 6.111-2.023 7.138-5.197.043-.134 4.479-13.652 15.003-29.972 2.245-3.481 1.242-8.123-2.239-10.368-3.481-2.243-8.123-1.242-10.368 2.239-11.666 18.091-16.478 32.891-16.677 33.512-1.263 3.94.906 8.154 4.845 9.423z"/><path d="m379.978 139.534c1.335.979 2.887 1.45 4.426 1.45 2.307 0 4.584-1.061 6.055-3.062.345-.47 35.151-47.071 90.942-57.335 4.074-.75 6.769-4.66 6.02-8.733-.75-4.073-4.656-6.764-8.733-6.02-61.799 11.369-98.787 61.115-100.332 63.227-2.444 3.341-1.716 8.025 1.622 10.473z"/><circle cx="174" cy="358.769" r="7.5"/><circle cx="215" cy="358.769" r="7.5"/><circle cx="256" cy="358.769" r="7.5"/><circle cx="297" cy="358.769" r="7.5"/><circle cx="338" cy="358.769" r="7.5"/><circle cx="215" cy="400.779" r="7.5"/><circle cx="256" cy="400.779" r="7.5"/><circle cx="297" cy="400.779" r="7.5"/><circle cx="235.5" cy="441.659" r="7.5"/><circle cx="276.5" cy="441.659" r="7.5"/><circle cx="171.96" cy="131.398" r="7.5"/><circle cx="248.13" cy="40.328" r="7.5"/><circle cx="339.44" cy="152.278" r="7.5"/></g></g></svg>