<svg id="Layer_1" height="512" viewBox="0 0 512 512" width="512" xmlns="http://www.w3.org/2000/svg" data-name="Layer 1"><path d="m16 363.84h149.71v121.71h-149.71z" fill="#f98980"/><path d="m16 363.84h40v121.71h-40z" fill="#d87671"/><path d="m16 184.12h480v56.86h-480z" fill="#3e5c72"/><path d="m16 184.12h40v56.86h-40z" fill="#365060"/><path d="m416.16 128.98v6.41a13.584 13.584 0 0 1 -13.59 13.59h-74.86a13.582 13.582 0 0 1 -13.58-13.59v-6.41z" fill="#ea836f"/><path d="m314.13 98.43v30.55h.58 101.45v-30.55z" fill="#598baa"/><path d="m213.43 44.84h-74.86a13.591 13.591 0 0 0 -13.59 13.59v15.82h102.04v-15.82a13.591 13.591 0 0 0 -13.59-13.59z" fill="#3e5c72"/><path d="m124.98 74.25v61.14a13.591 13.591 0 0 0 13.59 13.59h74.86a13.591 13.591 0 0 0 13.59-13.59v-61.14z" fill="#598baa"/><path d="m346.29 363.84h149.71v121.71h-149.71z" fill="#f98980"/><path d="m16 240.98h149.71v122.86h-149.71z" fill="#ea836f"/><path d="m16 240.98h40v122.86h-40z" fill="#cc7266"/><path d="m346.29 240.98h149.71v122.86h-149.71z" fill="#ea836f"/><path d="m224.17 183.33v.79h-96.34v-.79-19.59h96.34z" fill="#f94730"/><path d="m414.31 183.33v.79h-95.33v-.79-19.59h95.33z" fill="#f94730"/><path d="m192.81 43.26v1.58h-33.62v-1.58a16.81 16.81 0 0 1 33.62 0z" fill="#a7a9ac"/><g fill="#284268"><path d="m76.857 407h28a6 6 0 0 0 0-12h-28a6 6 0 1 0 0 12z"/><path d="m407.143 407h28a6 6 0 1 0 0-12h-28a6 6 0 0 0 0 12z"/><path d="m76.857 284h28a6 6 0 0 0 0-12h-28a6 6 0 1 0 0 12z"/><path d="m407.143 284h28a6 6 0 1 0 0-12h-28a6 6 0 0 0 0 12z"/><path d="m171.931 200h-62.993a6 6 0 1 0 0 12h62.993a6 6 0 1 0 0-12z"/><path d="m86.816 201h-21.616a6 6 0 0 0 0 12h21.616a6 6 0 1 0 0-12z"/><path d="m42.816 201h-4.807a6 6 0 0 0 0 12h4.807a6 6 0 0 0 0-12z"/><path d="m495.879 178h-75.879v-14.258a5.527 5.527 0 0 0 -5.69-5.742h-95.334a5.765 5.765 0 0 0 -5.976 5.742v14.258h-83v-14.258a5.644 5.644 0 0 0 -5.833-5.742h-96.334a5.644 5.644 0 0 0 -5.833 5.742v14.258h-106a6 6 0 0 0 -6 6v301.55c0 3.314 2.686 6.45 6 6.45h149.714a6.648 6.648 0 0 0 6.286-6.45v-238.55h168v238.55a6.648 6.648 0 0 0 6.286 6.45h149.714c3.314 0 6-3.136 6-6.45v-301.429a6.138 6.138 0 0 0 -6.121-6.121zm-170.879-8h83v8h-83zm-165 310h-138v-110h138zm0-122h-138v-111h138zm330 122h-138v-110h138zm0-122h-138v-111h138zm0-123h-468v-45h116a6 6 0 0 0 0-12h-4v-8h84v8h-40a6 6 0 0 0 0 12h312z"/><path d="m138.569 155h74.862a19.611 19.611 0 0 0 19.569-19.607v-23.423a24.705 24.705 0 0 0 19-24.092v-.14a24.707 24.707 0 0 0 -19-24.093v-5.219a19.457 19.457 0 0 0 -19.569-19.426h-15.056a22.807 22.807 0 0 0 -44.75 0h-15.056a19.457 19.457 0 0 0 -19.569 19.426v5.417a24.706 24.706 0 0 0 -19 24.093v.14a24.705 24.705 0 0 0 19 24.092v23.225a19.611 19.611 0 0 0 19.569 19.607zm94.431-78.64a13.066 13.066 0 0 1 7 11.378v.14a13.066 13.066 0 0 1 -7 11.378zm-57-43.75a10.442 10.442 0 0 1 9.854 6.39h-19.708a10.442 10.442 0 0 1 9.854-6.39zm-45 25.816a7.445 7.445 0 0 1 7.569-7.426h74.862a7.445 7.445 0 0 1 7.569 7.426v9.574h-90zm0 21.574h90v55.393a7.6 7.6 0 0 1 -7.569 7.607h-74.862a7.6 7.6 0 0 1 -7.569-7.607zm-19 8.076v-.14a13.067 13.067 0 0 1 7-11.379v22.9a13.066 13.066 0 0 1 -7-11.381z"/><path d="m308 98.426v36.967a19.734 19.734 0 0 0 19.712 19.607h74.862a19.49 19.49 0 0 0 19.426-19.607l.55-6.393h54.65a6 6 0 1 0 0-12h-55.2v-18.574c0-3.313-2.526-6.426-5.84-6.426h-102.034a6.486 6.486 0 0 0 -6.126 6.426zm12 5.574h90v19h-90zm0 31h90v.393a7.477 7.477 0 0 1 -7.426 7.607h-74.862a7.721 7.721 0 0 1 -7.712-7.607z"/><path d="m371 75.15v-28a6 6 0 1 0 -12 0v28a6 6 0 0 0 12 0z"/><path d="m401 75.15v-28a6 6 0 1 0 -12 0v28a6 6 0 0 0 12 0z"/><path d="m341 75.15v-28a6 6 0 1 0 -12 0v28a6 6 0 0 0 12 0z"/></g></svg>