<svg id="Capa_1" enable-background="new 0 0 513.087 513.087" height="512" viewBox="0 0 513.087 513.087" width="512" xmlns="http://www.w3.org/2000/svg"><g><g><g><g><g><path d="m125.183 223.607h158.807v80.23h-158.807z" fill="#f8f7f8"/><path d="m125.968 283.416v-59.809h-.785v80.23h158.807v-20.421z" fill="#efedee"/><g><path d="m218.653 303.84h169.34 12.82c11.07 0 21.1-4.49 28.36-11.75s11.75-17.29 11.75-28.37c0-22.15-17.96-40.11-40.11-40.11h-12.82-45.13-26.44-97.77l-20.198 10.024v55.808z" fill="#f8f7f8"/></g><path d="m426.839 278.256h-12.82-127.173c-7.317 0-13.182-5.994-13.085-13.31.003-.242.005-.484.005-.726v-.996c0-15.584-6.572-29.654-17.077-39.615h-32.208-5.828l-20.198 10.024v49.782 6.026l20.198 14.398h169.34 12.82c11.07 0 21.1-4.49 28.36-11.75 4.35-4.35 7.707-9.709 9.698-15.679-3.796 1.193-7.845 1.846-12.032 1.846z" fill="#efedee"/><path d="m219.149 303.837h-13.816c-21.88 0-39.617-17.737-39.617-39.617v-.996c0-21.88 17.737-39.617 39.617-39.617h13.816c21.88 0 39.617 17.737 39.617 39.617v.996c0 21.88-17.737 39.617-39.617 39.617z" fill="#f8f7f8"/><path d="m187.004 264.22v-.996c0-20.619 15.754-37.553 35.881-39.436-1.231-.115-2.476-.181-3.736-.181h-13.816c-21.88 0-39.617 17.737-39.617 39.617v.996c0 21.88 17.737 39.617 39.617 39.617h13.816c1.261 0 2.506-.066 3.736-.181-20.127-1.884-35.881-18.817-35.881-39.436z" fill="#efedee"/><path d="m205.83 276.592c-7.097 0-12.87-5.774-12.87-12.87s5.774-12.87 12.87-12.87h12.821c7.096 0 12.869 5.774 12.869 12.87s-5.774 12.87-12.869 12.87z" fill="#a6d786"/></g><g><path d="m353.866 143.377h-173.624v80.23h173.624c22.155 0 40.115-17.96 40.115-40.115s-17.96-40.115-40.115-40.115z" fill="#f8f7f8"/><path d="m374.072 201.136h-135.508c-7.025 0-12.426-6.022-11.896-13.026.103-1.36.155-2.733.155-4.119v-.996c0-15.586-6.573-29.657-17.079-39.617h-41.501v80.23h41.501 144.123c17.375 0 32.166-11.048 37.741-26.501-5.299 2.578-11.248 4.029-17.536 4.029z" fill="#efedee"/><path d="m172.206 223.607h-13.816c-21.88 0-39.617-17.737-39.617-39.617v-.996c0-21.88 17.737-39.617 39.617-39.617h13.816c21.88 0 39.617 17.737 39.617 39.617v.996c0 21.88-17.738 39.617-39.617 39.617z" fill="#f8f7f8"/><path d="m141.373 183.99v-.996c0-20.395 15.398-37.192 35.21-39.378-1.443-.159-2.892-.239-4.377-.239h-13.816c-21.88 0-39.617 17.737-39.617 39.617v.996c0 21.88 17.737 39.617 39.617 39.617h13.816c1.485 0 2.937-.08 4.38-.239-19.812-2.186-35.213-18.983-35.213-39.378z" fill="#efedee"/><path d="m158.887 196.362c-7.097 0-12.87-5.774-12.87-12.87s5.774-12.87 12.87-12.87h12.821c7.096 0 12.869 5.774 12.869 12.87s-5.774 12.87-12.869 12.87z" fill="#f4bb87"/></g><g><path d="m125.183 303.837h30.331c12.007-9.064 19.784-23.448 19.784-39.617v-.996c0-16.169-7.777-30.553-19.784-39.617h-30.331z" fill="#efedee"/><path d="m125.681 303.837h-13.816c-21.88 0-39.617-17.737-39.617-39.617v-.996c0-21.88 17.737-39.617 39.617-39.617h13.816c21.88 0 39.617 17.737 39.617 39.617v.996c0 21.88-17.737 39.617-39.617 39.617z" fill="#f8f7f8"/><path d="m96.527 264.22v-.996c0-20.105 14.98-36.7 34.385-39.262-1.713-.226-3.457-.354-5.232-.354h-13.816c-21.88 0-39.617 17.737-39.617 39.617v.996c0 21.88 17.737 39.617 39.617 39.617h13.816c1.775 0 3.519-.128 5.232-.355-19.405-2.563-34.385-19.158-34.385-39.263z" fill="#efedee"/><path d="m112.362 276.592c-7.097 0-12.87-5.774-12.87-12.87s5.774-12.87 12.87-12.87h12.821c7.096 0 12.869 5.774 12.869 12.87s-5.774 12.87-12.869 12.87z" fill="#a6d786"/></g></g><path d="m329.033 164.101-26.762-7.489c-3.09-.865-4.894-4.071-4.029-7.161l3.945-14.098c.865-3.09 4.071-4.894 7.161-4.029l26.762 7.489c3.09.865 4.894 4.071 4.029 7.161l-3.945 14.098c-.865 3.09-4.071 4.894-7.161 4.029z" fill="#a6d786"/><g id="XMLID_197_"><g><path d="m339.683 196.48 3.18 27.13h-26.44l-2.82-24.07c-.38-3.19 1.9-6.08 5.09-6.45l14.54-1.71c3.19-.37 6.07 1.91 6.45 5.1z" fill="#f4bb87"/></g></g><path d="m316.423 223.607h26.44l-2.634-22.471h-26.439z" fill="#f2ab6a"/><path d="m348.277 252.417 21.336-3.431c3.168-.509 6.149 1.646 6.659 4.814l2.581 16.053c.509 3.168-1.646 6.149-4.814 6.659l-21.336 3.431c-3.168.509-6.149-1.646-6.659-4.814l-2.581-16.053c-.509-3.169 1.646-6.15 4.814-6.659z" fill="#a6d786"/><path d="m225.999 143.377h29.436l6.564 12.97c1.449 2.863.302 6.358-2.561 7.807l-13.062 6.61c-2.863 1.449-6.358.302-7.807-2.561l-12.548-24.795c-.005-.01-.009-.021-.014-.032" fill="#f4bb87"/><g id="XMLID_198_"><g><path d="m303.753 281.16c2.96 1.24 4.35 4.64 3.11 7.6l-6.32 15.08h-28.47l10.57-25.23c1.24-2.96 4.65-4.35 7.61-3.11z" fill="#f2ab6a"/></g></g><path d="m62.592 348.737 8.921 15.119c6.627 11.23 18.695 18.122 31.735 18.122h305.591c13.04 0 25.108-6.892 31.735-18.122l8.921-15.119 13.987-25.262h-414.127z" fill="#e4e1e5"/></g><g id="XMLID_199_"><g><path d="m436.663 245.72-13 11.11c-2.44 2.08-6.11 1.8-8.19-.64l-10.28-12.03c-2.08-2.44-1.79-6.1.65-8.19l10.71-9.15c8.73 3.73 15.87 10.46 20.11 18.9z" fill="#f4bb87"/></g></g><g><path d="m272.073 303.84h-257.63c-3.84 0-6.94 3.1-6.94 6.94v7.4c0 16.88 13.68 30.56 30.55 30.56h436.98c16.87 0 30.55-13.68 30.55-30.56v-7.4c0-3.84-3.1-6.94-6.94-6.94h-198.1z" fill="#f8f7f8"/></g><path d="m71.205 330.976c-15.713 0-28.652-11.869-30.354-27.136h-26.408c-3.84 0-6.94 3.1-6.94 6.94v7.4c0 16.88 13.68 30.56 30.55 30.56h436.98c12.302 0 22.913-7.286 27.755-17.771z" fill="#efedee"/></g><g><path d="m185.46 263.722c0 11.232 9.138 20.37 20.37 20.37h12.821c11.232 0 20.37-9.138 20.37-20.37s-9.138-20.37-20.37-20.37h-12.821c-11.232 0-20.37 9.138-20.37 20.37zm20.37-5.37h12.821c2.961 0 5.37 2.409 5.37 5.37s-2.409 5.37-5.37 5.37h-12.821c-2.961 0-5.37-2.409-5.37-5.37s2.409-5.37 5.37-5.37z"/><path d="m158.887 203.862h12.821c11.231 0 20.369-9.138 20.369-20.37s-9.138-20.37-20.369-20.37h-12.821c-11.232 0-20.371 9.138-20.371 20.37s9.139 20.37 20.371 20.37zm0-25.74h12.821c2.96 0 5.369 2.409 5.369 5.37s-2.409 5.37-5.369 5.37h-12.821c-2.961 0-5.371-2.409-5.371-5.37s2.41-5.37 5.371-5.37z"/><path d="m145.552 263.722c0-11.232-9.138-20.37-20.369-20.37h-12.821c-11.232 0-20.371 9.138-20.371 20.37s9.138 20.37 20.371 20.37h12.821c11.232 0 20.369-9.138 20.369-20.37zm-38.56 0c0-2.961 2.409-5.37 5.371-5.37h12.821c2.96 0 5.369 2.409 5.369 5.37s-2.409 5.37-5.369 5.37h-12.821c-2.962 0-5.371-2.409-5.371-5.37z"/><path d="m338.64 276.319c.564 3.51 2.462 6.591 5.343 8.674 2.294 1.659 4.993 2.527 7.769 2.527.71 0 1.427-.057 2.142-.172l21.336-3.431c7.246-1.165 12.193-8.007 11.028-15.254l-2.581-16.054c-1.166-7.245-8.003-12.196-15.254-11.027l-21.336 3.431h-.001c-7.245 1.166-12.192 8.009-11.027 15.254zm30.495-19.66 2.044 12.716-17.999 2.894-2.044-12.716z"/><path d="m287.195 175.992h-6.411c-4.142 0-7.5 3.358-7.5 7.5s3.358 7.5 7.5 7.5h6.411c4.142 0 7.5-3.358 7.5-7.5s-3.358-7.5-7.5-7.5z"/><path d="m245.107 190.526h-7.526c-4.142 0-7.5 3.358-7.5 7.5s3.358 7.5 7.5 7.5h7.526c4.142 0 7.5-3.358 7.5-7.5s-3.358-7.5-7.5-7.5z"/><path d="m498.646 296.337h-20.193c-4.142 0-7.5 3.358-7.5 7.5s3.358 7.5 7.5 7.5h19.634v6.844c0 12.713-10.343 23.056-23.056 23.056h-279.586c-4.142 0-7.5 3.358-7.5 7.5s3.358 7.5 7.5 7.5h240.916l-2.246 3.807c-5.253 8.903-14.938 14.434-25.275 14.434h-305.592c-10.337 0-20.022-5.531-25.275-14.434l-2.246-3.807h87.73c4.142 0 7.5-3.358 7.5-7.5s-3.358-7.5-7.5-7.5h-125.4c-12.714-.001-23.057-10.343-23.057-23.057v-6.844h431.464c4.142 0 7.5-3.358 7.5-7.5s-3.358-7.5-7.5-7.5h-11.009c8.035-8.525 12.969-20.002 12.969-32.615 0-26.255-21.36-47.615-47.615-47.615h-12.3c8.033-8.528 12.972-20.002 12.972-32.615 0-26.254-21.36-47.614-47.615-47.614h-9.118c-1.666-1.999-3.928-3.534-6.618-4.287l-26.761-7.489c-7.066-1.975-14.426 2.164-16.404 9.23l-.712 2.545h-122.028c-.006 0-.013 0-.019 0h-13.816c-25.98 0-47.117 21.137-47.117 47.117v.996c0 12.403 4.825 23.695 12.687 32.117h-12.095c-25.98 0-47.117 21.137-47.117 47.117v.996c0 12.405 4.824 23.697 12.689 32.117h-62.996c-7.963.001-14.441 6.479-14.441 14.442v7.402c0 20.984 17.072 38.056 38.056 38.056h20.253l6.745 11.43c7.938 13.454 22.573 21.811 38.194 21.811h305.591c15.621 0 30.256-8.357 38.194-21.811l6.745-11.43h21.253c20.984 0 38.056-17.072 38.056-38.056v-7.402c0-7.963-6.478-14.441-14.441-14.441zm-279.497-65.23c17.709 0 32.117 14.408 32.117 32.117v.996c0 17.709-14.408 32.117-32.117 32.117h-13.816c-17.709 0-32.117-14.408-32.117-32.117v-.996c0-17.709 14.408-32.117 32.117-32.117zm-48.243 0c-2.011 2.154-3.822 4.495-5.405 6.996-1.581-2.5-3.386-4.843-5.395-6.996zm-5.416 58.23c1.585 2.503 3.403 4.844 5.417 7h-10.818c2.013-2.154 3.817-4.499 5.401-7zm130.068 7h-12.208l5.56-13.266 10.384 4.353zm131.353-52.149-6.836 5.841-8.077-9.453 5.613-4.796c3.615 2.181 6.775 5.043 9.3 8.408zm-40.43-60.696c0 17.984-14.631 32.615-32.615 32.615h-4.332l-2.406-20.505c-.855-7.29-7.477-12.521-14.771-11.668l-14.538 1.706c-3.531.414-6.69 2.179-8.894 4.969s-3.189 6.271-2.775 9.802l1.842 15.697h-11.329c-4.142 0-7.5 3.358-7.5 7.5s3.358 7.5 7.5 7.5h103.417c-2.171 2.223-3.488 5.105-3.734 8.24-.278 3.544.841 6.985 3.15 9.688l10.274 12.024c2.629 3.076 6.368 4.656 10.128 4.656 3.06 0 6.134-1.046 8.637-3.185l4.5-3.845c.256 1.642.39 3.323.39 5.036 0 17.984-14.631 32.615-32.615 32.615h-88.986l1.959-4.674c2.837-6.769-.362-14.583-7.13-17.42l-13.502-5.659c-6.771-2.836-14.583.362-17.42 7.13l-8.644 20.624h-13.509c7.865-8.419 12.689-19.712 12.689-32.117v-.996c0-12.403-4.825-23.695-12.687-32.117h11.095c4.142 0 7.5-3.358 7.5-7.5s-3.358-7.5-7.5-7.5h-58.038c7.862-8.422 12.687-19.714 12.687-32.117v-.996c0-12.403-4.825-23.694-12.686-32.117h14.757l10.483 20.714c2.342 4.627 7.035 7.299 11.897 7.298 2.019 0 4.067-.46 5.988-1.433l13.062-6.61c3.172-1.605 5.53-4.35 6.638-7.729s.834-6.986-.771-10.157l-1.055-2.084h22.901c-.028 2.311.537 4.599 1.701 6.667 1.744 3.099 4.589 5.333 8.013 6.29l26.762 7.489c1.195.334 2.398.494 3.583.494 5.819 0 11.179-3.852 12.822-9.724l3.138-11.216h7.311c17.982.001 32.613 14.631 32.613 32.615zm-63.386 32.615-1.85-15.766 11.182-1.312 2.004 17.079h-11.336zm-72.271-65.229 3.719 7.349-10.046 5.084-6.292-12.433zm81.637-5.297-3.034 10.843-23.506-6.578 3.034-10.842zm-206.189 37.413c0-17.709 14.408-32.117 32.117-32.117h13.309.01.517c17.701.01 32.098 14.414 32.098 32.117v.996c0 17.709-14.408 32.117-32.117 32.117h-13.816c-17.709 0-32.117-14.408-32.117-32.117v-.996zm-46.525 81.226v-.996c0-17.709 14.408-32.117 32.117-32.117h13.816c17.709 0 32.117 14.408 32.117 32.117v.996c0 17.709-14.408 32.117-32.117 32.117h-13.816c-17.709 0-32.117-14.408-32.117-32.117z"/></g></g></svg>