<svg id="Layer_1" height="512" viewBox="0 0 512 512" width="512" xmlns="http://www.w3.org/2000/svg" data-name="Layer 1"><path d="m90.14 104.72v390.66l165.86-44.27 165.86 44.27v-390.66z" fill="#f43b3b"/><path d="m372.05 79.11v25.61h-22.1v-25.61-.35h22.1z" fill="#b0b5ca"/><path d="m162.05 79.11v25.61h-22.1v-25.61-.35h22.1z" fill="#b0b5ca"/><path d="m56.67 29.05h398.66v35.48h-398.66z" fill="#c79a83"/><path d="m338.26 16.62h45.48v62.14h-45.48z" fill="#d4e1f4"/><path d="m128.26 16.62h45.48v62.14h-45.48z" fill="#d4e1f4"/><path d="m122.14 104.72v349l133.86-35.73 133.86 35.73v-349z" fill="#fb6771"/><path d="m305.29 265.99-24.65 24.02 5.82 33.92-30.46-16.02-30.46 16.02 5.82-33.92-24.65-24.02 34.06-4.95 15.23-30.86 15.23 30.86z" fill="#5fa8ed"/><path d="m271 421.994 118.86 31.726v-8.008l-103.86-27.722z" fill="#fb6771"/><path d="m122.14 104.72v349l30-8.008v-340.992z" fill="#ff9ca6"/><path d="m389.86 349.04v32.14h-.16-267.4-.16v-32.14h.16 267.4z" fill="#f3e08d"/><path d="m389.86 173.04v32.14h-.16-267.4-.16v-32.14h.16 267.4z" fill="#f3e08d"/><g fill="#284268"><path d="m56.675 70.533h65.58v8.224a6 6 0 0 0 6 6h5.7v13.964h-43.815a6 6 0 0 0 -6 6v390.661a6 6 0 0 0 7.547 5.8l164.313-43.861 164.313 43.858a6 6 0 0 0 7.547-5.8v-390.658a6 6 0 0 0 -6-6h-43.813v-13.964h5.7a6 6 0 0 0 6-6v-8.224h65.58a6 6 0 0 0 6-6v-35.481a6 6 0 0 0 -6-6h-65.58v-6.434a6 6 0 0 0 -6-6h-45.49a6 6 0 0 0 -6 6v6.434h-152.512v-6.434a6 6 0 0 0 -6-6h-45.49a6 6 0 0 0 -6 6v6.434h-65.58a6 6 0 0 0 -6 6v35.481a6 6 0 0 0 6 6zm333.07-35.481h59.58v23.481h-59.58zm-261.605 143.984h255.72v20.141h-255.72zm0 32.141h255.72v131.859h-255.72zm0 143.859h255.72v20.141h-255.72zm0 32.141h255.72v58.732l-126.313-33.715a6 6 0 0 0 -3.094 0l-126.313 33.715zm265.376 71.3a6 6 0 0 0 2.344-4.758v-343h20v376.851l-158.313-42.256a6 6 0 0 0 -3.094 0l-158.313 42.256v-376.849h20v343a6 6 0 0 0 7.547 5.8l132.313-35.321 132.313 35.317a6 6 0 0 0 5.203-1.038zm-9.656-347.756v56.315h-255.72v-56.315zm-237.907-12v-13.964h10.094v13.964zm210 0v-13.964h10.094v13.964zm-11.7-76.1h33.49v50.136h-33.49zm-164.508 12.431h152.51v23.481h-152.51zm-11.7 49.705h5.7a6 6 0 0 0 6-6v-8.224h152.51v8.224a6 6 0 0 0 6 6h5.7v13.964h-175.908zm-33.79-62.139h33.49v50.139h-33.49zm-71.58 12.434h59.58v23.481h-59.58z"/><path d="m306.148 260.048-30.933-4.494-13.834-28.032a6 6 0 0 0 -10.762 0l-13.834 28.032-30.933 4.494a6 6 0 0 0 -3.327 10.234l22.384 21.82-5.284 30.81a6 6 0 0 0 8.706 6.325l27.669-14.547 27.669 14.547a6 6 0 0 0 8.706-6.325l-5.284-30.81 22.384-21.82a6 6 0 0 0 -3.327-10.234zm-29.693 25.663a6 6 0 0 0 -1.726 5.31l3.763 21.937-19.7-10.357a6 6 0 0 0 -5.584 0l-19.7 10.357 3.763-21.937a6 6 0 0 0 -1.726-5.31l-15.938-15.536 22.025-3.2a6 6 0 0 0 4.518-3.282l9.85-19.959 9.85 19.959a6 6 0 0 0 4.518 3.282l22.025 3.2z"/><path d="m156.457 225.554a6 6 0 0 0 -6 6v7.151a6 6 0 1 0 12 0v-7.151a6 6 0 0 0 -6-6z"/><path d="m156.457 252.666a6 6 0 0 0 -6 6v57.885a6 6 0 0 0 12 0v-57.885a6 6 0 0 0 -6-6z"/></g></svg>