<svg id="Layer_1" height="512" viewBox="0 0 512 512" width="512" xmlns="http://www.w3.org/2000/svg" data-name="Layer 1"><path d="m371.66 86.34h-231.32a72.29 72.29 0 0 0 -72.29 72.29h375.9a72.29 72.29 0 0 0 -72.29-72.29z" fill="#bcdcfc"/><path d="m180.34 86.34h-40a72.29 72.29 0 0 0 -72.29 72.29h40a72.29 72.29 0 0 1 72.29-72.29z" fill="#598baa"/><path d="m68.05 177.43v279.07a40 40 0 0 0 40 40h295.9a40 40 0 0 0 40-40v-279.07z" fill="#3e5c72"/><path d="m108.05 456.5v-279.07h-40v279.07a40 40 0 0 0 40 40h40a40 40 0 0 1 -40-40z" fill="#304756"/><path d="m474.43 177.43a24.455 24.455 0 1 1 0 48.91h-30.48v-48.91z" fill="#304756"/><path d="m68.05 177.43v48.91h-30.48a24.455 24.455 0 1 1 0-48.91z" fill="#2a3e49"/><path d="m236 44.42h40v41.92h-40z" fill="#598baa"/><path d="m289.37 15.5h-66.74a10 10 0 0 0 -10 10v8.92a10 10 0 0 0 10 10h66.74a10 10 0 0 0 10-10v-8.92a10 10 0 0 0 -10-10z" fill="#304756"/><path d="m68.05 318.43h375.9v70h-375.9z" fill="#d05458"/><path d="m68.05 318.43h40v70h-40z" fill="#a54652"/><g fill="#284268"><path d="m474.434 172h-436.868a30.5 30.5 0 0 0 0 61h24.434v223a46.094 46.094 0 0 0 46.048 46h295.9a46.094 46.094 0 0 0 46.052-46v-223h24.434a30.5 30.5 0 0 0 0-61zm-412.434 49h-24.434a18.5 18.5 0 0 1 0-37h24.434zm376 235a34.079 34.079 0 0 1 -34.048 34h-295.9a34.079 34.079 0 0 1 -34.052-34v-62h364zm0-144h-280a6 6 0 0 0 0 12h280v58h-364v-58h44a6 6 0 0 0 0-12h-44v-128h364zm36.434-91h-24.434v-37h24.434a18.5 18.5 0 0 1 0 37z"/><path d="m93 296.287a6 6 0 0 0 6-6v-66.614a6 6 0 0 0 -12 0v66.614a6 6 0 0 0 6 6z"/><path d="m93 209.287a6 6 0 0 0 6-6v-4.807a6 6 0 0 0 -12 0v4.807a6 6 0 0 0 6 6z"/><path d="m140.337 81a78.254 78.254 0 0 0 -78.289 78.145 5.878 5.878 0 0 0 6 5.855h375.9a5.878 5.878 0 0 0 6-5.855 78.254 78.254 0 0 0 -78.285-78.145h-89.663v-30h7.373a15.776 15.776 0 0 0 15.627-16.084v-8.916a15.7 15.7 0 0 0 -15.627-16h-66.746a15.7 15.7 0 0 0 -15.627 16v8.916a15.776 15.776 0 0 0 15.627 16.084h7.373v30zm82.663-42a4 4 0 0 1 -4-4v-9a4 4 0 0 1 4-4h67a4 4 0 0 1 4 4v9a4 4 0 0 1 -4 4zm47 12v30h-28v-30zm101.663 42a65.936 65.936 0 0 1 66.02 60h-363.366a65.936 65.936 0 0 1 66.02-60z"/></g></svg>