<svg id="Layer_1" enable-background="new 0 0 512 512" height="512" viewBox="0 0 512 512" width="512" xmlns="http://www.w3.org/2000/svg"><g><g><path d="m461.998 153.011s-8.6 17.83-20.02 48.65c-19.46 52.53-47.1 142.8-54.26 246.74-1.13 16.36-1.75 33.06-1.75 50 0 0-12.76 1.32-33.58 2.73-23.94 1.62-58.53 3.37-96.62 3.37-71.2 0-130.2-6.1-130.2-6.1 0-16.94-.62-33.63-1.75-49.98-7.15-103.95-34.8-194.22-54.26-246.76-11.42-30.82-20.02-48.65-20.02-48.65s96.77-7.36 206.23-7.36c70.64 0 135.99 3.07 173.46 5.24 20.6 1.19 32.77 2.12 32.77 2.12z" fill="#97b0bf"/><path d="m429.228 150.891c20.6 1.19 32.77 2.12 32.77 2.12s-8.6 17.83-20.02 48.65c-19.46 52.53-47.1 142.8-54.26 246.74-1.13 16.36-1.75 33.06-1.75 50 0 0-12.76 1.32-33.58 2.73 1.29-172.25 62.91-319.2 76.84-350.24z" fill="#7c97a5"/><path d="m387.718 448.401c-1.13 16.36-1.75 33.06-1.75 50 0 0-12.76 1.32-33.58 2.73-23.94 1.62-58.53 3.37-96.62 3.37-71.2 0-130.2-6.1-130.2-6.1 0-16.94-.62-33.63-1.75-49.98l.09-.02s59.75 6.1 131.86 6.1c39 0 74.39-1.78 98.66-3.43 20.6-1.39 33.2-2.67 33.2-2.67z" fill="#58768c"/><path d="m461.998 153.011s-8.6 17.83-20.02 48.65c-8.52-.53-19.49-1.18-32.42-1.85-38.49-1.98-94.27-4.16-153.79-4.16-79.5 0-152.31 3.88-186.21 6.01-11.42-30.82-20.02-48.65-20.02-48.65s96.77-7.36 206.23-7.36c70.64 0 135.99 3.07 173.46 5.24 20.6 1.19 32.77 2.12 32.77 2.12z" fill="#58768c"/><path d="m387.628 448.401h.09c-1.13 16.36-1.75 33.06-1.75 50 0 0-12.76 1.32-33.58 2.73.13-16.96.84-33.68 2.04-50.06 20.6-1.39 33.2-2.67 33.2-2.67z" fill="#3e5868"/><path d="m429.228 150.891c20.6 1.19 32.77 2.12 32.77 2.12s-8.6 17.83-20.02 48.65c-8.52-.53-19.49-1.18-32.42-1.85 8.63-23.61 15.9-40.52 19.67-48.92z" fill="#3e5868"/><path d="m360.768 129.491c4.8 6.33 8.73 12.55 11.93 18.63l-36.04-.39-136.15-1.49c12.89-17.31 36.55-38.63 76.39-42.89 0 0 19.91-1.13 29.29-26.96 1.48-4.06 3.13-8.55 4.86-13.24 9.28-25.07 20.94-55.65 20.94-55.65s11.37 2.83 25.79 8.2c7.2 2.68 15.17 6 22.85 9.91 0 0-9.97 27.19-20.44 53.74-1.64 4.16-3.29 8.3-4.92 12.32-8.82 21.76 5.5 37.82 5.5 37.82z" fill="#77e0ab"/><path d="m360.768 129.491c4.8 6.33 8.73 12.55 11.93 18.63l-36.04-.39c-18.03-30.51-11-45.03-11-45.03l32.12-87c7.2 2.68 15.17 6 22.85 9.91 0 0-9.97 27.19-20.44 53.74-1.64 4.16-3.29 8.3-4.92 12.32-8.82 21.76 5.5 37.82 5.5 37.82z" fill="#65c1b0"/><path d="m380.628 25.611s-9.97 27.19-20.44 53.74c-7.45-3.63-15.35-6.63-22.58-9.02-14.64-4.84-26.56-7.18-26.56-7.18 9.28-25.07 20.94-55.65 20.94-55.65s11.37 2.83 25.79 8.2c7.2 2.68 15.17 6 22.85 9.91z" fill="#e2a67d"/><path d="m380.628 25.611s-9.97 27.19-20.44 53.74c-7.45-3.63-15.35-6.63-22.58-9.02l20.17-54.63c7.2 2.68 15.17 6 22.85 9.91z" fill="#d18766"/></g><g><g><g><path d="m499.538 218.122c-12.812-11.149-32.868-13.355-53.135-6.68 12.42-34.42 22.219-54.898 22.354-55.179 1.076-2.233.98-4.854-.259-7.002-1.238-2.147-3.457-3.545-5.929-3.733-.575-.044-34.914-2.619-85.341-4.714-3.061-5.374-6.951-11.149-10.871-16.313-.112-.125-11.132-12.773-4.146-30.016 11.941-29.472 25.32-65.93 25.454-66.294 1.307-3.564-.256-7.543-3.639-9.266-23.553-11.988-49.156-18.434-50.235-18.702-3.681-.915-7.469 1.062-8.821 4.606-.164.431-16.546 43.416-25.841 69.002-7.447 20.499-22.038 22.001-22.66 22.054-3.935.222-7.061 3.475-7.061 7.466 0 4.135 3.352 7.488 7.488 7.488.143 0 .283-.013.424-.021l.001.021c1.014-.058 24.963-1.761 35.907-31.887.809-2.226 1.673-4.589 2.574-7.041 7.722 1.87 21.51 5.621 34.776 11.299-.76 1.901-1.518 3.786-2.269 5.642-9.887 24.403 4.43 42.76 6.606 45.345 1.477 1.951 2.884 3.926 4.227 5.914-30.946-1.116-66.518-1.959-103.381-1.959-13.049 0-25.932.106-38.51.292 7.657-7.458 16.352-13.535 25.998-18.13 3.739-1.782 5.326-6.257 3.545-9.997-1.781-3.739-6.257-5.326-9.997-3.545-15.628 7.446-29.087 18.219-40.058 32.048-82.446 1.805-146.996 6.646-147.785 6.706-2.472.188-4.691 1.585-5.929 3.733-1.238 2.147-1.335 4.769-.259 7.002.181.376 9.89 20.713 22.258 54.987-20.071-6.445-39.869-4.171-52.56 6.873-13.267 11.545-16.091 30.115-7.751 50.949 7.213 18.018 20.89 29.139 38.512 31.314 2.1.26 4.23.386 6.377.386 13.818 0 28.273-5.239 39.122-13.877 3.624 13.538 7.137 27.861 10.39 42.855.878 4.048 4.872 6.615 8.92 5.74 4.048-.878 6.618-4.872 5.74-8.919-10.194-46.994-22.912-87.617-33.793-118.034 38.08-2.247 104.073-5.383 175.783-5.383 14.014 0 28.581.123 43.298.365 4.143.035 7.554-3.234 7.623-7.375.068-4.142-3.234-7.554-7.376-7.623-14.799-.243-29.45-.367-43.545-.367-75.011 0-143.778 3.412-181.188 5.679-5.654-14.973-10.504-26.563-13.787-34.091 28.12-1.865 107.938-6.588 194.975-6.588 87.004 0 166.797 4.72 194.945 6.586-3.292 7.509-8.144 19.071-13.815 34.089-22.52-1.364-55.87-3.109-95.222-4.31-4.104-.137-7.599 3.127-7.725 7.268-.126 4.14 3.128 7.599 7.268 7.725 36.63 1.117 68.031 2.708 90.278 4.02-4.658 13.037-9.661 27.984-14.684 44.601-14.032 46.419-30.217 113.226-36.071 188.38-16.996 1.511-67.263 5.489-124.977 5.489-57.689 0-107.938-3.974-124.951-5.485-1.969-25.495-5.223-51.456-9.761-77.658-.707-4.081-4.591-6.814-8.67-6.11-4.082.707-6.817 4.589-6.111 8.67 7.822 45.155 11.787 89.562 11.787 131.987 0 3.844 2.906 7.065 6.729 7.46.594.062 60.203 6.137 130.977 6.137 10.272 0 20.907-.128 31.608-.381 4.141-.098 7.419-3.534 7.321-7.675-.098-4.142-3.564-7.437-7.676-7.321-10.584.25-21.099.377-31.254.377-56.265 0-105.363-3.878-122.739-5.428-.112-11.509-.517-23.156-1.193-34.911 19.24 1.66 68.159 5.339 123.931 5.339 55.776 0 104.698-3.679 123.935-5.339-.666 11.48-1.08 23.131-1.196 34.913-9.267.83-27.542 2.324-50.989 3.526-4.137.212-7.318 3.737-7.106 7.874.206 4.007 3.518 7.116 7.484 7.116.129 0 .26-.003.391-.01 34.66-1.777 58.225-4.192 58.458-4.217 3.823-.395 6.729-3.616 6.729-7.46 0-80.952 14.56-156.158 29.414-211.813 10.891 8.823 25.534 14.179 39.518 14.179 2.147 0 4.278-.126 6.377-.386 17.622-2.175 31.299-13.296 38.512-31.314 8.343-20.833 5.518-39.403-7.748-50.948zm-415.329 52.497c-8.31 9.112-24.161 16.73-39.148 14.879-12.296-1.518-21.187-8.921-26.424-22.002-5.909-14.76-4.605-26.855 3.672-34.058 10.73-9.338 30.714-8.914 49.333.816 4.116 12.24 8.375 25.76 12.567 40.365zm271.874-201.368c-13.248-5.639-26.642-9.425-35.032-11.509 5.906-15.847 12.171-32.395 15.509-41.187 7.691 2.261 21.246 6.632 34.67 12.834-3.093 8.328-8.876 23.766-15.147 39.862zm137.28 194.244c-5.237 13.082-14.127 20.484-26.424 22.002-15.219 1.88-31.318-6.001-39.519-15.296 1.227-4.281 2.446-8.432 3.649-12.416 2.909-9.635 5.824-18.728 8.674-27.214 18.791-10.044 39.097-10.576 49.947-1.134 8.278 7.203 9.582 19.299 3.673 34.058z"/></g></g></g></g></svg>