<svg id="Capa_1" enable-background="new 0 0 513.087 513.087" height="512" viewBox="0 0 513.087 513.087" width="512" xmlns="http://www.w3.org/2000/svg"><g><circle cx="166.424" cy="250.435" fill="#fcf1de" r="118.03"/><path d="m208.851 258.203c0 32.168 12.048 61.57 31.861 83.948 26.683-21.64 43.743-54.683 43.743-91.715 0-33.139-13.663-63.095-35.657-84.533-24.576 23.138-39.947 55.961-39.947 92.3z" fill="#f6e2c4"/><path d="m124.917 284.466c-18.667 0-34.041-15.009-34.096-33.676 0-.118-.001-.236-.001-.355 0-57.944 41.742-106.14 96.804-116.134-6.882-1.249-13.957-1.897-21.2-1.897-65.531 0-118.588 53.404-118.026 119.065.547 63.831 52.543 116.104 116.37 116.984 7.818.108 15.463-.549 22.869-1.893-32.469-5.893-60.306-25.07-77.688-51.694l15.465 15.552 56.725-3.5 39.036 28.091c27.813-14.594 49.093-39.95 58.29-70.544h-154.548z" fill="#f6e2c4"/><circle cx="335.638" cy="258.202" fill="#fcf6ed" r="106.787"/><path d="m299.779 284.466c-14.41 0-26.291-11.583-26.327-25.992 0-.091 0-.181 0-.272 0-51.328 36.206-94.201 84.477-104.458-7.193-1.529-14.642-2.33-22.291-2.33-59.216 0-107.175 48.199-106.785 107.506.373 56.694 45.671 103.646 102.318 105.977 9.215.379 18.18-.423 26.767-2.247-28.792-6.118-53.289-23.84-68.376-48.036l9.418 9.49 72.683 34.646c33.179-11.891 58.764-39.73 67.503-74.284z" fill="#fcf1de"/><path d="m449.495 349.366-8.921 15.119c-6.627 11.23-18.695 18.122-31.735 18.122h-305.591c-13.04 0-25.108-6.892-31.735-18.122l-8.921-15.119-16.869-25.262h419.207z" fill="#e4e1e5"/><path d="m498.646 304.466h-484.205c-3.833 0-6.941 3.108-6.941 6.941v7.402c0 16.876 13.68 30.556 30.556 30.556h436.975c16.876 0 30.556-13.68 30.556-30.556v-7.402c0-3.833-3.108-6.941-6.941-6.941z" fill="#f8f7f8"/><path d="m76.28 326.919c-14.069 0-25.91-9.512-29.462-22.453h-32.377c-3.833 0-6.941 3.108-6.941 6.941v7.402c0 16.876 13.68 30.556 30.556 30.556h436.975c14.067 0 25.915-9.512 29.469-22.45z" fill="#efedee"/></g><g><g><g><path d="m161.003 271.851h-9.682c-4.142 0-7.5-3.358-7.5-7.5s3.358-7.5 7.5-7.5h9.682c4.142 0 7.5 3.358 7.5 7.5s-3.357 7.5-7.5 7.5z" fill="#fcf1de"/></g></g><g><path d="m498.646 296.966h-55.82l1.82-5.862c8.711-28.059 6.572-58.128-6.022-84.669-1.776-3.742-6.25-5.335-9.991-3.561-3.742 1.776-5.336 6.249-3.561 9.991 10.977 23.131 12.841 49.337 5.249 73.792l-3.201 10.31h-182.965l-3.201-10.31c-7.969-25.67-5.571-52.961 6.753-76.847 12.325-23.886 33.177-41.656 58.715-50.037 19.114-6.271 39.318-6.271 58.43 0 16.767 5.502 31.855 15.283 43.635 28.284 2.782 3.07 7.524 3.304 10.594.522 3.07-2.781 3.304-7.524.522-10.594-13.524-14.926-30.84-26.152-50.075-32.464-22.172-7.276-45.611-7.276-67.783 0-14.281 4.686-27.279 11.938-38.495 21.307-14.441-17.119-33.189-29.791-54.686-36.845-28.446-9.335-58.517-9.335-86.962 0-11.69 3.837-22.661 9.379-32.607 16.475-3.372 2.405-4.156 7.089-1.75 10.461 2.405 3.371 7.088 4.155 10.461 1.75 8.711-6.213 18.325-11.07 28.574-14.434 25.386-8.33 52.223-8.33 77.608 0 19.118 6.274 35.748 17.618 48.472 32.958-7.041 7.639-13.097 16.27-17.983 25.74-14.141 27.406-16.893 58.72-7.749 88.172l1.82 5.862h-68.732c-4.142 0-7.5 3.358-7.5 7.5s3.358 7.5 7.5 7.5h338.37v6.844c0 12.713-10.343 23.056-23.056 23.056h-436.974c-12.713-.001-23.056-10.344-23.056-23.058v-6.844h112.729c4.142 0 7.5-3.358 7.5-7.5s-3.358-7.5-7.5-7.5h-63.358l-6.347-20.444c-10.334-33.287-3.646-69.558 17.893-97.025 2.556-3.26 1.985-7.974-1.274-10.53-3.26-2.556-7.974-1.986-10.53 1.274-24.578 31.344-32.209 72.738-20.414 110.729l4.966 15.997h-34.224c-7.963 0-14.441 6.478-14.441 14.441v7.402c0 20.984 17.072 38.056 38.056 38.056h20.253l6.745 11.43c7.938 13.454 22.573 21.811 38.194 21.811h305.591c15.621 0 30.256-8.357 38.194-21.811l6.745-11.43h21.253c20.984 0 38.056-17.072 38.056-38.056v-7.402c0-7.963-6.478-14.441-14.441-14.441zm-64.532 63.707c-5.253 8.903-14.938 14.434-25.275 14.434h-305.591c-10.337 0-20.022-5.531-25.275-14.434l-2.246-3.807h360.635z"/><path d="m122.738 200.122c4.142 0 7.5-3.358 7.5-7.5s-3.358-7.5-7.5-7.5h-9.682c-4.142 0-7.5 3.358-7.5 7.5s3.358 7.5 7.5 7.5z"/><path d="m161.003 271.851c4.142 0 7.5-3.358 7.5-7.5s-3.358-7.5-7.5-7.5h-9.682c-4.142 0-7.5 3.358-7.5 7.5s3.358 7.5 7.5 7.5z"/><path d="m310.378 193.42c-4.142 0-7.5 3.358-7.5 7.5s3.358 7.5 7.5 7.5h5.071c4.142 0 7.5-3.358 7.5-7.5s-3.358-7.5-7.5-7.5z"/></g></g></svg>