<svg id="Capa_1" enable-background="new 0 0 512.292 512.292" height="512" viewBox="0 0 512.292 512.292" width="512" xmlns="http://www.w3.org/2000/svg"><g><g><g><path d="m491.542 197.831c1.44-4.93 2.19-10.08 2.19-15.28 0-7.7-1.65-15.52-5.12-22.96-5.81-12.47-15.74-21.69-27.41-26.83-.98-6.31-3.05-12.45-6.19-18.13-3.15-5.68-7.37-10.88-12.63-15.3-10.54-8.84-23.44-13-36.19-12.73-3.55-5.3-8.02-9.99-13.27-13.81-5.24-3.82-11.26-6.75-17.91-8.53-13.29-3.56-26.73-1.88-38.17 3.76-8.34-5.05-18.04-7.91-28.2-7.91-3.13 0-6.31.28-9.51.84-13.54 2.39-25.02 9.6-33.01 19.54-1.97-.21-3.96-.32-5.94-.32-10.8 0-21.7 3.19-31.21 9.84-11.27 7.89-18.63 19.28-21.67 31.66-6.04 2.06-11.73 5.16-16.77 9.24-5.04 4.09-9.43 9.14-12.87 15.1-8.39 14.53-9.33 31.32-4 45.94-11.92 10-19.51 25.01-19.51 41.79v1.06l49.904 45.825h260.949l40.047-45.825v-1.06c0-13.76-5.1-26.31-13.51-35.91z" fill="#dfae91"/></g><path d="m501.657 214.801h-166.432c-.011-.007-.021-.015-.032-.022-2.04-1.422-3.586-3.43-4.429-5.769-1.342-3.725-2.982-7.344-4.914-10.84-4.421-7.97-10.226-15.006-17.269-20.923-9.486-7.956-20.785-13.381-32.782-15.868-3.905-.81-7.501-2.665-10.399-5.405-2.311-2.186-4.764-4.223-7.349-6.104-.035-.025-.07-.051-.105-.076-5.585-4.056-6.467-12.031-1.751-17.071 33.18-35.455 78.769-59.171 129.841-64.192-3.436-1.783-7.125-3.225-11.025-4.269-13.29-3.56-26.73-1.88-38.17 3.76-8.34-5.05-18.04-7.91-28.2-7.91-3.13 0-6.31.28-9.51.84-13.54 2.39-25.02 9.6-33.01 19.54-1.97-.21-3.96-.32-5.94-.32-10.8 0-21.7 3.19-31.21 9.84-11.27 7.89-18.63 19.28-21.67 31.66-6.04 2.06-11.73 5.16-16.77 9.24-5.04 4.09-9.43 9.14-12.87 15.1-8.39 14.53-9.33 31.32-4 45.94-11.92 10-19.51 25.01-19.51 41.79v1.06l36.45 33.471 8.812 8.092 4.642 4.262h260.949l40.047-45.825v-1.06c.001-6.665-1.205-13.041-3.394-18.941z" fill="#d79c7a"/><path d="m329.072 124.181c-61.03 0-110.65 48.84-111.92 109.56v1.06l18.78 28.049h183.083l21.966-28.049v-1.06c-1.269-60.72-50.889-109.56-111.909-109.56z" fill="#d79c7a"/><path d="m335.193 214.779c-2.04-1.422-3.586-3.43-4.429-5.769-1.342-3.725-2.982-7.344-4.914-10.84-4.421-7.97-10.226-15.006-17.269-20.923-9.486-7.956-20.785-13.381-32.782-15.868-3.905-.81-7.501-2.665-10.399-5.405-2.311-2.186-4.764-4.223-7.349-6.104-.035-.025-.07-.051-.105-.076-.023-.017-.042-.036-.064-.052-24.316 20.062-40.023 50.187-40.73 84.001v1.06l18.78 28.049h183.083l21.966-28.049v-1.06c-.135-6.463-.823-12.79-2.009-18.94h-103.747c-.011-.009-.022-.017-.032-.024z" fill="#d08a61"/><path d="m505.052 234.801v80c0 24.37-19.76 44.13-44.13 44.13h-262.63c-24.38 0-44.14-19.76-44.14-44.13v-80z" fill="#dfae91"/><path d="m390.548 339.129c-6.71 0-12.149-5.439-12.149-12.149 0-14.51-4.233-28.615-12.071-40.649.499-3.489.751-7.01.751-10.541 0-10.896-2.354-21.466-6.991-31.406-1.556-3.341-3.352-6.541-5.36-9.583h-150.189-50.387v80c0 24.372 19.758 44.13 44.13 44.13h262.64c15.378 0 28.914-7.873 36.814-19.802z" fill="#d79c7a"/><g id="XMLID_200_"><g><path d="m472.992 280.151v33.44c0 7.33-5.95 13.28-13.28 13.28h-260.21c-7.34 0-13.29-5.95-13.29-13.28v-33.44c0-7.34 5.95-13.29 13.29-13.29h260.21c7.33 0 13.28 5.95 13.28 13.29z" fill="#d79c7a"/></g></g><path d="m186.212 280.151v33.44c0 7.33 5.95 13.28 13.29 13.28h178.896c-.019-12.781-3.32-25.245-9.478-36.252-1.581-2.826-2.289-6.057-2.048-9.286.138-1.843.207-3.691.207-5.543 0-3.004-.197-5.98-.553-8.929h-167.024c-7.34 0-13.29 5.95-13.29 13.29z" fill="#d08a61"/><path d="m344.889 291.07c1.44-4.93 2.19-10.08 2.19-15.28 0-7.7-1.65-15.52-5.12-22.96-5.81-12.47-15.74-21.69-27.41-26.83-.98-6.31-3.05-12.45-6.19-18.13-3.15-5.68-7.37-10.88-12.63-15.3-10.54-8.84-23.44-13-36.19-12.73-3.55-5.3-8.02-9.99-13.27-13.81-5.24-3.82-11.26-6.75-17.91-8.53-13.29-3.56-26.73-1.88-38.17 3.76-8.34-5.05-18.04-7.91-28.2-7.91-3.13 0-6.31.28-9.51.84-13.54 2.39-25.02 9.6-33.01 19.54-1.97-.21-3.96-.32-5.94-.32-10.8 0-21.7 3.19-31.21 9.84-11.27 7.89-18.63 19.28-21.67 31.66-6.04 2.06-11.73 5.16-16.77 9.24-5.04 4.09-9.43 9.14-12.87 15.1-8.39 14.53-9.33 31.32-4 45.94-11.92 10-19.51 25.01-19.51 41.79v1.06l49.904 45.825h260.949l40.047-45.825v-1.06c0-13.76-5.1-26.31-13.51-35.91z" fill="#dfae91"/><g><g><path d="m355.014 308.037-246.624.003c-23.521 0-37.937-25.567-25.997-45.831 32.51-55.176 90.031-93.851 156.978-100.433-3.436-1.782-7.113-3.232-11.012-4.276-13.29-3.56-26.73-1.88-38.17 3.76-8.34-5.05-18.04-7.91-28.2-7.91-3.13 0-6.31.28-9.51.84-13.54 2.39-25.02 9.6-33.01 19.54-1.97-.21-3.96-.32-5.94-.32-10.8 0-21.7 3.19-31.21 9.84-11.27 7.89-18.63 19.28-21.67 31.66-6.04 2.06-11.73 5.16-16.77 9.24-5.04 4.09-9.43 9.14-12.87 15.1-8.39 14.53-9.33 31.32-4 45.94-11.92 10-19.51 25.01-19.51 41.79v1.06l45.262 41.562 4.642 4.262h260.949l40.047-45.825v-1.06c0-6.664-1.196-13.042-3.385-18.942z" fill="#d79c7a"/><g><g><path d="m182.419 217.42c-61.03 0-110.65 48.84-111.92 109.56v1.06l18.78 28.049h183.083l21.966-28.049v-1.06c-1.269-60.72-50.889-109.56-111.909-109.56z" fill="#d79c7a"/><path d="m79.247 285.869c-5.354 12.683-8.444 26.554-8.748 41.111v1.06l18.78 28.049h183.083l21.966-28.049v-1.06c-.135-6.463-.823-12.79-2.01-18.94h-183.928c-14.6 0-25.684-9.852-29.143-22.171z" fill="#d08a61"/></g><path d="m182.419 303c-13.76 0-25.05 10.54-26.26 23.98v1.06 14.291h51.148l1.362-14.291v-1.06c-1.21-13.44-12.5-23.98-26.25-23.98z" fill="#cc8254"/><path d="m7.499 408.04c0 24.37 19.76 44.13 44.14 44.13h262.63c24.37 0 44.13-19.76 44.13-44.13v-80h-350.9z" fill="#dfae91"/><path d="m102.026 432.368c-24.38 0-44.14-19.76-44.14-44.13v-60.198h-50.387v80c0 24.37 19.76 44.13 44.14 44.13h262.63c15.378 0 28.914-7.873 36.814-19.802z" fill="#d79c7a"/><g id="XMLID_203_"><g><path d="m326.339 373.39v33.44c0 7.33-5.95 13.28-13.28 13.28h-260.21c-7.34 0-13.29-5.95-13.29-13.28v-33.44c0-7.34 5.95-13.29 13.29-13.29h260.21c7.33 0 13.28 5.95 13.28 13.29z" fill="#d79c7a"/></g></g><path d="m71.515 420.11c-8.394-8.034-13.629-19.339-13.629-31.872v-28.138h-5.037c-7.34 0-13.29 5.95-13.29 13.29v33.44c0 7.33 5.95 13.28 13.29 13.28z" fill="#d08a61"/><ellipse cx="114.53" cy="390.108" fill="#f4bb87" rx="23.296" ry="30.006"/></g></g></g></g><g><path d="m217.025 196.077c.65.174 1.304.258 1.947.258 3.311 0 6.341-2.21 7.239-5.56l.479-1.785c1.073-4.001-1.301-8.114-5.302-9.186-3.998-1.072-8.113 1.302-9.186 5.302l-.479 1.785c-1.073 4.001 1.301 8.113 5.302 9.186z"/><path d="m148.761 187.855c.642 3.639 3.806 6.2 7.377 6.2.432 0 .87-.038 1.311-.115 4.079-.719 6.803-4.609 6.084-8.688l-.321-1.82c-.719-4.079-4.608-6.804-8.688-6.084-4.079.719-6.803 4.609-6.084 8.688z"/><path d="m206.356 262.586c-3.898-1.397-8.193.63-9.591 4.529s.63 8.193 4.529 9.591c15.806 5.667 28.122 17.982 33.789 33.789 1.098 3.063 3.983 4.971 7.061 4.971.84 0 1.694-.142 2.531-.442 3.899-1.398 5.927-5.692 4.529-9.591-7.188-20.044-22.805-35.661-42.848-42.847z"/><path d="m158.475 262.586c-20.043 7.186-35.66 22.803-42.846 42.846-1.398 3.899.63 8.193 4.529 9.591.836.3 1.691.442 2.531.442 3.077 0 5.962-1.908 7.061-4.971 5.667-15.806 17.982-28.122 33.788-33.789 3.899-1.398 5.927-5.692 4.529-9.591s-5.691-5.926-9.592-4.528z"/><path d="m313.575 274.537c1.062 0 2.141-.227 3.166-.705l1.675-.781c3.754-1.751 5.377-6.213 3.626-9.967-1.751-3.753-6.214-5.377-9.968-3.626l-1.675.781c-3.754 1.751-5.377 6.213-3.626 9.967 1.273 2.728 3.978 4.331 6.802 4.331z"/><path d="m270.118 223.194c1.405 1.178 3.115 1.753 4.815 1.753 2.141 0 4.268-.912 5.751-2.681l1.188-1.416c2.661-3.174 2.246-7.904-.928-10.566-3.175-2.662-7.905-2.246-10.566.927l-1.188 1.416c-2.661 3.175-2.246 7.905.928 10.567z"/><path d="m92.107 215.337c1.459 2.083 3.785 3.198 6.149 3.198 1.486 0 2.987-.44 4.296-1.357 3.393-2.376 4.217-7.053 1.841-10.445l-1.06-1.514c-2.376-3.393-7.054-4.216-10.446-1.841-3.393 2.376-4.217 7.053-1.841 10.445z"/><path d="m50.773 263.263 1.601.924c1.181.683 2.471 1.007 3.744 1.007 2.591 0 5.112-1.345 6.501-3.751 2.072-3.587.843-8.174-2.744-10.245l-1.601-.924c-3.586-2.073-8.174-.843-10.245 2.744s-.843 8.173 2.744 10.245z"/><path d="m348.759 249.657c-5.78-12.396-15.476-22.49-27.545-28.775-2.948-13.285-10.188-25.263-20.666-34.055s-23.529-13.842-37.125-14.438c-8.286-10.795-19.911-18.59-33.122-22.13-13.211-3.539-27.175-2.602-39.749 2.605-12.073-6.283-25.906-8.434-39.371-6.06-13.47 2.375-25.728 9.126-34.924 19.159-13.598-.593-27.039 3.303-38.243 11.147-11.204 7.845-19.461 19.146-23.555 32.124-12.572 5.209-23.11 14.42-29.949 26.265-8.333 14.434-10.473 31.444-6.102 47.386-11.756 11.622-18.408 27.424-18.408 44.09v81.061c0 28.472 23.163 51.635 51.635 51.635h262.63c28.472 0 51.636-23.164 51.636-51.635v-81.061c0-13.677-4.521-26.922-12.804-37.72 2.943-13.286 1.442-27.202-4.338-39.598zm-316.931 41.279c2.416-2.026 3.306-5.348 2.227-8.312-4.776-13.117-3.52-27.56 3.446-39.625 5.695-9.864 14.775-17.318 25.567-20.988 2.424-.824 4.26-2.828 4.87-5.314 2.716-11.071 9.35-20.767 18.68-27.3 7.93-5.552 17.34-8.494 26.943-8.494 1.696 0 3.398.092 5.099.277 2.542.276 5.055-.763 6.658-2.758 7.141-8.887 17.251-14.87 28.467-16.847 11.217-1.979 22.762.186 32.513 6.095 2.189 1.326 4.902 1.445 7.201.314 10.226-5.037 21.917-6.188 32.92-3.238 11.001 2.948 20.552 9.789 26.89 19.264 1.424 2.128 3.841 3.407 6.393 3.328 11.405-.245 22.479 3.657 31.204 10.978s14.488 17.558 16.229 28.824c.391 2.53 2.045 4.686 4.388 5.718 10.431 4.597 18.827 12.813 23.641 23.136 4.813 10.323 5.712 22.037 2.528 32.982-.715 2.458-.127 5.111 1.56 7.037 6.085 6.947 9.954 15.482 11.205 24.529h-48.939c-1.513-20.604-8.299-40.404-19.831-57.605-2.308-3.441-6.965-4.36-10.406-2.053-3.44 2.306-4.359 6.965-2.053 10.406 9.873 14.728 15.77 31.636 17.251 49.252h-71.359c-3.878-14.614-17.049-25.042-32.704-25.042-15.654 0-28.825 10.427-32.704 25.042h-71.365c2.079-24.932 12.923-48.079 30.954-65.759 19.639-19.256 45.605-29.861 73.115-29.861 24.145 0 47.695 8.437 66.311 23.756 3.199 2.633 7.925 2.173 10.557-1.025s2.173-7.925-1.025-10.557c-21.295-17.524-48.229-27.174-75.843-27.174-31.46 0-61.156 12.128-83.616 34.15-20.925 20.517-33.39 47.472-35.502 76.469h-47.84c1.579-11.482 7.34-22.029 16.37-29.605zm167.28 29.608h-33.385c3.159-6.026 9.444-10.042 16.693-10.042 7.248.001 13.533 4.017 16.692 10.042zm115.157 124.127h-262.63c-20.201 0-36.635-16.435-36.635-36.635v-72.492h335.9v72.492c0 20.2-16.434 36.635-36.635 36.635z"/><path d="m313.055 352.602h-260.209c-11.462 0-20.788 9.326-20.788 20.788v33.436c0 11.462 9.325 20.788 20.788 20.788h181.268c4.142 0 7.5-3.358 7.5-7.5s-3.358-7.5-7.5-7.5h-94.965c3.876-6.273 6.178-14.068 6.178-22.506s-2.301-16.233-6.178-22.506h173.906c3.191 0 5.787 2.597 5.787 5.788v33.436c0 3.191-2.596 5.788-5.787 5.788h-46.979c-4.143 0-7.5 3.358-7.5 7.5s3.357 7.5 7.5 7.5h46.979c11.462 0 20.787-9.325 20.787-20.788v-33.436c0-11.463-9.325-20.788-20.787-20.788zm-214.321 37.505c0-12.199 7.233-22.505 15.796-22.505s15.796 10.306 15.796 22.505-7.234 22.506-15.796 22.506-15.796-10.306-15.796-22.506zm-8.823 22.506h-37.065c-3.191 0-5.788-2.596-5.788-5.788v-33.435c0-3.191 2.596-5.788 5.788-5.788h37.066c-3.876 6.273-6.178 14.068-6.178 22.506s2.301 16.232 6.177 22.505z"/><path d="m178.323 377.217c-4.142 0-7.5 3.358-7.5 7.5s3.358 7.5 7.5 7.5h5.658c4.142 0 7.5-3.358 7.5-7.5s-3.358-7.5-7.5-7.5z"/><path d="m214.893 386.841c-4.142 0-7.5 3.358-7.5 7.5s3.358 7.5 7.5 7.5h4.619c4.142 0 7.5-3.358 7.5-7.5s-3.358-7.5-7.5-7.5z"/><path d="m281.489 394.142c4.143 0 7.5-3.358 7.5-7.5s-3.357-7.5-7.5-7.5h-11.163c-4.143 0-7.5 3.358-7.5 7.5s3.357 7.5 7.5 7.5z"/><path d="m367.775 86.561c-4-1.069-8.113 1.306-9.184 5.307l-.478 1.785c-1.07 4.001 1.306 8.113 5.307 9.183.649.174 1.302.257 1.943.257 3.312 0 6.344-2.212 7.24-5.564l.478-1.785c1.071-4.002-1.305-8.113-5.306-9.183z"/><path d="m300.919 84.105c-4.08.718-6.805 4.607-6.087 8.687l.32 1.82c.641 3.64 3.806 6.201 7.378 6.201.432 0 .869-.038 1.309-.115 4.08-.718 6.805-4.607 6.087-8.687l-.32-1.82c-.718-4.08-4.607-6.807-8.687-6.086z"/><path d="m376.03 206.146c1.43 2.246 3.855 3.474 6.334 3.474 1.378 0 2.771-.379 4.02-1.174 3.495-2.224 4.524-6.859 2.301-10.354-8.435-13.253-21.197-23.463-35.937-28.748-3.897-1.396-8.193.629-9.591 4.529-1.398 3.899.629 8.193 4.528 9.591 11.623 4.167 21.689 12.222 28.345 22.682z"/><path d="m459.967 181.295c1.061 0 2.14-.227 3.164-.705l1.676-.781c3.754-1.75 5.379-6.212 3.629-9.966s-6.214-5.38-9.967-3.628l-1.676.781c-3.754 1.75-5.379 6.212-3.629 9.966 1.273 2.73 3.978 4.333 6.803 4.333z"/><path d="m427.34 117.046c-3.171-2.663-7.901-2.25-10.566.921l-1.188 1.416c-2.663 3.172-2.251 7.903.922 10.567 1.405 1.18 3.116 1.756 4.818 1.756 2.14 0 4.265-.911 5.748-2.677l1.188-1.416c2.663-3.173 2.251-7.903-.922-10.567z"/><path d="m239.28 110.137c-3.393 2.376-4.217 7.053-1.841 10.445l1.06 1.514c1.459 2.083 3.786 3.198 6.15 3.198 1.486 0 2.987-.44 4.296-1.357 3.393-2.376 4.217-7.053 1.841-10.445l-1.06-1.514c-2.376-3.393-7.053-4.216-10.446-1.841z"/><path d="m499.488 196.013c2.943-13.287 1.443-27.203-4.338-39.597-5.779-12.396-15.473-22.489-27.543-28.774-1.287-5.822-3.394-11.397-6.283-16.62-2.006-3.624-6.571-4.936-10.194-2.93-3.624 2.006-4.936 6.57-2.931 10.194 2.684 4.848 4.477 10.102 5.328 15.615.391 2.53 2.045 4.686 4.388 5.718 10.432 4.597 18.828 12.813 23.642 23.137 4.813 10.322 5.711 22.035 2.527 32.981-.715 2.458-.127 5.111 1.56 7.037 6.085 6.947 9.954 15.482 11.205 24.529h-48.923c-2.112-28.997-14.577-55.953-35.502-76.469-22.46-22.022-52.156-34.15-83.616-34.15-23.993 0-47.142 7.095-66.94 20.517-3.429 2.324-4.324 6.988-2 10.417s6.988 4.325 10.416 2c17.307-11.731 37.544-17.933 58.524-17.933 27.51 0 53.476 10.605 73.114 29.861 18.032 17.68 28.875 40.827 30.955 65.759h-66.459c-4.143 0-7.5 3.358-7.5 7.5s3.357 7.5 7.5 7.5h130.874v72.492c0 20.201-16.435 36.635-36.635 36.635h-72.257c-4.143 0-7.5 3.358-7.5 7.5s3.357 7.5 7.5 7.5h72.257c28.472 0 51.635-23.163 51.635-51.635v-81.061c0-13.68-4.521-26.926-12.804-37.723z"/><path d="m194.073 135.61c1.443 0 2.901-.416 4.188-1.284 3.467-2.338 7.235-4.208 11.2-5.556 2.424-.824 4.26-2.828 4.87-5.314 2.716-11.072 9.35-20.767 18.68-27.3 9.331-6.533 20.712-9.451 32.042-8.216 2.546.274 5.055-.763 6.659-2.758 7.14-8.886 17.249-14.87 28.466-16.848 11.216-1.979 22.764.187 32.513 6.095 2.19 1.327 4.906 1.445 7.201.314 10.227-5.038 21.918-6.187 32.92-3.238s20.552 9.79 26.891 19.265c1.424 2.128 3.884 3.38 6.393 3.328 7.611-.171 15.18 1.533 21.938 4.901 3.707 1.846 8.209.339 10.058-3.368 1.848-3.707.34-8.21-3.368-10.058-7.724-3.849-16.259-6.042-24.906-6.425-8.286-10.796-19.91-18.591-33.122-22.132-13.214-3.539-27.176-2.601-39.75 2.605-12.071-6.282-25.901-8.434-39.371-6.06-13.47 2.375-25.729 9.128-34.924 19.16-13.595-.588-27.039 3.303-38.242 11.147s-19.46 19.145-23.555 32.123c-3.847 1.593-7.526 3.57-10.979 5.899-3.434 2.316-4.34 6.978-2.023 10.412 1.445 2.15 3.812 3.308 6.221 3.308z"/><path d="m380.898 326.872c0 4.142 3.357 7.5 7.5 7.5h71.048c11.463 0 20.788-9.325 20.788-20.788v-33.436c0-11.462-9.325-20.788-20.788-20.788h-82.864c-4.143 0-7.5 3.358-7.5 7.5s3.357 7.5 7.5 7.5h82.864c3.191 0 5.788 2.596 5.788 5.788v33.436c0 3.191-2.597 5.788-5.788 5.788h-71.048c-4.142 0-7.5 3.358-7.5 7.5z"/><path d="m427.882 300.901c4.143 0 7.5-3.358 7.5-7.5s-3.357-7.5-7.5-7.5h-11.164c-4.143 0-7.5 3.358-7.5 7.5s3.357 7.5 7.5 7.5z"/></g></g></svg>