<svg id="Layer_1" height="512" viewBox="0 0 512 512" width="512" xmlns="http://www.w3.org/2000/svg" data-name="Layer 1"><path d="m436.949 199.12a128.218 128.218 0 0 1 51.051 103.35c-.47 71.049-59.46 128.669-130.51 127.519a129.114 129.114 0 0 1 -19.9-1.87 37.247 37.247 0 0 0 -37.96 17.44 84.422 84.422 0 0 1 -151.969-17.14 37.269 37.269 0 0 0 -17.41-21.01 202.8 202.8 0 0 1 -106.251-178.589c.091-112.059 93.871-204.32 205.92-202.659 93.29 1.39 171.309 65.74 193.469 152.449a37.28 37.28 0 0 0 13.56 20.51z" fill="#efe5ca"/><path d="m187.661 428.419a37.273 37.273 0 0 0 -17.41-21.01 202.807 202.807 0 0 1 -106.251-178.589c.084-104.362 81.432-191.535 183.115-201.68q-8.5-.843-17.2-.979c-112.044-1.661-205.824 90.6-205.915 202.659a202.807 202.807 0 0 0 106.25 178.589 37.269 37.269 0 0 1 17.41 21.01 84.487 84.487 0 0 0 100 55.049 84.572 84.572 0 0 1 -59.999-55.049z" fill="#d6d0c4"/><path d="m377.589 428.119a36.5 36.5 0 0 0 -19.212 1.873 127.691 127.691 0 0 0 21.213-1.567c-.666-.104-1.338-.192-2.001-.306z" fill="#d6d0c4"/><circle cx="236" cy="246" fill="#f7c365" r="77"/><path d="m189 246a77.01 77.01 0 0 1 62-75.528 77 77 0 1 0 0 151.056 77.01 77.01 0 0 1 -62-75.528z" fill="#d3a163"/><g fill="#284268"><path d="m440.572 194.333a31.341 31.341 0 0 1 -11.366-17.213c-23.268-91.02-105.179-155.562-199.192-156.956-55.844-.809-108.848 20.636-149.279 60.436-40.409 39.782-62.688 92.421-62.735 148.219a208.829 208.829 0 0 0 109.394 183.865 31.225 31.225 0 0 1 14.577 17.653 90.43 90.43 0 0 0 162.775 18.363 31.065 31.065 0 0 1 31.818-14.666 135.541 135.541 0 0 0 20.832 1.952c.738.012 1.468.018 2.206.018a134.446 134.446 0 0 0 120.041-194.9 135.6 135.6 0 0 0 -39.071-46.771zm4.475 194.653a121.561 121.561 0 0 1 -87.458 35 123.336 123.336 0 0 1 -18.98-1.779 43.016 43.016 0 0 0 -44.089 20.212 78.431 78.431 0 0 1 -141.178-15.919 43.187 43.187 0 0 0 -20.226-24.368 196.838 196.838 0 0 1 -103.116-173.303c.044-52.561 21.052-102.166 59.154-139.676 37.415-36.834 86.23-57.012 137.752-57.012.974 0 1.954.007 2.93.022 88.611 1.314 165.814 62.144 187.743 147.929a43.4 43.4 0 0 0 15.757 23.814 122.12 122.12 0 0 1 11.711 185.08z"/><path d="m187.4 55.7a6 6 0 0 0 -7.332-4.272 184.358 184.358 0 0 0 -133.768 144.136 6 6 0 1 0 11.8 2.18 172.306 172.306 0 0 1 125.028-134.711 6 6 0 0 0 4.272-7.333z"/><path d="m208.716 58.308a6.089 6.089 0 0 0 .615-.031 173.7 173.7 0 0 1 17.525-.888 6 6 0 0 0 0-12 185.776 185.776 0 0 0 -18.742.949 6 6 0 0 0 .6 11.97z"/><path d="m188.349 246a47.294 47.294 0 0 1 19.083-38.142 6 6 0 0 0 -7.2-9.6 59.191 59.191 0 0 0 -23.883 47.742 6 6 0 0 0 12 0z"/><path d="m224.791 199.521a6.044 6.044 0 0 0 1.253-.132 47.951 47.951 0 0 1 9.956-1.041 6 6 0 0 0 0-12 60.028 60.028 0 0 0 -12.45 1.3 6 6 0 0 0 1.241 11.87z"/><path d="m238.514 163.037a82.921 82.921 0 0 0 -69.672 34.257 5.983 5.983 0 0 0 2.5 8.967 5.977 5.977 0 0 0 7.226-1.941 70.945 70.945 0 1 1 -13.568 41.68 70.094 70.094 0 0 1 .38-7.268 6 6 0 0 0 -11.949-1.2 83 83 0 1 0 85.083-74.5z"/></g></svg>