<svg id="Layer_1" enable-background="new 0 0 512 512" height="512" viewBox="0 0 512 512" width="512" xmlns="http://www.w3.org/2000/svg"><g><g><g><path d="m302.566 238.562h-92.51s-15.88-47.6 31.14-55.83c4.45-.78 9.47-1.21 15.12-1.21 65.28 0 46.25 57.04 46.25 57.04z" fill="#ffe878"/><path d="m302.566 238.562h-29.44c2.36-9.33 9.67-48.45-31.93-55.83 4.45-.78 9.47-1.21 15.12-1.21 65.28 0 46.25 57.04 46.25 57.04z" fill="#ffd37b"/><path d="m393.436 367.532c0 25.24-6.83 48.87-18.74 69.17-23.81 40.56-67.91 67.8-118.38 67.8-5.58 0-11.08-.33-16.49-.98-43.49-5.21-80.72-30.75-101.9-66.82-11.91-20.3-18.74-43.93-18.74-69.17 0-25.23 6.83-48.86 18.74-69.16 21.18-36.07 58.41-61.61 101.9-66.82 5.41-.65 10.91-.98 16.49-.98 50.47 0 94.57 27.24 118.38 67.8 11.91 20.3 18.74 43.93 18.74 69.16z" fill="#ff5f85"/><path d="m393.436 367.532c0 25.24-6.83 48.87-18.74 69.17-23.81 40.56-67.91 67.8-118.38 67.8-5.58 0-11.08-.33-16.49-.98 67.94-8.14 120.61-65.92 120.61-135.99 0-70.06-52.67-127.84-120.61-135.98 5.41-.65 10.91-.98 16.49-.98 50.47 0 94.57 27.24 118.38 67.8 11.91 20.3 18.74 43.93 18.74 69.16z" fill="#b2527e"/><path d="m393.436 367.532c0 25.24-6.83 48.87-18.74 69.17-3.68-1.66-15.04-7.12-25.28-15.3-1.15-.91-2.29-1.87-3.4-2.85-13.1 11.62-29.9 18.69-29.9 18.69s-16.8-7.07-29.9-18.69c-13.1 11.62-29.9 18.69-29.9 18.69s-16.8-7.07-29.9-18.69c-13.1 11.62-29.9 18.69-29.9 18.69s-16.81-7.07-29.91-18.69c-10.99 9.75-24.59 16.3-28.68 18.15-11.91-20.3-18.74-43.93-18.74-69.17 0-25.23 6.83-48.86 18.74-69.16 4.09 1.85 17.69 8.4 28.68 18.15 13.1-11.62 29.91-18.69 29.91-18.69s16.8 7.07 29.9 18.69c13.1-11.62 29.9-18.69 29.9-18.69s16.8 7.07 29.9 18.69c13.1-11.62 29.9-18.69 29.9-18.69s16.8 7.07 29.9 18.69c1.11-.99 2.25-1.94 3.4-2.86 10.24-8.17 21.6-13.63 25.28-15.29 11.91 20.3 18.74 43.93 18.74 69.16z" fill="#77e0ab"/><path d="m393.436 367.532c0 25.24-6.83 48.87-18.74 69.17-3.68-1.66-15.04-7.12-25.28-15.3 7.1-16.53 11.02-34.74 11.02-53.87s-3.93-37.34-11.02-53.87c10.24-8.17 21.6-13.63 25.28-15.29 11.91 20.3 18.74 43.93 18.74 69.16z" fill="#65c1b0"/></g><g><path d="m151.096 187.022c0 39.61-32.14 71.72-71.8 71.72-5.15 0-10.16-.54-15-1.58-32.45-6.88-56.8-35.67-56.8-70.14s24.35-63.25 56.8-70.13c4.84-1.04 9.85-1.58 15-1.58 39.66 0 71.8 32.1 71.8 71.71z" fill="#be94ff"/><path d="m151.096 187.022c0 39.61-32.14 71.72-71.8 71.72-5.15 0-10.16-.54-15-1.58 32.46-6.88 56.8-35.67 56.8-70.14s-24.34-63.25-56.8-70.13c4.84-1.04 9.85-1.58 15-1.58 39.66 0 71.8 32.1 71.8 71.71z" fill="#8e77f2"/><ellipse cx="79.299" cy="187.025" fill="#eaccff" rx="15.017" ry="14.985"/><path d="m105.636 119.862h-52.68s-8.24-24.72 14.34-31.03c3.3-.92 7.26-1.45 12-1.45 37.18 0 26.34 32.48 26.34 32.48z" fill="#ffe878"/><path d="m105.636 119.862h-24s8.25-24.73-14.34-31.03c3.3-.92 7.26-1.45 12-1.45 37.18 0 26.34 32.48 26.34 32.48z" fill="#ffd37b"/></g><g><path d="m504.5 187.025c0 39.61-32.14 71.72-71.8 71.72-5.15 0-10.16-.54-15-1.58-32.45-6.88-56.8-35.67-56.8-70.14s24.35-63.25 56.8-70.13c4.84-1.04 9.85-1.58 15-1.58 39.66 0 71.8 32.1 71.8 71.71z" fill="#97b0bf"/><path d="m504.5 187.025c0 39.61-32.14 71.72-71.8 71.72-5.15 0-10.16-.54-15-1.58 32.46-6.88 56.8-35.67 56.8-70.14s-24.34-63.25-56.8-70.13c4.84-1.04 9.85-1.58 15-1.58 39.66 0 71.8 32.1 71.8 71.71z" fill="#7c97a5"/><ellipse cx="432.703" cy="187.027" fill="#dcf8ff" rx="15.017" ry="14.985"/><path d="m459.04 119.865h-52.68s-8.24-24.72 14.34-31.03c3.3-.92 7.26-1.45 12-1.45 37.18 0 26.34 32.48 26.34 32.48z" fill="#ffe878"/><path d="m459.04 119.865h-24s8.25-24.73-14.34-31.03c3.3-.92 7.26-1.45 12-1.45 37.18 0 26.34 32.48 26.34 32.48z" fill="#ffd37b"/></g></g><g><path d="m388.908 403.385c-3.933-1.301-8.174.834-9.475 4.768-2.146 6.492-4.775 12.719-7.827 18.657-5.685-3.003-13.758-7.795-20.61-13.872-2.84-2.519-7.113-2.519-9.953 0-8.872 7.869-19.802 13.59-24.926 16.05-5.127-2.461-16.054-8.182-24.925-16.05-2.84-2.519-7.113-2.519-9.953 0-8.873 7.869-19.801 13.59-24.925 16.05-5.127-2.461-16.054-8.182-24.925-16.05-2.84-2.519-7.113-2.519-9.953 0-8.873 7.869-19.801 13.59-24.925 16.05-5.127-2.461-16.054-8.182-24.925-16.05-2.84-2.519-7.113-2.519-9.953 0-6.829 6.056-14.871 10.837-20.552 13.841-9.192-17.763-14.39-37.909-14.39-59.246 0-5.215.313-10.465.931-15.604.495-4.113-2.438-7.847-6.551-8.342-4.115-.5-7.848 2.438-8.342 6.551-.689 5.731-1.039 11.584-1.039 17.395 0 79.659 64.878 144.467 144.624 144.467 62.56 0 117.761-39.842 137.36-99.141 1.301-3.932-.834-8.174-4.766-9.474zm-132.593 93.616c-44.744 0-84.263-22.761-107.567-57.299 5.054-2.705 11.566-6.574 17.862-11.432 12.726 9.82 26.346 15.608 26.993 15.88 1.86.782 3.957.782 5.817 0 .647-.272 14.267-6.061 26.993-15.88 12.726 9.82 26.346 15.608 26.993 15.88 1.86.782 3.957.782 5.817 0 .647-.272 14.267-6.061 26.993-15.88 12.726 9.82 26.346 15.608 26.993 15.88.93.391 1.919.587 2.908.587s1.979-.196 2.908-.587c.647-.272 14.268-6.061 26.994-15.88 6.332 4.886 12.883 8.772 17.95 11.479-23.635 35.211-63.604 57.252-107.654 57.252z"/><path d="m311.4 233.966c1.79-9.464 3.088-26.745-6.903-40.611-8.133-11.287-21.667-17.672-40.285-19.044.273-17.883-4.609-29.099-8.981-39.137-4.854-11.144-9.046-20.769-5.752-39.351 2.423-13.665 7.626-22.889 12.658-31.809 8.991-15.938 17.482-30.992.682-60.246-2.064-3.592-6.648-4.83-10.239-2.769-3.592 2.063-4.831 6.647-2.769 10.239 12.549 21.849 7.548 30.716-.738 45.405-5.121 9.078-11.493 20.375-14.363 36.561-4.084 23.04 1.434 35.708 6.77 47.959 4.101 9.413 7.999 18.37 7.735 33.101-19.025 1.248-32.836 7.644-41.082 19.089-9.981 13.852-8.695 31.113-6.908 40.583-9.369 3.861-18.366 8.704-26.841 14.533-23.591 16.228-41.684 38.79-52.322 65.247-1.545 3.843.317 8.211 4.161 9.756 3.841 1.544 8.211-.318 9.756-4.161 1.524-3.791 3.229-7.466 5.067-11.044 5.684 3.003 13.745 7.791 20.588 13.86 2.84 2.519 7.113 2.519 9.953 0 8.873-7.869 19.802-13.59 24.925-16.05 5.126 2.461 16.054 8.182 24.925 16.05 2.84 2.519 7.113 2.519 9.953 0 8.873-7.869 19.802-13.59 24.925-16.05 5.126 2.461 16.054 8.182 24.925 16.05 2.84 2.519 7.113 2.519 9.953 0 8.872-7.869 19.802-13.59 24.925-16.05 5.127 2.461 16.055 8.182 24.926 16.05 1.42 1.259 3.198 1.889 4.977 1.889s3.557-.63 4.977-1.889c6.828-6.056 14.87-10.836 20.552-13.841 9.192 17.763 14.39 37.909 14.39 59.245 0 2.391-.065 4.804-.195 7.173-.228 4.136 2.941 7.672 7.077 7.899.141.008.279.011.418.011 3.954 0 7.263-3.093 7.482-7.089.145-2.641.218-5.331.218-7.994-.001-60.182-37.04-111.881-89.54-133.565zm-91.057-31.9c6.274-8.654 18.376-13.042 35.97-13.042h.01.005c17.587.002 29.685 4.39 35.957 13.042 6.114 8.435 5.834 19.618 4.757 26.842-12.924-3.795-26.591-5.841-40.729-5.841-13.936 0-27.616 1.992-40.73 5.828-1.075-7.23-1.349-18.401 4.76-26.829zm125.677 104.731c-12.727-9.82-26.347-15.608-26.994-15.88-1.859-.782-3.957-.782-5.816 0-.647.272-14.268 6.061-26.993 15.88-12.726-9.82-26.346-15.608-26.993-15.88-1.86-.782-3.957-.782-5.817 0-.647.272-14.267 6.061-26.993 15.88-12.726-9.82-26.346-15.608-26.993-15.88-1.86-.782-3.957-.782-5.817 0-.647.272-14.267 6.061-26.993 15.88-6.329-4.884-12.878-8.769-17.944-11.476 23.723-35.442 63.619-57.254 107.649-57.254 44.743 0 84.263 22.761 107.567 57.298-5.056 2.705-11.568 6.574-17.863 11.432z"/><path d="m158.597 187.024c0-9.103-1.535-18.032-4.561-26.537-1.388-3.903-5.677-5.941-9.58-4.552-3.902 1.389-5.94 5.678-4.552 9.58 2.45 6.887 3.693 14.123 3.693 21.509 0 35.409-28.844 64.216-64.298 64.216s-64.299-28.807-64.299-64.216 28.844-64.216 64.298-64.216c16.004 0 31.34 5.908 43.183 16.637 3.069 2.78 7.812 2.546 10.594-.523 2.781-3.07 2.546-7.812-.523-10.594-5.57-5.046-11.77-9.221-18.4-12.463.868-6.174.904-15.725-4.796-23.635-4.688-6.506-12.039-10.456-21.894-11.811.708-14.837-2.704-25.473-5.779-35.008-3.586-11.115-6.683-20.714-3.167-36.254.914-4.04-1.62-8.056-5.66-8.97-4.042-.917-8.057 1.62-8.97 5.66-4.422 19.546-.384 32.063 3.521 44.168 2.949 9.141 5.749 17.852 5.053 30.237-10.524 1.174-18.323 5.182-23.219 11.977-5.707 7.921-5.664 17.486-4.792 23.659-26.299 12.911-44.449 39.942-44.449 71.136 0 43.68 35.573 79.216 79.298 79.216s79.299-35.536 79.299-79.216zm-97.186-86.025c2.924-4.059 8.942-6.117 17.884-6.118.004 0 .009.001.013.001.005 0 .009-.001.014-.001 8.899.004 14.898 2.046 17.832 6.072 1.971 2.705 2.504 6.286 2.44 9.503-6.566-1.733-13.377-2.648-20.295-2.648-7.013 0-13.813.925-20.294 2.64-.078-3.107.406-6.674 2.406-9.449z"/><path d="m467.552 115.889c.872-6.173.915-15.739-4.792-23.659-4.896-6.795-12.696-10.803-23.219-11.977-.696-12.385 2.104-21.096 5.053-30.237 3.905-12.105 7.942-24.622 3.521-44.168-.914-4.041-4.934-6.573-8.97-5.66-4.041.914-6.575 4.93-5.661 8.97 3.516 15.54.419 25.139-3.166 36.254-3.076 9.534-6.488 20.171-5.78 35.007-9.854 1.355-17.206 5.305-21.894 11.811-5.706 7.92-5.663 17.486-4.791 23.659-26.299 12.91-44.449 39.941-44.449 71.136 0 4.142 3.357 7.5 7.5 7.5s7.5-3.358 7.5-7.5c0-35.409 28.844-64.216 64.298-64.216s64.298 28.806 64.298 64.215-28.845 64.216-64.299 64.216c-23.396 0-44.974-12.717-56.31-33.188-2.006-3.623-6.569-4.935-10.195-2.928-3.623 2.007-4.934 6.571-2.928 10.194 13.979 25.241 40.583 40.921 69.433 40.921 43.726 0 79.299-35.536 79.299-79.216 0-31.194-18.149-58.225-44.448-71.134zm-34.85-8.08c-7.013 0-13.813.925-20.294 2.64-.064-3.219.471-6.795 2.439-9.496 2.933-4.026 8.933-6.069 17.831-6.072.005 0 .009.001.014.001.004 0 .009-.001.013-.001 8.909.001 14.916 2.043 17.851 6.073 1.969 2.701 2.504 6.277 2.44 9.496-6.481-1.717-13.281-2.641-20.294-2.641z"/><path d="m56.781 187.024c0 12.398 10.101 22.485 22.517 22.485s22.517-10.087 22.517-22.485-10.101-22.485-22.517-22.485-22.517 10.087-22.517 22.485zm30.034 0c0 4.127-3.372 7.485-7.517 7.485s-7.517-3.358-7.517-7.485 3.372-7.485 7.517-7.485 7.517 3.358 7.517 7.485z"/><path d="m455.219 187.024c0-12.398-10.102-22.485-22.518-22.485s-22.518 10.087-22.518 22.485 10.102 22.485 22.518 22.485 22.518-10.086 22.518-22.485zm-30.035 0c0-4.127 3.372-7.485 7.518-7.485s7.518 3.358 7.518 7.485-3.372 7.485-7.518 7.485-7.518-3.357-7.518-7.485z"/><circle cx="258.318" cy="367.529" r="7.5"/><circle cx="199.028" cy="367.529" r="7.5"/><circle cx="317.598" cy="367.529" r="7.5"/></g></g></svg>