<svg id="Layer_1" height="512" viewBox="0 0 512 512" width="512" xmlns="http://www.w3.org/2000/svg" data-name="Layer 1"><path d="m479.5 213.1a40 40 0 0 0 -39.02-31.2h-368.96a40 40 0 0 0 -39.02 31.2l-12.96 57.52h472.92z" fill="#9ac5a1"/><path d="m385.93 499.76h-106.07l7.67-42.03q3.465-18.96 6.08-38.03l1.46.2 60.65 30.71a55.093 55.093 0 0 1 30.21 49.15z" fill="#9ac5a1"/><path d="m301.86 270.81v28.54q0 32.19-2.34 64.27h-87.04q-2.34-32.07-2.34-64.27v-28.73h91.72z" fill="#75967a"/><path d="m210.14 89.62h91.72v92.28h-91.72z" fill="#75967a"/><path d="m285.86 59.62h-59.72a16 16 0 0 0 -16 16v14h91.72v-14a16 16 0 0 0 -16-16z" fill="#d4e1f4"/><path d="m212.48 363.62h87.04q-2.055 28.125-5.91 56.08-2.61 19.065-6.08 38.03l-7.67 42.03h-47.72l-7.67-42.03q-3.555-19.44-6.22-39.01-3.75-27.45-5.77-55.1z" fill="#d4e1f4"/><path d="m276.08 32.32v27.3h-40.16v-27.3a20.08 20.08 0 1 1 40.16 0z" fill="#4a5160"/><path d="m224.47 457.73 7.67 42.03h-106.07v-.33a55.111 55.111 0 0 1 29.78-48.94l61.08-31.59 1.32-.18q2.67 19.56 6.22 39.01z" fill="#9ac5a1"/><path d="m444.09 231.9 7.58 38.72h-45.67v-38.72z" fill="#fff655"/><path d="m356 231.9h50v38.72h-50z" fill="#f3e08d"/><path d="m306 231.9h50v38.72h-50z" fill="#fff655"/><path d="m256 231.9h50v38.72h-50z" fill="#f3e08d"/><path d="m206 231.9h50v38.72h-50z" fill="#fff655"/><path d="m156 231.9h50v38.72h-50z" fill="#f3e08d"/><path d="m106 231.9h50v38.72h-50z" fill="#fff655"/><path d="m106 231.9v38.72h-45.67l7.58-38.72z" fill="#f3e08d"/><path d="m101.52 181.9h-30a40 40 0 0 0 -39.02 31.2l-12.96 57.52h30l12.96-57.52a40 40 0 0 1 39.02-31.2z" fill="#b3ddb9"/><path d="m240.14 270.62h-30v28.73q0 32.19 2.34 64.27h30q-2.34-32.07-2.34-64.27z" fill="#658269"/><path d="m240.14 75.62a16 16 0 0 1 16-16h-30a16 16 0 0 0 -16 16v14h30z" fill="#bccbdd"/><path d="m210.14 89.62h30v92.28h-30z" fill="#66846a"/><path d="m248.25 418.72q-3.75-27.45-5.77-55.1h-30q2.025 27.63 5.77 55.1 2.67 19.56 6.22 39.01l7.67 42.03h30l-7.67-42.03q-3.555-19.44-6.22-39.01z" fill="#bccbdd"/><g fill="#284268"><path d="m236.457 105.554a6 6 0 0 0 -6 6v5.151a6 6 0 0 0 12 0v-5.151a6 6 0 0 0 -6-6z"/><path d="m236.457 129.666a6 6 0 0 0 -6 6v30.885a6 6 0 0 0 12 0v-30.885a6 6 0 0 0 -6-6z"/><path d="m485.353 211.783a45.752 45.752 0 0 0 -44.874-35.883h-132.619v-100.282a22.025 22.025 0 0 0 -22-22h-3.782v-6.689h63.005a6 6 0 0 0 0-12h-63.005v-2.61a26.078 26.078 0 1 0 -52.156 0v2.61h-63a6 6 0 0 0 0 12h63.005v6.689h-3.787a22.025 22.025 0 0 0 -22 22v100.282h-132.619a45.752 45.752 0 0 0 -44.874 35.885l-12.965 57.515a6 6 0 0 0 5.853 7.319h184.605v22.727a890.627 890.627 0 0 0 7.561 115.5l-58.601 30.319a60.877 60.877 0 0 0 -33.025 54.264v.331a6 6 0 0 0 6 6h259.855a6 6 0 0 0 6-6 60.8 60.8 0 0 0 -33.5-54.508l-58.25-29.49a890.763 890.763 0 0 0 7.679-116.415v-22.727h184.6a6 6 0 0 0 5.853-7.319zm-243.431-179.464a14.078 14.078 0 1 1 28.156 0v21.3h-28.156zm-25.782 43.3a10.011 10.011 0 0 1 10-10h59.72a10.011 10.011 0 0 1 10 10v8h-79.72zm0 20h79.72v80.281h-79.72zm-116.14 169.001h-32.382l5.234-26.72h27.148zm50 0h-38v-26.72h38zm50 0h-38v-26.72h38zm-67.606 229.14a48.9 48.9 0 0 1 26.214-37.937l54.83-28.362q2.291 15.732 5.131 31.35l6.377 34.949zm163.466-217.14v22.727q0 29.111-1.952 58.271h-75.816q-1.944-29.124-1.952-58.271v-22.727zm-33.86-12v-26.72h38v26.72zm-12 0h-38v-26.72h38zm24.856 229.14h-37.712l-6.77-37.1a877.266 877.266 0 0 1 -11.4-87.039h74.046a877.266 877.266 0 0 1 -11.4 87.039zm78.155-37.8a48.825 48.825 0 0 1 26.557 37.8h-92.514l6.377-34.949q2.769-15.18 5.007-30.481zm-3.011-191.34h-38v-26.72h38zm50 0h-38v-26.72h38zm12 0v-26.72h27.148l5.234 26.721zm44.609 0-6.634-33.874a6 6 0 0 0 -5.888-4.847h-376.174a6 6 0 0 0 -5.888 4.847l-6.634 33.874h-28.353l11.316-50.2a33.816 33.816 0 0 1 33.167-26.52h368.958a33.817 33.817 0 0 1 33.167 26.523l11.316 50.2z"/></g></svg>