<svg id="Layer_1" enable-background="new 0 0 512 512" height="512" viewBox="0 0 512 512" width="512" xmlns="http://www.w3.org/2000/svg"><g><g><path d="m483.649 227.649c0 83.74-57.06 178.77-127.45 178.77-5.07 0-10.07-.49-14.99-1.44-28.91-5.57-54.87-26.82-74.53-55.66l69.42-244.96c1.67-.2 3.35-.37 5.04-.52 4.94-.42 9.96-.64 15.06-.64 70.39 0 127.45 40.72 127.45 124.45z" fill="#ffe878"/><path d="m483.649 227.649c0 83.74-57.06 178.77-127.45 178.77-5.07 0-10.07-.49-14.99-1.44 63.31-12.21 112.44-99.63 112.44-177.33 0-77.72-49.16-118.38-112.51-123.81 4.94-.42 9.96-.64 15.06-.64 70.39 0 127.45 40.72 127.45 124.45z" fill="#ffd37b"/><path d="m344.719 162.079c0 104-70.87 222.04-158.3 222.04-5.06 0-10.06-.4-15-1.17-80.39-12.44-143.31-122.89-143.31-220.87s62.91-148.55 143.31-154.07c4.94-.34 9.94-.51 15-.51 87.43 0 158.3 50.58 158.3 154.58z" fill="#be94ff"/><path d="m344.719 162.079c0 104-70.87 222.04-158.3 222.04-5.06 0-10.06-.4-15-1.17 80.39-12.44 143.3-122.89 143.3-220.87s-62.91-148.55-143.3-154.07c4.94-.34 9.94-.51 15-.51 87.43 0 158.3 50.58 158.3 154.58z" fill="#8e77f2"/><g><path d="m186.419 424.049c-5.91 0-10.86-.73-15-2.01-28.61-8.84-18.18-43.84-18.18-43.84h66.36s13.65 45.85-33.18 45.85z" fill="#58768c"/><path d="m186.419 424.049c-5.91 0-10.86-.73-15-2.01 28.6-8.84 18.18-43.84 18.18-43.84h30s13.65 45.85-33.18 45.85z" fill="#3e5868"/></g><g><path d="m356.195 438.565c-4.758 0-8.743-.588-12.076-1.618-23.033-7.117-14.636-35.293-14.636-35.293h53.423c.001-.001 10.99 36.911-26.711 36.911z" fill="#58768c"/><path d="m356.195 438.565c-4.758 0-8.743-.588-12.076-1.618 23.024-7.117 14.636-35.293 14.636-35.293h24.152c0-.001 10.989 36.911-26.712 36.911z" fill="#3e5868"/></g></g><g><path d="m279.168 40.344c37.997 25.302 58.082 67.398 58.082 121.737 0 41.436-11.396 85.571-32.09 124.272-1.953 3.652-.578 8.197 3.07 10.152 1.126.603 2.335.889 3.528.889 2.674 0 5.262-1.437 6.612-3.962 21.837-40.84 33.863-87.488 33.863-131.351 0-18.317-2.124-35.382-6.285-51.063 3.384-.206 6.809-.316 10.255-.316 51.962 0 91.838 22.877 109.404 62.766 1.236 2.807 3.98 4.477 6.858 4.477 1.01 0 2.036-.206 3.018-.639 3.786-1.671 5.502-6.098 3.833-9.888-20.07-45.576-64.943-71.715-123.113-71.715-5.018 0-10.003.213-14.895.614-10.567-28.537-28.683-51.708-53.843-68.461-3.445-2.294-8.095-1.358-10.387 2.091-2.291 3.447-1.355 8.103 2.09 10.397z"/><path d="m70.607 57.224c1.89 0 3.781-.711 5.238-2.139 26.775-26.224 65.08-40.085 110.771-40.085 21.215 0 41.096 3.066 59.092 9.114 3.924 1.317 8.169-.797 9.486-4.724 1.316-3.927-.796-8.179-4.718-9.497-19.535-6.564-41.022-9.893-63.86-9.893-48.98 0-92.039 15.755-121.249 44.363-2.958 2.897-3.009 7.646-.116 10.606 1.468 1.502 3.411 2.255 5.356 2.255z"/><path d="m491 227.653c0-8.675-.598-17.133-1.778-25.141-.604-4.098-4.41-6.931-8.505-6.325-4.093.604-6.922 4.416-6.318 8.514 1.074 7.285 1.618 15.007 1.618 22.952 0 39.509-13.461 83.094-36.008 116.589-23.733 35.257-53.496 54.674-83.806 54.674-28.489 0-56.552-17.216-79.545-48.619 7.432-7.313 14.575-15.537 21.354-24.644 2.473-3.321 1.787-8.02-1.531-10.495-3.319-2.476-8.011-1.789-10.483 1.532-28.766 38.645-64.06 59.928-99.382 59.928-38.27 0-75.772-24.402-105.598-68.711-28.199-41.892-45.035-96.407-45.035-145.828 0-30.04 6.109-56.392 18.157-78.322 1.994-3.629.672-8.19-2.954-10.187-3.627-1.996-8.181-.671-10.174 2.958-13.279 24.172-20.012 52.955-20.012 85.552 0 89.643 51.597 191.58 123.819 221.114-1.223 8.432-1.617 22.682 6.617 33.738 5.844 7.846 14.708 12.56 26.413 14.076-1.71 14.921 1.681 25.537 4.997 35.84 3.431 10.657 6.671 20.723 4.487 36.629-.564 4.104 2.302 7.887 6.401 8.452.346.047.69.071 1.03.071 3.684 0 6.896-2.723 7.411-6.479 2.65-19.294-1.45-32.034-5.068-43.273-3.159-9.812-5.938-18.453-4.204-30.974 12.938-1.146 22.645-5.951 28.894-14.341 8.257-11.086 7.838-25.386 6.606-33.808 12.793-5.245 25.241-12.865 37.086-22.709 16.408 22.04 35.346 37.718 55.472 46.19-.875 7.136-.812 18.295 5.748 27.103 4.71 6.324 11.701 10.233 20.826 11.695-1.066 11.653 1.618 20.261 4.23 28.637 2.718 8.711 5.284 16.94 3.568 29.438-.564 4.104 2.302 7.887 6.401 8.452.346.047.69.071 1.03.071 3.684 0 6.896-2.723 7.411-6.479 2.172-15.815-1.165-26.514-4.109-35.952-2.408-7.718-4.526-14.56-3.484-23.856 10.252-1.145 18.017-5.162 23.113-12.005 6.573-8.826 6.623-20.011 5.743-27.145 58.144-24.608 99.562-106.674 99.562-178.912zm-281.247 180.355c-4.248 5.667-12.032 8.541-23.137 8.541s-18.889-2.874-23.136-8.541c-4.426-5.905-4.728-14.045-4.167-19.971 8.859 2.328 17.974 3.582 27.303 3.582 9.161 0 18.289-1.232 27.3-3.618.566 5.93.272 14.09-4.163 20.007zm163.903 16.772c-3.13 4.17-9.002 6.284-17.454 6.284s-14.324-2.114-17.454-6.284c-2.778-3.7-3.377-8.907-3.187-13.358 6.803 1.644 13.698 2.495 20.641 2.495 7.038 0 13.929-.865 20.641-2.495.191 4.451-.409 9.659-3.187 13.358z"/><path d="m242.98 127.237c-.512-6.466.063-11.343.08-11.475.521-4.102-2.373-7.854-6.471-8.385-4.105-.536-7.859 2.368-8.391 6.477-.074.58-1.611 13.013 1.755 26.439l-35.845 35.923v-50.814c11.854-7.11 19.54-16.99 19.895-17.452 2.521-3.276 1.91-7.97-1.357-10.501-3.27-2.531-7.969-1.929-10.504 1.336-.049.062-3.086 3.935-8.035 8.166v-15.38c0-4.142-3.354-7.5-7.491-7.5s-7.492 3.358-7.492 7.5v15.379c-4.948-4.231-7.985-8.103-8.034-8.165-2.525-3.269-7.221-3.877-10.496-1.353-3.277 2.527-3.889 7.236-1.365 10.518.356.463 8.042 10.343 19.894 17.453v50.812l-35.845-35.923c3.366-13.426 1.83-25.859 1.756-26.438-.53-4.102-4.275-6.998-8.372-6.471-4.098.521-7.001 4.272-6.49 8.376.01.078.594 4.973.079 11.478l-10.844-10.867c-2.924-2.93-7.665-2.933-10.594-.006-2.927 2.927-2.929 7.676-.005 10.607l10.862 10.885c-6.491.517-11.378-.069-11.457-.079-4.088-.525-7.845 2.374-8.374 6.477-.532 4.108 2.364 7.869 6.467 8.401.28.036 3.332.417 7.93.417 4.895 0 11.541-.434 18.449-2.173l35.858 35.936h-50.702c-7.093-11.877-16.951-19.578-17.413-19.935-3.27-2.525-7.959-1.92-10.491 1.348-2.53 3.269-1.934 7.976 1.325 10.518.061.048 3.935 3.099 8.163 8.069h-15.35c-4.138 0-7.491 3.358-7.491 7.5s3.354 7.5 7.491 7.5h15.35c-4.198 4.934-8.046 7.978-8.16 8.068-3.266 2.533-3.868 7.235-1.343 10.511 1.476 1.915 3.694 2.919 5.936 2.919 1.599 0 3.208-.51 4.572-1.563.462-.357 10.319-8.058 17.413-19.935h50.702l-35.859 35.936c-13.395-3.37-25.799-1.831-26.378-1.756-4.104.532-6.999 4.293-6.467 8.401.531 4.108 4.303 7.002 8.391 6.475.077-.01 4.964-.585 11.434-.071l-10.856 10.879c-2.924 2.931-2.922 7.68.005 10.607 1.463 1.463 3.379 2.194 5.295 2.194 1.919 0 3.838-.733 5.3-2.2l10.843-10.867c.513 6.484-.066 11.369-.079 11.476-.521 4.102 2.374 7.854 6.472 8.383.326.042.65.063.97.063 3.71 0 6.932-2.758 7.42-6.54.074-.58 1.61-13.012-1.756-26.438l35.845-35.923v50.813c-11.853 7.11-19.539 16.99-19.894 17.453-2.521 3.276-1.91 7.97 1.357 10.501 1.363 1.055 2.974 1.566 4.574 1.566 2.238 0 4.452-.999 5.93-2.902.049-.062 3.086-3.934 8.034-8.165v15.379c0 4.142 3.354 7.5 7.492 7.5s7.491-3.358 7.491-7.5v-15.379c4.91 4.199 7.941 8.044 8.033 8.162 1.476 1.911 3.691 2.914 5.933 2.914 1.595 0 3.203-.508 4.565-1.558 3.277-2.527 3.889-7.236 1.365-10.518-.356-.463-8.041-10.343-19.895-17.452v-50.814l35.845 35.923c-3.366 13.426-1.83 25.859-1.755 26.439.489 3.782 3.711 6.54 7.42 6.54.32 0 .645-.021.97-.063 4.103-.531 6.999-4.292 6.469-8.399-.01-.077-.583-4.972-.072-11.455l10.838 10.861c1.463 1.466 3.381 2.2 5.3 2.2 1.916 0 3.832-.731 5.295-2.194 2.927-2.927 2.929-7.676.005-10.607l-10.862-10.885c6.491-.517 11.378.069 11.457.079 4.085.522 7.844-2.374 8.374-6.477.532-4.108-2.364-7.869-6.467-8.401-.577-.074-12.982-1.614-26.378 1.756l-35.859-35.936h50.701c7.094 11.877 16.952 19.578 17.414 19.935 1.364 1.053 2.973 1.563 4.572 1.563 2.241 0 4.46-1.004 5.936-2.919 2.527-3.279 1.922-7.989-1.354-10.52-.061-.047-3.926-3.107-8.142-8.059h15.343c4.138 0 7.491-3.358 7.491-7.5s-3.354-7.5-7.491-7.5h-15.35c4.198-4.934 8.046-7.978 8.16-8.068 3.266-2.533 3.868-7.235 1.343-10.511-2.528-3.281-7.232-3.885-10.508-1.356-.462.357-10.32 8.058-17.414 19.935h-50.701l35.858-35.936c6.909 1.738 13.554 2.173 18.449 2.173 4.596 0 7.65-.381 7.929-.417 4.104-.532 6.999-4.293 6.467-8.401-.531-4.108-4.299-7-8.391-6.475-.078.009-4.964.584-11.434.071l10.855-10.879c2.924-2.931 2.922-7.68-.005-10.607-2.928-2.928-7.672-2.924-10.594.006z"/></g></g></svg>