<svg id="Capa_1" enable-background="new 0 0 513.023 513.023" height="512" viewBox="0 0 513.023 513.023" width="512" xmlns="http://www.w3.org/2000/svg"><g><g><g><path d="m195.197 19.154 4.654 18.148 9.43 28.03 8.28 24.42 76.53 1.57 9.85-25.99 9.43-28.03 7.124-18.148z" fill="#c9a291"/></g><path d="m247.189 89.752-8.281-24.42-9.429-28.03-4.654-18.148h-29.628l4.654 18.148 9.43 28.03 8.28 24.42 76.53 1.57.229-.603z" fill="#be8f7d"/><path d="m190.021 229.842 67.825 51.846h35.86l29.307-51.847c-7.845-23.699-12.887-48.295-14.942-73.289l-4.33-52.71 2.54-29.73h-96.19l-.81 29.73-4.33 52.71c-2.056 24.995-7.085 49.59-14.93 73.29z" fill="#c9a291"/><g><path d="m305.699 80.92.582-6.808h-55.305-40.885l-.81 29.73-4.33 52.71c-2.056 24.994-7.1 49.6-14.931 73.298l57.381 20.11c9.227-25.833 15.085-52.807 17.343-80.262l1.808-22.005c1.107-13.48 12.37-23.855 25.895-23.855h11.493c.483 0 .963-.016 1.44-.037l-1.64-19.959z" fill="#be8f7d"/><path d="m303.94 103.837h-94.658c-6.829 0-12.366-5.536-12.366-12.366v-13.771c0-6.829 5.536-12.366 12.366-12.366h94.658c6.829 0 12.366 5.536 12.366 12.366v13.771c0 6.83-5.536 12.366-12.366 12.366z" fill="#b37e67"/><path d="m237.973 92.481c-13.706 0-24.817-11.111-24.817-24.817v-1.32c0-.341.024-.676.051-1.01h-3.925c-6.829 0-12.366 5.536-12.366 12.366v13.771c0 6.83 5.536 12.366 12.366 12.366h94.658c6.489 0 11.8-5 12.315-11.356z" fill="#a26d56"/><g id="XMLID_207_"><g><path d="m329.661 19.152v6.49c0 6.44-5.22 11.66-11.66 11.66h-4.63-113.52-4.63c-6.44 0-11.66-5.22-11.66-11.66v-6.49c0-6.43 5.22-11.65 11.66-11.65h122.78c6.44 0 11.66 5.22 11.66 11.65z" fill="#e79098"/></g></g><path d="m327.83 25.623h-113.52-4.63c-6.44 0-11.66-5.22-11.66-11.66v-6.461h-2.798c-6.44 0-11.66 5.22-11.66 11.65v6.49c0 6.44 5.22 11.66 11.66 11.66h4.63 113.52 4.63c6.44 0 11.66-5.22 11.66-11.66v-.019z" fill="#e17983"/><g id="XMLID_206_"><g><path d="m392.293 373.111c31.03 60.5-12.9 132.41-80.89 132.41h-109.75c-68 0-111.93-71.91-80.89-132.41l50.47-98.39c7.43-14.48 13.72-29.49 18.8-44.88h132.98c5.08 15.39 11.37 30.4 18.8 44.88z" fill="#be8f7d"/></g></g><path d="m231.014 287.867c9.535-18.584 17.159-38.025 22.825-58.025h-63.818c-5.08 15.39-11.37 30.4-18.8 44.88l-50.47 98.39c-31.04 60.5 12.89 132.41 80.89 132.41h12.505c-38.491-23.511-56.566-74.506-33.602-119.265z" fill="#b37e67"/></g><g><path d="m323.47 445.263h-133.916c-4.951 0-8.965-4.014-8.965-8.965v-117.543c0-4.951 4.014-8.965 8.965-8.965h133.916c4.951 0 8.965 4.014 8.965 8.965v117.543c0 4.952-4.014 8.965-8.965 8.965z" fill="#eadad4"/><g fill="#e0c8bf"><path d="m189.554 309.79c-4.951 0-8.965 4.014-8.965 8.965v67.413l39.179-76.378z"/><path d="m305.827 378.348-47.334-65.936c-.924-1.288-2.84-1.288-3.764 0l-47.335 65.938c-.595.829-.578 1.949.042 2.76l47.272 61.754c.927 1.211 2.75 1.212 3.678.002l47.397-61.756c.622-.81.64-1.932.044-2.762z"/></g></g></g><g><path d="m398.95 369.688-50.474-98.385c-16.428-32.024-27.039-66.399-31.537-102.171-.517-4.11-4.275-7.021-8.377-6.506-4.11.517-7.022 4.268-6.506 8.377 2.197 17.466 5.801 34.608 10.745 51.338h-112.555c6.259-21.149 10.349-42.926 12.178-65.18l3.767-45.824h80.643l2.248 27.342c.322 3.919 3.603 6.886 7.466 6.886.206 0 .414-.008.623-.026 4.128-.339 7.2-3.961 6.86-8.089l-2.278-27.718c7.081-3.041 12.055-10.079 12.055-18.261v-13.771c0-7.473-4.152-13.989-10.266-17.38l5.226-15.532c10.209-.403 18.39-8.835 18.39-19.141v-6.491c-.002-10.563-8.595-19.156-19.157-19.156h-122.78c-10.562 0-19.155 8.593-19.155 19.156v6.491c0 10.306 8.181 18.738 18.39 19.141l5.226 15.532c-6.114 3.391-10.266 9.907-10.266 17.38v13.771c0 8.106 4.887 15.083 11.864 18.168l-3.805 46.293c-3.325 40.447-14.403 79.263-32.927 115.37l-7.569 14.753c-1.891 3.686-.437 8.206 3.249 10.097 1.096.562 2.266.829 3.418.829 2.723 0 5.351-1.488 6.679-4.078l7.569-14.754c6.807-13.268 12.633-26.891 17.508-40.808h122.233c4.876 13.943 10.704 27.57 17.496 40.808l50.474 98.385c13.373 26.068 12.238 56.558-3.035 81.56s-41.884 39.929-71.182 39.929h-109.752c-29.298 0-55.908-14.927-71.182-39.929s-16.408-55.492-3.035-81.56l28.297-55.158c1.891-3.686.437-8.206-3.249-10.096-3.687-1.893-8.207-.437-10.097 3.25l-28.297 55.158c-15.778 30.756-14.44 66.729 3.58 96.227s49.416 47.109 83.982 47.109h109.751c34.566 0 65.962-17.611 83.982-47.109 18.021-29.498 19.36-65.471 3.582-96.227zm-95.033-296.854c.008 0 .016.002.024.002.003 0 .007-.001.01-.001 2.678.006 4.855 2.185 4.855 4.865v13.771c0 2.683-2.183 4.866-4.866 4.866h-.034c-.012 0-.023 0-.035 0h-94.59c-2.684 0-4.866-2.183-4.866-4.866v-13.771c0-2.683 2.183-4.866 4.866-4.866zm-112.851-47.188v-6.491c0-2.292 1.864-4.156 4.155-4.156h122.779c2.291 0 4.155 1.864 4.155 4.156v6.491c0 2.292-1.864 4.156-4.155 4.156h-33.29c-4.143 0-7.5 3.358-7.5 7.5s3.357 7.5 7.5 7.5h18.226l-4.385 13.032h-83.879l-4.385-13.032h49.284c4.143 0 7.5-3.358 7.5-7.5s-3.357-7.5-7.5-7.5h-64.35c-2.291.001-4.155-1.864-4.155-4.156z"/><path d="m323.469 452.764c9.079 0 16.466-7.386 16.466-16.465v-117.544c0-9.079-7.387-16.465-16.466-16.465h-133.915c-9.079 0-16.465 7.386-16.465 16.465v117.543c0 9.079 7.386 16.465 16.465 16.465h133.915zm1.466-134.009v117.543c0 .808-.657 1.465-1.466 1.465h-51.713l9.32-12.144c2.521-3.286 1.902-7.994-1.384-10.516-3.289-2.524-7.994-1.902-10.517 1.383l-12.623 16.448-40.826-53.333 40.884-56.951 40.879 56.945-8.85 11.531c-2.521 3.286-1.902 7.994 1.384 10.516 3.288 2.522 7.994 1.9 10.517-1.383l11.19-14.582c2.656-3.458 2.731-8.162.188-11.703l-40.693-56.685h52.242c.811.001 1.468.658 1.468 1.466zm-136.845 117.543v-117.543c0-.808.657-1.465 1.465-1.465h52.44l-40.695 56.687c-2.538 3.536-2.466 8.234.181 11.691l39.879 52.095h-51.806c-.807.001-1.464-.657-1.464-1.465z"/></g></g></svg>