<svg id="Layer_1" height="512" viewBox="0 0 512 512" width="512" xmlns="http://www.w3.org/2000/svg" data-name="Layer 1"><path d="m39.34 119.86v193.96h307.12v-194.71z" fill="#c0def9"/><path d="m480.761 314.931-33.961-19.723-14.5-56.54a10.889 10.889 0 0 0 -10.556-8.195h-64.569a10.89 10.89 0 0 0 -10.894 10.913v71.977l-145.471 52.9v18.5h145.452v13.294h53.424l92.7-36.162v-26.755a23.36 23.36 0 0 0 -11.625-20.209z" fill="#f7c365"/><path d="m377.017 230.473h-19.842a10.891 10.891 0 0 0 -10.894 10.913l-.019 156.673h19.838l.019-156.673a10.891 10.891 0 0 1 10.898-10.913z" fill="#c1944c"/><path d="m70.645 117.959v6.895a29.629 29.629 0 0 1 -29.594 29.813 1.932 1.932 0 0 1 -.228.009 29.639 29.639 0 0 1 -29.823-29.822v-6.895z" fill="#ba4d55"/><path d="m110.687 82.243-39.8 35.507-.238.209h-59.649l44.833-34.476a5.936 5.936 0 0 1 3.631-1.24z" fill="#d05458"/><path d="m39.523 146a29.74 29.74 0 0 1 -8.681-21.142v-6.895h-19.842v6.895a29.639 29.639 0 0 0 29.823 29.822 1.932 1.932 0 0 0 .228-.009 30.165 30.165 0 0 0 9.684-1.657 29.545 29.545 0 0 1 -11.212-7.014z" fill="#a84753"/><path d="m79.307 82.243h-19.842a5.937 5.937 0 0 0 -3.632 1.24l-44.833 34.476h19.842l44.834-34.476a5.932 5.932 0 0 1 3.631-1.24z" fill="#ba4d55"/><path d="m346.262 313.363h-.516-29.764-58.097-119.052-68.019-35.656v52.999l311.123-.1v-52.899z" fill="#5f91d4"/><path d="m35.158 313.363h29.763v52.998h-29.763z" fill="#4f77a3"/><path d="m70.814 196.474v116.314.575h245.169v-.575-117.306z" fill="#3e5c72"/><path d="m100.577 196.474h-29.763v116.314.575h29.763v-.575z" fill="#314856"/><path d="m494.889 361.9h-38.107l-.08.079 9.546 37.234h28.641a6.108 6.108 0 0 0 6.111-6.113v-25.1a6.1 6.1 0 0 0 -6.111-6.1z" fill="#ba4d55"/><path d="m150.3 117.959v13.711a39.615 39.615 0 0 1 -79.229 0v-13.711z" fill="#73acea"/><path d="m229.541 117.959v13.711a39.62 39.62 0 0 1 -79.24 0v-13.711z" fill="#ba4d55"/><path d="m309.206 124.854v6.816a39.62 39.62 0 0 1 -79.239 0v-13.711h79.239z" fill="#73acea"/><path d="m345.746 153.922a29.709 29.709 0 0 1 -36.54-29.068v-6.895h59.636v6.895a29.586 29.586 0 0 1 -23.096 29.068z" fill="#ba4d55"/><path d="m368.842 117.959h-59.636l-33.225-35.716h51.778a5.965 5.965 0 0 1 4.028 1.577z" fill="#d05458"/><path d="m275.981 82.243 33.225 35.716h-79.665l-19.594-35.716z" fill="#5f91d4"/><path d="m209.947 82.243 19.594 35.716h-79.24l19.604-35.716z" fill="#d05458"/><path d="m169.905 82.243-19.604 35.716h-79.229l-.189-.209 39.804-35.507z" fill="#5f91d4"/><path d="m412.127 251.218 11.4 44.129h-56.521v-44.129z" fill="#deedfd"/><path d="m423.527 295.347h-56.521v-44.129z" fill="#c0def9"/><path d="m132.6 366.262a39.712 39.712 0 1 1 -31.8-15.933 39.492 39.492 0 0 1 31.8 15.933z" fill="#3e5c72"/><path d="m100.8 380.876a9.167 9.167 0 1 1 -9.157 9.167 9.171 9.171 0 0 1 9.157-9.167z" fill="#ba4d55"/><path d="m389.686 398.059a40.217 40.217 0 0 1 -.8-8.016 39.642 39.642 0 1 1 .8 8.016z" fill="#3e5c72"/><path d="m427.051 381a9.171 9.171 0 1 1 -7.482 7.473 9.179 9.179 0 0 1 7.482-7.473z" fill="#ba4d55"/><path d="m257.885 313.115v.248h-119.052v-.248-33.731h119.052z" fill="#f7c365"/><path d="m132.88 259.542h130.958v19.842h-130.958z" fill="#a2d4a8"/><g fill="#284268"><path d="m110.526 217a6 6 0 0 0 6 6h73.942a6 6 0 0 0 0-12h-73.942a6 6 0 0 0 -6 6z"/><path d="m95.527 211h-6.942a6 6 0 1 0 0 12h6.942a6 6 0 0 0 0-12z"/><path d="m429.6 299.5a6.186 6.186 0 0 0 1.065-5.26l-11.491-44.612a6.121 6.121 0 0 0 -5.81-4.631h-45.478a6.058 6.058 0 0 0 -5.886 6.181v44.48c0 3.314 2.572 6.342 5.886 6.342h56.973a6.174 6.174 0 0 0 4.741-2.5zm-55.6-9.5v-33h34.722l8.39 33z"/><path d="m500 357.249v-21.483a29.517 29.517 0 0 0 -14.571-25.553l-31.987-18.62-13.962-54.693a17.063 17.063 0 0 0 -16.423-12.9h-65.073a16.358 16.358 0 0 0 -5.984 1.157v-67.54a35.888 35.888 0 0 0 24-33.806v-6.949a6.1 6.1 0 0 0 -2.067-4.408h-.06l-37.384-34.354a11.984 11.984 0 0 0 -8.162-3.1h-270.427a12 12 0 0 0 -7.317 2.419l-45.191 34.722-.021-.013a5.973 5.973 0 0 0 -2.371 4.734v6.949a35.7 35.7 0 0 0 30 35.612v148.6c-3.158.19-6 2.617-6 5.8v53.417c0 3.314 3.084 5.76 6.4 5.76h23.75a48.311 48.311 0 0 0 -3.611 17.99 46.029 46.029 0 1 0 92.057.021 47.767 47.767 0 0 0 -3.659-18.011h52.063v12.794a6.507 6.507 0 0 0 6.371 6.206h140.629v7.189a5.826 5.826 0 0 0 5.981 5.811h39.174a45.426 45.426 0 0 0 43.818 31.87 46.051 46.051 0 0 0 43.427-30.87h23.395a11.922 11.922 0 0 0 12.205-11.811v-25.3a12.486 12.486 0 0 0 -9-11.64zm-136-233.438a24 24 0 1 1 -48 0v-.811h48zm-43.4 67.073a5.537 5.537 0 0 0 -4.14-1.884h-.024l-186.459.752a6 6 0 0 0 -5.976 6 6 6 0 0 0 6.024 6l179.975-.732v106.98h-46v-22.433a6.212 6.212 0 0 0 6-6v-20c0-3.314-2.789-5.567-6.1-5.567h-132a5.558 5.558 0 0 0 -5.9 5.567v20a6.212 6.212 0 0 0 6 6v22.433h-57v-106.029l15.023-.059a6 6 0 1 0 -.046-12l-20.6.082c-3.305.014-6.379 2.7-6.379 6v112.006h-17.998v-148.656a34.845 34.845 0 0 0 21.535-12.09 46 46 0 0 0 82.887 6.082 45.922 45.922 0 0 0 80.113-.374 45.914 45.914 0 0 0 82.85-5.367 35.367 35.367 0 0 0 27.071 12.273c.259 0 .544-.014.544-.019v148.151h-18v-113.414a5.332 5.332 0 0 0 -1.4-3.702zm-182.6 83.116v-8h120v8zm114 12v22h-108v-22zm-176-155.319v-7.681h67v7.681a33.5 33.5 0 1 1 -67 0zm79 0v-7.681h68v7.681a34 34 0 0 1 -68 0zm81 0v-7.681h68v7.681a34 34 0 0 1 -68 0zm92.327-43.681 26.05 24h-42.136l-22.329-24zm-54.805 0 22.33 24h-62.968l-13.169-24zm-100.753 0h33.257l13.168 24h-59.594zm-13.689 0-13.169 24h-61l26.909-24zm-101.18 0h35.888l-26.909 24h-40.187zm-42.9 36.811v-.811h48v.811a23.753 23.753 0 0 1 -24 24.057 23.753 23.753 0 0 1 -24-24.057zm84.564 301.327a34.028 34.028 0 1 1 34.029-34.028 34.066 34.066 0 0 1 -34.029 34.028zm34.889-64.138a45.934 45.934 0 0 0 -69.865 0h-25.588v-41h302v41zm249.547 32h-31v-7.206a5.844 5.844 0 0 0 -6.019-5.794h-140.981v-7h141a5.887 5.887 0 0 0 6-5.862v-125.879a5.272 5.272 0 0 1 1.456-3.663 5.083 5.083 0 0 1 3.528-1.6h65.073a5.111 5.111 0 0 1 4.835 3.883l14.62 57.06a6.061 6.061 0 0 0 2.8 3.73l34.091 19.9a17.508 17.508 0 0 1 8.6 15.193v21.238h-27.466c-8.135-8-18.842-11.786-30.564-11.786a45.944 45.944 0 0 0 -46.029 45.868c0 .697.022 1.918.056 1.918zm45.976 32.138a34.028 34.028 0 1 1 34.024-34.028 34.066 34.066 0 0 1 -34.027 34.028zm67.024-30.949c0 .091-.118-.189-.208-.189h-20.918c.075-1 .127-1.842.127-2.931a42.85 42.85 0 0 0 -5.824-22.069h26.615c.09 0 .208-.2.208-.106z"/><path d="m429.973 375.873a15.238 15.238 0 1 0 15.237 15.237 15.254 15.254 0 0 0 -15.237-15.237zm0 18.475a3.238 3.238 0 1 1 3.237-3.238 3.242 3.242 0 0 1 -3.237 3.238z"/><path d="m99.564 375.873a15.238 15.238 0 1 0 15.236 15.237 15.254 15.254 0 0 0 -15.236-15.237zm0 18.475a3.238 3.238 0 1 1 3.238-3.238 3.241 3.241 0 0 1 -3.238 3.238z"/></g></svg>