<svg id="Layer_1" height="512" viewBox="0 0 512 512" width="512" xmlns="http://www.w3.org/2000/svg" data-name="Layer 1"><path d="m494.85 133.72v70.71h-30.68v-44.95-25.76z" fill="#b0b5ca"/><path d="m53.99 159.48v24.19l26.71 35.37h383.47v-59.56z" fill="#6d7486"/><path d="m72.61 117.67h391.56v41.81h-391.56z" fill="#4a5160"/><path d="m228.65 219.04 36.78 54.04a47 47 0 0 1 -45.35-12.17l-12.92-12.92 10.49-28.95z" fill="#b0b5ca"/><path d="m80.7 219.04-63.55 175.29h136.96l63.54-175.29z" fill="#9ac5a1"/><path d="m160.69 253.3-12.88 34h-91.15l-.62-.23 12.28-33.89.34.12z" fill="#75967a"/><path d="m147.81 287.3-13.1 34.58h-90.91l-.34-.12 12.58-34.69.62.23z" fill="#607c63"/><path d="m134.71 321.88-12.88 34h-90.74l12.37-34.12.34.12z" fill="#75967a"/><path d="m83.99 159.48h-30v24.19l26.71 35.37h30l-26.71-35.37z" fill="#7e8696"/><path d="m72.61 117.67h30v41.81h-30z" fill="#575f6d"/><path d="m80.7 219.04-63.55 175.29h30l63.55-175.29z" fill="#afdbb4"/><path d="m85.957 287.3h-29.297l-.62-.23-12.58 34.69.34.12h30l-.34-.12z" fill="#6e8970"/><path d="m98.277 253.3h-29.617l-.34-.12-12.28 33.89.62.23h30l-.62-.23z" fill="#94af97"/><path d="m43.8 321.88-.34-.12-12.37 34.12h30l12.327-34z" fill="#94af97"/><g fill="#284268"><path d="m113.959 192.053h5.15a6 6 0 0 0 0-12h-5.15a6 6 0 0 0 0 12z"/><path d="m141.07 192.053h167.886a6 6 0 0 0 0-12h-167.886a6 6 0 0 0 0 12z"/><path d="m494.845 127.717h-24.677v-10.052a6 6 0 0 0 -6-6h-391.555a6 6 0 0 0 -6 6v35.813h-12.624a6 6 0 0 0 -6 6v24.194a6.005 6.005 0 0 0 1.212 3.617l24.431 33.642-62.117 171.359a6 6 0 0 0 5.64 8.045h136.952a6 6 0 0 0 5.641-3.955l26.481-73.051h60.95a46.239 46.239 0 0 0 45.992-45.105l1.034-53.188h169.963a6 6 0 0 0 6-6v-8.61h24.677a6 6 0 0 0 6-6v-70.709a6 6 0 0 0 -6-6zm-422.359 131.583h79.514l-8.334 22h-79.155zm-12.325 34h78.956l-8.555 22.582h-78.587zm-12.536 34.585h78.391l-8.334 22h-78.032zm102.275 60.45h-124.188l9.588-26.45h86.525a6 6 0 0 0 5.612-3.875l38.863-102.582a6 6 0 0 0 -5.611-8.125h-83.853l8.072-22.267h124.192zm131.273-110.345a34.178 34.178 0 0 1 -33.994 33.339h-56.6l19-52.427 6.255 6.255a53.071 53.071 0 0 0 51.138 13.717 6 6 0 0 0 3.411-9.172l-29.846-44.666h41.663zm-67.073-31.543 7.761-21.411h3.618l29.66 43.588a41.11 41.11 0 0 1 -30.815-11.953zm244.069-33.411h-374.481l-23.7-31.375v-16.183h398.18zm0-59.558h-379.556v-29.813h379.555zm30.677 44.948h-18.678v-58.709h18.677z"/></g></svg>