<svg id="Layer_1" height="512" viewBox="0 0 512 512" width="512" xmlns="http://www.w3.org/2000/svg" data-name="Layer 1"><path d="m394.181 322.86-13.74 81.621-.11-.02h-69.181a73.127 73.127 0 0 1 -109.5 0h-69.981l-.11.02-13.759-81.761h83.85a73.127 73.127 0 0 1 109.5 0h82.181z" fill="#f9cf76"/><path d="m327.9 184.46h-.08a71.875 71.875 0 0 1 -97.47 65.37v-.01a71.884 71.884 0 0 1 -46.17-65.36h-89.661l23.281 138.26h83.85a73.127 73.127 0 0 1 109.5 0h82.181l.85.14 23.3-138.4z" fill="#d05458"/><path d="m380.441 404.481-14.42 85.66h-220.042l-14.42-85.66.11-.02h69.981a73.127 73.127 0 0 0 109.5 0h69.181z" fill="#d05458"/><path d="m147.799 322.72h-30l13.76 81.761.11-.02h29.887z" fill="#d3a163"/><path d="m123.61 184.46h-29.091l23.28 138.26h30l-23.28-138.26z" fill="#ba4d55"/><path d="m393.331 322.72.849.14.024-.14z" fill="#ba4d55"/><path d="m161.669 404.461h-30l-.11.02 14.421 85.66h30l-14.421-85.66z" fill="#ba4d55"/><circle cx="256" cy="363.001" fill="#5f91d4" r="46"/><path d="m407.1 48.439a1.942 1.942 0 0 1 1.4 2.35l-32.649 133.671h-34.611v-.1l34.111-141.951a1.939 1.939 0 0 1 2.39-1.51z" fill="#ffe394"/><path d="m327.9 24.529v159.931h-.08a71.873 71.873 0 0 1 -35.92 60.48l-1.72-220.411a1.944 1.944 0 0 1 1.94-1.95h33.83a1.946 1.946 0 0 1 1.95 1.95z" fill="#edce83"/><path d="m268.6 253.25-12.84-229.5a1.939 1.939 0 0 0 -2.05-1.83l-33.77 1.86a1.947 1.947 0 0 0 -1.84 2.05l12.25 223.99v.01a72.206 72.206 0 0 0 38.29 3.61z" fill="#ffe394"/><path d="m218.8 38.689h-44.041a1.946 1.946 0 0 0 -1.93 2.17l11.021 143.6h.33a71.884 71.884 0 0 0 46.17 65.36z" fill="#edce83"/><path d="m140.859 23.549 21.7 160.911h-38.95l-20.15-155.981a1.946 1.946 0 0 1 1.67-2.18l33.55-4.42a1.946 1.946 0 0 1 2.18 1.67z" fill="#ffe394"/><g fill="#284268"><path d="m134.5 231.887a6 6 0 0 0 4.921-6.913l-1.537-9.127a6 6 0 0 0 -11.834 1.993l1.537 9.127a5.989 5.989 0 0 0 6.913 4.92z"/><path d="m143.164 247.187a6 6 0 0 0 -11.834 1.992l9.389 55.766a6 6 0 0 0 11.834-1.992z"/><path d="m256 415a52 52 0 1 0 -52-52 52.059 52.059 0 0 0 52 52zm0-92a40 40 0 1 1 -40 40 40.045 40.045 0 0 1 40-40z"/><path d="m417.481 178h-33.881l30.734-125.787a7.978 7.978 0 0 0 -5.741-9.583l-29.362-7.546a7.943 7.943 0 0 0 -9.736 6.007l-32.901 136.909h-2.594v-153.474c0-4.382-3.666-7.526-8.046-7.526h-33.835a7.786 7.786 0 0 0 -7.943 7.784l1.7 216.506a65.147 65.147 0 0 1 -11.678 4.628l-12.445-222.493a7.967 7.967 0 0 0 -8.368-7.5l-33.779 1.861a8.1 8.1 0 0 0 -7.5 8.523l.358 6.69h-37.71a7.7 7.7 0 0 0 -7.909 8.461l10.491 136.54h-9.6l-20.931-155.226a7.944 7.944 0 0 0 -8.913-6.847l-33.549 4.421a7.956 7.956 0 0 0 -6.837 8.9l19.215 148.752h-22.2a6.364 6.364 0 0 0 -5.917 7.34l51.463 305.67a5.989 5.989 0 0 0 5.917 4.99h220.034a5.939 5.939 0 0 0 5.917-4.933l51.465-305.648a6.469 6.469 0 0 0 -1.336-5.082 6.212 6.212 0 0 0 -4.583-2.337zm-37.241-130.267 21.487 5.522-30.479 124.745h-22.312zm-58.24-18.733-.178 155.085a65.741 65.741 0 0 1 -19.8 45.571c-1.354 1.325-2.765 2.574-4.21 3.769l-1.604-204.425zm-72-.851 12.3 220.039q-3.126.3-6.3.3a66.036 66.036 0 0 1 -19.882-3.058l-11.8-215.849zm-36.875 16.851 10.675 195.1a65.884 65.884 0 0 1 -33.625-56.026l-11.036-139.074zm-103.2-13.284 25.524-3.363 20.176 149.647h-26.806zm251.018 452.284h-209.886l-12.4-74h60.363a79.127 79.127 0 0 0 114.775 0h59.558zm28.14-167h-75.293a79.127 79.127 0 0 0 -114.775 0h-18.015a6 6 0 0 0 0 12h20.65a5.67 5.67 0 0 0 4.268-1.909 66.96 66.96 0 0 1 100.92-.021 5.738 5.738 0 0 0 4.316 1.93h75.908l-11.694 69h-64.214a6.238 6.238 0 0 0 -4.49 2.25 66.851 66.851 0 0 1 -100.523-.057 6.176 6.176 0 0 0 -4.491-2.193h-65.018l-11.694-69h16.062a6 6 0 0 0 0-12h-18.083l-21.3-127h76.923a75.889 75.889 0 0 0 23.046 48.119 77.43 77.43 0 0 0 108.828-.057 75.747 75.747 0 0 0 23.046-48.062h76.927z"/></g></svg>