<svg id="Layer_1" height="512" viewBox="0 0 512 512" width="512" xmlns="http://www.w3.org/2000/svg" data-name="Layer 1"><path d="m434.44 312.72-81.45-255.48a30 30 0 0 0 -28.58-20.89h-167.6v33.81h155.5a10.006 10.006 0 0 1 9.42 6.62l99.16 276.69a36.486 36.486 0 0 0 13.55-40.75z" fill="#d4e1f4"/><path d="m359.25 312.47h-71.96a513.244 513.244 0 0 0 -6.74-84.8h63.91l.18-.07a247.169 247.169 0 0 1 14.61 84.87z" fill="#75967a"/><path d="m287.29 312.47h71.96a247.267 247.267 0 0 1 -14.58 84.79h-64.12a513.119 513.119 0 0 0 6.74-84.79z" fill="#9ac5a1"/><path d="m280.55 397.26h64.12c-22.14 60.48-67.25 101.89-119.29 101.89 24.07 0 44.93-41.41 55.17-101.89z" fill="#75967a"/><path d="m344.64 227.6-.18.07h-63.91c-6.45-38.1-17.12-68.63-30.14-86.01h29.09c28.14 17.38 51.19 47.88 65.14 85.94z" fill="#9ac5a1"/><path d="m287.29 312.47h-123.83a513.244 513.244 0 0 1 6.74-84.8h110.35a513.244 513.244 0 0 1 6.74 84.8z" fill="#9ac5a1"/><path d="m163.46 312.47h123.83a513.119 513.119 0 0 1 -6.74 84.79h-110.35a513.119 513.119 0 0 1 -6.74-84.79z" fill="#75967a"/><path d="m167.13 95.7h116.49v45.96h-116.49z" fill="#6f8993"/><path d="m280.55 227.67h-110.35c6.46-38.1 17.13-68.63 30.15-86.01h50.06c13.02 17.38 23.69 47.91 30.14 86.01z" fill="#75967a"/><path d="m170.2 397.26h110.35c-10.24 60.48-31.1 101.89-55.17 101.89s-44.94-41.41-55.18-101.89z" fill="#9ac5a1"/><path d="m171.27 141.66h29.08c-13.02 17.38-23.69 47.91-30.15 86.01h-63.91l-.18-.07c13.96-38.07 37.01-68.58 65.16-85.94z" fill="#9ac5a1"/><path d="m170.2 397.26c10.24 60.48 31.11 101.89 55.18 101.89-52.03 0-97.12-41.38-119.28-101.82l.19-.07z" fill="#75967a"/><path d="m106.29 227.67h63.91a513.244 513.244 0 0 0 -6.74 84.8h-71.95a247.169 247.169 0 0 1 14.6-84.87z" fill="#75967a"/><path d="m170.2 397.26h-63.91l-.19.07a247.349 247.349 0 0 1 -14.59-84.86h71.95a513.119 513.119 0 0 0 6.74 84.79z" fill="#9ac5a1"/><path d="m106.95 23.17a31.115 31.115 0 1 1 -31.11 31.12 31.116 31.116 0 0 1 31.11-31.12z" fill="#fb6771"/><path d="m266.72 70.35v25.35h-82.69v-25.35-.19h82.69z" fill="#6d7486"/><path d="m198.46 12.85h53.83v23.5h-53.83z" fill="#6d7486"/><path d="m156.81 36.35h30v33.81h-30z" fill="#bfcddd"/><path d="m167.13 95.7h30v45.96h-30z" fill="#637c84"/><path d="m214.03 70.16h-30v.19 25.35h30v-25.35z" fill="#5e6472"/><path d="m198.46 12.85h30v23.5h-30z" fill="#5e6472"/><path d="m136.085 227.67c.009-.023.017-.047.025-.07 13.676-37.295 36.078-67.326 63.45-84.854.263-.365.525-.732.79-1.086h-29.08c-28.15 17.36-51.2 47.87-65.16 85.94l.18.07z" fill="#b3e0b8"/><path d="m199.565 482.2c-27.381-17.536-49.79-47.569-63.465-84.866-.009-.023-.016-.047-.025-.07h-29.785l-.19.07c22.16 60.44 67.25 101.82 119.28 101.82-9.213-.004-17.956-6.077-25.815-16.954z" fill="#8bb290"/><path d="m136.085 227.67h-29.795l-.18-.07a247.169 247.169 0 0 0 -14.6 84.87h30a247.191 247.191 0 0 1 14.575-84.8z" fill="#8bb290"/><path d="m136.075 397.26a247.371 247.371 0 0 1 -14.565-84.79h-30a247.349 247.349 0 0 0 14.59 84.86l.19-.07z" fill="#b3e0b8"/><g fill="#284268"><path d="m194.237 129.375a6 6 0 0 0 6-6v-9.395a6 6 0 1 0 -12 0v9.395a6 6 0 0 0 6 6z"/><path d="m256.517 129.375a6 6 0 0 0 6-6v-9.395a6 6 0 0 0 -12 0v9.395a6 6 0 0 0 6 6z"/><path d="m225.005 129.375a6 6 0 0 0 6-6v-9.395a6 6 0 0 0 -12 0v9.395a6 6 0 0 0 6 6z"/><path d="m358.708 55.419a35.879 35.879 0 0 0 -34.3-25.065h-66.117v-17.508a6 6 0 0 0 -6-6h-53.828a6 6 0 0 0 -6 6v17.508h-35.652a6 6 0 0 0 -6 6v11.935h-7.234a37.115 37.115 0 1 0 0 12h7.234v9.866a6 6 0 0 0 6 6h21.219v13.545h-10.9a6 6 0 0 0 -6 6v45.528c-46.178 32.863-75.623 98.928-75.623 171.241 0 51.11 14.324 99.233 40.334 135.5 26.442 36.875 61.792 57.182 99.537 57.182s73.095-20.307 99.537-57.182c26.01-36.271 40.334-84.394 40.334-135.5 0-72.314-29.444-138.379-75.623-171.241v-45.528a6 6 0 0 0 -6-6h-10.9v-13.545h39.589a4.01 4.01 0 0 1 3.766 2.651l99.156 276.694a6 6 0 0 0 9.136 2.858 42.342 42.342 0 0 0 15.779-47.458zm-251.754 23.981a25.115 25.115 0 1 1 25.115-25.115 25.143 25.143 0 0 1 -25.115 25.115zm97.509-60.558h41.828v11.512h-41.828zm-31.45 128.811h16.287c-10.263 17.914-18.526 43.7-24.059 74.014h-50.358c13.181-31.967 33.251-58.159 58.13-74.01zm-3.513 158.815a512.229 512.229 0 0 1 5.792-72.8h100.169a512.224 512.224 0 0 1 5.793 72.8zm111.755 12a508.723 508.723 0 0 1 -5.783 72.8h-100.19a508.723 508.723 0 0 1 -5.783-72.8zm-103.907-96.8c5.925-31.706 14.925-57.812 26.09-74.014h43.879c11.164 16.2 20.163 42.308 26.09 74.014zm-66.994 12h52.875a521.451 521.451 0 0 0 -5.728 72.8h-59.917a242.214 242.214 0 0 1 12.77-72.797zm-12.77 84.8h59.916a522.943 522.943 0 0 0 5.653 72.8h-52.832a241.365 241.365 0 0 1 -12.737-72.8zm17.277 84.8h50.3a320.56 320.56 0 0 0 10.747 43.1c6.021 18.157 13.191 32.4 21.15 42.315-35.005-11.231-64.594-42.801-82.197-85.418zm110.516 89.889c-13.346 0-27.583-18.9-38.084-50.568a304.657 304.657 0 0 1 -9.944-39.321h96.051a304.657 304.657 0 0 1 -9.944 39.321c-10.496 31.661-24.732 50.565-38.079 50.565zm28.324-4.475c7.959-9.92 15.129-24.158 21.151-42.315a320.413 320.413 0 0 0 10.746-43.1h50.295c-17.603 42.615-47.193 74.185-82.193 85.412zm86.732-97.414h-52.833a523.1 523.1 0 0 0 5.652-72.8h59.918a241.365 241.365 0 0 1 -12.737 72.797zm12.736-84.8h-59.916a521.755 521.755 0 0 0 -5.728-72.8h52.875a242.183 242.183 0 0 1 12.769 72.8zm-17.3-84.8h-50.356c-5.533-30.313-13.795-56.1-24.058-74.014h16.286c24.879 15.853 44.949 42.046 58.131 74.017zm-58.244-119.968v33.958h-104.5v-33.958zm-87.595-12v-13.545h70.694v13.545zm233.431 253.172-96.085-268.115a16.039 16.039 0 0 0 -15.063-10.6h-149.5v-21.8h161.6a23.918 23.918 0 0 1 22.866 16.71l81.445 255.478a30.367 30.367 0 0 1 -5.263 28.327z"/></g></svg>