<svg id="Layer_1" enable-background="new 0 0 512 512" height="512" viewBox="0 0 512 512" width="512" xmlns="http://www.w3.org/2000/svg"><g><g><path d="m389.209 353.13c-.85 34.11-1.99 65.03-3.01 89.21-1.36 32.11-2.52 52.33-2.52 52.33s-13.6 1.62-35.3 3.54c-31.85 2.81-81.12 6.29-130.38 6.29-82.83 0-165.68-9.83-165.68-9.83s-1.15-20.16-2.51-52.2c-1.94-45.9-4.31-116.18-4.31-186.46 0-119.34 6.82-238.68 6.82-238.68s22.84-2.71 56.53-5.28c30.46-2.33 69.81-4.55 109.15-4.55s78.69 2.22 109.15 4.55c7.7.59 14.83 1.19 21.25 1.75 21.68 1.92 35.28 3.53 35.28 3.53s2.41 42.2 4.37 101.5z" fill="#dcf8ff"/><path d="m389.209 353.13c-.85 34.11-1.99 65.03-3.01 89.21-1.36 32.11-2.52 52.33-2.52 52.33s-13.6 1.62-35.3 3.54c12.41-224.79 2.96-430.34.02-484.41 21.68 1.92 35.28 3.53 35.28 3.53s2.41 42.2 4.37 101.5z" fill="#d2e1f9"/><path d="m327.149 12.05c-1.13 30.1-2.29 50.35-2.29 50.35s-12.68 1.5-31.85 3.05c-20.2 1.62-47.6 3.29-75.01 3.29-53.43 0-106.86-6.34-106.86-6.34s-1.16-20.25-2.29-50.35c30.46-2.33 69.81-4.55 109.15-4.55 26.25 0 52.5.99 76.11 2.34 11.78.67 22.9 1.43 33.04 2.21z" fill="#58768c"/><path d="m294.109 9.84c11.78.67 22.9 1.43 33.04 2.21-1.13 30.1-2.29 50.35-2.29 50.35s-12.68 1.5-31.85 3.05c-.94-.02-1.43-.03-1.43-.03s1.27-22.31 2.53-55.58z" fill="#3e5868"/><path d="m386.199 442.34c-1.36 32.11-2.52 52.33-2.52 52.33s-13.6 1.62-35.3 3.54c-31.85 2.81-81.12 6.29-130.38 6.29-82.83 0-165.68-9.83-165.68-9.83s-1.15-20.16-2.51-52.2l.69.15s83.75 9.83 167.5 9.83c50.37 0 100.74-3.56 132.89-6.39 21.3-1.88 34.61-3.44 34.61-3.44z" fill="#58768c"/><path d="m386.199 442.34c-1.36 32.11-2.52 52.33-2.52 52.33s-13.6 1.62-35.3 3.54c.97-17.52 1.8-34.93 2.51-52.15 21.3-1.88 34.61-3.44 34.61-3.44z" fill="#3e5868"/><path d="m466.499 236c0 57.05-6.77 114.1-6.77 114.1s-12.27.7-32.06 1.56c-31.44 1.37-81.88 3.14-132.31 3.14-11.27 0-22.53-.09-33.58-.24-8.2 14.23-22.68 37.47-39.74 56.53-17.94-20.06-33.04-44.74-40.97-58.69-30.1-1.16-50.08-2.3-50.08-2.3s-6.77-57.05-6.77-114.1 6.77-114.1 6.77-114.1 82.19-4.7 164.37-4.7c50.56 0 101.13 1.78 132.55 3.15 19.65.85 31.82 1.55 31.82 1.55s6.77 57.05 6.77 114.1z" fill="#ffe878"/><path d="m459.729 121.9s6.77 57.05 6.77 114.1-6.77 114.1-6.77 114.1-12.27.7-32.06 1.56c1.14-10.16 6.83-63.45 6.83-116.74 0-50.22-5.05-100.46-6.59-114.57 19.65.85 31.82 1.55 31.82 1.55z" fill="#ffd37b"/></g><g><path d="m467.178 121.015c-.428-3.612-3.388-6.396-7.02-6.604-.466-.026-27.08-1.531-64.852-2.832-1.891-55.063-4.118-94.271-4.142-94.677-.207-3.632-2.991-6.591-6.604-7.02-.832-.098-84.234-9.882-166.56-9.882-82.325 0-165.726 9.784-166.559 9.882-3.612.429-6.396 3.388-6.604 7.02-.069 1.196-6.837 120.919-6.837 239.104 0 4.142 3.357 7.5 7.5 7.5s7.5-3.358 7.5-7.5c0-102.264 5.087-205.711 6.47-231.924 7.927-.852 22.904-2.375 42.191-3.932 1.016 25.533 1.981 42.495 1.991 42.68.207 3.632 2.991 6.591 6.604 7.02.539.064 54.489 6.393 107.744 6.393s107.206-6.329 107.745-6.393c3.612-.429 6.396-3.388 6.604-7.02.011-.185.975-17.147 1.991-42.68 19.289 1.558 34.267 3.08 42.193 3.932.693 13.089 2.312 45.431 3.748 87.011-25.834-.782-55.447-1.393-84.925-1.393-23.423 0-49.082.382-76.265 1.135-4.141.115-7.403 3.564-7.289 7.705s3.524 7.415 7.705 7.29c27.044-.749 52.563-1.129 75.849-1.129 68.018 0 136.805 3.271 157.614 4.348 1.712 16.3 6.03 61.889 6.03 106.953 0 4.756-.049 9.727-.145 14.774-.078 4.142 3.216 7.563 7.356 7.641.049.001.097.001.146.001 4.076 0 7.418-3.265 7.496-7.358.097-5.143.147-10.21.147-15.06 0-56.834-6.754-114.41-6.822-114.985zm-149.465-65.376c-15.589 1.63-57.871 5.603-99.713 5.603-41.816 0-84.118-3.973-99.712-5.604-.374-7.209-1.008-20.151-1.661-36.634 29.26-2.117 65.426-4.004 101.373-4.004 35.948 0 72.114 1.887 101.373 4.004-.653 16.484-1.286 29.425-1.66 36.635z"/><path d="m465.168 283.868c-4.133-.239-7.688 2.905-7.934 7.04-1.388 23.245-3.266 42.578-4.263 52.045-20.81 1.077-89.599 4.348-157.616 4.348-10.634 0-21.895-.081-33.472-.24-2.745-.048-5.244 1.398-6.602 3.754-6.384 11.078-18.623 31.075-33.239 48.767-15.229-18.423-27.88-39.328-34.45-50.886-1.282-2.256-3.64-3.688-6.232-3.789-19.873-.765-35.438-1.528-43.612-1.953-1.712-16.3-6.03-61.89-6.03-106.954s4.318-90.653 6.03-106.954c7.586-.395 21.533-1.081 39.383-1.788 4.139-.164 7.361-3.652 7.197-7.791s-3.626-7.36-7.791-7.197c-27.477 1.089-45.796 2.131-45.978 2.141-3.632.208-6.592 2.992-7.02 6.604-.068.575-6.822 58.151-6.822 114.985s6.754 114.41 6.822 114.985c.428 3.612 3.388 6.396 7.02 6.604.19.011 18.54 1.054 46.078 2.145 8.204 14.106 22.75 37.282 39.817 56.356 1.422 1.59 3.455 2.499 5.589 2.499s4.166-.909 5.589-2.499c15.733-17.583 29.258-38.417 38.425-53.975 10.106.123 19.942.185 29.298.185 29.945 0 60.028-.631 86.148-1.43-.745 28.026-1.675 53.723-2.548 74.929-11.017 1.182-37.129 3.812-69.761 5.935-4.133.27-7.266 3.838-6.997 7.972.259 3.968 3.557 7.013 7.477 7.013.164 0 .329-.005.495-.016 30.837-2.007 55.922-4.464 68.141-5.751-.749 16.969-1.401 29.832-1.777 36.966-20.795 2.237-90.069 9.082-158.533 9.082-68.463 0-137.736-6.846-158.531-9.082-.376-7.133-1.027-19.987-1.775-36.969 23.064 2.421 92.045 9.001 160.306 9.001 15.452 0 32.005-.337 49.2-1.003 4.139-.16 7.364-3.646 7.204-7.784s-3.612-7.369-7.784-7.204c-17.003.657-33.36.991-48.62.991-69.981 0-140.784-6.996-160.951-9.153-1.503-36.53-3.179-86.453-3.798-138.787-.048-4.141-3.482-7.483-7.588-7.411-4.142.049-7.46 3.446-7.41 7.588 1.219 103.143 6.53 196.975 6.584 197.91.207 3.632 2.991 6.592 6.604 7.021.833.099 84.234 9.882 166.559 9.882 82.326 0 165.728-9.783 166.561-9.882 3.612-.429 6.396-3.389 6.604-7.021.034-.603 3.371-59.44 5.359-134.719 37.125-1.292 63.174-2.764 63.635-2.79 3.632-.208 6.591-2.992 7.02-6.604.03-.253 3.034-25.753 5.029-59.184.246-4.133-2.905-7.685-7.04-7.932z"/><path d="m236.186 205.411c-2.371-6.265-9.258-16.776-28.734-16.776-12.512 0-19.37 5.435-22.92 9.994-10.074 12.936-5.43 32.838-4.867 35.064 1.013 4.008 5.07 6.434 9.087 5.429 4.011-1.002 6.452-5.071 5.461-9.084-1.016-4.111-2.604-16.117 2.171-22.214.812-1.036 3.28-4.188 11.068-4.188 7.979 0 12.927 2.384 14.706 7.086 3.353 8.858-3.066 27.289-19.284 41.618-12.012 10.614-20.707 14.831-20.771 14.862-2.628 1.235-4.307 3.877-4.309 6.781s1.672 5.548 4.298 6.788c.657.311 11.272 5.2 26.682 5.199 7.805 0 16.841-1.255 26.432-4.993 3.859-1.504 5.769-5.852 4.265-9.711-1.505-3.859-5.851-5.771-9.712-4.264-9.738 3.795-18.694 4.383-25.756 3.809 2.694-2.047 5.653-4.446 8.803-7.229 19.712-17.42 29.545-41.883 23.38-58.171z"/><path d="m351.562 252.338c-12.013 10.614-20.707 14.832-20.771 14.862-2.628 1.236-4.307 3.877-4.309 6.781s1.672 5.548 4.298 6.788c.657.311 11.272 5.2 26.682 5.199 7.805 0 16.841-1.255 26.432-4.993 3.859-1.504 5.769-5.852 4.265-9.711-1.505-3.859-5.852-5.771-9.712-4.264-9.738 3.795-18.691 4.383-25.757 3.809 2.695-2.047 5.654-4.446 8.804-7.229 19.713-17.417 29.546-41.881 23.381-58.169-2.371-6.265-9.258-16.776-28.734-16.776-12.512 0-19.371 5.435-22.921 9.995-10.074 12.936-5.43 32.837-4.867 35.064 1.013 4.008 5.069 6.434 9.087 5.429 4.011-1.002 6.452-5.071 5.461-9.084-1.016-4.111-2.604-16.116 2.171-22.214.812-1.036 3.28-4.189 11.069-4.189 7.979 0 12.926 2.384 14.706 7.086 3.351 8.857-3.068 27.287-19.285 41.616z"/><path d="m283.227 285.966c28.416 0 30.542-19.269 30.542-48.666 0-29.396-2.126-48.666-30.542-48.666s-30.542 19.269-30.542 48.666 2.126 48.666 30.542 48.666zm0-82.332c11.311 0 15.542 0 15.542 33.666s-4.231 33.666-15.542 33.666-15.542 0-15.542-33.666 4.231-33.666 15.542-33.666z"/><path d="m407.342 285.943c.2.016.399.023.597.023 3.875 0 7.159-2.983 7.469-6.912 3.369-42.761.136-81.907-.003-83.553-.35-4.127-3.99-7.2-8.105-6.84-4.127.349-7.189 3.977-6.842 8.104.033.391 3.266 39.618-.003 81.111-.326 4.13 2.757 7.741 6.887 8.067z"/><circle cx="186.998" cy="37.39" r="7.5"/><circle cx="248.998" cy="37.39" r="7.5"/></g></g></svg>