<svg id="Capa_1" enable-background="new 0 0 512.729 512.729" height="512" viewBox="0 0 512.729 512.729" width="512" xmlns="http://www.w3.org/2000/svg"><path d="m322.846 67.642-2.926-11.048c-.662-2.499-2.608-4.454-5.103-5.127l-23.739-6.406c-3.403-.918-6.972.752-8.447 3.954l-7.945 17.251-9.783 18.799v31.927h62.723z" fill="#8f8390"/><g><g><path d="m299.753 87.147c0-2.133-1.042-4.131-2.792-5.35l-37.366-26.052c-2.241-1.562-5.219-1.562-7.46 0l-47.542 31.805v57.092h95.409z" fill="#a59ca6"/><path d="m192.103 69.887-20.285-14.143c-2.241-1.562-5.219-1.562-7.461 0l-37.366 26.052c-1.749 1.22-2.792 3.218-2.792 5.35v13.395 40.06h84.632l3.103-55.529z" fill="#a59ca6"/><path d="m250.757 102.291-19.579-46.867c-.726-1.737-2.424-2.868-4.307-2.868h-28.152c-2.311 0-4.274 1.691-4.616 3.976l-6.853 45.759-2.858 38.31 83.489-2.209z" fill="#8f8390"/><path d="m387.529 100.541v-13.394c0-2.133-1.043-4.131-2.792-5.35l-37.366-26.052c-2.241-1.562-5.219-1.562-7.461 0l-37.366 26.052c-1.749 1.22-2.792 3.218-2.792 5.35v13.395c0 .6.248 44.1.248 44.1h87.528c.001-.001.001-43.501.001-44.101z" fill="#a59ca6"/><g><g id="XMLID_201_"><g><path d="m420.944 102.287c6.31 0 10.48 6.59 7.77 12.3l-21.43 45.21-17.12 292.69c-1.73 29.61-26.25 52.74-55.92 52.74h-155.76c-29.67 0-54.19-23.13-55.92-52.74l-17.12-292.69-21.43-45.21c-2.71-5.71 1.46-12.3 7.77-12.3z" fill="#fcf1de"/></g></g><path d="m249.746 468.565c-29.67 0-54.19-23.13-55.92-52.74l-15.773-269.658c-.89-15.212-4.702-30.11-11.229-43.88h-75.04c-6.31 0-10.48 6.59-7.77 12.3l21.43 45.21 17.12 292.69c1.73 29.61 26.25 52.74 55.92 52.74h155.76c24.026 0 44.67-15.169 52.576-36.662z" fill="#f6e2c4"/><g id="XMLID_208_"><g><path d="m420.944 102.287c6.31 0 10.48 6.59 7.77 12.3l-21.43 45.21h-301.84l-21.43-45.21c-2.71-5.71 1.46-12.3 7.77-12.3z" fill="#f6e2c4"/></g></g><g fill="#a6d786"><path d="m142.734 69.247h-21.028c-14.183 0-25.681-11.498-25.681-25.681v-11.936c0-2.486 2.015-4.501 4.501-4.501h21.337c14.183 0 25.681 11.498 25.681 25.681v11.627c0 2.656-2.154 4.81-4.81 4.81z"/><path d="m146.316 54.572h23.265c18.658 0 33.783-15.125 33.783-33.783v-7.293c0-2.486-2.015-4.501-4.501-4.501h-18.764c-18.658 0-33.783 15.125-33.783 33.783z"/></g></g><path d="m84.014 114.587 21.43 45.21h73.406l-.797-13.63c-.89-15.212-4.702-30.11-11.229-43.88h-75.04c-6.31 0-10.48 6.59-7.77 12.3z" fill="#f7d8a4"/></g><g><path d="m393.261 399.597c-4.108-.25-7.683 2.914-7.925 7.049l-2.654 45.399c-1.498 25.617-22.771 45.684-48.433 45.684h-155.769c-25.661 0-46.935-20.067-48.433-45.684l-11.147-190.672c-.243-4.135-3.805-7.297-7.925-7.049-4.136.242-7.291 3.79-7.05 7.925l11.147 190.672c1.961 33.538 29.812 59.809 63.407 59.809h155.77c33.595 0 61.446-26.271 63.407-59.809l2.654-45.398c.242-4.136-2.913-7.685-7.049-7.926z"/><path d="m434.551 102.287c-2.969-4.693-8.058-7.496-13.611-7.496h-25.91v-7.644c0-4.582-2.244-8.881-6.003-11.503l-37.367-26.052c-4.797-3.345-11.242-3.344-16.039 0l-8.27 5.766-.181-.685c-1.346-5.076-5.33-9.079-10.399-10.447l-23.738-6.405c-6.962-1.879-14.198 1.511-17.214 8.057l-4.196 9.11-7.739-5.396c-4.797-3.345-11.242-3.344-16.039 0l-8.499 5.925-1.247-2.984c-1.897-4.542-6.305-7.478-11.229-7.478h-23.839c5.662-7.067 9.059-16.023 9.059-25.762v-7.293c0-6.617-5.384-12-12.001-12h-18.765c-17.724 0-32.872 11.23-38.711 26.947-5.688-4.573-12.904-7.317-20.752-7.317h-21.337c-6.617 0-12.001 5.384-12.001 12.001v11.936c0 18.17 14.682 32.969 32.806 33.172-2.925 2.64-4.631 6.417-4.631 10.409v7.644h-24.91c-5.554 0-10.643 2.802-13.611 7.496s-3.321 10.492-.942 15.51l20.811 43.899 3.996 68.339c.242 4.135 3.816 7.288 7.925 7.049 4.136-.242 7.292-3.79 7.05-7.925l-3.617-61.857h214.194c4.143 0 7.5-3.358 7.5-7.5s-3.357-7.5-7.5-7.5h-217.4l-19.404-40.932c-.064-.136-.262-.551.064-1.065.325-.515.784-.515.935-.515h329.15c.15 0 .609 0 .935.515s.129.929.064 1.065l-19.403 40.931h-40.609c-4.143 0-7.5 3.358-7.5 7.5s3.357 7.5 7.5 7.5h37.403l-12.065 206.374c-.241 4.135 2.914 7.684 7.05 7.925.149.009.297.013.444.013 3.941 0 7.247-3.076 7.48-7.062l12.444-212.856 20.811-43.899c2.379-5.019 2.027-10.817-.942-15.51zm-90.91-40.001 36.389 25.371v7.134h-72.776v-7.135zm-54.294-9.923 23.363 6.305 1.542 5.823-14.5 10.11-15.628-10.896zm-33.482 9.923 36.389 25.372v7.133h-36.501l-10.49-25.113zm-16.37 32.505h-43.539l5.202-34.735h23.827zm-84.451-53.508c0-14.492 11.79-26.283 26.282-26.283h15.766v4.294c0 14.492-11.791 26.283-26.283 26.283h-15.765zm-51.519 2.283v-8.937h18.338c10.025 0 18.182 8.156 18.182 18.181v8.937h-18.338c-10.026 0-18.182-8.156-18.182-18.181zm28.174 44.091 36.389-25.371 15.908 11.093-3.207 21.412h-49.091v-7.134z"/></g></g></svg>