<svg id="Layer_1" height="512" viewBox="0 0 512 512" width="512" xmlns="http://www.w3.org/2000/svg" data-name="Layer 1"><path d="m388 236.327v116.546h-64.045a89.957 89.957 0 0 1 -134.69 0h-65.265v-116.546h65.265a89.938 89.938 0 0 1 134.69 0z" fill="#f7c365"/><path d="m323.956 352.873a89.958 89.958 0 0 1 -134.691 0h-65.265v60.694a35.477 35.477 0 0 0 35.478 35.478h193.044a35.477 35.477 0 0 0 35.478-35.478v-60.694z" fill="#d05458"/><path d="m352.522 141.055h-193.044a35.476 35.476 0 0 0 -35.478 35.468v59.8h65.265a89.939 89.939 0 0 1 134.691 0h64.044v-59.8a35.476 35.476 0 0 0 -35.478-35.468z" fill="#d05458"/><path d="m124 236.327h30.007v116.546h-30.007z" fill="#c1944c"/><path d="m154.007 413.567v-60.694h-30.007v60.694a35.477 35.477 0 0 0 35.478 35.478h30.007a35.477 35.477 0 0 1 -35.478-35.478z" fill="#ba4d55"/><path d="m159.478 141.055a35.476 35.476 0 0 0 -35.478 35.468v59.8h30.007v-59.8a35.476 35.476 0 0 1 35.478-35.468z" fill="#ba4d55"/><path d="m162.698 447.569h185.661v32.495h-185.661z" fill="#a84a56"/><path d="m290.287 271.5-34.945-34.945a54.1 54.1 0 0 0 -21.251 47.158l-13.283-12.625c-19.369 19.37-19.657 51.354-.143 70.579a49.738 49.738 0 0 0 8.4 6.652 49.159 49.159 0 0 0 19.75 7.114l13.221-.031a49.414 49.414 0 0 0 28.252-83.9z" fill="#c12d38"/><path d="m274.465 317.884a23.962 23.962 0 0 1 -12.43 37.515 48.512 48.512 0 0 1 -6.693.463 49.576 49.576 0 0 1 -6.528-.432l-10.055-5.942a23.7 23.7 0 0 1 -1.759-31.388l18.865-24.139z" fill="#e2303d"/><path d="m238.522 106.872h34.955v34.602h-34.955z" fill="#d1d3d4"/><path d="m331.025 140.847v.627h-28.787v-.627-79.805h28.787z" fill="#a84a56"/><path d="m209.762 140.847v.627h-28.787v-.627-79.805h28.787z" fill="#a84a56"/><path d="m350.34 34.305a14.829 14.829 0 0 0 -10.54-4.369h-167.6a14.908 14.908 0 0 0 0 29.815h167.6a14.9 14.9 0 0 0 10.54-25.446z" fill="#d05458"/><g fill="#284268"><path d="m352.505 134h-15.505v-67h3.263a20.5 20.5 0 0 0 0-41h-168.526a20.5 20.5 0 0 0 0 41h3.263v67h-15.5a41.6 41.6 0 0 0 -41.5 41.544v236.988a41.576 41.576 0 0 0 39 41.348v26.53a5.255 5.255 0 0 0 5.5 5.59h187a5.255 5.255 0 0 0 5.5-5.59v-26.53a41.576 41.576 0 0 0 39-41.348v-236.988a41.6 41.6 0 0 0 -41.495-41.544zm-180.768-79a8.5 8.5 0 0 1 0-17h168.526a8.5 8.5 0 0 1 0 17zm153.263 12v67h-16v-67zm-52 33h-34a6.126 6.126 0 0 0 -6 6.145v27.855h-18v-67h82v67h-18v-27.855a6.126 6.126 0 0 0 -6-6.145zm-6 12v22h-22v-22zm-64-45v67h-16v-67zm140 407h-174v-20h174zm39-61.468a29.524 29.524 0 0 1 -29.495 29.468h-193.005a29.524 29.524 0 0 1 -29.5-29.468v-54.532h56.631a95.93 95.93 0 0 0 139.957 0h55.412zm0-183.532h-55.412a95.93 95.93 0 0 0 -139.957 0h-11.631a6 6 0 0 0 0 12h14.278a6.278 6.278 0 0 0 4.688-2.079 84.136 84.136 0 0 1 125.346.025 6.193 6.193 0 0 0 4.629 2.054h58.059v105h-58.059a5.929 5.929 0 0 0 -4.49 1.945 84.026 84.026 0 0 1 -125.682.019 5.95 5.95 0 0 0 -4.491-1.964h-59.278v-105h5a6 6 0 0 0 0-12h-5v-53.456a29.589 29.589 0 0 1 29.5-29.544h193.01a29.589 29.589 0 0 1 29.49 29.544z"/><path d="m208.5 157h-49a18.522 18.522 0 0 0 -18.468 18.506 6 6 0 1 0 12-.009 6.5 6.5 0 0 1 6.468-6.497h49a6 6 0 0 0 0-12z"/><path d="m238.5 157h-10a6 6 0 0 0 0 12h10a6 6 0 0 0 0-12z"/><path d="m226.612 350.933a53.835 53.835 0 0 0 21.347 7.754 29.075 29.075 0 0 0 14.97-.022 54.074 54.074 0 0 0 30.662-91.777l-33.991-33.988a6 6 0 0 0 -7.577-.745 58.023 58.023 0 0 0 -22.7 37.475l-3.416-3.247a6 6 0 0 0 -8.377.106 54.5 54.5 0 0 0 -16.01 39.041 53.364 53.364 0 0 0 15.908 38.128 54.343 54.343 0 0 0 9.184 7.275zm41.05-8.368a17.339 17.339 0 0 1 -7.061 4.286 40.038 40.038 0 0 1 -10.305.02 16.643 16.643 0 0 1 -6.826-4.119 17.091 17.091 0 0 1 -1.226-22.6l13.617-17.419 13.367 17.2a17.171 17.171 0 0 1 -1.566 22.632zm-45.5-63.184 8.391 7.977a6 6 0 0 0 10.122-4.723 46.791 46.791 0 0 1 14.3-37.4l30.134 30.134a42.07 42.07 0 0 1 0 59.5c-.279.279-.572.542-.859.814a28.92 28.92 0 0 0 -5.55-23.113l-18.09-23.263a5.983 5.983 0 0 0 -4.727-2.307h-.008a5.991 5.991 0 0 0 -4.728 2.294l-18.357 23.477a29.253 29.253 0 0 0 -5.713 23.487c-.416-.378-.833-.757-1.234-1.152a41.452 41.452 0 0 1 -12.328-29.626 42.651 42.651 0 0 1 8.647-26.099z"/></g></svg>