<svg id="Layer_1" height="512" viewBox="0 0 512 512" width="512" xmlns="http://www.w3.org/2000/svg" data-name="Layer 1"><path d="m253.34 28.75c-112.5-.28-206.85 77.56-231.9 182.32a456.682 456.682 0 0 0 78.82 27.55l14.54-18.93a114.118 114.118 0 0 1 41.19-33.41c27.33-13.11 59.29-12.42 86.51.94l100.99 49.54 1.2.59c54.64 26.8 73.71 96.09 39.14 146.18-.55.79-1.11 1.59-1.68 2.38a122.867 122.867 0 0 0 13.63 10.61q3.66 2.475 7.51 4.68l31.67 18.18a236.859 236.859 0 0 0 55.57-149.05c2.03-131.33-105.85-241.25-237.19-241.58z" fill="#9ac5a1"/><path d="m395.78 396.52-239.58 73.59v-43.17l208.48-60.31h.01a123.36 123.36 0 0 0 10.16 12.19q3.5 3.69 7.3 7.09a122.867 122.867 0 0 0 13.63 10.61z" fill="#d4e1f4"/><path d="m344.69 237.35-1.2-.59-100.99-49.54c-27.22-13.36-59.18-14.05-86.51-.94a114.118 114.118 0 0 0 -41.19 33.41l-14.54 18.93q3.69.945 7.39 1.79c.4.1.81.2 1.21.29q19.215 4.41 38.77 7.15a454.1 454.1 0 0 0 52.81 4.34 176.762 176.762 0 0 1 153.59 97.04 124.787 124.787 0 0 0 10.65 17.4h.01a123.36 123.36 0 0 0 10.16 12.19q3.5 3.69 7.3 7.09c.57-.79 1.13-1.59 1.68-2.38 34.57-50.09 15.5-119.38-39.14-146.18z" fill="#75967a"/><path d="m97.48 421.07h58.72v62.18h-58.72z" fill="#fb6771"/><path d="m147.63 247.85-.04.26v172.96h-40v-180.39l.06-.27c.4.1.81.2 1.21.29q19.215 4.41 38.77 7.15z" fill="#d4e1f4"/><path d="m343.49 236.76a53.9 53.9 0 0 1 -90.25-39.8c0-1.48.06-2.94.18-4.39a53.9 53.9 0 1 1 90.07 44.19z" fill="#9e9c69"/><circle cx="307.14" cy="196.96" fill="#6a6a3b" r="23.46"/><path d="m283.34 58.75c57.3.144 110.139 21.153 151.331 55.7-43.662-52.022-108.927-85.518-181.331-85.7-112.5-.28-206.85 77.56-231.9 182.32q16.947 7.73 34.427 14.03c30.405-96.6 120.77-166.616 227.473-166.35z" fill="#bde5c1"/><g fill="#284268"><path d="m307.14 226.423a29.463 29.463 0 1 0 -29.464-29.463 29.5 29.5 0 0 0 29.464 29.463zm0-46.926a17.463 17.463 0 1 1 -17.464 17.463 17.483 17.483 0 0 1 17.464-17.46z"/><path d="m426.189 96.17a245.7 245.7 0 0 0 -77.73-53.516 238.907 238.907 0 0 0 -95.1-19.9h-.631a241.143 241.143 0 0 0 -151.866 53.08 244.945 244.945 0 0 0 -85.256 133.839 6 6 0 0 0 3.347 6.855 463.633 463.633 0 0 0 82.64 28.668v169.87h-4.114a6 6 0 0 0 -6 6v62.182a6 6 0 0 0 6 6h58.721a6 6 0 0 0 6-6v-8.706l232.669-71.462c1.784 1.143 3.588 2.26 5.434 3.319l31.668 18.184a6 6 0 0 0 7.583-1.345 244.249 244.249 0 0 0 56.974-152.813 239.123 239.123 0 0 0 -18.2-95.516 245.8 245.8 0 0 0 -52.139-78.739zm-275.989 381.078h-46.721v-50.182h46.721zm156.94-220.389a59.6 59.6 0 0 0 37.167-12.977 94.954 94.954 0 0 1 47.823 60.179 92.642 92.642 0 0 1 -10.984 72.623 118.644 118.644 0 0 1 -21.76-30.163 182.494 182.494 0 0 0 -158.8-100.329 451.331 451.331 0 0 1 -89.971-11.2l8.945-11.649a108.663 108.663 0 0 1 39.019-31.655c25.148-12.056 55.531-11.713 81.274.916l7.4 3.632c0 .243-.019.482-.019.725a59.967 59.967 0 0 0 59.906 59.898zm-47.9-59.9a47.9 47.9 0 1 1 47.9 47.9 47.954 47.954 0 0 1 -47.9-47.899zm-117.654 56.121v161.986h-27.993v-167.116q13.907 2.996 27.993 5.13zm20.267 165.978a6 6 0 0 0 -5.649-3.992h-2.618v-160.329a467.412 467.412 0 0 0 46.716 3.451 170.516 170.516 0 0 1 148.373 93.743c1.952 3.865 4.1 7.6 6.4 11.229zm.351 42.931v-30.541l200.196-57.915a130.187 130.187 0 0 0 20.3 20.732zm322.326-191.75a232.259 232.259 0 0 1 -50.987 141.41l-27.266-15.656a119.089 119.089 0 0 1 -16.118-11.128 104.6 104.6 0 0 0 13.582-83.835 106.938 106.938 0 0 0 -50.468-65.909 59.883 59.883 0 1 0 -104.513-51.516l-3.619-1.775c-29.015-14.234-63.314-14.595-91.747-.963a120.7 120.7 0 0 0 -43.35 35.167l-12.168 15.847a451.609 451.609 0 0 1 -69.393-24.226 233.019 233.019 0 0 1 79.856-122.441 229.248 229.248 0 0 1 144.385-50.462h.6a226.983 226.983 0 0 1 90.356 18.909 236.046 236.046 0 0 1 123.56 125.828 227.2 227.2 0 0 1 17.29 90.75z"/><path d="m248.2 60.358c-3.75.1-7.538.309-11.26.624a6 6 0 0 0 .5 11.979c.169 0 .34-.007.512-.022 3.492-.294 7.048-.491 10.569-.585a6 6 0 0 0 -.319-12z"/><path d="m373.321 102.52a192.725 192.725 0 0 0 -96.594-40.808 6 6 0 0 0 -1.465 11.911 180.725 180.725 0 0 1 90.578 38.277 184.332 184.332 0 0 1 57.472 78.545 6 6 0 1 0 11.218-4.26 196.321 196.321 0 0 0 -61.209-83.665z"/></g></svg>