<svg id="Capa_1" enable-background="new 0 0 511.811 511.811" height="512" viewBox="0 0 511.811 511.811" width="512" xmlns="http://www.w3.org/2000/svg"><g><g><g><path d="m496.72 65.673-445.169-6.915c-3.587-.056-6.466-2.98-6.466-6.568v-8.533c0-3.628 2.941-6.568 6.568-6.568h449.343c1.831 0 3.315 1.484 3.315 3.315v17.796c-.001 4.173-3.418 7.537-7.591 7.473z" fill="#f6e2c4"/></g><path d="m89.987 22.771h112.183v189.747h-112.183z" fill="#fcf0b6"/><circle cx="218.711" cy="170.459" fill="#fbe88c" r="81.728"/><path d="m291.122 132.526c-6.75-1.141-13.702-1.743-20.772-1.743-17.21 0-33.609 3.526-48.522 9.886-4.178 1.782-8.964 1.225-12.627-1.461-7.05-5.17-14.697-9.576-22.812-13.105-4.966-2.16-6.069-8.676-2.062-12.318 14.513-13.194 33.794-21.237 54.954-21.237 1.529 0 3.04.031 4.548.114-7.917-2.556-16.35-3.932-25.117-3.932-24.949 0-47.273 11.19-62.262 28.814-.008-.001-.015-.003-.023-.004-12.31 14.473-19.662 33.289-19.438 53.83.478 43.76 35.977 79.75 79.727 80.793 46.05 1.098 83.724-35.904 83.724-81.704-.001-13.695-3.365-26.594-9.318-37.933z" fill="#fbe372"/><circle cx="270.35" cy="252.913" fill="#fcf0b6" r="104.13"/><path d="m166.221 252.913c0 24.149 8.223 46.376 22.019 64.04h69.493l.078-74.197-.005-9.964c-.016-28.879-10.403-55.39-27.651-75.972-37.544 15.732-63.934 52.839-63.934 96.093z" fill="#fbe88c"/><path d="m237.81 242.766-.005-9.964c-.03-54.436-44.183-98.541-98.62-98.511-54.436.03-98.541 44.184-98.511 98.62l.005 9.964v54.079h197.074z" fill="#fcf0b6"/><path d="m70.28 296.953v-47.14l-.005-9.963c-.03-54.436 44.075-98.59 98.511-98.62 2.534-.001 5.019.07 7.505.256-11.463-4.657-23.97-7.203-37.106-7.196-54.436.03-98.541 44.184-98.511 98.62l.005 9.964v54.079z" fill="#fbe88c"/><g><g id="XMLID_211_"><g><path d="m354.21 357.922.28.11 38.04 15.64c4.38 1.8 9.02-1.99 8.13-6.64l-22.64-118.48c-.41-2.13-1.75-3.88-3.54-4.86-1.01-.56-2.17-.87-3.39-.87h-333.92c-1.15 0-2.24.28-3.21.79-1.89.95-3.29 2.74-3.71 4.94l-22.64 118.48c-.89 4.65 3.74 8.44 8.13 6.64l38.31-15.75 115.872-47.628 86.798 5.097z" fill="#f8deb6"/></g></g></g><g><path d="m354.49 358.032-24 136.43c-.91 5.18-5.41 8.96-10.68 8.96h-231.06c-5.26 0-9.77-3.78-10.68-8.96l-24.02-136.54-19.08-108.48-.16-.9-.85-4.93c.97-.51 2.06-.79 3.21-.79h333.92c1.22 0 2.38.31 3.39.87l-.66 4.41-.07.44z" fill="#fcf1de"/></g><g><g id="XMLID_72_"><g><path d="m371.09 242.822h-333.92c-1.15 0-2.24.28-3.21.79l20.09 114.31 24.02 136.54c.91 5.18 5.42 8.96 10.68 8.96h231.06c5.27 0 9.77-3.78 10.68-8.96l4.715-26.802h-212.865c-5.26 0-9.77-3.78-10.68-8.96l-10.415-59.203c-1.352-7.688 4.652-14.573 12.457-14.535h.167 180.78c12.272 0 23.832-6.526 30.16-17.021l39.418-65.27 10.252-58.979c-1.009-.56-2.169-.87-3.389-.87z" fill="#f6e2c4"/><path d="m374.48 243.692-66.79 113.91c-2.75 4.56-7.7 7.36-13.04 7.36h-180.78c-5.31 0-10.24-2.77-13.01-7.31l-66.9-114.04c.97-.51 2.06-.79 3.21-.79h333.92c1.22 0 2.38.31 3.39.87z" fill="#fcf6ed"/></g></g><path d="m140.16 337.762c-5.31 0-10.24-2.77-13.01-7.31l-53.358-87.63h-36.622c-1.15 0-2.24.28-3.21.79l66.9 114.04c2.77 4.54 7.7 7.31 13.01 7.31h180.78c5.34 0 10.29-2.8 13.04-7.36l11.982-19.841h-179.512z" fill="#fcf1de"/><g><path d="m500.052 37.089h-448.399c-3.628 0-6.568-2.941-6.568-6.568v-8.533c0-3.588 2.879-6.512 6.466-6.568l448.435-6.966c2.377-.037 4.324 1.88 4.324 4.258v20.119c0 2.351-1.906 4.258-4.258 4.258z" fill="#fcf1de"/></g></g></g><g><path d="m385.385 247.14c-1.01-5.283-4.823-9.438-9.712-11.067-5.665-40.533-34.32-73.796-72.325-86.147-9.833-38.81-45.098-66.527-85.551-66.527-2.734 0-5.444.137-8.129.382v-15.066l148.543 2.307c.04.001.08.001.119.001 4.088 0 7.433-3.281 7.497-7.384.064-4.142-3.241-7.551-7.382-7.615l-148.776-2.311v-9.124h294.641c4.142 0 7.5-3.357 7.5-7.5s-3.358-7.5-7.5-7.5h-451.725v-6.685l451.843-7.019c4.142-.064 7.447-3.474 7.382-7.615-.064-4.143-3.489-7.469-7.616-7.383l-452.759 7.034c-7.637.118-13.851 6.429-13.851 14.066v8.533c0 2.372.596 4.606 1.637 6.569-1.041 1.963-1.637 4.196-1.637 6.568v8.532c0 7.639 6.213 13.949 13.851 14.067l31.052.482v76.469c-6.543 4.16-12.675 9.071-18.288 14.69-20.022 20.044-31.041 46.686-31.025 75.017l.002 2.973c-5.169 1.482-9.246 5.76-10.296 11.253l-22.64 118.481c-.929 4.862.875 9.827 4.709 12.958s9.06 3.907 13.638 2.026l29.692-12.202 22.405 127.358c1.546 8.786 9.144 15.163 18.065 15.163h231.062c8.922 0 16.52-6.377 18.065-15.163l22.385-127.244 29.417 12.089c1.655.68 3.394 1.013 5.121 1.013 3.052 0 6.068-1.04 8.517-3.039 3.833-3.132 5.638-8.097 4.708-12.958zm-25.033-11.82h-15.258c-7.231-34.962-38.121-60.562-74.455-60.562-13.092 0-25.714 3.327-36.992 9.654-2.289-4.449-4.899-8.745-7.823-12.857 13.626-7.731 28.962-11.797 44.815-11.797 44.926 0 82.329 32.711 89.713 75.562zm-115.046 0-.001-2.447c5.842-8.249 15.164-13.115 25.334-13.115 11.291 0 21.432 6.125 26.878 15.562zm68.714 0c-6.494-18.178-23.803-30.562-43.381-30.562-9.956 0-19.354 3.145-27.083 8.795-.951-5.199-2.285-10.295-3.989-15.254 9.398-5.597 20.029-8.541 31.072-8.541 28.099 0 52.129 19.074 59.042 45.562zm-99.822-77.504c-7.489-7.48-15.898-13.703-24.972-18.564 7.842-6.897 18.007-10.852 28.573-10.852 14.103 0 26.969 6.787 34.991 17.872-12.934 2.191-25.318 6.763-36.631 13.556-.645-.678-1.297-1.349-1.961-2.012zm72.203-11.885c-5.144-.77-10.407-1.173-15.762-1.173-.39 0-.778.018-1.168.022-9.99-19.221-29.733-31.38-51.672-31.38-16.52 0-32.307 7.158-43.307 19.368-5.166-1.815-10.483-3.226-15.912-4.22 13.674-18.821 35.497-30.147 59.219-30.147 30.843-.001 58.049 19.408 68.602 47.53zm-132.823-34.84v-66.502h13.045v55.122c-4.69 3.341-9.062 7.147-13.045 11.38zm-15 15.708c-4.397.027-8.751.318-13.046.869v-83.079h13.046zm56.091-40.33c-4.484 1.211-8.844 2.769-13.046 4.654v-46.534h13.046zm-142.084-35.196v-6.684h29.902v7.148zm44.902-6.684h13.045v86.114c-4.453 1.244-8.807 2.783-13.045 4.597zm-22.676 123.909c17.19-17.209 40.054-26.694 64.378-26.707h.052c24.305 0 47.159 9.459 64.356 26.637 17.209 17.19 26.694 40.054 26.708 64.378l.001 2.514h-15.026v-2.463c0-41.942-34.123-76.065-76.065-76.065-14.039 0-27.772 3.879-39.715 11.219-3.529 2.168-4.632 6.787-2.463 10.316s6.788 4.634 10.317 2.463c9.58-5.887 20.597-8.998 31.862-8.998 33.671 0 61.065 27.394 61.065 61.065v2.463h-15v-2.463c0-25.4-20.665-46.065-46.065-46.065s-46.065 20.665-46.065 46.065v2.463h-15v-2.463c0-11.099 3.025-21.976 8.748-31.455 2.141-3.546 1.002-8.155-2.544-10.297-3.548-2.14-8.157-1.002-10.297 2.545-7.136 11.818-10.907 25.376-10.907 39.207v2.463h-14.976l-.001-2.413c-.013-24.326 9.447-47.199 26.637-64.409zm95.469 66.822h-62.131v-2.463c0-17.13 13.936-31.065 31.065-31.065s31.065 13.936 31.065 31.065v2.463zm-154.775 130.335 16.812-87.984 13.301 75.609zm307.598 127.507c-.281 1.601-1.666 2.762-3.292 2.762h-231.061c-1.626 0-3.01-1.162-3.292-2.763l-36.213-205.85 45.21 74.239c4.098 6.729 11.537 10.908 19.415 10.908h119.352c4.142 0 7.5-3.357 7.5-7.5s-3.358-7.5-7.5-7.5h-119.352c-2.68 0-5.21-1.422-6.604-3.711l-62.986-103.427h319.431l-62.439 103.403c-1.392 2.304-3.928 3.735-6.619 3.735h-29.443c-4.142 0-7.5 3.357-7.5 7.5s3.358 7.5 7.5 7.5h29.444c7.912 0 15.368-4.208 19.459-10.981l45.377-75.147zm39.819-139.769 13.179-74.915 16.658 87.177z"/><path d="m504.427 58.291-114.013-1.771c-4.125-.066-7.551 3.241-7.615 7.383s3.241 7.551 7.383 7.615l114.013 1.771c.04.001.079.001.119.001 4.088 0 7.433-3.281 7.497-7.384.063-4.141-3.242-7.55-7.384-7.615z"/></g></g></svg>