<svg id="Layer_1" enable-background="new 0 0 512 512" height="512" viewBox="0 0 512 512" width="512" xmlns="http://www.w3.org/2000/svg"><g><g><path d="m449.32 423.09c-11.87 1.49-23.75 2.79-35.57 3.93-50.01 4.81-99.21 6.66-144.23 6.82-58.63.2-110.16-2.46-147.12-5.19h-.01c-37.26-2.75-59.71-5.56-59.71-5.56 5.22-14.98 10.6-29.72 16.1-44.18 9.08-23.88 18.47-47.01 27.97-69.23 10.1-23.62 20.33-46.21 30.45-67.6h.01c12.08-25.55 24.01-49.38 35.38-71.17 20.86-39.99 39.82-73.13 54.37-97.51h58.08c9.41 15.76 20.66 35.19 33.07 57.76h.01c8.91 16.2 18.42 34.02 28.28 53.26 8.42 16.44 17.1 33.93 25.87 52.34h.01c8.22 17.27 16.54 35.34 24.81 54.13 7.03 15.96 14.02 32.43 20.9 49.35 6.41 15.73 12.71 31.85 18.86 48.32 4.24 11.35 8.4 22.87 12.47 34.53z" fill="#ffe878"/><path d="m449.32 423.09c-11.87 1.49-23.75 2.79-35.57 3.93-54.15-153.11-123.36-281.78-165.53-353.62h36.82c9.41 15.76 20.66 35.19 33.07 57.76h.01c8.91 16.2 18.42 34.02 28.28 53.26 8.42 16.44 17.1 33.93 25.87 52.34h.01c8.22 17.27 16.54 35.34 24.81 54.13 7.03 15.96 14.02 32.43 20.9 49.35 6.41 15.73 12.71 31.85 18.86 48.32 4.24 11.35 8.4 22.87 12.47 34.53z" fill="#ffd37b"/><g fill="#77e0ab"><path d="m346.4 184.42c-11.25 2.52-22.44 5.14-33.52 7.84-67.86 16.47-131.39 35.54-175.67 49.82 12.08-25.55 24.01-49.38 35.38-71.17 31.04-9.68 70.16-21.15 112.57-31.81 10.8-2.71 21.81-5.37 32.95-7.94h.01c8.91 16.2 18.42 34.02 28.28 53.26z"/><path d="m397.09 290.89c-11.52 2.54-22.91 5.13-34.15 7.76-157.52 36.79-284.16 80.26-284.16 80.26 9.08-23.88 18.47-47.01 27.97-69.23 0 0 110.02-35.3 231.72-64.92 11.19-2.73 22.48-5.4 33.8-8h.01c8.22 17.27 16.54 35.34 24.81 54.13z"/><path d="m436.85 388.56c-11.79 2.9-23.14 5.76-33.99 8.53-80.34 20.54-133.34 36.75-133.34 36.75-58.63.2-110.16-2.46-147.12-5.19 1.53-.54 124.85-43.47 261.73-79.67 11.22-2.97 22.52-5.89 33.86-8.74 6.41 15.73 12.71 31.85 18.86 48.32z"/></g><path d="m346.4 184.42c-11.25 2.52-22.44 5.14-33.52 7.84-9.56-18.96-18.87-36.73-27.72-53.16 10.8-2.71 21.81-5.37 32.95-7.94h.01c8.91 16.2 18.42 34.02 28.28 53.26z" fill="#65c1b0"/><path d="m397.09 290.89c-11.52 2.54-22.91 5.13-34.15 7.76-8.14-18.63-16.33-36.62-24.47-53.89 11.19-2.73 22.48-5.4 33.8-8h.01c8.22 17.27 16.54 35.34 24.81 54.13z" fill="#65c1b0"/><path d="m436.85 388.56c-11.79 2.9-23.14 5.76-33.99 8.53-6.11-16.37-12.38-32.42-18.73-48.11 11.22-2.97 22.52-5.89 33.86-8.74 6.41 15.73 12.71 31.85 18.86 48.32z" fill="#65c1b0"/><path d="m295.35 46.85c0 21.73-17.62 39.35-39.35 39.35-4.93 0-9.65-.91-14-2.57-14.82-5.64-25.35-19.98-25.35-36.78s10.53-31.14 25.35-36.78c4.35-1.66 9.07-2.57 14-2.57 21.73 0 39.35 17.62 39.35 39.35z" fill="#ff5f85"/><path d="m295.35 46.85c0 21.73-17.62 39.35-39.35 39.35-4.93 0-9.65-.91-14-2.57 14.82-5.64 25.35-19.98 25.35-36.78s-10.53-31.14-25.35-36.78c4.35-1.66 9.07-2.57 14-2.57 21.73 0 39.35 17.62 39.35 39.35z" fill="#b2527e"/></g><g><path d="m456.405 420.624c-53.35-153.011-123.484-281.204-162.263-346.603 5.479-7.668 8.706-17.051 8.706-27.173 0-25.832-21.016-46.848-46.848-46.848s-46.848 21.016-46.848 46.848c0 10.122 3.227 19.504 8.706 27.173-5.359 9.037-10.782 18.369-16.159 27.807-2.05 3.6-.795 8.18 2.804 10.229 1.172.668 2.447.984 3.706.984 2.607 0 5.141-1.361 6.523-3.788 4.681-8.217 9.397-16.353 14.074-24.278 7.672 5.488 17.062 8.721 27.193 8.721s19.521-3.233 27.193-8.721c6.991 11.851 14.932 25.633 23.558 41.138-38 8.989-77.95 19.829-119.108 32.319 3.369-6.327 6.635-12.379 9.781-18.14 1.985-3.636.646-8.191-2.989-10.177-3.635-1.984-8.192-.646-10.177 2.989-35.869 65.696-87.307 168.909-128.662 287.52-.746 2.138-.485 4.499.709 6.424 1.194 1.924 3.194 3.206 5.441 3.487.346.043 6.806.834 18.275 1.968 23.105 43.683 71.426 46.276 122.506 49.016 3.193.171 6.394.343 9.598.525-10.656 4.122-20.916 9.444-30.518 16.372-3.359 2.424-4.117 7.111-1.693 10.471 1.466 2.032 3.76 3.112 6.088 3.112 1.52 0 3.055-.461 4.382-1.419 19.475-14.052 42.024-20.807 65.615-24.436 23.591 3.629 46.141 10.383 65.616 24.436 1.327.958 2.862 1.419 4.382 1.419 2.328 0 4.622-1.081 6.088-3.112 2.424-3.359 1.666-8.047-1.693-10.471-9.601-6.928-19.862-12.25-30.518-16.372 3.204-.182 6.405-.354 9.597-.525 11.572-.62 22.502-1.207 33.276-2.248 4.123-.397 7.143-4.063 6.744-8.187-.398-4.122-4.061-7.151-8.187-6.743-10.455 1.01-21.229 1.588-32.637 2.2-16.985.911-34.887 1.871-52.669 4.486-17.782-2.615-35.685-3.575-52.67-4.487-44.361-2.38-83.348-4.471-104.466-32.298 36 3.104 95.281 7.027 164.877 7.027 46.404 0 97.393-1.744 149.124-6.639-8.391 10.922-20.068 18.455-35.883 23.293-3.961 1.212-6.189 5.405-4.978 9.366.988 3.229 3.959 5.308 7.169 5.308.727 0 1.466-.106 2.197-.33 23.582-7.216 40.146-20.184 50.504-39.577 6.124-.672 12.252-1.389 18.378-2.156 2.248-.281 4.247-1.563 5.441-3.487 1.199-1.924 1.46-4.285.715-6.423zm-200.405-341.929c-17.561 0-31.848-14.287-31.848-31.848 0-17.56 14.287-31.847 31.848-31.847s31.848 14.287 31.848 31.848c0 17.56-14.287 31.847-31.848 31.847zm-78.195 98.447c47.358-14.709 93.221-27.275 136.464-37.389 6.702 12.273 13.743 25.469 21.013 39.503-72.937 16.747-141.325 37.041-183.792 50.399 9.099-18.823 17.947-36.394 26.315-52.513zm-65.466 138.627c15.408-4.868 82.961-25.954 164.701-47.631 4.004-1.062 6.389-5.168 5.327-9.172s-5.169-6.389-9.172-5.326c-67.988 18.029-126.219 35.658-153.009 43.96 7.518-17.162 15.042-33.662 22.452-49.396 40.803-13.091 117.625-36.507 199.711-55.177 6.249 12.287 12.635 25.151 19.093 38.539-16.27 3.798-33.253 7.933-50.618 12.323-4.016 1.016-6.448 5.094-5.433 9.109.859 3.399 3.913 5.664 7.266 5.664.608 0 1.227-.075 1.844-.23 18.423-4.658 36.411-9.025 53.563-13.006 6.123 12.942 12.289 26.334 18.445 40.132-135.691 30.401-254.144 67.835-295.002 81.218 6.838-17.496 13.814-34.526 20.832-51.007zm48.728 107.75c11.435-3.782 25.219-8.282 40.824-13.263 3.946-1.26 6.124-5.479 4.864-9.425-1.26-3.947-5.479-6.125-9.426-4.864-40.588 12.955-68.938 22.675-75.8 25.045-22.217-1.642-39.006-3.291-48.648-4.318 3.816-10.743 7.711-21.353 11.666-31.813 22.4-7.522 154.466-51.083 308.139-85.335 5.061 11.589 10.102 23.445 15.092 35.542-53.674 13.666-112.215 30.294-174.16 49.469-3.957 1.226-6.172 5.426-4.947 9.383.996 3.219 3.961 5.284 7.162 5.284.735 0 1.482-.108 2.22-.337 62.482-19.342 121.466-36.076 175.442-49.775 4.516 11.209 8.979 22.611 13.367 34.188-86.509 21.509-148.653 40.076-158.243 42.972-39.948.108-76.615-1.109-107.552-2.753zm165.657 1.636c27.363-7.608 63.56-17.323 105.426-27.713 2.359 6.394 4.693 12.838 6.997 19.328-38.009 4.454-75.999 7.06-112.423 8.385z"/></g></g></svg>