<svg id="Capa_1" enable-background="new 0 0 513.087 513.087" height="512" viewBox="0 0 513.087 513.087" width="512" xmlns="http://www.w3.org/2000/svg"><g><g><path d="m402.612 311.088c39.635 6.771 78.014-23.653 78.014-66.076v-2.691c0-50.153-53.102-82.506-97.671-59.507l-9.5 4.903-51.601 25.776 20.965 27.083 28.408-17.95 25.486-13.151c5.407-2.791 11.096-4.206 16.908-4.206 17.797 0 37.005 14.167 37.005 37.053v2.691c0 10.089-3.936 19.47-11.083 26.415-6.941 6.744-16.35 10.613-25.813 10.613-.001 0-.001 0-.003 0-4.58-.001-9.146-.885-13.574-2.625l-26.416-10.267-6.347 42.885z" fill="#f8f7f8"/><g fill="#efedee"><path d="m342.819 240.575 28.407-17.95 17.793-9.182-15.188-25.922-.377.195-51.601 25.776z"/><path d="m421.077 281.271c-2.417.508-4.88.769-7.347.769-.001 0-.001 0-.003 0-4.58-.001-9.146-.885-13.574-2.625l-26.416-10.267-6.347 42.885 35.222-.944c6.802 1.162 13.567 1.229 20.108.327.835-10.052.29-20.191-1.643-30.145z"/></g><path d="m363.641 209.484 26.924 46.643c35.525 61.543-8.891 138.465-79.951 138.465h-109.939c-41.82 0-74.402-26.645-86.902-61.115l-3.29-.588c-24.868-4.447-44.237-24.078-48.349-49.004l-10.349-62.731-6.93-11.248c-3.03-4.917.508-11.252 6.283-11.252h25.836c1.932 0 3.787.758 5.167 2.111l43.738 42.889c.578.709 1.687.621 2.144-.172l19.49-33.764 12.11-20.388h192.005z" fill="#f8f7f8"/><g><path d="m340.253 368.204h-109.939c-40.587 0-72.473-25.097-85.744-58.087-.761-1.892-2.441-3.257-4.448-3.616-24.868-4.447-44.237-24.079-48.349-49.005l-9.306-56.412-.325-.319c-1.38-1.353-3.235-2.111-5.167-2.111h-25.837c-5.776 0-9.313 6.335-6.283 11.252l6.93 11.248 10.349 62.731c4.112 24.925 23.481 44.557 48.348 49.004l3.291.589c12.5 34.47 45.082 61.115 86.902 61.115h109.939c31.78 0 58.233-15.389 74.587-37.903-13.053 7.28-28.272 11.514-44.948 11.514z" fill="#efedee"/></g><path d="m274.777 136.149 5.165-10.661c7.118-14.692-3.584-31.77-19.91-31.77h-7.775c-16.326 0-27.028 17.078-19.91 31.77l5.165 10.661 8.326 17.914h18.705z" fill="#fbe88c"/><g><path d="m151.526 222.244h207.237c3.885 0 7.588-.795 10.956-2.229l-6.079-10.531-12.013-20.154h-192.004l-12.11 20.388-6.131 10.621c3.149 1.225 6.568 1.905 10.144 1.905z" fill="#efedee"/><path d="m135.465 194.184c0-6.938 4.455-13.092 11.047-15.258l24.845-8.163 26.407-18.261c34.528-23.876 80.232-23.876 114.76 0l26.407 18.261 24.845 8.163c6.591 2.166 11.047 8.32 11.047 15.258 0 8.87-7.19 16.06-16.06 16.06h-207.237c-8.87 0-16.061-7.191-16.061-16.06z" fill="#f8f7f8"/><path d="m171.614 196.452 26.968-8.934 28.663-19.985c24.035-16.758 53.045-22.779 80.66-18.042-33.911-20.831-77.126-19.819-110.141 3.012l-26.407 18.261-24.845 8.164c-6.591 2.166-11.047 8.32-11.047 15.258 0 8.87 7.19 16.06 16.06 16.06h8.341c1.056-6.364 5.523-11.732 11.748-13.794z" fill="#efedee"/><path d="m159.623 109.849v.092c0 9.102-7.379 16.481-16.481 16.481h-39.289c-18.538 0-33.567 15.028-33.567 33.567v7.868c0 2.52-2.043 4.562-4.562 4.562h-19.774c-2.52 0-4.562-2.043-4.562-4.562v-37.435c0-41.332 33.506-74.839 74.839-74.839h13.151c8.36 0 15.137-6.777 15.137-15.137 0-.051.041-.092.092-.092h14.676c.188 0 .34.152.34.34z" fill="#f8f7f8"/><path d="m62.593 439.493 8.921 15.119c6.627 11.23 18.695 18.122 31.735 18.122h305.591c13.04 0 25.108-6.892 31.735-18.122l8.921-15.119 13.175-28.811h-412.65z" fill="#e4e1e5"/><path d="m498.646 394.593h-484.205c-3.833 0-6.941 3.108-6.941 6.941v7.402c0 16.876 13.68 30.556 30.556 30.556h436.975c16.876 0 30.556-13.68 30.556-30.556v-7.402c0-3.834-3.107-6.941-6.941-6.941z" fill="#f8f7f8"/><path d="m71.401 421.649c-15.691 0-28.613-11.83-30.351-27.056h-26.609c-3.833 0-6.941 3.108-6.941 6.941v7.403c0 16.876 13.68 30.556 30.556 30.556h436.975c12.338 0 22.968-7.322 27.793-17.849z" fill="#efedee"/></g></g><g><path d="m277.31 230.452h-37.191c-4.142 0-7.5 3.357-7.5 7.5s3.358 7.5 7.5 7.5h37.191c4.142 0 7.5-3.357 7.5-7.5s-3.358-7.5-7.5-7.5z"/><path d="m143.05 118.922h-39.104c-22.695 0-41.159 18.464-41.159 41.159v12.338c0 4.143 3.358 7.5 7.5 7.5s7.5-3.357 7.5-7.5v-12.338c0-14.424 11.735-26.159 26.159-26.159h39.104c13.274 0 24.073-10.799 24.073-24.073 0-4.143-3.358-7.5-7.5-7.5s-7.5 3.357-7.5 7.5c.001 5.003-4.07 9.073-9.073 9.073z"/><path d="m41.388 179.919c4.142 0 7.5-3.357 7.5-7.5v-41.905c0-37.182 30.25-67.431 67.431-67.431h13.151c12.431 0 22.545-10.113 22.545-22.545v-.186c0-4.143-3.358-7.5-7.5-7.5s-7.5 3.357-7.5 7.5v.186c0 4.16-3.385 7.545-7.545 7.545h-13.151c-45.453 0-82.431 36.979-82.431 82.431v41.905c0 4.143 3.358 7.5 7.5 7.5z"/><path d="m498.646 387.092h-48.25c-4.142 0-7.5 3.357-7.5 7.5s3.358 7.5 7.5 7.5h47.691v6.844c0 12.714-10.343 23.057-23.056 23.057h-436.975c-12.713 0-23.056-10.343-23.056-23.057v-6.844h403.302c4.142 0 7.5-3.357 7.5-7.5s-3.358-7.5-7.5-7.5h-54.769c13.57-8.482 25.1-20.32 33.521-34.903 6.014-10.416 10.013-21.507 12.018-32.822 1.558.099 3.115.165 4.669.165 17.378 0 34.381-6.165 48.023-17.675 16.753-14.134 26.362-34.854 26.362-56.846v-2.69c0-26.191-13.354-49.964-35.72-63.591-22.367-13.627-49.615-14.593-72.891-2.582l-3.427 1.769c-.004.097-.014.194-.018.291-2.657-2.877-6.039-5.121-9.952-6.406l-23.813-7.825-25.515-17.644c-9.746-6.739-20.356-11.713-31.385-14.92l1.286-2.655c4.476-9.239 3.894-19.948-1.558-28.647s-14.836-13.893-25.102-13.893h-7.774c-10.266 0-19.65 5.193-25.102 13.893s-6.034 19.408-1.558 28.646l1.047 2.162c-6.891 1.882-13.655 4.456-20.184 7.742-3.7 1.861-5.19 6.37-3.329 10.07 1.862 3.7 6.37 5.192 10.071 3.328 30.525-15.356 66.948-12.825 95.056 6.612l26.407 18.261c.592.409 1.24.731 1.924.956l24.845 8.164c3.522 1.157 5.889 4.426 5.889 8.133 0 4.72-3.84 8.56-8.561 8.56h-207.236c-4.72 0-8.561-3.84-8.561-8.56 0-3.707 2.366-6.976 5.889-8.133l24.845-8.164c.684-.225 1.332-.547 1.924-.956l11.587-8.013c3.407-2.356 4.259-7.027 1.903-10.435-2.356-3.406-7.027-4.259-10.435-1.903l-10.694 7.396-23.813 7.825c-9.693 3.185-16.206 12.18-16.206 22.383 0 7.553 3.577 14.282 9.121 18.596l-11.559 20.024-38.136-37.396c-2.799-2.743-6.499-4.254-10.417-4.254h-25.836c-5.387 0-10.365 2.922-12.992 7.626-2.626 4.703-2.503 10.474.323 15.061l6.156 9.991 10.108 61.274c4.571 27.713 26.041 49.713 53.563 55.006 8.205 19.991 22.087 36.17 39.419 46.98h-133.274c-7.963-.001-14.441 6.478-14.441 14.441v7.402c0 20.984 17.072 38.057 38.056 38.057h20.254l6.744 11.43c7.939 13.454 22.574 21.812 38.195 21.812h305.59c15.621 0 30.256-8.357 38.194-21.812l6.744-11.43h21.254c20.984 0 38.056-17.072 38.056-38.057v-7.402c0-7.963-6.478-14.442-14.441-14.442zm-256.787-259.173-2.762-5.703c-2.243-4.629-1.962-9.783.769-14.142 2.731-4.357 7.248-6.857 12.392-6.857h7.774c5.144 0 9.66 2.5 12.392 6.857 2.731 4.358 3.012 9.513.769 14.143l-2.88 5.945c-9.415-1.329-18.983-1.415-28.454-.243zm144.535 61.559c18.585-9.593 40.346-8.821 58.207 2.062 17.861 10.882 28.525 29.866 28.525 50.781v2.69c0 17.562-7.667 34.104-21.035 45.381-11.745 9.909-26.581 14.856-41.539 14.042.111-5.041-.158-10.086-.827-15.099 1.332.124 2.667.205 4.005.205 11.397 0 22.71-4.642 31.04-12.734 8.612-8.37 13.355-19.661 13.355-31.793v-2.691c0-7.154-1.579-13.905-4.692-20.066-1.868-3.697-6.38-5.182-10.077-3.311-3.697 1.868-5.179 6.379-3.311 10.076 2.043 4.044 3.08 8.519 3.08 13.301v2.691c0 8.044-3.128 15.515-8.809 21.035-5.554 5.396-13.058 8.492-20.59 8.492-2.488 0-4.981-.34-7.447-.999-2.217-7.258-5.289-14.354-9.219-21.162l-15.408-26.693 18.5-9.547c4.332-2.236 8.863-3.37 13.468-3.37 1.905 0 3.884.219 5.882.651 4.047.875 8.041-1.696 8.916-5.746.875-4.049-1.697-8.04-5.746-8.916-10.22-2.208-20.18-.707-29.399 4.051l-19.128 9.871-.258-.448c5.154-4.325 8.437-10.809 8.437-18.047 0-.853-.062-1.694-.151-2.527zm-265.57 141.443c-.912-2.516-3.096-4.354-5.729-4.826l-3.292-.589c-21.695-3.879-38.682-21.096-42.269-42.842l-10.349-62.731c-.159-.962-.503-1.884-1.015-2.714l-6.817-11.065 25.537-.035 43.57 42.726c1.826 1.952 4.448 2.977 7.136 2.764 2.888-.232 5.476-1.868 6.923-4.377l1.027-1.779h73.148c4.142 0 7.5-3.357 7.5-7.5s-3.358-7.5-7.5-7.5h-64.489l7.336-12.708h207.223c.326 0 .649-.011.971-.025l7.35 12.733h-58.349c-4.142 0-7.5 3.357-7.5 7.5s3.358 7.5 7.5 7.5h67.008l8.327 14.425c15.328 26.555 15.326 58.26-.005 84.812-15.321 26.534-42.753 42.382-73.39 42.403h-110.05c-36.114-.022-67.434-22.065-79.802-56.172zm313.29 119.878c-5.253 8.903-14.938 14.435-25.275 14.435h-305.59c-10.337 0-20.022-5.531-25.276-14.435l-2.246-3.807h360.633z"/></g></g></svg>