<svg id="Layer_1" height="512" viewBox="0 0 512 512" width="512" xmlns="http://www.w3.org/2000/svg" data-name="Layer 1"><path d="m337.07 93.67a81.116 81.116 0 0 0 -160.64-13.87 13.329 13.329 0 0 0 13.14 15.81h.45a13.276 13.276 0 0 0 12.96-10.79 54.1 54.1 0 1 1 75.84 59.85 62.746 62.746 0 0 0 -36.33 56.54v43.75l.03.34h26.96l.03-.34v-43.75a35.643 35.643 0 0 1 20.72-32.06 81.161 81.161 0 0 0 46.84-75.48z" fill="#ccd3df"/><path d="m415.13 393.4h-318.26a159.144 159.144 0 0 1 145.65-158.1q6.66-.555 13.48-.56t13.48.56a159.144 159.144 0 0 1 145.65 158.1z" fill="#6d7486"/><path d="m271 235.446c-.507-.048-1.012-.1-1.52-.146q-6.66-.555-13.48-.56t-13.48.56a159.144 159.144 0 0 0 -145.65 158.1h30a159.139 159.139 0 0 1 144.13-157.954z" fill="#5a6270"/><path d="m77.59 393.4h356.82v104.08h-356.82z" fill="#f3e08d"/><path d="m148.44 419.05a26.385 26.385 0 1 1 -26.38 26.39 26.39 26.39 0 0 1 26.38-26.39z" fill="#fb6771"/><path d="m256 419.05a26.385 26.385 0 1 1 -26.39 26.39 26.4 26.4 0 0 1 26.39-26.39z" fill="#fb6771"/><path d="m363.56 419.05a26.385 26.385 0 1 1 -26.39 26.39 26.388 26.388 0 0 1 26.39-26.39z" fill="#fb6771"/><path d="m77.59 393.4h30v104.08h-30z" fill="#d6c476"/><g fill="#284268"><path d="m257.93 268.269a125.991 125.991 0 0 0 -19.6 1.533 6 6 0 0 0 .929 11.927 6.062 6.062 0 0 0 .944-.074 113.875 113.875 0 0 1 17.729-1.386 6 6 0 1 0 0-12z"/><path d="m214.731 275.958c-2.352.869-4.71 1.823-7.01 2.836a124.333 124.333 0 0 0 -64.815 65.988 6 6 0 1 0 11.067 4.639 112.385 112.385 0 0 1 58.586-59.645c2.076-.915 4.206-1.776 6.331-2.561a6 6 0 0 0 -4.159-11.257z"/><path d="m77.587 503.48h356.826a6 6 0 0 0 6-6v-104.08a6 6 0 0 0 -6-6h-13.419c-3.161-81.523-65.7-148.064-145.489-157.5v-28.694a29.63 29.63 0 0 1 17.265-26.621 87.095 87.095 0 1 0 -122.226-95.936 19.121 19.121 0 0 0 4.029 15.88 19.359 19.359 0 0 0 15 7.085h.449a19.369 19.369 0 0 0 18.844-15.614 48.1 48.1 0 1 1 67.419 53.229 68.78 68.78 0 0 0 -39.79 61.978v28.693c-79.789 9.433-142.328 75.974-145.489 157.5h-13.419a6 6 0 0 0 -6 6v104.08a6 6 0 0 0 6 6zm170.913-302.274a56.74 56.74 0 0 1 32.86-51.1 60.086 60.086 0 1 0 -84.26-66.473 7.25 7.25 0 0 1 -7.083 5.981h-.449a7.4 7.4 0 0 1 -5.731-2.709 7.066 7.066 0 0 1 -1.521-5.946 75.111 75.111 0 1 1 105.38 82.75 41.673 41.673 0 0 0 -24.194 37.5v27.715c-2.488-.112-4.989-.178-7.5-.178s-5.017.066-7.5.178zm7.5 39.537c82.267 0 149.577 65.211 152.983 146.654h-305.966c3.406-81.443 70.716-146.654 152.983-146.654zm-172.413 158.657h344.826v92.08h-344.826z"/><path d="m256 413.053a32.386 32.386 0 1 0 32.386 32.386 32.424 32.424 0 0 0 -32.386-32.386zm0 52.771a20.386 20.386 0 1 1 20.386-20.385 20.409 20.409 0 0 1 -20.386 20.385z"/><path d="m148.444 413.053a32.386 32.386 0 1 0 32.385 32.386 32.423 32.423 0 0 0 -32.385-32.386zm0 52.771a20.386 20.386 0 1 1 20.385-20.385 20.408 20.408 0 0 1 -20.385 20.385z"/><path d="m363.556 413.053a32.386 32.386 0 1 0 32.385 32.386 32.422 32.422 0 0 0 -32.385-32.386zm0 52.771a20.386 20.386 0 1 1 20.385-20.385 20.408 20.408 0 0 1 -20.385 20.385z"/></g></svg>