<svg id="Layer_1" enable-background="new 0 0 512 512" height="512" viewBox="0 0 512 512" width="512" xmlns="http://www.w3.org/2000/svg"><g><g><path d="m504.497 250.564s-64.856-11.073-161.164 25.343c-16.992 6.413-34.959 14.312-53.726 24.013-21.454 11.087-43.947 24.515-67.203 40.786-14.269 9.984-28.829 21.022-43.614 33.248-18.477 15.281-37.307 32.385-56.356 51.562-12.424 12.48-24.94 25.845-37.512 40.142-4.115 4.681-8.245 9.461-12.374 14.34-9.433 11.144-26.743 40.461-53.959 13.258-3.465-3.465-5.996-6.76-7.764-9.885-12.099-21.432 12.028-35.094 21.758-43.324 4.893-4.129 9.673-8.259 14.354-12.374 14.305-12.579 27.669-25.095 40.15-37.519 19.403-19.29 36.685-38.353 52.093-57.056 12.077-14.651 22.988-29.097 32.859-43.254 16.214-23.271 29.599-45.778 40.63-67.246 9.61-18.717 17.437-36.628 23.794-53.592 36.204-96.463 24.897-161.51 24.897-161.51s68.292 56.894 127.258 115.845c36.126 36.112 71.481 75.738 93.451 101.003 13.886 15.981 22.428 26.22 22.428 26.22z" fill="#be94ff"/><path d="m504.497 250.564s-64.856-11.073-161.164 25.343c-16.992 6.413-34.959 14.312-53.726 24.013-21.454 11.087-43.947 24.515-67.203 40.786-14.269 9.984-28.829 21.022-43.614 33.248-18.477 15.281-37.307 32.385-56.356 51.562-12.424 12.48-24.94 25.845-37.512 40.142-4.115 4.681-8.245 9.461-12.374 14.34-9.433 11.144-26.743 40.461-53.959 13.258-3.465-3.465-5.996-6.76-7.764-9.885 21.581 12.247 35.815-11.321 44.046-21.051 192.199-227.186 378.125-239.164 427.199-237.976 13.885 15.981 22.427 26.22 22.427 26.22z" fill="#8e77f2"/><g fill="#ffe878"><path d="m222.404 340.706c-14.269 9.984-28.829 21.022-43.614 33.248l-.799-.375c-5.162-6.562-10.748-12.714-16.037-18.088-12.282-12.509-22.946-20.895-22.946-20.895l.17-1.499c12.077-14.651 22.988-29.097 32.859-43.254.467.368 16.766 13.371 34.21 31.806 5.466 5.763 11.038 12.056 16.271 18.675z"/><path d="m84.921 465.659c-5.416-6.845-11.285-13.209-16.773-18.71-10.14-10.211-18.958-17.458-21.213-19.276 14.305-12.579 27.669-25.095 40.15-37.519.339.255 8.726 6.732 18.703 16.638 5.431 5.374 11.321 11.759 16.645 18.71v.014c-12.424 12.481-24.939 25.845-37.512 40.143z"/><path d="m343.333 275.907c-16.992 6.413-34.959 14.312-53.726 24.013-5.713-6.449-11.554-12.784-17.317-18.873-30.681-32.407-59.538-57.969-59.538-57.969l-.085-.481c9.61-18.717 17.437-36.628 23.794-53.592 0 0 44.35 39.273 89.11 87.313 5.954 6.392 11.908 12.94 17.77 19.566z"/></g><path d="m122.433 425.516c-12.424 12.48-24.94 25.845-37.512 40.142-5.416-6.845-11.285-13.209-16.773-18.71 12.601-14.269 25.166-27.641 37.639-40.157 5.431 5.374 11.321 11.759 16.645 18.71v.015z" fill="#ffd37b"/><path d="m222.517 340.324-.113.382c-14.269 9.984-28.829 21.022-43.614 33.248l-.799-.375c-5.162-6.562-10.748-12.714-16.037-18.088 14.984-12.41 29.776-23.653 44.293-33.842 5.466 5.763 11.038 12.057 16.27 18.675z" fill="#ffd37b"/><path d="m343.333 275.907c-16.992 6.413-34.959 14.312-53.726 24.013-5.713-6.449-11.554-12.784-17.317-18.873 18.533-9.822 36.352-17.982 53.281-24.728 5.954 6.392 11.908 12.94 17.77 19.566z" fill="#ffd37b"/></g><g><path d="m510.261 245.762c-.571-.686-57.812-69.209-116.342-127.722-15.567-15.562-33.204-32.399-52.419-50.043-3.051-2.801-7.795-2.6-10.597.452-2.801 3.051-2.599 7.795.452 10.597 19.06 17.501 36.542 34.191 51.96 49.603 42.359 42.347 84.07 90.019 103.735 112.95-17.74-.603-47.323.4-85.57 8.964-18.565 4.157-37.258 9.678-55.945 16.513-41.389-46.281-86.98-88.215-100.275-100.24 3.014-8.301 5.772-16.612 8.269-24.924 16.055-53.45 17.705-94.546 16.866-116.916 8.552 7.327 20.512 17.688 34.28 29.94 3.094 2.755 7.835 2.479 10.588-.616 2.754-3.095 2.478-7.835-.617-10.589-27.781-24.724-48.284-41.824-48.488-41.994-2.413-2.011-5.821-2.298-8.543-.731-2.721 1.567-4.177 4.67-3.648 7.766.087.512 8.458 52.05-15.104 129.822-21.783 71.894-76.093 181.561-211.128 295.727-1.188 1.004-2.731 2.188-4.366 3.442-8.887 6.817-22.317 17.12-23.312 32.293-.623 9.516 3.828 19.106 13.229 28.505 8.928 8.925 18.067 13.439 27.193 13.439.552 0 1.104-.017 1.656-.05 15.51-.929 26.074-14.377 33.064-23.276 1.114-1.417 2.166-2.757 3.071-3.826 20.598-24.349 41.964-47.169 63.505-67.829 2.989-2.867 3.088-7.615.222-10.605-2.868-2.99-7.615-3.088-10.604-.222-2.79 2.676-5.578 5.388-8.361 8.134-9.06-10.656-18.654-19.45-24.823-24.736 14.569-14.78 28.281-29.784 41.109-44.979 6.426 5.507 18.076 16.051 28.678 28.591-3.932 3.321-7.85 6.7-11.752 10.136-3.108 2.737-3.409 7.477-.671 10.585 1.482 1.684 3.552 2.543 5.631 2.543 1.761 0 3.529-.616 4.954-1.872 95.227-83.869 181.821-116.547 237.696-129.193 60.489-13.69 99.01-7.505 99.381-7.444 3.092.531 6.194-.928 7.762-3.649 1.57-2.722 1.275-6.133-.736-8.546zm-443.442 229.399c-1.081 1.277-2.214 2.72-3.414 4.248-5.65 7.192-13.388 17.042-22.166 17.568-5.201.287-11.045-2.725-17.346-9.023-6.212-6.211-9.195-11.902-8.867-16.917.55-8.39 10.331-15.894 17.473-21.372 1.78-1.365 3.46-2.654 4.92-3.889 3.236-2.736 6.442-5.482 9.617-8.238 6.429 5.527 17.7 15.773 28.056 27.971-2.77 3.19-5.529 6.408-8.273 9.652zm45.588-50.164c-9.177 9.378-18.29 19.112-27.293 29.153-9.815-11.337-20.047-20.818-26.718-26.632 10.044-9.002 19.761-18.103 29.146-27.294 5.832 4.954 15.805 13.965 24.865 24.773zm67.151-61.357c-11.464-13.593-23.844-24.775-30.671-30.599 8.628-10.658 16.823-21.405 24.575-32.23 8.407 7.226 24.133 21.456 38.317 38.242-10.831 7.766-21.577 15.966-32.221 24.587zm111.782-73.031c-7.997-8.878-16.751-18.159-26.086-27.654-2.903-2.954-7.652-2.995-10.606-.09-2.954 2.903-2.994 7.652-.09 10.606 8.18 8.32 15.898 16.464 23.036 24.304-17.977 9.695-35.827 20.593-53.475 32.642-15.85-18.969-33.368-34.628-42.017-41.974 1.442-2.116 2.867-4.235 4.274-6.357 10.335-15.578 19.769-31.316 28.277-47.162 3.879 3.556 9.199 8.496 15.433 14.448 1.453 1.387 3.316 2.075 5.178 2.075 1.978 0 3.952-.777 5.426-2.321 2.86-2.996 2.75-7.743-.246-10.604-8.174-7.803-14.709-13.813-18.637-17.379 6.533-13.034 12.439-26.13 17.705-39.261 16.313 14.915 54.863 50.987 91.034 90.958-13.105 5.287-26.189 11.216-39.206 17.769z"/><circle cx="298.712" cy="88.798" r="7.5"/><circle cx="331.952" cy="119.198" r="7.5"/><circle cx="363.062" cy="148.897" r="7.5"/><circle cx="392.762" cy="180.008" r="7.5"/><circle cx="423.162" cy="213.248" r="7.5"/></g></g></svg>