<svg id="Layer_1" height="512" viewBox="0 0 512 512" width="512" xmlns="http://www.w3.org/2000/svg" data-name="Layer 1"><path d="m495.65 435.05-.06 40-168.56-.46.04-40 168.52.46z" fill="#aa7b61"/><path d="m411.95 116.95a84.263 84.263 0 0 0 -84.51 84.05l-.06 82.57-4.63-6.74a27.844 27.844 0 1 0 -45.93 31.49l33.57 48.81a87.826 87.826 0 0 1 16.7 51.58l-.02 25.88 168.52.46h.06l.35-233.59a84.282 84.282 0 0 0 -84.05-84.51z" fill="#da9e7b"/><path d="m455.65 435.05h-.06 40 .06l-.06 40-40-.109z" fill="#8e6551"/><path d="m456 201.46a84.3 84.3 0 0 0 -64.3-82.1 84.29 84.29 0 0 1 104.3 82.1l-.35 233.59h-.06l-39.94-.109z" fill="#aa7b61"/><path d="m184.93 354.59.04 40-168.56.46-.06-40h.06z" fill="#aa7b61"/><path d="m227.96 189.61a27.844 27.844 0 0 0 -38.71 7.22l-4.63 6.74-.06-82.57a84.28 84.28 0 0 0 -168.56.46l.35 233.59h.06l168.52-.46-.02-25.88a87.826 87.826 0 0 1 16.7-51.58l33.57-48.81a27.842 27.842 0 0 0 -7.22-38.71z" fill="#da9e7b"/><path d="m56.35 355.05h.06-40-.06l.06 40 40-.109z" fill="#8e6551"/><path d="m56 121.46a84.294 84.294 0 0 1 64.3-82.1 84.287 84.287 0 0 0 -104.3 82.1l.35 233.59h.06l39.94-.109z" fill="#aa7b61"/><g fill="#284268"><path d="m231.353 184.66a33.893 33.893 0 0 0 -40.743 1.84l-.049-65.515a90.234 90.234 0 0 0 -90.273-89.985h-.253c-49.781 0-90.17 40.723-90.035 90.5l.413 273.571a5.953 5.953 0 0 0 6 5.933h.017l168.56-.436a5.99 5.99 0 0 0 5.984-5.994l-.061-65.866a81.263 81.263 0 0 1 15.553-48.055l2.084-2.875c.031-.043.06-.086.09-.129l31.491-45.934a33.84 33.84 0 0 0 -8.778-47.051zm2.709 27.878a21.726 21.726 0 0 1 -3.83 12.39l-31.445 45.872-2.038 2.812a93.2 93.2 0 0 0 -17.836 55.108l.019 20.28-107.938-.077a5.99 5.99 0 1 0 .012 11.979l107.936-.294.027 28-156.569.422-.038-28.03h8.651a5.99 5.99 0 0 0 5.987-6 5.99 5.99 0 0 0 -6.006-5.99l-8.65.024-.344-227.563c-.117-43.164 34.9-78.471 78.068-78.471h.22a78.235 78.235 0 0 1 78.273 78.021l.062 82.563a6 6 0 0 0 10.947 3.386l4.628-6.746a21.846 21.846 0 0 1 39.864 12.313z"/><path d="m40 225.41a6 6 0 0 0 -6 6v62.99a6 6 0 0 0 12 0v-62.99a6 6 0 0 0 -6-6z"/><path d="m40 181.673a6 6 0 0 0 -6 6v21.614a6 6 0 0 0 12 0v-21.614a6 6 0 0 0 -6-6z"/><path d="m40 154.48a6 6 0 0 0 -6 6v4.807a6 6 0 0 0 12 0v-4.807a6 6 0 0 0 -6-6z"/><path d="m411.965 111h-.253a90.234 90.234 0 0 0 -90.273 90.012l-.049 65.5a33.85 33.85 0 0 0 -49.52 45.2l31.49 45.933c.03.043.059.086.09.128l2.083 2.874a81.266 81.266 0 0 1 15.554 48.058l-.061 65.876a5.98 5.98 0 0 0 5.984 5.982l168.56.437h.016a5.96 5.96 0 0 0 6-5.956l.414-273.544c.135-49.783-40.254-90.5-90.035-90.5zm77.635 358.03-156.569-.43.027-28 156.58.426zm.06-40-156.591-.43.018-19.887a93.2 93.2 0 0 0 -17.837-55.11l-2.037-2.811-31.444-45.862a21.73 21.73 0 0 1 -3.831-12.392 21.846 21.846 0 0 1 39.862-12.314l4.627 6.744a6 6 0 0 0 10.947-3.389l.062-82.558a78.235 78.235 0 0 1 78.276-78.021h.22c43.165 0 78.185 35.307 78.068 78.478z"/></g></svg>