<svg id="Layer_1" enable-background="new 0 0 512 512" height="512" viewBox="0 0 512 512" width="512" xmlns="http://www.w3.org/2000/svg"><g><g><path d="m504.5 349.23c0 74.56-9.83 149.13-9.83 149.13s-9.35.48-25.44 1.18c-41.38 1.78-127.31 4.96-213.23 4.96-119.33 0-238.67-6.14-238.67-6.14s-9.83-74.57-9.83-149.13c0-74.57 9.83-149.14 9.83-149.14s24.02-38.4 79.74-76.8h317.86c46.04 31.73 70.44 63.46 77.52 73.52 1.49 2.12 2.22 3.28 2.22 3.28s9.83 74.57 9.83 149.14z" fill="#ffe878"/><path d="m504.5 349.23c0 74.56-9.83 149.13-9.83 149.13s-9.35.48-25.44 1.18c12.28-163.14-5.32-276.45-5.32-276.45-11.66-38-36.4-77.9-51.22-99.8h2.24c46.04 31.73 70.44 63.46 77.52 73.52 1.49 2.12 2.22 3.28 2.22 3.28s9.83 74.57 9.83 149.14z" fill="#ffd37b"/><path d="m494.67 498.36s-119.34 6.14-238.67 6.14-238.67-6.14-238.67-6.14 64.32-101.42 143.03-195.34h191.28c78.71 93.92 143.03 195.34 143.03 195.34z" fill="#ffd37b"/><path d="m492.45 196.81-1.59 3.28s-9.64 8.97-26.95 23c-12.56 10.17-29.16 23-49.05 36.99v.01c-41.53 29.21-97.4 63.47-160.77 89.14-61.4-24.87-115.76-57.82-156.86-86.41v-.01c-49.61-34.52-79.9-62.72-79.9-62.72s24.02-38.4 79.74-76.8h317.86c46.04 31.73 70.44 63.46 77.52 73.52z" fill="#e2a67d"/><path d="m492.45 196.81-1.59 3.28s-9.64 8.97-26.95 23c-11.66-38-36.4-77.9-51.22-99.8h2.24c46.04 31.73 70.44 63.46 77.52 73.52z" fill="#d18766"/><path d="m416 190.46c0 23.79-.46 47.58-1.14 69.62v.01c-10.75 7.57-22.47 15.47-35.04 23.48-35.94 22.9-78.77 46.64-125.73 65.66-61.4-24.87-115.76-57.82-156.86-86.41v-.01c-.73-22.8-1.23-47.57-1.23-72.35 0-22.91.43-45.82 1.07-67.17 1.8-60.54 5.26-108.55 5.26-108.55s76.84-7.24 153.67-7.24c44.97 0 89.94 2.48 119.51 4.53 20.94 1.46 34.16 2.71 34.16 2.71s3.46 48.01 5.26 108.55c.64 21.35 1.07 44.26 1.07 67.17z" fill="#dcf8ff"/><path d="m416 190.46c0 23.79-.46 47.58-1.14 69.62v.01c-10.75 7.57-22.47 15.47-35.04 23.48 3.38-118.04-2.25-234.59-4.31-271.54 20.94 1.46 34.16 2.71 34.16 2.71s3.46 48.01 5.26 108.55c.64 21.35 1.07 44.26 1.07 67.17z" fill="#d2e1f9"/><g><path d="m274.11 268.42s-8.2 1.2-18.17 1.33c-.61.02-1.23.02-1.85.02-10.77 0-20.01-1.35-20.01-1.35.46-14.32 3.69-29.34 3.69-29.34h32.64s3.24 15.02 3.7 29.34z" fill="#e2a67d"/><path d="m274.11 268.42s-8.2 1.2-18.17 1.33c-.66-12.05-2.57-23.94-3.79-30.67h18.26s3.24 15.02 3.7 29.34z" fill="#d18766"/><path d="m342.62 236.33s-9.88.7-25.69 1.42c-16.17.72-38.52 1.46-62.84 1.46-48.1 0-88.52-2.88-88.52-2.88 23.17-36.07 51.31-67.19 51.31-67.19-14.27.55-28.97 6.02-29.43 6.19 23.14-35.77 48.31-64.21 48.31-64.21-12.96.86-22.1 3.64-22.1 3.64 13.56-22.78 29.26-41.85 36.45-50.17 2.51-2.9 3.98-4.49 3.98-4.49s22.16 23.96 40.44 54.66c0 0-9.15-2.78-22.1-3.64 0 0 25.17 28.44 48.31 64.21-.46-.17-15.16-5.64-29.43-6.19 0 0 28.14 31.12 51.31 67.19z" fill="#77e0ab"/><path d="m342.62 236.33s-9.88.7-25.69 1.42c-21.25-34.06-53.21-75.71-53.21-75.71 13.69.25 24.27 1.66 24.27 1.66-23.17-38-39-59.79-39-59.79 10.83-.7 20.31.44 20.31.44s-10.55-25.31-19.19-39.76c2.51-2.9 3.98-4.49 3.98-4.49s22.16 23.96 40.44 54.66c0 0-9.15-2.78-22.1-3.64 0 0 25.17 28.44 48.31 64.21-.46-.17-15.16-5.64-29.43-6.19 0 0 28.14 31.12 51.31 67.19z" fill="#65c1b0"/></g></g><g><path d="m502.105 199.114c-.141-1.064-.508-2.086-1.077-2.996-.995-1.592-24.585-38.743-78.722-76.834-1.826-58.348-5.11-104.45-5.156-105.087-.264-3.655-3.129-6.584-6.777-6.928-.771-.073-78.073-7.269-154.373-7.269-21.836 0-45.742.583-71.052 1.732-4.138.188-7.34 3.694-7.152 7.832.188 4.139 3.682 7.324 7.833 7.152 25.084-1.139 48.76-1.716 70.371-1.716 62.982 0 126.694 4.953 146.62 6.645 1.423 21.745 5.88 95.696 5.88 168.816 0 20.472-.344 42.503-1.021 65.538-40.303 28.114-93.54 60.559-153.385 85.127-57.936-23.785-109.679-54.951-149.489-82.424-.733-24.004-1.105-46.943-1.105-68.241 0-73.126 4.458-147.079 5.88-168.818 7.1-.605 19.744-1.626 35.825-2.679 4.133-.271 7.265-3.842 6.994-7.975s-3.837-7.258-7.974-6.994c-25.466 1.669-42.43 3.259-42.598 3.274-3.648.344-6.514 3.273-6.777 6.928-.046.635-3.33 46.738-5.156 105.086-54.136 38.092-77.727 75.243-78.722 76.835-.569.91-.937 1.932-1.077 2.996-.052.397-5.268 40.291-8.087 90.186-.233 4.136 2.93 7.677 7.065 7.911.145.008.288.012.43.012 3.948 0 7.256-3.086 7.481-7.077 1.788-31.648 4.548-59.204 6.309-74.985 19.816 16.962 65.389 53.879 125.885 89.801-56.504 68.272-105.29 139.754-126.581 171.903-2.89-27.217-7.397-77.669-7.397-127.636 0-6.516.077-13.302.229-20.169.092-4.142-3.191-7.572-7.333-7.664-4.129-.06-7.572 3.191-7.664 7.332-.154 6.978-.232 13.876-.232 20.501 0 74.194 9.795 149.357 9.894 150.108.473 3.586 3.438 6.324 7.05 6.51.392.02 39.827 2.036 95.094 3.74.079.003.157.004.235.004 4.035 0 7.367-3.207 7.492-7.269.127-4.141-3.125-7.601-7.266-7.728-36.347-1.121-65.816-2.377-81.777-3.107 18.379-28.026 70.515-105.573 131.399-178.878 27.321 15.578 57.341 30.682 89.157 43.567.903.366 1.859.549 2.815.549s1.913-.183 2.815-.549c32.821-13.292 63.731-28.946 91.739-45.045 14.96 17.963 30.454 37.461 46.1 58.016 1.476 1.938 3.711 2.957 5.974 2.957 1.583 0 3.18-.499 4.537-1.532 3.296-2.509 3.934-7.215 1.425-10.511-15.226-20.002-30.315-39.021-44.922-56.622 63.054-37.729 109.498-76.229 126.805-91.274 2.673 23.455 8.434 80.568 8.434 137.064 0 49.96-4.506 100.406-7.396 127.625-12.293-18.577-33.733-50.246-60.397-86.63-2.45-3.342-7.144-4.063-10.483-1.616-3.341 2.449-4.064 7.142-1.616 10.483 29.87 40.759 53.12 75.53 64.172 92.395-34.14 1.558-130.223 5.514-225.28 5.514-31.799 0-66.566-.44-103.335-1.31-4.178-.067-7.578 3.18-7.675 7.321-.098 4.141 3.18 7.577 7.321 7.675 36.886.872 71.773 1.314 103.689 1.314 118.156 0 237.861-6.091 239.056-6.152 3.612-.187 6.577-2.924 7.05-6.51.099-.751 9.895-75.914 9.895-150.108-.001-74.202-9.797-149.365-9.896-150.116zm-474.828-.176c7.607-10.345 27.52-34.897 61.891-60.725-.41 16.974-.667 34.634-.667 52.247 0 18.096.266 37.362.793 57.448-30.99-22.306-52.831-40.886-62.017-48.97zm395.504 46.158c.478-19.084.719-37.404.719-54.636 0-17.614-.257-35.273-.667-52.247 32.292 24.265 51.821 47.404 60.373 58.691-7.083 6.328-28.593 25.032-60.425 48.192z"/><path d="m165.036 243.809c.332.024 27.679 1.951 63.771 2.653-.935 5.851-1.97 13.839-2.223 21.721-.123 3.814 2.638 7.112 6.415 7.663.399.058 9.904 1.424 21.095 1.424s20.696-1.366 21.095-1.424c3.777-.551 6.538-3.849 6.415-7.663-.254-7.882-1.289-15.87-2.224-21.721 36.092-.703 63.438-2.629 63.771-2.653 2.641-.188 4.986-1.755 6.172-4.122s1.035-5.184-.396-7.411c-13.33-20.755-28.117-39.708-38.521-52.339 4.575 1.258 7.637 2.396 7.699 2.419 3.033 1.146 6.453.21 8.485-2.311 2.033-2.522 2.217-6.063.457-8.783-13.048-20.154-26.591-37.862-36.131-49.71.913.233 1.413.382 1.43.387 2.963.9 6.175-.113 8.085-2.552 1.91-2.438 2.124-5.8.54-8.461-18.47-31.024-40.445-54.912-41.372-55.914-1.42-1.534-3.416-2.407-5.506-2.407s-4.086.873-5.506 2.407c-.926 1.002-22.901 24.89-41.372 55.914-1.582 2.658-1.365 6.012.538 8.45 1.904 2.438 5.114 3.456 8.075 2.566.021-.006.524-.156 1.441-.391-9.54 11.848-23.083 29.556-36.131 49.71-1.759 2.718-1.574 6.255.456 8.777 2.029 2.521 5.451 3.457 8.48 2.318.065-.024 3.128-1.162 7.706-2.421-10.404 12.631-25.191 31.584-38.521 52.339-1.431 2.228-1.581 5.044-.396 7.411s3.532 3.935 6.173 4.124zm89.058 18.461c-4.509 0-8.762-.252-12.091-.531.503-5.729 1.312-11.154 1.979-15.065 3.327.027 6.702.042 10.113.042s6.787-.015 10.115-.042c.666 3.907 1.475 9.328 1.978 15.065-3.331.279-7.585.531-12.094.531zm-31.65-88.1c2.024-2.238 2.509-5.473 1.231-8.206-1.278-2.734-4.065-4.44-7.085-4.318-3.993.155-7.991.655-11.738 1.316 18.898-26.863 36.319-46.638 36.527-46.873 2.014-2.277 2.454-5.547 1.113-8.275s-4.196-4.372-7.23-4.177c-2.098.14-4.101.327-5.994.544 9.578-14.197 19.076-25.925 24.825-32.693 5.75 6.769 15.248 18.496 24.825 32.693-1.892-.217-3.896-.404-5.994-.544-3.032-.196-5.89 1.447-7.231 4.177-1.34 2.729-.9 5.999 1.115 8.276.208.234 17.615 19.986 36.528 46.872-3.748-.661-7.745-1.161-11.739-1.316-3.001-.125-5.807 1.584-7.085 4.318-1.278 2.733-.793 5.968 1.231 8.206.249.275 22.559 25.048 43.417 55.457-15.655.85-43.838 2.088-75.067 2.088-31.214 0-59.407-1.238-75.067-2.088 20.859-30.41 43.17-55.182 43.418-55.457z"/><circle cx="228.112" cy="206.406" r="7.5"/><circle cx="271.122" cy="192.766" r="7.5"/><circle cx="245.692" cy="145.306" r="7.5"/></g></g></svg>