<svg id="Capa_1" enable-background="new 0 0 511.361 511.361" height="512" viewBox="0 0 511.361 511.361" width="512" xmlns="http://www.w3.org/2000/svg"><g><g><g id="XMLID_213_"><path d="m482.191 135.75 9.01-32.03c1.41-5-3.86-9.26-8.46-6.83l-34.51 18.22c-3.64 1.92-7.98 2.03-11.71.29l-21.648 12.745v17.911l21.648 10.043c3.73-1.73 8.07-1.63 11.71.3l34.51 18.22c4.6 2.42 9.87-1.83 8.46-6.83z" fill="#f8f7f8"/></g><g><path d="m487.308 153.947c-1.397.437-3 .38-4.513-.416l-34.51-18.22c-3.64-1.93-7.98-2.03-11.71-.3l-18.578-8.619-3.123 1.839v17.911l21.648 10.043c3.73-1.73 8.07-1.63 11.71.3l34.51 18.22c4.6 2.42 9.87-1.83 8.46-6.83z" fill="#efedee"/></g><path d="m436.521 115.485c5.98 14 6.38 27.59 0 40.7l-44.92 20.93c-5.87 2.74-11.6 5.3-17.24 7.7l-83.93 18.77-2.422-136.362c-.032-1.801 1.419-3.278 3.22-3.278h7.031c33.31 5.97 61.9 15.96 93.34 30.61z" fill="#efedee"/><path d="m441.078 133.825-110.7 38.749-10.368 24.396 54.351-12.155c5.64-2.4 11.37-4.96 17.24-7.7l44.92-20.93c3.563-7.322 5.047-14.601 4.557-22.36z" fill="#e4e1e5"/><path d="m327.807 184.819c1.667-4.191 2.593-8.757 2.593-13.542v-70.937c0-20.254-16.419-36.673-36.673-36.673-20.254 0-36.673 16.419-36.673 36.673v70.936c0 4.785.926 9.352 2.593 13.542l15.008 27.158h37.473z" fill="#e79098"/><path d="m292.614 172.569c-9.328 0-16.891-7.553-16.896-16.882-.01-21.346-.017-55.347-.017-55.347 0-17.032 11.601-31.361 27.338-35.487-2.991-.784-6.118-1.191-9.356-1.187-20.347.024-36.63 16.997-36.63 37.344v70.265c0 4.785.926 9.352 2.593 13.542l15.008 27.158h18.647 18.826l15.679-27.158c1.516-3.811 2.419-7.929 2.57-12.244z" fill="#e17983"/><path d="m180.547 43.906-.705-6.671c-.363-3.432-3.439-5.92-6.871-5.557l-8.731.923c-11.985 1.267-20.673 12.01-19.406 23.995l1.338 12.656 1.374 11.344 24.262-16.843c6.012-4.449 9.582-11.871 8.739-19.847z" fill="#a6d786"/><path d="m123.654 73.485 20.218-2.138c1.753-.185 3.024-1.757 2.838-3.509l-1.696-16.042c-1.453-13.738-13.767-23.697-27.504-22.244l-14.004 1.481c-5.185.548-8.943 5.196-8.395 10.381l1.039 9.828c1.453 13.737 13.767 23.696 27.504 22.243z" fill="#a6d786"/><path d="m226.876 184.819c6.105-39.74.516-80.65-16.425-117.544-2.271-4.946-7.439-7.923-12.847-7.311-59.508 6.734-117.631 26.929-169.64 60.289-11.359 7.285-11.359 23.884 0 31.169 20.581 13.201 42.122 24.336 64.326 33.397l87.332 38.753 39.413-17.168z" fill="#efedee"/><path d="m498.553 405.055h-484.745v71.239c0 3.832 3.106 6.939 6.939 6.939h470.868c3.832 0 6.939-3.107 6.939-6.939v-71.239z" fill="#f7d8a4"/><path d="m228.387 172.552-85.87.016c-3.891 0-7.738-.815-11.294-2.393 0 0-64.297-29.316-84.879-42.517-5.047-3.237-7.846-8.314-8.408-13.595-3.347 2.01-6.671 4.072-9.97 6.188-11.362 7.287-11.328 23.906.034 31.192 20.571 13.192 42.1 24.319 64.291 33.374l87.332 38.753 39.414-17.168 6.8-18.72 1.041-2.865c.624-4.071 1.128-8.173 1.509-12.265z" fill="#e4e1e5"/><path d="m478.458 243.247h-444.554v-49.018c0-5.335 4.325-9.66 9.66-9.66h425.235c5.335 0 9.66 4.325 9.66 9.66v49.018z" fill="#f6e2c4"/><g><path d="m138.054 145.934 14.044 10.199c14.918 10.833 35.827.177 35.827-18.26v-3.057c0-18.436-20.91-29.093-35.827-18.26l-14.044 10.199z" fill="#f8f7f8"/><circle cx="94.016" cy="129.33" fill="#b8afb8" r="14.868"/></g><path d="m489.514 447.055h-466.667c-8.2 0-14.848-6.647-14.848-14.848v-83.709c0-8.2 6.647-14.848 14.848-14.848h466.667c8.2 0 14.848 6.647 14.848 14.848v83.709c0 8.201-6.648 14.848-14.848 14.848z" fill="#fcf1de"/><path d="m81.697 414.778c-16.641 0-30.13-13.49-30.13-30.13v-50.997h-28.72c-8.2 0-14.848 6.647-14.848 14.848v83.709c0 8.2 6.647 14.848 14.848 14.848h466.667c8.2 0 14.848-6.647 14.848-14.848v-17.429h-422.665z" fill="#f6e2c4"/><g><path d="m489.514 333.651h-466.667c-8.2 0-14.848-6.647-14.848-14.848v-83.709c0-8.2 6.647-14.848 14.848-14.848h466.667c8.2 0 14.848 6.647 14.848 14.848v83.709c0 8.2-6.648 14.848-14.848 14.848z" fill="#fcf1de"/><path d="m84.417 297.973c-16.509 0-29.892-13.383-29.892-29.892v-47.835h-31.678c-8.2 0-14.848 6.647-14.848 14.848v83.709c0 8.2 6.647 14.848 14.848 14.848h466.667c8.2 0 14.848-6.647 14.848-14.848v-20.83z" fill="#f6e2c4"/></g></g><g><path d="m179.012 108.028c-10.124-5.159-22.125-4.218-31.321 2.46l-3.958 2.875c-.171-1.107-.354-2.216-.55-3.325-.72-4.079-4.607-6.804-8.689-6.082-4.079.72-6.802 4.61-6.082 8.689 2.91 16.486 2.853 32.722-.17 48.257-.792 4.065 1.863 8.003 5.929 8.795.484.094.966.139 1.441.139 3.517 0 6.657-2.486 7.354-6.068.286-1.472.54-2.95.779-4.432l3.947 2.866c5.257 3.817 11.43 5.761 17.646 5.761 4.657 0 9.338-1.091 13.674-3.301 10.125-5.16 16.414-15.425 16.414-26.788v-3.058c0-11.364-6.289-21.628-16.414-26.788zm1.414 29.845c0 5.78-3.075 10.799-8.225 13.424s-11.018 2.165-15.696-1.232l-11.06-8.032c.139-3.767.139-7.556-.016-11.364l11.076-8.044c4.678-3.396 10.544-3.857 15.696-1.232 5.15 2.625 8.225 7.644 8.225 13.424z"/><path d="m94.016 106.962c-12.333 0-22.368 10.034-22.368 22.368s10.034 22.368 22.368 22.368 22.368-10.034 22.368-22.368-10.034-22.368-22.368-22.368zm0 29.736c-4.062 0-7.368-3.306-7.368-7.368 0-4.063 3.305-7.368 7.368-7.368s7.368 3.306 7.368 7.368c0 4.063-3.305 7.368-7.368 7.368z"/><path d="m511.361 235.344c0-12.322-10.025-22.348-22.348-22.348h-3.556v-18.519c0-5.234-2.363-9.922-6.07-13.072 4.725 2.419 10.414 1.84 14.548-1.501 4.177-3.375 5.937-8.896 4.482-14.065l-8.436-30.003 8.436-30.002c1.454-5.17-.306-10.691-4.482-14.066-4.177-3.376-9.945-3.938-14.695-1.43l-34.511 18.221c-1.557.823-3.44.871-5.04.126l-43.896-20.45c-3.755-1.75-8.216-.124-9.966 3.632-1.749 3.755-.123 8.216 3.632 9.966l41.199 19.193c3.934 10.559 3.986 20.272.161 29.546l-42.383 19.744c-5.505 2.565-10.627 4.857-15.625 7.002h-35.328c.275-1.994.417-4.01.417-6.043v-70.935c0-7.463-1.867-14.496-5.149-20.667 8.31 2.512 16.868 5.491 26.287 9.118.887.342 1.798.503 2.693.503 3.013 0 5.854-1.828 7.001-4.807 1.488-3.866-.438-8.206-4.304-9.694-22.995-8.854-41.125-14.034-62.577-17.88-.096-.017-5.45-.747-8.125-.747-24.357 0-44.174 19.816-44.174 44.174v70.936c0 2.033.142 4.05.417 6.043h-14.538c4.361-38.718-1.861-77.666-18.166-113.174-3.644-7.935-11.882-12.612-20.506-11.633-3.207.363-6.409.774-9.608 1.215.914-3.415 1.233-7.006.852-10.61l-.705-6.671c-.386-3.652-2.171-6.936-5.027-9.245-2.856-2.31-6.437-3.372-10.091-2.981l-8.731.923c-7.05.746-13.257 3.946-17.862 8.659-6.617-9.086-17.762-14.512-29.717-13.24l-14.005 1.48c-9.288.982-16.046 9.339-15.064 18.628l1.04 9.828c1.097 10.374 6.987 19.1 15.232 24.215-27.726 10.159-54.35 23.312-79.158 39.225-7.495 4.808-11.97 12.994-11.97 21.898s4.475 17.091 11.97 21.898c11.022 7.069 22.433 13.601 34.123 19.583h-14.975c-9.461 0-17.159 7.697-17.159 17.159v18.519h-3.557c-12.322.001-22.347 10.027-22.347 22.349v83.709c0 5.695 2.145 10.897 5.665 14.848-3.52 3.95-5.665 9.152-5.665 14.847v83.709c0 5.774 2.201 11.043 5.808 15.013v29.074c0 7.961 6.478 14.438 14.439 14.438h470.867c7.961 0 14.438-6.478 14.438-14.438v-29.073c3.607-3.97 5.809-9.24 5.809-15.014v-83.709c0-5.695-2.145-10.897-5.665-14.848 3.52-3.951 5.665-9.153 5.665-14.848zm-28.382-130.016-8.007 28.479c-.374 1.328-.374 2.732 0 4.061l8.007 28.479-31.249-16.499c-1.409-.743-2.892-1.312-4.413-1.706 1.853-7.928 1.764-16.134-.235-24.551 1.604-.396 3.168-.981 4.65-1.763zm-43.29 57.66c1.597-.744 3.48-.697 5.038.125l28.084 14.827c-1.441-.394-2.949-.622-4.513-.622h-59.369zm-175.135 8.288v-70.936c0-16.087 13.087-29.174 29.174-29.174 16.086 0 29.173 13.087 29.173 29.174v70.936c0 2.045-.219 4.064-.639 6.043h-21.035v-82.826c0-4.143-3.357-7.5-7.5-7.5s-7.5 3.357-7.5 7.5v82.825h-21.035c-.419-1.977-.638-3.996-.638-6.042zm-99.526-131.217 7.487-.791.573 5.427c.477 4.512-1.255 8.995-4.562 12.045-5.283.984-10.547 2.08-15.789 3.275l-.445-4.209c-.829-7.853 4.884-14.916 12.736-15.747zm-63.309-.965c-.112-1.064.662-2.021 1.726-2.135l14.004-1.48c.623-.065 1.241-.098 1.854-.098 8.837 0 16.454 6.692 17.403 15.673l1.125 10.634.119 1.123-15.934 1.686c-9.599 1.007-18.241-5.972-19.257-15.575zm-69.705 106.015c-3.221-2.065-5.068-5.444-5.068-9.271s1.848-7.206 5.068-9.272c49.927-32.026 107.479-52.479 166.434-59.15 2.17-.246 4.254.955 5.187 2.988 15.396 33.529 21.124 70.358 16.695 106.914h-126.525c-21.466-8.852-42.252-19.676-61.791-32.209zm8.89 49.369c0-1.19.969-2.159 2.159-2.159h425.235c1.191 0 2.16.969 2.16 2.159v18.519h-259.43c-4.142 0-7.5 3.357-7.5 7.5s3.358 7.5 7.5 7.5h277.985c4.052 0 7.348 3.296 7.348 7.348v83.709c0 4.052-3.296 7.348-7.348 7.348h-366.796v-98.404h56.716c4.142 0 7.5-3.357 7.5-7.5s-3.358-7.5-7.5-7.5h-138.029zm-25.904 40.866c0-4.052 3.296-7.348 7.347-7.348h84.87v98.404h-84.87c-4.051 0-7.347-3.296-7.347-7.348zm7.347 204.461c-4.051 0-7.347-3.296-7.347-7.348v-83.709c0-4.052 3.296-7.348 7.347-7.348h84.87v98.404h-84.87zm-1.539 36.178v-21.237c.509.035 1.021.059 1.539.059h123.929c4.142 0 7.5-3.357 7.5-7.5s-3.358-7.5-7.5-7.5h-24.059v-98.404h366.796c4.052 0 7.348 3.296 7.348 7.348v83.709c0 4.052-3.296 7.348-7.348 7.348h-310.642c-4.142 0-7.5 3.357-7.5 7.5s3.358 7.5 7.5 7.5h310.643c.518 0 1.03-.024 1.539-.059v21.237h-469.745z"/><path d="m74.579 265.443h6.707c4.142 0 7.5-3.357 7.5-7.5s-3.358-7.5-7.5-7.5h-6.707c-4.142 0-7.5 3.357-7.5 7.5 0 4.142 3.358 7.5 7.5 7.5z"/><path d="m74.579 303.422h6.707c4.142 0 7.5-3.357 7.5-7.5s-3.358-7.5-7.5-7.5h-6.707c-4.142 0-7.5 3.357-7.5 7.5s3.358 7.5 7.5 7.5z"/><path d="m81.286 402.359h-6.707c-4.142 0-7.5 3.357-7.5 7.5s3.358 7.5 7.5 7.5h6.707c4.142 0 7.5-3.357 7.5-7.5s-3.358-7.5-7.5-7.5z"/><path d="m74.579 379.38h6.707c4.142 0 7.5-3.357 7.5-7.5s-3.358-7.5-7.5-7.5h-6.707c-4.142 0-7.5 3.357-7.5 7.5s3.358 7.5 7.5 7.5z"/></g></g></svg>