<svg id="Layer_1" height="512" viewBox="0 0 512 512" width="512" xmlns="http://www.w3.org/2000/svg" data-name="Layer 1"><path d="m375.943 123.426 35.982 371.811h-311.85l35.982-371.811z" fill="#3e5c72"/><rect fill="#598baa" height="46.091" rx="4" width="262.708" x="124.646" y="77.335"/><path d="m136.057 123.426-35.981 371.811h30l35.981-371.811z" fill="#304756"/><path d="m154.647 119.426v-38.091a4 4 0 0 1 4-4h-30a4 4 0 0 0 -4 4v38.091a4 4 0 0 0 4 4h30a4 4 0 0 1 -4-4z" fill="#6ba4c1"/><path d="m331.392 428.535c.03.36.04.72.04 1.09 0 12.97-15.43 28.691-15.43 28.691s-15.431-15.721-15.431-28.691c0-.36.01-.72.04-1.07 3.09 4.18 8.821 5.86 15.391 5.86s12.31-1.69 15.39-5.88z" fill="#304756"/><path d="m316 412.905c8.17 0 14.88 6.91 15.39 15.63-3.08 4.19-8.82 5.88-15.39 5.88s-12.3-1.68-15.391-5.86c.502-8.73 7.212-15.65 15.391-15.65z" fill="#598baa"/><path d="m271.39 428.535c.03.36.04.72.04 1.09 0 12.97-15.43 28.691-15.43 28.691s-15.43-15.721-15.43-28.691c0-.36.01-.72.04-1.07 3.09 4.18 8.82 5.86 15.39 5.86s12.31-1.69 15.39-5.88z" fill="#304756"/><path d="m256 412.905c8.17 0 14.88 6.91 15.39 15.63-3.08 4.19-8.82 5.88-15.39 5.88s-12.3-1.68-15.39-5.86c.5-8.73 7.21-15.65 15.39-15.65z" fill="#598baa"/><path d="m211.389 428.535c.03.36.04.72.04 1.09 0 12.97-15.431 28.691-15.431 28.691s-15.43-15.721-15.43-28.691c0-.36.01-.72.04-1.07 3.09 4.18 8.82 5.86 15.39 5.86s12.311-1.69 15.391-5.88z" fill="#304756"/><path d="m196 412.905c8.171 0 14.881 6.91 15.391 15.63-3.08 4.19-8.821 5.88-15.391 5.88s-12.3-1.68-15.39-5.86c.498-8.73 7.208-15.65 15.39-15.65z" fill="#598baa"/><path d="m181.388 366.033c.03.36.04.72.04 1.09 0 12.971-15.431 28.691-15.431 28.691s-15.43-15.72-15.43-28.691c0-.36.01-.72.04-1.07 3.09 4.18 8.82 5.86 15.39 5.86s12.311-1.69 15.391-5.88z" fill="#304756"/><path d="m166 350.4c8.171 0 14.881 6.91 15.391 15.63-3.08 4.19-8.82 5.88-15.391 5.88s-12.3-1.68-15.39-5.86c.497-8.727 7.207-15.65 15.39-15.65z" fill="#598baa"/><path d="m241.39 366.033c.03.36.04.72.04 1.09 0 12.971-15.431 28.691-15.431 28.691s-15.43-15.72-15.43-28.691c0-.36.01-.72.04-1.07 3.09 4.18 8.82 5.86 15.39 5.86s12.31-1.69 15.391-5.88z" fill="#304756"/><path d="m226 350.4c8.17 0 14.881 6.91 15.391 15.63-3.081 4.19-8.821 5.88-15.391 5.88s-12.3-1.68-15.39-5.86c.499-8.727 7.209-15.65 15.39-15.65z" fill="#598baa"/><path d="m361.393 366.033c.03.36.04.72.04 1.09 0 12.971-15.43 28.691-15.43 28.691s-15.431-15.72-15.431-28.691c0-.36.01-.72.04-1.07 3.09 4.18 8.82 5.86 15.391 5.86s12.31-1.69 15.39-5.88z" fill="#304756"/><path d="m346 350.4c8.17 0 14.88 6.91 15.39 15.63-3.08 4.19-8.82 5.88-15.39 5.88s-12.3-1.68-15.391-5.86c.503-8.727 7.213-15.65 15.391-15.65z" fill="#598baa"/><path d="m301.391 366.033c.03.36.04.72.04 1.09 0 12.971-15.43 28.691-15.43 28.691s-15.431-15.72-15.431-28.691c0-.36.01-.72.04-1.07 3.091 4.18 8.821 5.86 15.391 5.86s12.31-1.69 15.39-5.88z" fill="#304756"/><path d="m286 350.4c8.17 0 14.88 6.91 15.39 15.63-3.08 4.19-8.82 5.88-15.39 5.88s-12.3-1.68-15.391-5.86c.501-8.727 7.212-15.65 15.391-15.65z" fill="#598baa"/><path d="m211.389 303.531c.03.36.04.72.04 1.09 0 12.971-15.431 28.691-15.431 28.691s-15.43-15.72-15.43-28.691c0-.36.01-.72.04-1.07 3.09 4.18 8.82 5.861 15.39 5.861s12.311-1.691 15.391-5.881z" fill="#304756"/><path d="m196 287.9c8.171 0 14.881 6.91 15.391 15.63-3.08 4.19-8.821 5.881-15.391 5.881s-12.3-1.681-15.39-5.861c.498-8.729 7.208-15.65 15.39-15.65z" fill="#598baa"/><path d="m271.39 303.531c.03.36.04.72.04 1.09 0 12.971-15.43 28.691-15.43 28.691s-15.43-15.72-15.43-28.691c0-.36.01-.72.04-1.07 3.09 4.18 8.82 5.861 15.39 5.861s12.31-1.691 15.39-5.881z" fill="#304756"/><path d="m256 287.9c8.17 0 14.88 6.91 15.39 15.63-3.08 4.19-8.82 5.881-15.39 5.881s-12.3-1.681-15.39-5.861c.5-8.729 7.21-15.65 15.39-15.65z" fill="#598baa"/><path d="m331.392 303.531c.03.36.04.72.04 1.09 0 12.971-15.43 28.691-15.43 28.691s-15.431-15.72-15.431-28.691c0-.36.01-.72.04-1.07 3.09 4.18 8.821 5.861 15.391 5.861s12.31-1.691 15.39-5.881z" fill="#304756"/><path d="m316 287.9c8.17 0 14.88 6.91 15.39 15.63-3.08 4.19-8.82 5.881-15.39 5.881s-12.3-1.681-15.391-5.861c.502-8.729 7.212-15.65 15.391-15.65z" fill="#598baa"/><path d="m361.393 241.03c.03.36.04.72.04 1.09 0 12.97-15.43 28.69-15.43 28.69s-15.431-15.72-15.431-28.69c0-.36.01-.72.04-1.07 3.09 4.18 8.82 5.86 15.391 5.86s12.31-1.69 15.39-5.88z" fill="#304756"/><path d="m346 225.4c8.17 0 14.88 6.91 15.39 15.631-3.08 4.19-8.82 5.88-15.39 5.88s-12.3-1.68-15.391-5.86c.503-8.732 7.213-15.651 15.391-15.651z" fill="#598baa"/><path d="m301.391 241.03c.03.36.04.72.04 1.09 0 12.97-15.43 28.69-15.43 28.69s-15.431-15.72-15.431-28.69c0-.36.01-.72.04-1.07 3.091 4.18 8.821 5.86 15.391 5.86s12.31-1.69 15.39-5.88z" fill="#304756"/><path d="m241.39 241.03c.03.36.04.72.04 1.09 0 12.97-15.431 28.69-15.431 28.69s-15.43-15.72-15.43-28.69c0-.36.01-.72.04-1.07 3.09 4.18 8.82 5.86 15.39 5.86s12.31-1.69 15.391-5.88z" fill="#304756"/><path d="m226 225.4c8.17 0 14.881 6.91 15.391 15.631-3.081 4.19-8.821 5.88-15.391 5.88s-12.3-1.68-15.39-5.86c.499-8.732 7.209-15.651 15.39-15.651z" fill="#598baa"/><path d="m181.388 241.03c.03.36.04.72.04 1.09 0 12.97-15.431 28.69-15.431 28.69s-15.43-15.72-15.43-28.69c0-.36.01-.72.04-1.07 3.09 4.18 8.82 5.86 15.39 5.86s12.311-1.69 15.391-5.88z" fill="#304756"/><path d="m166 225.4c8.171 0 14.881 6.91 15.391 15.631-3.08 4.19-8.82 5.88-15.391 5.88s-12.3-1.68-15.39-5.86c.497-8.732 7.207-15.651 15.39-15.651z" fill="#598baa"/><path d="m211.389 178.528c.03.36.04.72.04 1.09 0 12.97-15.431 28.691-15.431 28.691s-15.43-15.721-15.43-28.691c0-.36.01-.72.04-1.07 3.09 4.18 8.82 5.86 15.39 5.86s12.311-1.69 15.391-5.88z" fill="#304756"/><path d="m196 162.9c8.171 0 14.881 6.911 15.391 15.631-3.08 4.19-8.821 5.88-15.391 5.88s-12.3-1.68-15.39-5.86c.498-8.733 7.208-15.651 15.39-15.651z" fill="#598baa"/><path d="m331.392 178.528c.03.36.04.72.04 1.09 0 12.97-15.43 28.691-15.43 28.691s-15.431-15.721-15.431-28.691c0-.36.01-.72.04-1.07 3.09 4.18 8.821 5.86 15.391 5.86s12.31-1.69 15.39-5.88z" fill="#304756"/><path d="m316 162.9c8.17 0 14.88 6.911 15.39 15.631-3.08 4.19-8.82 5.88-15.39 5.88s-12.3-1.68-15.391-5.86c.502-8.733 7.212-15.651 15.391-15.651z" fill="#598baa"/><path d="m271.39 178.528c.03.36.04.72.04 1.09 0 12.97-15.43 28.691-15.43 28.691s-15.43-15.721-15.43-28.691c0-.36.01-.72.04-1.07 3.09 4.18 8.82 5.86 15.39 5.86s12.31-1.69 15.39-5.88z" fill="#304756"/><path d="m256 162.9c8.17 0 14.88 6.911 15.39 15.631-3.08 4.19-8.82 5.88-15.39 5.88s-12.3-1.68-15.39-5.86c.5-8.733 7.21-15.651 15.39-15.651z" fill="#598baa"/><path d="m286 225.4c8.17 0 14.88 6.91 15.39 15.631-3.08 4.19-8.82 5.88-15.39 5.88s-12.3-1.68-15.391-5.86c.501-8.732 7.212-15.651 15.391-15.651z" fill="#598baa"/><path d="m350.213 76.805v.53h-23.091v-23.835a13.659 13.659 0 0 0 -13.65-13.64h-114.944a13.659 13.659 0 0 0 -13.65 13.64v23.835h-23.091v-23.835a36.788 36.788 0 0 1 36.741-36.741h114.944a36.788 36.788 0 0 1 36.741 36.741z" fill="#3e5c72"/><g fill="#284268"><path d="m251.719 212.512a6 6 0 0 0 8.562 0 86.557 86.557 0 0 0 8.362-10.26c5.833-8.39 8.79-16.006 8.79-22.634 0-12.526-9.615-22.717-21.433-22.717s-21.433 10.191-21.433 22.717c0 6.628 2.957 14.244 8.79 22.634a86.557 86.557 0 0 0 8.362 10.26zm4.275-13.36a66.058 66.058 0 0 1 -6.162-9.226 39.448 39.448 0 0 0 12.321 0 66.588 66.588 0 0 1 -6.159 9.226zm.006-30.252c4.221 0 7.8 3.168 9 7.52-2.591 1.7-6.568 1.99-9 1.99-3.922 0-7.019-.7-9-2 1.2-4.344 4.781-7.51 9-7.51z"/><path d="m191.719 212.512a6 6 0 0 0 8.562 0 86.557 86.557 0 0 0 8.362-10.26c5.833-8.39 8.79-16.006 8.79-22.634 0-12.526-9.615-22.717-21.433-22.717s-21.433 10.191-21.433 22.717c0 6.628 2.957 14.244 8.79 22.634a86.557 86.557 0 0 0 8.362 10.26zm4.275-13.36a66.058 66.058 0 0 1 -6.162-9.226 39.448 39.448 0 0 0 12.321 0 66.588 66.588 0 0 1 -6.159 9.226zm.006-30.252c4.221 0 7.8 3.168 9 7.52-2.591 1.7-6.568 1.99-9 1.99-3.922 0-7.019-.7-9-2 1.2-4.344 4.781-7.51 9-7.51z"/><path d="m311.719 212.512a6 6 0 0 0 8.562 0 86.557 86.557 0 0 0 8.362-10.26c5.833-8.39 8.79-16.006 8.79-22.634 0-12.526-9.615-22.717-21.433-22.717s-21.433 10.191-21.433 22.717c0 6.628 2.957 14.244 8.79 22.634a86.557 86.557 0 0 0 8.362 10.26zm4.275-13.36a66.058 66.058 0 0 1 -6.162-9.226 39.448 39.448 0 0 0 12.321 0 66.588 66.588 0 0 1 -6.159 9.226zm.006-30.252c4.221 0 7.8 3.168 9 7.52-2.591 1.7-6.568 1.99-9 1.99-3.922 0-7.019-.7-9-2 1.2-4.344 4.781-7.51 9-7.51z"/><path d="m204.567 242.118c0 6.628 2.957 14.244 8.79 22.634a86.557 86.557 0 0 0 8.362 10.26 6 6 0 0 0 8.562 0 86.557 86.557 0 0 0 8.362-10.26c5.833-8.39 8.79-16.006 8.79-22.634 0-12.526-9.615-22.717-21.433-22.717s-21.433 10.191-21.433 22.717zm21.427 19.534a66.058 66.058 0 0 1 -6.162-9.226 39.448 39.448 0 0 0 12.321 0 66.588 66.588 0 0 1 -6.159 9.226zm.006-30.252c4.221 0 7.8 3.168 9 7.52-2.591 1.7-6.568 1.99-9 1.99-3.922 0-7.019-.7-9-2 1.2-4.344 4.781-7.51 9-7.51z"/><path d="m161.719 275.012a6 6 0 0 0 8.562 0 86.557 86.557 0 0 0 8.362-10.26c5.833-8.39 8.79-16.006 8.79-22.634 0-12.526-9.615-22.717-21.433-22.717s-21.433 10.191-21.433 22.717c0 6.628 2.957 14.244 8.79 22.634a86.557 86.557 0 0 0 8.362 10.26zm4.275-13.36a66.058 66.058 0 0 1 -6.162-9.226 39.448 39.448 0 0 0 12.321 0 66.588 66.588 0 0 1 -6.159 9.226zm.006-30.252c4.221 0 7.8 3.168 9 7.52-2.591 1.7-6.568 1.99-9 1.99-3.922 0-7.019-.7-9-2 1.2-4.344 4.781-7.51 9-7.51z"/><path d="m264.567 242.118c0 6.628 2.957 14.244 8.79 22.634a86.557 86.557 0 0 0 8.362 10.26 6 6 0 0 0 8.562 0 86.557 86.557 0 0 0 8.362-10.26c5.833-8.39 8.79-16.006 8.79-22.634 0-12.526-9.615-22.717-21.433-22.717s-21.433 10.191-21.433 22.717zm21.427 19.534a66.058 66.058 0 0 1 -6.162-9.226 39.448 39.448 0 0 0 12.321 0 66.588 66.588 0 0 1 -6.159 9.226zm.006-30.252c4.221 0 7.8 3.168 9 7.52-2.591 1.7-6.568 1.99-9 1.99-3.922 0-7.019-.7-9-2 1.2-4.344 4.781-7.51 9-7.51z"/><path d="m346 219.4c-11.818 0-21.433 10.191-21.433 22.717 0 6.628 2.957 14.244 8.79 22.634a86.557 86.557 0 0 0 8.362 10.26 6 6 0 0 0 8.562 0 86.557 86.557 0 0 0 8.362-10.26c5.833-8.39 8.79-16.006 8.79-22.634 0-12.525-9.615-22.717-21.433-22.717zm-.006 42.251a66.058 66.058 0 0 1 -6.162-9.226 39.448 39.448 0 0 0 12.321 0 66.588 66.588 0 0 1 -6.159 9.227zm.006-20.74c-3.922 0-7.019-.7-9-2 1.2-4.349 4.782-7.514 9-7.514s7.8 3.168 9 7.52c-2.588 1.7-6.565 1.994-9 1.994z"/><path d="m256 281.9c-11.818 0-21.433 10.191-21.433 22.717 0 6.628 2.957 14.244 8.79 22.634a86.557 86.557 0 0 0 8.362 10.26 6 6 0 0 0 8.562 0 86.557 86.557 0 0 0 8.362-10.26c5.833-8.39 8.79-16.006 8.79-22.634 0-12.525-9.615-22.717-21.433-22.717zm-.006 42.251a66.058 66.058 0 0 1 -6.162-9.226 39.448 39.448 0 0 0 12.321 0 66.588 66.588 0 0 1 -6.159 9.227zm.006-20.74c-3.922 0-7.019-.7-9-2 1.2-4.349 4.782-7.514 9-7.514s7.8 3.168 9 7.52c-2.588 1.7-6.565 1.994-9 1.994z"/><path d="m196 281.9c-11.818 0-21.433 10.191-21.433 22.717 0 6.628 2.957 14.244 8.79 22.634a86.557 86.557 0 0 0 8.362 10.26 6 6 0 0 0 8.562 0 86.557 86.557 0 0 0 8.362-10.26c5.833-8.39 8.79-16.006 8.79-22.634 0-12.525-9.615-22.717-21.433-22.717zm-.006 42.251a66.058 66.058 0 0 1 -6.162-9.226 39.448 39.448 0 0 0 12.321 0 66.588 66.588 0 0 1 -6.159 9.227zm.006-20.74c-3.922 0-7.019-.7-9-2 1.2-4.349 4.782-7.514 9-7.514s7.8 3.168 9 7.52c-2.588 1.7-6.565 1.994-9 1.994z"/><path d="m294.567 304.618c0 6.628 2.957 14.244 8.79 22.634a86.557 86.557 0 0 0 8.362 10.26 6 6 0 0 0 8.562 0 86.557 86.557 0 0 0 8.362-10.26c5.833-8.39 8.79-16.006 8.79-22.634 0-12.526-9.615-22.717-21.433-22.717s-21.433 10.191-21.433 22.717zm21.427 19.534a66.058 66.058 0 0 1 -6.162-9.226 39.448 39.448 0 0 0 12.321 0 66.588 66.588 0 0 1 -6.159 9.226zm9.006-22.731c-2.591 1.7-6.568 1.99-9 1.99-3.922 0-7.019-.7-9-2 1.2-4.349 4.782-7.514 9-7.514s7.8 3.172 9 7.524z"/><path d="m247.433 367.118c0-12.526-9.615-22.717-21.433-22.717s-21.433 10.191-21.433 22.717c0 6.628 2.957 14.244 8.79 22.634a86.557 86.557 0 0 0 8.362 10.26 6 6 0 0 0 8.562 0 86.557 86.557 0 0 0 8.362-10.26c5.833-8.39 8.79-16.006 8.79-22.634zm-21.439 19.534a66.058 66.058 0 0 1 -6.162-9.226 39.448 39.448 0 0 0 12.321 0 66.588 66.588 0 0 1 -6.159 9.226zm.006-20.741c-3.922 0-7.019-.7-9-2 1.2-4.349 4.782-7.514 9-7.514s7.8 3.168 9 7.52c-2.588 1.7-6.565 1.994-9 1.994z"/><path d="m187.433 367.118c0-12.526-9.615-22.717-21.433-22.717s-21.433 10.191-21.433 22.717c0 6.628 2.957 14.244 8.79 22.634a86.557 86.557 0 0 0 8.362 10.26 6 6 0 0 0 8.562 0 86.557 86.557 0 0 0 8.362-10.26c5.833-8.39 8.79-16.006 8.79-22.634zm-21.439 19.534a66.058 66.058 0 0 1 -6.162-9.226 39.448 39.448 0 0 0 12.321 0 66.588 66.588 0 0 1 -6.159 9.226zm.006-20.741c-3.922 0-7.019-.7-9-2 1.2-4.349 4.782-7.514 9-7.514s7.8 3.168 9 7.52c-2.588 1.7-6.565 1.994-9 1.994z"/><path d="m307.433 367.118c0-12.526-9.615-22.717-21.433-22.717s-21.433 10.191-21.433 22.717c0 6.628 2.957 14.244 8.79 22.634a86.557 86.557 0 0 0 8.362 10.26 6 6 0 0 0 8.562 0 86.557 86.557 0 0 0 8.362-10.26c5.833-8.39 8.79-16.006 8.79-22.634zm-21.439 19.534a66.058 66.058 0 0 1 -6.162-9.226 39.448 39.448 0 0 0 12.321 0 66.588 66.588 0 0 1 -6.159 9.226zm.006-20.741c-3.922 0-7.019-.7-9-2 1.2-4.349 4.782-7.514 9-7.514s7.8 3.168 9 7.52c-2.588 1.7-6.565 1.994-9 1.994z"/><path d="m346 344.4c-11.818 0-21.433 10.191-21.433 22.717 0 6.628 2.957 14.244 8.79 22.634a86.557 86.557 0 0 0 8.362 10.26 6 6 0 0 0 8.562 0 86.557 86.557 0 0 0 8.362-10.26c5.833-8.39 8.79-16.006 8.79-22.634 0-12.525-9.615-22.717-21.433-22.717zm-.006 42.251a66.058 66.058 0 0 1 -6.162-9.226 39.448 39.448 0 0 0 12.321 0 66.588 66.588 0 0 1 -6.159 9.227zm.006-20.74c-3.922 0-7.019-.7-9-2 1.2-4.349 4.782-7.514 9-7.514s7.8 3.168 9 7.52c-2.588 1.7-6.565 1.994-9 1.994z"/><path d="m256 406.9c-11.818 0-21.433 10.191-21.433 22.717 0 6.628 2.957 14.244 8.79 22.634a86.557 86.557 0 0 0 8.362 10.26 6 6 0 0 0 8.562 0 86.557 86.557 0 0 0 8.362-10.26c5.833-8.39 8.79-16.006 8.79-22.634 0-12.525-9.615-22.717-21.433-22.717zm-.006 42.251a66.058 66.058 0 0 1 -6.162-9.226 39.448 39.448 0 0 0 12.321 0 66.588 66.588 0 0 1 -6.159 9.227zm.006-20.74c-3.922 0-7.019-.7-9-2 1.2-4.349 4.782-7.514 9-7.514s7.8 3.168 9 7.52c-2.588 1.7-6.565 1.994-9 1.994z"/><path d="m196 406.9c-11.818 0-21.433 10.191-21.433 22.717 0 6.628 2.957 14.244 8.79 22.634a86.557 86.557 0 0 0 8.362 10.26 6 6 0 0 0 8.562 0 86.557 86.557 0 0 0 8.362-10.26c5.833-8.39 8.79-16.006 8.79-22.634 0-12.525-9.615-22.717-21.433-22.717zm-.006 42.251a66.058 66.058 0 0 1 -6.162-9.226 39.448 39.448 0 0 0 12.321 0 66.588 66.588 0 0 1 -6.159 9.227zm.006-20.74c-3.922 0-7.019-.7-9-2 1.2-4.349 4.782-7.514 9-7.514s7.8 3.168 9 7.52c-2.588 1.7-6.565 1.994-9 1.994z"/><path d="m316 406.9c-11.818 0-21.433 10.191-21.433 22.717 0 6.628 2.957 14.244 8.79 22.634a86.557 86.557 0 0 0 8.362 10.26 6 6 0 0 0 8.562 0 86.557 86.557 0 0 0 8.362-10.26c5.833-8.39 8.79-16.006 8.79-22.634 0-12.525-9.615-22.717-21.433-22.717zm-.006 42.251a66.058 66.058 0 0 1 -6.162-9.226 39.448 39.448 0 0 0 12.321 0 66.588 66.588 0 0 1 -6.159 9.227zm.006-20.74c-3.922 0-7.019-.7-9-2 1.2-4.349 4.782-7.514 9-7.514s7.8 3.168 9 7.52c-2.588 1.7-6.565 1.994-9 1.994z"/><path d="m382.5 129h.927a9.57 9.57 0 0 0 9.57-9.57v-38.088a10.373 10.373 0 0 0 -10.339-10.342h-26.658v-17.486a42.414 42.414 0 0 0 -42.527-42.514h-114.946a42.414 42.414 0 0 0 -42.527 42.514v17.486h-26.658a10.342 10.342 0 0 0 -10.342 10.342v38.088a9.57 9.57 0 0 0 9.57 9.57h.927l-35.397 365.648a5.748 5.748 0 0 0 1.53 4.5 5.894 5.894 0 0 0 4.445 1.852h311.85a5.823 5.823 0 0 0 5.972-6.408zm-214.5-75.486a30.4 30.4 0 0 1 30.527-30.514h114.946a30.4 30.4 0 0 1 30.527 30.514v17.486h-11v-17.486a19.454 19.454 0 0 0 -19.527-19.514h-114.946a19.454 19.454 0 0 0 -19.527 19.514v17.486h-11zm153 0v17.486h-130v-17.486a7.441 7.441 0 0 1 7.527-7.514h114.946a7.441 7.441 0 0 1 7.527 7.514zm-214.316 435.486 34.869-360h11.447a6 6 0 0 0 0-12h-22v-34h250v34h-188a6 6 0 0 0 0 12h177.447l34.869 360z"/></g></svg>