<svg id="Layer_1" enable-background="new 0 0 512 512" height="512" viewBox="0 0 512 512" width="512" xmlns="http://www.w3.org/2000/svg"><g><g><path d="m232.37 354.025c-39.81 39.81-81.084 78.157-81.084 78.157s-9.27-6.399-20.725-15.903c-5.819-4.844-12.212-10.486-18.229-16.504-17.84-17.84-32.4-38.962-32.4-38.962s38.332-41.288 78.142-81.098 81.084-78.156 81.084-78.156l71.368 71.368s-38.346 41.288-78.156 81.098z" fill="#ff5f85"/><path d="m310.526 272.927s-38.346 41.288-78.156 81.098-81.084 78.157-81.084 78.157-9.27-6.399-20.725-15.903c15.613-14.665 50.091-47.305 83.65-80.865 31.586-31.586 62.36-63.986 78.093-80.709z" fill="#b2527e"/><g fill="#ffe878"><path d="m231.756 294.371c8.303 0 15.035-6.718 15.035-15.005s-6.731-15.005-15.035-15.005-15.035 6.718-15.035 15.005 6.731 15.005 15.035 15.005z"/><path d="m204.252 323.879c0-8.287-6.732-15.005-15.035-15.005-8.304 0-15.035 6.718-15.035 15.005s6.731 15.005 15.035 15.005c8.303 0 15.035-6.718 15.035-15.005z"/></g><path d="m464.003 243.872c-54.065 54.079-141.732 54.079-195.797 0-3.578-3.578-6.922-7.304-10.034-11.165-43.791-54.369-40.453-134.159 10.041-184.653 50.473-50.488 130.248-53.839 184.618-10.034 3.854 3.104 7.587 6.456 11.172 10.041 54.072 54.072 54.072 141.739 0 195.811z" fill="#58768c"/><path d="m464.003 243.872c-54.065 54.079-141.732 54.079-195.797 0-3.578-3.578-6.922-7.304-10.034-11.165 54.369 43.791 134.138 40.446 184.618-10.048 50.487-50.487 53.832-130.27 10.041-184.639 3.854 3.104 7.587 6.456 11.172 10.041 54.072 54.072 54.072 141.739 0 195.811z" fill="#3e5868"/></g><g><path d="m231.734 301.87c12.427 0 22.538-10.096 22.538-22.505s-10.11-22.505-22.538-22.505c-12.427 0-22.538 10.096-22.538 22.505s10.111 22.505 22.538 22.505zm0-30.01c4.156 0 7.536 3.366 7.536 7.505s-3.38 7.505-7.536 7.505-7.536-3.366-7.536-7.505c0-4.138 3.38-7.505 7.536-7.505z"/><path d="m189.19 301.374c-12.427 0-22.538 10.096-22.538 22.505s10.111 22.505 22.538 22.505 22.538-10.096 22.538-22.505c0-12.41-10.111-22.505-22.538-22.505zm0 30.01c-4.156 0-7.536-3.366-7.536-7.505s3.38-7.505 7.536-7.505 7.536 3.366 7.536 7.505c0 4.138-3.38 7.504-7.536 7.505z"/><path d="m395.344 273.643c-44.247 10.085-89.8-3.023-121.848-35.071-41.253-41.252-50.21-105.589-21.783-156.454 2.021-3.615.728-8.185-2.889-10.205-3.616-2.023-8.187-.728-10.206 2.889-15.196 27.189-21.314 59.261-17.229 90.308 1.574 11.964 4.559 23.511 8.872 34.477-11.117 10.405-44.991 42.295-77.523 74.828-39.452 39.452-77.963 80.879-78.347 81.293-2.393 2.575-2.675 6.467-.68 9.36.434.63 7.922 11.441 18.728 24.15-33.422-2.473-62.06 7.851-79 29.186-14.203 17.886-17.41 40.626-8.369 59.344 10.513 21.766 35.439 34.25 68.388 34.25 21.765 0 40.613-2.567 57.621-7.851 3.957-1.229 6.168-5.432 4.938-9.387-1.228-3.954-5.43-6.168-9.388-4.938-15.546 4.828-32.939 7.175-53.172 7.175-26.965 0-46.968-9.393-54.879-25.772-6.516-13.49-3.983-30.156 6.608-43.495 16.494-20.773 47.557-28.588 83.38-21.089 17.736 17.383 37.57 31.119 38.43 31.712 1.289.889 2.777 1.325 4.256 1.325 1.844 0 3.678-.678 5.107-2.005.21-.195 21.31-19.805 47.507-45.151 2.977-2.881 3.055-7.629.174-10.605-2.881-2.977-7.63-3.055-10.607-.174-18.969 18.354-35.249 33.682-42.795 40.749-7.157-5.28-20.963-15.94-33.043-28.021-12.081-12.081-22.742-25.888-28.023-33.044 11.012-11.757 42.093-44.727 73.774-76.408 29.372-29.372 59.851-58.226 73.508-71.053 6.764 12.831 15.491 24.67 26.032 35.21 10.565 10.565 22.446 19.283 35.214 26.032-12.824 13.654-41.677 44.133-71.058 73.514-1.805 1.806-3.614 3.607-5.421 5.404-2.939 2.921-2.953 7.669-.032 10.606 1.466 1.475 3.393 2.213 5.32 2.213 1.912 0 3.825-.727 5.288-2.181 1.82-1.809 3.64-3.622 5.456-5.439 32.513-32.513 64.385-66.366 74.809-77.504 16.899 6.69 34.97 10.16 53.353 10.16 10.903 0 21.923-1.222 32.862-3.716 4.039-.921 6.567-4.941 5.646-8.979-.92-4.035-4.943-6.566-8.979-5.643z"/><path d="m469.316 42.753c-27.569-27.569-64.225-42.753-103.214-42.753-38.99 0-75.645 15.183-103.215 42.753-2.929 2.929-2.929 7.678.001 10.606 2.928 2.928 7.678 2.929 10.608-.001 24.735-24.735 57.624-38.358 92.606-38.358s67.87 13.623 92.606 38.358c51.064 51.064 51.064 134.15 0 185.214-8.485 8.485-18.036 15.744-28.387 21.574-3.61 2.032-4.887 6.606-2.854 10.215 1.377 2.445 3.921 3.82 6.542 3.82 1.247 0 2.511-.31 3.674-.967 11.539-6.499 22.184-14.586 31.634-24.037 56.911-56.911 56.911-149.512-.001-206.424z"/><path d="m333.056 470.306c-13.565-14.313-38.754-31.375-81.714-31.375-36.838 0-56.817 13.092-77.969 26.952-4.841 3.173-9.847 6.453-15.072 9.559-3.561 2.116-4.731 6.719-2.614 10.279 2.117 3.561 6.719 4.731 10.281 2.613 5.507-3.273 10.653-6.645 15.629-9.906 20.06-13.145 37.384-24.498 69.745-24.498 29.889 0 53.548 8.802 70.316 26.161 12.567 13.009 16.46 26.3 16.489 26.402.918 3.325 3.936 5.506 7.226 5.506.66 0 1.332-.088 2-.272 3.993-1.102 6.337-5.232 5.234-9.226-.183-.665-4.676-16.5-19.551-32.195z"/><path d="m295.026 74.903c-2.929 2.929-2.929 7.678 0 10.607s7.678 2.929 10.607 0 2.929-7.678 0-10.607-7.678-2.929-10.607 0z"/><path d="m328.27 108.133c-2.929 2.929-2.929 7.678 0 10.607s7.678 2.929 10.607 0 2.929-7.678 0-10.607-7.678-2.929-10.607 0z"/><path d="m360.794 140.663c-2.929 2.929-2.929 7.678 0 10.607s7.678 2.929 10.607 0 2.929-7.678 0-10.607c-2.93-2.929-7.678-2.929-10.607 0z"/><circle cx="399.341" cy="179.197" r="7.5"/><path d="m437.178 217.02c2.929-2.929 2.929-7.678 0-10.607s-7.678-2.929-10.607 0-2.929 7.678 0 10.607c2.93 2.929 7.679 2.929 10.607 0z"/><path d="m340.597 62.592c-2.929 2.929-2.929 7.678 0 10.607s7.678 2.929 10.607 0 2.929-7.678 0-10.607-7.678-2.929-10.607 0z"/><path d="m373.121 95.123c-2.929 2.929-2.929 7.678 0 10.607s7.678 2.929 10.607 0 2.929-7.678 0-10.607-7.679-2.929-10.607 0z"/><path d="m406.365 128.353c-2.929 2.929-2.929 7.678 0 10.607s7.678 2.929 10.607 0 2.929-7.678 0-10.607c-2.93-2.929-7.679-2.929-10.607 0z"/><path d="m438.899 160.873c-2.929 2.929-2.929 7.678 0 10.607s7.678 2.929 10.607 0 2.929-7.678 0-10.607-7.678-2.929-10.607 0z"/><path d="m398.584 62.596c2.929-2.929 2.929-7.678 0-10.607s-7.678-2.929-10.607 0-2.929 7.678 0 10.607 7.678 2.929 10.607 0z"/><path d="m431.828 95.826c2.929-2.929 2.929-7.678 0-10.607s-7.678-2.929-10.607 0-2.929 7.678 0 10.607 7.678 2.929 10.607 0z"/><path d="m464.362 128.346c2.929-2.929 2.929-7.678 0-10.607s-7.678-2.929-10.607 0-2.929 7.678 0 10.607 7.678 2.929 10.607 0z"/><path d="m282.722 120.465c-2.929 2.929-2.929 7.678 0 10.607s7.678 2.929 10.607 0 2.929-7.678 0-10.607-7.678-2.929-10.607 0z"/><path d="m315.252 152.988c-2.929 2.929-2.929 7.678 0 10.607s7.678 2.929 10.607 0 2.929-7.678 0-10.607-7.678-2.929-10.607 0z"/><path d="m348.483 186.232c-2.929 2.929-2.929 7.678 0 10.607s7.678 2.929 10.607 0 2.929-7.678 0-10.607c-2.93-2.928-7.678-2.928-10.607 0z"/><circle cx="386.306" cy="224.07" r="7.5"/><path d="m272.119 167.845c-2.929 2.929-2.929 7.678 0 10.607s7.678 2.929 10.607 0 2.929-7.678 0-10.607-7.678-2.929-10.607 0z"/><circle cx="310.652" cy="206.392" r="7.5"/><circle cx="343.173" cy="238.926" r="7.5"/></g></g></svg>