<svg id="Capa_1" enable-background="new 0 0 511.361 511.361" height="512" viewBox="0 0 511.361 511.361" width="512" xmlns="http://www.w3.org/2000/svg"><g><g><path d="m498.553 398.804h-484.745v71.239c0 3.832 3.106 6.939 6.939 6.939h470.868c3.832 0 6.939-3.107 6.939-6.939v-71.239z" fill="#f7d8a4"/><g><path d="m141.383 77.949 23.434 14.087c42.467 25.529 37.25 88.667-8.832 106.879-9.937 3.927-21.273 1.014-28.085-7.218-1.718-2.076-4.901-2.076-6.619 0-6.812 8.232-18.148 11.145-28.085 7.218-46.082-18.212-51.299-81.35-8.832-106.879l24.229-14.565c3.895-2.342 7.246-5.487 9.83-9.226l.904-1.309c2.763-4 8.727-3.835 11.266.311 2.684 4.383 6.385 8.054 10.79 10.702z" fill="#eeb7bc"/><path d="m273.837 48.842 24.776 14.894c44.9 26.992 39.384 93.747-9.338 113.002-10.506 4.152-22.492 1.072-29.694-7.632-1.816-2.195-5.182-2.195-6.998 0-7.202 8.703-19.188 11.784-29.694 7.632-48.722-19.255-54.239-86.01-9.338-113.002l25.617-15.4c4.118-2.476 7.662-5.801 10.393-9.755l.956-1.384c2.922-4.229 9.227-4.055 11.911.328 2.838 4.636 6.751 8.518 11.409 11.317z" fill="#eeb7bc"/><path d="m252.563 158.317c-18.333 0-34.015-13.434-36.546-31.591-3.28-23.525 6.374-48.771 30.025-62.989 0 0 25.633-15.908 25.645-16.298-3.752-2.663-6.926-6.069-9.324-10.018-2.641-4.348-8.955-4.408-11.847-.223l-.957 1.386c-2.731 3.953-6.274 7.278-10.392 9.753l-25.617 15.4c-44.9 26.992-39.384 93.747 9.338 113.002 8.562 3.384 18.118 1.955 25.255-3.396-.005-.002.005.002 0 0 1.62-1.211 3.107-2.626 4.439-4.236 1.797-2.172 5.201-2.172 6.998 0 7.202 8.704 19.188 11.784 29.694 7.632 10.603-4.19 19.158-10.632 25.594-18.422z" fill="#eda9b0"/><path d="m404.366 77.949 23.434 14.087c42.467 25.529 37.25 88.667-8.832 106.879-9.937 3.927-21.273 1.014-28.085-7.218-1.718-2.076-4.901-2.076-6.619 0-6.812 8.232-18.148 11.145-28.085 7.218-46.082-18.212-51.299-81.35-8.832-106.879l24.229-14.565c3.895-2.342 7.246-5.487 9.83-9.226l.904-1.309c2.763-4 8.727-3.835 11.266.311 2.683 4.383 6.385 8.054 10.79 10.702z" fill="#eeb7bc"/><path d="m361.058 158.317c-7.689 0-13.752-6.424-13.456-14.107.727-18.849 10.18-37.478 28.949-48.761l24.229-14.565c1.366-.821 2.66-1.746 3.883-2.756l-.297-.178c-4.416-2.656-8.096-6.357-10.812-10.736-2.55-4.113-8.489-4.265-11.245-.277l-.905 1.309c-2.585 3.74-5.937 6.886-9.834 9.229l-24.224 14.563c-42.467 25.53-37.25 88.667 8.832 106.879 6.73 2.66 14.099 2.172 20.272-.971-2.279-1.354-4.424-2.835-6.44-4.424l10.637 1.707c1.288-1.03 2.495-2.184 3.579-3.487 1.725-2.075 4.935-2.12 6.655-.042 6.812 8.231 18.148 11.144 28.084 7.217 19.351-7.647 31.492-23.218 35.927-40.598h-93.834z" fill="#eda9b0"/></g><path d="m93.872 158.317c-5.529 0-9.968-4.46-10.071-9.988-.371-20.013 9.05-40.272 28.979-52.253l24.229-14.565c1.651-.993 3.198-2.138 4.637-3.404l-.263-.158c-4.416-2.656-8.096-6.357-10.812-10.736-2.55-4.113-8.489-4.265-11.245-.277l-.905 1.309c-2.583 3.739-5.934 6.884-9.83 9.226l-24.227 14.565c-42.467 25.53-37.25 88.667 8.832 106.879 6.363 2.515 13.295 2.212 19.25-.484-2.105-1.263-4.091-2.639-5.969-4.104l9.782 1.945c1.844-1.27 3.544-2.789 5.022-4.575 1.718-2.076 4.901-2.076 6.619 0 6.812 8.232 18.148 11.145 28.085 7.218 19.351-7.647 31.499-23.229 35.933-40.609z" fill="#eda9b0"/><path d="m478.458 236.995h-444.554v-49.018c0-5.335 4.325-9.66 9.66-9.66h425.235c5.335 0 9.66 4.325 9.66 9.66v49.018z" fill="#f6e2c4"/><path d="m489.514 327.399h-466.667c-8.2 0-14.848-6.647-14.848-14.848v-83.709c0-8.2 6.647-14.848 14.848-14.848h466.667c8.2 0 14.848 6.647 14.848 14.848v83.709c0 8.201-6.648 14.848-14.848 14.848z" fill="#fcf1de"/><path d="m84.417 291.721c-16.509 0-29.892-13.383-29.892-29.892v-47.835h-31.678c-8.2 0-14.848 6.647-14.848 14.848v83.709c0 8.2 6.647 14.848 14.848 14.848h466.667c8.2 0 14.848-6.647 14.848-14.848v-20.83z" fill="#f6e2c4"/><g><path d="m489.514 440.804h-466.667c-8.2 0-14.848-6.647-14.848-14.848v-83.709c0-8.2 6.647-14.848 14.848-14.848h466.667c8.2 0 14.848 6.647 14.848 14.848v83.709c0 8.2-6.648 14.848-14.848 14.848z" fill="#fcf1de"/><path d="m81.697 408.527c-16.641 0-30.13-13.49-30.13-30.13v-50.997h-28.72c-8.2 0-14.848 6.647-14.848 14.848v83.709c0 8.2 6.647 14.848 14.848 14.848h466.667c8.2 0 14.848-6.647 14.848-14.848v-17.429h-422.665z" fill="#f6e2c4"/></g></g><g><path d="m511.361 229.092c0-12.322-10.024-22.348-22.347-22.348h-3.557v-18.519c0-9.462-7.698-17.159-17.16-17.159h-11.804c5.601-12.469 7.259-26.587 4.52-40.309-3.614-18.102-14.449-33.387-30.509-43.041l-22.759-13.682c-3.231-1.943-5.979-4.669-7.948-7.885-2.488-4.062-6.817-6.565-11.579-6.696-4.738-.108-9.222 2.131-11.93 6.052l-.876 1.269c-1.917 2.773-4.354 5.061-7.241 6.797l-16.911 10.166c-3.55 2.134-4.698 6.742-2.563 10.292 2.134 3.551 6.743 4.699 10.292 2.563l16.911-10.165c4.727-2.842 8.715-6.584 11.854-11.126l.048-.07c3.149 4.722 7.347 8.733 12.215 11.66l22.759 13.682c12.396 7.451 20.751 19.215 23.527 33.122 2.592 12.982.105 26.395-6.8 37.372h-44.431v-32.51c0-4.143-3.357-7.5-7.5-7.5s-7.5 3.357-7.5 7.5v32.51h-67.184c8.929-7.793 15.73-17.752 19.803-29.33 6.906-19.636 5.045-41.114-5.107-58.931-2.052-3.6-6.634-4.853-10.229-2.804-3.6 2.051-4.854 6.631-2.804 10.229 7.999 14.037 9.453 30.996 3.99 46.527-5.361 15.24-16.734 26.962-32.024 33.005-2.283.903-4.659 1.322-7.004 1.303h-.262c-5.273-.118-10.369-2.483-13.892-6.74l-1.777-2.148v-50.092c0-4.143-3.357-7.5-7.5-7.5s-7.5 3.357-7.5 7.5v50.093l-1.776 2.147c-3.523 4.257-8.618 6.622-13.89 6.741h-.275c-2.342.018-4.714-.401-6.994-1.303-20.168-7.971-33.274-25.631-35.061-47.242s8.243-41.185 26.829-52.357l25.616-15.399c5.067-3.046 9.34-7.056 12.702-11.922l.616-.892c3.429 5.419 8.129 10.016 13.624 13.318l24.648 14.817c3.551 2.136 8.157.987 10.292-2.563s.986-8.158-2.563-10.292l-24.65-14.818c-3.607-2.168-6.678-5.213-8.877-8.804-2.59-4.23-7.097-6.838-12.056-6.975-4.938-.131-9.602 2.218-12.423 6.302l-.954 1.382c-2.141 3.097-4.861 5.65-8.088 7.59l-25.617 15.4c-23.235 13.968-36.282 39.43-34.05 66.448 1.546 18.699 10.192 35.457 23.726 47.31h-67.271v-32.51c0-4.143-3.357-7.5-7.5-7.5s-7.5 3.357-7.5 7.5v32.51h-44.43c-6.905-10.977-9.392-24.39-6.801-37.372 2.776-13.907 11.133-25.67 23.528-33.122l22.758-13.682c4.869-2.927 9.067-6.939 12.215-11.66l.051.072c3.135 4.538 7.122 8.28 11.852 11.124l16.911 10.166c3.551 2.135 8.157.987 10.292-2.563s.986-8.158-2.563-10.292l-16.91-10.166c-2.89-1.737-5.325-4.023-7.241-6.797l-.878-1.27c-2.708-3.919-7.131-6.152-11.929-6.051-4.762.131-9.091 2.635-11.58 6.698-1.968 3.214-4.716 5.939-7.947 7.883l-22.759 13.682c-16.061 9.654-26.896 24.94-30.51 43.041-2.739 13.723-1.081 27.84 4.521 40.309h-12.607c-9.462 0-17.16 7.697-17.16 17.159v18.519h-3.556c-12.322 0-22.347 10.025-22.347 22.347v83.709c0 5.695 2.145 10.897 5.665 14.848-3.52 3.951-5.665 9.153-5.665 14.848v83.709c0 5.774 2.201 11.043 5.809 15.014v29.073c0 7.961 6.478 14.438 14.438 14.438h470.867c7.961 0 14.438-6.478 14.438-14.438v-29.073c3.607-3.97 5.809-9.24 5.809-15.014v-83.709c0-5.695-2.145-10.897-5.664-14.848 3.52-3.951 5.664-9.153 5.664-14.848zm-470.458-40.866c0-1.19.969-2.159 2.16-2.159h425.234c1.191 0 2.16.969 2.16 2.159v18.519h-429.554zm-25.903 40.866c0-4.052 3.296-7.348 7.348-7.348h84.869v98.404h-84.869c-4.052 0-7.348-3.296-7.348-7.348zm7.348 204.461c-4.052 0-7.348-3.296-7.348-7.348v-83.709c0-4.052 3.296-7.348 7.348-7.348h84.869v98.404h-84.869zm-1.539 36.178v-21.237c.509.035 1.021.059 1.539.059h365.165c4.143 0 7.5-3.357 7.5-7.5s-3.357-7.5-7.5-7.5h-265.296v-98.404h31.483c4.143 0 7.5-3.357 7.5-7.5s-3.357-7.5-7.5-7.5h-31.483v-98.404h366.798c4.051 0 7.347 3.296 7.347 7.348v83.709c0 4.052-3.296 7.348-7.347 7.348h-303.317c-4.143 0-7.5 3.357-7.5 7.5s3.357 7.5 7.5 7.5h303.316c4.051 0 7.347 3.296 7.347 7.348v83.709c0 4.052-3.296 7.348-7.347 7.348h-69.504c-4.143 0-7.5 3.357-7.5 7.5s3.357 7.5 7.5 7.5h69.504c.518 0 1.029-.024 1.538-.059v21.237h-469.743z"/><path d="m74.579 259.191h6.707c4.143 0 7.5-3.357 7.5-7.5s-3.357-7.5-7.5-7.5h-6.707c-4.143 0-7.5 3.357-7.5 7.5s3.358 7.5 7.5 7.5z"/><path d="m74.579 297.171h6.707c4.143 0 7.5-3.357 7.5-7.5s-3.357-7.5-7.5-7.5h-6.707c-4.143 0-7.5 3.357-7.5 7.5s3.358 7.5 7.5 7.5z"/><path d="m81.286 396.107h-6.707c-4.143 0-7.5 3.357-7.5 7.5s3.357 7.5 7.5 7.5h6.707c4.143 0 7.5-3.357 7.5-7.5s-3.357-7.5-7.5-7.5z"/><path d="m74.579 373.129h6.707c4.143 0 7.5-3.357 7.5-7.5s-3.357-7.5-7.5-7.5h-6.707c-4.143 0-7.5 3.357-7.5 7.5s3.358 7.5 7.5 7.5z"/></g></g></svg>