<svg id="Layer_1" height="512" viewBox="0 0 512 512" width="512" xmlns="http://www.w3.org/2000/svg" data-name="Layer 1"><path d="m156 139.39a23.763 23.763 0 0 0 -23.76 23.76v185.7a23.76 23.76 0 0 0 47.52 0v-185.7a23.75 23.75 0 0 0 -23.76-23.76z" fill="#d3c27d"/><path d="m156 79.39a83.751 83.751 0 0 0 -83.76 83.76v185.7a83.76 83.76 0 1 0 167.52 0v-185.7a83.759 83.759 0 0 0 -83.76-83.76zm53.76 269.46a53.76 53.76 0 0 1 -107.52 0v-185.7a53.76 53.76 0 1 1 107.52 0z" fill="#d3c27d"/><path d="m156 109.39a53.774 53.774 0 0 0 -53.76 53.76v185.7a53.76 53.76 0 0 0 107.52 0v-185.7a53.761 53.761 0 0 0 -53.76-53.76zm23.76 239.46a23.76 23.76 0 0 1 -47.52 0v-185.7a23.76 23.76 0 1 1 47.52 0z" fill="#f3e08d"/><path d="m156 49.39a113.762 113.762 0 0 0 -113.76 113.76v185.7a113.76 113.76 0 0 0 227.52 0v-185.7a113.757 113.757 0 0 0 -113.76-113.76zm83.76 299.46a83.76 83.76 0 0 1 -167.52 0v-185.7a83.76 83.76 0 1 1 167.52 0z" fill="#f3e08d"/><path d="m179.76 304.07a169.011 169.011 0 0 1 -23.04 1.33c-11.72 0-18.5-.34-24.48-.89-6.15-.56-11.46-1.34-20.44-2.2-3.18-.31-6.37-.53-9.56-.69-3.16-.16-66.64-.41-66.64-.41a14.6 14.6 0 0 1 -1.65-29.1 12.827 12.827 0 0 0 1.65.1h84.83c11.02 1.11 17.09 4 36.29 4 27.86 0 27.86-4 55.72-4s27.86 4 55.71 4 27.86-4 55.72-4 27.85 4 55.71 4 27.85-4 55.71-4c22.28 0 26.7 1.22 41.79 2.78a15.474 15.474 0 0 1 -2.08 30.86c-13.3-.47-18.46-3.42-39.62-4.45-27.83-1.35-27.96 4-55.82 4s-27.85-4-55.71-4c-27.31 0-27.85 3.84-54.09 3.99-.53.01-1.07.01-1.62.01a169.888 169.888 0 0 1 -28.38-2.07c-6.79-.98-29.14-1.93-30-1.92-15.13.15-21.51 1.56-30 2.66z" fill="#e75163"/><path d="m276.41 243.01a14.6 14.6 0 0 1 0 29.2s-241.92-.17-242.46-.1a14.6 14.6 0 0 1 -12.95-14.5 14.6 14.6 0 0 1 14.6-14.6z" fill="#fc8193"/><path d="m276.41 213.82a14.6 14.6 0 0 1 0 29.19h-240.81a14.6 14.6 0 1 1 0-29.19z" fill="#e75163"/><path d="m276.41 184.5a14.6 14.6 0 0 1 0 29.19h-240.81a14.6 14.6 0 1 1 0-29.19z" fill="#fc8193"/><path d="m65.28 296.93a14.578 14.578 0 0 1 8.041-24.72h-37.721a12.827 12.827 0 0 1 -1.65-.1 14.6 14.6 0 0 0 1.65 29.1h40a14.515 14.515 0 0 1 -10.32-4.28z" fill="#ce495f"/><path d="m61 257.61a14.6 14.6 0 0 1 14.6-14.6h-40a14.595 14.595 0 0 0 -10.32 24.92 14.458 14.458 0 0 0 8.67 4.18c.139-.018 16.165-.02 39.913-.013a14.6 14.6 0 0 1 -12.863-14.487z" fill="#e87087"/><path d="m61 228.41a14.6 14.6 0 0 1 14.6-14.59h-40a14.6 14.6 0 1 0 0 29.19h40a14.6 14.6 0 0 1 -14.6-14.6z" fill="#ce495f"/><path d="m61 199.1a14.6 14.6 0 0 1 14.6-14.6h-40a14.6 14.6 0 1 0 0 29.19h40a14.6 14.6 0 0 1 -14.6-14.59z" fill="#e87087"/><path d="m35.6 307.206h.64v41.647a119.763 119.763 0 0 0 239.525 0v-37.565a167.953 167.953 0 0 0 21.082-1.949 161.85 161.85 0 0 1 27-1.939 161.807 161.807 0 0 1 27 1.939 174.077 174.077 0 0 0 28.709 2.061 145.407 145.407 0 0 0 27.6-2.367c7.4-1.247 13.786-2.324 27.93-1.637a179.5 179.5 0 0 1 23.554 2.604 114.966 114.966 0 0 0 16.145 1.847q.4.014.787.014a21.473 21.473 0 0 0 21.428-21.698 21.479 21.479 0 0 0 -19.3-21.146c-3.233-.333-5.97-.651-8.5-.944-9.341-1.084-16.09-1.867-33.907-1.867a173.95 173.95 0 0 0 -28.708 2.061 161.817 161.817 0 0 1 -27 1.939 161.831 161.831 0 0 1 -27-1.939 173.945 173.945 0 0 0 -28.709-2.061 173.965 173.965 0 0 0 -28.709 2.061l-1.271.182a20.5 20.5 0 0 0 -2.967-25.438 20.53 20.53 0 0 0 6.083-14.6 20.523 20.523 0 0 0 -6.151-14.658 20.581 20.581 0 0 0 -14.461-35.253h-.64v-15.353a119.763 119.763 0 0 0 -239.525 0v15.353h-.635a20.582 20.582 0 0 0 -14.447 35.256 20.549 20.549 0 0 0 -.067 29.255 20.554 20.554 0 0 0 -.1 29.1 20.585 20.585 0 0 0 14.61 35.1zm228.165 41.647a107.763 107.763 0 0 1 -215.525 0v-41.647h12.733l5.267.026v41.621a89.763 89.763 0 0 0 179.525 0v-38.653a166.694 166.694 0 0 0 18 1.165zm-107.765 59.762a59.83 59.83 0 0 0 59.762-59.762v-41.43a155.027 155.027 0 0 1 18 1.141v40.289a77.763 77.763 0 0 1 -155.525 0v-41.561l14.483.072c1.174.006 2.345.031 3.517.056v41.433a59.83 59.83 0 0 0 59.763 59.762zm0-30a29.8 29.8 0 0 0 29.762-29.762v-39.563a154.75 154.75 0 0 1 18-1.737v41.3a47.763 47.763 0 0 1 -95.525 0v-40.822c1 .08 2 .156 2.987.251 4.623.444 8.317.872 11.576 1.251 1.177.136 2.314.268 3.437.394v38.926a29.8 29.8 0 0 0 29.763 29.762zm-17.76-29.762v-37.88c4.762.27 10.512.427 18.476.427 7.156 0 12.556-.261 17.049-.647v38.1a17.763 17.763 0 0 1 -35.525 0zm-90-185.706a107.763 107.763 0 0 1 215.525 0v15.353h-18v-15.353a89.763 89.763 0 0 0 -179.525 0v15.353h-18zm107.76-59.762a59.83 59.83 0 0 0 -59.76 59.762v15.353h-18v-15.353a77.763 77.763 0 0 1 155.525 0v15.353h-18v-15.353a59.83 59.83 0 0 0 -59.765-59.762zm0 30a29.8 29.8 0 0 0 -29.763 29.762v15.353h-18v-15.353a47.763 47.763 0 0 1 95.525 0v15.353h-18v-15.353a29.8 29.8 0 0 0 -29.762-29.762zm17.762 29.762v15.353h-35.522v-15.353a17.763 17.763 0 0 1 35.525 0zm-138.162 27.353h240.8a8.6 8.6 0 1 1 0 17.194h-240.8a8.6 8.6 0 0 1 0-17.194zm0 29.317h240.8a8.6 8.6 0 1 1 0 17.194h-240.8a8.6 8.6 0 0 1 0-17.194zm0 29.194h240.8a8.6 8.6 0 1 1 0 17.2l-240.8-.195c-.471 0-.932.04-1.4.071a8.592 8.592 0 0 1 1.4-17.071zm-1.4 29.124c.463.031.924.071 1.4.071h84.456c3.379.352 6.3.882 9.417 1.451a133.2 133.2 0 0 0 27.25 2.549 174.111 174.111 0 0 0 28.712-2.061 161.75 161.75 0 0 1 27.007-1.939 161.712 161.712 0 0 1 27 1.939 174.067 174.067 0 0 0 28.709 2.061 174.058 174.058 0 0 0 28.709-2.061 161.736 161.736 0 0 1 27-1.939 161.717 161.717 0 0 1 27 1.939 174.063 174.063 0 0 0 28.708 2.061 174.048 174.048 0 0 0 28.707-2.061 161.712 161.712 0 0 1 27-1.939c17.124 0 23.251.711 32.524 1.787 2.576.3 5.363.622 8.654.961a9.48 9.48 0 0 1 5.664 16.225 9.354 9.354 0 0 1 -6.918 2.677 103.761 103.761 0 0 1 -14.6-1.692 190.428 190.428 0 0 0 -24.942-2.755c-3.248-.158-6.135-.227-8.743-.227a115.052 115.052 0 0 0 -21.764 2.018 133.434 133.434 0 0 1 -25.6 2.2 161.812 161.812 0 0 1 -27-1.939 174.063 174.063 0 0 0 -28.708-2.061 174.062 174.062 0 0 0 -28.71 2.061 161.845 161.845 0 0 1 -27 1.939 161.822 161.822 0 0 1 -27-1.939 174.063 174.063 0 0 0 -28.708-2.061 174.043 174.043 0 0 0 -28.708 2.061 161.831 161.831 0 0 1 -27 1.939c-17.127 0-23.254-.711-32.529-1.787-3.316-.385-7.073-.821-11.814-1.276-6.386-.613-12.977-.94-19.59-.973l-31.783-.158h-25.4a8.592 8.592 0 0 1 -1.4-17.071z" fill="#284268"/></svg>