<svg id="Layer_1" height="512" viewBox="0 0 512 512" width="512" xmlns="http://www.w3.org/2000/svg" data-name="Layer 1"><path d="m309.18 142.64h73.949v121.12a127.083 127.083 0 0 1 -205.989 99.729 69.75 69.75 0 0 0 21.54-119.419l-69.809-58.1v-43.33z" fill="#97c9fa"/><path d="m243.47 383.609a127.224 127.224 0 0 1 -36.33-20.12 69.75 69.75 0 0 0 21.54-119.419l-69.809-58.1v-43.33h-30v43.33l69.809 58.1a69.748 69.748 0 0 1 -21.54 119.419 127.092 127.092 0 0 0 93.83 26.523 126.31 126.31 0 0 1 -27.5-6.403z" fill="#64a9e2"/><path d="m173.33 364.7a69.482 69.482 0 0 1 -46.509-2.83c-1.45-.61-2.88-1.28-4.31-2a69.732 69.732 0 0 1 -36.1-79.1l18.23-72.98 8.68-34.76.51.43s53.889 92.76 59.499 191.24z" fill="#a2d4a8"/><path d="m156.82 361.869c-1.449-.61-2.88-1.28-4.31-2a69.733 69.733 0 0 1 -36.1-79.1l16.956-67.882c-10.8-24.387-19.536-39.428-19.536-39.428l-.511-.43-8.679 34.76-18.23 72.98a69.733 69.733 0 0 0 36.1 79.1c1.431.72 2.861 1.39 4.31 2a69.406 69.406 0 0 0 42.206 3.906 69.584 69.584 0 0 1 -12.206-3.906z" fill="#95c49a"/><path d="m56.031 397.949a34.936 34.936 0 0 0 34.94 34.94h330.058a34.927 34.927 0 0 0 34.94-34.94z" fill="#d05458"/><path d="m309.18 206.93 18.92 19.17a31.367 31.367 0 0 1 9.04 22.03v41.23h-56.28v-41.23a31.367 31.367 0 0 1 9.04-22.03l19.1-19.35z" fill="#ea836f"/><path d="m177.14 363.489c-1.26.44-2.53.84-3.81 1.21-5.61-98.479-59.5-191.239-59.5-191.239l15.04 12.51 69.809 58.1a69.748 69.748 0 0 1 -21.54 119.419z" fill="#88bf8e"/><path d="m115.001 432.889h281.999v25.06h-281.999z" fill="#ba4d55"/><g fill="#284268"><path d="m172.675 113.147a6 6 0 0 0 12 0c0-5.046 2.184-7.322 5.49-10.766 3.936-4.1 8.834-9.2 8.834-19.076s-4.9-14.977-8.834-19.077c-3.306-3.444-5.49-5.719-5.49-10.766a6 6 0 1 0 -12 0c0 9.874 4.9 14.976 8.833 19.077 3.306 3.443 5.492 5.719 5.492 10.766s-2.185 7.322-5.491 10.766c-3.936 4.099-8.834 9.202-8.834 19.076z"/><path d="m219.832 113.147a6 6 0 0 0 12 0c0-5.046 2.184-7.322 5.49-10.766 3.936-4.1 8.834-9.2 8.834-19.076s-4.9-14.977-8.834-19.077c-3.306-3.444-5.49-5.719-5.49-10.766a6 6 0 1 0 -12 0c0 9.874 4.9 14.976 8.834 19.077 3.306 3.443 5.49 5.719 5.49 10.766s-2.184 7.322-5.49 10.766c-3.936 4.099-8.834 9.202-8.834 19.076z"/><path d="m265.844 113.147a6 6 0 0 0 12 0c0-5.046 2.184-7.322 5.49-10.766 3.936-4.1 8.834-9.2 8.834-19.076s-4.9-14.977-8.834-19.077c-3.306-3.444-5.49-5.719-5.49-10.766a6 6 0 1 0 -12 0c0 9.874 4.9 14.976 8.834 19.077 3.306 3.443 5.49 5.719 5.49 10.766s-2.184 7.322-5.49 10.766c-3.936 4.099-8.834 9.202-8.834 19.076z"/><path d="m313 113.147a6 6 0 0 0 12 0c0-5.046 2.185-7.322 5.491-10.766 3.935-4.1 8.833-9.2 8.833-19.076s-4.9-14.977-8.833-19.077c-3.305-3.444-5.491-5.719-5.491-10.766a6 6 0 1 0 -12 0c0 9.874 4.9 14.976 8.834 19.077 3.306 3.443 5.49 5.719 5.49 10.766s-2.184 7.322-5.49 10.766c-3.934 4.099-8.834 9.202-8.834 19.076z"/><path d="m455.969 393h-165.7a133.589 133.589 0 0 0 74.972-52.636l47.42-19.409a71.211 71.211 0 0 0 43.925-73.112 71.609 71.609 0 0 0 -67.586-64.224v-40.392a6.087 6.087 0 0 0 -5.866-6.227h-254.268a6.087 6.087 0 0 0 -5.866 6.227v30.536l-5.774-4.75a6.04 6.04 0 0 0 -9.71 3.157l-26.924 107.737a75.725 75.725 0 0 0 39.21 85.9c1.526.774 3.1 1.5 4.67 2.176a74.98 74.98 0 0 0 29.418 6 75.851 75.851 0 0 0 13.753-1.27q.333 10.138-.107 20.28h-111.505c-3.313 0-6 2.218-6 5.531a40.586 40.586 0 0 0 40.938 40.476h18.031v19.538c0 3.314 2.687 6.462 6 6.462h282c3.313 0 6-3.148 6-6.462v-19.538h18.031a40.78 40.78 0 0 0 40.938-40.7 5.229 5.229 0 0 0 -1.758-3.894 5.709 5.709 0 0 0 -4.242-1.406zm-66.969-128.648v-68.725a59.389 59.389 0 0 1 19.111 114.223l-32.8 13.4a132.281 132.281 0 0 0 13.689-58.898zm-259.828 92.592c-1.328-.566-2.655-1.184-3.944-1.838a63.731 63.731 0 0 1 -33-72.291l23.229-92.982c14.194 27.882 46.07 97.612 51.528 170.8a63.251 63.251 0 0 1 -37.813-3.689zm22.758-113.759c-6.725-18.109-13.568-33.662-19.265-45.655l17.155 14.277a6 6 0 0 0 8.081-.369 6 6 0 0 0 -.338-8.855l-22.563-18.833v-34.75h168v55.691l-17.393 17.787a36.983 36.983 0 0 0 -10.607 26.239v41.228a5.932 5.932 0 0 0 5.863 6.055h56.274a5.932 5.932 0 0 0 5.863-6.055v-41.228a37.156 37.156 0 0 0 -10.79-26.239l-17.21-17.415v-56.063h62v115.352c0 66.794-54.273 121.134-121.067 121.134a119.626 119.626 0 0 1 -66.886-20.135 75.674 75.674 0 0 0 13.463-125.3l-14.141-11.771a6 6 0 1 0 -7.675 9.224l14.143 11.77a63.67 63.67 0 0 1 -16.116 107.712c-3.608-43.17-15.763-84.104-26.791-113.801zm157.07-27.304 14.76 15.026a25.138 25.138 0 0 1 7.24 17.81v35.283h-44v-35.283a25.138 25.138 0 0 1 7.24-17.81zm-129.344 157.556a131.394 131.394 0 0 0 41.844 19.563h-41.946c.273-6.526.295-13.056.102-19.563zm211.344 79.563h-270v-14h270zm30.031-26h-330.062c-13.9 0-25.543-9-28.312-22h386.686c-2.77 13-14.413 22-28.312 22z"/></g></svg>