<svg id="Layer_1" height="512" viewBox="0 0 512 512" width="512" xmlns="http://www.w3.org/2000/svg" data-name="Layer 1"><path d="m324.85 87.52a82.751 82.751 0 0 0 -23.67-23.67 81.815 81.815 0 0 0 -28.45-11.79l-33.46-.01a81.644 81.644 0 0 0 -28.45 11.8 82.5 82.5 0 0 0 -23.67 23.67 81.576 81.576 0 0 0 -11.79 28.44v33.47a81.815 81.815 0 0 0 11.79 28.45 82.46 82.46 0 0 0 50.61 35.14c.5.11 1 .22 1.51.32h33.46c.19-.04.38-.07.56-.12a81.607 81.607 0 0 0 27.89-11.67 82.625 82.625 0 0 0 23.67-23.67 81.736 81.736 0 0 0 11.79-28.45v-33.47a81.766 81.766 0 0 0 -11.79-28.44z" fill="#d4e1f4"/><path d="m240.82 201.55a82.751 82.751 0 0 1 -23.67-23.67 81.815 81.815 0 0 1 -11.79-28.45v-33.47a81.576 81.576 0 0 1 11.79-28.44 82.5 82.5 0 0 1 23.67-23.67 81.637 81.637 0 0 1 28.411-11.791l-29.961-.009a81.644 81.644 0 0 0 -28.45 11.8 82.5 82.5 0 0 0 -23.67 23.67 81.576 81.576 0 0 0 -11.79 28.44v33.47a81.815 81.815 0 0 0 11.79 28.45 82.46 82.46 0 0 0 50.61 35.14c.5.11 1 .22 1.51.32h30c-.51-.1-1.01-.21-1.51-.32a82.031 82.031 0 0 1 -26.94-11.47z" fill="#b9c8db"/><path d="m342.8 45.9-17.95 41.62a82.751 82.751 0 0 0 -23.67-23.67z" fill="#b0b5ca"/><path d="m324.85 177.88 17.95 41.62-41.62-17.95a82.625 82.625 0 0 0 23.67-23.67z" fill="#b0b5ca"/><path d="m292.04 356.15a13 13 0 0 1 -9.19 22.19h-54.75a13 13 0 1 1 0-26h54.75a12.962 12.962 0 0 1 9.19 3.81z" fill="#fb6771"/><path d="m279.37 484.58v17.48h-47.79v-42.44h1z" fill="#797e37"/><path d="m279.37 453.14v31.44l-46.79-24.96h-1v-31.44h1z" fill="#9ac5a1"/><path d="m279.37 420.7v32.44l-46.79-24.96h-1v-32.44h1z" fill="#797e37"/><path d="m279.37 378.34v42.36l-46.79-24.96h-1v-17.4z" fill="#9ac5a1"/><path d="m273.29 213.22c-.18.05-.37.08-.56.12h-33.46c-.51-.1-1.01-.21-1.51-.32l-.18.75v138.57h35.79v-138.73z" fill="#c0cfe2"/><path d="m169.2 45.9 41.62 17.95a82.5 82.5 0 0 0 -23.67 23.67z" fill="#b0b5ca"/><path d="m210.82 201.55-41.62 17.95 17.95-41.62a82.751 82.751 0 0 0 23.67 23.67z" fill="#b0b5ca"/><path d="m292.04 356.15a12.962 12.962 0 0 0 -9.19-3.81h-54.75a13 13 0 0 0 0 26h54.75a13 13 0 0 0 9.19-22.19z" fill="#f3e08d"/><g fill="#6d7486"><path d="m239.27 213.34-6.02-15.15 22.75-14.46 22.75 14.46-6.02 15.15-16.73 42.11z"/><path d="m336.64 149.43-15.14 6.02-14.47-22.75 14.47-22.76 15.14 6.02 42.11 16.74z"/><path d="m272.73 52.06 6.02 15.14-22.75 14.46-22.75-14.46 6.02-15.15 16.73-42.11z"/><path d="m190.5 109.94 14.47 22.76-14.47 22.75-15.14-6.02-42.11-16.73 42.11-16.74z"/><path d="m256 113.09a19.605 19.605 0 1 1 -19.6 19.61 19.6 19.6 0 0 1 19.6-19.61z"/></g><path d="m380.97 127.122-39.17-15.567a88.171 88.171 0 0 0 -10.169-24.6l16.679-38.682a6 6 0 0 0 -7.886-7.885l-38.682 16.681a88.151 88.151 0 0 0 -24.6-10.168l-15.566-39.173a6 6 0 0 0 -11.152 0l-15.566 39.172a88.126 88.126 0 0 0 -24.6 10.17l-38.682-16.682a6 6 0 0 0 -7.886 7.885l16.683 38.685a88.158 88.158 0 0 0 -10.171 24.6l-39.172 15.564a6 6 0 0 0 0 11.151l39.17 15.566a88.177 88.177 0 0 0 10.169 24.6l-16.679 38.683a6 6 0 0 0 7.886 7.885l38.681-16.682a88.173 88.173 0 0 0 21.319 9.3v128.714h-3.476a18.99 18.99 0 0 0 -2.52 37.813v117.905a6 6 0 0 0 6 6h47.8a6 6 0 0 0 6-6v-117.905a18.99 18.99 0 0 0 -2.521-37.813h-3.479v-128.439a88.2 88.2 0 0 0 22.373-9.574l38.677 16.68a6 6 0 0 0 7.886-7.885l-16.68-38.679a88.194 88.194 0 0 0 10.166-24.6l39.174-15.567a6 6 0 0 0 0-11.151zm-49.658-69.736-7.849 18.2a88.213 88.213 0 0 0 -10.35-10.351zm-75.312-31.196 15.343 38.61-15.343 9.755-15.343-9.755zm-57.108 39.046a88.187 88.187 0 0 0 -10.353 10.354l-7.851-18.2zm-49.4 67.461 38.608-15.343 9.753 15.343-9.753 15.344zm31.195 75.312 7.849-18.2a88.221 88.221 0 0 0 10.35 10.352zm92.686 288.048h-35.8v-26.973l35.8 19.092zm0-21.481-35.8-19.092v-17.84l35.8 19.093zm0-31.439-35.8-19.092v-18.84l35.8 19.092zm0-32.44-35.8-19.092v-7.266h35.8zm9.479-52.358a7 7 0 0 1 0 14h-54.752a7 7 0 1 1 0-14zm-26.852-119.139-15.343-38.611 15.343-9.749 15.343 9.753zm11.374 3.873v103.266h-23.8v-105.9l6.848 17.232a6 6 0 0 0 11.152 0zm15.447-38.873 1.508-3.8a6 6 0 0 0 -2.357-7.279l-22.753-14.463a6 6 0 0 0 -6.438 0l-22.753 14.472a6 6 0 0 0 -2.357 7.279l1.507 3.793a76.126 76.126 0 0 1 -44.685-44.684l3.8 1.508a6 6 0 0 0 7.279-2.357l14.464-22.753a6 6 0 0 0 0-6.437l-14.464-22.754a6 6 0 0 0 -7.279-2.357l-3.793 1.508a76.155 76.155 0 0 1 44.683-44.684l-1.507 3.793a6 6 0 0 0 2.357 7.28l22.753 14.463a6 6 0 0 0 6.438 0l22.753-14.463a6 6 0 0 0 2.357-7.28l-1.507-3.793a76.128 76.128 0 0 1 44.685 44.684l-3.8-1.508a6 6 0 0 0 -7.279 2.357l-14.464 22.754a6 6 0 0 0 0 6.437l14.464 22.753a6 6 0 0 0 7.279 2.357l3.8-1.507a76.1 76.1 0 0 1 -44.691 44.681zm30.3-4.041a88.026 88.026 0 0 0 10.348-10.349l7.847 18.195zm10.779-52.118-9.757-15.341 9.753-15.343 38.611 15.343z" fill="#284268"/><path d="m256 107.092a25.605 25.605 0 1 0 25.605 25.608 25.634 25.634 0 0 0 -25.605-25.608zm0 39.21a13.6 13.6 0 1 1 13.605-13.6 13.62 13.62 0 0 1 -13.605 13.598z" fill="#284268"/></svg>