<svg id="Capa_1" enable-background="new 0 0 511.361 511.361" height="512" viewBox="0 0 511.361 511.361" width="512" xmlns="http://www.w3.org/2000/svg"><g><g><path d="m96.158 99.548c-2.755.017-5.484-.657-7.926-1.989-8.043-4.388-18.121-1.308-22.336 6.828l-3.854 7.439c-1.011 1.952-2.406 3.679-4.1 5.08l-1.591 1.314c-8.624 7.127-7.697 20.619 1.822 26.498l.559.346c3.828 2.365 6.511 6.202 7.418 10.609l1.886 9.17v46.448h81.264v-97.994z" fill="#a6d786"/><path d="m162.376 76.503-.109-.137c-6.524-8.211-18.227-10.102-27.005-4.363l-4.317 2.823c-3.77 2.465-8.253 3.606-12.743 3.244-11.346-.916-21.227 7.674-21.899 19.037l-.614 10.39c-.161 2.726-.87 5.391-2.086 7.837l-1.141 2.295c-6.186 12.448 1.685 27.291 15.459 29.153l.81.11c5.539.749 10.524 3.749 13.781 8.292l6.923 9.66 42.627 30.559 41.209-73.783z" fill="#b8de9c"/><path d="m324.294 80.389-70.181 37.087-2.023 3.463-.89 1.93 26.12 71.3h126.23l28.32-29.33c10.43-4.69 17.7-15.17 17.7-27.35v-12.03-20.329z" fill="#fcf1de"/><path d="m254.114 117.475-2.023 3.463-.89 1.93 26.12 71.3h34.522l19.422-11.65c17.239-8.309 28.306-25.839 28.306-45.03v-2.775c11.149-10.701 15.347-27.191 10.434-41.988-.406-1.225-.888-2.414-1.403-3.585l-44.307-8.75z" fill="#f6e2c4"/><g id="XMLID_218_"><g><path d="m461.031 99.018c2.67 8.04.11 16.9-6.44 22.28l-3.53 2.89-1.49 1.27c-31.94 7.38-71.56 9.7-104.17 6.34l-5.84-.61-87.47-10.25 21.92-47.49c13.25-23.16 42.23-32.17 66.32-20.46l29.45 14.32c20.12 9.78 41.94 15.59 64.27 17.11l8.92.6c4.15.28 8.01 1.81 11.16 4.25s5.59 5.8 6.9 9.75z" fill="#be8f7d"/></g></g><path d="m356.369 73.457c-6.39-4.949-14.02-7.852-22.064-8.394l-8.905-.6c-12.628-.86-24.966-3.24-36.878-7.092-5.78 4.134-10.772 9.541-14.511 16.076l-21.92 47.49 87.47 10.25 5.84.61c5.134.529 10.456.901 15.88 1.151 9.85-10.695 13.376-26.214 8.724-40.224-2.541-7.663-7.256-14.325-13.636-19.267z" fill="#b37e67"/><path d="m334.858 113.065-86.701-20.628-72.197 9.025-12.97 22.726-.15 12.96c-.14 12.31 7.16 22.95 17.7 27.69l49.37 20.34h58.04l33.91-20.34c10.43-4.69 17.71-15.17 17.71-27.35v-12.03z" fill="#fcf1de"/><g><path d="m496.486 385.313h-484.745v71.239c0 3.832 3.107 6.939 6.939 6.939h470.868c3.832 0 6.939-3.107 6.939-6.939v-71.239z" fill="#f7d8a4"/><path d="m487.447 427.313h-466.667c-8.2 0-14.848-6.647-14.848-14.848v-83.709c0-8.2 6.647-14.848 14.848-14.848h466.667c8.2 0 14.848 6.647 14.848 14.848v83.709c-.001 8.2-6.648 14.848-14.848 14.848z" fill="#fcf1de"/><path d="m79.629 395.036c-16.641 0-30.13-13.49-30.13-30.13v-50.997h-28.719c-8.2 0-14.848 6.647-14.848 14.848v83.709c0 8.2 6.647 14.848 14.848 14.848h466.667c8.2 0 14.848-6.647 14.848-14.848v-17.429h-422.666z" fill="#f6e2c4"/></g><path d="m219.324 166.932c-10.54-4.74-17.84-15.38-17.7-27.69l.15-12.96-3.16-9.57c-1.71-5.19-2.56-10.56-2.56-15.92 0-.617.036-1.233.058-1.849l-20.152 2.519-12.97 22.726-.15 12.96c-.14 12.31 7.16 22.95 17.7 27.69l49.37 20.34h33.702z" fill="#f6e2c4"/><path d="m476.39 223.504h-444.554v-49.018c0-5.335 4.325-9.66 9.66-9.66h425.235c5.335 0 9.66 4.325 9.66 9.66v49.018z" fill="#f6e2c4"/><g><g id="XMLID_215_"><g><path d="m351.021 99.018c2.67 8.04.11 16.9-6.44 22.28l-3.52 2.89-1.49 1.27h-.01c-31.94 7.38-71.56 9.7-104.17 6.34l-72.4-7.61-3.16-9.57c-1.71-5.19-2.56-10.56-2.56-15.92 0-8.48 2.13-16.92 6.3-24.5 13.05-23.72 42.4-33.05 66.75-21.21l29.45 14.32c20.12 9.78 41.95 15.59 64.27 17.11l8.92.6c4.15.28 8.01 1.81 11.16 4.25s5.59 5.8 6.9 9.75z" fill="#be8f7d"/></g></g></g><path d="m201.774 126.281-3.16-9.57c-1.71-5.19-2.56-10.56-2.56-15.92 0-8.48 2.13-16.92 6.3-24.5 6.258-11.375 16.282-19.429 27.688-23.438-24.292-11.625-53.474-2.281-66.472 21.344-4.17 7.58-6.3 16.02-6.3 24.5 0 5.36.85 10.73 2.56 15.92l3.16 9.57 38.761 4.074z" fill="#b37e67"/><path d="m487.447 313.908h-466.667c-8.2 0-14.848-6.647-14.848-14.848v-83.709c0-8.2 6.647-14.848 14.848-14.848h466.667c8.2 0 14.848 6.647 14.848 14.848v83.709c-.001 8.201-6.648 14.848-14.848 14.848z" fill="#fcf1de"/><path d="m82.35 278.23c-16.509 0-29.892-13.383-29.892-29.892v-47.835h-31.678c-8.2 0-14.848 6.647-14.848 14.848v83.709c0 8.2 6.647 14.848 14.848 14.848h466.667c8.2 0 14.848-6.647 14.848-14.848v-20.83z" fill="#f6e2c4"/></g><g><path d="m511.361 215.367c0-12.322-10.024-22.348-22.347-22.348h-3.557v-18.519c0-9.462-7.698-17.159-17.16-17.159h-16.962c3.665-5.844 5.737-12.689 5.737-19.855v-8.525l2.274-1.868c8.882-7.296 12.419-19.528 8.802-30.437-3.594-10.842-13.279-18.347-24.676-19.119l-8.915-.604c-21.465-1.456-42.156-6.963-61.501-16.369l-29.449-14.318c-25.496-12.397-56.086-4.417-72.508 17.967-2.707-1.145-5.393-2.356-8.051-3.649l-29.449-14.318c-25.97-12.627-56.831-4.299-73.111 18.772-8.863-5.257-20.184-5.273-29.332.708l-4.318 2.822c-2.366 1.547-5.228 2.271-8.034 2.046-7.521-.614-14.787 1.784-20.477 6.729-3.977 3.457-6.821 7.856-8.327 12.761-5.227-2.31-11.035-2.67-16.565-.98-6.184 1.89-11.227 6.093-14.2 11.833l-3.854 7.438c-.55 1.062-1.296 1.986-2.218 2.748l-1.591 1.314c-5.998 4.956-9.131 12.251-8.598 20.014.534 7.762 4.637 14.559 11.25 18.644l.563.349c2.062 1.274 3.526 3.366 4.015 5.74l.032.158h-15.771c-9.462 0-17.16 7.697-17.16 17.159v18.519h-3.557c-12.322-.001-22.346 10.025-22.346 22.347v83.709c0 5.695 2.145 10.897 5.664 14.848-3.519 3.95-5.664 9.152-5.664 14.847v83.709c0 5.774 2.201 11.044 5.809 15.014v29.073c0 7.961 6.478 14.438 14.438 14.438h470.867c7.961 0 14.438-6.478 14.438-14.438v-29.073c3.607-3.97 5.809-9.24 5.809-15.014v-83.709c0-5.695-2.145-10.897-5.664-14.848 3.52-3.951 5.664-9.153 5.664-14.848zm-170.033-58.026c3.322-5.297 5.337-11.415 5.684-17.851 9.276.869 19.066 1.299 29.066 1.299 22.229 0 45.431-2.102 65.996-6.08v2.777c0 8.336-4.644 15.972-11.946 19.855zm-4.278-97.606 29.449 14.318c21.088 10.254 43.646 16.258 67.044 17.844l8.915.604c5.29.359 9.785 3.842 11.453 8.874 1.68 5.063.038 10.739-4.086 14.126l-3.523 2.896c-.033.027-.066.055-.1.083l-.061.052c-28.729 6.407-64.189 8.759-94.409 6.314 7.086-7.4 9.679-18.33 6.41-28.192-3.595-10.841-13.281-18.346-24.676-19.118l-8.916-.604c-13.198-.895-26.103-3.329-38.583-7.252 12.656-13.994 33.501-18.494 51.083-9.945zm-166.91 18.076c11.135-20.236 36.129-28.177 56.902-18.076l29.448 14.318c21.088 10.254 43.645 16.258 67.045 17.844l8.915.604c5.289.359 9.785 3.843 11.453 8.874 1.679 5.062.037 10.739-4.086 14.126l-3.523 2.896c-.033.028-.066.056-.1.084l-.061.052c-29.939 6.675-67.503 8.958-98.568 5.935-4.124-.41-7.79 2.616-8.191 6.738-.401 4.123 2.616 7.79 6.738 8.191 9.785.952 20.045 1.418 30.468 1.418 22.096 0 44.918-2.098 65.485-6.1v2.77c0 8.336-4.645 15.971-11.947 19.855h-137.832c-7.395-3.93-12.041-11.665-11.945-20.11l.053-4.719 33.819 3.554c.267.028.531.042.793.042 3.79 0 7.045-2.864 7.45-6.717.433-4.12-2.556-7.811-6.675-8.243l-37.189-3.908-1.639-4.969c-3.758-11.39-2.597-23.95 3.187-34.459zm-69.822 40.86c1.674-3.366 2.635-6.978 2.857-10.733l.614-10.39c.204-3.465 1.76-6.628 4.38-8.905 2.619-2.277 5.97-3.377 9.429-3.099 6.111.496 12.314-1.083 17.449-4.442l4.317-2.822c4.421-2.888 9.935-2.73 14.094.055-4.583 12.335-4.914 26.016-.751 38.635l2.766 8.386-.133 11.707c-.082 7.327 1.989 14.324 5.72 20.279h-27.773l-4.68-6.53c-4.441-6.195-11.32-10.334-18.864-11.353l-.817-.111c-4.14-.56-7.636-2.997-9.593-6.688-1.958-3.69-2.014-7.954-.155-11.695zm-26.82 35.49c-1.317-6.401-5.262-12.043-10.817-15.477l-.564-.349c-2.454-1.516-3.976-4.036-4.174-6.914-.198-2.879.964-5.584 3.188-7.422l1.592-1.314c2.485-2.055 4.498-4.548 5.98-7.41l3.854-7.438c1.104-2.129 2.974-3.688 5.267-4.389 2.292-.702 4.714-.454 6.819.694 1.165.635 2.386 1.155 3.638 1.585l-.078 1.325c-.102 1.729-.544 3.392-1.314 4.941l-1.142 2.295c-4.037 8.126-3.915 17.384.336 25.399s11.845 13.309 20.828 14.523l.818.111c2.474.334 4.782 1.406 6.65 3.019h-40.227zm-32.595 20.34c0-1.19.969-2.159 2.16-2.159h425.234c1.191 0 2.16.969 2.16 2.159v18.519h-429.554zm-25.903 40.866c0-4.052 3.296-7.348 7.347-7.348h84.87v98.404h-84.87c-4.051 0-7.347-3.296-7.347-7.348zm7.347 204.461c-4.051 0-7.347-3.296-7.347-7.348v-83.709c0-4.052 3.296-7.348 7.347-7.348h84.87v98.404h-84.87zm-1.538 36.178v-21.237c.509.035 1.021.059 1.538.059h141.351c4.143 0 7.5-3.357 7.5-7.5s-3.357-7.5-7.5-7.5h-41.48v-98.404h295.01c4.143 0 7.5-3.357 7.5-7.5s-3.357-7.5-7.5-7.5h-295.01v-98.404h366.798c4.051 0 7.347 3.296 7.347 7.348v83.709c0 4.052-3.296 7.348-7.347 7.348h-39.79c-4.143 0-7.5 3.357-7.5 7.5s3.357 7.5 7.5 7.5h39.79c4.051 0 7.347 3.296 7.347 7.348v83.709c0 4.052-3.296 7.348-7.347 7.348h-293.321c-4.143 0-7.5 3.357-7.5 7.5s3.357 7.5 7.5 7.5h293.319c.518 0 1.029-.024 1.538-.059v21.237h-469.743z"/><path d="m74.579 245.465h6.707c4.143 0 7.5-3.357 7.5-7.5s-3.357-7.5-7.5-7.5h-6.707c-4.143 0-7.5 3.357-7.5 7.5s3.358 7.5 7.5 7.5z"/><path d="m74.579 283.445h6.707c4.143 0 7.5-3.357 7.5-7.5s-3.357-7.5-7.5-7.5h-6.707c-4.143 0-7.5 3.357-7.5 7.5s3.358 7.5 7.5 7.5z"/><path d="m81.286 382.382h-6.707c-4.143 0-7.5 3.357-7.5 7.5s3.357 7.5 7.5 7.5h6.707c4.143 0 7.5-3.357 7.5-7.5s-3.357-7.5-7.5-7.5z"/><path d="m74.579 359.403h6.707c4.143 0 7.5-3.357 7.5-7.5s-3.357-7.5-7.5-7.5h-6.707c-4.143 0-7.5 3.357-7.5 7.5s3.358 7.5 7.5 7.5z"/></g></g></svg>