<svg id="Layer_1" height="512" viewBox="0 0 512 512" width="512" xmlns="http://www.w3.org/2000/svg" data-name="Layer 1"><path d="m426.07 363.97h33.31v71.04h-33.31z" fill="#447248"/><path d="m426.07 220.48h33.31v71.04h-33.31z" fill="#f94730"/><path d="m426.07 76.99h33.31v71.04h-33.31z" fill="#f7c365"/><circle cx="401.45" cy="112.51" fill="#ffe394" r="24.62"/><path d="m342.79 76.99h33.31v71.04h-33.31z" fill="#f94730"/><path d="m342.79 220.48h33.31v71.04h-33.31z" fill="#f7c365"/><path d="m342.79 363.97h33.31v71.04h-33.31z" fill="#f7c365"/><circle cx="318.17" cy="112.51" fill="#efe5ca" r="24.62"/><path d="m259.51 76.99h33.311v71.04h-33.311z" fill="#447248"/><path d="m259.51 220.48h33.311v71.04h-33.311z" fill="#f94730"/><path d="m259.51 363.97h33.311v71.04h-33.311z" fill="#447248"/><circle cx="234.89" cy="112.51" fill="#ea836f" r="24.62"/><path d="m176.96 363.97h33.31v71.04h-33.31z" fill="#d05458"/><path d="m176.96 220.48h33.31v71.04h-33.31z" fill="#447248"/><path d="m176.96 76.99h33.31v71.04h-33.31z" fill="#f7c365"/><path d="m54.23 380.06h74.14v38.86h-74.14z" fill="#3e5c72"/><path d="m54.23 380.06v38.86h-19.43a19.43 19.43 0 0 1 0-38.86z" fill="#ddecfc"/><path d="m54.23 236.57h74.14v38.86h-74.14z" fill="#3e5c72"/><path d="m54.23 236.57v38.86h-19.43a19.43 19.43 0 0 1 0-38.86z" fill="#ddecfc"/><path d="m54.23 93.08h74.14v38.86h-74.14z" fill="#3e5c72"/><path d="m54.23 93.08v38.86h-19.43a19.43 19.43 0 0 1 0-38.86z" fill="#ddecfc"/><circle cx="401.45" cy="256" fill="#efe5ca" r="24.62"/><circle cx="318.17" cy="256" fill="#ea836f" r="24.62"/><circle cx="234.89" cy="256" fill="#ffe394" r="24.62"/><circle cx="401.45" cy="399.49" fill="#ea836f" r="24.62"/><circle cx="318.17" cy="399.49" fill="#ffe394" r="24.62"/><circle cx="234.89" cy="399.49" fill="#efe5ca" r="24.62"/><g fill="#284268"><path d="m496.635 107h-31.635v-30.008a5.681 5.681 0 0 0 -5.62-5.992h-33.314a6.051 6.051 0 0 0 -6.066 5.992v11.236a30.59 30.59 0 0 0 -38 .571v-11.807a5.906 5.906 0 0 0 -5.9-5.992h-33.31a5.818 5.818 0 0 0 -5.79 5.992v11.236a30.579 30.579 0 0 0 -38 .577v-11.813a6.151 6.151 0 0 0 -6.181-5.992h-33.313c-3.314 0-5.506 2.679-5.506 5.992v11.236c-6-3.968-12-6.335-19-6.335a31.218 31.218 0 0 0 -19 6.335v-11.236a5.77 5.77 0 0 0 -5.731-5.992h-33.313a5.957 5.957 0 0 0 -5.956 5.992v30.008h-37v-13.92c0-3.313-2.317-6.08-5.631-6.08h-93.569a25.5 25.5 0 0 0 0 51h93.573a5.746 5.746 0 0 0 5.627-6.058v-12.942h37v29.031a5.937 5.937 0 0 0 5.956 5.969h33.313a5.751 5.751 0 0 0 5.731-5.969v-11.236a31.218 31.218 0 0 0 19 6.335c7 0 13-2.367 19-6.335v11.236c0 3.313 2.192 5.969 5.506 5.969h33.313a6.131 6.131 0 0 0 6.181-5.969v-11.813a30.579 30.579 0 0 0 38 .577v11.236a5.8 5.8 0 0 0 5.79 5.969h33.31a5.887 5.887 0 0 0 5.9-5.969v-11.807a30.59 30.59 0 0 0 38 .571v11.236a6.031 6.031 0 0 0 6.066 5.969h33.314a5.662 5.662 0 0 0 5.62-5.969v-29.031h31.635a6 6 0 0 0 0-12zm-448.635 19h-13.2a13.5 13.5 0 0 1 0-27h13.2zm74 0h-62v-27h62zm82 16h-21v-59h21zm30.888-10.87a18.619 18.619 0 1 1 18.618-18.619 18.64 18.64 0 0 1 -18.618 18.619zm52.112 10.87h-21v-59h21zm31.172-10.87a18.619 18.619 0 1 1 18.618-18.619 18.639 18.639 0 0 1 -18.618 18.619zm51.828 10.87h-21v-59h21zm31.448-10.87a18.619 18.619 0 1 1 18.618-18.619 18.64 18.64 0 0 1 -18.618 18.619zm51.552 10.87h-21v-59h21z"/><path d="m496.635 393h-31.635v-29.031a5.662 5.662 0 0 0 -5.62-5.969h-33.314a6.031 6.031 0 0 0 -6.066 5.969v11.236a30.59 30.59 0 0 0 -38 .571v-11.807a5.887 5.887 0 0 0 -5.9-5.969h-33.31a5.8 5.8 0 0 0 -5.79 5.969v11.236a30.579 30.579 0 0 0 -38 .577v-11.813a6.131 6.131 0 0 0 -6.181-5.969h-33.313c-3.314 0-5.506 2.656-5.506 5.969v11.236c-6-3.968-12-6.335-19-6.335a31.218 31.218 0 0 0 -19 6.335v-11.236a5.751 5.751 0 0 0 -5.731-5.969h-33.313a5.937 5.937 0 0 0 -5.956 5.969v29.031h-37v-12.942a5.746 5.746 0 0 0 -5.631-6.058h-93.569a25.5 25.5 0 0 0 0 51h93.573c3.314 0 5.631-2.767 5.631-6.08v-13.92h37v30.008a5.957 5.957 0 0 0 5.952 5.992h33.313a5.77 5.77 0 0 0 5.731-5.992v-11.236a31.218 31.218 0 0 0 19 6.335c7 0 13-2.367 19-6.335v11.236c0 3.313 2.192 5.992 5.506 5.992h33.313a6.151 6.151 0 0 0 6.181-5.992v-11.808a30.579 30.579 0 0 0 38 .577v11.236a5.818 5.818 0 0 0 5.79 5.987h33.31a5.906 5.906 0 0 0 5.9-5.992v-11.808a30.59 30.59 0 0 0 38 .571v11.236a6.051 6.051 0 0 0 6.066 5.993h33.314a5.681 5.681 0 0 0 5.62-5.992v-30.008h31.635a6 6 0 0 0 0-12zm-448.635 20h-13.2a13.5 13.5 0 0 1 0-27h13.2zm74 0h-62v-27h62zm82 16h-21v-59h21zm30.888-10.893a18.619 18.619 0 1 1 18.618-18.618 18.639 18.639 0 0 1 -18.618 18.618zm52.112 10.893h-21v-59h21zm31.172-10.893a18.619 18.619 0 1 1 18.618-18.618 18.639 18.639 0 0 1 -18.618 18.618zm51.828 10.893h-21v-59h21zm31.448-10.893a18.619 18.619 0 1 1 18.618-18.618 18.64 18.64 0 0 1 -18.618 18.618zm51.552 10.893h-21v-59h21z"/><path d="m496.635 250h-31.635v-29.52c0-3.313-2.307-6.48-5.62-6.48h-33.314c-3.313 0-6.066 3.167-6.066 6.48v11.237a30.59 30.59 0 0 0 -38 .571v-11.808c0-3.313-2.583-6.48-5.9-6.48h-33.31c-3.313 0-5.79 3.167-5.79 6.48v11.237a30.579 30.579 0 0 0 -38 .577v-11.814a6.584 6.584 0 0 0 -6.181-6.48h-33.313c-3.314 0-5.506 3.167-5.506 6.48v11.237c-6-3.968-12-6.335-19-6.335a31.218 31.218 0 0 0 -19 6.335v-11.237c0-3.313-2.418-6.48-5.731-6.48h-33.313c-3.313 0-5.956 3.167-5.956 6.48v29.52h-37v-13.431a5.34 5.34 0 0 0 -5.631-5.569h-93.569a25 25 0 1 0 0 50h93.573a5.34 5.34 0 0 0 5.627-5.569v-13.431h37v29.52c0 3.313 2.643 6.48 5.956 6.48h33.313c3.313 0 5.731-3.167 5.731-6.48v-11.237a31.218 31.218 0 0 0 19 6.335c7 0 13-2.367 19-6.335v11.237c0 3.313 2.192 6.48 5.506 6.48h33.313a6.584 6.584 0 0 0 6.181-6.48v-11.814a30.579 30.579 0 0 0 38 .577v11.237c0 3.313 2.477 6.48 5.79 6.48h33.31c3.313 0 5.9-3.167 5.9-6.48v-11.808a30.59 30.59 0 0 0 38 .571v11.237c0 3.313 2.753 6.48 6.066 6.48h33.314c3.313 0 5.62-3.167 5.62-6.48v-29.52h31.635a6 6 0 0 0 0-12zm-448.635 19h-13.2c-7.405 0-13.431-5.594-13.431-13s6.026-13 13.431-13h13.2zm74 0h-62v-26h62zm82 17h-21v-60h21zm30.888-11.382a18.618 18.618 0 1 1 18.618-18.618 18.639 18.639 0 0 1 -18.618 18.618zm52.112 11.382h-21v-60h21zm31.172-11.382a18.618 18.618 0 1 1 18.618-18.618 18.639 18.639 0 0 1 -18.618 18.618zm51.828 11.382h-21v-60h21zm31.448-11.382a18.618 18.618 0 1 1 18.618-18.618 18.64 18.64 0 0 1 -18.618 18.618zm51.552 11.382h-21v-60h21z"/></g></svg>