<svg id="Layer_1" enable-background="new 0 0 512 512" height="512" viewBox="0 0 512 512" width="512" xmlns="http://www.w3.org/2000/svg"><g><g><path d="m504.401 325.009s-202.791-12.891-342.169 103.845l-79.033-79.033c116.736-139.377 103.838-342.174 103.838-342.174s94.915 60.323 175.978 141.386c52.842 52.842 96.874 111.567 121.127 146.045 12.954 18.427 20.259 29.931 20.259 29.931z" fill="#ffe878"/><path d="m484.142 295.078c12.954 18.427 20.259 29.932 20.259 29.932s-202.791-12.891-342.169 103.845l-20.23-20.23c130.135-114.509 295.768-115.711 342.14-113.547z" fill="#ffd37b"/><path d="m139.597 481.838c-30.208 30.207-79.182 30.208-109.389 0-3.628-3.628-6.824-7.531-9.574-11.639-20.195-30.066-16.992-71.17 9.581-97.743s67.677-29.776 97.743-9.581c4.108 2.751 8.011 5.947 11.639 9.574 30.208 30.208 30.208 79.181 0 109.389z" fill="#ff5f85"/><path d="m139.597 481.838c-30.208 30.207-79.182 30.208-109.389 0-3.628-3.628-6.824-7.531-9.574-11.639 30.066 20.195 71.17 17.006 97.75-9.574s29.769-67.684 9.574-97.75c4.108 2.751 8.011 5.947 11.639 9.574 30.208 30.208 30.208 79.181 0 109.389z" fill="#b2527e"/></g><g><path d="m368.246 143.747c-26.886-26.885-58.084-54.323-92.731-81.55-3.256-2.561-7.971-1.995-10.531 1.263-2.56 3.257-1.994 7.972 1.263 10.531 34.178 26.861 64.928 53.899 91.392 80.365 62.816 62.816 113.606 134.819 132.469 162.765-8.963-.089-21.693.061-37.276.966-12.158-18.3-31.932-45.674-61.177-79.586-2.708-3.138-7.443-3.487-10.579-.781-3.137 2.705-3.486 7.442-.781 10.579 25.059 29.056 43.118 53.398 55.22 71.035-15.331 1.314-32.615 3.349-51.235 6.456-40.07 6.687-77.958 16.998-112.609 30.645-.815.321-1.627.644-2.439.968-9.785-14.977-26.263-37.026-51.937-62.7s-47.723-42.153-62.699-51.938c5.024-12.556 9.611-25.546 13.75-38.955 1.222-3.958-.996-8.157-4.954-9.379s-8.157.996-9.379 4.955c-3.761 12.183-7.899 24.004-12.408 35.451-4.633-2.607-7.336-3.857-7.721-4.032-3.766-1.714-8.204-.052-9.924 3.712s-.061 8.212 3.7 9.937c.097.044 2.998 1.398 8.161 4.391-2.816 6.514-5.758 12.897-8.825 19.148-5.137-2.969-8.148-4.363-8.534-4.538-3.767-1.712-8.201-.051-9.922 3.712-1.72 3.763-.062 8.211 3.698 9.937.09.041 2.903 1.356 7.888 4.281-11.925 22.248-25.516 42.678-40.701 61.157-19.899 1.255-39.437 9.469-54.61 24.641-33.083 33.085-33.083 86.918 0 120.003 16.54 16.543 38.269 24.814 59.998 24.814 21.728 0 43.457-8.271 60-24.813 2.929-2.93 2.929-7.678 0-10.608-2.93-2.928-7.678-2.928-10.608 0-27.235 27.238-71.55 27.236-98.784 0-27.235-27.235-27.235-71.551 0-98.786 27.233-27.236 71.548-27.238 98.784 0 18.6 18.599 25.159 45.727 17.117 70.796-1.266 3.945.906 8.168 4.851 9.433 3.943 1.265 8.167-.905 9.433-4.851 2.184-6.81 3.481-13.744 3.926-20.66 19.431-15.954 40.101-29.341 61.116-40.575 2.897 4.941 4.199 7.728 4.238 7.814 1.258 2.764 3.982 4.397 6.833 4.397 1.038 0 2.094-.217 3.101-.675 3.771-1.716 5.437-6.164 3.722-9.933-.175-.384-1.555-3.367-4.494-8.458 6.379-3.123 12.771-6.057 19.154-8.814 2.955 5.104 4.292 7.969 4.335 8.063 1.258 2.764 3.982 4.397 6.833 4.397 1.038 0 2.094-.217 3.101-.675 3.771-1.716 5.437-6.164 3.722-9.934-.174-.383-1.41-3.054-3.982-7.633 39.447-15.543 77.796-24.581 109.154-29.834 21.652-3.628 41.597-5.758 58.672-6.98 6.892 10.759 10.103 16.74 10.184 16.891 1.346 2.542 3.945 3.992 6.634 3.992 1.184 0 2.386-.282 3.504-.875 3.661-1.939 5.056-6.478 3.116-10.139-.259-.491-2.267-4.242-6.312-10.858 25.557-1.115 41.421-.171 41.701-.152 2.813.169 5.496-1.238 6.932-3.667 1.438-2.43 1.389-5.459-.125-7.842-.608-.956-61.7-96.547-142.425-177.274zm-199.555 270.262c-2.725-17.403-10.881-33.828-23.878-46.825-13.203-13.202-29.709-21.135-46.883-23.8 12.822-16.606 24.463-34.604 34.879-53.913 12.314 8.421 29.325 21.618 48.712 41.006 19.391 19.391 32.59 36.405 41.01 48.718-19.289 10.408-37.278 22.037-53.84 34.814zm67.296-41.773c-8.821-13.097-22.857-31.365-43.859-52.368-21-21-39.267-35.035-52.363-43.857 3.092-6.246 6.062-12.619 8.91-19.117 14.198 9.492 34.584 24.99 58.01 48.417 23.428 23.427 38.926 43.815 48.416 58.012-6.494 2.847-12.866 5.819-19.114 8.913z"/><path d="m161.432 56.772c.197.105 6.161 3.317 16.874 10.189-1.942 27.06-6.16 61.353-14.985 98.31-.962 4.03 1.524 8.076 5.553 9.038.586.14 1.172.207 1.748.207 3.392 0 6.467-2.317 7.29-5.76 8.198-34.329 12.538-66.102 14.774-92.232 28.752 19.754 75.354 55.36 131.39 111.396 11.431 11.431 22.592 23.051 33.171 34.535 1.479 1.606 3.495 2.419 5.519 2.419 1.817 0 3.639-.656 5.08-1.984 3.047-2.807 3.242-7.552.436-10.599-10.718-11.636-22.022-23.404-33.597-34.981-62.234-62.231-112.366-99.33-140.753-118.164.899-15.566 1.043-28.295.953-37.271 9.643 6.499 24.516 16.783 42.365 29.999 3.328 2.466 8.027 1.765 10.491-1.565 2.465-3.329 1.765-8.026-1.565-10.491-32.189-23.833-54.974-38.353-55.2-38.498-2.381-1.512-5.411-1.563-7.838-.125-2.43 1.435-3.847 4.114-3.67 6.929.021.333.953 16.162-.167 41.684-6.482-3.955-10.223-5.962-10.842-6.29-3.657-1.942-8.194-.545-10.136 3.114-1.941 3.658-.547 8.197 3.109 10.14z"/><path d="m333.706 79.385c.839.302 1.695.444 2.538.444 3.075 0 5.958-1.905 7.058-4.964 13.139-36.541 5.587-67.87 5.259-69.185-1-4.013-5.061-6.449-9.073-5.46-4.015.991-6.468 5.054-5.487 9.071.068.28 6.719 28.418-4.816 60.498-1.401 3.899.623 8.195 4.521 9.596z"/><path d="m432.608 178.287c1.1 3.061 3.984 4.965 7.058 4.965.843 0 1.699-.143 2.537-.444 31.952-11.488 59.991-4.936 60.493-4.816 4.018.993 8.08-1.451 9.08-5.467 1.002-4.02-1.444-8.09-5.464-9.092-1.316-.327-32.645-7.881-69.184 5.258-3.898 1.402-5.922 5.698-4.52 9.596z"/><path d="m405.923 113.571c1.919 0 3.839-.732 5.304-2.197l25.65-25.651c2.929-2.93 2.929-7.678 0-10.608-2.93-2.928-7.679-2.928-10.608 0l-25.65 25.651c-2.929 2.93-2.929 7.678 0 10.608 1.465 1.465 3.385 2.197 5.304 2.197z"/><path d="m254.453 172.278c0 4.142 3.358 7.5 7.5 7.5s7.5-3.358 7.5-7.5-3.358-7.5-7.5-7.5-7.5 3.358-7.5 7.5z"/><path d="m212.441 136.533c0 4.142 3.358 7.5 7.5 7.5s7.5-3.358 7.5-7.5-3.358-7.5-7.5-7.5-7.5 3.358-7.5 7.5z"/><path d="m294.857 209.64c0 4.142 3.358 7.5 7.5 7.5s7.5-3.358 7.5-7.5-3.358-7.5-7.5-7.5-7.5 3.358-7.5 7.5z"/><path d="m332.219 250.043c0 4.142 3.358 7.5 7.5 7.5s7.5-3.358 7.5-7.5-3.358-7.5-7.5-7.5-7.5 3.358-7.5 7.5z"/><path d="m375.462 299.557c4.142 0 7.5-3.358 7.5-7.5s-3.358-7.5-7.5-7.5-7.5 3.358-7.5 7.5 3.358 7.5 7.5 7.5z"/></g></g></svg>