<svg id="Layer_1" height="512" viewBox="0 0 512 512" width="512" xmlns="http://www.w3.org/2000/svg" data-name="Layer 1"><path d="m313.78 173.84-2.03 68.34v.23l.93.56 58.68 35.08 33.47 20.01a13.047 13.047 0 0 0 6.66 1.84h91.68v-126.06z" fill="#6d7486"/><path d="m149.95 152.32a9.27 9.27 0 0 0 -9.27 9.27v71.32a9.27 9.27 0 0 0 9.27 9.27h148.83v-89.86z" fill="#75967a"/><path d="m235.11 288.77a140.885 140.885 0 0 1 0 46.36h-55.04l-.4-.07a140.764 140.764 0 0 0 0-46.22l.4-.07z" fill="#4a5160"/><path d="m235.11 288.77h-55.04l-.4.07a143.775 143.775 0 0 0 -13.83-41.83l-2.46-4.83h55.45l2.46 4.83a143.725 143.725 0 0 1 13.82 41.76z" fill="#6d7486"/><path d="m180.07 335.13h55.04a143.855 143.855 0 0 1 -16.28 46.36h-55.45a144.016 144.016 0 0 0 16.29-46.43z" fill="#6d7486"/><path d="m8.83 182.48h131.85v26.2h-131.85z" fill="#6d7486"/><path d="m32.37 174.94h47.06v42.39h-47.06z" fill="#f3e08d"/><path d="m503.17 193.84v-20h-189.39l-2.03 68.34v.23l.93.56 19.298 11.537 1.802-60.667z" fill="#8c94a5"/><path d="m169.95 172.32h128.83v-20h-148.83a9.27 9.27 0 0 0 -9.27 9.27v71.32a9.27 9.27 0 0 0 9.27 9.27h10.73v-60.59a9.27 9.27 0 0 1 9.27-9.27z" fill="#92b797"/><path d="m298.99 212.11h-.21v30.07h50.72a9.272 9.272 0 0 0 9.28-9.27v-20.8z" fill="#797e37"/><path d="m358.78 180.81v31.3h-59.79-.21v-31.3h.21z" fill="#6b6d2d"/><path d="m349.5 152.32h-50.72v28.49h60v-19.22a9.272 9.272 0 0 0 -9.28-9.27z" fill="#797e37"/><g fill="#284268"><path d="m503.171 167.843h-138.395v-6.25a15.289 15.289 0 0 0 -15.276-15.272h-160.747v-9.812h5.126a6 6 0 1 0 0-12h-22.252a6 6 0 0 0 0 12h5.126v9.812h-26.8a15.289 15.289 0 0 0 -15.272 15.272v14.889h-49.255v-1.543a6 6 0 0 0 -6-6h-47.057a6 6 0 0 0 -6 6v1.543h-17.54a6 6 0 0 0 -6 6v26.194a6 6 0 0 0 6 6h17.54v2.652a6 6 0 0 0 6 6h47.057a6 6 0 0 0 6-6v-2.652h49.257v18.236a15.289 15.289 0 0 0 15.272 15.272h9.752l.793 1.552a137.26 137.26 0 0 1 15.056 64.671 137.735 137.735 0 0 1 -17.42 64.166 6 6 0 0 0 5.244 8.917h55.451a6 6 0 0 0 5.243-3.083 147.848 147.848 0 0 0 4.482-136.223h51.423v30.628a6 6 0 0 0 6 6h84.934.065l30.777 18.4a18.99 18.99 0 0 0 9.739 2.689h91.677a6 6 0 0 0 6-6v-126.058a6 6 0 0 0 -6-6zm-476.8 34.833h-11.542v-14.194h11.54zm47.057 8.652h-35.059v-30.389h35.057zm61.257-8.652h-49.259v-14.194h49.257zm170.093-44.355h44.722a3.276 3.276 0 0 1 3.272 3.272v13.219h-48zm0 28.491h48v19.3h-48zm0 31.3h48v14.8a3.276 3.276 0 0 1 -3.272 3.272h-44.73zm-131.678 30.072h42.06l.793 1.552a138.4 138.4 0 0 1 11.847 33.036h-43.172a150.447 150.447 0 0 0 -11.528-34.588zm42.152 127.306h-42.052a150.847 150.847 0 0 0 11.419-34.358h43.184a139 139 0 0 1 -12.551 34.358zm14.648-80.718a131.84 131.84 0 0 1 0 34.36h-43.352c.573-4.819.917-9.661 1.006-14.5a146 146 0 0 0 -1.014-19.855zm-79.949-58.588a3.276 3.276 0 0 1 -3.272-3.272v-71.319a3.276 3.276 0 0 1 3.272-3.272h142.825v77.863zm142.024 36.628v-24.628h14.7v7.743l-6.427 4.444a6 6 0 1 0 6.825 9.871l9.015-6.233a6 6 0 0 0 2.587-4.936v-5.531l32.234 19.27zm205.196 21.088h-85.677a6.974 6.974 0 0 1 -3.582-.99l-74.812-44.726h16.4a15.289 15.289 0 0 0 15.272-15.272v-53.069h132.399z"/><path d="m385.47 207.252h7.15a6 6 0 0 0 0-12h-7.15a6 6 0 0 0 0 12z"/><path d="m412.581 207.252h61.886a6 6 0 0 0 0-12h-61.886a6 6 0 0 0 0 12z"/><path d="m179.77 177.845a6 6 0 0 0 -6 6v26.815a6 6 0 0 0 12 0v-26.815a6 6 0 0 0 -6-6z"/><path d="m198.314 177.845a6 6 0 0 0 -6 6v26.815a6 6 0 0 0 12 0v-26.815a6 6 0 0 0 -6-6z"/><path d="m216.857 177.845a6 6 0 0 0 -6 6v26.815a6 6 0 0 0 12 0v-26.815a6 6 0 0 0 -6-6z"/><path d="m235.4 177.845a6 6 0 0 0 -6 6v26.815a6 6 0 1 0 12 0v-26.815a6 6 0 0 0 -6-6z"/></g></svg>