<svg id="Layer_1" height="512" viewBox="0 0 512 512" width="512" xmlns="http://www.w3.org/2000/svg" data-name="Layer 1"><path d="m466.609 125.631-272.521 272.521 21 21.08 272.561-272.561z" fill="#cde5f7"/><path d="m385.379 44.4a13.986 13.986 0 0 0 -19.791 0l-252.61 252.56a14 14 0 0 0 0 19.8l81.111 81.391 272.52-272.521z" fill="#bcdcfc"/><path d="m385.379 44.4a13.986 13.986 0 0 0 -19.791 0l-252.61 252.56a14 14 0 0 0 0 19.8l28.365 28.366a14 14 0 0 1 0-19.8l252.611-252.56a13.984 13.984 0 0 1 19.79 0z" fill="#9dc7ea"/><path d="m178.009 281.081-110.021 109.671 37.36 37.36.1.1 110.05-109.641z" fill="#3e5c72"/><path d="m105.448 428.212-35.89 35.76a26.5 26.5 0 1 1 -37.41-37.55l35.84-35.67 37.36 37.36z" fill="#d05458"/><g fill="#284268"><path d="m389.626 40.158a20.023 20.023 0 0 0 -28.282 0l-252.6 252.559a20.024 20.024 0 0 0 -.012 28.283l10.364 10.37-91.175 90.8a32.5 32.5 0 0 0 45.871 46.055l91.172-90.832 45.872 45.959a5.89 5.89 0 0 0 4.246 1.648h.006a5.894 5.894 0 0 0 4.242-1.643l272.562-272.5a5.966 5.966 0 0 0 0-8.457zm-324.304 419.563a20.558 20.558 0 0 1 -32.445-4.6 18.315 18.315 0 0 1 -1.892-4.731 20.567 20.567 0 0 1 5.4-19.724l31.594-31.445 28.979 28.979zm108.138-90.8 46.275-46.1a6 6 0 0 0 .008-8.493l-37.486-37.487a6 6 0 0 0 -8.479-.006l-13.178 13.139a6 6 0 0 0 -.006 8.491 6 6 0 0 0 8.478.006l8.933-8.908 29 29-101.546 101.17-28.973-28.973 64.268-64.044a6 6 0 0 0 -8.474-8.5l-4.687 4.675-10.372-10.379a8.009 8.009 0 0 1 0-11.312l252.6-252.56a8.01 8.01 0 0 1 11.314 0l76.988 76.989-264.017 264.027zm41.637 41.81-12.524-12.575 264.042-264.039 12.549 12.55z"/><path d="m220.939 260.056a6 6 0 0 0 -8.5 8.469l12.471 12.519a6 6 0 1 0 8.5-8.468z"/><path d="m252.1 228.9a6 6 0 1 0 -8.5 8.468l12.471 12.52a6 6 0 0 0 8.5-8.469z"/><path d="m283.263 197.733a6 6 0 1 0 -8.5 8.469l12.471 12.519a6 6 0 1 0 8.5-8.469z"/><path d="m314.424 166.571a6 6 0 0 0 -8.5 8.469l12.472 12.52a6 6 0 0 0 8.5-8.469z"/><path d="m345.586 135.41a6 6 0 1 0 -8.5 8.468l12.472 12.52a6 6 0 1 0 8.5-8.469z"/><path d="m389.219 116.768-12.472-12.52a6 6 0 1 0 -8.5 8.469l12.472 12.519a6 6 0 1 0 8.5-8.468z"/><path d="m278.753 175.327 44.547-44.542a6 6 0 0 0 -8.484-8.486l-44.542 44.542a6 6 0 1 0 8.484 8.486z"/><path d="m353.793 99.43a6 6 0 1 0 -8.484-8.486l-15.284 15.284a6 6 0 0 0 8.485 8.485z"/><path d="m373.021 80.2a6 6 0 0 0 -8.484-8.487l-3.4 3.4a6 6 0 0 0 8.484 8.487z"/><path d="m175.981 322.876-2.421-2.43c-.009.009-.02.015-.029.023z"/><path d="m174.743 332h.02a10.336 10.336 0 0 0 7.237-3.041v-.024a10.268 10.268 0 0 0 -14.484-14.559 10.188 10.188 0 0 0 -3.018 7.249 10.346 10.346 0 0 0 10.245 10.375zm-1.207-11.589.03.03a1.721 1.721 0 0 1 1.2-.441 1.657 1.657 0 0 1 1.733 1.667 1.72 1.72 0 0 1 -.512 1.215l-.006-.006a1.736 1.736 0 0 1 -2.445-2.465z"/></g></svg>