<svg id="Layer_1" enable-background="new 0 0 512 512" height="512" viewBox="0 0 512 512" width="512" xmlns="http://www.w3.org/2000/svg"><g><g><path d="m488.5 240.4c0 35.9-8.1 69.89-22.58 100.26h-.01c-16.12 33.82-40.14 63.13-69.68 85.53h-280.46c-17.84-13.53-33.67-29.58-46.95-47.62h-.01c-28.48-38.65-45.31-86.44-45.31-138.17 0-116.11 84.81-212.37 195.77-230.01 11.97-1.9 24.23-2.89 36.73-2.89 128.41 0 232.5 104.27 232.5 232.9z" fill="#d2e1f9"/><path d="m488.5 240.4c0 35.9-8.1 69.89-22.58 100.26h-.01c-16.12 33.82-40.14 63.13-69.68 85.53h-34.52c56.78-41.94 93.61-109.36 93.61-185.37 0-127.2-103.12-230.32-230.32-230.32-2.11 0-4.02-.04-5.73-.11 11.97-1.9 24.23-2.89 36.73-2.89 128.41 0 232.5 104.27 232.5 232.9z" fill="#bdcde5"/><path d="m352.77 184.73-21.1-17.97-29.57-25.18s-1.47-13.35 0-32.93c0 0 12.14-2.93 27.95-2.69 6.99.1 14.69.82 22.39 2.69 3.84 38.04.33 76.08.33 76.08z" fill="#e2a67d"/><path d="m352.77 184.73-21.1-17.97c-.57-27.85-1.2-48.51-1.62-60.8 6.99.1 14.69.82 22.39 2.69 3.84 38.04.33 76.08.33 76.08z" fill="#d18766"/><path d="m371.7 201.68s0 89.95-6.48 169.01l-26.47-3.08-191.66-22.32c-6.48-69.32-6.48-143.61-6.48-143.61 28.82-26.71 70.44-63.08 115.39-95.29 32.09 22.99 62.49 48.11 87.73 70.32 10.19 8.96 19.54 17.44 27.82 25.12z" fill="#ff5f85"/><path d="m371.7 201.68s0 89.95-6.48 169.01l-26.47-3.08c4.25-76.69 4.91-158.84 4.98-190.9 10.19 8.96 19.54 17.44 27.82 25.12z" fill="#b2527e"/><path d="m465.91 340.66c-16.12 33.82-40.14 63.13-69.68 85.53h-280.46c-17.84-13.53-33.67-29.58-46.95-47.62 0 0 47.81-49.84 137.11-28.99 69.31 16.18 90.68 21.93 135.5 21.93 33.89 0 59.85-4.67 80.53-11.22 18.12-5.73 32.18-12.9 43.95-19.63z" fill="#dcf8ff"/><path d="m419.69 496.67s-12.01 1.16-31.47 2.57c-31.19 2.29-81.53 5.26-132.22 5.26-82.3 0-163.69-7.83-163.69-7.83 8.6-46.46 23.46-70.48 23.46-70.48s66.27-3 140.23-3c42.75 0 82.94 1 109.23 1.85 19.2.62 31 1.15 31 1.15s14.86 24.02 23.46 70.48z" fill="#58768c"/><path d="m419.69 496.67s-12.01 1.16-31.47 2.57c-7.17-33.92-17.25-60.55-22.99-74.2 19.2.62 31 1.15 31 1.15s14.86 24.02 23.46 70.48z" fill="#3e5868"/><path d="m300.066 214.58s-43.91-4.887-87.821 0c0 0-4.879 43.987 0 87.973 43.91 4.887 87.821 0 87.821 0 4.878-43.986 0-87.973 0-87.973z" fill="#ffe878"/><path d="m465.91 340.66c-16.12 33.82-40.14 63.13-69.68 85.53h-34.52c24.11-17.8 44.62-40.2 60.25-65.9 18.12-5.73 32.18-12.9 43.95-19.63z" fill="#d2e1f9"/></g><g><circle cx="89.703" cy="176.259" r="7.5"/><circle cx="78.763" cy="302.599" r="7.5"/><circle cx="125.663" cy="116.739" r="7.5"/><circle cx="178.303" cy="116.739" r="7.5"/><circle cx="215.823" cy="56.699" r="7.5"/><circle cx="292.173" cy="66.879" r="7.5"/><circle cx="396.933" cy="131.879" r="7.5"/><circle cx="436.793" cy="173.339" r="7.5"/><circle cx="436.793" cy="302.599" r="7.5"/><path d="m470.075 349.195c17.202-33.899 25.925-70.502 25.925-108.791 0-64.555-25.191-125.152-70.934-170.63-2.938-2.921-7.686-2.905-10.607.03-2.92 2.938-2.906 7.687.031 10.606 42.89 42.642 66.51 99.462 66.51 159.993 0 33.428-7.171 65.605-20.649 94.792-20.617 11.593-46.851 23.164-86.962 27.257.674-8.946 1.298-18.354 1.862-28.079.24-4.136-2.918-7.682-7.053-7.922-4.13-.254-7.682 2.917-7.922 7.053-.607 10.467-1.284 20.558-2.018 30.09-5.379.269-10.984.411-16.831.411-41.013 0-61.105-4.707-120.75-18.678l-13.045-3.053c-19.982-4.666-37.956-5.86-53.728-4.986-5.005-57.812-5.683-117.79-5.774-132.312 27.64-25.486 66.282-59.147 107.87-89.342 41.732 30.3 80.516 64.108 108.185 89.635-.055 11.439-.367 48.808-2.145 92.309-.169 4.139 3.049 7.631 7.188 7.801.104.004.208.006.312.006 4.001 0 7.324-3.159 7.488-7.193 1.324-32.402 1.84-61.432 2.041-78.996 16.637 15.79 26.632 26.049 26.897 26.322 2.884 2.973 7.632 3.044 10.605.16 2.973-2.885 3.044-7.632.16-10.605-.398-.41-22.535-23.137-56.186-53.403.782-10.625 2.568-41.957-.641-73.773-.319-3.166-2.602-5.785-5.693-6.535-26.562-6.446-52.763-.268-53.866-.003-3.164.764-5.475 3.481-5.719 6.728-.495 6.572-.67 12.461-.679 17.43-10.888-8.54-22.134-17.026-33.578-25.226-2.611-1.871-6.125-1.871-8.736 0-83.015 59.48-155.639 134.035-156.363 134.781-2.884 2.974-2.813 7.722.161 10.605 1.457 1.414 3.34 2.117 5.222 2.117 1.957 0 3.913-.762 5.383-2.277.267-.275 10.398-10.677 27.248-26.658.383 24.883 1.631 73.102 5.693 119.926-15.383 2.249-28.142 6.356-38.032 10.573-14.43 6.152-24.792 13.293-30.929 18.184-25.245-36.892-39.016-80.813-39.016-127.138 0-44.845 13.109-88.158 37.912-125.26 2.302-3.443 1.376-8.102-2.067-10.403-3.443-2.302-8.101-1.377-10.403 2.067-26.458 39.578-40.442 85.774-40.442 133.596 0 38.289 8.723 74.892 25.925 108.791 15.434 30.412 37.561 57.607 64.223 79.001-5.04 10.011-14.808 32.527-21.208 67.108-.383 2.067.12 4.201 1.386 5.88 1.265 1.679 3.178 2.749 5.271 2.951.817.079 82.69 7.865 164.403 7.865 81.714 0 163.587-7.786 164.404-7.864 2.093-.202 4.005-1.272 5.271-2.951 1.265-1.679 1.768-3.813 1.386-5.88-6.4-34.582-16.169-57.097-21.209-67.108 26.663-21.394 48.79-48.589 64.223-79.002zm-160.85-234.252c7.438-1.166 21.618-2.632 36.254-.083 1.708 20.655 1.35 40.912.763 54.114-11.424-10.004-23.835-20.548-36.923-31.182-.272-4.121-.618-12.279-.094-22.849zm84.603 303.638c-13.299-.557-72.955-2.892-137.828-2.892-13.561 0-27.83.103-42.413.304-4.142.057-7.453 3.461-7.396 7.603s3.446 7.425 7.603 7.396c14.514-.2 28.714-.302 42.206-.302 62.429 0 120.002 2.172 135.703 2.816 3.793 7.319 12.613 26.422 19 56.436-22.718 1.943-88.78 7.058-154.703 7.058s-131.985-5.115-154.702-7.059c6.388-30.023 15.212-49.128 19-56.437 8.251-.339 28.058-1.103 53.884-1.743 4.141-.104 7.415-3.543 7.312-7.685-.101-4.077-3.438-7.313-7.494-7.313-.063 0-.126.001-.189.002-27.64.687-48.435 1.513-55.637 1.815-14.835-11.525-27.973-24.606-39.26-38.931 5.269-4.249 14.91-11.038 28.611-16.787 29.015-12.173 61.549-14.186 96.697-5.979l13.035 3.05c59.253 13.88 81.424 19.073 124.171 19.073 48.542 0 81.437-9.294 106.527-20.665-14.011 22.807-32.218 43.219-54.127 60.24z"/><path d="m80.669 87.257c1.444 1.342 3.276 2.006 5.103 2.006 2.012 0 4.019-.805 5.497-2.395 42.436-45.674 102.478-71.868 164.731-71.868 47.432 0 92.791 14.609 131.174 42.247 3.36 2.422 8.047 1.658 10.469-1.703 2.42-3.361 1.658-8.049-1.704-10.469-40.952-29.488-89.342-45.075-139.939-45.075-33.919 0-66.708 6.947-97.455 20.648-29.698 13.233-56.03 32.077-78.266 56.009-2.819 3.035-2.644 7.781.39 10.6z"/><path d="m300.896 207.127c-1.827-.203-45.25-4.924-89.48 0-3.486.389-6.238 3.141-6.625 6.627-.203 1.83-4.914 45.323 0 89.627.387 3.486 3.138 6.238 6.625 6.627 15.053 1.676 30.007 2.234 43.266 2.234 25.698 0 45.009-2.101 46.214-2.234 3.486-.388 6.238-3.141 6.625-6.627 4.914-44.304.203-87.797 0-89.627-.388-3.486-3.139-6.239-6.625-6.627zm-52.241 90.051c-9.385-.119-19.435-.546-29.563-1.47-.944-10.385-1.368-20.688-1.475-30.279 10.641-.918 21.194-1.337 31.038-1.449zm0-48.224c-9.781.115-20.28.527-30.962 1.413.261-12.552.955-22.853 1.454-28.946 10.109-.921 20.14-1.346 29.508-1.465zm15-28.943c12.794.249 23.312.957 29.513 1.465.499 6.109 1.192 16.406 1.451 28.944-6.973-.533-17.871-1.199-30.964-1.423zm29.568 75.642c-6.194.509-16.736 1.221-29.568 1.47v-33.091c13.398.24 24.447.941 31.038 1.454-.108 9.558-.531 19.822-1.47 30.167z"/></g></g></svg>