<svg id="Capa_1" enable-background="new 0 0 511.022 511.022" height="512" viewBox="0 0 511.022 511.022" width="512" xmlns="http://www.w3.org/2000/svg"><g><g><circle cx="255.511" cy="255.511" fill="#f7d8a4" r="248.011"/><path d="m60.858 254.511c0-126.324 94.43-230.608 216.561-246.057-7.225-.633-14.519-.954-21.908-.954-136.973 0-248.011 111.039-248.011 248.011s111.038 248.011 248.011 248.011c10.649 0 21.126-.665 31.421-1.968-126.702-11.099-226.074-117.459-226.074-247.043z" fill="#f5cd8b"/><g><circle cx="255.511" cy="255.511" fill="#f8deb6" r="209.728"/><path d="m121.05 416.472c-37.513-43.451-60.191-100.05-60.191-161.961 0-58.54 20.262-112.317 54.183-154.738-42.544 38.384-69.258 93.927-69.258 155.738 0 64.667 29.254 122.489 75.266 160.961z" fill="#f7d8a4"/><g id="XMLID_220_"><g><circle cx="255.511" cy="255.511" fill="#f5cd8b" r="179.73"/></g></g><circle cx="322.301" cy="214.763" fill="#f8f7f8" r="72.171"/><path d="m337.318 285.354c2.135-.453 4.24-.988 6.302-1.624-10.447-21.805-28.764-39.138-51.244-48.329-7.082-2.895-11.775-9.729-12.121-17.372-.049-1.083-.074-2.172-.074-3.267 0-34.705 24.517-63.694 57.162-70.609-4.848-1.027-9.887-1.561-15.04-1.561-39.859 0-72.171 32.312-72.171 72.17 0 39.859 32.312 72.171 72.171 72.171 5.153 0 10.177-.55 15.024-1.577-.004-.001-.007-.002-.011-.003h.002z" fill="#efedee"/><circle cx="195.386" cy="214.763" fill="#f8f7f8" r="72.341"/><path d="m152.424 214.763c0-34.919 24.738-64.067 57.648-70.855-4.744-.979-9.652-1.486-14.686-1.486-39.953 0-72.341 32.388-72.341 72.341s32.388 72.341 72.341 72.341c5.033 0 9.946-.517 14.69-1.495-32.91-6.788-57.652-35.926-57.652-70.846z" fill="#efedee"/><circle cx="255.547" cy="325.756" fill="#f8f7f8" r="77.595"/><path d="m214.768 331.867c0-40.827 31.544-74.277 71.582-77.352-9.443-4.088-19.858-6.355-30.803-6.355-42.855 0-77.595 34.741-77.595 77.595s34.741 77.595 77.595 77.595c2.028 0 4.037-.082 6.026-.235-27.531-11.918-46.805-39.338-46.805-71.248z" fill="#efedee"/></g></g><g><path d="m409.114 101.909c-41.029-41.029-95.58-63.625-153.603-63.625s-112.574 22.596-153.603 63.625c-41.029 41.028-63.625 95.579-63.625 153.603s22.596 112.574 63.625 153.603 95.58 63.625 153.603 63.625c51.126 0 100.795-18.121 139.858-51.024 3.168-2.669 3.573-7.4.905-10.568-2.669-3.167-7.399-3.572-10.568-.904-36.363 30.629-82.6 47.497-130.195 47.497-111.509 0-202.228-90.719-202.228-202.228s90.719-202.229 202.228-202.229 202.228 90.719 202.228 202.228c0 49.014-17.766 96.298-50.025 133.144-2.729 3.116-2.414 7.854.703 10.583 3.116 2.729 7.854 2.414 10.583-.702 34.654-39.581 53.739-90.375 53.739-143.024 0-58.025-22.596-112.576-63.625-153.604z"/><path d="m436.185 74.837c-48.26-48.258-112.424-74.837-180.674-74.837s-132.414 26.579-180.674 74.837c-48.259 48.26-74.837 112.425-74.837 180.674s26.578 132.414 74.837 180.674c48.26 48.259 112.424 74.837 180.674 74.837s132.414-26.578 180.674-74.837c48.26-48.26 74.837-112.425 74.837-180.674s-26.577-132.414-74.837-180.674zm-10.607 350.741c-45.426 45.427-105.824 70.444-170.067 70.444s-124.641-25.018-170.067-70.444-70.444-105.824-70.444-170.067 25.018-124.64 70.444-170.066c45.427-45.427 105.825-70.445 170.067-70.445s124.641 25.018 170.067 70.444c45.427 45.426 70.444 105.823 70.444 170.066s-25.017 124.642-70.444 170.068z"/><path d="m255.511 68.284c-103.238 0-187.228 83.99-187.228 187.228s83.99 187.228 187.228 187.228 187.228-83.99 187.228-187.228-83.99-187.228-187.228-187.228zm96.705 329.67-28.45-28.449c4.072-6.702 7.176-14.052 9.139-21.851l36.728 36.728c-5.505 4.88-11.319 9.419-17.417 13.572zm-34.172 18.031-20.191-20.192c6.248-3.929 11.923-8.687 16.851-14.138l24.394 24.393c-6.755 3.765-13.783 7.094-21.054 9.937zm-41.711 10.492-18.522-18.522c9.086-.263 17.796-2.04 25.883-5.106l18.466 18.467c-8.37 2.357-16.997 4.092-25.827 5.161zm-100.655-100.654-91.132-91.133c1.069-8.83 2.803-17.457 5.161-25.827l29.361 29.361c8.91 28.927 33.843 50.892 64.393 55.488-4.803 10-7.458 20.889-7.783 32.111zm-70.704-153.898 15.421 15.421c-3.001 8.183-4.677 16.995-4.819 26.172l-20.539-20.539c2.843-7.271 6.172-14.3 9.937-21.054zm21.667-30.536 14.685 14.685c-5.406 4.984-10.126 10.699-13.996 16.994l-14.261-14.261c4.153-6.098 8.691-11.912 13.572-17.418zm27.316-24.887 21.062 21.062c-7.736 2.042-15.011 5.223-21.645 9.345l-16.311-16.312c5.32-5.046 10.966-9.752 16.894-14.095zm33.162-19.041 48.224 48.223c-11.761-6.829-25.404-10.762-39.956-10.762-.587 0-1.167.032-1.751.044l-26.955-26.955c6.541-3.954 13.368-7.479 20.438-10.55zm8.267 182.144c-35.753 0-64.841-29.088-64.841-64.842 0-35.753 29.088-64.841 64.841-64.841s64.841 29.088 64.841 64.841c.001 35.754-29.087 64.842-64.841 64.842zm72.897-97.347c11.781-19.115 32.606-30.846 55.215-30.846 35.753 0 64.841 29.088 64.841 64.842 0 35.753-29.088 64.841-64.841 64.841-23.233 0-44.35-12.228-55.976-32.145 4.934-10.369 7.705-21.959 7.705-34.186.001-11.574-2.495-22.569-6.944-32.506zm102.156 98.523 43.123 43.123c-3.071 7.069-6.596 13.897-10.551 20.439l-52.845-52.844c7.305-2.598 14.119-6.229 20.273-10.718zm11.259-9.955c5.073-5.407 9.398-11.516 12.822-18.168l30.919 30.92c-1.405 8.537-3.44 16.864-6.056 24.933zm18.777-33.426c1.854-6.74 2.864-13.825 2.864-21.146 0-2.472-.129-4.914-.35-7.329l23.148 23.149c1.048 7.667 1.601 15.488 1.601 23.438 0 2.993-.078 5.968-.229 8.923zm19.657-32.546-26.251-26.251c-7.447-13.865-18.869-25.287-32.734-32.734l-54.978-54.979c54.298 16.743 97.221 59.666 113.963 113.964zm-141.182-119.969 51.877 51.876c-2.415-.221-4.856-.35-7.328-.35-7.255 0-14.357.99-21.154 2.857l-22.537-22.537c-2.929-2.928-7.678-2.928-10.606 0-2.929 2.93-2.929 7.678 0 10.607l17.869 17.869c-6.61 3.391-12.732 7.699-18.179 12.81l-66.378-66.378c8.069-2.616 16.396-4.65 24.934-6.056l19.154 19.154c1.464 1.464 3.384 2.196 5.303 2.196s3.839-.732 5.303-2.196c2.929-2.93 2.929-7.678 0-10.607l-10.616-10.616c2.955-.152 5.93-.229 8.923-.229 7.946-.001 15.768.552 23.435 1.6zm-183.555 234.072 96.672 96.671c-44.018-17.503-79.169-52.654-96.672-96.671zm126.739 105.524-135.592-135.592c-2.13-10.802-3.258-21.96-3.258-33.378 0-.287.009-.572.011-.858l95.37 95.37c2.528 8.899 6.612 17.325 12.159 24.974 1.467 2.023 3.756 3.098 6.078 3.098 1.526 0 3.067-.465 4.397-1.43 3.353-2.433 4.099-7.122 1.667-10.475-8.066-11.12-12.329-24.266-12.329-38.017 0-11.991 3.272-23.57 9.474-33.72 23.928-1.404 45.051-13.391 58.755-31.34 12.507 17.31 31.316 28.811 52.405 32.042 5.923 9.98 9.048 21.324 9.048 33.019 0 35.753-29.088 64.841-64.841 64.841-10.814 0-21.518-2.715-30.953-7.851-3.638-1.981-8.193-.638-10.173 3.001s-.636 8.193 3.001 10.173c5.152 2.805 10.61 5.021 16.248 6.622l22.769 22.768c-.287.001-.571.011-.858.011-11.418 0-22.576-1.128-33.378-3.258zm158.29-50.522-45.122-45.122c.002-.222.017-.441.017-.663 0-11.207-2.336-22.152-6.809-32.253 1.498-.093 2.983-.232 4.457-.407l61.552 61.552c-4.341 5.927-9.047 11.573-14.095 16.893z"/><path d="m212.303 223.98h-3.425c-4.142 0-7.5 3.357-7.5 7.5s3.358 7.5 7.5 7.5h3.425c4.142 0 7.5-3.357 7.5-7.5s-3.358-7.5-7.5-7.5z"/><path d="m330.033 238.98h3.425c4.142 0 7.5-3.357 7.5-7.5s-3.358-7.5-7.5-7.5h-3.425c-4.142 0-7.5 3.357-7.5 7.5s3.358 7.5 7.5 7.5z"/><path d="m271.87 359.255h3.425c4.142 0 7.5-3.357 7.5-7.5s-3.358-7.5-7.5-7.5h-3.425c-4.142 0-7.5 3.357-7.5 7.5s3.358 7.5 7.5 7.5z"/></g></g></svg>