<svg id="Capa_1" enable-background="new 0 0 511.023 511.023" height="512" viewBox="0 0 511.023 511.023" width="512" xmlns="http://www.w3.org/2000/svg"><g><g><circle cx="252.619" cy="255.512" fill="#f7d8a4" r="248.011"/><path d="m57.966 254.512c0-126.324 94.449-230.606 216.579-246.055-7.224-.633-14.537-.957-21.926-.957-136.973 0-248.011 111.039-248.011 248.012s111.038 248.011 248.011 248.011c10.649 0 21.128-.665 31.423-1.968-126.702-11.099-226.076-117.46-226.076-247.043z" fill="#f5cd8b"/><circle cx="252.619" cy="255.512" fill="#f8deb6" r="209.728"/><path d="m118.157 416.473c-37.513-43.451-60.191-100.05-60.191-161.961 0-58.54 20.262-112.317 54.183-154.738-42.543 38.383-69.258 93.926-69.258 155.738 0 64.667 29.255 122.489 75.266 160.961z" fill="#f7d8a4"/><g id="XMLID_222_"><g><circle cx="252.619" cy="255.512" fill="#f5cd8b" r="179.73"/></g></g><g><g><g><g id="XMLID_223_"><g><path d="m222.832 150.582c29.68 0 53.38 24.74 52.11 54.39l-4.79 111.64c-1.2 27.91-24.17 49.91-52.11 49.91h-41.71c-27.93 0-50.91-22-52.11-49.91l-4.79-111.64c-1.27-29.65 22.43-54.39 52.11-54.39z" fill="#daeecc"/></g></g><path d="m162.669 318.402-5.399-120.929c-.845-18.958 8.121-36.058 22.487-46.892h-8.215c-29.68 0-53.38 24.74-52.11 54.39l4.79 111.64c1.2 27.91 24.18 49.91 52.11 49.91h18.836c-18.536-8.898-31.551-26.929-32.499-48.119z" fill="#c9e7b4"/><g id="XMLID_224_"><g><path d="m375.471 175.75c26.465 13.436 36.397 46.225 21.842 72.088l-54.811 97.377c-13.705 24.343-44.146 33.561-69.059 20.913l-37.191-18.882c-24.904-12.644-35.435-42.664-23.87-68.093l46.269-101.714c12.29-27.013 44.622-38.343 71.087-24.907z" fill="#daeecc"/></g></g><path d="m258.651 177.438-46.268 101.714c-11.565 25.43-1.034 55.449 23.87 68.093l33.832 17.177c11.769-12.236 19.262-28.655 20.049-46.953l4.791-111.642c.812-18.988-5.885-36.781-17.574-50.299-7.898 5.21-14.481 12.635-18.7 21.91z" fill="#c9e7b4"/><path d="m383.022 180.425-12.736-3.526-39.054.306-17.225 40.282c-3.397 25.136-11.471 49.522-23.934 71.86l-39.525 65.156 22.895 11.624c24.913 12.648 55.354 3.43 69.059-20.913l54.811-97.377c13.072-23.228 6.389-52.057-14.291-67.412z" fill="#dff0d3"/><path d="m291.449 286.812c-.456.846-.907 1.695-1.375 2.535l-39.525 65.156 10.81 5.488 8.727 4.431c11.769-12.236 19.262-28.655 20.049-46.953z" fill="#daeecc"/><path d="m383.018 180.416s-52.619 19.565-69.01 37.071c1.64-12.132 2.194-24.445 1.617-36.783l-1.262-33.19c5.218.833 10.399 2.49 15.375 5.017l45.733 23.219c2.693 1.367 5.21 2.93 7.547 4.666z" fill="#c9e7b4"/><path d="m231.682 151.332-12.952 2.622-34.684 17.952 2.877 43.716c8.35 23.95 12.19 49.35 11.19 74.91l-2.95 75.99h22.88c27.94 0 50.91-22 52.11-49.91l4.79-111.64c1.139-26.63-17.871-49.31-43.261-53.64z" fill="#dff0d3"/><path d="m231.673 151.326s-38.062 41.266-44.752 64.296c-4.03-11.56-9.11-22.79-15.21-33.53l-16.15-29.023c5.03-1.62 10.4-2.487 15.98-2.487h51.29c3.021 0 5.972.254 8.842.744z" fill="#c9e7b4"/></g></g></g><path d="m171.542 150.582c-5.58 0-10.95.867-15.98 2.487l8.57 15.4c3.869-6.951 9.206-13.046 15.626-17.887z" fill="#b8de9c"/></g><g><path d="m154.1 231.081h-6.088c-4.142 0-7.5 3.357-7.5 7.5s3.358 7.5 7.5 7.5h6.088c4.142 0 7.5-3.357 7.5-7.5s-3.358-7.5-7.5-7.5z"/><path d="m375.346 74.317c-35.574-23.573-77.012-36.033-119.834-36.033-58.023 0-112.574 22.596-153.603 63.625-41.029 41.028-63.625 95.579-63.625 153.603s22.596 112.574 63.625 153.603 95.58 63.625 153.603 63.625 112.574-22.596 153.603-63.625c41.029-41.028 63.625-95.579 63.625-153.603 0-61.116-25.965-119.746-71.239-160.858-3.066-2.784-7.81-2.556-10.594.511s-2.556 7.81.51 10.595c42.149 38.274 66.323 92.857 66.323 149.753 0 111.509-90.719 202.228-202.228 202.228s-202.228-90.72-202.228-202.229 90.719-202.228 202.228-202.228c39.866 0 78.439 11.597 111.548 33.537 3.453 2.288 8.107 1.345 10.395-2.109 2.288-3.452 1.343-8.107-2.109-10.395z"/><path d="m436.186 74.838c-48.26-48.26-112.425-74.838-180.674-74.838s-132.414 26.578-180.674 74.838-74.838 112.425-74.838 180.674c0 26.253 3.978 52.164 11.824 77.014 1.247 3.95 5.458 6.142 9.41 4.895 3.95-1.247 6.141-5.461 4.894-9.41-7.383-23.389-11.128-47.781-11.128-72.499 0-64.243 25.018-124.641 70.444-170.067 45.427-45.427 105.825-70.445 170.068-70.445s124.641 25.018 170.067 70.444c45.427 45.427 70.444 105.824 70.444 170.067s-25.018 124.641-70.444 170.067c-45.426 45.427-105.824 70.444-170.067 70.444-46.699 0-91.979-13.398-130.944-38.746-37.971-24.701-68.124-59.411-87.198-100.379-1.749-3.754-6.209-5.385-9.965-3.633-3.755 1.748-5.382 6.209-3.634 9.965 20.262 43.517 52.288 80.386 92.617 106.621 41.405 26.935 89.514 41.172 139.124 41.172 68.25 0 132.414-26.578 180.674-74.838s74.837-112.425 74.837-180.674-26.578-132.412-74.837-180.672z"/><path d="m68.284 255.512c0 103.237 83.99 187.228 187.228 187.228s187.228-83.99 187.228-187.228-83.99-187.228-187.228-187.228-187.228 83.99-187.228 187.228zm210.666-170.626 65.685 65.685-7.287-3.926c-10.91-5.879-22.891-7.998-34.423-6.795l-56.336-56.337c2.956-.152 5.93-.229 8.923-.229 7.949 0 15.771.554 23.438 1.602zm148.789 170.626c0 2.993-.078 5.967-.229 8.923l-18.158-18.159c3.52-8.449 5.021-17.49 4.419-26.57l12.368 12.368c1.047 7.666 1.6 15.488 1.6 23.438zm-75.522 142.442-26.236-26.236c6.35-3.522 12.112-8.244 16.929-14.06l26.724 26.724c-5.505 4.881-11.319 9.419-17.417 13.572zm-34.173 18.032-39.897-39.897c6.214 2.091 12.606 3.111 18.938 3.111 4.591 0 9.149-.537 13.585-1.577l28.427 28.427c-6.753 3.764-13.782 7.093-21.053 9.936zm-141.713-56.96c-14.433 0-27.268-6.802-35.434-17.436h20.451c4.142 0 7.5-3.357 7.5-7.5s-3.358-7.5-7.5-7.5h-27.975c-.928-3.291-1.501-6.737-1.654-10.303l-.357-8.328h37.235c4.142 0 7.5-3.357 7.5-7.5s-3.358-7.5-7.5-7.5h-37.879l-.911-21.218h21.249c4.142 0 7.5-3.357 7.5-7.5s-3.358-7.5-7.5-7.5h-21.893l-1.9-44.268h23.358c4.142 0 7.5-3.357 7.5-7.5s-3.358-7.5-7.5-7.5h-23.43c.533-4.605 1.777-9.05 3.678-13.219.161-.293.302-.594.421-.903 2.017-4.17 4.695-8.05 8.005-11.506 3.723-3.886 8.012-7.008 12.689-9.289l13.203 23.238c18.062 31.792 26.858 67.907 25.435 104.442l-2.678 68.789h-11.613zm-93.047-103.514c0-.287.009-.572.011-.858l32.144 32.144 1.293 30.133c.033.773.093 1.539.155 2.304l-30.345-30.345c-2.13-10.803-3.258-21.961-3.258-33.378zm21.691-83.587 10.458 10.458c-2.619 7.225-3.833 14.968-3.492 22.912l.206 4.792-17.109-17.108c2.843-7.271 6.171-14.3 9.937-21.054zm21.666-30.535 11.742 11.742c-3.55 2.387-6.88 5.166-9.92 8.339-2.111 2.203-4.03 4.536-5.755 6.977l-9.639-9.64c4.153-6.099 8.692-11.913 13.572-17.418zm27.316-24.887 26.581 26.581h-8.999c-6.551 0-12.917 1.056-18.932 3.058l-15.544-15.544c5.321-5.047 10.966-9.753 16.894-14.095zm33.162-19.042 46.624 46.624c-.216-.04-.432-.078-.649-.115-.039-.008-.077-.014-.116-.021-3.316-.562-6.703-.866-10.143-.866h-21.082l-35.072-35.072c6.541-3.953 13.369-7.479 20.438-10.55zm40.326-11.878 58.569 58.57c-6.853 2.862-13.199 7.016-18.647 12.343l-64.857-64.857c8.071-2.616 16.398-4.65 24.935-6.056zm151.604 183.482-15.732-8.475c-3.646-1.966-8.196-.603-10.16 3.046-1.964 3.646-.601 8.195 3.046 10.159l15.166 8.17-5.46 9.169-26.86-14.471c-3.645-1.964-8.194-.601-10.16 3.045-1.965 3.647-.601 8.195 3.045 10.16l26.294 14.166-10.865 18.248-33.019-17.789c-3.646-1.963-8.195-.601-10.16 3.045-1.964 3.647-.601 8.196 3.046 10.16l32.453 17.483-4.265 7.162c-1.826 3.067-3.965 5.83-6.343 8.287l-23.172-12.484c-3.646-1.963-8.195-.601-10.16 3.045-1.965 3.647-.601 8.195 3.045 10.16l16.548 8.916c-12.232 5.489-26.758 5.39-39.465-1.456l-11.847-6.383c5.508-6.656 9.599-14.539 11.807-23.216l21.445-36.344c7.658-12.979 13.86-26.667 18.555-40.823l17.273 9.305c1.131.609 2.35.898 3.551.898 2.669 0 5.254-1.429 6.609-3.943 1.964-3.647.601-8.196-3.046-10.16l-20.094-10.825c1.326-5.25 2.455-10.55 3.373-15.892 15.561-15.196 34.977-25.553 56.321-29.976l4.531-.939c6.156 5.597 10.622 12.821 12.905 21.075 3.07 11.099 1.807 22.633-3.538 32.73l-25.881-13.943c-3.645-1.963-8.194-.601-10.16 3.045-1.965 3.647-.601 8.195 3.045 10.16l25.366 13.666zm-52.957-69.539c.406-6.183.544-12.399.403-18.631l-.52-23.052c1.439.591 2.861 1.255 4.259 2.008l36.225 19.515c-14.592 4.3-28.225 11.109-40.367 20.16zm-15.194-44.969.601 26.676c.824 36.555-8.562 72.521-27.143 104.012l-5.774 9.786 3.852-89.735c.516-12.015-2.508-23.573-8.619-33.56 8.993-11.598 22.961-17.75 37.083-17.179zm-132.669 23.828-11.395-20.056c1.552-.161 3.121-.245 4.706-.245h41.142c-10.806 10.707-19.573 23.171-25.97 36.897-2.576-5.637-5.403-11.175-8.483-16.596zm-65.132 53.868 1.39 32.379-29.941-29.941c1.069-8.83 2.803-17.458 5.161-25.828zm89.858 126.773 2.656-68.205c.586-15.059-.445-30.05-3.026-44.74h19.62c4.142 0 7.5-3.357 7.5-7.5s-3.358-7.5-7.5-7.5h-22.825c-1.323-5.251-2.843-10.453-4.568-15.591 6.493-20.759 18.675-39.084 35.367-53.101l3.543-2.975c8.074 2.008 15.433 6.249 21.358 12.433 7.967 8.317 12.325 19.069 12.409 30.493h-29.399c-4.142 0-7.5 3.357-7.5 7.5s3.358 7.5 7.5 7.5h28.812l-.59 13.741h-17.87c-4.142 0-7.5 3.357-7.5 7.5s3.358 7.5 7.5 7.5h17.226l-.458 10.661h-30.511c-4.142 0-7.5 3.357-7.5 7.5s3.358 7.5 7.5 7.5h29.867l-.911 21.218h-37.506c-4.142 0-7.5 3.357-7.5 7.5s3.358 7.5 7.5 7.5h36.862l-.357 8.328c-.153 3.565-.726 7.012-1.654 10.303h-26.321c-4.142 0-7.5 3.357-7.5 7.5s3.358 7.5 7.5 7.5h18.796c-8.166 10.634-21.001 17.436-35.434 17.436h-15.086zm179.451-66.279 31.157 31.156c-3.071 7.069-6.596 13.897-10.551 20.439l-32.171-32.171zm7.917-13.296 11.566-19.424 23.552 23.552c-1.405 8.537-3.44 16.864-6.056 24.933zm-294.928 39.506 96.672 96.672c-44.017-17.504-79.168-52.655-96.672-96.672zm126.739 105.524-50.666-50.666c1.605.129 3.224.211 4.863.211h26.337l18.497 18.497c1.464 1.464 3.384 2.196 5.303 2.196s3.839-.732 5.303-2.196c2.929-2.93 2.929-7.678 0-10.607l-8.153-8.153c8.529-.785 16.534-3.361 23.643-7.347l54.899 54.9c-8.37 2.358-16.997 4.092-25.827 5.161l-21.885-21.885c-2.929-2.928-7.678-2.928-10.606 0-2.929 2.93-2.929 7.678 0 10.607l12.528 12.528c-.287.001-.572.011-.859.011-11.417.001-22.574-1.126-33.377-3.257zm158.291-50.522-29.067-29.067 11.565-19.424 31.598 31.597c-4.343 5.929-9.049 11.574-14.096 16.894zm39.708-169.104-113.964-113.964c54.298 16.742 97.221 59.665 113.964 113.964z"/></g></g></svg>