<svg id="Layer_1" height="512" viewBox="0 0 512 512" width="512" xmlns="http://www.w3.org/2000/svg" data-name="Layer 1"><path d="m199.27 312.74h-1v47.73h294.14v-47.73z" fill="#b0b5ca"/><path d="m196.86 173.63a18.7 18.7 0 0 0 -17.29-11.58h-107.11a18.8 18.8 0 0 0 -16.81 10.37c-1.44 2.87-3.1 6.23-4.89 9.93l.03.01-26 72.69v67.69l.02.13a6.165 6.165 0 0 1 1.3-.13h53.36l.03.03a59.228 59.228 0 0 1 45.83-21.64h2.52c32.77 0 59.34 26.57 58.34 59.34h12.08v-180.02a18.668 18.668 0 0 0 -1.41-6.82z" fill="#5fa8ed"/><path d="m126.59 322.09a39.385 39.385 0 1 1 -39.39 39.38 39.387 39.387 0 0 1 39.39-39.38z" fill="#6d7486"/><path d="m79.47 322.74.03.03a59.1 59.1 0 0 0 -13.51 37.7h-39.88a6.865 6.865 0 0 1 -6.84-6.85v-24.03a6.865 6.865 0 0 1 5.54-6.72 6.165 6.165 0 0 1 1.3-.13z" fill="#b0b5ca"/><path d="m135.51 182.36h39.87v49.39h-39.87z" fill="#d9dfe8"/><path d="m126.59 352.16a9.315 9.315 0 1 1 -9.31 9.31 9.312 9.312 0 0 1 9.31-9.31z" fill="#23566e"/><path d="m228.92 344.39h84.75v34.17h-84.75z" fill="#23566e"/><path d="m492.73 121.14v191.6h-.32-76.07v-191.6z" fill="#9ac5a1"/><path d="m287.34 121.14h115v191.6h-115z" fill="#75967a"/><path d="m196.94 121.14 1.33 191.6h1 74.07v-191.6z" fill="#9ac5a1"/><path d="m269.34 111.14h22v201.6h-22z" fill="#797e37"/><path d="m398.34 111.14v201.6h22v-201.599-.001z" fill="#797e37"/><path d="m433.03 360.47c.01.33.01.67.01 1a39.39 39.39 0 0 1 -78.78 0c0-.33 0-.66.01-.99a39.393 39.393 0 0 1 78.76-.01z" fill="#6d7486"/><path d="m393.65 352.16a9.315 9.315 0 1 1 -9.31 9.31 9.312 9.312 0 0 1 9.31-9.31z" fill="#23566e"/><path d="m80.79 182.36-.03-.01c1.79-3.7 3.45-7.06 4.89-9.93a18.8 18.8 0 0 1 16.81-10.37h-30a18.8 18.8 0 0 0 -16.81 10.37c-1.44 2.87-3.1 6.23-4.89 9.93l.03.01-26 72.69v67.69l.02.13a6.165 6.165 0 0 1 1.3-.13h28.68v-67.69z" fill="#4d94ce"/><path d="m49.27 353.62v-24.03a6.865 6.865 0 0 1 5.54-6.72 6.165 6.165 0 0 1 1.3-.13h-30a6.165 6.165 0 0 0 -1.3.13 6.865 6.865 0 0 0 -5.54 6.72v24.03a6.865 6.865 0 0 0 6.84 6.85h30a6.865 6.865 0 0 1 -6.84-6.85z" fill="#99a0b5"/><path d="m114.25 182.36v49.26l-89.46 23.43v-2c0-14.53 15.28-48.62 25.97-70.7l.03.01z" fill="#d9dfe8"/><path d="m50.79 182.36-.03-.01c-10.69 22.08-25.97 56.17-25.97 70.7v2l30.63-8.022c2.973-16.514 15.927-45.236 25.335-64.668z" fill="#c1c8d3"/><g fill="#284268"><path d="m126.59 316.086a45.389 45.389 0 1 0 45.389 45.389 45.44 45.44 0 0 0 -45.389-45.389zm0 78.777a33.389 33.389 0 1 1 33.389-33.388 33.426 33.426 0 0 1 -33.389 33.388z"/><path d="m126.59 346.162a15.313 15.313 0 1 0 15.31 15.313 15.33 15.33 0 0 0 -15.31-15.313zm0 18.625a3.313 3.313 0 1 1 3.312-3.312 3.315 3.315 0 0 1 -3.312 3.312z"/><path d="m393.648 346.162a15.313 15.313 0 1 0 15.312 15.313 15.33 15.33 0 0 0 -15.312-15.313zm0 18.625a3.313 3.313 0 1 1 3.312-3.312 3.316 3.316 0 0 1 -3.312 3.312z"/><path d="m492.734 115.137h-66.395v-4a6 6 0 0 0 -6-6h-22a6 6 0 0 0 -6 6v4h-95v-4a6 6 0 0 0 -6-6h-22a6 6 0 0 0 -6 6v4h-66.4a6 6 0 0 0 -6 6v37.72a24.415 24.415 0 0 0 -11.375-2.811h-107.107a24.661 24.661 0 0 0 -22.169 13.688c-26.033 51.975-31.5 74-31.5 83.321v65.993a12.839 12.839 0 0 0 -5.525 10.543v24.032a12.864 12.864 0 0 0 12.849 12.849h39.877a6 6 0 0 0 6-6 53.4 53.4 0 0 1 53.343-53.343h2.516a52.346 52.346 0 0 1 37.913 15.949 50.8 50.8 0 0 1 14.433 37.211 6 6 0 0 0 6 6.183h36.726v12.087a6 6 0 0 0 6 6h84.754a6 6 0 0 0 6-6v-12.087h28.87a45.383 45.383 0 0 0 90.215 0h53.656a6 6 0 0 0 6-6v-47.73h.322v-191.6a6 6 0 0 0 -6.003-6.005zm-438.21 73.22h53.728v38.632l-76.744 20.1c2.362-11.813 10.515-32.634 23.016-58.732zm5.738 166.115h-34.147a.872.872 0 0 1 -.849-.849v-24.032a.872.872 0 0 1 .849-.849h42.107a64.852 64.852 0 0 0 -7.96 25.73zm132 0h-.184a62.633 62.633 0 0 0 -17.708-39.749 64.25 64.25 0 0 0 -46.526-19.594h-2.516a65.2 65.2 0 0 0 -48.514 21.613h-46.023v-57.057l84.982-22.261a6 6 0 0 0 4.479-5.8v-49.267a6 6 0 0 0 -6-6h-53.852c.208-.417.412-.829.622-1.249a12.724 12.724 0 0 1 11.439-7.062h107.108a12.737 12.737 0 0 1 12.7 12.4zm212.077-237.335h10v189.605h-10zm-107 10h95v179.605h-95zm-22-10h10v189.605h-10zm-72.4 55.681v-45.681h60.4v179.605h-59.073v-126.393a24.391 24.391 0 0 0 -1.322-7.531zm104.732 199.741h-72.754v-22.168h72.754zm12-18.087v-10.081a6 6 0 0 0 -6-6h-84.754a6 6 0 0 0 -6 6v10.081h-18.651v-35.73h174.094a45.527 45.527 0 0 0 -29.558 35.73zm73.977 40.391a33.389 33.389 0 1 1 33.389-33.388 33.426 33.426 0 0 1 -33.389 33.388zm92.764-40.391h-47.912a45.528 45.528 0 0 0 -29.559-35.73h77.476zm.322-47.73h-60.395v-179.6h60.395z"/><path d="m229.457 159.705a6 6 0 0 0 6-6v-7.151a6 6 0 1 0 -12 0v7.151a6 6 0 0 0 6 6z"/><path d="m229.457 257.552a6 6 0 0 0 6-6v-77.886a6 6 0 0 0 -12 0v77.885a6 6 0 0 0 6 6.001z"/><path d="m175.381 176.357h-39.867a6 6 0 0 0 -6 6v49.391a6 6 0 0 0 6 6h39.867a6 6 0 0 0 6-6v-49.391a6 6 0 0 0 -6-6zm-6 49.391h-27.867v-37.391h27.867z"/></g></svg>