<svg id="Layer_1" enable-background="new 0 0 512 512" height="512" viewBox="0 0 512 512" width="512" xmlns="http://www.w3.org/2000/svg"><g><g><g><path d="m415.053 35.688c-14.17-24.99-39.44-28.19-59.87-28.19-3.71 0-7.57.11-11.5.43-17.73 1.45-36.76 7.3-48.36 27.76-9.48 16.71-13 40.08-13 86.23s3.52 69.52 13 86.24c11.6 20.45 30.63 26.31 48.36 27.76 3.93.32 7.79.43 11.5.43 20.43 0 45.7-3.21 59.87-28.19 9.47-16.72 13-40.09 13-86.24s-3.53-69.52-13-86.23zm-84.73 152.6c-6.88-12.13-7.76-41.84-7.76-66.37 0-24.52.88-54.23 7.76-66.36 1.97-3.48 4.42-7.8 24.86-7.8 20.45 0 22.9 4.32 24.87 7.8 6.88 12.13 7.76 41.84 7.76 66.36 0 24.53-.88 54.24-7.76 66.37-1.97 3.47-4.42 7.79-24.87 7.79-20.44 0-22.89-4.32-24.86-7.79z" fill="#ff5f85"/><path d="m428.053 121.918c0 46.15-3.53 69.52-13 86.24-14.17 24.98-39.44 28.19-59.87 28.19-3.71 0-7.57-.11-11.5-.43 17.74-1.45 36.77-7.31 48.37-27.76 9.47-16.72 13-40.09 13-86.24s-3.53-69.52-13-86.23c-11.6-20.46-30.63-26.31-48.37-27.76 3.93-.32 7.79-.43 11.5-.43 20.43 0 45.7 3.2 59.87 28.19 9.47 16.71 13 40.08 13 86.23z" fill="#b2527e"/><g><path d="m238.373 224.718c-4.34 1.69-8.64 3.17-12.87 4.44-17.52 5.29-34.02 7.18-48.66 7.18-36 0-60.85-11.45-62.38-12.17-7.07-3.34-11.64-10.45-11.61-18.27.04-7.83 4.53-14.89 11.64-18.16.12-.06 19.72-9.6 46.84-33.58 16.76-14.82 30.33-33.13 38.22-51.56 6.9-16.11 8.76-30.88 5.12-40.51-3.6-9.51-13.99-14.32-30.9-14.32-16.39 0-21.37 6.36-23.01 8.45-10.14 12.94-6.51 39.93-4.44 48.36 2.73 10.78-3.81 21.7-14.58 24.42-10.78 2.73-21.72-3.83-24.44-14.61-1.33-5.25-12.25-52.12 11.67-82.86 8.53-10.96 24.96-24.03 54.8-24.03 6.8 0 12.95.54 18.52 1.52 32.43 5.67 45.15 25.96 50.01 38.81 7.4 19.57 5.36 44.65-5.76 70.62-10.19 23.8-27.43 47.2-48.56 65.88-4.87 4.3-9.53 8.2-13.95 11.73-.01.01-.01.01-.01.01 13.65.31 27.11-1.55 40.24-5.58 3.18-.96 6.35-2.06 9.49-3.29 10.36-4.04 22.02 1.09 26.06 11.45 4.03 10.36-1.09 22.03-11.44 26.07z" fill="#ff5f85"/><g fill="#b2527e"><path d="m238.373 224.718c-4.34 1.69-8.64 3.17-12.87 4.44 4-5.38 7.61-13.36 4.83-22.98-2.65-9.16-9.72-13.56-16.07-15.69 3.18-.96 6.35-2.06 9.49-3.29 10.36-4.04 22.02 1.09 26.06 11.45 4.03 10.36-1.09 22.03-11.44 26.07z"/><path d="m236.543 118.448c-10.19 23.8-27.43 47.2-48.56 65.88-4.87 4.3-9.53 8.2-13.95 11.73-.01.01-.01.01-.01.01-12.7.11-24.44-2.39-24.44-2.39 107.16-89 85.24-160.87 42.71-184.66 32.43 5.67 45.15 25.96 50.01 38.81 7.4 19.57 5.36 44.65-5.76 70.62z"/></g></g></g><g><g><path d="m269.37 492.867c-4.34 1.69-8.64 3.17-12.87 4.44-17.52 5.29-34.02 7.18-48.66 7.18-36 0-60.85-11.45-62.38-12.17-7.07-3.34-11.64-10.45-11.61-18.27.04-7.83 4.53-14.89 11.64-18.16.12-.06 19.72-9.6 46.84-33.58 16.76-14.82 30.33-33.13 38.22-51.56 6.9-16.11 8.76-30.88 5.12-40.51-3.6-9.51-13.99-14.32-30.9-14.32-16.39 0-21.37 6.36-23.01 8.45-10.14 12.94-6.51 39.93-4.44 48.36 2.73 10.78-3.81 21.7-14.58 24.42-10.78 2.73-21.72-3.83-24.44-14.61-1.33-5.25-12.25-52.12 11.67-82.86 8.53-10.96 24.96-24.03 54.8-24.03 6.8 0 12.95.54 18.52 1.52 32.43 5.67 45.15 25.96 50.01 38.81 7.4 19.57 5.36 44.65-5.76 70.62-10.19 23.8-27.43 47.2-48.56 65.88-4.87 4.3-9.53 8.2-13.95 11.73-.01.01-.01.01-.01.01 13.65.31 27.11-1.55 40.24-5.58 3.18-.96 6.35-2.06 9.49-3.29 10.36-4.04 22.02 1.09 26.06 11.45 4.03 10.36-1.09 22.03-11.44 26.07z" fill="#77e0ab"/><g fill="#65c1b0"><path d="m269.37 492.867c-4.34 1.69-8.64 3.17-12.87 4.44 4-5.38 7.61-13.36 4.83-22.98-2.65-9.16-9.72-13.56-16.07-15.69 3.18-.96 6.35-2.06 9.49-3.29 10.36-4.04 22.02 1.09 26.06 11.45 4.03 10.36-1.09 22.03-11.44 26.07z"/><path d="m267.54 386.597c-10.19 23.8-27.43 47.2-48.56 65.88-4.87 4.3-9.53 8.2-13.95 11.73-.01.01-.01.01-.01.01-12.7.11-24.44-2.39-24.44-2.39 107.16-89 85.24-160.87 42.71-184.66 32.43 5.67 45.15 25.96 50.01 38.81 7.4 19.57 5.36 44.65-5.76 70.62z"/></g></g><path d="m366.533 485.948c-.83 10.54-9.64 18.55-20.03 18.55-.53 0-1.07-.02-1.6-.06-3.07-.24-5.92-1.16-8.42-2.61-6.54-3.74-10.69-11.03-10.06-19.04 7.46-94.79.08-184.42.01-185.31-.68-8.05 3.47-15.39 10.04-19.17 2.47-1.42 5.28-2.33 8.31-2.59 11.07-.93 20.81 7.29 21.74 18.36.32 3.78 7.74 93.68.01 191.87z" fill="#77e0ab"/><path d="m366.533 485.948c-.83 10.54-9.64 18.55-20.03 18.55-.53 0-1.07-.02-1.6-.06-3.07-.24-5.92-1.16-8.42-2.61 5.57-3.2 9.51-9 10.05-15.88 7.73-98.19.31-188.09-.01-191.87-.57-6.84-4.51-12.59-10.05-15.77 2.47-1.42 5.28-2.33 8.31-2.59 11.07-.93 20.81 7.29 21.74 18.36.32 3.78 7.74 93.68.01 191.87z" fill="#65c1b0"/></g><g fill="#be94ff"><ellipse cx="63.438" cy="405.058" rx="15.017" ry="14.985"/><ellipse cx="476.024" cy="149.762" rx="15.017" ry="14.985"/></g></g><g><path d="m355.196 40.266c-20.755 0-27.226 4.252-31.39 11.596-7.697 13.578-8.735 43.037-8.735 70.064s1.038 56.487 8.735 70.064c4.164 7.344 10.635 11.596 31.39 11.596s27.226-4.252 31.39-11.596c7.697-13.578 8.735-43.037 8.735-70.064 0-27.026-1.038-56.485-8.736-70.065-4.164-7.344-10.636-11.595-31.389-11.595zm18.341 144.326c-.792 1.396-2.264 3.994-18.341 3.994s-17.549-2.598-18.341-3.994c-6.784-11.965-6.784-50.126-6.784-62.666s0-50.7 6.784-62.666c.792-1.396 2.264-3.994 18.341-3.994 16.076 0 17.549 2.598 18.341 3.993 6.784 11.968 6.784 50.127 6.784 62.667s0 50.7-6.784 62.666z"/><path d="m241.102 231.707c14.188-5.532 21.233-21.583 15.704-35.777-2.679-6.878-7.874-12.301-14.627-15.269-6.757-2.971-14.265-3.127-21.139-.444-8.125 3.169-16.434 5.446-24.86 6.821 20.476-18.897 37.177-42.061 47.269-65.639 11.881-27.759 13.969-54.827 5.877-76.218-6.383-16.873-24.685-45.181-75.55-45.181-32.864 0-51.156 14.643-60.714 26.926-26.108 33.549-14.443 83.691-13.026 89.298 1.807 7.154 6.289 13.182 12.622 16.972 6.341 3.795 13.774 4.887 20.932 3.081 14.763-3.734 23.743-18.775 20.029-33.482-2.229-9.073-4.556-32.234 3.055-41.949 1.081-1.38 4.37-5.579 17.103-5.579 13.472 0 21.508 3.188 23.887 9.477 2.921 7.724 1.055 20.771-4.993 34.902-1.63 3.808.136 8.217 3.944 9.847 3.806 1.625 8.216-.137 9.846-3.944 7.762-18.136 9.621-34.512 5.233-46.111-3.308-8.745-12.571-19.17-37.917-19.17-20.037 0-26.716 8.527-28.911 11.329-14.504 18.513-5.902 54.418-5.802 54.825 1.702 6.737-2.404 13.607-9.149 15.313-3.264.822-6.657.324-9.554-1.41-2.9-1.735-4.954-4.496-5.781-7.772-1.232-4.88-11.414-48.483 10.321-76.413 7.503-9.645 22.073-21.14 48.875-21.14 41.848 0 56.506 22.234 61.52 35.488 6.712 17.746 4.71 40.833-5.637 65.009-9.761 22.805-26.325 45.256-46.641 63.219-4.501 3.979-9.101 7.848-13.671 11.496-2.467 1.969-3.437 5.271-2.426 8.263 1.011 2.99 3.785 5.027 6.94 5.097 17.957.407 35.657-2.761 52.631-9.38 3.14-1.225 6.567-1.153 9.651.202 3.086 1.356 5.46 3.835 6.685 6.979 2.529 6.492-.69 13.83-7.176 16.359-18.9 7.371-38.684 11.109-58.802 11.11-34.536.001-58.19-10.989-59.181-11.457-4.461-2.108-7.329-6.604-7.306-11.451.024-4.965 2.81-9.325 7.355-11.421.202-.096 20.49-9.89 48.591-34.735 7.683-6.793 14.759-14.311 21.031-22.341 2.549-3.265 1.97-7.978-1.295-10.527s-7.978-1.97-10.527 1.295c-5.707 7.308-12.148 14.15-19.145 20.336-25.403 22.46-44.112 31.935-45.112 32.433-9.61 4.473-15.847 14.23-15.898 24.89-.05 10.651 6.189 20.497 15.897 25.085 2.793 1.319 28.365 12.896 65.589 12.895 21.992-.002 43.609-4.085 64.253-12.137z"/><path d="m421.584 211.859c10.188-17.969 13.975-42.344 13.975-89.934 0-11.433-.212-21.195-.649-29.845-.208-4.137-3.725-7.325-7.869-7.112-4.137.209-7.321 3.731-7.112 7.868.424 8.396.63 17.911.63 29.089 0 44.706-3.259 67.075-12.024 82.535-12.185 21.492-33.801 24.39-53.339 24.39-19.539 0-41.155-2.897-53.339-24.39-8.765-15.46-12.024-37.83-12.024-82.535 0-44.704 3.259-67.073 12.024-82.534 12.185-21.494 33.801-24.391 53.339-24.391s41.154 2.897 53.339 24.391c3.126 5.516 5.503 11.877 7.266 19.447.939 4.035 4.967 6.543 9.005 5.604 4.034-.939 6.543-4.971 5.604-9.005-2.093-8.991-4.98-16.659-8.826-23.444-16.258-28.677-45.675-31.993-66.388-31.993s-50.13 3.316-66.388 31.993c-10.188 17.97-13.975 42.344-13.975 89.933s3.788 71.964 13.975 89.934c16.257 28.675 45.675 31.991 66.388 31.991s50.131-3.317 66.388-31.992z"/><path d="m273.178 448.81c-6.757-2.971-14.265-3.127-21.139-.444-8.134 3.172-16.443 5.451-24.866 6.826 20.478-18.898 37.182-42.063 47.274-65.644 11.881-27.759 13.969-54.827 5.877-76.218-6.383-16.874-24.685-45.182-75.55-45.182-32.864 0-51.156 14.643-60.714 26.926-26.108 33.548-14.442 83.69-13.026 89.297 1.807 7.156 6.291 13.179 12.626 16.961 6.334 3.78 13.763 4.869 20.919 3.062 14.765-3.734 23.741-18.789 20.01-33.56-1.929-7.637-4.786-31.73 3.058-41.81 1.079-1.388 4.363-5.61 17.127-5.61 13.472 0 21.508 3.188 23.887 9.477 2.922 7.725 1.055 20.771-4.993 34.902-7.462 17.436-20.353 34.801-36.295 48.896-25.39 22.449-44.094 31.926-45.11 32.433-9.611 4.472-15.849 14.23-15.9 24.891-.05 10.65 6.189 20.496 15.896 25.083.742.351 3.52 1.623 8.13 3.269 3.9 1.393 8.192-.642 9.585-4.542 1.393-3.901-.641-8.192-4.542-9.585-4.151-1.481-6.508-2.582-6.764-2.703-4.461-2.107-7.329-6.603-7.306-11.45.024-4.966 2.81-9.326 7.355-11.422.202-.096 20.49-9.89 48.59-34.734 17.573-15.538 31.832-34.798 40.15-54.232 7.762-18.135 9.621-34.511 5.233-46.111-3.308-8.745-12.571-19.17-37.917-19.17-20.101 0-26.774 8.581-28.966 11.399-14.376 18.473-5.853 54.336-5.762 54.693 1.706 6.754-2.396 13.638-9.142 15.344-3.27.825-6.662.328-9.556-1.399-2.896-1.728-4.945-4.481-5.771-7.753-1.232-4.88-11.414-48.483 10.321-76.412 7.504-9.643 22.074-21.138 48.876-21.138 41.848 0 56.506 22.234 61.52 35.488 6.712 17.746 4.71 40.833-5.637 65.009-9.761 22.805-26.325 45.256-46.641 63.219-4.501 3.979-9.101 7.848-13.671 11.496-2.466 1.969-3.436 5.271-2.427 8.26 1.009 2.99 3.782 5.028 6.937 5.1 17.928.415 35.637-2.75 52.635-9.381 3.14-1.224 6.567-1.152 9.651.203 3.086 1.356 5.46 3.835 6.685 6.98 2.529 6.491-.69 13.829-7.176 16.358-18.9 7.371-38.684 11.109-58.802 11.11-5.46 0-10.993-.279-16.443-.831-4.123-.434-7.8 2.586-8.217 6.707s2.586 7.8 6.707 8.217c5.95.602 11.991.907 17.954.907 21.99-.001 43.607-4.084 64.251-12.136 14.188-5.532 21.233-21.583 15.704-35.777-2.676-6.879-7.871-12.302-14.625-15.269z"/><path d="m344.16 268.248c-15.172 1.284-26.475 14.679-25.195 29.853.004.051.43 5.191.971 14.2.248 4.135 3.792 7.301 7.936 7.037 4.135-.248 7.286-3.801 7.037-7.936-.551-9.182-.978-14.333-.996-14.555-.585-6.941 4.579-13.066 11.512-13.652 6.931-.572 13.05 4.583 13.637 11.521.317 3.756 7.686 93.102.005 190.644-.514 6.527-6.03 11.641-12.558 11.641-.338 0-.677-.013-1.013-.039-6.938-.548-12.137-6.643-11.589-13.587 4.051-51.462 3.701-101.374 2.693-134.183-.127-4.141-3.579-7.389-7.727-7.266-4.14.127-7.393 3.586-7.266 7.727.997 32.435 1.345 81.759-2.654 132.544-1.196 15.188 10.182 28.521 25.371 29.719.725.057 1.46.085 2.186.085 14.303 0 26.388-11.185 27.512-25.463 7.775-98.749.309-189.279-.013-193.086-1.285-15.181-14.675-26.494-29.849-25.204z"/><path d="m417.665 374.382c-3.747-1.764-8.216-.158-9.981 3.589-1.766 3.747-.159 8.216 3.588 9.981 30.719 14.471 45.912 38.935 46.177 39.366 1.408 2.335 3.887 3.627 6.429 3.627 1.315 0 2.647-.346 3.856-1.072 3.55-2.134 4.699-6.742 2.565-10.292-.698-1.162-17.509-28.652-52.634-45.199z"/><path d="m407.684 278.114c1.279 2.715 3.976 4.306 6.79 4.306 1.071 0 2.159-.23 3.191-.717 35.125-16.547 51.936-44.037 52.634-45.199 2.13-3.544.985-8.137-2.555-10.275-3.541-2.139-8.147-1-10.293 2.534-.15.247-15.342 24.844-46.179 39.37-3.746 1.765-5.353 6.234-3.588 9.981z"/><path d="m476.15 320.542h-36.273c-4.142 0-7.5 3.357-7.5 7.5s3.358 7.5 7.5 7.5h36.273c4.142 0 7.5-3.357 7.5-7.5s-3.358-7.5-7.5-7.5z"/><path d="m79.437 255.382c-35.125 16.547-51.936 44.037-52.634 45.199-2.13 3.544-.985 8.137 2.555 10.275 1.211.731 2.546 1.079 3.866 1.079 2.538 0 5.015-1.288 6.427-3.613.15-.247 15.342-24.844 46.179-39.37 3.747-1.766 5.354-6.234 3.588-9.981-1.765-3.747-6.234-5.353-9.981-3.589z"/><path d="m85.83 149.133c-30.719-14.471-45.912-38.935-46.177-39.366-2.137-3.543-6.739-4.688-10.285-2.555-3.55 2.134-4.699 6.742-2.565 10.292.698 1.162 17.51 28.652 52.634 45.199 1.033.486 2.121.717 3.191.717 2.814 0 5.511-1.592 6.79-4.306 1.766-3.747.159-8.216-3.588-9.981z"/><path d="m64.725 209.042c0-4.143-3.358-7.5-7.5-7.5h-36.273c-4.142 0-7.5 3.357-7.5 7.5s3.358 7.5 7.5 7.5h36.273c4.142 0 7.5-3.357 7.5-7.5z"/><path d="m63.445 382.575c-12.416 0-22.517 10.087-22.517 22.485s10.101 22.485 22.517 22.485 22.517-10.087 22.517-22.485-10.101-22.485-22.517-22.485zm0 29.971c-4.145 0-7.517-3.358-7.517-7.485s3.372-7.485 7.517-7.485 7.517 3.358 7.517 7.485-3.372 7.485-7.517 7.485z"/><path d="m476.031 127.279c-12.416 0-22.517 10.087-22.517 22.485s10.101 22.485 22.517 22.485 22.517-10.087 22.517-22.485-10.101-22.485-22.517-22.485zm0 29.971c-4.145 0-7.517-3.358-7.517-7.485s3.372-7.485 7.517-7.485 7.517 3.358 7.517 7.485-3.372 7.485-7.517 7.485z"/><circle cx="63.442" cy="57.138" r="7.5"/><circle cx="78.462" cy="334.378" r="7.5"/><circle cx="285.371" cy="262.168" r="7.5"/><circle cx="470.851" cy="75.527" r="7.5"/><circle cx="439.172" cy="459.518" r="7.5"/></g></g></svg>