<svg id="Layer_1" height="512" viewBox="0 0 512 512" width="512" xmlns="http://www.w3.org/2000/svg" data-name="Layer 1"><path d="m242 274.14a36.92 36.92 0 0 1 50.92 34.17v6.93a110.5 110.5 0 0 0 -73.84 0v-6.93a36.924 36.924 0 0 1 22.92-34.17z" fill="#598baa"/><path d="m239.08 308.31a36.788 36.788 0 0 1 26.928-35.538 36.909 36.909 0 0 0 -46.928 35.538v6.93a109.4 109.4 0 0 1 20-5.031z" fill="#304756"/><path d="m165.72 29.5v18.62a19.384 19.384 0 0 0 19.38 19.38h141.8a19.384 19.384 0 0 0 19.38-19.38v-18.62z" fill="#3e5c72"/><path d="m195.719 48.12v-18.62h-30v18.62a19.384 19.384 0 0 0 19.381 19.38h30a19.385 19.385 0 0 1 -19.381-19.38z" fill="#304756"/><path d="m333.78 341.1a109.986 109.986 0 0 0 -187.78 77.79v24.44h220v-24.44a109.66 109.66 0 0 0 -32.22-77.79z" fill="#3e5c72"/><path d="m249.08 315.24a109.361 109.361 0 0 1 21.92-5.323 109.931 109.931 0 0 0 -125 108.973v24.44h30v-24.44a110.034 110.034 0 0 1 73.08-103.65z" fill="#304756"/><path d="m270 97.5v175.89l-.26.64a37.043 37.043 0 0 0 -27.74.11v-176.64z" fill="#bcdcfc"/><path d="m191.72 67.5v18a12 12 0 0 0 12 12h104.56a12 12 0 0 0 12-12v-18z" fill="#598baa"/><path d="m221.72 85.5v-18h-30v18a12 12 0 0 0 12 12h30a12 12 0 0 1 -12-12z" fill="#6ba4c1"/><path d="m289.57 444.22v4.71a33.57 33.57 0 1 1 -67.14 0v-5.6h67.14z" fill="#f9cf76"/><g fill="#284268"><path d="m200.757 344.112a93.13 93.13 0 0 0 -37.357 66.175 6 6 0 0 0 5.423 6.525c.188.017.373.026.558.026a6 6 0 0 0 5.968-5.45 81.12 81.12 0 0 1 32.551-57.633 6 6 0 0 0 -7.142-9.643z"/><path d="m229.777 329.65a93.014 93.014 0 0 0 -9.665 3.439 6 6 0 1 0 4.645 11.065 80.545 80.545 0 0 1 8.41-2.992 6 6 0 1 0 -3.39-11.512z"/><path d="m146 449h70.444a39.558 39.558 0 0 0 79.112 0h70.444a5.727 5.727 0 0 0 6-5.669v-24.445a115.784 115.784 0 0 0 -73-107.765v-2.813a42.967 42.967 0 0 0 -23-37.969v-166.339h32.278c9.922 0 17.722-8.575 17.722-18.5v-11.5h.9a25.1 25.1 0 0 0 25.1-25.1v-19.4a5.5 5.5 0 0 0 -5.5-5.5h-180.778a5.722 5.722 0 0 0 -5.722 5.722v18.4c0 14.178 12 25.788 26 25.878v11.5c0 9.925 7.8 18.5 17.722 18.5h32.278v166.339a42.967 42.967 0 0 0 -23 37.969v2.813a115.784 115.784 0 0 0 -73 107.765v24.445a5.727 5.727 0 0 0 6 5.669zm110 27.169a27.605 27.605 0 0 1 -27.556-27.169h55.112a27.605 27.605 0 0 1 -27.556 27.169zm-52.278-384.169c-3.309 0-5.722-3.191-5.722-6.5v-11.5h8a6 6 0 0 0 0-12h-20.9a13.1 13.1 0 0 1 -13.1-13.1v-12.9h168v12.12a13.921 13.921 0 0 1 -13.88 13.88h-80.12a6 6 0 0 0 0 12h68v11.5c0 3.309-2.413 6.5-5.722 6.5zm60.278 12v162.145a42.6 42.6 0 0 0 -16 0v-162.145zm-8 173.387a30.956 30.956 0 0 1 30.891 29.682 116.155 116.155 0 0 0 -61.782 0 30.956 30.956 0 0 1 30.891-29.682zm-104 141.5a104 104 0 1 1 208 0v18.113h-208z"/></g></svg>