<svg id="Capa_1" enable-background="new 0 0 511.022 511.022" height="512" viewBox="0 0 511.022 511.022" width="512" xmlns="http://www.w3.org/2000/svg"><g><g><circle cx="252.618" cy="255.511" fill="#f7d8a4" r="248.011"/><path d="m57.965 254.511c0-126.324 94.458-230.606 216.588-246.054-7.224-.633-14.546-.957-21.935-.957-136.972 0-248.011 111.038-248.011 248.011s111.038 248.011 248.011 248.011c10.649 0 21.129-.666 31.425-1.968-126.702-11.099-226.078-117.459-226.078-247.043z" fill="#f5cd8b"/><g><g><circle cx="252.618" cy="255.511" fill="#f8deb6" r="209.728"/><g><g id="XMLID_221_"><g><circle cx="252.618" cy="255.511" fill="#f5cd8b" r="179.73"/></g></g></g><path d="m385.195 222.098-23.37-25.401c-5.249-5.705-9.348-12.369-12.074-19.626l-12.17-32.403c-7.607-20.253-36.032-20.864-44.501-.956l-32.933 77.416c-6.909 16.241 4.286 34.441 21.897 35.6l83.935 5.522c21.59 1.419 33.865-24.23 19.216-40.152z" fill="#fcf1de"/><path d="m306.005 243.039c-17.612-1.159-28.806-19.359-21.897-35.6l32.933-77.416c.116-.273.268-.527.391-.792-9.666-.897-19.844 3.885-24.351 14.481l-32.933 77.416c-6.909 16.241 4.286 34.441 21.897 35.6l83.935 5.522c10.865.715 19.377-5.434 23.279-13.741z" fill="#f6e2c4"/><path d="m125.827 222.098 23.37-25.401c5.249-5.705 9.348-12.369 12.074-19.626l12.17-32.403c7.607-20.253 36.032-20.864 44.501-.956l32.933 77.416c6.909 16.241-4.286 34.441-21.897 35.6l-83.935 5.522c-21.59 1.419-33.865-24.23-19.216-40.152z" fill="#fcf1de"/><path d="m149.534 229.933 23.37-25.401c5.249-5.705 9.349-12.369 12.074-19.626l12.17-32.403c3.119-8.305 9.751-13.308 17.06-14.947-11.113-13.335-34.052-10.766-40.766 7.111l-12.17 32.403c-2.726 7.257-6.825 13.921-12.074 19.626l-23.37 25.401c-14.649 15.923-2.374 41.572 19.215 40.151l4.093-.269c-7.412-8.58-8.68-22.178.398-32.046z" fill="#f6e2c4"/><path d="m210.597 375.215 33.932-6.322c7.621-1.42 15.445-1.357 23.042.185l33.921 6.886c21.202 4.304 36.808-19.462 24.431-37.207l-48.128-69.004c-10.097-14.476-31.464-14.65-41.794-.339l-49.234 68.203c-12.662 17.543 2.559 41.561 23.83 37.598z" fill="#fcf1de"/><g><path d="m212.742 342.198 49.234-68.203c3.084-4.273 7.168-7.243 11.626-8.938-10.991-9.599-28.543-8.189-37.6 4.358l-49.234 68.203c-12.664 17.543 2.558 41.561 23.828 37.598l5.641-1.051c-8.454-7.629-11.376-21.05-3.495-31.967z" fill="#f6e2c4"/></g></g></g><path d="m118.157 416.472c-37.513-43.451-60.191-100.05-60.191-161.961 0-58.54 20.262-112.317 54.183-154.738-42.544 38.383-69.258 93.927-69.258 155.738 0 64.667 29.255 122.489 75.266 160.961z" fill="#f7d8a4"/></g><g><path d="m313.059 177.959c4.143 0 7.5-3.357 7.5-7.5v-4.066c0-4.143-3.357-7.5-7.5-7.5s-7.5 3.357-7.5 7.5v4.066c0 4.143 3.358 7.5 7.5 7.5z"/><path d="m314.03 203.327v3.389c0 4.143 3.357 7.5 7.5 7.5s7.5-3.357 7.5-7.5v-3.389c0-4.143-3.357-7.5-7.5-7.5s-7.5 3.358-7.5 7.5z"/><path d="m291.711 229.803c4.143 0 7.5-3.357 7.5-7.5v-4.066c0-4.143-3.357-7.5-7.5-7.5s-7.5 3.357-7.5 7.5v4.066c0 4.143 3.358 7.5 7.5 7.5z"/><path d="m344.911 236.919c4.143 0 7.5-3.357 7.5-7.5v-4.066c0-4.143-3.357-7.5-7.5-7.5s-7.5 3.357-7.5 7.5v4.066c0 4.143 3.357 7.5 7.5 7.5z"/><path d="m195.817 182.026c4.142 0 7.5-3.357 7.5-7.5v-4.066c0-4.143-3.358-7.5-7.5-7.5s-7.5 3.357-7.5 7.5v4.066c0 4.142 3.358 7.5 7.5 7.5z"/><path d="m218.52 232.853c4.142 0 7.5-3.357 7.5-7.5v-5.083c0-4.143-3.358-7.5-7.5-7.5s-7.5 3.357-7.5 7.5v5.083c0 4.142 3.358 7.5 7.5 7.5z"/><path d="m184.296 216.249c4.142 0 7.5-3.357 7.5-7.5v-5.422c0-4.143-3.358-7.5-7.5-7.5s-7.5 3.357-7.5 7.5v5.422c0 4.143 3.358 7.5 7.5 7.5z"/><path d="m158.205 243.357c4.142 0 7.5-3.357 7.5-7.5v-6.438c0-4.143-3.358-7.5-7.5-7.5s-7.5 3.357-7.5 7.5v6.438c0 4.142 3.357 7.5 7.5 7.5z"/><path d="m256.234 280.797c-4.142 0-7.5 3.357-7.5 7.5v4.694c0 4.143 3.358 7.5 7.5 7.5 4.143 0 7.5-3.357 7.5-7.5v-4.694c0-4.142-3.358-7.5-7.5-7.5z"/><path d="m224.115 322.212c-4.142 0-7.5 3.357-7.5 7.5v4.359c0 4.143 3.358 7.5 7.5 7.5s7.5-3.357 7.5-7.5v-4.359c0-4.142-3.358-7.5-7.5-7.5z"/><path d="m255.795 333.77c-4.142 0-7.5 3.357-7.5 7.5v3.7c0 4.143 3.358 7.5 7.5 7.5 4.143 0 7.5-3.357 7.5-7.5v-3.7c0-4.143-3.357-7.5-7.5-7.5z"/><path d="m286.675 339.057c4.143 0 7.5-3.357 7.5-7.5v-3.689c0-4.143-3.357-7.5-7.5-7.5s-7.5 3.357-7.5 7.5v3.689c0 4.142 3.358 7.5 7.5 7.5z"/><path d="m409.114 101.908c-41.028-41.029-95.579-63.625-153.603-63.625s-112.574 22.596-153.603 63.625c-41.029 41.028-63.625 95.579-63.625 153.603 0 49.878 17.336 98.603 48.815 137.197 2.619 3.209 7.343 3.691 10.552 1.071 3.21-2.617 3.69-7.342 1.072-10.552-29.302-35.926-45.439-81.283-45.439-127.717 0-111.509 90.719-202.228 202.228-202.228s202.228 90.719 202.228 202.228-90.719 202.229-202.228 202.229c-50.132 0-98.226-18.483-135.421-52.046-3.077-2.774-7.819-2.531-10.593.544-2.775 3.075-2.531 7.817.544 10.593 39.957 36.054 91.619 55.909 145.47 55.909 58.023 0 112.574-22.596 153.603-63.625 41.029-41.028 63.625-95.579 63.625-153.603s-22.596-112.574-63.625-153.603z"/><path d="m436.185 74.837c-48.26-48.259-112.425-74.837-180.674-74.837-68.25 0-132.414 26.578-180.674 74.837-48.259 48.26-74.837 112.425-74.837 180.674s26.578 132.414 74.837 180.674c48.26 48.259 112.424 74.837 180.674 74.837 68.249 0 132.414-26.578 180.674-74.837 48.259-48.26 74.837-112.425 74.837-180.674s-26.578-132.414-74.837-180.674zm-10.607 350.74c-45.426 45.427-105.823 70.444-170.066 70.444s-124.641-25.018-170.067-70.444c-45.427-45.425-70.445-105.823-70.445-170.066s25.018-124.641 70.444-170.066c45.427-45.427 105.825-70.445 170.067-70.445 64.243 0 124.641 25.018 170.066 70.444 45.427 45.426 70.444 105.823 70.444 170.066s-25.017 124.642-70.443 170.067z"/><path d="m255.511 442.739c103.237 0 187.228-83.99 187.228-187.228s-83.99-187.228-187.228-187.228-187.228 83.99-187.228 187.228 83.99 187.228 187.228 187.228zm-160.116-123.783 96.672 96.671c-44.018-17.503-79.169-52.654-96.672-96.671zm126.739 105.525-135.592-135.592c-2.13-10.802-3.258-21.96-3.258-33.378 0-.287.01-.572.011-.858l91.779 91.779c-1.289 7.448.208 15.215 4.548 22.064 6.917 10.915 19.02 16.301 31.704 14.189l45.043 45.043c-.287.001-.571.011-.858.011-11.417 0-22.575-1.128-33.377-3.258zm-95.493-283.092 29.093 29.093-1.484 3.95c-2.214 5.896-5.429 11.271-9.543 16.012l-31.638-31.639c4.153-6.097 8.691-11.911 13.572-17.416zm173.341 5.258c3.149-7.403 9.83-10.023 15.165-10.023.116 0 .231.001.347.003 5.389.116 12.177 2.981 15.066 10.677l12.17 32.404c3.08 8.2 7.647 15.625 13.575 22.067l23.37 25.401c5.566 6.05 5.063 13.401 2.736 18.264-2.327 4.861-7.724 9.84-15.939 9.326l-83.936-5.522c-5.938-.391-11.13-3.521-14.247-8.59-3.118-5.067-3.57-11.115-1.241-16.591zm95.218 106.691 30.239 30.24c-1.405 8.537-3.44 16.864-6.055 24.932l-40.661-40.66c6.944-2.576 12.762-7.612 16.477-14.512zm32.539 2.173c0 2.993-.078 5.967-.229 8.923l-28.462-28.463c-.493-6.87-3.316-13.499-8.333-18.951l-23.37-25.401c-4.616-5.018-8.174-10.8-10.572-17.186l-7.052-18.777 76.417 76.417c1.047 7.667 1.601 15.489 1.601 23.438zm-75.522 142.442-23.444-23.443c1.384-1.439 2.656-3.028 3.796-4.763 3.498-5.326 5.239-11.248 5.264-17.165l31.8 31.8c-5.505 4.88-11.319 9.418-17.416 13.571zm-34.173 18.032-36.397-36.397 18.353 3.726c2.204.448 4.395.666 6.551.666 3.139 0 6.198-.472 9.109-1.368l23.437 23.436c-6.754 3.765-13.782 7.094-21.053 9.937zm-41.711 10.491-47.105-47.104 16.674-3.107c3.427-.638 6.875-.931 10.32-.888l45.937 45.938c-8.369 2.358-16.996 4.092-25.826 5.161zm43.44-83.429c4.702 6.743 3.217 13.96.258 18.466s-8.991 8.741-17.046 7.101l-33.921-6.885c-4.47-.908-8.976-1.362-13.484-1.362-4.148 0-8.299.385-12.424 1.153l-33.932 6.322c-8.082 1.505-14.046-2.822-16.931-7.376-2.886-4.553-4.254-11.793.558-18.459l49.233-68.203c3.453-4.782 8.798-7.516 14.688-7.516h.154c5.95.049 11.314 2.875 14.719 7.756zm-165.056-141.272c5.929-6.444 10.497-13.869 13.576-22.068l12.17-32.403c2.89-7.695 9.678-10.561 15.067-10.677.115-.002.23-.003.347-.003 5.335 0 12.016 2.621 15.165 10.023l32.933 77.416c2.329 5.476 1.877 11.522-1.24 16.591-3.118 5.068-8.311 8.199-14.248 8.59l-83.935 5.522c-8.209.521-13.613-4.464-15.94-9.326s-2.83-12.214 2.736-18.264zm100.793 46.738c0-.001.001-.001.001-.002 0 .001.001.001.001.002.599.973 1.248 1.898 1.928 2.791-.131-.002-.261-.014-.393-.015-.095-.001-.188-.001-.283-.001-1.112 0-2.21.066-3.297.171.723-.939 1.41-1.917 2.043-2.946zm-26.04 15.697c.39-.026.774-.072 1.16-.11-.238.307-.48.608-.709.925l-26.343 36.494-33.407-33.406zm26.041-51.344-30.667-72.09c-5.144-12.092-16.506-19.409-29.637-19.146-4.364.094-8.486 1.035-12.228 2.68l-16.299-16.299c6.542-3.955 13.369-7.48 20.439-10.551l82.423 82.423zm-84.433-79.243c-1.914 2.485-3.491 5.302-4.657 8.407l-4.894 13.031-24.463-24.463c5.32-5.047 10.966-9.753 16.894-14.096zm-36.51 67.897-14.26 15.5c-.198.216-.375.443-.567.662l-24.704-24.703c2.843-7.271 6.172-14.3 9.937-21.054zm-21.978 30.224c-1.425 6.6-.646 13.616 2.49 20.17 5.352 11.183 16.039 17.893 28.242 17.892.732 0 1.471-.024 2.213-.073l4.731-.311 44.417 44.417-12.992 17.997-97.145-97.146c1.069-8.83 2.803-17.458 5.161-25.828zm267.835 142.214-68.062-68.062c-.184-.184-.375-.354-.573-.515l-27.843-39.92c-.275-.394-.565-.771-.854-1.151l19.988 1.315 45.994 45.994c1.465 1.464 3.385 2.196 5.304 2.196s3.839-.732 5.304-2.196c2.929-2.93 2.929-7.678 0-10.607l-33.892-33.892 33.171 2.182 54.601 54.6c-3.071 7.07-6.596 13.897-10.551 20.439l-20.651-20.652c-2.929-2.929-7.678-2.93-10.606-.001-2.93 2.93-2.93 7.678-.001 10.606l22.768 22.769c-4.344 5.93-9.05 11.575-14.097 16.895zm39.707-169.104-113.962-113.964c54.298 16.743 97.22 59.666 113.962 113.964zm-141.182-119.969 36.747 36.747c-8.639-.14-16.506 3.019-22.335 8.653l-15.397-15.396c-2.93-2.928-7.678-2.928-10.607 0-2.929 2.93-2.929 7.678 0 10.607l17.764 17.764-9.248 21.74-73.363-73.362c8.069-2.616 16.396-4.65 24.934-6.056l17.236 17.237c1.464 1.464 3.384 2.196 5.303 2.196s3.839-.732 5.303-2.196c2.929-2.93 2.929-7.678 0-10.607l-8.699-8.699c2.956-.152 5.93-.229 8.923-.229 7.95-.001 15.772.553 23.439 1.601z"/></g></g></svg>