<svg id="Layer_1" height="512" viewBox="0 0 512 512" width="512" xmlns="http://www.w3.org/2000/svg" data-name="Layer 1"><path d="m458.71 92.51h-405.42a12 12 0 0 0 -12 12v284.76a12 12 0 0 0 12 12h405.42a12 12 0 0 0 12-12v-284.76a12 12 0 0 0 -12-12z" fill="#b9c8db"/><path d="m79.29 130.51h353.42v232.76h-353.42z" fill="#f3e08d"/><path d="m156.11 470.16h199.22v31h-199.22z" fill="#b9c8db"/><path d="m302.95 401.27 20 68.89h-134.47l20-68.89z" fill="#878ea0"/><path d="m373.41 130.51v53.47c0 27.25-17.64 60.62-40.17 75.98l-77.24 52.68-77.24-52.68c-22.53-15.36-40.17-48.73-40.17-75.98v-115.64l117.42-57.5 117.4 57.66z" fill="#9ac5a1"/><path d="m347.65 86.03v96.34c0 19.39-13.54 45.01-29.58 55.94l-62.07 42.33-62.08-42.33c-16.03-10.93-29.57-36.55-29.57-55.94v-96.47l91.64-44.89z" fill="#75967a"/><circle cx="256" cy="156" fill="#50dd5a" r="50.19"/><path d="m194.35 182.37v-96.47l76.62-37.532-14.98-7.358-91.64 44.89v96.47c0 19.39 13.54 45.01 29.57 55.94l62.08 42.33 15-10.229-47.079-32.1c-16.031-10.931-29.571-36.551-29.571-55.941z" fill="#628265"/><path d="m235.81 156a50.208 50.208 0 0 1 35.19-47.908 50.19 50.19 0 1 0 0 95.816 50.208 50.208 0 0 1 -35.19-47.908z" fill="#6eed73"/><path d="m79.29 130.51h30v232.76h-30z" fill="#dbc879"/><path d="m208.48 401.27-20 68.89h30l20-68.89z" fill="#6d7486"/><g fill="#284268"><path d="m458.711 86.509h-79.3v-18.009a6 6 0 0 0 -3.355-5.385l-117.405-57.664a6 6 0 0 0 -5.284 0l-117.418 57.505a6 6 0 0 0 -3.361 5.388v18.165h-79.3a18.021 18.021 0 0 0 -18 18v284.759a18.021 18.021 0 0 0 18 18h147.2l-16.516 56.9h-27.863a6 6 0 0 0 -6 6v31a6 6 0 0 0 6 6h199.216a6 6 0 0 0 6-6v-31a6 6 0 0 0 -6-6h-27.866l-16.516-56.9h147.768a18.021 18.021 0 0 0 18-18v-284.759a18.021 18.021 0 0 0 -18-18zm-314.123-14.423 111.412-54.567 111.41 54.72v111.741c0 25.468-16.494 56.664-37.552 71.02l-73.858 50.373-73.862-50.373c-21.056-14.356-37.55-45.551-37.55-71.019zm30.789 192.827 77.242 52.68a6 6 0 0 0 6.762 0l77.24-52.679c24-16.359 42.791-51.909 42.791-80.934v-47.471h47.3v220.759h-341.423v-220.759h47.3v47.471c-.001 29.025 18.795 64.575 42.788 80.933zm173.948 211.25v19h-187.216v-19zm-34.361-12h-118.493l16.516-56.9h85.46zm149.747-74.9a6.007 6.007 0 0 1 -6 6h-405.422a6.007 6.007 0 0 1 -6-6v-284.754a6.007 6.007 0 0 1 6-6h79.3v26h-53.3a6 6 0 0 0 -6 6v232.759a6 6 0 0 0 6 6h353.422a6 6 0 0 0 6-6v-232.759a6 6 0 0 0 -6-6h-53.3v-26h79.3a6.007 6.007 0 0 1 6 6z"/><path d="m108.206 158.222a6 6 0 0 0 -6 6v7.778a6 6 0 0 0 12 0v-7.778a6 6 0 0 0 -6-6z"/><path d="m108.206 184.823a6 6 0 0 0 -6 6v75.177a6 6 0 0 0 12 0v-75.177a6 6 0 0 0 -6-6z"/><path d="m190.543 243.265 62.076 42.335a6 6 0 0 0 6.762 0l62.073-42.335c17.755-12.1 32.2-39.423 32.2-60.9v-96.336a6 6 0 0 0 -3.355-5.385l-91.661-45.02a6 6 0 0 0 -5.284 0l-91.648 44.883a6 6 0 0 0 -3.361 5.389v96.475c0 21.473 14.445 48.79 32.198 60.894zm-20.2-153.627 85.647-41.946 85.665 42.075v92.6c0 17.366-12.6 41.189-26.961 50.981l-58.694 40.034-58.7-40.031c-14.361-9.791-26.959-33.614-26.959-50.98z"/><path d="m256 212.187a56.187 56.187 0 1 0 -56.187-56.187 56.251 56.251 0 0 0 56.187 56.187zm0-100.374a44.187 44.187 0 1 1 -44.187 44.187 44.237 44.237 0 0 1 44.187-44.187z"/><path d="m242.981 173.533a6 6 0 0 0 8.208.453l31.837-26.786a6 6 0 1 0 -7.726-9.181l-27.52 23.158-10.6-11.127a6 6 0 0 0 -8.69 8.275z"/></g></svg>