<svg id="Layer_1" height="512" viewBox="0 0 512 512" width="512" xmlns="http://www.w3.org/2000/svg" data-name="Layer 1"><path d="m122.598 25.497v143.472.17h266.804v-.17-143.472z" fill="#3e5c72"/><path d="m152.599 25.497h-30.001v143.472.17h30.001v-.17z" fill="#314856"/><g fill="#d6d0c4"><path d="m356.581 168.549v.59h-21.16v-.59-34.631h21.16z"/><path d="m296.581 168.549v.59h-21.161v-.59-34.631h21.161z"/><path d="m236.58 168.549v.59h-21.161v-.59-34.631h21.161z"/><path d="m176.579 168.549v.59h-21.16v-.59-34.631h21.16z"/></g><rect fill="#f7c365" height="317.364" rx="6" width="294.644" x="108.678" y="169.139"/><path d="m138.678 480.5v-305.361a6 6 0 0 1 6-6h-30a6 6 0 0 0 -6 6v305.361a5.992 5.992 0 0 0 6 6h30a5.993 5.993 0 0 1 -6-6z" fill="#c1944c"/><path d="m356.581 84.988v48.93h-21.16v-48.93l.03-.05a21.144 21.144 0 0 0 21.1 0z" fill="#bcbec0"/><path d="m346 45.447a21.153 21.153 0 1 1 -21.16 21.16 21.163 21.163 0 0 1 21.16-21.16z" fill="#a3a3a3"/><path d="m296.581 84.988v48.93h-21.161v-48.93l.03-.05a21.146 21.146 0 0 0 21.1 0z" fill="#bcbec0"/><path d="m286 45.447a21.153 21.153 0 1 1 -21.16 21.16 21.162 21.162 0 0 1 21.16-21.16z" fill="#a3a3a3"/><path d="m236.58 84.988v48.93h-21.161v-48.93l.03-.05a21.146 21.146 0 0 0 21.1 0z" fill="#bcbec0"/><path d="m226 45.447a21.153 21.153 0 1 1 -21.161 21.16 21.162 21.162 0 0 1 21.161-21.16z" fill="#a3a3a3"/><path d="m176.579 84.988v48.93h-21.16v-48.93l.03-.05a21.144 21.144 0 0 0 21.1 0z" fill="#bcbec0"/><path d="m166 45.447a21.152 21.152 0 1 1 -21.161 21.16 21.162 21.162 0 0 1 21.161-21.16z" fill="#a3a3a3"/><path d="m403.322 328.951v70.991h-99.091a63.948 63.948 0 0 1 -95.762 0h-99.791v-70.991h99.791a63.967 63.967 0 0 1 95.762 0z" fill="#a2d4a8"/><path d="m108.788 328.951h-.11v70.991h.11 29.891v-70.991z" fill="#8aba8e"/><path d="m135 216.673a6 6 0 0 0 -6 6v83.614a6 6 0 0 0 12 0v-83.614a6 6 0 0 0 -6-6z" fill="#284268"/><path d="m135 189.48a6 6 0 0 0 -6 6v4.807a6 6 0 1 0 12 0v-4.807a6 6 0 0 0 -6-6z" fill="#284268"/><path d="m398 163h-3v-137.5c0-3.314-2.282-6.5-5.6-6.5h-266.8c-3.318 0-5.6 3.183-5.6 6.5v137.5h-2a12 12 0 0 0 -12 12v305a12 12 0 0 0 12 12h283a12 12 0 0 0 12-12v-305a12 12 0 0 0 -12-12zm-269-132h254v132h-20v-74.9a28.256 28.256 0 0 0 10.368-21.488 27.369 27.369 0 0 0 -54.736 0 28.256 28.256 0 0 0 10.368 21.488v74.9h-26v-74.9a28.256 28.256 0 0 0 10.368-21.488 27.369 27.369 0 0 0 -54.736 0 28.256 28.256 0 0 0 10.368 21.488v74.9h-26v-74.9a28.257 28.257 0 0 0 10.368-21.488 27.369 27.369 0 0 0 -54.736 0 28.257 28.257 0 0 0 10.368 21.488v74.9h-26v-74.9a28.257 28.257 0 0 0 10.368-21.488 27.369 27.369 0 0 0 -54.736 0 28.257 28.257 0 0 0 10.368 21.488v74.9h-20zm212 97v-34.629a31.923 31.923 0 0 0 10 0v34.629zm10 12v23h-10v-23zm-5-58.235a15.158 15.158 0 1 1 15.157-15.158 15.175 15.175 0 0 1 -15.157 15.158zm-65 46.235v-34.629a31.923 31.923 0 0 0 10 0v34.629zm10 12v23h-10v-23zm-5-58.235a15.158 15.158 0 1 1 15.157-15.158 15.175 15.175 0 0 1 -15.157 15.158zm-65 46.235v-34.629a31.923 31.923 0 0 0 10 0v34.629zm10 12v23h-10v-23zm-5-58.235a15.158 15.158 0 1 1 15.157-15.158 15.175 15.175 0 0 1 -15.157 15.158zm-65 46.235v-34.629a31.923 31.923 0 0 0 10 0v34.629zm10 12v23h-10v-23zm-5-58.235a15.158 15.158 0 1 1 15.157-15.158 15.175 15.175 0 0 1 -15.157 15.158zm-51 253.235h15a6 6 0 0 0 0-12h-15v-148h282.322v148h-90.462a69.95 69.95 0 0 0 -101.017 0h-35.843a6 6 0 0 0 0 12h38.47a5.952 5.952 0 0 0 4.459-2.007 57.927 57.927 0 0 1 86.838 0 5.96 5.96 0 0 0 4.466 2.007h93.093v59h-93.093a5.975 5.975 0 0 0 -4.49 1.989 57.992 57.992 0 0 1 -86.783.011 5.975 5.975 0 0 0 -4.49-2h-93.47zm0 146v-75h90.843a69.95 69.95 0 0 0 101.017 0h90.468v75z" fill="#284268"/></svg>