<svg id="Layer_1" enable-background="new 0 0 512 512" height="512" viewBox="0 0 512 512" width="512" xmlns="http://www.w3.org/2000/svg"><g><g><path d="m453.196 158.162c13.789 14.609 25.859 27.655 34.804 37.434 10.303 11.278 16.497 18.222 16.497 18.222s-68.42 76.919-141.089 149.588-149.589 141.088-149.589 141.088-6.944-6.194-18.222-16.497c-9.779-8.945-22.825-21.015-37.434-34.804 6.449-21.001 6.456-49.66-21.623-77.739-28.08-28.078-56.732-28.064-77.74-21.623-29.684-31.424-51.301-55.656-51.301-55.656s68.427-76.912 141.096-149.581 149.582-141.095 149.582-141.095 24.233 21.616 55.656 51.301c-6.442 21.008-6.456 49.66 21.623 77.739 28.08 28.078 56.739 28.071 77.74 21.623z" fill="#ffe878"/><path d="m504.497 213.818s-68.42 76.919-141.089 149.588-149.589 141.088-149.589 141.088-6.944-6.194-18.222-16.497c27.994-25.336 90.368-82.505 150.133-142.269s116.927-122.131 142.27-150.132c10.302 11.278 16.497 18.222 16.497 18.222z" fill="#ffd37b"/><path d="m409.207 210.494c-24.876-6.194-47.701-19.544-67.932-39.775-21.729-21.729-35.539-46.471-41.033-73.518-1.534-7.559-2.397-15.182-2.588-22.854-30.321 27.916-73.087 68.038-114.177 109.127s-81.211 83.855-109.128 114.176c7.658.191 15.288 1.061 22.847 2.595 27.054 5.487 51.796 19.297 73.525 41.026 20.23 20.23 33.58 43.056 39.768 67.939.467 1.853.884 3.712 1.266 5.593 1.534 7.559 2.397 15.181 2.588 22.839 30.321-27.917 73.087-68.038 114.176-109.127s81.211-83.855 109.128-114.176c-7.658-.191-15.288-1.047-22.847-2.581-1.881-.38-3.741-.797-5.593-1.264z" fill="#ff5f85"/><path d="m437.647 214.341c-27.917 30.321-68.038 73.086-109.128 114.176s-83.856 81.211-114.176 109.127c-.191-7.658-1.054-15.281-2.588-22.839-.382-1.881-.799-3.741-1.266-5.593 29.557-27.506 65.881-62.006 101.3-97.425 35.412-35.412 69.912-71.736 97.418-101.293 1.853.467 3.712.884 5.593 1.266 7.559 1.534 15.189 2.39 22.847 2.581z" fill="#b2527e"/></g><g><path d="m510.097 208.825c-.217-.243-22.023-24.665-51.444-55.813-1.958-2.074-4.929-2.856-7.653-2.02-25.633 7.871-49.262 1.224-70.237-19.754-20.979-20.977-27.624-44.607-19.754-70.237.837-2.728.055-5.694-2.02-7.653-31.149-29.422-55.57-51.228-55.813-51.444-2.843-2.535-7.133-2.538-9.978-.007-.771.686-77.919 69.404-149.909 141.393-19.892 19.892-41.332 41.971-63.725 65.624-2.848 3.008-2.718 7.755.29 10.603 3.009 2.848 7.755 2.718 10.603-.29 22.299-23.555 43.643-45.534 63.438-65.329 61.155-61.156 126.068-119.958 144.277-136.322 8.247 7.443 25.953 23.54 47.227 43.573-5.375 21.4-4.509 51.432 24.756 80.696 29.266 29.264 59.297 30.131 80.696 24.756 20.035 21.275 36.129 38.979 43.573 47.227-16.361 18.207-75.155 83.111-136.32 144.276-3.007 3.008-6.022 6.008-9.038 8.996-2.942 2.915-2.965 7.664-.05 10.606 1.467 1.48 3.397 2.222 5.328 2.222 1.907 0 3.816-.724 5.278-2.172 3.033-3.004 6.064-6.021 9.089-9.045 71.988-71.989 140.707-149.138 141.392-149.909 2.532-2.844 2.529-7.135-.006-9.977z"/><path d="m322.824 392.788c-48.966 47.393-94.265 88.399-108.996 101.636-8.246-7.441-25.945-23.533-47.223-43.569 4.342-17.19 3.218-33.887-3.359-49.692-1.591-3.825-5.98-5.635-9.806-4.044-3.824 1.592-5.634 5.981-4.043 9.806 5.776 13.884 6.313 28.713 1.596 44.076-.838 2.728-.055 5.694 2.02 7.653 31.148 29.42 55.57 51.227 55.813 51.443 1.422 1.269 3.207 1.903 4.993 1.903 1.782 0 3.563-.632 4.985-1.896.541-.481 54.79-48.791 114.453-106.538 2.977-2.88 3.054-7.628.174-10.604-2.883-2.978-7.631-3.057-10.607-.174z"/><path d="m61.149 345.399c-20.033-21.273-36.13-38.98-43.574-47.227 7.813-8.698 25.295-28.041 47.932-52.364 2.822-3.032 2.651-7.777-.381-10.6-3.031-2.821-7.777-2.651-10.6.381-31.022 33.333-52.418 57.369-52.631 57.608-2.531 2.845-2.528 7.136.007 9.978.217.243 22.023 24.664 51.444 55.813 1.959 2.074 4.925 2.854 7.654 2.02 25.628-7.871 49.259-1.226 70.237 19.753 1.464 1.464 3.384 2.196 5.303 2.196s3.839-.732 5.303-2.196c2.929-2.93 2.929-7.678 0-10.607-29.263-29.265-59.294-30.132-80.694-24.755z"/><path d="m365.297 190.919c2.486-3.313 1.815-8.015-1.497-10.501-5.911-4.435-11.704-9.48-17.22-14.998-20.674-20.673-33.791-44.129-38.988-69.715-1.439-7.087-2.261-14.334-2.439-21.541-.073-2.942-1.861-5.57-4.571-6.719-2.709-1.15-5.842-.606-8.007 1.388-29.145 26.838-72.651 67.594-114.4 109.342-41.738 41.738-82.498 85.249-109.341 114.4-1.994 2.165-2.537 5.297-1.388 8.007 1.149 2.711 3.777 4.498 6.72 4.571 7.201.178 14.447.999 21.54 2.439 25.586 5.197 49.042 18.314 69.715 38.987 20.672 20.673 33.789 44.129 38.987 69.716 1.441 7.094 2.262 14.341 2.441 21.539.073 2.943 1.86 5.571 4.571 6.72.943.4 1.938.595 2.925.595 1.848 0 3.67-.684 5.082-1.982 29.137-26.83 72.637-67.579 114.4-109.341 41.759-41.76 82.51-85.262 109.342-114.401 1.994-2.165 2.536-5.297 1.388-8.007-1.149-2.711-3.777-4.498-6.72-4.571-7.2-.178-14.447-.999-21.539-2.439-7.742-1.573-15.386-3.9-22.718-6.918-3.832-1.578-8.215.251-9.79 4.081-1.576 3.831.251 8.214 4.081 9.79 8.209 3.378 16.768 5.984 25.44 7.746 2.781.565 5.585 1.046 8.399 1.439-26.272 28.344-62.003 66.186-98.491 102.673-36.49 36.49-74.331 72.22-102.672 98.491-.394-2.815-.874-5.618-1.439-8.4-5.794-28.524-20.289-54.544-43.081-77.337-22.792-22.792-48.812-37.286-77.335-43.079-2.782-.565-5.585-1.046-8.4-1.439 26.282-28.353 62.021-66.203 98.49-102.672 36.479-36.479 74.325-72.214 102.672-98.491.394 2.815.874 5.619 1.439 8.4 5.793 28.522 20.287 54.542 43.08 77.335 6.015 6.017 12.349 11.53 18.823 16.39 3.313 2.485 8.015 1.813 10.501-1.498z"/><path d="m170.475 288.191c1.457.976 36.151 24.089 76.952 42.131.976.432 2.008.641 3.031.641 1.95 0 3.869-.76 5.305-2.196 2.191-2.191 2.809-5.503 1.556-8.337-18.041-40.801-41.155-75.496-42.13-76.953-2.304-3.441-6.962-4.364-10.404-2.061s-4.365 6.962-2.062 10.404c.194.29 16.478 24.729 32.059 55.964-31.208-15.57-55.674-31.864-55.965-32.059-3.443-2.301-8.1-1.378-10.404 2.063-2.303 3.442-1.38 8.1 2.062 10.403z"/><path d="m288.737 292.687c1.919 0 3.839-.732 5.304-2.196 2.929-2.93 2.929-7.678 0-10.607l-58.66-58.659c-2.929-2.928-7.678-2.928-10.606 0-2.929 2.93-2.929 7.678 0 10.607l58.659 58.659c1.464 1.463 3.384 2.196 5.303 2.196z"/><path d="m318.065 266.429c2.681-3.157 2.294-7.89-.863-10.571-.14-.118-6.463-5.508-15.756-14.189 6.061-5.657 13.771-15.008 14.648-26.536.491-6.469-1.116-16.173-11.503-25.792-7.857-8.493-16.62-12.426-26.039-11.667-17.708 1.413-29.812 19.113-31.134 21.127-1.826 2.781-1.601 6.434.552 8.97 27.018 31.83 58.209 58.408 59.524 59.523 1.41 1.197 3.134 1.782 4.85 1.782 2.125-.001 4.237-.9 5.721-2.647zm-16.926-52.468c-.486 6.629-6 13.138-10.57 17.302-8.465-8.292-18.012-18.117-27.172-28.573 3.898-4.329 10.04-9.579 16.386-10.067 4.712-.37 9.277 1.954 13.963 7.084.152.167.312.326.479.479 4.998 4.565 7.26 9.072 6.914 13.775z"/><circle cx="162.009" cy="250.385" r="7.5"/><circle cx="207.969" cy="204.425" r="7.5"/><circle cx="253.929" cy="158.455" r="7.5"/><circle cx="262.419" cy="350.795" r="7.5"/><circle cx="308.379" cy="304.835" r="7.5"/><circle cx="354.34" cy="258.865" r="7.5"/></g></g></svg>