<svg id="Layer_1" height="512" viewBox="0 0 512 512" width="512" xmlns="http://www.w3.org/2000/svg" data-name="Layer 1"><path d="m113.915 75.627h-1.69a10 10 0 0 0 -10 10v398.783a9.991 9.991 0 0 0 10 10h297.55v-418.783z" fill="#3e5c72"/><path d="m142.226 484.41v-398.783a10 10 0 0 1 10-10h-40a10 10 0 0 0 -10 10v398.783a9.991 9.991 0 0 0 10 10h40a9.991 9.991 0 0 1 -10-10z" fill="#365060"/><path d="m186.198 227.231 6.86 89.233h125.314l7.43-89.233z" fill="#a2d4a8"/><path d="m256 242.932a28.576 28.576 0 1 1 -28.581 28.581 28.58 28.58 0 0 1 28.581-28.581z" fill="#fbe08b"/><path d="m318.772 151.039h-125.544a11.5 11.5 0 0 0 -11.5 11.49v27.461h148.544v-27.461a11.5 11.5 0 0 0 -11.5-11.49z" fill="#97c9fa"/><path d="m320.212 189.99v.02l-3.08 37.221h-122.264l-3.08-37.221v-.02z" fill="#ea836f"/><path d="m309.752 316.464-3.59 43.452h-100.324l-3.59-43.452z" fill="#ea836f"/><path d="m315.532 151.039h-119.624l8.9-20.041a6.9 6.9 0 0 1 6.311-4.1h89.212a6.87 6.87 0 0 1 6.3 4.1z" fill="#deedfd"/><path d="m364.323 27.6v48.026h-250.408l238.058-57.751a10 10 0 0 1 12.35 9.725z" fill="#6fabc9"/><g fill="#284268"><path d="m128 283.943a6 6 0 0 0 6-6v-78.092a6 6 0 0 0 -12 0v78.092a6 6 0 0 0 6 6z"/><path d="m128 178.425a6 6 0 0 0 6-6v-26.8a6 6 0 0 0 -12 0v26.8a6 6 0 0 0 6 6z"/><path d="m128 123.877a6 6 0 0 0 6-6v-5.959a6 6 0 0 0 -12 0v5.959a6 6 0 0 0 6 6z"/><path d="m111.6 500h298.175a6.243 6.243 0 0 0 6.225-6.225v-417.55a6.225 6.225 0 0 0 -6.225-6.225h-39.775v-42.4a15.767 15.767 0 0 0 -19.53-15.549l-238.84 57.949a15.63 15.63 0 0 0 -15.63 15.63v398.77a15.6 15.6 0 0 0 15.6 15.6zm-3.6-414.37a3.63 3.63 0 0 1 3.63-3.63h191.37a6 6 0 0 0 0-12h-140.423l190.8-46.286a3.569 3.569 0 0 1 3.254.744 3.9 3.9 0 0 1 1.369 3.142v42.4h-15a6 6 0 0 0 0 12h61v406h-291.775a4.237 4.237 0 0 1 -4.225-4.225z"/><path d="m162.047 414h187.906a6 6 0 0 0 0-12h-187.906a6 6 0 0 0 0 12z"/><path d="m349.953 438h-112.744a6 6 0 0 0 0 12h112.744a6 6 0 0 0 0-12z"/><path d="m162.047 450h48.036a6 6 0 0 0 0-12h-48.036a6 6 0 0 0 0 12z"/><path d="m181.731 196h4.531l2.088 25h-2.15a6.191 6.191 0 0 0 -5.983 6.633l6.856 89.029a5.828 5.828 0 0 0 5.984 5.338h3.665l3.138 38.218a6.248 6.248 0 0 0 5.98 5.782h100.319a6.248 6.248 0 0 0 5.98-5.782l3.138-38.218h3.091a5.805 5.805 0 0 0 5.98-5.271l7.43-89.115a6.13 6.13 0 0 0 -1.565-4.614 6.054 6.054 0 0 0 -4.415-2h-2.148l2.088-25h4.531a5.786 5.786 0 0 0 5.731-6.012v-27.454a17.387 17.387 0 0 0 -16.688-17.461l-7.261-16.458a12.764 12.764 0 0 0 -11.721-7.615h-89.213a12.86 12.86 0 0 0 -11.788 7.614l-7.206 16.513a17.366 17.366 0 0 0 -16.123 17.407v27.454a5.786 5.786 0 0 0 5.731 6.012zm118.9 158h-89.267l-2.6-32h94.473zm12.212-44h-114.229l-5.934-77h126.6zm-114.543-114h115.4l-2.088 25h-111.222zm12-62.537a.84.84 0 0 1 .821-.463h89.209a.838.838 0 0 1 .82.463l5.15 11.537h-101.155zm-22.3 29.071a5.312 5.312 0 0 1 5.227-5.534h125.546a5.312 5.312 0 0 1 5.227 5.534v21.466h-136z"/><path d="m256 306.083a34.577 34.577 0 1 0 -34.576-34.577 34.616 34.616 0 0 0 34.576 34.577zm0-57.153a22.577 22.577 0 1 1 -22.576 22.576 22.6 22.6 0 0 1 22.576-22.576z"/></g></svg>