<svg id="Layer_1" height="512" viewBox="0 0 512 512" width="512" xmlns="http://www.w3.org/2000/svg" data-name="Layer 1"><path d="m391.27 301.69-79.17-33.22-10.04-5.52-92.12 2.05-13.42 6.75-75.79 29.94a77.984 77.984 0 0 0 -32.09 63.11v82.73h334.72v-82.73a77.984 77.984 0 0 0 -32.09-63.11z" fill="#75967a"/><path d="m220.06 260.91-23.54 11.84-75.79 29.94a77.984 77.984 0 0 0 -32.09 63.11v82.73h30v-82.73a77.984 77.984 0 0 1 32.09-63.11l75.79-29.94 13.42-6.75z" fill="#a7d3aa"/><path d="m296.45 246.04-80.81-.47v16.15c0 .14 0 .28.01.42a15.338 15.338 0 0 0 5.19 11.1l35.16 30.98 35.29-30.98a15.371 15.371 0 0 0 5.23-11.54v-15.57z" fill="#efc597"/><path d="m394.87 291.69-3.6 10-4.13 11.45-18.81-6.77v-.01l7.73-21.45z" fill="#fb6771"/><path d="m376.06 284.91-7.73 21.45-25.45-9.16 7.73-21.46z" fill="#e75163"/><path d="m350.61 275.74-7.73 21.46-19.75-7.12 4.9-13.6 2.83-7.86z" fill="#fb6771"/><path d="m184.29 277.35 4.58 12.73-19.22 6.92-7.66-21.26-.07-.19 19.22-6.93z" fill="#fb6771"/><path d="m161.99 275.74 7.66 21.26-25.45 9.17-7.66-21.26-.07-.19 25.45-9.17z" fill="#e75163"/><path d="m136.54 284.91 7.66 21.26-19.34 6.97-4.13-11.45-3.6-10 19.34-6.97z" fill="#fb6771"/><path d="m302.06 262.95-5.54-3.04v1.79a15.371 15.371 0 0 1 -5.23 11.54l-35.29 30.98v.3l63 37.64z" fill="#9ac5a1"/><path d="m220.84 273.24a15.338 15.338 0 0 1 -5.19-11.1l-5.71 2.86-17.94 77.16 64-37.64v-.3z" fill="#9ac5a1"/><path d="m285.9 448.03 2.52 16-32.42 31.01-32.42-31.01 2.73-16 17.31-101.3h26.33z" fill="#f3e08d"/><path d="m281.93 320.51-.09.15-11.89 26.07h-26.33l-13.46-26.07-.19-.33 26.03-15.31z" fill="#fff655"/><path d="m345.51 105.96c-.22-.01-.44-.02-.66-.02h-177.7c-.22 0-.44.01-.66.02a11.607 11.607 0 0 0 -10.94 11.59 11.6 11.6 0 0 0 11.6 11.6h177.7a11.6 11.6 0 0 0 .66-23.19z" fill="#75967a"/><path d="m345.51 105.96c-.22-.01-.44-.02-.66-.02h-177.7c-.22 0-.44.01-.66.02a89.511 89.511 0 0 1 179.02 0z" fill="#9ac5a1"/><g fill="#6d7486"><path d="m302.06 263.45-5.54-3.04v-11.78l-.33-.41a62.786 62.786 0 0 0 22.24-35.94l5.28-24.65h3.34a12.415 12.415 0 0 0 6.69-1.94l6.72 33.07c3.96 19.5-3.06 43.45-16.56 55.8l-.19.39q-5.88-2.82-11.61-5.98z"/><path d="m331.86 129.18v34.37a12.437 12.437 0 0 0 -4.81-.96h-3.34a31.327 31.327 0 0 0 -30.31-31.24 111.87 111.87 0 0 1 -13.61-1.29q-2.325-.36-4.59-.9v-.01h56.66z"/><path d="m209.94 265.5-13.42 6.75q-3.285 1.65-6.63 3.16l-.18-.4c-13.81-12.34-21.06-36.51-17.05-56.25l6.81-33.53a12.446 12.446 0 0 0 7.37 2.4h3.34l5.28 24.65a62.738 62.738 0 0 0 20.18 34.23v15.71c0 .14 0 .28.01.42z"/><path d="m212.98 129.15v.15a35.654 35.654 0 0 0 -22.8 33.29h-3.34a12.4 12.4 0 0 0 -5.24 1.15v-34.59z"/></g><path d="m215.64 246.51a62.738 62.738 0 0 1 -20.18-34.23l-5.28-24.65h-3.34a12.52 12.52 0 0 1 0-25.04h3.34a35.654 35.654 0 0 1 22.8-33.29v-.15h62.22v.01q2.265.54 4.59.9a111.87 111.87 0 0 0 13.61 1.29 31.327 31.327 0 0 1 30.31 31.24h3.34a12.516 12.516 0 0 1 8.85 21.37 12.059 12.059 0 0 1 -2.16 1.73 12.415 12.415 0 0 1 -6.69 1.94h-3.34l-5.28 24.65a62.877 62.877 0 0 1 -101.01 35.72c-.6-.49-1.2-.98-1.78-1.49z" fill="#ffd8b7"/><path d="m185.55 117.55a11.608 11.608 0 0 1 10.93-11.59c.22-.01.45-.02.67-.02h-30c-.22 0-.45.01-.67.02a11.6 11.6 0 0 0 .67 23.19h30a11.6 11.6 0 0 1 -11.6-11.6z" fill="#97ba9b"/><path d="m271 17.718a89.562 89.562 0 0 0 -104.52 88.242c.22-.01.45-.02.67-.02h29.33a89.543 89.543 0 0 1 74.52-88.222z" fill="#b3e2b8"/><path d="m345.52 103.96v-.02h-.67c.22 0 .45.01.67.02z" fill="#9ac5a1"/><path d="m246.31 448.53 17.31-101.3h-20l-17.31 101.3-2.73 16 32.42 31.01 10-9.565-10.691-10.226a30.554 30.554 0 0 1 -9-27.219z" fill="#e0ce82"/><path d="m265.922 311.447-9.922-5.927-26.03 15.31.19.33 13.46 26.07h20l-4.966-9.619a19.972 19.972 0 0 1 7.268-26.164z" fill="#e5d94a"/><path d="m398.4 300.116 2.125-5.9a6 6 0 0 0 -3.612-7.678l-58.447-21.053c7.856-13.963 11.111-32.019 7.881-47.923l-6.009-29.584a18.45 18.45 0 0 0 -2.473-27.875v-24.95h6.988a17.6 17.6 0 0 0 6.521-33.948 95.515 95.515 0 0 0 -190.738 0 17.6 17.6 0 0 0 6.521 33.948h8.443v25.256a18.454 18.454 0 0 0 -2.676 26.889l-6.148 30.267c-3.212 15.811-.035 33.655 7.705 47.582l-59.393 21.394a6 6 0 0 0 -3.612 7.678l2.125 5.9a84.461 84.461 0 0 0 -30.96 65.181v82.73a6 6 0 0 0 6 6h130.559l-1.535 8.99a6 6 0 0 0 1.767 5.346l32.42 31.009a6 6 0 0 0 8.294 0l32.42-31.009a6 6 0 0 0 1.78-5.269l-1.428-9.067h130.44a6 6 0 0 0 6-6v-82.73a84.461 84.461 0 0 0 -30.958-65.184zm-18.725-7.03 7.525 2.714-3.663 10.169-7.527-2.711zm-25.446-9.166 14.157 5.1-3.664 10.168-14.156-5.1zm-11.289-4.066-3.664 10.168-8.467-3.05 3.663-10.168zm-152.761-111.262a6 6 0 0 0 6-6 29.808 29.808 0 0 1 18.364-27.439h59.98c1.433.322 2.884.61 4.33.838a119.715 119.715 0 0 0 14.334 1.357 25.254 25.254 0 0 1 24.525 25.244 6 6 0 0 0 6 6h3.338a6.519 6.519 0 1 1 0 13.037h-3.338a6 6 0 0 0 -5.867 4.743l-5.284 24.653a56.88 56.88 0 0 1 -111.231 0l-5.284-24.653a6 6 0 0 0 -5.867-4.743h-3.339a6.519 6.519 0 1 1 0-13.037zm-2.579-22.477v-10.962h6.933a42.264 42.264 0 0 0 -6.933 10.962zm130.06-10.962h8.2v10.889a37.111 37.111 0 0 0 -8.196-10.889zm-27.145 124.084v2.963a9.356 9.356 0 0 1 -3.182 7.028l-31.325 27.5-31.2-27.5a9.352 9.352 0 0 1 -3.168-7.016v-4a68.784 68.784 0 0 0 68.876 1.015zm-106.578-65.849c.455.072.912.141 1.377.179l4.283 19.974a69.121 69.121 0 0 0 20.042 35.609v9.8l-18.354 9.183c-10.522-11.439-16.068-31.816-12.745-48.176zm29.955 81.612 32.133 28.929-45.014 26.471zm42.084 37 18.25 10.9-8.136 17.824h-18.818l-9.351-18.108zm9.969-8.022 32.414-29.121 11.892 55.589zm36.57-47.114v-6.114a69.122 69.122 0 0 0 21.777-37.208l4.282-19.974c.214-.017.42-.057.632-.082l5.376 26.469c3.323 16.361-1.886 36.1-12.217 47.627zm-46.515-233.902a83.61 83.61 0 0 1 83.236 76.976h-166.472a83.61 83.61 0 0 1 83.236-76.976zm-88.848 100.191a5.608 5.608 0 0 1 0-11.215h177.7a5.608 5.608 0 0 1 0 11.215zm10.381 153.647 3.663 10.168-7.934 2.858-3.662-10.164zm-19.222 6.924 3.662 10.168-14.157 5.108-3.664-10.169zm-25.448 9.166 3.664 10.168-8.06 2.9-3.667-10.158zm25.612 149.135v-52.679a6 6 0 0 0 -12 0v52.683h-51.834v-76.729a72.411 72.411 0 0 1 23.323-53.083l1.247 3.462a5.993 5.993 0 0 0 7.678 3.611l64.019-23.061a6 6 0 0 0 3.612-7.678l-2.681-7.441c2.5-1.128 4.972-2.294 7.372-3.5l1.987-1-15.042 64.69a6 6 0 0 0 8.885 6.53l32.521-19.124 9.8 18.985-16.115 94.335zm97.525 44.71-25.969-24.835 18.649-109.175h16.137l17.188 109.137zm161.359-44.706h-51.834v-52.683a6 6 0 0 0 -12 0v52.683h-62.5l-14.875-94.455 8.435-18.481 31.334 18.719a6 6 0 0 0 8.944-6.406l-14.2-66.388c3.284 1.776 6.582 3.47 9.867 5.062l-3.052 8.47a6 6 0 0 0 3.612 7.678l64.019 23.061a5.993 5.993 0 0 0 7.678-3.611l1.247-3.462a72.411 72.411 0 0 1 23.325 53.084z" fill="#284268"/><path d="m118.457 339.555a6 6 0 0 0 -6 6v7.15a6 6 0 0 0 12 0v-7.15a6 6 0 0 0 -6-6z" fill="#284268"/><path d="m118.457 366.666a6 6 0 0 0 -6 6v50.886a6 6 0 0 0 12 0v-50.886a6 6 0 0 0 -6-6z" fill="#284268"/></svg>