<svg id="Capa_1" enable-background="new 0 0 511.023 511.023" height="512" viewBox="0 0 511.023 511.023" width="512" xmlns="http://www.w3.org/2000/svg"><g><g><circle cx="254.811" cy="257.552" fill="#f7d8a4" r="248.011"/><path d="m60.158 256.552c0-126.324 94.438-230.607 216.568-246.056-7.224-.633-14.526-.956-21.915-.956-136.973 0-248.011 111.039-248.011 248.012s111.038 248.011 248.011 248.011c10.649 0 21.127-.665 31.422-1.968-126.702-11.099-226.075-117.46-226.075-247.043z" fill="#f5cd8b"/><circle cx="254.811" cy="257.552" fill="#f8deb6" r="209.728"/><path d="m120.347 418.509c-37.514-43.451-60.188-100.045-60.188-161.957 0-58.54 20.251-112.307 54.171-154.728-42.543 38.384-69.246 93.917-69.246 155.728-.001 64.667 29.251 122.485 75.263 160.957z" fill="#f7d8a4"/><g><g><g><g id="XMLID_225_"><g><circle cx="254.811" cy="257.552" fill="#f5cd8b" r="179.73"/></g></g></g><ellipse cx="216.685" cy="316.194" fill="#fcf1de" rx="80.702" ry="84.865" transform="matrix(.537 -.843 .843 .537 -166.416 329.031)"/><path d="m210.371 384.256c-39.529-25.185-52.158-76.073-28.208-113.663 11.542-18.115 29.479-29.813 49.385-34.276-33.112-7.313-67.958 5.278-86.434 34.276-23.949 37.589-11.32 88.478 28.209 113.663 20.479 13.048 44.144 16.641 65.543 11.842-9.812-2.166-19.461-6.087-28.495-11.842z" fill="#f6e2c4"/><ellipse cx="294.839" cy="193.673" fill="#fcf1de" rx="80.702" ry="84.865" transform="matrix(.537 -.843 .843 .537 -26.928 338.258)"/><path d="m284.032 240.374c-39.529-25.185-52.158-76.073-28.209-113.663 2.393-3.756 5.037-7.22 7.939-10.418-16.315 5.632-30.694 16.393-40.496 31.778-23.949 37.589-11.32 88.478 28.208 113.663 35.579 22.669 80.804 16.809 106.954-12.003-23.546 8.128-51.046 5.52-74.396-9.357z" fill="#f6e2c4"/></g></g></g><g><path d="m221.184 40.994c-50.493 8.02-96.776 33.881-130.322 72.822-33.905 39.357-52.578 89.68-52.578 141.695 0 58.023 22.596 112.574 63.625 153.603 41.028 41.029 95.579 63.625 153.603 63.625s112.574-22.596 153.603-63.625c41.029-41.028 63.625-95.579 63.625-153.603s-22.596-112.574-63.625-153.603c-41.028-41.029-95.579-63.625-153.603-63.625-.287 0-.572.005-.857.01l-.486.007c-4.143.028-7.478 3.409-7.449 7.551.028 4.125 3.381 7.449 7.499 7.449h.052l.651-.009c.196-.004.394-.008.591-.008 111.509 0 202.228 90.719 202.228 202.228s-90.721 202.228-202.23 202.228-202.227-90.718-202.227-202.227c0-48.424 17.382-95.269 48.942-131.905 31.233-36.257 74.316-60.334 121.312-67.798 4.091-.649 6.88-4.493 6.23-8.584-.65-4.09-4.488-6.881-8.584-6.231z"/><path d="m436.185 74.838c-48.26-48.26-112.425-74.838-180.674-74.838s-132.414 26.578-180.674 74.838c-48.258 48.26-74.837 112.425-74.837 180.674 0 52.651 15.89 103.21 45.95 146.21 29.376 42.021 70.097 73.936 117.758 92.293 3.864 1.486 8.205-.438 9.694-4.304 1.488-3.865-.438-8.205-4.304-9.694-44.863-17.279-83.196-47.325-110.854-86.889-28.29-40.468-43.244-88.055-43.244-137.616 0-64.243 25.018-124.641 70.444-170.067 45.427-45.427 105.824-70.445 170.067-70.445s124.641 25.018 170.067 70.444 70.444 105.824 70.444 170.067-25.018 124.641-70.444 170.067-105.824 70.444-170.067 70.444c-19.155 0-38.271-2.276-56.812-6.767-4.033-.976-8.08 1.498-9.055 5.523-.976 4.026 1.498 8.08 5.523 9.055 19.697 4.77 39.999 7.188 60.343 7.188 68.249 0 132.414-26.578 180.674-74.838s74.838-112.425 74.838-180.674-26.577-132.411-74.837-180.671z"/><path d="m68.284 255.512c0 103.237 83.99 187.228 187.228 187.228s187.228-83.99 187.228-187.228-83.991-187.228-187.229-187.228-187.227 83.99-187.227 187.228zm15 0c0-.287.01-.572.011-.858l43.237 43.237c-1.632 10.642-1.24 21.499 1.04 32.029l-41.031-41.031c-2.13-10.803-3.257-21.96-3.257-33.377zm47.632 25.548-46.37-46.37c1.069-8.83 2.803-17.457 5.161-25.826l52.069 52.069c-1.03 1.415-2.034 2.851-2.98 4.335-3.228 5.067-5.847 10.359-7.88 15.792zm20.745-31.457-56.624-56.624c2.843-7.271 6.172-14.299 9.936-21.053l64.583 64.584c-6.528 3.593-12.547 7.978-17.895 13.093zm-56.266 69.354 96.671 96.671c-44.017-17.503-79.168-52.654-96.671-96.671zm126.74 105.525-22.528-22.528c6.888 1.562 13.852 2.343 20.758 2.343 3.966 0 7.91-.262 11.809-.764l24.196 24.196c-.287.001-.571.011-.858.011-11.418-.001-22.575-1.128-33.377-3.258zm72.457-59.951c.39-.613.751-1.24 1.125-1.862l43.38 43.379c-6.754 3.765-13.782 7.094-21.053 9.937l-36.046-36.046c4.705-4.538 8.945-9.679 12.594-15.408zm-24.351 24.866 31.918 31.918c-8.37 2.358-16.997 4.092-25.826 5.161l-26.895-26.895c7.345-2.46 14.346-5.87 20.803-10.184zm110.184-15.438-51.898-51.898c-2.93-2.928-7.678-2.928-10.607 0-2.929 2.93-2.929 7.678 0 10.607l51.713 51.713c-5.505 4.88-11.318 9.418-17.416 13.571l-49.625-49.624c5.246-14.255 6.648-29.841 3.875-45.295-.73-4.078-4.634-6.8-8.706-6.058-4.077.731-6.789 4.629-6.058 8.706 3.201 17.847-.266 35.884-9.762 50.788-21.688 34.042-68.604 43.088-104.581 20.165-35.979-22.923-47.603-69.267-25.914-103.308 9.646-15.138 24.786-25.971 42.633-30.504 4.015-1.021 6.442-5.102 5.423-9.116-1.021-4.015-5.104-6.442-9.116-5.423-2.05.521-4.061 1.133-6.05 1.79l-71.268-71.269c4.153-6.098 8.691-11.912 13.572-17.417l84.786 84.786c7.198 16.42 19.288 31.119 35.688 41.662 3.483 2.239 8.125 1.23 10.364-2.253 2.24-3.484 1.231-8.125-2.253-10.364-35.729-22.968-47.229-69.227-25.634-103.119 10.468-16.43 27.067-27.596 46.739-31.439 19.812-3.876 40.354.132 57.842 11.274 35.978 22.923 47.602 69.266 25.913 103.307-16.224 25.464-46.75 37.684-77.77 31.137-4.051-.854-8.032 1.735-8.888 5.788s1.735 8.032 5.788 8.888c6.465 1.365 12.976 2.044 19.443 2.044 6.657 0 13.263-.74 19.722-2.171l76.137 76.137c-4.34 5.93-9.045 11.575-14.092 16.895zm-193.306-276.498 36.965 36.965c-2.578 3.016-4.975 6.214-7.142 9.615-1.9 2.982-3.583 6.044-5.065 9.167l-45.196-45.196c6.541-3.954 13.369-7.48 20.438-10.551zm40.325-11.878 26.532 26.532c-6.934 3.105-13.37 7.065-19.175 11.813l-32.29-32.29c8.069-2.615 16.396-4.649 24.933-6.055zm-21.168 83.239c-2.365 9.437-3.071 19.161-2.214 28.775l-66.998-66.998c5.32-5.047 10.965-9.753 16.893-14.095zm221.463 86.69c0 2.992-.078 5.967-.229 8.922l-44.471-44.471c2.497-9.241 3.389-18.772 2.764-28.223l40.335 40.335c1.047 7.666 1.601 15.487 1.601 23.437zm-73.875 8.695 59.698 59.697c-3.071 7.069-6.596 13.897-10.551 20.438l-68.573-68.573c7.042-3.026 13.551-6.914 19.426-11.562zm10.902-10.313c2.909-3.296 5.576-6.831 7.971-10.591 1.653-2.594 3.145-5.247 4.481-7.946l48.221 48.221c-1.405 8.537-3.44 16.864-6.056 24.933zm55.366-49.04-40.529-40.529c-7.037-17.799-19.734-33.803-37.37-45.04-5.078-3.236-10.378-5.955-15.831-8.162l-20.234-20.233c54.299 16.744 97.222 59.666 113.964 113.964zm-141.184-119.969 19.655 19.654c-8.354-.669-16.802-.231-25.149 1.401-1.224.239-2.432.517-3.636.803l-23.23-23.23c2.955-.152 5.93-.229 8.922-.229 7.951 0 15.772.554 23.438 1.601z"/></g></g></svg>