<svg id="Layer_1" enable-background="new 0 0 512 512" height="512" viewBox="0 0 512 512" width="512" xmlns="http://www.w3.org/2000/svg"><g><g><path d="m143.064 504.498s-10.331-6.866-25.435-18.66c-13.675-10.691-31.282-25.441-48.656-42.815-36.543-36.543-61.468-74.083-61.468-74.083 88.522-107.133 213.185-221.16 213.185-221.16 30.158-12.268 60.797-21.793 85.397-28.56 30.215-8.323 51.343-12.494 51.343-12.494 26.212-25.661 26.241-22.465 26.241-22.465l44.067 44.066s4.045-.877-22.465 26.241c0 0-4.773 20.584-13.513 51.187-6.866 24.034-16.178 54.263-27.542 85.552 0 0-114.028 124.662-221.154 213.191z" fill="#77e0ab"/><path d="m364.218 291.307s-114.028 124.662-221.154 213.191c0 0-10.331-6.866-25.435-18.66 110.457-93.274 223.799-217.179 223.799-217.179 27.45-75.589 40.807-134.031 40.807-134.031 12.898-13.18 20.626-21.475 25.208-26.594l20.294 20.294s4.045-.877-22.465 26.241c0 0-4.773 20.584-13.513 51.187-6.865 24.033-16.178 54.262-27.541 85.551z" fill="#65c1b0"/><path d="m391.76 205.755s-11.434-1.845-28.546-2.199c-16.758-.339-38.969.771-61.221 6.449 12.622-49.391 4.094-90.785 4.094-90.785 30.215-8.323 51.343-12.494 51.343-12.494 26.212-25.661 26.241-22.465 26.241-22.465l44.067 44.066s4.045-.877-22.465 26.241c-.001 0-4.774 20.584-13.513 51.187z" fill="#ffe878"/><path d="m472.751 105.007c-16.525 16.525-34.351 31.749-34.351 31.749s-10.331-8.69-22.33-19.969c-3.465-3.253-7.071-6.717-10.607-10.253-15.79-15.79-30.222-32.937-30.222-32.937s15.224-17.826 31.749-34.351 34.351-31.749 34.351-31.749 17.147 14.432 32.937 30.221c3.536 3.536 7 7.142 10.253 10.607 11.278 11.999 19.969 22.33 19.969 22.33s-15.224 17.827-31.749 34.352z" fill="#ffc17d"/><path d="m504.5 70.656s-15.224 17.826-31.749 34.351-34.351 31.749-34.351 31.749-10.331-8.69-22.33-19.969c6.732-5.883 21.503-19.028 35.468-32.993s27.11-28.736 32.994-35.468c11.278 11.999 19.968 22.33 19.968 22.33z" fill="#ffaa80"/><path d="m333.339 324.972-132.045 129.711c-8.217-7.085-16.306-14.284-24.197-21.496-66.73-60.903-119.784-122.484-119.784-122.484l129.712-132.044s70.477 46.435 126.932 119.281c6.71 8.647 13.216 17.67 19.382 27.032z" fill="#ffe878"/><ellipse cx="210.367" cy="301.633" fill="#fffbd7" rx="36.265" ry="36.337" transform="matrix(.706 -.708 .708 .706 -151.769 237.644)"/><g fill="#ffd37b"><path d="m405.272 154.568s-4.773 20.584-13.513 51.187c0 0-11.434-1.845-28.546-2.199 12.756-41.535 19.021-68.928 19.021-68.928 12.898-13.18 20.626-21.475 25.208-26.594l20.294 20.294c.001-.001 4.046-.878-22.464 26.24z"/><path d="m313.957 297.94c6.711 8.648 13.216 17.67 19.382 27.032l-132.045 129.711c-8.217-7.085-16.306-14.284-24.197-21.496 55.932-51.562 106.985-103.859 136.86-135.247z"/></g></g><g><path d="m433.574 142.493c1.396 1.175 3.112 1.761 4.828 1.761 1.734 0 3.469-.6 4.87-1.797.542-.462 13.427-11.483 27.569-25.081 2.985-2.871 3.079-7.618.208-10.604-2.871-2.985-7.619-3.078-10.604-.208-8.683 8.349-17.036 15.836-22.073 20.272-6.161-5.366-17.23-15.227-27.604-25.602-10.364-10.363-20.232-21.439-25.601-27.604 5.619-6.38 16.136-18.081 27.132-29.076 10.995-10.996 22.698-21.514 29.077-27.133 6.161 5.366 17.23 15.228 27.604 25.602 10.365 10.364 20.233 21.441 25.602 27.605-1.982 2.252-4.572 5.163-7.567 8.46-1.4 1.542-2.893 3.171-4.457 4.862-2.813 3.04-2.628 7.785.413 10.599 3.039 2.812 7.785 2.628 10.599-.413 1.596-1.725 3.119-3.389 4.548-4.962 7.131-7.849 11.888-13.413 12.087-13.646 2.381-2.789 2.397-6.892.035-9.698-.598-.711-14.818-17.579-30.652-33.414-15.835-15.834-32.703-30.054-33.414-30.652-2.807-2.36-6.91-2.346-9.699.036-.736.63-18.239 15.605-34.782 32.147-16.541 16.542-31.516 34.045-32.146 34.781-2.382 2.79-2.397 6.893-.036 9.699.163.194 1.345 1.597 3.3 3.855-4.484 3.699-10.874 9.585-19.041 17.54-12.477 2.615-75.503 16.449-135.905 41.013-.823.335-1.581.813-2.237 1.413-.52.476-52.653 48.243-112.641 110.059-2.885 2.972-2.813 7.721.158 10.605 1.458 1.414 3.341 2.118 5.223 2.118 1.957 0 3.912-.762 5.383-2.276 28.099-28.955 54.459-54.806 74.54-74.103 19.379 13.738 86.908 64.382 135.123 134.98-29.523 30.705-74.482 76.207-122.785 120.536-62.149-54.366-116.621-114.582-132.78-132.829 6.214-6.775 12.611-13.659 19.184-20.642 2.839-3.016 2.694-7.763-.322-10.602-3.015-2.838-7.762-2.695-10.602.322-28.204 29.968-53.232 58.145-74.39 83.75-2.105 2.548-2.295 6.174-.466 8.927 1.034 1.559 25.766 38.579 62.421 75.233 6.146 6.147 12.734 12.379 19.582 18.522 1.433 1.285 3.223 1.918 5.006 1.918 2.057 0 4.104-.841 5.585-2.491 2.767-3.083 2.51-7.825-.573-10.591-6.647-5.964-13.037-12.008-18.992-17.965-28.22-28.219-49.628-57.358-57.379-68.36 12.365-14.825 26.007-30.497 40.792-46.866 17.523 19.725 70.872 78.394 131.77 131.837-15.494 14.003-31.232 27.764-46.826 40.771-4.833-3.4-13.155-9.425-23.302-17.463-3.248-2.572-7.964-2.024-10.536 1.222-2.572 3.247-2.024 7.964 1.222 10.536 16.74 13.261 28.398 21.028 28.886 21.353 1.263.838 2.707 1.252 4.148 1.252 1.702 0 3.398-.578 4.778-1.719 106.311-87.848 220.774-212.655 221.917-213.905.664-.727 1.18-1.577 1.516-2.502 23.145-63.73 38.004-123.817 40.826-135.553 8.016-8.237 13.94-14.651 17.65-19.107 2.243 1.941 3.636 3.115 3.83 3.278zm-75.895 144.851c-2.779 3.014-11.156 12.06-23.677 25.215-48.089-69.371-112.072-118.373-134.65-134.488 13.355-12.705 22.505-21.171 25.411-23.847 26.107-10.546 52.656-19.051 75.17-25.472 1.681 14.033 3.63 44.837-5.205 79.398-.655 2.566.091 5.288 1.963 7.161 1.425 1.424 3.34 2.196 5.304 2.196.619 0 1.243-.076 1.857-.233 31.566-8.069 63.47-6.518 78.241-5.116-6.436 22.019-14.669 48.234-24.414 75.186zm42.235-138.019c-.96.982-1.632 2.21-1.942 3.548-.078.337-4.202 17.983-11.677 44.61-12.854-1.415-42.484-3.473-74.368 2.632 6.765-34.008 4.37-62.675 2.641-75.408 26.096-6.983 43.97-10.556 44.319-10.625 1.433-.282 2.751-.978 3.794-1.999 10.912-10.685 16.907-15.976 20.085-18.57 5.036 5.549 11.087 12.021 17.395 18.328 6.32 6.32 12.805 12.382 18.361 17.425-2.634 3.188-7.944 9.151-18.608 20.059z"/><path d="m128.847 321.186c-2.703 3.139-2.351 7.874.787 10.578.271.232 27.337 23.63 50.605 50.604 1.483 1.72 3.576 2.602 5.682 2.602 1.735 0 3.479-.599 4.896-1.821 3.137-2.705 3.486-7.441.78-10.577-23.987-27.809-51.032-51.19-52.172-52.173-3.136-2.7-7.873-2.351-10.578.787z"/><path d="m210.293 272.833h.029c7.695.008 14.934 3.013 20.383 8.461 2.93 2.929 7.679 2.93 10.606.001 2.93-2.929 2.93-7.678.001-10.606-8.278-8.278-19.278-12.844-30.975-12.855h-.045c-11.686 0-22.666 4.546-30.923 12.803-8.269 8.269-12.816 19.267-12.805 30.97.012 11.697 4.577 22.697 12.855 30.975 8.277 8.277 19.278 12.843 30.976 12.854h.045c11.684 0 22.667-4.547 30.924-12.804 4.971-4.972 8.704-11.126 10.797-17.799 1.239-3.952-.96-8.161-4.912-9.4-3.953-1.24-8.161.961-9.4 4.912-1.392 4.437-3.777 8.366-7.092 11.681-5.424 5.424-12.637 8.41-20.317 8.41h-.029c-7.696-.008-14.936-3.013-20.384-8.462-5.449-5.448-8.454-12.688-8.462-20.384-.008-7.69 2.979-14.916 8.411-20.347 5.424-5.425 12.638-8.41 20.317-8.41z"/><path d="m431.909 245.427c-2.65-3.182-7.378-3.616-10.563-.965-3.183 2.649-3.615 7.379-.965 10.563 21.763 26.143 25.168 54.787 25.214 55.195.412 3.845 3.663 6.701 7.448 6.701.262 0 .527-.014.794-.042 4.119-.434 7.107-4.124 6.674-8.244-.141-1.348-3.76-33.366-28.602-63.208z"/><path d="m507.668 221.35-32.874-15.33c-3.752-1.75-8.216-.127-9.967 3.627s-.127 8.217 3.627 9.967l32.874 15.33c1.025.479 2.104.705 3.165.705 2.824 0 5.529-1.604 6.802-4.332 1.751-3.754.127-8.217-3.627-9.967z"/><path d="m201.795 66.407c.285.03 28.801 3.252 55.18 25.212 1.402 1.167 3.104 1.736 4.795 1.736 2.15 0 4.285-.92 5.768-2.701 2.65-3.184 2.218-7.913-.965-10.563-29.842-24.842-61.86-28.461-63.208-28.602-4.141-.439-7.811 2.555-8.244 6.674-.433 4.12 2.555 7.81 6.674 8.244z"/><path d="m292.387 43.546c1.272 2.729 3.977 4.332 6.802 4.332 1.062 0 2.14-.227 3.165-.705 3.754-1.75 5.378-6.213 3.627-9.967l-15.331-32.874c-1.751-3.754-6.212-5.379-9.967-3.627-3.754 1.75-5.378 6.213-3.627 9.967z"/><circle cx="358.393" cy="152.993" r="7.5"/></g></g></svg>