<svg id="Layer_1" height="512" viewBox="0 0 512 512" width="512" xmlns="http://www.w3.org/2000/svg" data-name="Layer 1"><path d="m149.15 334.1h213.7v167.06h-213.7z" fill="#c79a83"/><path d="m149.15 334.1h30v167.06h-30z" fill="#a87e6c"/><path d="m438.62 193.45a102.919 102.919 0 0 0 -3.58-10.78c-2.32-5.9-5.7-12.79-9.97-16.81a44.728 44.728 0 0 0 -32.11-13.54 46.361 46.361 0 0 0 -45.43 41.15l-.22-.02c0-100.05-40.25-181.33-90.13-182.6 100.3.63 181.44 82.15 181.44 182.6z" fill="#617c64"/><path d="m347.31 193.45.22.02a44.607 44.607 0 0 0 -.22 4.5 43.911 43.911 0 0 0 -13.55-32.11 44.728 44.728 0 0 0 -32.11-13.54 46.259 46.259 0 0 0 -45.65 45.65v-187.13c.39 0 .79 0 1.18.01 49.88 1.27 90.13 82.55 90.13 182.6z" fill="#75967a"/><path d="m256 10.84v187.13a43.911 43.911 0 0 0 -13.55-32.11 44.7 44.7 0 0 0 -32.1-13.54 46.382 46.382 0 0 0 -45.44 41.15l-.22-.02c0-100.05 40.25-181.33 90.13-182.6.39-.01.79-.01 1.18-.01z" fill="#9ac5a1"/><path d="m254.82 10.85c-49.88 1.27-90.13 82.55-90.13 182.6l.22.02a44.607 44.607 0 0 0 -.22 4.5 43.941 43.941 0 0 0 -13.54-32.11 44.745 44.745 0 0 0 -32.11-13.54 43.886 43.886 0 0 0 -32.11 13.54c-8.53 8.03-13.55 27.59-13.55 27.59a182.633 182.633 0 0 1 181.44-182.6z" fill="#b2dbb7"/><path d="m362.85 378.04v56.06h-30.47v-.05-55.96-.05z" fill="#9ac5a1"/><path d="m332.38 434.05v.05h-30.55v-.05-55.96-.05h30.55v.05z" fill="#75967a"/><path d="m301.83 434.05v.05h-30.55v-.05-55.96-.05h30.55v.05z" fill="#9ac5a1"/><path d="m276.61 453.92v47.24h-41.22v-37.99z" fill="#f3e08d"/><path d="m271.28 434.05v.05h-30.56v-.05-55.96-.05h30.56v.05z" fill="#75967a"/><path d="m240.72 434.05v.05h-30.55v-.05-55.96-.05h30.55v.05z" fill="#9ac5a1"/><path d="m210.17 434.05v.05h-30.55v-.05-55.96-.05h30.55v.05z" fill="#75967a"/><path d="m179.62 434.05v.05h-30.47v-56.06h30.47v.05z" fill="#9ac5a1"/><path d="m256 4.836c-104 0-188.618 84.614-188.618 188.619a5.974 5.974 0 0 0 1.692 4.151l-.012.012 125.745 130.482h-45.654a6 6 0 0 0 -6 6v167.063a6 6 0 0 0 6 6h213.694a6 6 0 0 0 6-6v-167.063a6 6 0 0 0 -6-6h-45.654l125.745-130.482-.013-.012a5.971 5.971 0 0 0 1.693-4.151c0-104.005-84.618-188.619-188.618-188.619zm173.836 157.292c-.192-.195-.387-.385-.583-.571a50.828 50.828 0 0 0 -72.643.06 47.384 47.384 0 0 0 -4.287 4.664c-2.878-39.4-12-75.842-26.394-104.634-8.534-17.068-18.484-30.559-29.384-40.106a177.151 177.151 0 0 1 133.291 140.587zm-167.836-144.844c19.8 2.933 38.5 20.328 53.2 49.729 13.3 26.6 21.873 60.2 24.893 96.721-.694-.747-1.4-1.479-2.148-2.18a50.827 50.827 0 0 0 -72.639.063 46.97 46.97 0 0 0 -3.306 3.483zm0 180.686a38.093 38.093 0 0 1 11.658-27.74c.088-.083.174-.169.257-.257a38.093 38.093 0 0 1 27.74-11.658 38.767 38.767 0 0 1 27.866 11.785c.042.042.086.084.13.126a37.976 37.976 0 0 1 11.624 26.386l-65.933 131.488h-13.342zm-12-180.686v147.816a47.318 47.318 0 0 0 -3.367-3.544 50.828 50.828 0 0 0 -72.641.062c-.719.682-1.408 1.393-2.081 2.117 3.02-36.524 11.6-70.124 24.893-96.721 14.701-29.402 33.401-46.797 53.196-49.73zm0 180.686v130.13h-12.611l-66.664-131.5a37.977 37.977 0 0 1 11.624-26.373c.088-.083.174-.169.257-.257a38.092 38.092 0 0 1 27.739-11.658 38.765 38.765 0 0 1 27.866 11.788l.131.126a38.093 38.093 0 0 1 11.658 27.744zm-34.545-176.429c-10.9 9.547-20.85 23.038-29.384 40.106-14.4 28.792-23.516 65.229-26.394 104.635a47.219 47.219 0 0 0 -4.353-4.727 50.827 50.827 0 0 0 -72.645.067q-.26.248-.515.506a177.151 177.151 0 0 1 133.291-140.587zm-135.355 170.24c1.941-6.277 5.969-16.874 10.938-21.551.088-.083.174-.169.257-.257a38.093 38.093 0 0 1 27.74-11.658 38.769 38.769 0 0 1 27.865 11.785l.13.126c7.409 6.973 11.658 19.084 11.658 29.74l65.228 128.134h-12.445zm75.051 192.256h18.472v44.063h-18.47zm115.454 111.126h-29.205v-27.185l29.21-6.558zm86.242 0h-74.242v-41.239a6 6 0 0 0 -7.314-5.855l-41.21 9.251a6 6 0 0 0 -4.686 5.855v31.988h-74.242v-55.063h201.694zm-171.222-67.063v-44.063h18.55v44.063zm30.55 0v-44.063h18.55v44.063zm30.55 0v-44.063h18.55v44.063zm30.55 0v-44.063h18.55v44.063zm30.55 0v-44.063h18.55v44.063zm49.022 0h-18.472v-44.063h18.472zm0-88v31.94h-201.694v-31.94zm-56.318-12h-11.775l64.555-129.13c0-10.656 4.249-21.767 11.658-28.74.088-.083.174-.169.257-.257a38.091 38.091 0 0 1 27.739-11.658 38.765 38.765 0 0 1 27.866 11.785l.131.126c4.95 4.659 8.987 15.27 10.935 21.554z" fill="#284268"/></svg>