<svg id="Capa_1" enable-background="new 0 0 511.022 511.022" height="512" viewBox="0 0 511.022 511.022" width="512" xmlns="http://www.w3.org/2000/svg"><g><g><circle cx="256.171" cy="253.284" fill="#f7d8a4" r="248.011"/><path d="m61.518 252.284c0-126.324 94.454-230.606 216.584-246.055-7.225-.633-14.542-.956-21.931-.956-136.973 0-248.011 111.038-248.011 248.011s111.038 248.011 248.011 248.011c10.649 0 21.132-.667 31.428-1.969-126.703-11.099-226.081-117.458-226.081-247.042z" fill="#f5cd8b"/><circle cx="256.171" cy="253.284" fill="#f8deb6" r="209.728"/><path d="m121.68 414.219c-37.514-43.451-60.162-100.023-60.162-161.935 0-58.54 20.281-112.344 54.201-154.766-42.543 38.384-69.276 93.955-69.276 155.766 0 64.667 29.226 122.463 75.237 160.935z" fill="#f7d8a4"/><g><g><g id="XMLID_226_"><g><circle cx="256.171" cy="253.284" fill="#f5cd8b" r="179.73"/></g></g><path d="m194.829 81.07 233.555 233.555" fill="#f7d8a4"/><circle cx="190.339" cy="255.272" fill="#f8f7f8" r="75.779"/><path d="m144.49 257.371c0-38.55 28.778-70.38 66.027-75.161-6.432-1.775-13.183-2.716-20.178-2.716-41.852 0-75.779 33.927-75.779 75.779s33.927 75.779 75.779 75.779c3.302 0 6.519-.207 9.709-.616-32.044-8.842-55.558-38.209-55.558-73.065z" fill="#efedee"/><circle cx="298.738" cy="318.405" fill="#f8f7f8" r="75.779"/><path d="m249.771 320.487c0-7.835 1.189-15.392 3.397-22.5 2.459-7.917 10.827-12.421 18.784-10.095 8.504 2.486 17.492 3.824 26.785 3.824 22.341 0 42.934-7.697 59.251-20.558-10.05-12.587-24.034-21.88-40.081-26.065.013-.001.026-.004.039-.005-.208-.054-.42-.101-.629-.154-.125-.031-.248-.069-.373-.1l-.012.006c-5.83-1.438-11.921-2.215-18.195-2.215-41.852 0-75.779 33.928-75.779 75.779s33.927 75.779 75.779 75.779c2.567 0 5.103-.131 7.604-.38-32.549-8.504-56.57-38.102-56.57-73.316zm66.218-75.157-46.414 24.081c11.832-12.958 28.109-21.775 46.414-24.081z" fill="#efedee"/><circle cx="298.738" cy="195.854" fill="#f8f7f8" r="80.862"/><path d="m247.009 195.854c0-39.683 28.575-72.699 66.278-79.561-4.728-.861-9.572-1.301-14.549-1.301-44.659 0-80.862 36.203-80.862 80.862s36.203 80.862 80.862 80.862c4.976 0 9.859-.452 14.586-1.312-37.702-6.864-66.315-39.867-66.315-79.55z" fill="#efedee"/></g></g></g><g><path d="m323.654 198.466-1.724-2.612 1.725-2.612c2.393-3.627 2.528-8.217.356-11.979-2.173-3.762-6.211-5.958-10.553-5.68l-3.125.186-1.4-2.798c-1.944-3.886-5.851-6.299-10.195-6.299-4.346 0-8.253 2.414-10.196 6.299l-1.4 2.798-3.125-.186c-4.337-.277-8.381 1.918-10.553 5.68-2.172 3.763-2.036 8.353.357 11.98l1.724 2.612-1.725 2.612c-2.393 3.627-2.528 8.217-.356 11.979 2.174 3.762 6.222 5.961 10.553 5.68l3.125-.186 1.399 2.797c1.944 3.886 5.852 6.3 10.197 6.3s8.252-2.414 10.195-6.299l1.4-2.798 3.125.186c4.345.273 8.381-1.917 10.553-5.68s2.037-8.352-.357-11.98zm-24.916 7.347c-1.96-2.897-5.14-4.733-8.625-4.98 1.527-3.143 1.527-6.813-.001-9.959 3.486-.247 6.666-2.082 8.625-4.979 1.96 2.897 5.14 4.733 8.625 4.98-1.527 3.143-1.527 6.813.001 9.959-3.486.247-6.666 2.082-8.625 4.979z"/><path d="m298.737 158.72c4.143 0 7.5-3.357 7.5-7.5v-10.221c0-4.143-3.357-7.5-7.5-7.5s-7.5 3.357-7.5 7.5v10.221c0 4.142 3.358 7.5 7.5 7.5z"/><path d="m330.299 171.793c1.919 0 3.839-.732 5.304-2.196l7.228-7.228c2.929-2.93 2.929-7.678 0-10.607-2.93-2.928-7.678-2.928-10.607 0l-7.228 7.228c-2.929 2.93-2.929 7.678 0 10.607 1.464 1.464 3.384 2.196 5.303 2.196z"/><path d="m343.372 188.354c-4.143 0-7.5 3.357-7.5 7.5s3.357 7.5 7.5 7.5h10.221c4.143 0 7.5-3.357 7.5-7.5s-3.357-7.5-7.5-7.5z"/><path d="m335.603 222.111c-2.93-2.928-7.678-2.928-10.607 0-2.929 2.93-2.929 7.678 0 10.607l7.228 7.228c1.465 1.464 3.385 2.196 5.304 2.196s3.839-.732 5.304-2.196c2.929-2.93 2.929-7.678 0-10.607z"/><path d="m298.737 232.988c-4.143 0-7.5 3.357-7.5 7.5v10.221c0 4.143 3.357 7.5 7.5 7.5s7.5-3.357 7.5-7.5v-10.221c0-4.142-3.357-7.5-7.5-7.5z"/><path d="m261.873 222.111-7.228 7.228c-2.929 2.93-2.929 7.678 0 10.607 1.465 1.464 3.385 2.196 5.304 2.196s3.839-.732 5.304-2.196l7.228-7.228c2.929-2.93 2.929-7.678 0-10.607-2.93-2.927-7.678-2.927-10.608 0z"/><path d="m261.604 195.854c0-4.143-3.357-7.5-7.5-7.5h-10.221c-4.143 0-7.5 3.357-7.5 7.5s3.357 7.5 7.5 7.5h10.221c4.142 0 7.5-3.357 7.5-7.5z"/><path d="m261.873 169.597c1.465 1.464 3.385 2.196 5.304 2.196s3.839-.732 5.304-2.196c2.929-2.93 2.929-7.678 0-10.607l-7.228-7.228c-2.93-2.928-7.678-2.928-10.607 0-2.929 2.93-2.929 7.678 0 10.607z"/><path d="m215.354 267.22c2.127-3.685 1.994-8.18-.35-11.734l-1.453-2.201 1.454-2.204c2.343-3.551 2.477-8.046.349-11.73s-6.09-5.821-10.334-5.562l-2.635.156-1.181-2.358c-1.904-3.806-5.729-6.17-9.985-6.17s-8.081 2.364-9.983 6.167l-1.183 2.361-2.636-.156c-4.252-.256-8.206 1.878-10.333 5.562-2.128 3.685-1.994 8.18.349 11.73l1.454 2.204-1.454 2.204c-2.343 3.552-2.476 8.047-.349 11.731s6.078 5.82 10.334 5.562l2.635-.157 1.181 2.359c1.904 3.806 5.729 6.17 9.985 6.17s8.081-2.364 9.984-6.169l1.182-2.36 2.635.157c4.242.248 8.206-1.879 10.334-5.562zm-24.135-5.36c-1.805-2.361-4.479-3.906-7.428-4.288 1.144-2.743 1.143-5.832 0-8.576 2.948-.382 5.624-1.926 7.428-4.288 1.805 2.362 4.479 3.907 7.427 4.288-1.143 2.743-1.143 5.832.001 8.576-2.949.382-5.625 1.927-7.428 4.288z"/><path d="m191.219 218.856c4.143 0 7.5-3.357 7.5-7.5v-9.602c0-4.143-3.357-7.5-7.5-7.5s-7.5 3.357-7.5 7.5v9.602c0 4.143 3.357 7.5 7.5 7.5z"/><path d="m226.17 277.628c-2.93-2.928-7.678-2.928-10.607 0-2.929 2.93-2.929 7.678 0 10.607l6.789 6.789c1.465 1.464 3.385 2.196 5.304 2.196s3.839-.732 5.304-2.196c2.929-2.93 2.929-7.678 0-10.607z"/><path d="m191.219 287.712c-4.143 0-7.5 3.357-7.5 7.5v9.601c0 4.143 3.357 7.5 7.5 7.5s7.5-3.357 7.5-7.5v-9.601c0-4.143-3.358-7.5-7.5-7.5z"/><path d="m156.268 277.628-6.789 6.789c-2.929 2.93-2.929 7.678 0 10.607 1.465 1.464 3.385 2.196 5.304 2.196s3.839-.732 5.304-2.196l6.789-6.789c2.929-2.93 2.929-7.678 0-10.607-2.931-2.928-7.679-2.928-10.608 0z"/><path d="m156.791 253.284c0-4.143-3.357-7.5-7.5-7.5h-9.602c-4.143 0-7.5 3.357-7.5 7.5s3.357 7.5 7.5 7.5h9.602c4.143 0 7.5-3.357 7.5-7.5z"/><path d="m156.268 228.94c1.465 1.464 3.385 2.196 5.304 2.196s3.839-.732 5.304-2.196c2.929-2.93 2.929-7.678 0-10.607l-6.789-6.789c-2.93-2.928-7.678-2.928-10.607 0-2.929 2.93-2.929 7.678 0 10.607z"/><path d="m290.41 297.119-1.104 2.208-2.463-.146c-4.234-.259-8.146 1.863-10.258 5.521s-1.979 8.119.347 11.644l1.359 2.06-1.358 2.06c-2.326 3.525-2.459 7.987-.348 11.645s6.068 5.769 10.257 5.521l2.464-.146 1.104 2.207c1.89 3.776 5.688 6.122 9.91 6.122s8.021-2.346 9.91-6.123l1.104-2.206 2.462.146c4.229.252 8.146-1.864 10.258-5.521 2.111-3.657 1.979-8.119-.347-11.644l-1.359-2.061 1.358-2.059c2.326-3.525 2.459-7.987.348-11.645s-6.047-5.777-10.257-5.521l-2.463.146-1.104-2.206v-.001c-1.89-3.776-5.688-6.122-9.91-6.122s-8.02 2.346-9.91 6.121zm2.89 17.234c2.769-.415 5.278-1.863 7.021-4.053 1.742 2.188 4.251 3.638 7.02 4.052-1.025 2.604-1.025 5.502 0 8.105-2.768.415-5.277 1.864-7.02 4.053-1.743-2.189-4.252-3.638-7.021-4.052 1.025-2.604 1.025-5.502 0-8.105z"/><path d="m341.447 325.904h9.419c4.143 0 7.5-3.357 7.5-7.5s-3.357-7.5-7.5-7.5h-9.419c-4.143 0-7.5 3.357-7.5 7.5s3.358 7.5 7.5 7.5z"/><path d="m324.099 352.79 6.66 6.659c1.465 1.464 3.384 2.196 5.303 2.196s3.839-.732 5.304-2.197c2.929-2.929 2.929-7.678-.001-10.606l-6.66-6.659c-2.93-2.928-7.677-2.929-10.606.001-2.93 2.928-2.93 7.677 0 10.606z"/><path d="m300.32 352.032c-4.143 0-7.5 3.357-7.5 7.5v9.418c0 4.143 3.357 7.5 7.5 7.5s7.5-3.357 7.5-7.5v-9.418c0-4.142-3.357-7.5-7.5-7.5z"/><path d="m265.935 342.183-6.659 6.659c-2.929 2.93-2.929 7.678 0 10.607 1.465 1.464 3.385 2.196 5.304 2.196s3.839-.732 5.304-2.196l6.659-6.659c2.929-2.93 2.929-7.678 0-10.607-2.931-2.928-7.679-2.928-10.608 0z"/><path d="m409.114 101.908c-41.028-41.029-95.58-63.625-153.604-63.625-37.816 0-75.062 9.873-107.713 28.551-3.595 2.057-4.842 6.639-2.785 10.234s6.638 4.841 10.234 2.785c30.385-17.383 65.056-26.57 100.264-26.57 111.509 0 202.229 90.719 202.229 202.228s-90.72 202.229-202.229 202.229c-111.508 0-202.227-90.72-202.227-202.229 0-61.961 27.844-119.66 76.392-158.304 3.241-2.58 3.776-7.298 1.197-10.539-2.58-3.24-7.3-3.776-10.539-1.197-52.144 41.507-82.05 103.483-82.05 170.04 0 58.024 22.596 112.575 63.624 153.604s95.579 63.625 153.603 63.625 112.575-22.596 153.604-63.625c41.029-41.028 63.625-95.579 63.625-153.604 0-58.024-22.595-112.574-63.625-153.603z"/><path d="m436.185 74.837c-48.259-48.259-112.424-74.837-180.674-74.837-68.249 0-132.414 26.578-180.674 74.837-48.259 48.26-74.837 112.425-74.837 180.674s26.578 132.414 74.837 180.674c48.26 48.26 112.425 74.838 180.674 74.838 68.25 0 132.414-26.578 180.674-74.838s74.838-112.424 74.838-180.674c-.001-68.249-26.579-132.414-74.838-180.674zm-10.607 350.741c-45.427 45.427-105.824 70.444-170.067 70.444s-124.641-25.017-170.067-70.444-70.444-105.824-70.444-170.067 25.018-124.641 70.444-170.067 105.824-70.444 170.067-70.444 124.641 25.018 170.067 70.444c45.427 45.426 70.444 105.823 70.444 170.066s-25.017 124.641-70.444 170.068z"/><path d="m68.283 255.511c0 103.237 83.99 187.228 187.228 187.228s187.228-83.99 187.228-187.228-83.991-187.228-187.228-187.228-187.228 83.99-187.228 187.228zm172.128-125.973-37.9-37.9c8.069-2.616 16.396-4.65 24.933-6.056l31.428 31.428c-6.687 3.396-12.884 7.617-18.461 12.528zm-10.386 10.829c-4.712 5.824-8.705 12.253-11.832 19.157l-51.514-51.513c6.542-3.954 13.369-7.48 20.438-10.551zm197.713 115.144c0 2.992-.078 5.967-.229 8.922l-43.916-43.916c2.28-7.831 3.507-16.105 3.507-24.662 0-.957-.019-1.914-.05-2.87l39.087 39.087c1.048 7.667 1.601 15.489 1.601 23.439zm-50.157-19.791 47.858 47.858c-1.405 8.538-3.44 16.864-6.056 24.933l-54.33-54.33c4.912-5.577 9.134-11.775 12.528-18.461zm-1.891 50.312 37.871 37.872c-3.071 7.069-6.596 13.896-10.551 20.438l-20.855-20.854c.104-1.683.173-3.375.173-5.083.001-11.312-2.306-22.289-6.638-32.373zm-29.025-15.977c13.184 12.618 20.664 29.939 20.664 48.349 0 36.949-30.06 67.01-67.009 67.01-17.507 0-34.066-6.711-46.628-18.896-11.456-11.113-18.453-25.684-20.011-41.413 3.567-2.107 6.993-4.468 10.226-7.103 12.326-10.052 21.526-23.484 26.503-38.442 8.896 3.019 18.424 4.656 28.327 4.656 17.654 0 34.113-5.207 47.928-14.161zm-28.622 145.93-15.625-15.624c9.13-.231 17.901-1.936 26.062-4.928l10.616 10.616c-6.754 3.764-13.782 7.093-21.053 9.936zm24.753-27.451c6.318-3.841 12.063-8.527 17.115-13.875l9.722 9.722c-5.505 4.881-11.319 9.419-17.417 13.573zm-151.577-66.792c-37.748 0-68.458-30.71-68.458-68.458s30.71-68.458 68.458-68.458c6.661 0 13.208.967 19.539 2.858-.248 2.691-.381 5.416-.381 8.17 0 33.481 18.719 62.673 46.24 77.66-8.758 28.262-35.387 48.228-65.398 48.228zm-74.134-106.717-22.048-22.048c2.843-7.271 6.171-14.299 9.936-21.052l24.875 24.875c-5.025 5.455-9.321 11.583-12.763 18.225zm-6.049 15.166c-2.117 7.339-3.275 15.081-3.275 23.093 0 1.6.056 3.187.145 4.765l-23.361-23.361c1.069-8.83 2.803-17.457 5.161-25.827zm98.236-58.374c-5.905-1.31-11.938-1.991-18.053-1.991-4.692 0-9.288.409-13.771 1.156l-40.385-40.385c5.32-5.047 10.965-9.753 16.893-14.095zm-48.442 3.762c-7.151 2.807-13.829 6.558-19.864 11.124l-27.898-27.898c4.153-6.098 8.691-11.912 13.572-17.417zm-65.435 143.379 96.668 96.668c-44.015-17.503-79.165-52.653-96.668-96.668zm126.738 105.522-135.592-135.591c-2.13-10.802-3.258-21.96-3.258-33.378 0-.287.01-.572.011-.858l30.27 30.27c.216.216.444.411.678.594 8.445 20.092 24.531 36.21 44.606 44.69l39.354 39.354c1.465 1.464 3.384 2.196 5.304 2.196 1.919 0 3.839-.732 5.304-2.196 2.929-2.93 2.929-7.678 0-10.607l-22.356-22.356c1.578.089 3.166.145 4.766.145 9.669 0 19.223-1.701 28.222-4.934 2.827 17.247 11.061 33.112 23.807 45.476 9.985 9.686 22.04 16.524 35.128 20.144.208.275.436.539.686.79l23.098 23.097c-8.37 2.358-16.998 4.093-25.828 5.161l-44.125-44.125c-2.93-2.928-7.678-2.928-10.607 0-2.929 2.93-2.929 7.678 0 10.607l34.769 34.769c-.286.001-.571.011-.858.011-11.419-.001-22.577-1.128-33.379-3.259zm158.291-50.522-11.187-11.187c4.205-6.51 7.513-13.645 9.75-21.24l15.533 15.533c-4.343 5.928-9.048 11.574-14.096 16.894zm39.707-169.106-35.986-35.986c-.516-.516-1.09-.938-1.699-1.272-1.447-4.292-3.218-8.474-5.311-12.492-1.915-3.673-6.444-5.1-10.117-3.188-3.674 1.914-5.101 6.443-3.188 10.117 5.486 10.533 8.269 21.913 8.269 33.822 0 40.451-32.91 73.361-73.362 73.361-40.451 0-73.361-32.91-73.361-73.361 0-40.452 32.91-73.362 73.361-73.362 16.979 0 33.534 5.936 46.615 16.713 3.196 2.634 7.924 2.179 10.558-1.019s2.178-7.924-1.019-10.558c-8.155-6.719-17.434-11.86-27.319-15.273-.157-.193-.32-.383-.5-.562l-20.903-20.902c54.298 16.743 97.22 59.665 113.962 113.962zm-141.182-119.967 22.67 22.67c-.96-.032-1.92-.063-2.882-.063-8.557 0-16.832 1.227-24.663 3.507l-27.486-27.487c2.955-.152 5.93-.229 8.923-.229 7.949 0 15.771.554 23.438 1.602z"/></g></g></svg>