<svg id="Layer_1" enable-background="new 0 0 512 512" height="512" viewBox="0 0 512 512" width="512" xmlns="http://www.w3.org/2000/svg"><g><g><g><path d="m488.495 240.399c0 35.9-8.1 69.89-22.58 100.26h-.01c-16.12 33.82-40.14 63.13-69.68 85.53h-280.46c-17.84-13.53-33.67-29.58-46.95-47.62h-.01c-28.48-38.65-45.31-86.44-45.31-138.17 0-116.11 84.81-212.37 195.77-230.01 11.97-1.9 24.23-2.89 36.73-2.89 128.41.001 232.5 104.271 232.5 232.9z" fill="#d2e1f9"/><path d="m488.495 240.399c0 35.9-8.1 69.89-22.58 100.26h-.01c-16.12 33.82-40.14 63.13-69.68 85.53h-34.52c56.78-41.94 93.61-109.36 93.61-185.37 0-127.2-103.12-230.32-230.32-230.32-2.11 0-4.02-.04-5.73-.11 11.97-1.9 24.23-2.89 36.73-2.89 128.41.001 232.5 104.271 232.5 232.9z" fill="#bdcde5"/><path d="m465.905 340.659c-16.12 33.82-40.14 63.13-69.68 85.53h-280.46c-17.84-13.53-33.67-29.58-46.95-47.62 0 0 47.81-49.84 137.11-28.99 69.31 16.18 90.68 21.93 135.5 21.93 33.89 0 59.85-4.67 80.53-11.22 18.12-5.73 32.18-12.9 43.95-19.63z" fill="#dcf8ff"/><path d="m419.685 496.669s-12.01 1.16-31.47 2.57c-31.19 2.29-81.53 5.26-132.22 5.26-82.3 0-163.69-7.83-163.69-7.83 8.6-46.46 23.46-70.48 23.46-70.48s66.27-3 140.23-3c42.75 0 82.94 1 109.23 1.85 19.2.62 31 1.15 31 1.15s14.86 24.02 23.46 70.48z" fill="#58768c"/><path d="m419.685 496.669s-12.01 1.16-31.47 2.57c-7.17-33.92-17.25-60.55-22.99-74.2 19.2.62 31 1.15 31 1.15s14.86 24.02 23.46 70.48z" fill="#3e5868"/><path d="m465.905 340.659c-16.12 33.82-40.14 63.13-69.68 85.53h-34.52c24.11-17.8 44.62-40.2 60.25-65.9 18.12-5.73 32.18-12.9 43.95-19.63z" fill="#d2e1f9"/></g><path d="m304.659 198.929c0 26.8-21.74 42.21-48.54 42.21-8.5 0-16.5-1.55-23.45-4.53-14.96-6.39-25.09-19.38-25.09-37.68 0-7.17 1.55-14.42 4.34-21.21l60.91-.14 27.4-.06c2.841 6.84 4.43 14.17 4.43 21.41z" fill="#fff"/><path d="m304.659 198.929c0 26.8-21.74 42.21-48.54 42.21-8.5 0-16.5-1.55-23.45-4.53 41.22-11.54 43.61-40.23 40.16-59.03l27.4-.06c2.841 6.84 4.43 14.17 4.43 21.41z" fill="#dcf8ff"/><path d="m330.39 315.839c0 24.42-11.78 42.65-29.97 53.42l-7.54-1.55-103.58-21.29c-4.78-8.69-7.46-18.94-7.46-30.58 0-32.85 21.33-66.93 50.89-79.2h46.77c29.56 12.27 50.89 46.35 50.89 79.2z" fill="#fff"/><path d="m330.39 315.839c0 24.42-11.78 42.65-29.97 53.42l-7.54-1.55c7.7-10.05 12.17-22.75 12.17-37.8 0-49.88-32.42-79.65-60.85-93.27h35.3c29.56 12.27 50.89 46.35 50.89 79.2z" fill="#dcf8ff"/><path d="m290.76 139.109c9.16 12.23 16.6 37.7 16.6 37.7-9.17 1.01-18.33 1.66-27.21 2.06-42.53 1.92-78.61-2.06-78.61-2.06 21.46-92.8 99.25-62.04 111.35-56.63 1.04.46 1.59.74 1.59.74-14.94 7.361-23.72 18.19-23.72 18.19z" fill="#ff5f85"/><path d="m290.76 139.109c9.16 12.23 16.6 37.7 16.6 37.7-9.17 1.01-18.33 1.66-27.21 2.06-3.79-19.37-17.37-41.77-17.37-41.77 11.6-11.08 35.3-15.32 50.11-16.92 1.04.46 1.59.74 1.59.74-14.94 7.361-23.72 18.19-23.72 18.19z" fill="#b2527e"/></g><g><path d="m470.075 349.194c17.202-33.899 25.925-70.502 25.925-108.791 0-64.554-25.191-125.151-70.935-170.63-2.937-2.921-7.685-2.905-10.606.03-2.921 2.938-2.907 7.687.03 10.606 42.891 42.644 66.511 99.464 66.511 159.994 0 33.428-7.171 65.605-20.649 94.793-25.65 14.422-59.992 28.81-118.925 28.81-7.877 0-14.983-.174-21.746-.553 5.618-5.936 10.049-12.781 13.107-20.326 1.556-3.839-.295-8.212-4.134-9.769-3.84-1.556-8.212.296-9.769 4.134-3.936 9.714-10.89 17.97-20.185 24.005-20.46-2.686-42.041-7.74-78.002-16.164l-13.067-3.058c-4.562-1.065-9.019-1.949-13.37-2.669-3.266-7.108-4.919-15.086-4.919-23.769 0-27.535 16.477-55.745 39.323-68.846-1.987 8.511-3.557 22.004-.111 38.739.73 3.547 3.853 5.989 7.338 5.989.501 0 1.01-.051 1.521-.156 4.057-.835 6.669-4.801 5.833-8.858-3.268-15.872-1.153-28.142.593-34.498 4.448.296 9.146.471 14.039.471 8.115 0 16.765-.482 25.689-1.693 19.421 11.11 34.44 33.151 38.36 57.169.601 3.68 3.782 6.293 7.394 6.293.401 0 .808-.032 1.217-.099 4.088-.668 6.861-4.522 6.194-8.61-.805-4.929-2.011-9.791-3.578-14.53 5.251-2 13.32-4.975 23.339-8.354 13.932 8.342 26.918 11.252 27.504 11.381.541.118 1.08.176 1.611.176 3.44 0 6.536-2.386 7.31-5.884.894-4.039-1.659-8.04-5.695-8.941-.073-.016-4.256-.97-10.175-3.309 7.519-2.275 15.583-4.571 23.987-6.75 4.01-1.039 6.418-5.132 5.378-9.142-1.039-4.009-5.126-6.419-9.142-5.378-31.637 8.202-58.035 17.793-69.892 22.336-5.928-11.696-14.066-22.15-23.648-30.345 1.938-.511 3.88-1.063 5.824-1.657 3.961-1.212 6.189-5.405 4.978-9.366-1.212-3.96-5.403-6.189-9.366-4.978-.708.217-1.416.427-2.125.631 5.842-7.901 9.114-17.676 9.114-28.705 0-4.981-.668-10.113-1.96-15.176 1.372-.56 2.563-1.521 3.402-2.778 1.231-1.844 1.584-4.139.962-6.268-.28-.959-6.175-20.963-14.283-34.746 3.553-3.396 9.555-8.386 17.518-12.313 2.555-1.26 4.176-3.857 4.184-6.706.008-2.848-1.599-5.455-4.146-6.729-1.727-.863-42.697-20.947-78.819-3.942-22.18 10.44-37.246 32.259-44.781 64.849-.482 2.087-.05 4.28 1.189 6.027s3.166 2.882 5.295 3.117c.152.017.546.06 1.163.123-1.188 4.858-1.802 9.77-1.802 14.542 0 11.002 3.256 20.757 9.071 28.648-1.309-.343-2.031-.558-2.089-.575-3.952-1.207-8.147 1.02-9.359 4.979-1.212 3.961 1.017 8.154 4.978 9.366.397.121 2.436.733 5.824 1.555-6.468 5.484-12.237 11.963-17.11 19.13-5.167-1.971-13.453-5.033-23.933-8.566-.897-9.462-3.643-18.555-3.781-19.009-1.207-3.96-5.392-6.191-9.356-4.985-3.961 1.205-6.195 5.395-4.992 9.355.02.068 1.275 4.241 2.257 9.49-9.49-2.958-20.03-6.025-31.196-8.92-4.009-1.041-8.102 1.367-9.142 5.378-1.04 4.009 1.368 8.103 5.378 9.142 29.421 7.627 54.886 16.684 67.193 21.3-6.045 12.646-9.477 26.611-9.477 40.625 0 7.662 1.049 14.929 3.129 21.729-33.359-2.567-59.295 4.446-76.525 11.792-14.43 6.152-24.792 13.294-30.929 18.185-25.247-36.892-39.018-80.813-39.018-127.139 0-44.844 13.109-88.157 37.911-125.259 2.302-3.443 1.376-8.102-2.067-10.403-3.442-2.301-8.101-1.376-10.403 2.067-26.457 39.578-40.441 85.774-40.441 133.595 0 38.289 8.723 74.892 25.925 108.791 15.433 30.414 37.56 57.609 64.223 79.002-5.04 10.011-14.808 32.526-21.209 67.108-.383 2.067.12 4.201 1.386 5.88s3.178 2.749 5.271 2.951c.816.078 82.69 7.865 164.404 7.865s163.586-7.787 164.404-7.865c2.093-.202 4.005-1.272 5.271-2.951s1.769-3.813 1.386-5.88c-6.4-34.582-16.168-57.097-21.209-67.108 26.662-21.394 48.789-48.588 64.223-79.002zm-211.945-115.59c-1.951 0-3.87-.03-5.753-.086-19.129-1.24-37.301-12.077-37.301-34.594 0-4.333.684-8.853 1.997-13.299 9.841.65 23.458 1.287 39.059 1.287 12.081-.001 25.355-.383 38.982-1.437 1.342 4.493 2.041 9.064 2.041 13.448 0 23.194-19.278 33.996-39.025 34.681zm-12.804-109.729c18.273-8.64 39.043-5.189 52.277-1.28-7.909 5.982-12.4 11.455-12.672 11.79-2.168 2.671-2.24 6.474-.177 9.226 4.821 6.429 9.529 18.01 12.575 26.635-35.978 3.059-70.64 1.109-86.29-.118 6.854-23.188 18.363-38.727 34.287-46.253zm148.5 294.706c-13.302-.557-72.956-2.892-137.826-2.892-13.562 0-27.831.103-42.413.304-4.142.057-7.453 3.461-7.396 7.603s3.414 7.469 7.603 7.396c14.513-.2 28.713-.302 42.206-.302 62.429 0 120.002 2.172 135.701 2.816 3.794 7.319 12.615 26.422 19.001 56.435-22.717 1.943-88.779 7.059-154.702 7.059s-131.985-5.116-154.702-7.06c6.388-30.022 15.212-49.127 18.999-56.436 8.251-.339 28.059-1.103 53.885-1.744 4.141-.104 7.414-3.544 7.312-7.685-.102-4.077-3.438-7.313-7.494-7.313-.063 0-.127.001-.19.002-27.639.687-48.433 1.513-55.636 1.816-14.836-11.525-27.974-24.606-39.261-38.932 5.269-4.249 14.909-11.038 28.612-16.788 29.015-12.173 61.548-14.186 96.697-5.979l13.056 3.055c37.208 8.715 59.791 14.005 82.032 16.734.143.021.286.039.43.052 13.025 1.579 25.964 2.282 41.688 2.282 48.54 0 81.435-9.294 106.528-20.665-14.013 22.809-32.22 43.222-54.13 60.242z"/><path d="m80.668 87.257c1.444 1.342 3.276 2.006 5.104 2.006 2.013 0 4.019-.805 5.496-2.395 42.436-45.674 102.479-71.868 164.732-71.868 47.432 0 92.791 14.608 131.173 42.246 3.361 2.421 8.05 1.659 10.469-1.703 2.421-3.361 1.658-8.049-1.703-10.469-40.952-29.488-89.341-45.074-139.939-45.074-33.919 0-66.708 6.947-97.455 20.648-29.697 13.233-56.03 32.077-78.266 56.009-2.819 3.035-2.645 7.781.389 10.6z"/><circle cx="143.035" cy="197.083" r="7.5"/><circle cx="89.705" cy="176.253" r="7.5"/><circle cx="78.765" cy="302.593" r="7.5"/><circle cx="164.595" cy="119.213" r="7.5"/><circle cx="215.825" cy="56.703" r="7.5"/><circle cx="292.175" cy="66.883" r="7.5"/><circle cx="385.605" cy="128.323" r="7.5"/><circle cx="389.295" cy="205.433" r="7.5"/><circle cx="436.795" cy="302.593" r="7.5"/></g></g></svg>