<svg id="Layer_1" height="512" viewBox="0 0 512 512" width="512" xmlns="http://www.w3.org/2000/svg" data-name="Layer 1"><path d="m455.74 353.11-13.06 122.41a15.992 15.992 0 0 1 -15.9 14.3h-81.34a16 16 0 0 1 -15.91-14.3l-13.56-127.1c11.06.76 12.31 4.8 25.65 4.8 14.72 0 14.72-4.93 29.44-4.93s14.71 4.93 29.43 4.93 14.72-4.93 29.44-4.93c13.4 0 14.61 4.09 25.81 4.82z" fill="#97c9fa"/><path d="m464.711 269.07-8.971 84.04c-11.2-.73-12.41-4.82-25.81-4.82-14.72 0-14.72 4.93-29.44 4.93s-14.72-4.93-29.43-4.93-14.72 4.93-29.44 4.93c-13.34 0-14.59-4.04-25.65-4.8l-8.47-79.35z" fill="#deedfd"/><path d="m359.53 475.521-13.07-122.509c-1.426.132-3.019.208-4.84.208-13.34 0-14.59-4.04-25.65-4.8l13.56 127.1a16 16 0 0 0 15.91 14.3h30a16 16 0 0 1 -15.91-14.299z" fill="#79bcf2"/><path d="m307.5 269.07 8.47 79.35c11.06.76 12.31 4.8 25.65 4.8 1.835 0 3.438-.078 4.873-.212l-8.993-83.938z" fill="#97c9fa"/><path d="m355.971 350.879.643-.215a.607.607 0 0 0 -.643.215z" fill="#97c9fa"/><path d="m92.41 89.85h-.06a12.939 12.939 0 0 1 -.84-25.85q.42-.03.84-.03h100.34q.42 0 .84.03a12.939 12.939 0 0 1 -.84 25.85z" fill="#97c9fa"/><path d="m193.53 63.97v.03q-.42-.03-.84-.03h-100.34q-.42 0-.84.03v-37.821a4 4 0 0 1 4-4h94.02a4 4 0 0 1 4 4z" fill="#da9e7b"/><path d="m237.75 266.85v192.97a30 30 0 0 1 -30 30h-130.46a30 30 0 0 1 -30-30v-198.43h.38c10.92 1.89 14.54 6.23 31.12 6.23 21.2 0 21.2-7.1 42.41-7.1s21.2 7.1 42.41 7.1 21.21-7.1 42.41-7.1c16.89 0 20.33 4.5 31.73 6.33z" fill="#97c9fa"/><path d="m237.75 247.81v19.04c-11.4-1.83-14.84-6.33-31.73-6.33-21.2 0-21.2 7.1-42.41 7.1s-21.21-7.1-42.41-7.1-21.21 7.1-42.41 7.1c-16.58 0-20.2-4.34-31.12-6.23h-.38v-13.58a146.8 146.8 0 0 1 16.14-66.38l12.84-25.45a146.876 146.876 0 0 0 16.14-66.13h100.23a146.864 146.864 0 0 0 16.13 66.13l12.85 25.45a146.785 146.785 0 0 1 16.13 66.38z" fill="#deedfd"/><path d="m109.41 76.91a12.936 12.936 0 0 1 12.1-12.91q.42-.032.84-.031h-30q-.42 0-.84.031a12.939 12.939 0 0 0 .84 25.85h30a12.94 12.94 0 0 1 -12.94-12.94z" fill="#89bce5"/><path d="m121.51 26.179a4 4 0 0 1 4-4h-30a4 4 0 0 0 -4 4v37.821q.42-.032.84-.031h29.16z" fill="#aa7b61"/><path d="m193.53 64v-.031h-.84q.42 0 .84.031z" fill="#da9e7b"/><path d="m77.29 459.82v-192.212c-15.311-.254-19.038-4.386-29.621-6.218h-.379v198.43a30 30 0 0 0 30 30h30a30 30 0 0 1 -30-30z" fill="#79bcf2"/><path d="m91.944 266.388c.634-.135 1.253-.276 1.844-.425a2.213 2.213 0 0 0 -1.844.425z" fill="#97c9fa"/><path d="m93.43 181.43 12.84-25.45a146.876 146.876 0 0 0 16.14-66.13h-30a146.862 146.862 0 0 1 -16.14 66.13l-12.841 25.45a146.808 146.808 0 0 0 -16.139 66.38v13.58h.379c10.6 1.835 14.327 5.979 29.711 6.218l-.09-6.218v-13.58a146.8 146.8 0 0 1 16.14-66.38z" fill="#97c9fa"/><g fill="#284268"><path d="m214.126 153.271a140.81 140.81 0 0 1 -15.378-58.423c7.172-2.54 12.765-9.079 13.1-17.03a19.274 19.274 0 0 0 -11.848-18.508v-33.131c0-5.514-4.953-10.179-10.467-10.179h-94.022c-5.511 0-9.511 4.665-9.511 10.179v33.251a18.865 18.865 0 0 0 .412 35.555 140.908 140.908 0 0 1 -15.433 58.286l-13.024 25.451c-11.134 22.055-16.955 45.3-16.955 69.09v212.009a36.443 36.443 0 0 0 36.29 36.179h130.464a36.405 36.405 0 0 0 36.246-36.179v-212.009c0-23.791-5.768-47.036-16.9-69.09zm-116.126-125.271h90v30h-90zm134 431.821a24.392 24.392 0 0 1 -24.246 24.179h-130.464a24.43 24.43 0 0 1 -24.29-24.179v-190.846c1 .254 1.731.517 2.532.786a64.072 64.072 0 0 0 23.184 3.862 63.835 63.835 0 0 0 23.147-3.862 51.442 51.442 0 0 1 19.318-3.24 51.383 51.383 0 0 1 19.308 3.24 63.626 63.626 0 0 0 23.115 3.862 63.621 63.621 0 0 0 23.115-3.862 51.359 51.359 0 0 1 19.3-3.24 52.084 52.084 0 0 1 19.426 3.24 44.283 44.283 0 0 0 6.555 1.965zm0-200.581c-1-.277-1.864-.564-2.74-.858a64.014 64.014 0 0 0 -23.175-3.861 63.814 63.814 0 0 0 -23.143 3.861 51.435 51.435 0 0 1 -19.318 3.241 51.377 51.377 0 0 1 -19.307-3.241 63.628 63.628 0 0 0 -23.114-3.861 63.622 63.622 0 0 0 -23.113 3.861 51.338 51.338 0 0 1 -19.3 3.241 52.2 52.2 0 0 1 -19.445-3.241 40.119 40.119 0 0 0 -6.345-1.908v-8.662c0-21.894 5.357-43.32 15.636-63.682l12.921-25.451a152.856 152.856 0 0 0 16.699-62.679h5.744a6 6 0 0 0 0-12h-11.322a7.185 7.185 0 0 1 -7.2-6 7 7 0 0 1 6.871-8h100.019a7.182 7.182 0 0 1 7.194 6 7 7 0 0 1 -6.871 8h-48.691a6 6 0 0 0 0 12h42.789a152.733 152.733 0 0 0 16.626 62.679l12.971 25.451c10.279 20.361 15.614 41.787 15.614 63.682z"/><path d="m79 364.41a6 6 0 0 0 -6 6v62.99a6 6 0 1 0 12 0v-62.99a6 6 0 0 0 -6-6z"/><path d="m79 320.673a6 6 0 0 0 -6 6v21.614a6 6 0 0 0 12 0v-21.614a6 6 0 0 0 -6-6z"/><path d="m79 293.48a6 6 0 0 0 -6 6v4.807a6 6 0 0 0 12 0v-4.807a6 6 0 0 0 -6-6z"/><path d="m464.71 263h-157.2a6.055 6.055 0 0 0 -5.966 6.688l22.025 206.548a22.045 22.045 0 0 0 21.871 19.764h81.335a22.036 22.036 0 0 0 21.876-19.756l22.026-206.494a6.127 6.127 0 0 0 -1.5-4.7 6.055 6.055 0 0 0 -4.467-2.05zm-27.991 211.971a10.06 10.06 0 0 1 -9.944 9.029h-81.335a10.058 10.058 0 0 1 -9.943-9.029l-12.712-119.2c.735.225 1.458.443 2.208.694a51.211 51.211 0 0 0 33.249-.017 39.169 39.169 0 0 1 25.626 0 51.182 51.182 0 0 0 33.251 0 39.2 39.2 0 0 1 25.631 0 53.5 53.5 0 0 0 6.41 1.865zm13.723-128.753c-1.352-.343-2.579-.731-3.881-1.167a51.22 51.22 0 0 0 -33.252.013 39.169 39.169 0 0 1 -25.629 0 51.179 51.179 0 0 0 -33.25 0 39.169 39.169 0 0 1 -25.626 0 50.463 50.463 0 0 0 -7.371-2.042l-7.254-68.022h143.857z"/></g></svg>