<svg id="Layer_1" height="512" viewBox="0 0 512 512" width="512" xmlns="http://www.w3.org/2000/svg" data-name="Layer 1"><path d="m440.48 95.29v20.47h-88.89v-20.47a44.372 44.372 0 0 1 44.3-44.45h.21a44.378 44.378 0 0 1 44.38 44.31z" fill="#e1b7a3"/><path d="m126.36 50.84c-23.28 0-42.33 18.52-42.33 41.81l-.28 47.51 20.04 13.22-20.32 15.33-1.56 213.67v.53h150.09v18.45a59.734 59.734 0 0 0 55.57 59.65c1.35.1 2.72.15 4.1.15h.18a59.742 59.742 0 0 0 59.74-59.67v-51.03l-29.26-18 29.26-2.11v-235.06a44.372 44.372 0 0 1 44.3-44.45z" fill="#fbedce"/><path d="m232 401.36v-18.45h-220.47v18.58a59.742 59.742 0 0 0 59.74 59.67h216.29l.01-.15a59.734 59.734 0 0 1 -55.57-59.65z" fill="#e1b7a3"/><path d="m451.97 190.14-29.1 29.31-.1 16.8 29.47 29.25c29.89-9.83 48.28-23.19 48.23-37.85s-18.54-27.89-48.5-37.51z" fill="#5fa8ed"/><path d="m422.77 236.25 29.47 29.25c-17.35 5.71-38.56 10.23-62.29 13.12l-.01-.12-42.47-42.18z" fill="#fb6771"/><path d="m451.97 190.14-29.1 29.31-74.92.07 41.75-42.04c23.71 2.73 44.91 7.09 62.27 12.66z" fill="#fb6771"/><path d="m389.94 278.5.01.12c-12.19 1.49-25.04 2.55-38.38 3.12-6.98.31-14.1.48-21.32.5q-6.06.015-12.01-.1l-46.08-45.75 75.31-.07z" fill="#5fa8ed"/><path d="m389.7 177.48-41.75 42.04-74.91.07v-.01l44.82-45.13q5.955-.165 12-.18 11.04-.045 21.72.36c13.24.49 26.01 1.46 38.12 2.85z" fill="#5fa8ed"/><path d="m272.16 236.39 46.08 45.75a466.462 466.462 0 0 1 -72.76-6.75l-39.22-38.94z" fill="#fb6771"/><path d="m317.86 174.45-44.82 45.13v.01l-65.55.06v-.01l37.67-37.94a468.539 468.539 0 0 1 72.7-7.25z" fill="#fb6771"/><path d="m206.26 236.45 39.22 38.94c-44.6-7.94-76.55-22.13-84.12-38.9z" fill="#5fa8ed"/><path d="m245.16 181.7-37.67 37.94v.01l-45.43.05v-.02c8.65-16.16 39.91-29.97 83.1-37.98z" fill="#5fa8ed"/><path d="m113.47 168.71 20.32-15.33-20.04-13.22.28-47.51c0-23.29 19.05-41.81 42.33-41.81h-30c-23.28 0-42.33 18.52-42.33 41.81l-.28 47.51 20.04 13.22-20.32 15.33-1.56 213.67v.53h30v-.53z" fill="#e5d4b3"/><path d="m41.53 401.49v-18.58h-30v18.58a59.742 59.742 0 0 0 59.74 59.67h30a59.742 59.742 0 0 1 -59.74-59.67z" fill="#cea493"/><path d="m433.83 219.44-317.18.3a8.4 8.4 0 1 0 .06 16.79l317.18-.29a8.4 8.4 0 0 0 -.06-16.8z" fill="#c79a83"/><g fill="#284268"><path d="m128.457 90.705a6 6 0 0 0 6-6v-7.151a6 6 0 0 0 -12 0v7.151a6 6 0 0 0 6 6z"/><path d="m128.457 194.551a6 6 0 0 0 6-6v-83.885a6 6 0 0 0 -12 0v83.885a6 6 0 0 0 6 6z"/><path d="m452.21 183.927c-26.121-8.174-59.023-13.376-94.625-15.062v-47.106h82.9a6 6 0 0 0 6-6v-20.624a50.375 50.375 0 0 0 -50.44-50.291h-269.686c-26.65 0-48.33 21.444-48.33 47.766l-.278 47.518a6 6 0 0 0 2.7 5.044l12.941 8.535-13.54 10.214a6 6 0 0 0 -2.386 4.746l-1.516 208.245h-64.415a6 6 0 0 0 -6 6v18.582a65.726 65.726 0 0 0 62.617 65.586v.075h219.408v-.145c1.363.085 2.73.144 4.107.145h.191a65.729 65.729 0 0 0 65.727-65.667v-51.031a6 6 0 0 0 -2.856-5.11l-13.394-8.239 10.683-.771a6 6 0 0 0 5.567-5.984v-42.893c35.759-1.923 68.769-7.354 94.935-15.744 44.664-14.324 53.988-31.88 53.945-44.086s-9.491-29.695-54.255-43.703zm-11.568 9.11-20.277 20.42-57.991.054 29.54-29.749a342.779 342.779 0 0 1 48.728 9.275zm-219.831 49.4 48.88-.045 33.509 33.272a443.275 443.275 0 0 1 -54.784-5.815zm6.079 22.948c-25.129-6.148-43.564-14.312-53.334-22.9l30.239-.028zm-110.2-34.852h-.009a2.4 2.4 0 0 1 -2.11-1.257 2.358 2.358 0 0 1 -.287-1.131 2.4 2.4 0 0 1 2.374-2.407l317.2-.293h.009a2.4 2.4 0 0 1 .023 4.8zm88.286-16.878-29.815.028c9.42-7.614 25.355-14.752 45.906-20.374q2.73-.747 5.555-1.453zm43.092-26.365a452.235 452.235 0 0 1 54.762-6.225l-32.3 32.53-48.626.045zm128.521-5.128-31.143 31.364-57.99.053 32.952-33.186zm19.3-125.319h.223a38.374 38.374 0 0 1 38.372 38.3v14.614h-76.9v-14.475a38.416 38.416 0 0 1 38.301-38.438zm-324.568 398.312h-.059a53.729 53.729 0 0 1 -53.727-53.667v-12.576h208.465v12.445a65.294 65.294 0 0 0 19.2 46.5 66.4 66.4 0 0 0 8.669 7.3zm274.264-130.385-23.685 1.709a6 6 0 0 0 -2.712 11.1l26.4 16.237v47.671a53.728 53.728 0 0 1 -53.733 53.673h-.178a53.728 53.728 0 0 1 -53.677-53.797v-18.451a6 6 0 0 0 -6-6h-144.05l1.494-205.2 17.956-13.545a6 6 0 0 0 -.311-9.8l-17.319-11.422.259-44.3c0-19.741 16.3-35.8 36.33-35.8h237.017a50.264 50.264 0 0 0 -17.791 38.448v73.14q-7.807-.194-15.742-.166c-83.5.3-152.552 18.814-171.125 45.433l-42.086.039a14.4 14.4 0 0 0 .034 28.8h.052l41.082-.039c10.227 16.373 37.108 26.692 58.613 32.575 31.1 8.508 70.779 13.173 111.933 13.172h1.919q7.716-.027 15.318-.27zm-24.825-48.579-34.054-33.814 58.294-.054 31.917 31.693zm71.468-3.883-30.212-30 58.294-.054 20.575 20.431a342.7 342.7 0 0 1 -48.657 9.623zm61.6-13.681-16.849-16.727a14.392 14.392 0 0 0 -.028-28.11l16.659-16.777c25.873 8.825 40.818 20 40.855 30.664s-14.824 21.943-40.636 30.95z"/></g></svg>