<svg id="Layer_1" height="512" viewBox="0 0 512 512" width="512" xmlns="http://www.w3.org/2000/svg" data-name="Layer 1"><path d="m383.773 81.135h-255.546a21.758 21.758 0 0 0 -21.761 21.765v51.981h299.068v-51.981a21.758 21.758 0 0 0 -21.761-21.765z" fill="#97c9fa"/><path d="m114.926 225.379 12.981 168.935h255.096l14.071-168.935z" fill="#a2d4a8"/><path d="m366.693 394.314-6.8 82.252h-207.786l-6.81-82.252z" fill="#ea836f"/><path d="m128.227 81.135a21.758 21.758 0 0 0 -21.761 21.765v51.981h40v-51.981a21.758 21.758 0 0 1 21.761-21.761z" fill="#7cc0f7"/><path d="m154.927 225.379h-40.001l12.98 168.935h40.002z" fill="#8fbc93"/><path d="m145.297 394.314 6.81 82.252h40.001l-6.81-82.252z" fill="#cc7266"/><path d="m360.793 43.194 16.84 37.941h-244.316l16.84-37.941a13.061 13.061 0 0 1 11.94-7.76h186.766a13.046 13.046 0 0 1 11.93 7.76z" fill="#c4dff7"/><path d="m202.1 35.434h-40a13.061 13.061 0 0 0 -11.94 7.76l-16.84 37.941h40l16.84-37.941a13.061 13.061 0 0 1 11.94-7.76z" fill="#b1d6f2"/><path d="m386.504 154.877v.04l-5.831 70.462h-249.346l-5.831-70.462v-.04z" fill="#ea836f"/><path d="m165.498 154.877h-40.002v.04l5.831 70.462h40.001l-5.83-70.462z" fill="#cc7266"/><circle cx="256" cy="309.201" fill="#fbe08b" r="54.101"/><g fill="#284268"><path d="m256 369.3a60.1 60.1 0 1 0 -60.1-60.1 60.167 60.167 0 0 0 60.1 60.1zm0-108.2a48.1 48.1 0 1 1 -48.1 48.1 48.154 48.154 0 0 1 48.1-48.1z"/><path d="m147.671 261.071a6 6 0 0 0 5.523-6.442l-.672-8.745a6 6 0 0 0 -11.965.919l.672 8.745a6 6 0 0 0 5.976 5.541c.154 0 .309-.006.466-.018z"/><path d="m155.134 279.888a6 6 0 0 0 -11.965.919l4.792 62.374a6 6 0 0 0 5.977 5.541c.154 0 .309-.006.466-.018a6 6 0 0 0 5.522-6.442z"/><path d="m383.771 75h-2.239l-15.258-34.525a19.209 19.209 0 0 0 -17.418-11.475h-186.756a19.21 19.21 0 0 0 -17.418 11.475l-15.261 34.525h-1.192c-15.309 0-28.229 12.594-28.229 27.9v51.975c0 3.314 3.152 6.123 6.466 6.123h13.511l4.8 58h-9.85a6.321 6.321 0 0 0 -5.982 6.747l12.978 168.821a5.908 5.908 0 0 0 5.985 5.434h11.837l6.383 77.33a6.146 6.146 0 0 0 5.98 5.67h207.783a6.2 6.2 0 0 0 5.98-5.724l6.383-77.276h10.746a5.865 5.865 0 0 0 5.979-5.345l14.071-168.947a6.038 6.038 0 0 0 -1.564-4.579 6.2 6.2 0 0 0 -4.415-2.129h-9.848l4.8-58h13.511c3.314 0 6.466-2.809 6.466-6.123v-51.977c0-15.306-12.92-27.9-28.229-27.9zm-228.124-29.657a7.2 7.2 0 0 1 6.453-4.343h186.756a7.2 7.2 0 0 1 6.45 4.343l13.094 29.657h-225.85zm198.72 425.657h-196.735l-5.856-71h208.451zm36.184-240-13.068 157h-244.019l-12.056-157h47.592a6 6 0 0 0 0-12h-32.183l-4.8-58h247.965l-4.8 58h-166.182a6 6 0 0 0 0 12zm9.449-82h-288v-46.1c0-8.691 7.537-15.9 16.229-15.9h255.542c8.692 0 16.229 7.211 16.229 15.9z"/><path d="m132 101.255a6 6 0 0 0 -6 6v21.508a6 6 0 1 0 12 0v-21.508a6 6 0 0 0 -6-6z"/><path d="m159 101.255a6 6 0 0 0 -6 6v21.508a6 6 0 1 0 12 0v-21.508a6 6 0 0 0 -6-6z"/><path d="m187 101.255a6 6 0 0 0 -6 6v21.508a6 6 0 1 0 12 0v-21.508a6 6 0 0 0 -6-6z"/><path d="m215 101.255a6 6 0 0 0 -6 6v21.508a6 6 0 1 0 12 0v-21.508a6 6 0 0 0 -6-6z"/><path d="m242 101.255a6 6 0 0 0 -6 6v21.508a6 6 0 1 0 12 0v-21.508a6 6 0 0 0 -6-6z"/><path d="m270 101.255a6 6 0 0 0 -6 6v21.508a6 6 0 1 0 12 0v-21.508a6 6 0 0 0 -6-6z"/><path d="m297 101.255a6 6 0 0 0 -6 6v21.508a6 6 0 1 0 12 0v-21.508a6 6 0 0 0 -6-6z"/><path d="m325 101.255a6 6 0 0 0 -6 6v21.508a6 6 0 1 0 12 0v-21.508a6 6 0 0 0 -6-6z"/><path d="m353 101.255a6 6 0 0 0 -6 6v21.508a6 6 0 1 0 12 0v-21.508a6 6 0 0 0 -6-6z"/><path d="m380 101.255a6 6 0 0 0 -6 6v21.508a6 6 0 1 0 12 0v-21.508a6 6 0 0 0 -6-6z"/></g></svg>