<svg id="Layer_1" enable-background="new 0 0 512 512" height="512" viewBox="0 0 512 512" width="512" xmlns="http://www.w3.org/2000/svg"><g><g><path d="m388.649 10.266c-1.03 2.65-6.8 17.12-14.77 31.6h-235.72c-8.82-16.02-14.92-31.56-14.92-31.56 31.34-1.34 125.89-4.69 228.82-1.46 12.11.37 24.34.84 36.59 1.42z" fill="#d2e1f9"/><path d="m388.649 10.266c-1.03 2.65-6.8 17.12-14.77 31.6h-33.99c-1.03-1.11-1.61-1.72-1.61-1.72 6.06-11.23 10.88-23.35 13.78-31.3 12.11.37 24.34.84 36.59 1.42z" fill="#bdcde5"/><path d="m413.689 458.626s-13.67 23.98-39.81 43c0 0-13.31.57-32.63 1.21-23.85.77-56.85 1.64-85.23 1.64-51.36 0-117.86-2.85-117.86-2.85-26.14-19.02-39.8-43-39.8-43-16.51-186.88 0-373.76 0-373.76s13.66-23.98 39.8-43c0 0 66.5-2.85 117.86-2.85 27.38 0 59.06.81 82.67 1.56 20.69.67 35.19 1.29 35.19 1.29 26.14 19.02 39.81 43 39.81 43s16.51 186.88 0 373.76z" fill="#dcf8ff"/><path d="m413.689 458.626s-13.67 23.98-39.81 43c0 0-13.31.57-32.63 1.21l34.59-42.68c12.65-210.3 0-376.96 0-376.96-15.45-19.44-34.19-39.48-37.15-42.62 20.69.67 35.19 1.29 35.19 1.29 26.14 19.02 39.81 43 39.81 43s16.51 186.88 0 373.76z" fill="#d2e1f9"/><path d="m413.689 458.626c-12.64.6-25.29 1.11-37.85 1.53-144.09 4.82-277.48-1.53-277.48-1.53-16.51-186.88 0-373.76 0-373.76s133.4-6.35 277.49-1.53c12.56.42 25.2.93 37.84 1.53 0 0 16.51 186.88 0 373.76z" fill="#77e0ab"/><path d="m413.689 458.626c-12.64.6-25.29 1.11-37.85 1.53 12.44-206.8.41-371.39.01-376.82 12.56.42 25.2.93 37.84 1.53 0 0 16.51 186.88 0 373.76z" fill="#65c1b0"/><circle cx="256.178" cy="223.358" fill="#c0ffde" r="75.975"/></g><g><path d="m421.165 84.314c-.085-1.17-.441-2.269-1.006-3.235-.973-1.689-13.356-22.745-36.66-41.314 4.454-8.633 7.984-16.671 10.107-21.753 1.912.095 3.824.192 5.736.292.133.007.266.01.397.01 3.962 0 7.274-3.105 7.483-7.109.216-4.137-2.962-7.665-7.099-7.882-142.451-7.44-286.761-.074-288.202 0-4.136.217-7.314 3.745-7.098 7.882.216 4.136 3.736 7.313 7.881 7.099.162-.009 2.146-.11 5.743-.273 2.125 5.083 5.651 13.112 10.099 21.734-23.302 18.57-35.686 39.625-36.659 41.315-.566.965-.921 2.064-1.006 3.232-.136 1.565-1.756 20.464-3.422 50.781-.227 4.137 2.941 7.674 7.077 7.901.14.008.279.012.418.012 3.954 0 7.263-3.093 7.482-7.088 1.129-20.535 2.233-35.762 2.862-43.842 30.966-1.271 166.146-6.104 301.442-.021 2.636 34.183 13.718 196.914.037 359.407-53.612 2.414-112.705 3.394-175.783 2.905h-.059c-4.115 0-7.467 3.321-7.499 7.443-.032 4.142 3.3 7.526 7.442 7.558 10.53.081 20.951.121 31.254.121 48.407 0 94.237-.894 136.768-2.671-6.048 7.772-15.339 18.164-27.632 27.434-12.136.494-69.959 2.747-115.248 2.747-45.288 0-103.111-2.253-115.247-2.747-12.321-9.292-21.627-19.711-27.673-27.487 15.751.597 42.895 1.493 77.002 2.089.045.001.089.001.133.001 4.081 0 7.425-3.273 7.497-7.37.072-4.142-3.227-7.558-7.368-7.63-41.233-.719-72.221-1.879-85.1-2.412-8.778-104.221-7.402-207.843-4.65-277.021.165-4.139-3.057-7.627-7.196-7.792-4.143-.166-7.628 3.056-7.792 7.197-2.826 71.042-4.209 178.212 5.252 285.383.085 1.164.439 2.26 1.001 3.221 1.003 1.744 15.162 25.855 41.869 45.286 1.194.868 2.617 1.365 4.092 1.429.667.028 67.244 2.855 118.18 2.855 50.937 0 117.514-2.827 118.181-2.855 1.475-.063 2.898-.561 4.091-1.429 26.665-19.4 40.821-43.466 41.864-45.278.565-.964.92-2.062 1.006-3.23 16.209-183.583.47-369.496.003-374.895zm-308.066-7.556c6.047-7.778 15.354-18.199 27.677-27.493 12.136-.494 69.958-2.746 115.247-2.746 8.01 0 16.91.07 26.453.21.037.001.074.001.112.001 4.091 0 7.437-3.286 7.497-7.391.061-4.142-3.248-7.548-7.39-7.609-9.615-.141-18.589-.212-26.672-.212-43.085 0-97.36 2.022-113.472 2.663-3.204-6.125-5.964-12.066-8.055-16.812 42.542-1.617 141.39-4.368 243.094-.089-2.095 4.76-4.87 10.738-8.094 16.9-7.865-.313-24.812-.957-44.954-1.528-4.16-.094-7.592 3.145-7.71 7.285-.117 4.141 3.144 7.593 7.284 7.71 22.438.637 40.888 1.362 47.154 1.618 12.294 9.272 21.585 19.665 27.632 27.436-123.081-5.129-244.24-1.505-285.803.057z"/><path d="m164.492 339.067c-.197 4.138 2.997 7.652 7.134 7.848.562.027 38.122 1.775 87.76 1.775 25.008 0 53.081-.444 81.033-1.775 4.137-.196 7.332-3.711 7.135-7.848-.197-4.139-3.699-7.348-7.849-7.135-82.696 3.937-166.528.039-167.365 0-4.121-.193-7.65 2.998-7.848 7.135z"/><path d="m305.548 378.155c-.062 0-.125.001-.188.002-38.713.952-74.861.483-98.37-.08-4.136-.062-7.578 3.178-7.677 7.32-.099 4.141 3.178 7.578 7.319 7.677 13.837.33 32.021.629 52.536.629 14.585 0 30.35-.151 46.56-.549 4.141-.102 7.416-3.541 7.313-7.683-.099-4.079-3.436-7.316-7.493-7.316z"/><path d="m323.687 259.058c3.835 1.57 8.213-.269 9.781-4.102 4.104-10.035 6.185-20.662 6.185-31.587 0-46.03-37.447-83.479-83.476-83.479-46.028 0-83.475 37.449-83.475 83.479 0 46.031 37.447 83.479 83.475 83.479 19.442 0 38.373-6.831 53.305-19.234 3.187-2.647 3.624-7.375.978-10.562-2.647-3.188-7.376-3.625-10.562-.978-12.245 10.171-27.772 15.773-43.721 15.773-37.757 0-68.475-30.719-68.475-68.478 0-37.76 30.718-68.479 68.475-68.479 37.758 0 68.476 30.719 68.476 68.479 0 8.968-1.706 17.685-5.069 25.907-1.567 3.834.269 8.213 4.103 9.782z"/></g></g></svg>