<svg id="Capa_1" enable-background="new 0 0 511.023 511.023" height="512" viewBox="0 0 511.023 511.023" width="512" xmlns="http://www.w3.org/2000/svg"><g><g><circle cx="255.239" cy="255.954" fill="#f8f7f8" r="247.464"/><path d="m100.331 257.407c0-122.21 88.592-223.715 205.055-243.831-16.195-3.333-32.966-5.087-50.147-5.087-136.671.001-247.465 110.794-247.465 247.465s110.794 247.464 247.465 247.464c14.461 0 28.605-1.234 42.386-3.615-112.628-23.18-197.294-122.906-197.294-242.396z" fill="#efedee"/><circle cx="255.512" cy="254.512" fill="#f8deb6" r="198.47"/><path d="m189.325 67.339c-77.048 27.266-132.284 100.784-132.284 187.173 0 81.975 49.704 152.345 120.614 182.618-47.619-45.108-77.325-108.951-77.325-179.722.001-76.365 34.627-144.679 88.995-190.069z" fill="#f7d8a4"/><path d="m320.268 190.951h41.936c4.278 0 6.774-4.829 4.299-8.318-20.517-28.935-53.787-46.129-89.258-46.129h-27.768l-53.505 7.71 24.111 49.211z" fill="#e5bda7"/><path d="m216.164 371.24-2.445 37.645c-.235 3.62-4.385 5.544-7.3 3.383l-41.456-30.739c-13.475-9.991-20.484-26.494-18.319-43.128l.532-4.086 14.655-55.948 55.399 50.701z" fill="#e5bda7"/><g><g id="XMLID_228_"><g><path d="m488.392 374.521-16.28-10.92c-18.69-12.53-40.84-18.86-63.32-18.08l-36.39 1.25-30.972-1.314-10.418 18.701 6.571 19.764-5.2 32.21c-4.92 30.45 3.54 61.54 23.21 85.3l.29.35c2.47 2.99 7.28 1.93 8.27-1.82l22.04-83.85c1.23-4.67 4.88-8.31 9.56-9.52l91.17-23.51c3.979-1.03 4.879-6.28 1.469-8.561z" fill="#e5bda7"/><g><path d="m359.672 396.891 5.2-32.21-6.161-18.532-17.222-.731-10.418 18.701 6.571 19.764-5.2 32.21c-4.92 30.45 3.54 61.54 23.21 85.3l.29.35c2.47 2.99 7.28 1.93 8.27-1.82l8.464-32.397c-12.277-21.199-16.969-46.098-13.004-70.635z" fill="#dfae91"/></g><path d="m357.832 272.252 14.57 74.52c-4.7 19.45-16.31 31.83-34.82 37.15l-69.52-3.46c-88.99-4.41-165.37-64.81-190.2-150.39l-14.59-50.3c-4.36-15.03 3.36-30.93 17.87-36.79l21.92-8.86c109.46-44.23 232.11 22.27 254.77 138.13z" fill="#dfae91"/><path d="m357.832 272.252 14.57 74.52c-4.7 19.45-16.31 31.83-34.82 37.15l-69.52-3.46c-88.99-4.41-165.37-64.81-190.2-150.39l-14.59-50.3c-4.36-15.03 3.36-30.93 17.87-36.79l21.92-8.86c109.46-44.23 232.11 22.27 254.77 138.13z" fill="#dfae91"/><path d="m312.486 361.873c-93.867-4.996-174.432-73.416-200.623-170.36l-14.841-54.95-15.88 6.419c-14.51 5.86-22.23 21.76-17.87 36.79l14.59 50.3c24.83 85.58 101.21 145.98 190.2 150.39l69.52 3.46c11.991-3.447 21.093-9.866 27.29-19.241z" fill="#d79c7a"/></g></g><circle cx="125.587" cy="173.88" fill="#d79c7a" r="15.158"/><path d="m329.931 340.396h-26.591c-4.223 0-7.646-3.423-7.646-7.646v-13.18c0-4.223 3.423-7.646 7.646-7.646h26.592c4.223 0 7.646 3.423 7.646 7.646v13.181c-.001 4.222-3.424 7.645-7.647 7.645z" fill="#a6d786"/><path d="m260.557 282.209-34.827 24.171c-3.469 2.408-8.233 1.547-10.64-1.922l-7.515-10.829c-2.407-3.469-1.547-8.233 1.922-10.64l34.827-24.171c3.469-2.408 8.233-1.547 10.64 1.922l7.515 10.829c2.408 3.469 1.547 8.233-1.922 10.64z" fill="#a6d786"/><path d="m383.053 234.172 4.784 19.137c.808 3.231 4.316 4.971 7.377 3.659l25.391-10.882c2.548-1.092 3.858-3.934 3.033-6.581l-4.469-14.336c-.845-2.712-3.644-4.308-6.408-3.654l-25.707 6.081c-2.932.695-4.732 3.652-4.001 6.576z" fill="#a6d786"/><g fill="#e79098"><circle cx="273.399" cy="385.917" r="15.933"/><circle cx="114.194" cy="315.203" r="13.863"/><circle cx="258.936" cy="95.331" r="15.733"/><path d="m235.43 172.611-7.19 6.676c-2.092 1.942-2.213 5.212-.271 7.303l16.211 17.46c1.942 2.092 5.212 2.213 7.303.271l14.236-13.218c2.684-2.492 1.995-6.909-1.32-8.465l-23.257-10.918c-1.907-.895-4.168-.543-5.712.891z"/></g></g></g><g><path d="m492.564 368.288-5.849-3.923c16.127-34.14 24.308-70.723 24.308-108.853 0-68.249-26.578-132.414-74.837-180.674s-112.425-74.838-180.674-74.838-132.414 26.578-180.674 74.838-74.838 112.425-74.838 180.674 26.578 132.414 74.837 180.674 112.424 74.838 180.674 74.838c29.802 0 58.94-5.083 86.711-15.107 2.326 3.553 4.855 6.995 7.591 10.301l.288.348c2.365 2.857 5.817 4.446 9.421 4.446.884 0 1.777-.096 2.666-.292 4.51-.995 8.042-4.388 9.215-8.855l5.674-21.586c37.254-20.192 69.063-49.46 92.302-84.928l19.417-5.008c4.741-1.224 8.199-4.981 9.023-9.808.826-4.827-1.188-9.52-5.255-12.247zm-237.052 127.735c-64.243 0-124.641-25.018-170.067-70.444-45.427-45.427-70.445-105.824-70.445-170.067s25.018-124.641 70.445-170.068c45.426-45.426 105.824-70.444 170.067-70.444s124.641 25.018 170.067 70.444c45.427 45.427 70.444 105.824 70.444 170.067 0 35.146-7.387 68.89-21.941 100.441-9.452-6.038-19.59-10.625-30.178-13.647 12.454-27.048 19.022-56.848 19.022-86.794 0-114.368-93.046-207.414-207.415-207.414-33.218 0-66.252 8.047-95.53 23.27-27.678 14.391-52.108 35.213-70.81 60.281l-10.835 4.378c-18.146 7.332-27.718 27.035-22.266 45.832l2.477 8.538c-6.928 20.964-10.45 42.855-10.45 65.115 0 29.368 6.018 57.753 17.887 84.368 11.461 25.701 27.779 48.48 48.498 67.704 1.444 1.34 3.273 2.002 5.099 2.002 2.014 0 4.022-.807 5.5-2.398 2.817-3.037 2.64-7.782-.397-10.6-19.228-17.84-34.368-38.975-45-62.817-11.006-24.68-16.586-51.01-16.586-78.259 0-12.523 1.208-24.917 3.585-37.068l3.98 13.722c6.834 23.563 17.451 45.488 31.611 65.319-5.692 3.842-9.442 10.351-9.442 17.719 0 11.779 9.583 21.363 21.363 21.363 6.336 0 12.019-2.788 15.934-7.183 2.955 2.781 5.982 5.47 9.076 8.071-2.506 19.306 5.651 38.501 21.292 50.098l41.456 30.738c2.121 1.572 4.648 2.378 7.196 2.378 1.725 0 3.458-.369 5.08-1.121 4.016-1.86 6.689-5.761 6.976-10.178l1.843-28.371c8.822 2.337 17.815 4.122 26.93 5.33.221 12.731 10.639 23.022 23.423 23.022 11.741 0 21.491-8.68 23.174-19.959l32.265 1.602-3.864 23.942c-1.107 6.863-1.572 13.755-1.432 20.6-21.72 8.221-44.579 12.391-68.031 12.391-38.16 0-75.044-11.154-106.665-32.258-3.447-2.299-8.103-1.37-10.402 2.075s-1.371 8.102 2.075 10.401c34.095 22.754 73.858 34.781 114.992 34.781 23.864 0 47.162-4.009 69.4-11.918 1.726 10.951 5.035 21.608 9.832 31.633-25.417 8.875-52.027 13.383-79.233 13.383zm123.023-156.967-13.242-67.718c-.795-4.065-4.739-6.719-8.8-5.921-4.065.795-6.716 4.734-5.921 8.8l14.137 72.292c-4.157 15.497-13.369 25.282-28.103 29.852l-42.91-2.131c-4.054-7.012-11.631-11.745-20.296-11.745-7.63 0-14.418 3.667-18.699 9.329-45.105-5.342-87.171-25.855-119.221-58.159-.692-9.576-7.704-17.426-16.889-19.355-4.233-5.521-8.166-11.225-11.78-17.108l42.664-6.174c18.529-2.682 34.653-12.601 45.4-27.932s14.574-33.871 10.776-52.204l-1.658-8.001c-.841-4.056-4.81-6.663-8.866-5.822-4.056.84-6.663 4.81-5.823 8.865l1.658 8.001c2.951 14.241-.022 28.643-8.371 40.551s-20.872 19.614-35.266 21.696l-48.364 6.999c-5.696-11.206-10.346-22.956-13.892-35.183l-14.592-50.308c-3.301-11.379 2.494-23.307 13.479-27.745l21.918-8.857c23.103-9.336 47.303-13.73 71.398-13.223l5.535 26.717c.734 3.543 3.855 5.98 7.336 5.98.504 0 1.017-.052 1.529-.158 4.056-.84 6.663-4.81 5.823-8.865l-4.696-22.665c18.033 1.969 35.862 6.702 52.973 14.209 21.869 9.595 41.323 23.144 57.822 40.269 16.979 17.624 29.955 38.166 38.566 61.055 1.459 3.879 5.786 5.837 9.661 4.379 3.877-1.459 5.837-5.784 4.378-9.66-5.441-14.462-12.501-28.052-21.078-40.662h27.081c4.796 0 9.143-2.646 11.345-6.907s1.846-9.338-.928-13.249c-21.886-30.864-57.54-49.291-95.375-49.291h-26.224c-42.507-18.437-89.037-21.157-132.952-8.067 14.266-14.557 30.803-26.886 48.833-36.261 27.539-14.318 57.352-21.578 88.611-21.578 106.098 0 192.415 86.316 192.415 192.414 0 29.364-6.418 57.462-19.078 83.609-6.672-.953-13.459-1.34-20.313-1.098zm-96.703 46.862c0 4.649-3.783 8.433-8.433 8.433s-8.434-3.783-8.434-8.433 3.783-8.434 8.434-8.434c3.753 0 6.939 2.466 8.029 5.862.015.057.035.112.051.169.227.762.353 1.568.353 2.403zm-73.527-9.393-1.723 26.526-37.152-27.547c-8.694-6.447-14.163-16.154-15.391-26.64 16.709 11.741 34.985 21.051 54.266 27.661zm-94.111-67.685c3.509 0 6.363 2.854 6.363 6.363 0 .209-.012.416-.031.621-.003.025-.006.05-.008.074-.348 3.183-3.05 5.668-6.323 5.668-3.508 0-6.363-2.854-6.363-6.363s2.854-6.363 6.362-6.363zm200.204-135.907c-10.636-11.04-22.413-20.693-35.19-28.9 30.786.595 59.734 15.155 78.565 39.419h-33.955c-3.003-3.604-6.139-7.114-9.42-10.519zm68.069 286.843 10.975-41.755c.537-2.041 2.14-3.636 4.183-4.163l49.256-12.705c-17.737 23.261-39.59 43.16-64.414 58.623zm11.411-60.442c-7.3 1.884-13.026 7.584-14.942 14.875l-20.643 78.532c-16.082-21.537-22.814-48.742-18.51-75.416l4.473-27.716c16.828-6.141 28.178-18.067 33.845-35.53l30.952-1.066c21.035-.724 41.396 5.09 58.877 16.813l11.207 7.517z"/><path d="m125.587 151.222c-12.494 0-22.658 10.164-22.658 22.658s10.165 22.658 22.658 22.658 22.658-10.164 22.658-22.658-10.164-22.658-22.658-22.658zm0 30.316c-4.223 0-7.658-3.436-7.658-7.658s3.436-7.658 7.658-7.658 7.658 3.436 7.658 7.658-3.435 7.658-7.658 7.658z"/><path d="m329.932 304.424h-26.592c-8.351 0-15.146 6.794-15.146 15.146v13.182c0 8.352 6.794 15.146 15.146 15.146h26.592c8.351 0 15.146-6.794 15.146-15.146v-13.182c-.001-8.352-6.795-15.146-15.146-15.146zm.145 28.327c0 .08-.065.146-.146.146h-26.592c-.08 0-.146-.065-.146-.146v-13.182c0-.08.065-.146.146-.146h26.592c.08 0 .146.065.146.146z"/><path d="m261.125 256.464c-4.761-6.86-14.216-8.568-21.078-3.807l-34.827 24.17c-6.861 4.762-8.569 14.217-3.808 21.078l7.516 10.829c2.307 3.323 5.769 5.55 9.75 6.269.909.165 1.82.246 2.725.246 3.058 0 6.039-.928 8.604-2.708l34.826-24.17c3.324-2.307 5.551-5.77 6.27-9.751.719-3.98-.155-8.003-2.461-11.327zm-4.843 19.583c-.001 0-.001 0 0 0l-34.829 24.172c-.056.038-.163.019-.202-.037l-7.516-10.829c-.039-.056-.02-.163.037-.202l34.827-24.171c.025-.017.054-.025.083-.025.046 0 .092.021.12.062l7.516 10.829c.039.055.019.162-.036.201z"/><path d="m430.799 237.272-4.469-14.335c-2.008-6.445-8.722-10.276-15.295-8.721l-25.708 6.082c-3.385.801-6.246 2.879-8.054 5.852-1.808 2.971-2.339 6.466-1.496 9.841l4.784 19.138c.919 3.675 3.393 6.748 6.787 8.432 1.807.896 3.769 1.346 5.735 1.346 1.727 0 3.457-.347 5.085-1.045l25.393-10.883c6.101-2.617 9.213-9.369 7.238-15.707zm-36.282 11.834-3.675-14.699 21.748-5.145 3.327 10.673z"/><path d="m258.936 72.099c-12.811 0-23.233 10.422-23.233 23.232s10.422 23.233 23.233 23.233 23.233-10.423 23.233-23.233-10.423-23.232-23.233-23.232zm0 31.465c-4.54 0-8.233-3.693-8.233-8.233 0-4.539 3.693-8.232 8.233-8.232s8.233 3.693 8.233 8.232c-.001 4.54-3.694 8.233-8.233 8.233z"/><path d="m267.586 175.85-23.257-10.918c-4.701-2.204-10.197-1.35-14.002 2.184l-7.191 6.676c-5.118 4.753-5.416 12.784-.664 17.903l16.211 17.459c2.302 2.48 5.433 3.915 8.814 4.04.161.006.321.009.48.009 3.206 0 6.247-1.191 8.608-3.385l14.236-13.218c3.091-2.869 4.547-7.07 3.897-11.237-.649-4.167-3.316-7.723-7.132-9.513zm-19.497 21.388-13.038-14.042 4.328-4.018 18.704 8.78z"/><path d="m294.97 229.593c1.919 0 3.839-.732 5.304-2.197 2.929-2.929 2.928-7.678 0-10.606l-5.638-5.638c-2.93-2.928-7.678-2.929-10.607.001-2.929 2.929-2.928 7.678 0 10.606l5.638 5.638c1.465 1.463 3.384 2.196 5.303 2.196z"/><path d="m303.177 280.587c1.464 1.464 3.384 2.196 5.303 2.196s3.839-.732 5.303-2.196l4.924-4.924c2.929-2.93 2.929-7.678 0-10.607-2.929-2.928-7.678-2.928-10.606 0l-4.924 4.924c-2.929 2.929-2.929 7.677 0 10.607z"/><path d="m248.559 340.317-5.467-4.313c-3.252-2.566-7.968-2.01-10.534 1.242s-2.009 7.968 1.243 10.533l5.467 4.313c1.376 1.086 3.014 1.612 4.641 1.612 2.217 0 4.413-.979 5.893-2.854 2.565-3.251 2.009-7.967-1.243-10.533z"/><path d="m174.541 291.496c-1.793-3.734-6.274-5.31-10.007-3.515-3.734 1.792-5.308 6.272-3.515 10.007l3.167 6.598c1.29 2.688 3.972 4.256 6.767 4.256 1.088 0 2.194-.238 3.241-.741 3.734-1.792 5.308-6.272 3.515-10.007z"/><path d="m348.158 111.689-6.529-4.191c-3.487-2.236-8.125-1.227-10.363 2.26-2.238 3.486-1.226 8.126 2.26 10.363l6.529 4.191c1.254.805 2.657 1.189 4.045 1.189 2.468 0 4.886-1.218 6.318-3.449 2.238-3.486 1.226-8.125-2.26-10.363z"/><path d="m414.014 301.34v-6.598c0-4.143-3.358-7.5-7.5-7.5s-7.5 3.357-7.5 7.5v6.598c0 4.143 3.358 7.5 7.5 7.5s7.5-3.358 7.5-7.5z"/><path d="m241.188 432.418c1.323 0 2.663-.35 3.877-1.085l6.153-3.726c3.543-2.146 4.677-6.757 2.531-10.301s-6.756-4.679-10.3-2.531l-6.153 3.726c-3.543 2.146-4.677 6.757-2.531 10.301 1.41 2.329 3.885 3.616 6.423 3.616z"/></g></g></svg>