<svg id="Capa_1" enable-background="new 0 0 511.022 511.022" height="512" viewBox="0 0 511.022 511.022" width="512" xmlns="http://www.w3.org/2000/svg"><g><g><circle cx="255.511" cy="255.511" fill="#f8f7f8" r="248.011"/><path d="m98.924 255.511c0-121.354 87.07-222.369 202.204-243.824-14.818-2.76-29.998-4.187-45.617-4.187-136.973 0-248.011 111.039-248.011 248.011s111.038 248.011 248.011 248.011c15.618 0 30.875-1.439 45.693-4.2-115.134-21.454-202.28-122.456-202.28-243.811z" fill="#efedee"/><circle cx="255.511" cy="255.511" fill="#efedee" r="199.81"/><path d="m183.149 69.207c-74.579 28.991-127.448 101.476-127.448 186.304 0 84.87 52.931 157.388 127.567 186.351-51.701-45.454-84.345-112.097-84.345-186.351.001-74.225 32.581-140.847 84.226-186.304z" fill="#e4e1e5"/><g><g><path d="m350.346 157.138c-1.481-2.466-3.332-4.771-5.57-6.822l-1.324-1.213-2.089-15.646c-.195-1.459-.499-2.885-.893-4.273l-16.956-3.221-49.503 47.041-15.385 74.956 110.424-57.147z" fill="#fcf0b6"/><path d="m390.65 251.757c.999-3.249 1.479-6.723 1.322-10.33l-.078-1.794 9.586-12.541c7.502-9.815 8.323-23.192 2.078-33.851l-7.302-12.461c1.444-16.787-6.638-32.968-20.926-41.898-2.807-1.755-6.463-1.288-8.739 1.116l-15.921 16.812c-6.012 6.348-12.856 11.853-20.346 16.363l-1.03.62c-15.383 9.264-28.236 22.189-37.413 37.624-4.561 7.672-10.162 14.676-16.643 20.814l-16.611 15.73 123.1 33.064z" fill="#fdf5cb"/><path d="m352.629 347.157c3.004-1.591 5.8-3.709 8.239-6.37l1.213-1.324 15.646-2.089c12.245-1.635 22.285-10.514 25.406-22.467l3.648-13.975c12.891-10.849 18.619-28.005 14.83-44.423-.744-3.226-3.659-5.48-6.969-5.391l-23.146.63c-8.74.238-17.472-.709-25.957-2.816l-1.167-.29c-17.428-4.327-35.656-4.276-53.059.149-8.65 2.199-17.563 3.192-26.486 2.949l-26.2-3.78 59.2 114.693z" fill="#fcf0b6"/><path d="m258.627 247.96 19.185 24.357c6.137 6.481 13.142 12.081 20.814 16.643 15.435 9.177 28.36 22.03 37.624 37.413l.62 1.03c4.51 7.49 10.015 14.334 16.363 20.346l16.812 15.921c2.404 2.276 2.871 5.932 1.116 8.739-8.93 14.288-25.111 22.37-41.898 20.926l-12.461 7.302c-10.659 6.246-24.036 5.425-33.851-2.078l-12.541-9.586-1.794.078c-3.607.157-7.082-.322-10.33-1.321l-44.539-16.025z" fill="#fdf5cb"/><path d="m162.885 349.709c1.591 3.004 3.709 5.8 6.37 8.239l1.324 1.213 2.09 15.646c1.635 12.245 10.514 22.285 22.467 25.406l13.975 3.648c10.849 12.891 28.005 18.619 44.423 14.83 3.226-.744 5.48-3.659 5.39-6.969l-.63-23.146c-.238-8.74.71-17.472 2.816-25.958l.29-1.167c4.327-17.428 4.276-35.656-.149-53.059-2.199-8.65-3.192-17.563-2.949-26.486l.325-33.947-104.917 62.107z" fill="#fcf0b6"/></g><path d="m174.333 297.859-20.624 12.208 9.176 39.643c1.591 3.004 3.708 5.8 6.37 8.239l1.324 1.213 2.09 15.646c1.635 12.246 10.514 22.285 22.467 25.406l13.975 3.648c10.849 12.891 28.005 18.619 44.423 14.83 3.226-.745 5.48-3.659 5.39-6.968l-.337-12.39c-39.317-22.022-69.681-58.118-84.254-101.475z" fill="#fbe88c"/><path d="m122.312 255.366c-.999 3.249-1.479 6.723-1.321 10.33l.078 1.794-9.586 12.541c-7.502 9.815-8.323 23.192-2.078 33.851l7.302 12.461c-1.444 16.787 6.638 32.968 20.926 41.898 2.807 1.755 6.463 1.288 8.739-1.116l15.921-16.812c6.012-6.348 12.856-11.853 20.346-16.363l1.03-.62c15.383-9.264 28.236-22.189 37.413-37.624 4.561-7.672 10.162-14.676 16.643-20.814l15.036-17.831 5.867-9.101-139.118-30z" fill="#fdf5cb"/><g fill="#fcf0b6"><path d="m164.829 239.492c0-3.924.138-7.815.381-11.677l-45.701-9.855 2.803 37.406c-.999 3.249-1.479 6.723-1.321 10.33l.078 1.794-9.586 12.541c-7.502 9.815-8.323 23.192-2.078 33.851l7.302 12.461c-1.444 16.787 6.638 32.968 20.926 41.898 2.807 1.755 6.463 1.288 8.739-1.116l15.921-16.812c6.012-6.348 12.856-11.853 20.346-16.363l1.03-.62c1.733-1.044 3.433-2.133 5.1-3.268-15.23-26.708-23.94-57.624-23.94-90.57z"/><path d="m258.627 247.96-30.492 7.422c-8.922-.243-17.835.75-26.486 2.949-17.404 4.425-35.631 4.476-53.059.149l-1.167-.29c-8.485-2.107-17.217-3.054-25.957-2.816l-23.146.63c-3.31.09-6.224-2.165-6.969-5.391-3.789-16.418 1.938-33.574 14.83-44.423l3.648-13.975c3.12-11.953 13.16-20.832 25.406-22.467l15.646-2.089 1.213-1.324c2.439-2.662 5.235-4.78 8.239-6.37l40.568-19.501z"/></g></g><path d="m164.829 239.492c0-34.464 9.529-66.699 26.086-94.228l-30.582 14.701c-3.004 1.591-5.8 3.709-8.239 6.37l-1.213 1.324-15.646 2.089c-12.245 1.635-22.285 10.514-25.406 22.467l-3.648 13.975c-12.891 10.849-18.619 28.005-14.83 44.423.744 3.226 3.659 5.48 6.969 5.391l23.146-.63c8.74-.238 17.472.709 25.957 2.816l1.167.29c5.779 1.435 11.632 2.387 17.527 2.859-.852-7.161-1.288-14.456-1.288-21.847z" fill="#fbe88c"/><path d="m258.627 247.96-23.477-13.155c-6.137-6.481-13.142-12.081-20.814-16.643-15.435-9.177-28.36-22.03-37.624-37.413l-.62-1.03c-4.51-7.49-10.015-14.334-16.363-20.346l-16.812-15.921c-2.404-2.277-2.871-5.932-1.116-8.739 8.93-14.288 25.111-22.37 41.898-20.926l12.461-7.302c10.659-6.246 24.036-5.425 33.851 2.078l12.541 9.586 1.794-.078c4.002-.175 7.844.429 11.392 1.664l44.147 20.73z" fill="#fdf5cb"/><g><path d="m258.627 247.96 81.843-118.776c-2.909-10.264-11.046-18.384-21.574-21.132l-13.975-3.648c-10.849-12.891-28.005-18.619-44.423-14.83-3.226.744-5.48 3.659-5.39 6.969l.63 23.146c.238 8.74-.709 17.472-2.816 25.957l-.29 1.167c-4.327 17.428-4.276 35.656.149 53.059 2.199 8.651 3.192 17.564 2.949 26.486z" fill="#fcf0b6"/></g><path d="m223.828 104.898c-8.805-3.881-19.121-3.422-27.669 1.587l-12.461 7.302c-16.787-1.444-32.968 6.638-41.898 20.926-1.755 2.807-1.288 6.462 1.116 8.739l16.812 15.921c5.976 5.66 11.19 12.036 15.545 19.015 10.036-28.367 26.888-53.499 48.555-73.49z" fill="#fcf0b6"/></g><g><path d="m378.72 344.807c15.331-2.046 27.762-13.039 31.669-28.006l3.071-11.763c13.805-12.752 19.716-31.764 15.458-50.218-1.541-6.677-7.642-11.41-14.48-11.2l-14.964.407c.022-.662.032-1.324.019-1.988l7.944-10.394c9.394-12.289 10.41-28.853 2.589-42.198l-6.146-10.487c.745-18.779-8.519-36.403-24.579-46.441-5.811-3.628-13.448-2.653-18.159 2.32l-10.319 10.897c-.101-.1-.194-.207-.297-.305l-1.732-12.967c-2.047-15.331-13.041-27.763-28.007-31.669l-11.762-3.07c-12.752-13.807-31.764-19.717-50.218-15.459-6.675 1.542-11.386 7.632-11.2 14.48l.378 13.873c-1.006-.061-2.016-.09-3.03-.071l-10.393-7.944c-12.289-9.393-28.853-10.409-42.198-2.59l-10.488 6.146c-18.77-.743-36.403 8.519-46.439 24.577-3.632 5.812-2.657 13.448 2.319 18.159l10.872 10.297c-.485.45-.962.911-1.423 1.39l-12.966 1.732c-15.332 2.046-27.763 13.039-31.67 28.006l-3.07 11.762c-13.806 12.753-19.717 31.766-15.458 50.216 1.54 6.677 7.62 11.396 14.48 11.202l14.983-.408c-.022.663-.051 1.325-.038 1.991l-7.944 10.393c-9.394 12.288-10.41 28.852-2.59 42.197l6.146 10.488c-.745 18.779 8.519 36.403 24.578 46.439 2.353 1.471 5.005 2.186 7.642 2.186 3.875 0 7.714-1.544 10.518-4.505l10.305-10.882c.449.487.901.972 1.38 1.434l1.731 12.967c2.047 15.33 13.041 27.761 28.007 31.669l11.762 3.07c10.018 10.845 23.896 16.818 38.334 16.817 3.942 0 7.926-.445 11.884-1.358 6.676-1.542 11.386-7.633 11.199-14.48l-.408-14.98c.662.022 1.325.049 1.99.036l10.393 7.944c6.788 5.188 14.878 7.82 23.011 7.82 6.592 0 13.212-1.73 19.187-5.231l10.488-6.146c18.773.754 36.402-8.519 46.439-24.577 3.632-5.811 2.657-13.448-2.318-18.159l-10.87-10.294c.483-.453.96-.913 1.421-1.392zm23.232-49.614c-1.188.999-2.036 2.342-2.428 3.844l-3.648 13.976c-2.361 9.046-9.875 15.69-19.141 16.928l-15.647 2.09c-1.742.232-3.348 1.07-4.536 2.366l-1.213 1.323c-.546.596-1.13 1.148-1.732 1.678-3.871-4.275-7.33-8.913-10.31-13.861l-.621-1.032c-9.868-16.387-23.775-30.215-40.216-39.99-7.078-4.209-13.538-9.374-19.201-15.354l-7.738-8.171 9.104.248c9.617.253 19.217-.809 28.538-3.178 16.15-4.104 33.234-4.152 49.402-.14l1.169.291c9.143 2.269 18.546 3.296 27.968 3.033l22.7-.617c2.972 13.606-1.774 27.581-12.45 36.566zm-30.223-149.715c11.723 7.518 18.249 20.756 17.054 34.658-.133 1.546.217 3.096 1.001 4.435l7.302 12.461c4.727 8.066 4.112 18.077-1.565 25.505l-9.586 12.541c-1.067 1.396-1.61 3.123-1.535 4.879l.078 1.797c.035.808.014 1.612-.034 2.413-5.761-.285-11.489-1.121-17.096-2.513l-1.169-.291c-18.563-4.609-38.176-4.553-56.715.16-7.98 2.027-16.202 2.937-24.434 2.721l-11.249-.306 6.612-6.262c6.984-6.615 13.018-14.16 17.933-22.426 8.515-14.322 20.561-26.437 34.835-35.032l1.03-.62c8.069-4.859 15.444-10.791 21.922-17.631zm-111.819 3.145.291-1.17c2.269-9.143 3.29-18.553 3.034-27.969l-.618-22.699c13.604-2.971 27.581 1.772 36.566 12.448.999 1.188 2.342 2.036 3.844 2.428l13.975 3.648c9.045 2.361 15.69 9.875 16.927 19.142l2.09 15.646c.233 1.743 1.071 3.349 2.367 4.536l1.323 1.213c.208.191.402.396.603.594-4.274 3.87-8.911 7.328-13.858 10.307l-1.03.62c-16.387 9.868-30.215 23.774-39.991 40.216-4.208 7.077-9.374 13.537-15.354 19.201l-7.041 6.667.188-6.89c.262-9.616-.808-19.218-3.178-28.538-4.104-16.148-4.152-33.231-.138-49.4zm-148.9 63.306c1.187-.999 2.035-2.343 2.427-3.844l3.648-13.975c2.361-9.046 9.875-15.69 19.142-16.928l15.646-2.09c1.743-.232 3.349-1.07 4.537-2.367l1.212-1.322c.546-.596 1.129-1.149 1.73-1.681 3.873 4.276 7.333 8.916 10.315 13.867l.62 1.028c3.417 5.674 7.383 11.127 11.788 16.206 1.483 1.711 3.57 2.587 5.67 2.587 1.741 0 3.491-.604 4.91-1.834 3.129-2.713 3.466-7.45.753-10.579-3.842-4.431-7.297-9.181-10.271-14.119l-.619-1.028c-4.859-8.069-10.792-15.445-17.631-21.922l-16.487-15.615c7.517-11.723 20.753-18.249 34.657-17.053 1.548.134 3.096-.218 4.435-1.002l12.461-7.303c8.067-4.725 18.078-4.11 25.505 1.566l12.541 9.586c1.397 1.067 3.126 1.62 4.881 1.534l1.795-.078c1.19-.054 2.368-.003 3.533.129-.231 6.115-1.087 12.196-2.563 18.142l-.291 1.17c-4.609 18.564-4.554 38.177.16 56.715 2.029 7.979 2.944 16.2 2.721 24.434l-.306 11.236-7.332-7.742c-6.616-6.985-14.161-13.019-22.424-17.931-.708-.421-1.405-.857-2.102-1.295-3.509-2.206-8.138-1.146-10.341 2.36-2.204 3.507-1.147 8.137 2.36 10.341.799.502 1.599 1.001 2.414 1.486 7.077 4.206 13.537 9.372 19.2 15.353l7.738 8.17-9.103-.248c-9.619-.27-19.217.807-28.538 3.178-16.147 4.104-33.232 4.152-49.402.14l-1.169-.291c-9.142-2.27-18.551-3.284-27.969-3.034l-22.699.617c-2.974-13.603 1.771-27.578 12.448-36.564zm45.837 133.228-15.614 16.488c-11.723-7.518-18.249-20.756-17.054-34.658.133-1.546-.217-3.096-1.001-4.435l-7.302-12.462c-4.727-8.065-4.112-18.077 1.565-25.504l9.586-12.541c1.068-1.396 1.611-3.124 1.534-4.881l-.078-1.794c-.035-.808-.014-1.611.034-2.412 5.762.286 11.489 1.12 17.096 2.511l1.169.291c9.176 2.277 18.606 3.416 28.038 3.416 9.65 0 19.302-1.192 28.677-3.576 7.98-2.029 16.202-2.938 24.433-2.721l11.25.306-6.612 6.261c-6.982 6.612-13.016 14.157-17.933 22.427-8.516 14.322-20.562 26.437-34.835 35.032l-1.03.62c-8.071 4.861-15.447 10.793-21.923 17.632zm97.274 14.49-.289 1.165c-2.27 9.142-3.291 18.552-3.035 27.969l.618 22.7c-13.604 2.974-27.581-1.771-36.566-12.448-1-1.188-2.342-2.036-3.844-2.428l-13.974-3.648c-9.046-2.362-15.691-9.875-16.928-19.142l-2.089-15.646c-.233-1.742-1.071-3.349-2.367-4.536l-1.323-1.213c-.596-.546-1.154-1.125-1.682-1.729 4.276-3.873 8.916-7.333 13.867-10.315l1.03-.62c16.386-9.867 30.214-23.774 39.991-40.216 4.209-7.08 9.375-13.54 15.354-19.201l8.17-7.738-.248 9.103c-.262 9.613.807 19.215 3.177 28.538 4.105 16.148 4.153 33.232.138 49.405zm75.785 26.216c-1.55-.139-3.096.217-4.435 1.002l-12.461 7.302c-8.066 4.727-18.077 4.112-25.505-1.565l-12.541-9.586c-1.397-1.066-3.126-1.614-4.881-1.534l-1.794.078c-.808.033-1.611.012-2.411-.037.286-5.762 1.119-11.488 2.512-17.097l.289-1.165c4.609-18.564 4.554-38.177-.16-56.715-2.029-7.982-2.944-16.203-2.72-24.434l.306-11.249 6.262 6.612c6.614 6.984 14.16 13.018 22.426 17.932 14.322 8.516 26.436 20.562 35.031 34.835l.621 1.031c4.861 8.07 10.792 15.446 17.631 21.922l16.488 15.615c-7.518 11.723-20.763 18.244-34.658 17.053z"/><path d="m436.185 74.837c-48.26-48.258-112.424-74.837-180.674-74.837s-132.414 26.579-180.674 74.837c-48.259 48.26-74.837 112.425-74.837 180.674 0 65.335 24.659 127.515 69.434 175.085 2.839 3.016 7.585 3.159 10.602.32s3.16-7.585.321-10.602c-42.147-44.775-65.357-103.304-65.357-164.803 0-64.243 25.018-124.641 70.444-170.066 45.427-45.427 105.825-70.445 170.067-70.445s124.641 25.018 170.067 70.444c45.427 45.426 70.444 105.823 70.444 170.066s-25.018 124.641-70.444 170.067-105.824 70.443-170.067 70.443c-55.5 0-109.652-19.359-152.481-54.512-3.203-2.629-7.928-2.162-10.556 1.038-2.628 3.202-2.163 7.928 1.039 10.556 45.504 37.35 103.036 57.918 161.998 57.918 68.25 0 132.414-26.577 180.674-74.837s74.837-112.424 74.837-180.674c0-68.247-26.577-132.412-74.837-180.672z"/><path d="m442.235 183.867c3.808-1.63 5.574-6.038 3.944-9.847-32.708-76.432-107.55-125.818-190.668-125.818-114.311 0-207.31 92.999-207.31 207.31 0 114.312 92.999 207.311 207.31 207.311s207.31-92.999 207.31-207.311c0-16.792-2.029-33.538-6.031-49.772-.992-4.021-5.059-6.478-9.077-5.487-4.022.991-6.479 5.056-5.487 9.077 3.713 15.061 5.595 30.599 5.595 46.183 0 106.04-86.27 192.311-192.31 192.311s-192.31-86.271-192.31-192.311 86.27-192.31 192.31-192.31c77.106 0 146.535 45.815 176.878 116.721 1.63 3.807 6.037 5.57 9.846 3.943z"/></g></g></svg>