<svg id="Layer_1" height="512" viewBox="0 0 512 512" width="512" xmlns="http://www.w3.org/2000/svg" data-name="Layer 1"><path d="m470.95 91.05v329.9a49.993 49.993 0 0 1 -50 50h-329.9a49.993 49.993 0 0 1 -50-50v-329.9a49.993 49.993 0 0 1 50-50h329.9a49.993 49.993 0 0 1 50 50z" fill="#6d7486"/><path d="m382.06 124.68a182.091 182.091 0 0 0 -297.85 191.68l15.01 32.21a182.052 182.052 0 1 0 282.84-223.89zm-1.02 206.79a145.466 145.466 0 1 1 14.59-32.6z" fill="#6addc7"/><path d="m356.6 150.14a146.023 146.023 0 1 0 24.44 181.33l14.59-32.6a146.24 146.24 0 0 0 -39.03-148.73zm-100.6 209.62a103.761 103.761 0 0 1 -73.37-177.13l.18-.17 28.87-20.31h.01a103.77 103.77 0 1 1 44.31 197.61z" fill="#adf0e5"/><path d="m326.69 180.05a103.845 103.845 0 0 0 -115-17.9h-.01l-28.87 20.31-.18.17a103.763 103.763 0 1 0 144.06-2.58zm-49.32 134.1-.29.05-35.4 2.07a61.92 61.92 0 1 1 35.69-2.12z" fill="#6addc7"/><path d="m297.08 209.66a61.935 61.935 0 1 0 -55.4 106.61h.01l35.39-2.07.29-.05a61.947 61.947 0 0 0 19.71-104.49zm-41.08 67.31a20.967 20.967 0 1 1 20.97-20.97 20.972 20.972 0 0 1 -20.97 20.97z" fill="#adf0e5"/><path d="m267.96 238.78a20.965 20.965 0 1 1 -11.96-3.75 20.933 20.933 0 0 1 11.96 3.75z" fill="#6addc7"/><circle cx="423.23" cy="83.92" fill="#4a5160" r="11.14"/><circle cx="423.23" cy="428.08" fill="#4a5160" r="11.14"/><circle cx="88.77" cy="83.92" fill="#4a5160" r="11.14"/><circle cx="88.77" cy="428.08" fill="#4a5160" r="11.14"/><path d="m90.06 315.38a17.842 17.842 0 1 1 -5.85.98 17.865 17.865 0 0 1 5.85-.98z" fill="#fb6771"/><path d="m395.63 298.87a17.875 17.875 0 1 1 -6.83-1.35 17.864 17.864 0 0 1 6.83 1.35z" fill="#eadf53"/><path d="m211.68 162.15a17.858 17.858 0 1 1 -15.99-9.91 17.694 17.694 0 0 1 15.99 9.91z" fill="#5fa8ed"/><path d="m71.05 420.95v-329.9a49.993 49.993 0 0 1 50-50h-30a49.993 49.993 0 0 0 -50 50v329.9a49.993 49.993 0 0 0 50 50h30a49.993 49.993 0 0 1 -50-50z" fill="#b0b5ca"/><path d="m139.97 256a146.048 146.048 0 0 1 131.007-145.265 147.637 147.637 0 0 0 -14.977-.765 146.03 146.03 0 1 0 14.985 291.3 146.048 146.048 0 0 1 -131.015-145.27z" fill="#d7fff7"/><path d="m224.07 256a61.953 61.953 0 0 1 46.93-60.089 61.94 61.94 0 1 0 -29.32 120.359h.01l24.863-1.454a61.957 61.957 0 0 1 -42.483-58.816z" fill="#d7fff7"/><path d="m277.08 314.2a17.5 17.5 0 0 1 .29 3.18 17.86 17.86 0 0 1 -35.72 0q0-.555.03-1.11h.01a17.854 17.854 0 0 1 35.39-2.07z" fill="#d8ff33"/><g fill="#284268"><path d="m398.342 116.885a6 6 0 1 0 -8.486-8.486l-8.007 8.008a187.3 187.3 0 0 0 -125.849-48.447c-103.686 0-188.04 84.354-188.04 188.04a187.752 187.752 0 0 0 8.921 57.363 23.851 23.851 0 0 0 19.936 42.759 187.885 187.885 0 0 0 159.183 87.918c103.686 0 188.04-84.354 188.04-188.04a187.4 187.4 0 0 0 -53.54-131.269zm-308.283 228.215a11.861 11.861 0 1 1 11.86-11.861 11.874 11.874 0 0 1 -11.86 11.861zm341.981-89.1c0 97.068-78.972 176.04-176.04 176.04a175.9 175.9 0 0 1 -148.907-82.112 23.845 23.845 0 0 0 -17.034-40.547c-.615 0-1.223.031-1.827.077a175.785 175.785 0 0 1 -8.272-53.458c0-97.068 78.972-176.04 176.04-176.04a175.329 175.329 0 0 1 117.353 44.94l-17 17a151.39 151.39 0 0 0 -100.353-37.927c-83.828 0-152.027 68.2-152.027 152.027s68.199 152.027 152.027 152.027a151.91 151.91 0 0 0 127.607-69.362 23.848 23.848 0 0 0 19.093-42.665 151.975 151.975 0 0 0 -37.652-145.815l16.972-16.972a175.447 175.447 0 0 1 50.02 122.787zm-40.6 35.669a23.847 23.847 0 0 0 -18.564 41.457 139.851 139.851 0 0 1 -116.876 62.901c-77.211 0-140.027-62.816-140.027-140.027s62.816-140.027 140.027-140.027a139.434 139.434 0 0 1 91.856 34.427l-21.456 21.458a109.709 109.709 0 0 0 -112.559-17.221 23.844 23.844 0 0 0 -38.85 27.307 109.8 109.8 0 1 0 160.182-1.888l21.391-21.391a140.035 140.035 0 0 1 34.875 133zm9.228 23.712a11.861 11.861 0 1 1 -11.861-11.86 11.875 11.875 0 0 1 11.858 11.86zm-204.98-121.422a23.858 23.858 0 0 0 23.4-28.515 97.769 97.769 0 0 1 98.792 14.931l-21.23 21.23a67.923 67.923 0 1 0 -60.736 119.3 23.856 23.856 0 0 0 47.438-2.715 67.87 67.87 0 0 0 22.236-108.549l21.1-21.1a97.729 97.729 0 1 1 -143.3 2 23.718 23.718 0 0 0 12.3 3.418zm-11.86-23.86a11.86 11.86 0 1 1 11.86 11.86 11.873 11.873 0 0 1 -11.86-11.859zm75.685 123.422a23.9 23.9 0 0 0 -22.228 15.2 55.931 55.931 0 1 1 50.768-98.521l-21.144 21.144a27.03 27.03 0 1 0 9.692 7.279l20.507-20.507a55.889 55.889 0 0 1 -16.508 88.121 23.879 23.879 0 0 0 -21.087-12.716zm11.861 23.86a11.861 11.861 0 1 1 -11.861-11.86 11.875 11.875 0 0 1 11.861 11.86zm-.408-61.381a14.966 14.966 0 1 1 -14.966-14.966 14.984 14.984 0 0 1 14.966 14.966z"/><path d="m420.953 35.047h-329.906a56.064 56.064 0 0 0 -56 56v329.905a56.063 56.063 0 0 0 56 56h329.906a56.063 56.063 0 0 0 56-56v-329.905a56.064 56.064 0 0 0 -56-56zm44 385.905a44.05 44.05 0 0 1 -44 44h-329.906a44.05 44.05 0 0 1 -44-44v-329.905a44.051 44.051 0 0 1 44-44h329.906a44.051 44.051 0 0 1 44 44z"/><path d="m88.767 101.058a17.14 17.14 0 1 0 -17.14-17.14 17.159 17.159 0 0 0 17.14 17.14zm0-22.28a5.14 5.14 0 1 1 -5.14 5.14 5.145 5.145 0 0 1 5.14-5.14z"/><path d="m423.233 101.058a17.14 17.14 0 1 0 -17.14-17.14 17.159 17.159 0 0 0 17.14 17.14zm0-22.28a5.14 5.14 0 1 1 -5.14 5.14 5.146 5.146 0 0 1 5.14-5.14z"/><path d="m88.767 410.942a17.14 17.14 0 1 0 17.14 17.14 17.159 17.159 0 0 0 -17.14-17.14zm0 22.28a5.14 5.14 0 1 1 5.14-5.14 5.146 5.146 0 0 1 -5.14 5.14z"/><path d="m423.233 410.942a17.14 17.14 0 1 0 17.14 17.14 17.159 17.159 0 0 0 -17.14-17.14zm0 22.28a5.14 5.14 0 1 1 5.14-5.14 5.145 5.145 0 0 1 -5.14 5.14z"/><path d="m68.457 124.705a6 6 0 0 0 6-6v-7.151a6 6 0 0 0 -12 0v7.151a6 6 0 0 0 6 6z"/><path d="m74.457 187.551v-48.885a6 6 0 0 0 -12 0v48.885a6 6 0 0 0 12 0z"/></g></svg>