<svg id="Layer_1" enable-background="new 0 0 512 512" height="512" viewBox="0 0 512 512" width="512" xmlns="http://www.w3.org/2000/svg"><g><g><path d="m406.554 281.57c0 110.41-.99 220.83-.99 220.83s-11.33 1.98-22.98 2.09c-.34.01-.69.01-1.03.01-12.01 0-24.01-2.1-24.01-2.1s-.99-110.42-.99-220.83c0-25.99.05-51.98.14-76.53l26.78.18 22.94.15c.08 24.45.14 50.33.14 76.2z" fill="#e2a67d"/><path d="m406.554 281.57c0 110.41-.99 220.83-.99 220.83s-11.33 1.98-22.98 2.09c.33-42.98.97-139.24.97-235.49 0-21.46-.04-42.92-.08-63.78l22.94.15c.08 24.45.14 50.33.14 76.2z" fill="#d18766"/><g><path d="m255.965 141.33c-113.249 136.079-272.877 33.18-245.367-50.08 0 50.03 88.969 91.43 129.989-24.94 13.56-38.47 33.72-58.81 115.379-58.81 10.04 0 19.15.31 27.43.92 59.119 4.35 76.059 24.15 87.949 57.89 30.19 85.65 86.359 85.83 113.909 60.01 9.88-9.26 16.08-21.86 16.08-35.07 27.508 83.26-132.12 186.159-245.369 50.08z" fill="#58768c"/><path d="m485.253 126.32c-25.09 44.97-117.629 36.86-140.088-47.93-12.69-47.89-40.2-64.55-61.769-69.97 59.119 4.35 76.059 24.15 87.949 57.89 30.189 85.65 86.358 85.83 113.908 60.01z" fill="#3e5868"/></g></g><g><path d="m508.52 88.897c-1.156-3.496-4.678-5.645-8.314-5.051-3.636.585-6.309 3.723-6.309 7.404 0 19.828-16.849 38.242-38.36 41.922-31.074 5.318-59.886-20.61-77.068-69.352-5.166-14.654-10.658-24.897-17.808-33.211-2.702-3.143-7.437-3.498-10.578-.797-3.141 2.7-3.498 7.436-.797 10.576 5.879 6.837 10.516 15.601 15.034 28.418 10.58 30.014 24.977 52.082 42.791 65.595 19.803 15.021 38.641 15.663 50.955 13.556 14.504-2.481 27.41-10.149 36.587-20.631-6.027 21.46-23.362 42.207-48.831 56.341-45.699 25.36-121.325 28.232-184.058-47.133-1.425-1.712-3.538-2.702-5.765-2.702-2.228 0-4.34.99-5.765 2.702-62.734 75.365-138.359 72.49-184.058 47.133-25.36-14.072-42.654-34.699-48.752-56.061 6.318 7.148 14.457 12.994 23.869 16.771 25.143 10.09 52.927 2.765 74.324-19.593 2.864-2.993 2.76-7.74-.233-10.604-2.995-2.864-7.741-2.76-10.606.233-17.261 18.036-38.364 23.882-57.897 16.043-16.945-6.8-28.779-22.923-28.779-39.207 0-3.682-2.673-6.819-6.309-7.404-3.637-.598-7.159 1.554-8.314 5.051-12.685 38.376 10.103 82.74 55.417 107.886 29.344 16.282 63.852 21.881 97.167 15.768 36.484-6.698 70.883-27.295 99.937-59.741 27.264 30.448 59.234 50.461 93.219 58.345-.078 24.686-.119 48.345-.119 70.414 0 32.031.084 67.259.249 104.703.019 4.131 3.373 7.467 7.5 7.467h.034c4.143-.019 7.486-3.391 7.468-7.533-.165-37.423-.249-72.628-.249-104.637 0-21.269.037-44.018.11-67.742 6.074.76 12.17 1.137 18.251 1.137 5.534 0 11.055-.313 16.534-.933.073 23.684.109 46.365.109 67.538 0 94.022-.727 189.11-.934 214.321-4.367.532-10.506 1.11-16.568 1.11-6.063 0-12.202-.578-16.568-1.11-.092-11.171-.287-36.043-.473-68.223-.024-4.127-3.377-7.456-7.5-7.456h-.044c-4.143.024-7.482 3.401-7.458 7.544.255 44.045.526 74.414.529 74.716.032 3.618 2.644 6.698 6.21 7.32.516.091 12.791 2.209 25.304 2.209 12.512 0 24.788-2.118 25.305-2.209 3.566-.622 6.178-3.701 6.21-7.32.01-1.104.989-111.72.989-220.902 0-21.915-.04-45.444-.117-70.027 13.632-2.996 26.825-7.941 39.112-14.759 45.314-25.145 68.102-69.51 55.417-107.885z"/><path d="m128.007 95.196c1.07.53 2.205.781 3.323.781 2.762 0 5.419-1.531 6.728-4.174 3.486-7.039 6.724-14.776 9.621-22.997 6.128-17.382 13.381-30.811 28.865-39.852 16.305-9.519 41.553-13.954 79.456-13.954 26.178 0 46.286 2.126 61.474 6.498 3.982 1.149 8.137-1.151 9.283-5.132 1.147-3.98-1.151-8.136-5.133-9.282-16.556-4.767-38.022-7.084-65.624-7.084-40.673 0-68.324 5.085-87.021 16.002-20.574 12.014-29.196 30.082-35.448 47.818-2.698 7.651-5.698 14.827-8.917 21.327-1.838 3.712-.32 8.211 3.393 10.049z"/><path d="m113.873 167.797c-.007 4.143 3.345 7.506 7.487 7.514h.259c69.659 0 102.92-50.726 104.303-52.887 2.232-3.49 1.213-8.128-2.277-10.36-3.49-2.231-8.129-1.214-10.361 2.277-.294.46-30.116 45.97-91.672 45.97-.076 0-.161.007-.24 0-4.135 0-7.492 3.349-7.499 7.486z"/><path d="m176.529 67.916c-.027.259-2.946 26.115-20.3 45.458-2.766 3.083-2.509 7.825.575 10.591 1.433 1.285 3.223 1.917 5.007 1.917 2.056 0 4.105-.841 5.586-2.492 20.7-23.072 23.928-52.688 24.055-53.938.419-4.114-2.573-7.784-6.688-8.212-4.109-.426-7.799 2.563-8.235 6.676z"/><path d="m334.909 154.969c-1.646 3.801.101 8.217 3.902 9.863 16.06 6.953 33.41 10.479 51.571 10.479h.258c4.143-.008 7.495-3.372 7.487-7.514-.008-4.138-3.364-7.486-7.501-7.486-.088-.002-.163 0-.244 0-16.098 0-31.444-3.109-45.61-9.244-3.802-1.646-8.218.101-9.863 3.902z"/><path d="m298.706 114.326c-2.236-3.478-6.868-4.49-10.352-2.263-3.49 2.232-4.509 6.87-2.277 10.36.25.39 6.246 9.67 18.213 20.318 1.429 1.272 3.21 1.897 4.984 1.897 2.066 0 4.124-.849 5.606-2.514 2.754-3.095 2.478-7.835-.616-10.589-10.259-9.127-15.458-17.055-15.558-17.209z"/><path d="m320.547 69.451c.127 1.25 3.355 30.866 24.055 53.938 1.482 1.651 3.53 2.492 5.586 2.492 1.784 0 3.574-.633 5.007-1.917 3.083-2.766 3.341-7.508.575-10.591-17.306-19.289-20.256-45.057-20.3-45.455-.426-4.114-4.102-7.104-8.221-6.688-4.121.419-7.122 4.101-6.702 8.221z"/></g></g></svg>