<svg id="Capa_1" enable-background="new 0 0 512.314 512.314" height="512" viewBox="0 0 512.314 512.314" width="512" xmlns="http://www.w3.org/2000/svg"><g><g><circle cx="256.928" cy="256.18" fill="#f8f7f8" r="248.034"/><path d="m199.403 418.052c0-58.422-47.53-105.951-105.952-105.951-.009 0-.018 0-.028 0-1.588.001-2.976-1.091-3.297-2.646-3.36-16.274-5.136-33.127-5.136-50.396 0-127.274 95.852-232.162 219.312-246.393-15.342-2.969-31.165-4.519-47.374-4.519-136.985-.001-248.034 111.048-248.034 248.033s111.049 248.034 248.034 248.034c9.711 0 19.272-.556 28.692-1.642-30.084-5.821-58.223-17.087-83.365-32.72-6.933-4.311-9.989-12.756-7.572-20.554 3.064-9.88 4.72-20.372 4.72-31.246z" fill="#efedee"/><circle cx="254.712" cy="256.18" fill="#efedee" r="201.584"/><path d="m167.331 74.469c-67.595 32.545-114.203 101.67-114.203 181.711 0 90.487 59.629 167.053 141.73 192.55 2.951-9.714 4.544-20.013 4.544-30.679 0-58.422-47.53-105.951-105.952-105.951-.009 0-.018 0-.028 0-1.588 0-2.976-1.091-3.297-2.646-3.36-16.274-5.136-33.127-5.136-50.396.001-73.317 31.772-139.18 82.342-184.589z" fill="#e4e1e5"/><g><g><g fill="#b8de9c"><path d="m317.859 107.038-4.037-12.577c-3.071-9.566-10.914-16.834-20.686-19.168-6.704-1.601-12.867-4.944-17.866-9.69l-5.279-5.012c-12.61-11.972-33.28-7.793-40.248 8.138l-6.162 14.089c-1.813 4.145-4.331 7.945-7.441 11.231l-3.194 3.374c-10.41 10.996-11.304 27.919-2.111 39.951l4.441 5.813 55.621 54.084 53.813-28.432z"/><path d="m389.857 268.439 9.332-5.251c4.821-2.712 7.85-7.77 7.966-13.3.068-3.234 1.16-6.364 3.12-8.938l.465-.61c5.922-7.779 6.279-18.451.892-26.609l-5.21-7.889c-3.184-4.821-4.776-10.519-4.554-16.292l.147-3.812c.524-13.579-9.993-25.044-23.566-25.692l-21.47-1.025-59.255-1.534 37.458 128.351z"/><path d="m396.904 322.467 19.394 34.467c11.484 20.41-10.7 43.219-31.421 32.305-7.387-3.891-16.24-3.787-23.534.275l-11.129 6.198c-7.365 4.102-16.654.695-19.619-7.196l-5.885-15.66-23.724-65.132 70.939-15.914z"/></g><path d="m108.447 221.663 30.051 42.092 108.352 126.206 42.569-4.28c1.645-1.822 3.268-3.687 4.848-5.641.019-.024.035-.049.054-.073l12.461-16.668-85.452-166.029-54.908-17.929c-4.048-1.004-8.408-.759-12.462.883-18.243 7.388-34.996 18.002-50.415 31.503 2.438 4.071 4.902 9.936 4.902 9.936z" fill="#fcf6ed"/><path d="m302.744 358.779c-16.144 16.71-42.864 17.003-59.275.555-45.019-45.12-87.819-94.807-128.645-148.555-1.382-1.82-2.383-3.809-3.056-5.872-3.599 2.826-7.131 5.795-10.593 8.918-7.784 7.022-8.993 18.783-2.653 27.132 44.966 59.218 92.522 113.7 142.737 162.45 6.603 6.411 16.803 7.551 24.538 2.563 10.438-6.731 19.931-15.369 28.47-25.93.019-.024.035-.049.054-.073l12.461-16.668-2.926-5.685c-.369.392-.739.78-1.112 1.165z" fill="#fcf1de"/><path d="m182.87 168.971 8.219 31.258 68.743 118.52 37.891 52.305 31.599-11.955 7.085 1.328c.924-.78 1.849-1.557 2.763-2.37.608-.54 1.167-1.119 1.697-1.719l15.714-19.714-91.978-182.911-15.337-12.575c-4.542-3.153-10.304-4.37-15.936-3.104-19.459 4.371-37.948 12.262-55.57 23.294 2.399 2.968 5.11 7.643 5.11 7.643z" fill="#fcf6ed"/><path d="m337.014 345.878c-14.2 8.344-32.443 4.546-42.119-8.783-39.18-53.976-75.114-112.537-108.175-175.154-.835-1.581-1.419-3.228-1.797-4.896-3.142 1.791-6.26 3.671-9.348 5.658-8.726 5.615-11.709 16.999-6.865 26.175 34.781 65.876 72.743 127.263 114.319 183.544 5.498 7.442 15.431 10.221 23.917 6.534 11.362-4.936 22.104-11.897 32.224-20.899.608-.54 1.167-1.119 1.697-1.719l15.714-19.714-1.752-3.484c-5.743 4.884-11.681 9.133-17.815 12.738z" fill="#fcf1de"/><g id="XMLID_229_"><g><path d="m396.903 322.471c1.04 7.88-2.72 15.61-9.51 19.75-11.58 7.03-23.39 11.95-35.46 14.77-9.01 2.1-18.28-2.42-22.35-10.72-30.8-62.84-57.12-130.05-79.5-201.1-3.14-9.95 1.95-20.6 11.61-24.57 20.04-8.25 40.39-13 61.09-13.84 8.56-.34 16.43 4.72 19.55 12.69 26.76 68.22 45.69 135.94 54.57 203.02z" fill="#fcf6ed"/></g></g><path d="m376.725 331.589c-9.01 2.1-18.28-2.42-22.35-10.72-30.8-62.84-57.12-130.05-79.5-201.1-.397-1.258-.66-2.528-.802-3.793-4.14 1.395-8.267 2.932-12.38 4.625-9.66 3.97-14.75 14.62-11.61 24.57 22.38 71.05 48.7 138.26 79.5 201.1 4.07 8.3 13.34 12.82 22.35 10.72 12.07-2.82 23.88-7.74 35.46-14.77 6.142-3.745 9.791-10.429 9.665-17.503-6.698 2.962-13.472 5.268-20.333 6.871z" fill="#fcf1de"/></g><circle cx="93.451" cy="418.052" fill="#f8f7f8" r="85.951"/><path d="m118.593 499.807c-47.47 0-85.951-38.482-85.951-85.951 0-38.163 24.849-70.523 59.268-81.742-46.77.81-84.41 38.975-84.41 85.938 0 47.47 38.482 85.951 85.951 85.951 9.307 0 18.273-1.486 26.666-4.222-.504.009-1.017.026-1.524.026z" fill="#efedee"/><circle cx="93.451" cy="418.052" fill="#b8de9c" r="54.753"/></g></g><g><path d="m418.042 390.062c9.814-10.091 11.696-24.538 4.793-36.806l-18.693-33.222c-2.06-15.306-4.678-30.851-7.847-46.612l6.573-3.698c7.099-3.993 11.615-11.534 11.786-19.678.035-1.659.585-3.233 1.589-4.552l.466-.611c7.842-10.302 8.317-24.481 1.183-35.285l-5.211-7.89c-2.333-3.534-3.48-7.639-3.317-11.869l.147-3.813c.68-17.616-13.094-32.632-30.703-33.472l-16.438-.784c-4.093-11.614-8.439-23.301-13.048-35.053-4.186-10.675-14.638-17.572-26.077-17.447l-2.28-7.102c-3.848-11.984-13.843-21.245-26.085-24.169-5.413-1.293-10.407-4.002-14.443-7.834l-5.279-5.014c-7.694-7.303-18.494-10.407-28.891-8.306-10.397 2.103-19.142 9.16-23.393 18.879l-6.162 14.089c-1.47 3.36-3.494 6.416-6.016 9.08l-3.195 3.373c-12.384 13.082-13.969 32.635-4.181 47.455-10.771 4.432-21.353 9.964-31.656 16.581-5.711 3.668-9.651 9.022-11.534 14.987-3.056.156-6.083.809-8.982 1.983-19.567 7.924-38.088 19.711-55.049 35.034-10.749 9.712-12.285 25.685-3.573 37.153 46.033 60.604 94.304 115.543 143.471 163.289 5.332 5.179 12.23 7.846 19.176 7.846 5.103 0 10.231-1.439 14.781-4.38 9.921-6.411 19.111-14.537 27.382-24.166.572.036 1.146.058 1.721.058 3.65 0 7.348-.738 10.88-2.272 3.318-1.442 6.59-3.068 9.819-4.843l3.819 10.163c2.183 5.807 6.774 10.361 12.599 12.498 2.378.872 4.859 1.304 7.334 1.304 3.584 0 7.15-.906 10.356-2.691l11.129-6.199c5.099-2.84 11.225-2.91 16.389-.191 12.454 6.56 26.843 4.277 36.66-5.813zm-39.951-222.525c9.423.449 16.793 8.484 16.43 17.91l-.147 3.813c-.285 7.385 1.717 14.548 5.789 20.714l5.21 7.89c3.627 5.491 3.385 12.698-.6 17.933l-.465.611c-2.94 3.861-4.549 8.468-4.651 13.323-.061 2.864-1.648 5.516-4.146 6.921l-2.47 1.39c-6.579-29.669-15.071-60.06-25.428-91.005zm-42.736-45.345c1.888 4.814 3.728 9.616 5.528 14.407l-16.678-6.576c-3.854-1.517-8.209.374-9.729 4.227-1.52 3.854.373 8.209 4.227 9.729l29.055 11.456c5.943 16.788 11.333 33.415 16.168 49.855l-13.64-6.042c-3.786-1.678-8.217.033-9.895 3.82s.033 8.217 3.82 9.895l25.008 11.077c5.183 19.159 9.595 38.045 13.217 56.614l-4.116-1.729c-3.817-1.605-8.214.189-9.819 4.009-1.604 3.818.189 8.215 4.009 9.819l13.142 5.523c1.439 8.463 2.714 16.858 3.816 25.177.65 4.904-1.696 9.755-5.977 12.358-10.824 6.583-22.015 11.252-33.261 13.877-.93.217-1.87.307-2.802.299l-6.728-91.295c-3.271-44.382-27.988-84.578-66.117-107.524l-17.857-10.746c-.002-.026-.007-.052-.01-.078-.524-5.406 2.532-10.631 7.826-12.809 2.084-.857 4.17-1.666 6.258-2.441l16.467 6.492c.903.355 1.834.524 2.749.524 2.99 0 5.816-1.801 6.979-4.751 1.365-3.464-.031-7.326-3.125-9.177 9.783-2.219 19.544-3.532 29.215-3.923 5.384-.228 10.324 2.969 12.27 7.933zm-118.561 10.628c-6.995-9.155-6.323-21.874 1.598-30.241l3.195-3.373c3.717-3.927 6.7-8.429 8.866-13.383l6.162-14.088c2.328-5.323 6.929-9.036 12.623-10.188 5.695-1.154 11.377.481 15.59 4.481l5.279 5.013c5.947 5.648 13.309 9.641 21.287 11.547 7.175 1.714 13.032 7.142 15.287 14.164l1.203 3.747c-16.331 2.064-32.77 6.465-49.046 13.161-7.812 3.214-13.388 9.491-15.826 16.889-3.711-.716-7.569-.677-11.324.166-4.583 1.03-9.145 2.268-13.682 3.689zm-100.141 119.383 3.988.798c38.87 7.772 71.681 34.041 87.77 70.268l29.438 66.284c-41.357-40.965-82.026-87.067-121.196-137.35zm145.159 147.413c-.802.518-1.656.92-2.536 1.228l-37.156-83.664c-18.063-40.672-54.899-70.163-98.538-78.889l-20.442-4.088c-2.36-4.925-1.254-10.912 3.012-14.767 1.672-1.511 3.363-2.976 5.066-4.411l17.692.552c.08.003.159.004.238.004 4.034 0 7.365-3.206 7.492-7.267.116-3.721-2.503-6.886-6.041-7.583 8.459-5.392 17.204-9.923 26.176-13.556.965-.39 1.96-.656 2.969-.802.531 2.041 1.303 4.054 2.332 6.003 35.533 67.301 74.198 129.377 114.92 184.501 1.554 2.104 3.356 3.924 5.331 5.46-6.347 6.772-13.221 12.566-20.515 17.279zm-77.028-196.651 3.804 1.437c37.082 14.007 65.17 45.275 75.136 83.642l18.234 70.198c-34.123-47.159-66.729-99.278-97.174-155.277zm119.174 169.112c-.876.381-1.784.64-2.702.799l-23.014-88.604c-11.188-43.073-42.723-78.177-84.353-93.902l-19.501-7.367c-.302-1.036-.463-2.09-.49-3.14.021-.292.028-.583.015-.872.177-3.955 2.237-7.744 5.855-10.068 1.896-1.218 3.804-2.387 5.718-3.526l17.364 3.43c.491.098.979.144 1.462.144 3.509 0 6.644-2.475 7.35-6.048.722-3.653-1.347-7.202-4.724-8.467 9.226-3.94 18.592-6.985 28.036-9.107 2.538-.568 5.173-.332 7.543.624.125.485.26.97.412 1.453 4.868 15.45 10.081 31.163 15.492 46.701 1.362 3.912 5.637 5.977 9.55 4.616 3.912-1.362 5.979-5.639 4.616-9.55-3.157-9.063-6.233-18.182-9.223-27.275l3.486 2.098c33.962 20.439 55.979 56.243 58.893 95.775l5.33 72.325c-17.015-35.608-33.006-73.44-47.594-112.649-1.445-3.883-5.764-5.857-9.645-4.414-3.882 1.444-5.858 5.763-4.414 9.645 16.252 43.679 34.228 85.69 53.427 124.869 1.443 2.944 3.341 5.525 5.569 7.698-7.788 6.148-15.984 11.13-24.458 14.812zm84.414 10.526c-9.666-5.091-21.135-4.956-30.678.358l-11.129 6.198c-2.193 1.223-4.217.781-5.227.41-1.012-.371-2.84-1.344-3.723-3.692l-4.91-13.065c3.511-2.519 6.947-5.246 10.302-8.168 1.44.237 2.904.372 4.386.372 2.065 0 4.159-.235 6.247-.723 12.796-2.986 25.461-8.258 37.646-15.668 3.075-1.871 5.682-4.285 7.761-7.056l10.715 19.042c4.323 7.683 1.557 14.848-2.474 18.992s-11.119 7.108-18.916 3z"/><path d="m491.451 154.89c-13.368-30.925-32.462-58.554-56.752-82.121-2.975-2.886-7.723-2.812-10.605.16-2.885 2.973-2.812 7.721.16 10.605 47.114 45.712 73.061 107.017 73.061 172.622 0 64.243-25.018 124.641-70.444 170.067s-105.823 70.443-170.066 70.443c-24.704 0-49.08-3.738-72.452-11.112-3.949-1.251-8.163.945-9.409 4.896-1.247 3.95.946 8.163 4.896 9.409 24.833 7.835 50.728 11.808 76.964 11.808 68.25 0 132.414-26.577 180.674-74.837 48.259-48.26 74.837-112.424 74.837-180.674-.001-35.169-7.021-69.24-20.864-101.266z"/><path d="m19.59 336.236c.726 0 1.464-.106 2.194-.329 3.961-1.211 6.191-5.403 4.98-9.364-6.949-22.743-10.473-46.424-10.473-70.386 0-64.243 25.018-124.641 70.444-170.066 45.426-45.427 105.824-70.444 170.067-70.444 52.314 0 102.052 16.505 143.834 47.731 3.318 2.479 8.018 1.799 10.498-1.518 2.479-3.318 1.8-8.019-1.518-10.498-44.395-33.179-97.237-50.716-152.813-50.716-68.25 0-132.414 26.578-180.674 74.837-48.259 48.26-74.837 112.425-74.837 180.674 0 25.448 3.744 50.604 11.128 74.769.988 3.231 3.958 5.31 7.17 5.31z"/><path d="m436.501 343.921c.988.438 2.021.646 3.036.646 2.876 0 5.619-1.663 6.86-4.462 11.755-26.512 17.716-54.756 17.716-83.947 0-82.396-48.797-156.979-124.315-190.011-3.795-1.662-8.218.07-9.877 3.865-1.66 3.795.07 8.218 3.865 9.877 70.059 30.644 115.327 99.833 115.327 176.269 0 27.084-5.527 53.282-16.429 77.867-1.678 3.785.03 8.216 3.817 9.896z"/><path d="m370.173 411.496c-33.081 24.188-72.284 36.972-113.37 36.972-16.827 0-33.556-2.188-49.724-6.503-4.003-1.069-8.112 1.31-9.18 5.312-1.068 4.003 1.31 8.112 5.312 9.181 17.429 4.652 35.46 7.011 53.592 7.011 44.291 0 86.556-13.784 122.224-39.862 3.344-2.445 4.072-7.138 1.628-10.481s-7.138-4.074-10.482-1.63z"/><path d="m200.83 72.13c3.963-1.203 6.201-5.393 4.997-9.355-1.204-3.964-5.395-6.202-9.356-4.996-41.645 12.649-79.071 38.861-105.385 73.809-27.21 36.137-41.592 79.213-41.592 124.57 0 17.538 2.196 34.967 6.526 51.801.871 3.386 3.917 5.634 7.258 5.634.619 0 1.247-.077 1.874-.238 4.011-1.032 6.427-5.12 5.395-9.132-4.017-15.614-6.053-31.786-6.053-48.064 0-42.076 13.339-82.032 38.575-115.548 24.416-32.429 59.135-56.748 97.761-68.481z"/><path d="m179.594 413.715c-4.14-.157-7.617 3.084-7.766 7.224-.736 20.343-9.215 39.354-23.875 53.528-14.696 14.211-34.052 22.037-54.502 22.037-43.258 0-78.451-35.194-78.451-78.452 0-43.259 35.193-78.452 78.451-78.452 33.257 0 63.004 21.081 74.023 52.459 1.372 3.907 5.653 5.965 9.561 4.591 3.908-1.372 5.964-5.653 4.591-9.562-13.125-37.376-48.561-62.488-88.176-62.488-51.528 0-93.45 41.923-93.45 93.452s41.922 93.451 93.451 93.451c24.362 0 47.421-9.323 64.929-26.254 17.461-16.884 27.561-39.531 28.438-63.769.15-4.138-3.085-7.616-7.224-7.765z"/><path d="m93.451 355.8c-34.326 0-62.253 27.926-62.253 62.252s27.927 62.253 62.253 62.253 62.253-27.927 62.253-62.253-27.927-62.252-62.253-62.252zm0 109.504c-26.055 0-47.253-21.197-47.253-47.253 0-26.055 21.198-47.252 47.253-47.252s47.253 21.197 47.253 47.252c0 26.056-21.198 47.253-47.253 47.253z"/><path d="m76.628 406.874 4.11-4.109c2.929-2.929 2.929-7.678 0-10.606-2.929-2.93-7.677-2.929-10.607-.001l-4.11 4.109c-2.929 2.929-2.929 7.678 0 10.606 1.465 1.465 3.384 2.197 5.304 2.197 1.919 0 3.839-.732 5.303-2.196z"/><path d="m72.188 425.786-2.055 2.055c-2.929 2.929-2.93 7.677-.001 10.606 1.464 1.465 3.384 2.197 5.304 2.197 1.919 0 3.838-.732 5.303-2.196l2.055-2.055c2.929-2.929 2.93-7.677.001-10.606s-7.678-2.93-10.607-.001z"/><path d="m101.594 396.379-2.055 2.055c-2.929 2.93-2.929 7.678 0 10.607 1.464 1.464 3.384 2.196 5.303 2.196s3.839-.732 5.303-2.196l2.055-2.055c2.929-2.93 2.929-7.678 0-10.607-2.929-2.928-7.678-2.928-10.606 0z"/></g></g></svg>