<svg id="Layer_1" height="512" viewBox="0 0 512 512" width="512" xmlns="http://www.w3.org/2000/svg" data-name="Layer 1"><path d="m490.38 168.77-468.84 182.05v89.13l468.92-183.27v-87.89z" fill="#f73157"/><path d="m21.54 439.95v61.05l468.92-177.12v-67.2z" fill="#ff5c83"/><path d="m81.54 417.245-60 22.705v61.05l60-23.109z" fill="#f73157"/><path d="m81.54 327.419-60 23.401v89.13l60-23.635z" fill="#d80945"/><path d="m489.56 165.96-239.33-100.15-228.69 285.01 321.32-123.72.08-.03a13.721 13.721 0 0 1 11.16.94 15.24 15.24 0 0 1 7.71 13.18v71.29a13.55 13.55 0 1 0 27.1 0v-25.22a14.118 14.118 0 0 1 28.11-1.88c.09.61.16 65.67.22 66.16a13.546 13.546 0 0 0 27.01-1.5v-144.76a25.094 25.094 0 0 1 16.08-23.42l28.07-10.81a3.1 3.1 0 0 0 1.16-5.09z" fill="#ff9cb8"/><path d="m279 79-28.77-13.19-228.69 285.01 57.883-22.287z" fill="#ffbbd2"/><path d="m286.32 82.76.03-.03a54.714 54.714 0 0 1 6.85-6.43 76.009 76.009 0 0 1 6.4-4.55 67.148 67.148 0 0 1 33.8-10.78c20.39-.72 40.37 8.52 52.56 28.31.48.78.94 1.56 1.38 2.36a54.933 54.933 0 0 1 6.91 33.35c-.14 1.3-.34 2.58-.57 3.86-4.05 21.96-20.48 38.09-43.23 43.84a71.768 71.768 0 0 1 -28.64 1.09l-2.83-.45c-43.32-6.76-60.48-59.64-32.66-90.57z" fill="#ff003d"/><path d="m341.81 173.78-2.83-.45c-43.32-6.76-60.48-59.64-32.66-90.57l.03-.03a54.714 54.714 0 0 1 6.85-6.43 76.009 76.009 0 0 1 6.4-4.55 68.1 68.1 0 0 1 25.946-10 61.169 61.169 0 0 0 -12.146-.78 67.148 67.148 0 0 0 -33.8 10.78 76.009 76.009 0 0 0 -6.4 4.55 54.714 54.714 0 0 0 -6.85 6.43l-.03.03c-27.82 30.93-10.66 83.81 32.66 90.57l2.83.45a74.224 74.224 0 0 0 21.833.243c-.611-.081-1.224-.148-1.833-.243z" fill="#d80945"/><circle cx="352" cy="108" fill="#ffcade" r="21"/><g fill="#284268"><path d="m301.674 206.377a7.015 7.015 0 1 0 7.014 7.015 7.023 7.023 0 0 0 -7.014-7.015z"/><path d="m411.2 187a7.015 7.015 0 1 0 -7.014 7.015 7.022 7.022 0 0 0 7.014-7.015z"/><path d="m411.292 214.5a7.015 7.015 0 1 0 7.015 7.015 7.024 7.024 0 0 0 -7.015-7.015z"/><path d="m381.857 250.021a7.015 7.015 0 1 0 7.015 7.015 7.022 7.022 0 0 0 -7.015-7.015z"/><path d="m379.827 222.437a7.015 7.015 0 1 0 -7.015-7.015 7.023 7.023 0 0 0 7.015 7.015z"/><circle cx="346.333" cy="192.077" r="7.015"/><path d="m420.427 153.6a7.015 7.015 0 1 0 7.014 7.015 7.024 7.024 0 0 0 -7.014-7.015z"/><path d="m219.461 193.182a7.015 7.015 0 1 0 7.015 7.015 7.023 7.023 0 0 0 -7.015-7.015z"/><path d="m265.135 171.868a7.015 7.015 0 1 0 7.014 7.014 7.023 7.023 0 0 0 -7.014-7.014z"/><path d="m172.771 215.512a7.015 7.015 0 1 0 7.016 7.014 7.022 7.022 0 0 0 -7.016-7.014z"/><path d="m135.218 255.1a7.015 7.015 0 1 0 7.014 7.015 7.023 7.023 0 0 0 -7.014-7.015z"/><path d="m214.386 234.8a7.015 7.015 0 1 0 7.015 7.015 7.023 7.023 0 0 0 -7.015-7.015z"/><circle cx="231.641" cy="139.298" r="7.015"/><path d="m293.555 128.045a6 6 0 0 0 5.591-8.175c-5.359-13.782 5.776-23.178 6.3-23.611a6 6 0 0 0 -7.522-9.35c-6.456 5.165-16.847 19.609-9.964 37.309a6 6 0 0 0 5.595 3.827z"/><path d="m493.834 160.363-93.288-40.556a60.884 60.884 0 0 0 -7.946-32.436c-.428-.781-.9-1.585-1.532-2.618a64.514 64.514 0 0 0 -40.691-29.553 65.668 65.668 0 0 0 -12.589-1.577 30.064 30.064 0 0 1 -.527-10.648c1.483-12.215 9.439-23.143 16.667-28.555a6 6 0 0 0 -7.194-9.606c-11.311 8.471-19.706 22.882-21.385 36.714a42.469 42.469 0 0 0 .337 12.785 74.119 74.119 0 0 0 -29.315 11 82.3 82.3 0 0 0 -6.888 4.9c-1.556 1.227-3.051 2.546-4.485 3.926l-32.218-15.139a6 6 0 0 0 -7.23 1.676l-228.686 285.011a5.975 5.975 0 0 0 -1.31 3.757h-.014v150.171h.005a5.991 5.991 0 0 0 8.115 5.613l389.855-147.251a19.549 19.549 0 0 0 36.737-9.317v-4.56l42.324-15.987a6 6 0 0 0 3.885-5.609v-155.095h-.042a9.048 9.048 0 0 0 -2.585-7.046zm-203.017-75.006a48.63 48.63 0 0 1 6.11-5.735 70.281 70.281 0 0 1 5.911-4.2 61.9 61.9 0 0 1 26.881-9.537 42.235 42.235 0 0 0 4.621 6.915 6 6 0 0 0 9.975-6.547c1.14.182 2.274.39 3.4.645 13.9 3.166 25.357 11.517 33.133 24.139.427.7.843 1.393 1.264 2.16a48.848 48.848 0 0 1 5.67 33.183c-3.55 19.245-18.053 33.868-38.8 39.116a65.425 65.425 0 0 1 -26.248.97l-2.827-.441c-17.77-2.776-32.029-14.711-38.144-31.924-6.079-17.116-2.615-35.789 9.054-48.744zm120.331 260.687-383.608 144.891v-48.262l103.645-40.513a6 6 0 0 0 -4.37-11.177l-99.275 38.806v-76.227l317.347-122.2a7.677 7.677 0 0 1 6.218.466 9.279 9.279 0 0 1 4.7 7.979v61.675l-188.989 73.866a6 6 0 1 0 4.369 11.177l184.9-72.264a19.567 19.567 0 0 0 19.033 16.393c10.885.132 19.792-9.145 19.792-20.031v-11.537l16.238-6.346zm-16.238-59.844v-.321a8.111 8.111 0 0 1 14.288-5.263zm43.342-82.3v144.76a7.552 7.552 0 1 1 -15.1 0v-62.779a20.119 20.119 0 0 0 -40.238 0v25.219a7.552 7.552 0 1 1 -15.1 0v-71.289a21.31 21.31 0 0 0 -10.71-18.376 19.723 19.723 0 0 0 -16.132-1.411c-.087.029-.173.06-.259.093l-300.572 115.734 211.812-263.978 25.019 11.75a60.805 60.805 0 0 0 -6.517 54.5c7.613 21.431 25.407 36.3 47.6 39.763l2.828.442a83.77 83.77 0 0 0 12.908 1.022 73.811 73.811 0 0 0 18.133-2.215c24.146-6.109 41.423-22.809 46.883-45.029l80.556 34.623-21.19 8.159a31.287 31.287 0 0 0 -19.921 29.017zm46.208 114.453-34.208 12.92v-53.818l34.208-13.37zm0-67.152-34.208 13.37v-60.666a19.212 19.212 0 0 1 12.235-17.822l21.973-8.461z"/></g></svg>