<svg id="Layer_1" enable-background="new 0 0 512 512" height="512" viewBox="0 0 512 512" width="512" xmlns="http://www.w3.org/2000/svg"><g><g><path d="m348.3 316.87c0 50.92-1.76 101.83-3.15 134.2l-31.36.01-206.88.04c-1.39-32.38-3.16-83.31-3.16-134.25 0-25.08.43-50.16 1.03-73.03l121.25-102.67 87.43 66.89 33.53 25.65c.75 25.47 1.31 54.32 1.31 83.16z" fill="#ffe878"/><path d="m348.3 316.87c0 50.92-1.76 101.83-3.15 134.2l-31.36.01c5.19-104.98 1.24-209.24-.33-243.02l33.53 25.65c.75 25.47 1.31 54.32 1.31 83.16z" fill="#ffd37b"/><g><path d="m226.028 141.17c-5.55 0-10.59-.9-15.1-2.51-21.15-7.51-30.72-30.48-26.67-48.56 5.99-26.71 41.77-15.76 41.77-82.6 1.8 0 3.65.41 5.53 1.17 32.17 13.16 71.49 132.5-5.53 132.5z" fill="#ff5f85"/><path d="m226.028 141.17c-5.55 0-10.59-.9-15.1-2.51 36.85-13.65 34.78-80.34 20.63-129.99 32.17 13.16 71.49 132.5-5.53 132.5z" fill="#b2527e"/><path d="m247.008 137.39h-40c0-16.52 8.95-39.92 20-39.92 3.8 0 7.36 2.77 10.38 7.09 5.77 8.21 9.62 22 9.62 32.83z" fill="#ffe878"/><path d="m247.008 137.39h-33.07c12.05-5.76 19.49-17.68 23.45-32.83 5.77 8.21 9.62 22 9.62 32.83z" fill="#ffd37b"/></g><path d="m440.49 453.88c-42.04.23-21.61 45.2-80.61 48.69-14.48.86-27.82 1.34-44.31 1.6-21.24.34-47.71.33-88.57.33-72.54 0-99.73.04-132.87-1.93-59-3.49-38.57-48.46-80.61-48.69 23.41-.92 112.01-4.11 213.48-4.11 55.79 0 107.69.96 147.01 1.99 32.19.83 55.95 1.71 66.48 2.12z" fill="#dcf8ff"/><path d="m440.49 453.88c-42.04.23-21.61 45.2-80.61 48.69-14.48.86-27.82 1.34-44.31 1.6 48.32-13.12 58.23-36.13 58.44-52.41 32.19.83 55.95 1.71 66.48 2.12z" fill="#d2e1f9"/><path d="m360.21 226.85c-8.24 4.71-18.15 9.74-31.08 13.66-13.61 4.13-30.57 7.03-52.44 7.03-30.07 0-44.4-3.86-90.91-14.71-59.91-13.98-91.98 19.45-91.98 19.45 1.56-58.55 3.35-103.48 3.35-103.48s64.44-7.63 128.88-7.63c36.37 0 72.74 2.43 97.53 4.54 19.12 1.64 31.34 3.09 31.34 3.09s3.79 31.85 5.31 78.05z" fill="#ffc17d"/><path d="m354.9 148.8s3.79 31.85 5.31 78.05c-8.24 4.71-18.15 9.74-31.08 13.66-.58-43.37-4.09-80.74-5.57-94.8 19.12 1.64 31.34 3.09 31.34 3.09z" fill="#ffaa80"/></g><g><path d="m475.302 356.053c-15.017-5.562-30.299-3.049-41.923 6.893-11.41 9.755-16.979 25.015-14.19 38.876 2.838 14.1 13.457 24.77 29.904 30.043 3.947 1.265 8.167-.907 9.431-4.852s-.907-8.168-4.851-9.432c-11.198-3.59-18.037-10.063-19.779-18.719-1.733-8.615 1.891-18.238 9.232-24.517 4.333-3.704 13.6-9.173 26.969-4.227 23.658 8.76 29.02 27.177 26.149 41.492-3.552 17.703-20.5 36.193-49.427 35.018l-6.15-.248c-12.867-.501-44.958-1.668-87.714-2.631.818-19.965 1.794-47.749 2.359-77.825.077-4.142-3.217-7.562-7.358-7.64-4.112-.098-7.561 3.216-7.639 7.358-.565 30.091-1.543 57.884-2.361 77.786-32.924-.662-71.019-1.162-110.95-1.162-40.722 0-79.535.52-112.901 1.201-1.364-33.126-2.844-79.859-2.844-126.597 0-21.222.309-44.316.92-68.704 13.647-7.626 37.892-15.974 71.902-8.036 4.033.94 8.066-1.565 9.008-5.599.941-4.034-1.565-8.067-5.598-9.009-41.251-9.63-70.192 1.793-85.76 11.344 1.081-37.976 2.192-68.55 2.674-81.319 17.774-1.876 70.001-6.876 121.623-6.876 52.047 0 104.707 5.083 122.055 6.922 1.084 10.718 3.295 35.215 4.466 66.93-16.64 8.988-38.937 17.51-75.86 17.51-17.526 0-29.679-1.296-48.16-5.137-4.052-.845-8.026 1.762-8.869 5.816-.843 4.056 1.762 8.026 5.817 8.869 19.61 4.076 32.532 5.451 51.211 5.451 27.294 0 47.326-4.329 63.102-10.206.667 25.62 1.005 49.809 1.005 72.043 0 3.251-.008 6.502-.021 9.748-.018 4.142 3.326 7.514 7.468 7.531h.032c4.127 0 7.481-3.337 7.499-7.469.014-3.267.021-6.538.021-9.81 0-24.116-.395-50.506-1.174-78.513 3.284-1.643 6.369-3.323 9.3-4.997 2.415-1.378 3.869-3.98 3.777-6.76-1.517-45.994-5.318-78.366-5.356-78.687-.409-3.442-3.123-6.156-6.565-6.563-.52-.061-42.194-4.938-91.674-6.887.449-.468.889-.948 1.319-1.439 10.766-12.293 14.838-30.975 11.773-54.024-.546-4.106-4.311-6.993-8.422-6.446-4.106.546-6.992 4.317-6.446 8.423 2.442 18.373-.466 33.347-8.188 42.165-.339.387-.689.763-1.048 1.129-3.219-16.114-11.926-34.298-26.089-34.298-13.988 0-22.654 17.738-25.967 33.701-.835-.854-1.583-1.709-2.248-2.541-6.658-8.317-9.427-19.581-7.226-29.394 1.592-7.1 5.946-10.444 12.538-15.507 11.384-8.744 26.624-20.452 29.085-57.876 6.844 5.519 15.324 17.571 21.721 34.14 1.492 3.865 5.835 5.79 9.698 4.295 3.864-1.491 5.787-5.834 4.295-9.697-8.385-21.724-24.646-47.093-42.869-47.093-4.142 0-7.5 3.357-7.5 7.5 0 38.737-11.979 47.938-23.564 56.836-7.5 5.761-15.255 11.718-18.037 24.12-3.174 14.151.716 30.264 10.152 42.052 1.087 1.358 2.234 2.645 3.437 3.86-50.597 1.878-93.711 6.923-94.239 6.985-3.662.434-6.465 3.465-6.612 7.149-.018.449-1.812 45.65-3.359 103.573-.083 3.097 1.747 5.927 4.606 7.12.935.391 1.916.58 2.889.58 1.076 0 2.14-.232 3.119-.679-.439 20.364-.661 39.739-.661 57.776 0 46.85 1.478 93.666 2.845 126.922-41.781.954-73.093 2.093-85.764 2.587-2.015-.023-4.18.079-6.455.267-4.071.335-7.126 3.866-6.87 7.943.255 4.077 3.722 7.184 7.808 7.024.143-.006 2.293-.098 6.21-.25 14.808.166 18.973 6.77 25.41 16.981 8.315 13.189 18.664 29.604 54.248 31.714 17.584 1.041 33.402 1.534 56.419 1.759h.075c4.108 0 7.458-3.31 7.498-7.427.041-4.143-3.284-7.532-7.426-7.573-22.75-.222-38.361-.707-55.678-1.733-27.893-1.652-34.962-12.866-42.447-24.739-2.117-3.358-4.312-6.841-6.981-10.074 39.975-1.277 107.737-3.004 181.852-3.004s141.878 1.727 181.853 3.004c-2.668 3.233-4.864 6.716-6.981 10.074-7.485 11.873-14.554 23.087-42.446 24.739-32.31 1.914-58.511 1.933-128.462 1.913h-7.256c-11.832.006-22.434 0-32.039-.009h-.007c-4.138 0-7.496 3.354-7.5 7.493-.004 4.142 3.351 7.503 7.493 7.507 9.608.009 20.208.012 32.053.009h11.015c67.479 0 93.43-.034 125.591-1.938 35.584-2.109 45.932-18.524 54.247-31.714 6.438-10.213 10.6-16.816 25.411-16.981 3.917.152 6.223.25 6.223.25 1.074.045 2.141.067 3.204.067 15.278 0 29.193-4.589 40.407-13.357 10.99-8.593 18.497-20.584 21.141-33.765 5.138-25.622-8.855-48.588-35.648-58.508zm-248.298-251.08c3.04 0 10.616 12.563 12.208 27.106-3.922 1.061-8.321 1.594-13.184 1.594-4.24 0-7.967-.607-11.23-1.61 1.595-14.536 9.167-27.09 12.206-27.09z"/></g></g></svg>