<svg id="Layer_1" enable-background="new 0 0 512 512" height="512" viewBox="0 0 512 512" width="512" xmlns="http://www.w3.org/2000/svg"><g><g><path d="m400.21 69.68c-23.28 24.25-23.34 56.16-23.34 56.49h-247.56s-.16-149.61 257.72-112.86l5.23 22.38z" fill="#ff5f85"/><path d="m400.21 69.68c-23.28 24.25-23.34 56.16-23.34 56.49h-30.57c1.35-48.96 32.18-79.31 45.96-90.48z" fill="#b2527e"/><path d="m382.92 329.65h-253.84c-4.25-31.28-4.27-62.58-2.87-88.33v-.01c1.91-35.28 6.48-60.11 6.48-60.11h246.62s4.57 24.83 6.48 60.11v.01c1.4 25.75 1.38 57.05-2.87 88.33z" fill="#ffd9d2"/><path d="m382.92 329.65h-27.54c5.41-67.74-1.88-123.2-6.27-148.45h30.2s4.57 24.83 6.48 60.11v.01c1.4 25.75 1.38 57.05-2.87 88.33z" fill="#f7c9c4"/><path d="m382.92 329.65h-253.84c-4.25-31.28-4.27-62.58-2.87-88.33.46 1.38 15.41 45.42 64.11 56.98h131.36c14.82-3.52 26.51-10.04 35.62-17.46 20.84-16.95 28.17-38.56 28.49-39.52 1.4 25.75 1.38 57.05-2.87 88.33z" fill="#dcf8ff"/><path d="m382.92 329.65h-27.54c1.37-17.16 1.93-33.53 1.92-48.81 20.84-16.95 28.17-38.56 28.49-39.52 1.4 25.75 1.38 57.05-2.87 88.33z" fill="#d2e1f9"/><path d="m479.78 494.01s-14.97 1.36-39.19 3.1c-43 3.1-115.18 7.39-184.59 7.39-108.51 0-223.78-10.49-223.78-10.49 0-86.14 70.13-92.85 122.02-100.86h203.52c6.2.96 12.66 1.9 19.23 2.96 48.42 7.79 102.79 22.05 102.79 97.9z" fill="#ff5f85"/><path d="m479.78 494.01s-14.97 1.36-39.19 3.1c-4.69-59.91-38-88.09-63.6-101 48.42 7.79 102.79 22.05 102.79 97.9z" fill="#b2527e"/><path d="m376.87 351.8c-5.65 17.14-13.75 34.36-25.21 50.57 0 0-7.75-2.77-13.88-8.5 0 0-9.25 26.99-44.72 55.5 0 0-1.54-1.54-3.94-4.13-3.58-3.88-9.09-10.12-14.18-17.06 0 0-8.57 18.81-18.94 30.4-10.37-11.59-18.94-30.4-18.94-30.4-8.48 11.56-18.12 21.19-18.12 21.19-35.47-28.51-44.72-55.5-44.72-55.5-5.78 5.52-13.88 8.5-13.88 8.5-11.45-16.21-19.56-33.43-25.21-50.56l120.87-81.83 81.31 55.04z" fill="#dcf8ff"/><path d="m376.87 351.8c-5.65 17.14-13.75 34.36-25.21 50.57 0 0-7.75-2.77-13.88-8.5 0 0-9.25 26.99-44.72 55.5 0 0-1.54-1.54-3.94-4.13 33.92-49.79 44.75-96.61 48.19-120.22z" fill="#d2e1f9"/><path d="m345.27 364.65c-27.29 5.16-60.85-1.36-89.27-30.24-64.47 65.51-155.34 15.98-139.68-24.11 0 24.09 50.65 44.02 74-12 7.72-18.53 19.19-28.32 65.68-28.32 4.23 0 8.17.08 11.85.25 36.71 1.6 46.81 11.23 53.83 28.07 23.35 56.02 74 36.09 74 12 8.76 22.42-15.79 47.78-50.41 54.35z" fill="#d2e1f9"/><path d="m345.27 364.65c5.85-9.66 3.06-19.35 3.06-19.35-50.49 0-44.89-59.77-80.48-75.07 36.71 1.6 46.81 11.23 53.83 28.07 23.35 56.02 74 36.09 74 12 8.76 22.42-15.79 47.78-50.41 54.35z" fill="#bdcde5"/><path d="m289.09 272.68h-66.17c0-14.03 8.74-26.02 21.08-30.82 3.72-1.45 7.76-2.24 12-2.24 18.27 0 33.09 14.8 33.09 33.06z" fill="#ff5f85"/><path d="m289.09 272.68h-24c0-14.03-8.75-26.02-21.09-30.82 3.72-1.45 7.76-2.24 12-2.24 18.27 0 33.09 14.8 33.09 33.06z" fill="#b2527e"/><path d="m404.47 154.1c0 13.42-5.87 26.83-5.87 26.83s-9.36.15-24.69.33c-26.98.33-72.45.78-117.91.78-71.3 0-142.59-1.11-142.59-1.11s-5.88-13.41-5.88-26.83c0-13.41 5.88-26.82 5.88-26.82s71.29-1.11 142.59-1.11c45.46 0 90.92.45 117.9.78 15.34.18 24.7.33 24.7.33s5.87 13.41 5.87 26.82z" fill="#dcf8ff"/><path d="m404.47 154.1c0 13.42-5.87 26.83-5.87 26.83s-9.36.15-24.69.33c7.03-23.55 2.86-44.46-.01-54.31 15.34.18 24.7.33 24.7.33s5.87 13.41 5.87 26.82z" fill="#d2e1f9"/><path d="m439.64 39.08c0 17.44-14.14 31.57-31.6 31.57-4.44 0-8.66-.91-12.5-2.57-11.24-4.84-19.1-16-19.1-29s7.86-24.17 19.1-29.01c3.84-1.65 8.06-2.57 12.5-2.57 17.46 0 31.6 14.14 31.6 31.58z" fill="#dcf8ff"/><path d="m439.64 39.08c0 17.44-14.14 31.57-31.6 31.57-4.44 0-8.66-.91-12.5-2.57 11.24-4.83 19.1-16 19.1-29s-7.86-24.17-19.1-29.01c3.84-1.65 8.06-2.57 12.5-2.57 17.46 0 31.6 14.14 31.6 31.58z" fill="#d2e1f9"/></g><g><path d="m445.208 409.671c-22.503-13.735-50.334-18.47-75.461-22.291 5.242-9.718 9.739-20.03 13.447-30.848 4.352-3.217 8.235-6.838 11.522-10.827 9.995-12.129 12.817-25.671 7.947-38.133-1.313-3.359-4.828-5.306-8.374-4.641-.41.077-.807.188-1.189.327 3.38-50.334-2.195-96.052-4.986-114.677 6.623-.089 10.435-.147 10.598-.15 2.937-.046 5.576-1.801 6.754-4.491.266-.606 6.503-15.023 6.503-29.836s-6.237-29.229-6.503-29.836c-1.178-2.69-3.817-4.445-6.754-4.491-.187-.003-5.203-.08-13.77-.192 1.251-9.309 5.249-26.837 18.006-41.763 1.667.218 3.368.331 5.094.331 21.562 0 39.104-17.53 39.104-39.077s-17.543-39.076-39.105-39.076c-7.51 0-14.531 2.127-20.495 5.809-29.084-4.121-56.352-6.062-81.068-5.781-4.142.048-7.461 3.444-7.412 7.586.047 4.112 3.396 7.413 7.497 7.413.029 0 .06 0 .089-.001 20.798-.247 43.545 1.157 67.738 4.163-3.463 5.829-5.453 12.63-5.453 19.887 0 14.206 7.626 26.666 19.001 33.507-13.175 17.664-17.003 36.87-18.113 46.816-27.448-.32-70.809-.728-113.828-.728-17.508 0-36.672.068-56.96.202-4.142.027-7.478 3.407-7.45 7.55.027 4.125 3.38 7.45 7.499 7.45h.051c20.254-.134 39.385-.202 56.86-.202 59.572 0 119.808.782 137.385 1.03 1.64 4.921 3.587 12.434 3.587 19.403 0 7.313-2.062 14.82-3.6 19.403-17.595.248-77.813 1.03-137.372 1.03-59.567 0-119.802-.782-137.378-1.03-1.64-4.921-3.587-12.434-3.587-19.403 0-7.313 2.062-14.821 3.6-19.403 7.594-.107 23.117-.314 42.958-.514 4.142-.042 7.466-3.434 7.425-7.575-.042-4.116-3.392-7.425-7.498-7.425h-.077c-9.001.09-17.115.182-24.006.266 1.24-8.698 4.922-24.719 15.848-41.446 21.732-33.271 60.44-53.618 115.049-60.477 4.11-.516 7.023-4.267 6.507-8.376-.517-4.11-4.27-7.024-8.376-6.507-74.263 9.327-109.642 42.093-126.243 67.938-13.025 20.276-16.837 39.397-17.952 49.063-5.676.078-8.898.127-8.977.128-2.937.046-5.576 1.801-6.754 4.491-.266.606-6.503 15.023-6.503 29.836s6.237 29.229 6.503 29.836c1.178 2.69 3.817 4.445 6.754 4.491.162.002 3.975.061 10.598.15-2.792 18.625-8.366 64.343-4.986 114.678-.382-.14-.78-.25-1.19-.327-3.534-.664-7.061 1.282-8.374 4.64-6.472 16.559 1.149 35.376 19.459 48.931 3.71 10.829 8.211 21.151 13.458 30.877-25.126 3.822-52.958 8.556-75.46 22.291-28.313 17.282-42.075 44.868-42.075 84.335 0 3.879 2.957 7.117 6.82 7.469.889.081 89.955 8.113 184.098 10.084.054.001.107.002.16.002 4.069 0 7.41-3.256 7.495-7.343.087-4.142-3.2-7.569-7.341-7.655-8.688-.182-17.333-.416-25.869-.69-.599-22.488 2.796-44.18 5.53-57.657 5.271 5.488 11.439 11.219 18.634 17.002 2.982 2.398 7.292 2.164 9.999-.54.295-.294 5.393-5.406 11.472-12.662 3.666 6.621 8.871 15.059 14.695 21.569 1.423 1.591 3.456 2.5 5.59 2.5s4.167-.909 5.59-2.5c5.824-6.511 11.029-14.948 14.695-21.569 6.079 7.256 11.177 12.368 11.472 12.662 2.707 2.706 7.015 2.938 9.999.54 24.63-19.794 37.231-38.993 42.985-49.857 4.283 2.559 7.81 3.864 8.398 4.075 3.174 1.135 6.708.016 8.65-2.735 1.254-1.775 2.478-3.576 3.674-5.402.66.1 1.322.2 1.987.3 49.435 7.467 105.26 15.893 108.668 85.542-11.349.951-35.702 2.89-67.035 4.799-1.87-9.272-4.659-17.49-4.805-17.918-1.34-3.919-5.602-6.01-9.52-4.672-3.919 1.337-6.012 5.6-4.676 9.519.029.087 2.203 6.505 3.856 13.958-39.513 2.219-87.495 4.174-133.941 4.174-4.143 0-7.5 3.357-7.5 7.5s3.357 7.5 7.5 7.5c107.604 0 223.307-10.42 224.463-10.525 3.863-.352 6.82-3.59 6.82-7.469 0-39.467-13.762-67.053-42.075-84.335zm-61.27-370.595c0-13.275 10.812-24.076 24.103-24.076s24.104 10.801 24.104 24.076c0 13.276-10.813 24.077-24.104 24.077s-24.103-10.8-24.103-24.077zm-7.944 285.669c-1.659.698-3.431 1.249-5.278 1.618-14.871 2.976-28.854-5.646-38.458-23.291 22.56-7.561 37.451-21.593 46.835-34.135.086 17.687-.725 36.745-3.099 55.808zm-236.942-135.972c27.204.325 72.26.765 116.945.765 44.689 0 89.747-.44 116.952-.765 1.401 9.202 3.907 27.918 5.247 51.499-2.617 6.877-16.202 37.807-52.4 49.123-5.665-10.745-13.858-18.44-29.664-22.78-2.938-19.496-19.815-34.491-40.131-34.491s-37.193 14.995-40.131 34.491c-15.806 4.34-24 12.035-29.664 22.78-36.198-11.316-49.782-42.246-52.399-49.123 1.338-23.581 3.844-42.297 5.245-51.499zm140.882 74.874c-6.907-.773-14.823-1.165-23.934-1.165s-17.027.392-23.934 1.165c3.661-9.648 13.009-16.524 23.934-16.524s20.273 6.876 23.934 16.524zm-147.026 5.29c9.384 12.543 24.275 26.574 46.834 34.135-9.603 17.645-23.584 26.265-38.458 23.292-1.847-.369-3.618-.92-5.277-1.618-2.374-19.063-3.185-38.122-3.099-55.809zm42.152 226.407c-18.645-.709-36.554-1.588-53.001-2.513 1.653-7.456 3.828-13.878 3.857-13.965 1.338-3.919-.754-8.181-4.673-9.52-3.92-1.34-8.182.752-9.522 4.673-.146.428-2.936 8.65-4.806 17.924-31.316-1.91-55.68-3.851-67.034-4.804 3.408-69.65 59.233-78.076 108.668-85.543.665-.1 1.327-.2 1.987-.3 1.196 1.827 2.421 3.628 3.674 5.402 1.957 2.771 5.53 3.883 8.716 2.711.601-.221 4.138-1.565 8.332-4.053 2.551 4.817 6.449 11.272 12.144 18.692-2.558 10.204-9.065 39.532-8.342 71.296zm134.811-123.23c17.992 3.281 36.788 1.362 52.962-4.688-3.973 8.964-8.572 17.46-13.764 25.418-1.955-1.116-4.186-2.604-6.161-4.453-1.849-1.731-4.451-2.396-6.913-1.795-2.461.603-4.456 2.421-5.297 4.81-.084.238-8.269 22.796-37.031 47.692-3.435-3.766-8.25-9.312-12.686-15.354-1.573-2.145-4.161-3.292-6.813-3.021-2.646.271-4.952 1.927-6.057 4.348-.064.142-5.237 11.399-12.111 21.324-6.874-9.925-12.047-21.183-12.11-21.322-1.104-2.422-3.407-4.078-6.055-4.351-2.663-.281-5.242.877-6.816 3.022-4.436 6.042-9.251 11.588-12.686 15.354-28.763-24.896-36.947-47.452-37.021-47.663-.829-2.42-2.835-4.25-5.319-4.855-2.485-.601-5.106.098-6.957 1.864-1.872 1.789-4.114 3.272-6.105 4.398-5.183-7.944-9.775-16.424-13.743-25.37 10.896 4.105 22.875 6.277 34.934 6.277 2.834 0 5.677-.12 8.507-.363 23.126-1.986 44.896-11.83 63.372-28.579 5.634 5.108 11.593 9.598 17.783 13.392 3.529 2.165 8.148 1.057 10.313-2.476 2.164-3.532 1.056-8.149-2.476-10.313-7.148-4.381-13.97-9.851-20.275-16.258-1.41-1.433-3.336-2.239-5.346-2.239s-3.936.807-5.346 2.239c-36.587 37.176-82.563 35.114-109.801 17.465-3.574-2.316-6.688-4.838-9.297-7.481 2.159.812 4.428 1.464 6.785 1.936 18.872 3.776 44.244-4.725 58.899-39.891 5.966-14.315 13.279-23.699 58.759-23.699s52.793 9.384 58.759 23.699c14.655 35.166 40.027 43.672 58.899 39.891 2.359-.472 4.63-1.125 6.791-1.938-12.881 12.983-38.389 23.601-67.887 18.226-4.078-.74-7.981 1.958-8.724 6.033-.741 4.073 1.96 7.979 6.034 8.721z"/><path d="m187.395 244.104c.669.186 1.342.273 2.003.273 3.288 0 6.306-2.18 7.225-5.503 2.896-10.472 2.47-20.208 2.45-20.617-.197-4.131-3.707-7.326-7.831-7.126-4.132.188-7.331 3.692-7.152 7.824.003.077.31 7.844-1.924 15.921-1.105 3.993 1.236 8.124 5.229 9.228z"/><path d="m322.603 244.377c.661 0 1.334-.088 2.003-.273 3.992-1.104 6.334-5.234 5.229-9.228-2.233-8.077-1.927-15.844-1.924-15.921.188-4.13-3.003-7.636-7.135-7.832-4.152-.191-7.651 2.997-7.849 7.134-.02.409-.445 10.146 2.45 20.617.92 3.323 3.936 5.503 7.226 5.503z"/><circle cx="262.003" cy="93.072" r="7.5"/><circle cx="223.003" cy="93.072" r="7.5"/><circle cx="340.003" cy="93.072" r="7.5"/><circle cx="301.003" cy="93.072" r="7.5"/><circle cx="184.003" cy="93.072" r="7.5"/><circle cx="320.603" cy="471.452" r="7.5"/></g></g></svg>