<svg id="Layer_1" height="512" viewBox="0 0 512 512" width="512" xmlns="http://www.w3.org/2000/svg" data-name="Layer 1"><path d="m470.89 101.86h-71.53l-.06.3v307.99l71.59-.01.06-.3v-307.68z" fill="#9ac5a1"/><path d="m453.77 440.18v12.13a18.645 18.645 0 0 1 -37.29 0v-12.13z" fill="#6d7486"/><path d="m453.77 59.69v12.13h-37.29v-12.13c0-10.3 6.99-18.64 17.29-18.64h1.36a18.639 18.639 0 0 1 18.64 18.64z" fill="#6d7486"/><path d="m41.11 101.86-.06.3v307.68l.06.3h71.53l.06-.3v-307.68z" fill="#9ac5a1"/><path d="m95.52 440.18v12.13a18.645 18.645 0 0 1 -37.29 0v-12.13z" fill="#6d7486"/><path d="m95.52 59.69v12.13h-37.29v-12.13a18.645 18.645 0 0 1 37.29 0z" fill="#6d7486"/><path d="m112.7 120.43h286.6v277.47h-286.6z" fill="#a0eaea"/><path d="m467.9 71.82h-65.54a15.169 15.169 0 0 0 -3 30.04h71.53a15.169 15.169 0 0 0 -2.99-30.04z" fill="#797e37"/><path d="m470.89 410.14-71.59.01a15.17 15.17 0 0 0 3.06 30.03h65.54a15.169 15.169 0 0 0 2.99-30.04z" fill="#797e37"/><path d="m109.64 71.82h-65.54a15.169 15.169 0 0 0 -2.99 30.04l69.31.28a15.17 15.17 0 0 0 -.78-30.32z" fill="#797e37"/><path d="m112.64 410.14h-71.53a15.169 15.169 0 0 0 2.99 30.04h65.54a15.169 15.169 0 0 0 3-30.04z" fill="#797e37"/><path d="m71.05 102.16.035-.174-29.975-.126-.06.3v307.68l.06.3h30l-.06-.3z" fill="#80aa85"/><path d="m112.7 120.43h30v277.47h-30z" fill="#bdfffd"/><path d="m58.93 86.99a15.168 15.168 0 0 1 15.17-15.17h-30a15.169 15.169 0 0 0 -2.99 30.04h30a15.154 15.154 0 0 1 -12.18-14.87z" fill="#696b2c"/><path d="m58.93 425.01a15.148 15.148 0 0 1 12.18-14.87h-30a15.169 15.169 0 0 0 2.99 30.04h30a15.168 15.168 0 0 1 -15.17-15.17z" fill="#696b2c"/><g fill="#284268"><path d="m489.07 86.99a21.2 21.2 0 0 0 -21.17-21.171h-8.128v-6.127a24.672 24.672 0 0 0 -24.644-24.645h-1.356c-13.276 0-23.288 10.6-23.288 24.645v6.127h-8.128a21.153 21.153 0 0 0 -9.056 40.281v8.326h-274.6v-8.326a21.153 21.153 0 0 0 -9.053-40.28h-8.128v-6.128a24.644 24.644 0 1 0 -49.288 0v6.127h-8.131a21.154 21.154 0 0 0 -9.054 40.28v299.801a21.154 21.154 0 0 0 9.054 40.28h8.128v6.128a24.644 24.644 0 0 0 49.288 0v-6.128h8.128a21.153 21.153 0 0 0 9.056-40.28v-2h274.6v2a21.153 21.153 0 0 0 9.053 40.28h8.128v6.128a24.644 24.644 0 0 0 49.288 0v-6.128h8.131a21.154 21.154 0 0 0 9.054-40.28v-299.8a21.178 21.178 0 0 0 12.116-19.11zm-66.587-27.3c0-6.284 3.877-12.645 11.288-12.645h1.356a12.659 12.659 0 0 1 12.644 12.645v6.127h-25.288zm-358.254 0a12.644 12.644 0 1 1 25.288 0v6.127h-25.288zm25.288 392.619a12.644 12.644 0 0 1 -25.288 0v-6.128h25.288zm29.3-27.3a9.182 9.182 0 0 1 -9.171 9.171h-65.546a9.171 9.171 0 0 1 0-18.342h65.544a9.181 9.181 0 0 1 9.172 9.172zm-71.77-21.17v-295.677h59.653v295.677zm62.6-307.677h-65.547a9.172 9.172 0 0 1 0-18.343h65.544a9.172 9.172 0 0 1 0 18.343zm9.053 295.738v-265.475h274.6v265.475zm329.073 60.413a12.644 12.644 0 0 1 -25.288 0v-6.128h25.288zm29.3-27.3a9.182 9.182 0 0 1 -9.171 9.171h-65.547a9.171 9.171 0 0 1 0-18.342h65.545a9.181 9.181 0 0 1 9.17 9.168zm-71.773-21.174v-295.677h59.651v295.677zm62.6-307.677h-65.545a9.172 9.172 0 0 1 0-18.343h65.545a9.172 9.172 0 0 1 0 18.343z"/><path d="m69.457 126.554a6 6 0 0 0 -6 6v7.151a6 6 0 0 0 12 0v-7.151a6 6 0 0 0 -6-6z"/><path d="m69.457 153.666a6 6 0 0 0 -6 6v143.886a6 6 0 0 0 12 0v-143.886a6 6 0 0 0 -6-6z"/><path d="m153.466 179.956h96.434a6 6 0 0 0 0-12h-96.434a6 6 0 0 0 0 12z"/><path d="m358.534 209.477h-205.068a6 6 0 0 0 0 12h205.068a6 6 0 0 0 0-12z"/><path d="m358.534 251h-205.068a6 6 0 0 0 0 12h205.068a6 6 0 0 0 0-12z"/><path d="m358.534 291.521h-205.068a6 6 0 0 0 0 12h205.068a6 6 0 0 0 0-12z"/><path d="m358.534 332.044h-205.068a6 6 0 0 0 0 12h205.068a6 6 0 0 0 0-12z"/></g></svg>