<svg id="Capa_1" enable-background="new 0 0 511.022 511.022" height="512" viewBox="0 0 511.022 511.022" width="512" xmlns="http://www.w3.org/2000/svg"><g><g><circle cx="255.511" cy="255.511" fill="#f8f7f8" r="248.011"/><path d="m90.677 257.601c0-124.952 92.397-228.324 212.598-245.506-15.462-3.017-31.419-4.595-47.764-4.595-136.973 0-248.011 111.039-248.011 248.011s111.038 248.011 248.011 248.011c12.021 0 23.797-.849 35.362-2.502-114.11-22.27-200.196-122.791-200.196-243.419z" fill="#efedee"/><circle cx="254.811" cy="255.511" fill="#efedee" r="199.576"/><path d="m172.195 73.791c-68.994 31.417-116.96 100.965-116.96 181.72 0 77.198 43.835 144.152 107.969 177.346-44.811-44.874-72.527-106.826-72.527-175.257 0-72.892 31.453-138.432 81.518-183.809z" fill="#e4e1e5"/><g><g><path d="m182.726 248.757c-9.991 0-18.689-7.442-27.712-10.38-9.341-3.042-20.731-2.253-28.513-7.922-7.856-5.723-10.591-16.84-16.314-24.696-5.669-7.782-15.434-13.781-18.476-23.122-2.938-9.023 1.325-19.579 1.325-29.57s-4.264-20.547-1.325-29.57c3.042-9.341 12.808-15.34 18.477-23.122 5.723-7.856 8.458-18.973 16.314-24.696 7.782-5.669 19.172-4.88 28.513-7.922 9.023-2.938 17.721-10.38 27.712-10.38s18.689 7.442 27.712 10.38c9.341 3.042 20.731 2.253 28.513 7.922 7.856 5.723 10.591 16.84 16.314 24.696 5.669 7.782 15.434 13.781 18.476 23.122 2.938 9.023-1.325 19.579-1.325 29.57s4.264 20.547 1.325 29.57c-3.042 9.341-12.808 15.34-18.477 23.122-5.723 7.856-8.458 18.973-16.314 24.696-7.782 5.669-19.172 4.88-28.513 7.922-9.024 2.939-17.722 10.38-27.712 10.38z" fill="#fcf0b6"/><path d="m135.733 155.474c0-40.725 20.939-76.56 52.61-97.365-1.825-.46-3.709-.732-5.617-.732-9.991 0-18.689 7.441-27.712 10.38-9.341 3.042-20.731 2.253-28.513 7.922-7.856 5.723-10.591 16.84-16.314 24.696-5.669 7.782-15.435 13.781-18.477 23.122-2.938 9.023 1.325 19.579 1.325 29.57s-4.264 20.546-1.325 29.57c3.042 9.341 12.807 15.34 18.476 23.122 5.723 7.856 8.458 18.974 16.314 24.697 7.782 5.669 19.172 4.88 28.513 7.922 8.947 2.913 17.591 10.254 27.475 10.378-28.374-21.231-46.755-55.117-46.755-93.282z" fill="#fbe88c"/><circle cx="182.725" cy="153.067" fill="#fbe88c" r="62.69"/><path d="m146.366 204.12c-6.819-14.804-10.633-31.278-10.633-48.646 0-20.256 5.178-39.299 14.276-55.888-17.978 11.021-29.974 30.848-29.974 53.48 0 21.064 10.399 39.687 26.331 51.054z" fill="#fbe372"/><path d="m374.996 345.792c-9.991 0-18.689-7.442-27.712-10.38-9.341-3.042-20.731-2.253-28.513-7.922-7.856-5.723-10.591-16.84-16.314-24.696-5.669-7.782-15.434-13.781-18.476-23.122-2.938-9.023 1.325-19.579 1.325-29.57s-4.264-20.547-1.325-29.57c3.042-9.341 12.808-15.34 18.477-23.122 5.723-7.856 8.458-18.973 16.314-24.696 7.782-5.669 19.172-4.88 28.513-7.922 9.023-2.938 17.721-10.38 27.712-10.38s18.689 7.442 27.712 10.38c9.341 3.042 20.731 2.253 28.513 7.922 7.856 5.723 10.591 16.84 16.314 24.696 5.669 7.782 15.434 13.781 18.476 23.122 2.938 9.023-1.325 19.579-1.325 29.57s4.264 20.547 1.325 29.57c-3.042 9.341-12.808 15.34-18.477 23.122-5.723 7.856-8.458 18.973-16.314 24.696-7.782 5.669-19.172 4.88-28.513 7.922-9.023 2.938-17.721 10.38-27.712 10.38z" fill="#fcf0b6"/><path d="m326.164 250.151c0-41.353 24.503-76.986 59.785-93.16-3.525-1.503-7.141-2.58-10.953-2.58-9.991 0-18.689 7.441-27.712 10.38-9.341 3.042-20.731 2.253-28.513 7.922-7.856 5.723-10.591 16.84-16.314 24.696-5.669 7.782-15.435 13.781-18.477 23.122-2.938 9.023 1.325 19.579 1.325 29.57s-4.264 20.546-1.325 29.57c3.042 9.341 12.807 15.34 18.476 23.122 5.723 7.856 8.458 18.974 16.314 24.697 7.782 5.669 19.172 4.88 28.513 7.922 9.023 2.938 17.721 10.38 27.712 10.38 3.772 0 7.374-1.067 10.865-2.545-35.223-16.198-59.696-51.786-59.696-93.096z" fill="#fbe88c"/><circle cx="374.996" cy="250.101" fill="#fbe88c" r="62.69"/><path d="m312.305 250.101c0 21.89 11.227 41.149 28.228 52.361-9.121-15.311-14.37-33.196-14.37-52.312 0-19.173 5.275-37.113 14.442-52.457-17.041 11.206-28.3 30.488-28.3 52.408z" fill="#fbe372"/><path d="m198.423 461.855c-9.991 0-18.689-7.441-27.712-10.38-9.341-3.042-20.731-2.253-28.513-7.922-7.856-5.723-10.591-16.84-16.314-24.697-5.669-7.782-15.434-13.781-18.476-23.122-2.938-9.023 1.325-19.579 1.325-29.57s-4.264-20.547-1.325-29.57c3.042-9.341 12.808-15.34 18.477-23.122 5.723-7.856 8.458-18.973 16.314-24.696 7.782-5.669 19.172-4.88 28.513-7.922 9.023-2.938 17.721-10.38 27.712-10.38s18.689 7.442 27.712 10.38c9.341 3.042 20.731 2.253 28.513 7.922 7.856 5.723 10.591 16.84 16.314 24.696 5.669 7.782 15.434 13.781 18.476 23.122 2.938 9.023-1.325 19.579-1.325 29.57s4.264 20.547 1.325 29.57c-3.042 9.341-12.808 15.34-18.477 23.122-5.723 7.856-8.458 18.973-16.314 24.696-7.782 5.669-19.172 4.88-28.513 7.922-9.023 2.94-17.721 10.381-27.712 10.381z" fill="#fcf0b6"/><path d="m150.812 361.415c0-34.725 14.292-66.126 37.297-88.63-5.947 2.438-11.61 6.185-17.397 8.07-9.341 3.042-20.731 2.253-28.513 7.922-7.856 5.723-10.591 16.84-16.314 24.696-5.669 7.782-15.435 13.781-18.477 23.122-2.938 9.023 1.325 19.579 1.325 29.57s-4.264 20.546-1.325 29.57c3.042 9.341 12.808 15.34 18.476 23.122 5.723 7.856 8.458 18.974 16.314 24.697 7.782 5.669 19.172 4.88 28.513 7.922 9.023 2.938 17.721 10.38 27.712 10.38 1.122 0 2.236-.096 3.328-.266-30.869-22.548-50.939-59.021-50.939-100.175z" fill="#fbe88c"/><circle cx="198.423" cy="366.165" fill="#fbe88c" r="62.69"/><path d="m135.733 366.165c0 22.39 11.746 42.025 29.403 53.114-9.139-17.275-14.324-36.963-14.324-57.864 0-15.425 2.826-30.191 7.977-43.815-14.07 11.495-23.056 28.978-23.056 48.565z" fill="#fbe372"/></g></g></g><g><path d="m97.505 202.946c2.511 2.491 4.883 4.846 6.62 7.229 1.773 2.435 3.308 5.451 4.932 8.644 3.11 6.113 6.636 13.042 13.027 17.699 6.345 4.621 14.01 5.85 20.773 6.934 3.559.57 6.921 1.108 9.834 2.058 2.725.887 5.643 2.39 8.732 3.98 6.161 3.172 13.146 6.768 21.302 6.768s15.141-3.596 21.302-6.768c3.09-1.591 6.008-3.094 8.732-3.98 2.913-.949 6.274-1.488 9.834-2.058 6.763-1.084 14.428-2.312 20.772-6.934 6.392-4.656 9.917-11.585 13.027-17.698 1.624-3.193 3.159-6.209 4.933-8.645 1.737-2.384 4.108-4.737 6.619-7.229 4.896-4.858 10.445-10.366 12.928-17.987 2.393-7.349 1.199-14.968.146-21.689-.567-3.621-1.104-7.041-1.104-10.203s.536-6.582 1.104-10.203c1.053-6.722 2.246-14.341-.146-21.688-2.482-7.622-8.031-13.129-12.927-17.987-2.511-2.491-4.883-4.846-6.62-7.229-1.773-2.435-3.308-5.451-4.932-8.644-3.11-6.113-6.636-13.042-13.027-17.699-6.345-4.621-14.01-5.85-20.773-6.934-3.559-.57-6.921-1.108-9.834-2.058-2.725-.887-5.643-2.39-8.732-3.98-6.161-3.172-13.146-6.768-21.302-6.768s-15.141 3.596-21.302 6.768c-3.09 1.591-6.008 3.094-8.732 3.98-2.913.949-6.274 1.488-9.834 2.058-6.763 1.084-14.428 2.312-20.772 6.934-6.392 4.656-9.917 11.585-13.027 17.698-1.624 3.193-3.159 6.209-4.933 8.645-1.737 2.384-4.108 4.737-6.619 7.229-4.896 4.858-10.445 10.366-12.928 17.987-2.393 7.349-1.199 14.968-.146 21.689.567 3.621 1.104 7.041 1.104 10.203s-.536 6.582-1.104 10.203c-1.053 6.722-2.246 14.341.146 21.688 2.483 7.622 8.031 13.128 12.927 17.987zm1.746-62.404c-.869-5.549-1.69-10.79-.409-14.723 1.358-4.173 5.182-7.968 9.23-11.984 2.818-2.798 5.733-5.69 8.176-9.044 2.478-3.4 4.359-7.099 6.179-10.675 2.574-5.059 5.005-9.837 8.49-12.375 3.438-2.504 8.721-3.351 14.314-4.247 3.971-.637 8.077-1.294 12.104-2.605 3.872-1.262 7.473-3.115 10.954-4.907 5.099-2.625 9.914-5.104 14.436-5.104s9.337 2.479 14.436 5.104c3.481 1.792 7.082 3.646 10.954 4.907 4.027 1.312 8.134 1.969 12.105 2.605 5.594.896 10.877 1.743 14.314 4.246 3.485 2.54 5.916 7.317 8.489 12.377 1.819 3.575 3.701 7.273 6.178 10.674 2.443 3.354 5.358 6.247 8.178 9.045 4.048 4.017 7.871 7.811 9.23 11.984 1.28 3.932.459 9.173-.41 14.722-.632 4.029-1.284 8.196-1.284 12.525s.652 8.496 1.284 12.525c.869 5.549 1.69 10.79.409 14.723-1.358 4.173-5.182 7.968-9.23 11.984-2.818 2.798-5.733 5.69-8.176 9.044-2.478 3.4-4.359 7.099-6.179 10.675-2.574 5.059-5.005 9.837-8.49 12.375-3.438 2.504-8.721 3.351-14.314 4.247-3.971.637-8.077 1.294-12.104 2.605-3.872 1.262-7.473 3.115-10.954 4.907-5.099 2.625-9.914 5.104-14.436 5.104s-9.337-2.479-14.436-5.104c-3.481-1.792-7.082-3.646-10.954-4.907-4.027-1.312-8.134-1.969-12.105-2.605-5.594-.896-10.877-1.743-14.314-4.246-3.485-2.54-5.916-7.317-8.489-12.377-1.819-3.575-3.701-7.273-6.178-10.674-2.443-3.354-5.358-6.247-8.178-9.045-4.048-4.017-7.871-7.811-9.23-11.984-1.28-3.932-.459-9.173.41-14.722.632-4.029 1.284-8.196 1.284-12.525s-.652-8.496-1.284-12.525z"/><path d="m131.512 189.982c3.622-2.009 4.93-6.574 2.921-10.196-4.513-8.136-6.897-17.375-6.897-26.719 0-30.432 24.759-55.19 55.19-55.19s55.189 24.759 55.189 55.19-24.758 55.19-55.189 55.19c-10.194 0-20.155-2.804-28.805-8.109-3.529-2.164-8.148-1.06-10.314 2.473-2.165 3.53-1.059 8.148 2.473 10.314 11.01 6.753 23.683 10.322 36.646 10.322 38.702 0 70.189-31.487 70.189-70.19s-31.487-70.19-70.189-70.19c-38.703 0-70.19 31.487-70.19 70.19 0 11.883 3.036 23.639 8.78 33.994 2.008 3.622 6.573 4.932 10.196 2.921z"/><path d="m190.226 120.376c0-4.143-3.357-7.5-7.5-7.5-22.161 0-40.19 18.029-40.19 40.19 0 4.143 3.357 7.5 7.5 7.5s7.5-3.357 7.5-7.5c0-13.89 11.301-25.19 25.19-25.19 4.142 0 7.5-3.357 7.5-7.5z"/><path d="m212.266 135.513-2.549-2.549c-2.93-2.928-7.678-2.928-10.607 0-2.929 2.93-2.929 7.678 0 10.607l2.549 2.549c1.465 1.464 3.385 2.196 5.304 2.196s3.839-.732 5.304-2.196c2.927-2.929 2.927-7.677-.001-10.607z"/><path d="m206.962 165.473c-4.143 0-7.5 3.357-7.5 7.5v3.768c0 4.143 3.357 7.5 7.5 7.5s7.5-3.357 7.5-7.5v-3.768c0-4.142-3.358-7.5-7.5-7.5z"/><path d="m167.189 172.652-2.668 2.668c-2.929 2.93-2.929 7.678 0 10.607 1.465 1.464 3.385 2.196 5.304 2.196s3.839-.732 5.304-2.196l2.668-2.668c2.929-2.93 2.929-7.678 0-10.607-2.93-2.928-7.678-2.928-10.608 0z"/><path d="m473.144 218.209c-2.482-7.622-8.031-13.129-12.927-17.987-2.511-2.491-4.883-4.846-6.62-7.229-1.773-2.435-3.308-5.451-4.932-8.644-3.11-6.113-6.636-13.042-13.027-17.699-6.345-4.621-14.01-5.85-20.773-6.934-3.559-.57-6.921-1.108-9.834-2.058-2.725-.887-5.643-2.39-8.732-3.98-6.161-3.172-13.146-6.768-21.302-6.768s-15.141 3.596-21.302 6.768c-3.09 1.591-6.008 3.094-8.732 3.98-2.913.949-6.274 1.488-9.834 2.058-6.763 1.084-14.428 2.312-20.772 6.934-6.392 4.656-9.917 11.585-13.027 17.698-1.624 3.193-3.159 6.209-4.934 8.645-1.736 2.385-4.108 4.738-6.619 7.23-4.896 4.857-10.444 10.364-12.927 17.985-2.393 7.349-1.199 14.968-.146 21.689.567 3.621 1.104 7.041 1.104 10.203s-.536 6.582-1.104 10.203c-1.053 6.722-2.246 14.341.146 21.688 2.482 7.622 8.031 13.129 12.927 17.987 2.511 2.491 4.883 4.846 6.62 7.229 1.773 2.435 3.308 5.451 4.932 8.644 3.11 6.113 6.636 13.042 13.027 17.699 6.345 4.621 14.01 5.85 20.773 6.934 3.559.57 6.921 1.108 9.834 2.058 2.725.887 5.643 2.39 8.732 3.98 6.161 3.172 13.146 6.768 21.302 6.768s15.141-3.596 21.302-6.768c3.09-1.591 6.008-3.094 8.732-3.98 2.913-.949 6.274-1.488 9.834-2.058 6.763-1.084 14.428-2.312 20.772-6.934 6.392-4.656 9.917-11.585 13.027-17.698 1.624-3.193 3.159-6.209 4.933-8.645 1.737-2.384 4.108-4.737 6.619-7.229 4.896-4.858 10.445-10.366 12.928-17.987 2.393-7.349 1.199-14.968.146-21.689-.567-3.621-1.104-7.041-1.104-10.203s.536-6.582 1.104-10.203c1.053-6.72 2.246-14.339-.146-21.687zm-14.673 44.417c.869 5.549 1.69 10.79.409 14.723-1.358 4.173-5.182 7.968-9.23 11.984-2.818 2.798-5.733 5.69-8.176 9.044-2.478 3.4-4.359 7.099-6.179 10.675-2.574 5.059-5.005 9.837-8.49 12.375-3.438 2.504-8.721 3.351-14.314 4.247-3.971.637-8.077 1.294-12.104 2.605-3.872 1.262-7.473 3.115-10.954 4.907-5.099 2.625-9.914 5.104-14.436 5.104s-9.337-2.479-14.436-5.104c-3.481-1.792-7.082-3.646-10.954-4.907-4.027-1.312-8.134-1.969-12.105-2.605-5.594-.896-10.877-1.743-14.314-4.246-3.485-2.54-5.916-7.317-8.489-12.377-1.819-3.575-3.701-7.273-6.178-10.674-2.443-3.354-5.358-6.247-8.178-9.045-4.048-4.017-7.871-7.811-9.23-11.984-1.28-3.932-.459-9.173.41-14.722.632-4.029 1.284-8.196 1.284-12.525s-.652-8.496-1.284-12.525c-.869-5.549-1.69-10.79-.409-14.723 1.358-4.173 5.182-7.967 9.229-11.983 2.819-2.798 5.735-5.69 8.178-9.045 2.478-3.4 4.359-7.099 6.179-10.675 2.574-5.059 5.005-9.837 8.49-12.375 3.438-2.504 8.721-3.351 14.314-4.247 3.971-.637 8.077-1.294 12.104-2.605 3.872-1.262 7.473-3.115 10.954-4.907 5.099-2.625 9.914-5.104 14.436-5.104s9.337 2.479 14.436 5.104c3.481 1.792 7.082 3.646 10.954 4.907 4.027 1.312 8.134 1.969 12.105 2.605 5.594.896 10.877 1.743 14.314 4.246 3.485 2.54 5.916 7.317 8.489 12.377 1.819 3.575 3.701 7.273 6.178 10.674 2.443 3.354 5.358 6.247 8.178 9.045 4.048 4.017 7.871 7.811 9.23 11.984 1.28 3.932.459 9.173-.41 14.722-.632 4.029-1.284 8.196-1.284 12.525s.651 8.496 1.283 12.525z"/><path d="m374.996 179.911c-38.703 0-70.19 31.487-70.19 70.19s31.487 70.19 70.19 70.19 70.19-31.487 70.19-70.19-31.487-70.19-70.19-70.19zm0 125.381c-30.432 0-55.19-24.759-55.19-55.19s24.759-55.19 55.19-55.19 55.19 24.759 55.19 55.19-24.758 55.19-55.19 55.19z"/><path d="m374.996 209.911c-22.161 0-40.19 18.029-40.19 40.19 0 4.143 3.357 7.5 7.5 7.5s7.5-3.357 7.5-7.5c0-13.89 11.301-25.19 25.19-25.19 4.143 0 7.5-3.357 7.5-7.5s-3.357-7.5-7.5-7.5z"/><path d="m401.987 229.999c-2.93-2.928-7.678-2.928-10.607 0-2.929 2.93-2.929 7.678 0 10.607l2.549 2.549c1.465 1.464 3.385 2.196 5.304 2.196s3.839-.732 5.304-2.196c2.929-2.93 2.929-7.678 0-10.607z"/><path d="m399.232 262.507c-4.143 0-7.5 3.357-7.5 7.5v3.768c0 4.143 3.357 7.5 7.5 7.5s7.5-3.357 7.5-7.5v-3.768c0-4.142-3.357-7.5-7.5-7.5z"/><path d="m359.46 269.686-2.668 2.668c-2.929 2.93-2.929 7.678 0 10.607 1.465 1.464 3.385 2.196 5.304 2.196s3.839-.732 5.304-2.196l2.668-2.668c2.929-2.93 2.929-7.678 0-10.607-2.93-2.928-7.678-2.928-10.608 0z"/><path d="m100.276 398.055c2.481 7.623 8.03 13.13 12.927 17.988 2.511 2.492 4.882 4.846 6.619 7.23 1.774 2.435 3.309 5.451 4.934 8.645 3.11 6.112 6.635 13.041 13.026 17.696 6.344 4.622 14.01 5.851 20.772 6.935 3.56.569 6.921 1.108 9.834 2.058 2.725.887 5.643 2.39 8.732 3.98 6.162 3.172 13.146 6.768 21.303 6.768s15.14-3.596 21.302-6.768c3.09-1.591 6.008-3.094 8.732-3.98 2.913-.949 6.274-1.488 9.834-2.058 6.763-1.084 14.428-2.312 20.772-6.935 6.392-4.655 9.917-11.585 13.027-17.698 1.624-3.192 3.159-6.209 4.932-8.644 1.737-2.384 4.108-4.737 6.62-7.229 4.896-4.858 10.445-10.366 12.928-17.987 2.393-7.349 1.199-14.968.146-21.689-.567-3.621-1.104-7.041-1.104-10.203s.536-6.582 1.104-10.203c1.053-6.722 2.246-14.341-.146-21.688-2.482-7.622-8.031-13.129-12.927-17.987-2.511-2.491-4.883-4.846-6.62-7.229-1.773-2.435-3.308-5.451-4.933-8.645-3.11-6.112-6.635-13.041-13.026-17.698-6.345-4.621-14.01-5.85-20.773-6.934-3.559-.57-6.921-1.108-9.834-2.058-2.725-.887-5.643-2.39-8.732-3.98-6.162-3.172-13.146-6.768-21.302-6.768-8.157 0-15.141 3.596-21.303 6.769-3.09 1.591-6.008 3.093-8.731 3.979-2.913.949-6.275 1.487-9.834 2.058-6.763 1.084-14.429 2.312-20.772 6.934-6.393 4.656-9.918 11.586-13.028 17.699-1.624 3.193-3.159 6.209-4.932 8.644-1.737 2.384-4.108 4.737-6.619 7.229-4.896 4.858-10.445 10.366-12.928 17.987-2.393 7.349-1.199 14.968-.146 21.689.567 3.621 1.104 7.041 1.104 10.203s-.536 6.582-1.104 10.203c-1.053 6.721-2.246 14.34.146 21.687zm14.673-44.416c-.869-5.549-1.69-10.79-.409-14.723 1.358-4.173 5.182-7.968 9.23-11.984 2.818-2.798 5.733-5.69 8.177-9.044 2.477-3.4 4.357-7.098 6.177-10.673 2.574-5.06 5.006-9.838 8.491-12.378 3.437-2.504 8.721-3.35 14.313-4.246 3.972-.637 8.078-1.294 12.105-2.606 3.872-1.261 7.472-3.114 10.953-4.906 5.099-2.625 9.914-5.104 14.437-5.104 4.521 0 9.337 2.479 14.436 5.104 3.481 1.792 7.082 3.646 10.954 4.907 4.027 1.312 8.134 1.969 12.105 2.605 5.594.896 10.877 1.743 14.313 4.246 3.485 2.539 5.916 7.317 8.49 12.376 1.819 3.576 3.701 7.274 6.178 10.675 2.443 3.354 5.358 6.247 8.178 9.045 4.048 4.017 7.871 7.811 9.23 11.984 1.28 3.932.459 9.173-.41 14.722-.632 4.029-1.284 8.196-1.284 12.525s.652 8.496 1.284 12.525c.869 5.549 1.69 10.79.409 14.723-1.358 4.173-5.183 7.968-9.23 11.984-2.819 2.798-5.734 5.69-8.178 9.044-2.477 3.4-4.357 7.099-6.177 10.674-2.574 5.06-5.006 9.838-8.49 12.376-3.438 2.504-8.721 3.351-14.314 4.247-3.971.637-8.077 1.294-12.104 2.605-3.872 1.262-7.473 3.115-10.954 4.907-5.099 2.625-9.914 5.104-14.436 5.104s-9.338-2.479-14.437-5.104c-3.481-1.792-7.082-3.646-10.954-4.906-4.027-1.312-8.134-1.97-12.105-2.606-5.594-.896-10.877-1.743-14.313-4.246-3.484-2.539-5.916-7.317-8.489-12.375-1.82-3.577-3.701-7.275-6.179-10.676-2.443-3.354-5.358-6.246-8.177-9.044-4.048-4.017-7.871-7.812-9.23-11.985-1.28-3.932-.459-9.173.41-14.722.632-4.029 1.284-8.196 1.284-12.525s-.652-8.496-1.284-12.525z"/><path d="m198.423 436.355c38.703 0 70.19-31.487 70.19-70.19 0-11.53-2.865-22.974-8.286-33.094-1.957-3.65-6.502-5.024-10.152-3.07-3.651 1.956-5.026 6.501-3.07 10.152 4.258 7.949 6.509 16.944 6.509 26.012 0 30.432-24.759 55.19-55.19 55.19s-55.19-24.759-55.19-55.19 24.759-55.19 55.19-55.19c10.47 0 20.67 2.958 29.496 8.554 3.495 2.218 8.132 1.182 10.35-2.318 2.218-3.498 1.181-8.132-2.318-10.35-11.231-7.121-24.208-10.886-37.527-10.886-38.703 0-70.19 31.487-70.19 70.19s31.485 70.19 70.188 70.19z"/><path d="m205.924 333.474c0-4.143-3.357-7.5-7.5-7.5-22.161 0-40.19 18.029-40.19 40.19 0 4.143 3.357 7.5 7.5 7.5s7.5-3.357 7.5-7.5c0-13.89 11.301-25.19 25.19-25.19 4.142 0 7.5-3.357 7.5-7.5z"/><path d="m227.964 348.611-2.549-2.549c-2.93-2.928-7.678-2.928-10.607 0-2.929 2.93-2.929 7.678 0 10.607l2.549 2.549c1.465 1.464 3.385 2.196 5.304 2.196s3.839-.732 5.304-2.196c2.928-2.929 2.928-7.677-.001-10.607z"/><path d="m222.66 378.571c-4.143 0-7.5 3.357-7.5 7.5v3.768c0 4.143 3.357 7.5 7.5 7.5s7.5-3.357 7.5-7.5v-3.768c0-4.143-3.357-7.5-7.5-7.5z"/><path d="m182.888 385.75-2.668 2.668c-2.929 2.93-2.929 7.678 0 10.607 1.465 1.464 3.385 2.196 5.304 2.196s3.839-.732 5.304-2.196l2.668-2.668c2.929-2.93 2.929-7.678 0-10.607-2.931-2.928-7.679-2.928-10.608 0z"/><path d="m436.033 74.691c-2.93-2.926-7.679-2.923-10.606.009s-2.923 7.68.009 10.606c45.519 45.443 70.587 105.891 70.587 170.205 0 64.243-25.018 124.641-70.444 170.067-45.427 45.426-105.824 70.443-170.067 70.443s-124.642-25.017-170.068-70.442c-45.426-45.427-70.444-105.825-70.444-170.068s25.018-124.64 70.444-170.066c45.426-45.427 105.824-70.445 170.067-70.445 53.461 0 104.081 17.182 146.388 49.687 3.286 2.525 7.995 1.907 10.517-1.378 2.523-3.284 1.907-7.993-1.378-10.517-44.952-34.537-98.732-52.792-155.527-52.792-68.249 0-132.414 26.579-180.674 74.837-48.259 48.26-74.837 112.425-74.837 180.674 0 68.25 26.578 132.414 74.837 180.674 48.26 48.26 112.424 74.837 180.674 74.837s132.414-26.577 180.674-74.837 74.838-112.424 74.838-180.674c-.001-68.326-26.632-132.543-74.99-180.82z"/><path d="m257.389 48.224h-.067c-4.111 0-7.462 3.314-7.499 7.434-.036 4.142 3.291 7.529 7.434 7.566 59.457.528 114.396 27.9 150.727 75.096 1.478 1.919 3.7 2.925 5.949 2.925 1.597 0 3.206-.508 4.569-1.557 3.282-2.527 3.895-7.236 1.368-10.519-39.163-50.871-98.385-80.375-162.481-80.945z"/><path d="m68.599 184.333c-3.926-1.329-8.181.777-9.508 4.701-7.227 21.361-10.891 43.726-10.891 66.477 0 33.087 7.569 64.715 22.496 94.006 1.325 2.6 3.958 4.097 6.688 4.097 1.146 0 2.309-.264 3.399-.819 3.69-1.881 5.158-6.397 3.277-10.088-13.841-27.163-20.86-56.499-20.86-87.196 0-21.112 3.398-41.861 10.1-61.67 1.327-3.924-.778-8.18-4.701-9.508z"/><path d="m284.827 460.675c.363 0 .731-.026 1.102-.081 59.57-8.763 112.325-43.081 144.735-94.153 2.22-3.497 1.184-8.132-2.313-10.351-3.496-2.219-8.132-1.185-10.351 2.313-30.071 47.385-79.005 79.223-134.255 87.351-4.098.603-6.932 4.413-6.328 8.512.548 3.728 3.751 6.409 7.41 6.409z"/></g></g></svg>