<svg id="Layer_1" height="512" viewBox="0 0 512 512" width="512" xmlns="http://www.w3.org/2000/svg" data-name="Layer 1"><path d="m353.697 291.369.6.07.009-.07z" fill="#c66558"/><path d="m140.224 144.053-39.649 31.579 51.188 314.361h29.499z" fill="#ff958a"/><path d="m371.776 144.053-41.038 345.94h29.499l51.188-314.361z" fill="#c46c60"/><path d="m212.611 54.546a24.687 24.687 0 0 1 29.529-13.869l.04-.15h.04a37 37 0 0 1 60.839-4.77 24.724 24.724 0 0 1 32.769 20.549v.01a29.622 29.622 0 0 1 22.259 54.358l.11.2a36.965 36.965 0 0 1 -4.42 17.55 33.848 33.848 0 0 1 4.42-.27 37.012 37.012 0 0 1 36.929 34.5l-23.35-18.6h-191.694a22.006 22.006 0 0 0 3.39-7.309 20.363 20.363 0 1 0 5.57-40.089 25.263 25.263 0 0 0 -8.2-11.74v-.01a23.871 23.871 0 0 1 31.769-30.359zm105.9 52.059a15.623 15.623 0 0 0 -8.5-20.07 19.4 19.4 0 1 0 -38.391 2.965 17.035 17.035 0 1 0 23.249 24.139 15.61 15.61 0 0 0 23.639-7.029z" fill="#efcb8e"/><path d="m310.008 86.535a15.619 15.619 0 1 1 -15.139 27.1 17.036 17.036 0 1 1 -23.249-24.135 19.406 19.406 0 1 1 38.388-2.96z" fill="#ffe0b6"/><path d="m143.833 144.043v.01h-3.609l-25.52 20.32-.09-.11a37.685 37.685 0 0 1 27.21-42.9l.19.09a22.21 22.21 0 0 0 1.819 22.589z" fill="#efcb8e"/><path d="m189.042 96.655a20.363 20.363 0 1 1 -5.57 40.089 22.006 22.006 0 0 1 -3.39 7.309h-36.249v-.01a22.22 22.22 0 0 1 -.02-25.629 25.3 25.3 0 0 1 37.029-33.509v.01a25.263 25.263 0 0 1 8.2 11.74z" fill="#ffe0b6"/><path d="m180.082 144.053h-36.249-3.609l41.038 345.94h149.476l41.038-345.94z" fill="#ea836f"/><path d="m180.222 144.053h-.14-36.249-3.609l41.038 345.94h39.999z" fill="#c66558"/><path d="m354.3 291.44-7.19 60.56-.09-.01h-50.11a54.229 54.229 0 0 1 -81.22 0h-50.4l-.4.05-7.19-60.6.6-.07h57.39a54.229 54.229 0 0 1 81.22 0h56.79z" fill="#efcb8e"/><circle cx="256" cy="322" fill="#eadf53" r="30"/><g fill="#284268"><path d="m177.471 188.32a6 6 0 0 0 5.251-6.665l-1.033-8.7a6 6 0 1 0 -11.916 1.413l1.033 8.7a6 6 0 0 0 6.665 5.252z"/><path d="m185.509 200.716a6 6 0 1 0 -11.916 1.414l6.552 55.231a6 6 0 0 0 11.916-1.414z"/><path d="m256 358a36 36 0 1 0 -36-36 36.04 36.04 0 0 0 36 36zm0-60a24 24 0 1 1 -24 24 24.027 24.027 0 0 1 24-24z"/><path d="m272.675 125.151a23.021 23.021 0 0 0 23.47-4.064 21.625 21.625 0 0 0 19.755-38.194 25.408 25.408 0 0 0 -50.639 4 23.038 23.038 0 0 0 7.418 38.255zm-1.925-25.475a10.947 10.947 0 0 1 4.182-5.182 6 6 0 0 0 2.567-6.217 13.406 13.406 0 1 1 26.52-2.044 6 6 0 0 0 3.67 5.833 9.672 9.672 0 0 1 5.229 12.354 9.624 9.624 0 0 1 -12.455 5.472 9.716 9.716 0 0 1 -2.108-1.142 6 6 0 0 0 -8.362 1.387 11.04 11.04 0 0 1 -19.243-10.461z"/><path d="m415.163 170.933-14.318-11.414a43.043 43.043 0 0 0 -38.215-37.145 43.243 43.243 0 0 0 1.455-8.462 35.6 35.6 0 0 0 -20.7-64.584c-.984 0-1.96.048-2.931.128a30.73 30.73 0 0 0 -35.391-20.477 42.986 42.986 0 0 0 -65.732 4.994 30.577 30.577 0 0 0 -29.581 13.367 29.836 29.836 0 0 0 -36.371 27.16 31.3 31.3 0 0 0 -37.155 42.372 43.639 43.639 0 0 0 -28.009 44.985l-11.378 9.067a6.014 6.014 0 0 0 -2.184 5.664l51.181 314.374a6 6 0 0 0 5.922 5.038h208.488a6 6 0 0 0 5.922-5.038l51.181-314.37a6.006 6.006 0 0 0 -2.184-5.659zm-224.629-107.102a17.776 17.776 0 0 1 14.573-5.139 30.715 30.715 0 0 0 -.537 5.687 6 6 0 1 0 12 0 18.685 18.685 0 1 1 37.369 0 6 6 0 1 0 12 0 30.691 30.691 0 0 0 -14.654-26.152 30.99 30.99 0 0 1 47.114 1.3 6 6 0 0 0 6.676 1.88 18.7 18.7 0 0 1 23.711 11.062 35.537 35.537 0 0 0 -5.322 2.945 6 6 0 1 0 6.717 9.944 23.624 23.624 0 1 1 13.206 43.213 6 6 0 0 0 0 12 35.608 35.608 0 0 0 7.5-.8 30.768 30.768 0 0 1 -2.385 5.8 6 6 0 0 0 6.044 8.8 28.883 28.883 0 0 1 3.656-.223 30.9 30.9 0 0 1 15.677 4.253 5.853 5.853 0 0 0 -2.093-.4h-167.367a26.357 26.357 0 0 0 -11.182-46.938 31.155 31.155 0 0 0 -7.23-9.635 17.908 17.908 0 0 1 4.527-17.597zm14.466 233.169h10.689a6.394 6.394 0 0 0 4.748-2.124 48.471 48.471 0 0 1 71.787.025 6.3 6.3 0 0 0 4.683 2.1h50.687l-5.812 49h-44.875a6 6 0 0 0 -4.49 2.017 48.243 48.243 0 0 1 -72.237 0 6 6 0 0 0 -4.491-2.018h-45.471l-5.812-49h.594a6 6 0 0 0 0-12h-2.018l-16.009-135h218.054l-16.009 135h-49.5c-11.318-11-26.918-18.283-43.218-18.283s-31.9 7.283-43.226 18.283h-8.074a6 6 0 0 0 0 12zm-56.159-181.852a19.3 19.3 0 1 1 34.507-16.6 6 6 0 0 0 5.538 4.1 14.362 14.362 0 1 1 -3.937 28.273 5.991 5.991 0 0 0 -7.336 7.079h-30.366a16.159 16.159 0 0 1 1.459-16.127 6 6 0 0 0 .135-6.725zm-15.081 16.434a28.221 28.221 0 0 0 1.5 8.72l-14.777 11.775a31.75 31.75 0 0 1 13.277-20.495zm23.098 352.418-49.8-305.868 28.468-22.674 38.98 328.542zm29.732 0-14.948-126h41.432a60.236 60.236 0 0 0 86.448 0h40.836l-14.948 126zm168.552 0h-17.648l38.976-328.543 28.468 22.676z"/></g></svg>