<svg id="Capa_1" enable-background="new 0 0 511.022 511.022" height="512" viewBox="0 0 511.022 511.022" width="512" xmlns="http://www.w3.org/2000/svg"><g><g><circle cx="253.44" cy="254.615" fill="#f8f7f8" r="250.082"/><path d="m98.583 250.101c0-117.681 81.307-216.379 190.795-243.008-11.732-1.688-23.738-2.559-35.937-2.559-138.117-.001-250.083 111.965-250.083 250.081s111.966 250.082 250.082 250.082c20.435 0 40.291-2.455 59.303-7.079-121.094-17.421-214.16-121.6-214.16-247.517z" fill="#efedee"/><circle cx="255.011" cy="255.511" fill="#efedee" r="199.81"/><path d="m192.328 445.291c-57.146-45.827-93.745-116.238-93.745-195.191 0-68.58 27.615-130.698 72.321-175.873-68.323 31.754-115.703 100.981-115.703 181.284 0 88.453 57.485 163.485 137.127 189.78z" fill="#e4e1e5"/><g><path d="m141.813 156.97.345-2.958c1.964-16.848 20.653-26.061 35.212-17.358 2.923 1.747 6.193 2.835 9.581 3.186l5.48.569c10.325 1.072 18.707 8.824 20.579 19.034l5.622 30.653 9.615 25.817-9.615 27.04-40.837 15.46-29.661 9.562c-9.88 3.185-20.676-.527-26.509-9.113l-3.096-4.558c-1.914-2.817-4.42-5.182-7.343-6.93-14.559-8.703-15.294-29.527-1.384-39.234l2.442-1.705 27.006-16.358z" fill="#c9e7b4"/><path d="m235.722 53.997.953-2.822c5.424-16.071 25.621-21.196 38.052-9.656 2.496 2.317 5.468 4.061 8.708 5.109l5.242 1.696c9.876 3.195 16.463 12.521 16.171 22.897l-.875 31.152 4.036 27.253-15.028 24.449-43.159 6.63-31.001 3.185c-10.326 1.061-20.115-4.815-24.034-14.427l-2.08-5.102c-1.286-3.154-3.245-5.988-5.741-8.305-12.431-11.54-8.819-32.062 6.805-38.664l2.743-1.159 29.817-10.384z" fill="#c9e7b4"/><path d="m201.526 204.923-16.562-32.029c-2.678-5.178-7.857-8.59-13.673-9.006l-12.502-.894c-3.032-.217-5.947-1.255-8.434-3.003-9.629-6.771-23.054-1.749-25.875 9.679l-.953 3.859c-.799 3.238-2.548 6.164-5.022 8.402l-2.948 2.666c-8.73 7.896-6.797 22.099 3.727 27.374 2.717 1.362 5.012 3.438 6.639 6.006l6.707 10.588c3.12 4.925 8.577 7.872 14.406 7.778l36.053-.578 29.377 2.005 7.338-7.027z" fill="#b8de9c"/><path d="m76.528 282.758-.637-2.91c-3.625-16.57 11.049-31.363 27.648-27.871 3.333.701 6.778.665 10.096-.104l5.367-1.246c10.112-2.347 20.56 2.256 25.653 11.301l15.291 27.155 17.493 21.284-.293 28.697-33.583 27.907-24.935 18.693c-8.306 6.227-19.723 6.23-28.032.009l-4.411-3.302c-2.726-2.041-5.866-3.462-9.198-4.163-16.598-3.491-24.069-22.943-14.076-36.648l1.755-2.407 20.213-24.255z" fill="#c9e7b4"/><path d="m151.429 317.381-22.324-28.316c-3.609-4.578-9.341-6.948-15.13-6.256l-12.445 1.488c-3.018.361-6.077-.107-8.85-1.353-10.736-4.827-22.969 2.645-23.576 14.401l-.205 3.969c-.172 3.331-1.336 6.535-3.341 9.2l-2.39 3.176c-7.078 9.405-2.492 22.986 8.84 26.174 2.926.823 5.572 2.428 7.655 4.641l8.589 9.128c3.995 4.246 9.912 6.106 15.618 4.911l35.292-7.39 29.226-3.59 5.876-8.288z" fill="#b8de9c"/><g id="XMLID_230_"><g><path d="m397.691 292.775c14.48 9.41 18.92 28.58 10.06 43.4l-11.41 19.08c-8.86 14.82-27.84 19.98-42.99 11.7l-158.11-86.54c-15.98-8.74-21.5-29.01-12.15-44.65l18.44-30.84c9.34-15.64 29.81-20.38 45.08-10.45z" fill="#fcf6ed"/></g></g><path d="m391.453 347.85-158.11-86.54c-15.98-8.74-21.5-29.01-12.15-44.65l15.784-26.397c-13.363-3.382-27.969 2.144-35.445 14.663l-18.44 30.84c-9.35 15.64-3.83 35.91 12.15 44.65l158.11 86.54c15.15 8.28 34.13 3.12 42.99-11.7l2.657-4.443c-2.576-.653-5.111-1.632-7.546-2.963z" fill="#fcf1de"/><g id="XMLID_235_"><g><path d="m363.864 353.172c16.297 5.712 25.151 23.285 20.054 39.782l-6.566 21.24c-5.098 16.497-22.315 26.006-38.995 21.55l-174.109-46.627c-17.595-4.706-27.76-23.092-22.38-40.501l10.61-34.33c5.37-17.407 24.134-26.861 41.322-20.83z" fill="#fcf6ed"/></g></g><path d="m372.507 414.543-174.109-46.627c-17.595-4.706-27.76-23.092-22.38-40.501l10.61-34.33c.126-.409.267-.809.408-1.209-15.085-1.847-29.888 7.27-34.558 22.41l-10.61 34.33c-5.379 17.41 4.785 35.795 22.38 40.502l174.109 46.627c16.269 4.346 33.054-4.609 38.602-20.358-1.479-.181-2.974-.449-4.452-.844z" fill="#fcf1de"/><path d="m281.482 113.011-8.322-35.084c-1.345-5.672-5.546-10.236-11.087-12.046l-11.914-3.892c-2.889-.944-5.467-2.657-7.457-4.955-7.705-8.899-21.946-7.275-27.448 3.132l-1.858 3.513c-1.559 2.949-3.964 5.365-6.906 6.937l-3.505 1.874c-10.368 5.542-11.937 19.763-3.039 27.434 2.313 1.994 4.06 4.564 5.021 7.462l2.378 7.169 9.099 16.64c2.199 4.021 5.503 7.321 9.528 9.512 12.823 6.979 41.245 22.338 42.035 21.812 1.021-.68 21.775-29.201 21.775-29.201z" fill="#b8de9c"/><g id="XMLID_232_"><g><path d="m450.776 244.719c11.859 12.554 11.662 32.23-.437 44.549l-15.58 15.859c-12.099 12.318-31.76 12.866-44.536 1.253l-133.301-121.322c-13.474-12.256-14.068-33.255-1.3-46.255l25.18-25.634c12.759-13.002 33.769-12.791 46.273.454z" fill="#fcf6ed"/></g></g><path d="m433.587 298.445-133.301-121.321c-13.474-12.256-14.068-33.255-1.3-46.255l21.946-22.328c-12.476-7.924-29.289-6.42-40.13 4.629l-25.18 25.634c-12.768 13-12.174 34 1.3 46.255l133.301 121.321c12.776 11.613 32.437 11.065 44.536-1.253l3.255-3.313c-1.545-.981-3.029-2.098-4.427-3.369z" fill="#fcf1de"/><path d="m246.439 228.346 1.723 19.145c.453 5.029-3.257 9.473-8.287 9.926l-8.42.758c-5.029.453-9.473-3.257-9.926-8.287l-1.723-19.145c-.453-5.029 3.257-9.473 8.287-9.926l8.42-.758c5.029-.452 9.473 3.258 9.926 8.287z" fill="#fbe88c"/><path d="m347.534 306.624-4.552 11.17c-1.678 4.116-6.374 6.093-10.49 4.415l-22.665-9.238c-4.116-1.678-6.093-6.374-4.415-10.49l4.552-11.17c1.678-4.116 6.374-6.093 10.49-4.415l22.665 9.238c4.115 1.677 6.092 6.374 4.415 10.49z" fill="#fbe88c"/><g id="XMLID_231_"><g><path d="m309.781 235.575-5.13 19.78c-.85 3.26-4.17 5.21-7.43 4.37l-14.73-3.82c-3.25-.84-5.21-4.17-4.37-7.43l7.44-28.66z" fill="#b8de9c"/></g></g><g><path d="m319.393 146.604-2.96 18.993c-.777 4.989-5.453 8.404-10.442 7.626l-8.354-1.302c-4.989-.777-8.404-5.453-7.626-10.442l2.96-18.993c.777-4.989 5.453-8.404 10.442-7.626l8.354 1.302c4.989.777 8.404 5.452 7.626 10.442z" fill="#fbe88c"/><path d="m390.497 247.745 6.995-7.794c2.843-3.167 2.58-8.039-.588-10.882l-9.486-8.514c-3.167-2.843-8.039-2.58-10.882.587l-8.674 9.664c-2.468 2.75-1.9 7.053 1.197 9.068l13.673 8.895c2.488 1.619 5.783 1.184 7.765-1.024z" fill="#fbe88c"/><g id="XMLID_233_"><g><path d="m359.411 147.795 19.69 21.15-9.76 17.95c-1.61 2.96-5.31 4.05-8.26 2.44l-13.37-7.27c-2.96-1.61-4.05-5.31-2.44-8.26z" fill="#b8de9c"/></g></g></g><g><path d="m188.183 366.111 15.327-11.6c4.027-3.047 4.82-8.782 1.773-12.808l-5.102-6.741c-3.047-4.027-8.782-4.82-12.808-1.773l-15.327 11.6c-4.027 3.047-4.82 8.782-1.773 12.808l5.102 6.741c3.047 4.027 8.781 4.821 12.808 1.773z" fill="#fbe88c"/><path d="m310.511 369.469c2.47.774 3.769 3.476 2.832 5.888l-5.961 15.342c-1.444 4.003-5.86 6.079-9.863 4.635l-11.991-4.324c-4.003-1.444-6.079-5.859-4.635-9.863l5.336-14.798c.813-2.254 3.258-3.468 5.545-2.751z" fill="#fbe88c"/><g id="XMLID_239_"><g><path d="m245.561 382.595c2.81 1.84 3.6 5.62 1.76 8.43l-11.381 17.291-27.826-7.452 16.277-24.839c1.84-2.82 5.62-3.61 8.44-1.77z" fill="#fbe88c"/></g></g></g></g></g><g><path d="m401.786 286.484-151.085-98.292c-7.788-5.066-16.846-7.19-25.923-6.17l-4.39-23.933c-2.457-13.396-13.636-23.735-27.184-25.141l-5.479-.568c-2.284-.237-4.534-.985-6.506-2.164-9.032-5.4-20.059-5.844-29.495-1.192-8.5 4.19-14.49 11.926-16.488 21.055-1.01.235-2.011.532-2.996.901-7.499 2.805-13.121 9.12-15.04 16.894l-.952 3.857c-.443 1.795-1.401 3.398-2.771 4.638l-2.947 2.666c-5.938 5.369-8.838 13.312-7.758 21.243.153 1.12.39 2.216.691 3.288-7.347 6.088-11.478 15.186-11.137 24.833.371 10.515 5.984 20.015 15.014 25.411 1.972 1.18 3.697 2.808 4.988 4.707l3.096 4.56c5.836 8.589 15.592 13.507 25.643 13.507 3.132 0 6.293-.478 9.373-1.471l23.656-7.627c3.434 8.298 9.524 15.123 17.545 19.513l34.867 19.082c3.633 1.991 8.19.655 10.18-2.979 1.988-3.634.655-8.191-2.979-10.18l-34.867-19.082c-5.924-3.242-10.163-8.617-11.937-15.134-1.772-6.516-.84-13.297 2.625-19.094l18.436-30.842c3.465-5.797 8.997-9.829 15.576-11.353 6.578-1.525 13.318-.336 18.98 3.348l34.422 22.394-6.077 23.434c-1.881 7.254 2.49 14.688 9.745 16.571l14.729 3.819c1.141.296 2.284.437 3.41.437 6.044 0 11.575-4.067 13.161-10.183l2.514-9.694 79.181 51.513c11.14 7.246 14.524 21.859 7.706 33.268l-11.406 19.082c-6.819 11.408-21.294 15.344-32.95 8.965l-95.157-52.074c-3.633-1.99-8.19-.655-10.18 2.979-1.988 3.634-.655 8.191 2.979 10.18l95.155 52.076c6.072 3.323 12.617 4.907 19.068 4.907 13.479 0 26.536-6.918 33.958-19.335l11.406-19.082c10.975-18.359 5.527-41.876-12.4-53.538zm-255.951-25.647c-6.668 2.15-14.07-.396-18.005-6.188l-3.097-4.561c-2.511-3.694-5.864-6.859-9.699-9.151-4.712-2.817-7.526-7.579-7.72-13.066-.159-4.515 1.489-8.663 4.585-11.743 1.244.969 2.587 1.828 4.025 2.549 1.499.752 2.766 1.897 3.663 3.314l6.707 10.589c4.419 6.975 12.238 11.267 20.48 11.266.127 0 .255-.001.382-.003l24.856-.398c-.697 3.039-1.035 6.146-.99 9.273zm32.961-32.504-31.879.511c-.049.001-.098.001-.146.001-3.142 0-6.121-1.636-7.805-4.293l-6.707-10.588c-2.354-3.718-5.679-6.726-9.614-8.698-2.768-1.387-4.595-3.942-5.013-7.011-.417-3.067.66-6.018 2.957-8.096l2.948-2.666c3.594-3.251 6.108-7.458 7.271-12.167l.952-3.857c.742-3.007 2.831-5.354 5.731-6.438 2.901-1.086 6.018-.686 8.548 1.095 3.6 2.532 7.823 4.037 12.214 4.351l12.501.894c3.188.229 6.079 2.133 7.546 4.971l14.645 28.32zm24.249-36.802-11.418-22.08c-3.851-7.446-11.438-12.444-19.8-13.042l-12.501-.894c-1.674-.12-3.283-.693-4.655-1.658-1.356-.954-2.794-1.747-4.284-2.395 1.337-3.903 4.12-7.084 7.971-8.983 4.925-2.427 10.451-2.204 15.166.613 3.835 2.292 8.21 3.748 12.654 4.209l5.479.568c6.967.723 12.714 6.039 13.978 12.927l4.712 25.69c-2.624 1.401-5.069 3.091-7.302 5.045zm94.699 60.582-12.006-3.113 4.464-17.213 10.963 7.133z"/><path d="m253.909 227.675c-.821-9.14-8.927-15.912-18.067-15.085l-8.422.758c-4.428.398-8.435 2.498-11.284 5.911s-4.198 7.73-3.799 12.157l1.723 19.146c.778 8.635 8.056 15.151 16.566 15.151.497 0 .999-.022 1.503-.067l8.419-.759c9.14-.821 15.907-8.927 15.085-18.068zm-14.706 22.272-8.419.759c-.894.076-1.703-.587-1.785-1.489l-1.723-19.146c-.081-.902.587-1.703 1.488-1.784l8.421-.758c.05-.004.099-.007.148-.007.84 0 1.559.644 1.636 1.496v.001l1.724 19.144c.081.902-.587 1.703-1.49 1.784z"/><path d="m345.949 289.188-22.665-9.237c-3.843-1.567-8.07-1.544-11.899.067-3.828 1.611-6.8 4.616-8.367 8.462l-4.554 11.172c-3.233 7.938.594 17.029 8.531 20.265l22.665 9.237c1.896.772 3.883 1.158 5.87 1.158 2.045 0 4.089-.408 6.03-1.226 3.827-1.611 6.799-4.616 8.366-8.462l4.553-11.17c1.567-3.846 1.544-8.072-.067-11.9-1.612-3.826-4.617-6.798-8.463-8.366zm-5.361 14.605-4.553 11.17c-.021.053-.086.211-.295.299-.211.088-.366.022-.419.002l-22.665-9.237c-.28-.114-.415-.436-.302-.714l4.553-11.17c.021-.052.086-.21.295-.299.08-.033.152-.045.215-.045.1 0 .172.029.205.043l22.665 9.237c.281.114.416.435.301.714z"/><path d="m254.47 282.618 2.869 3.212c1.482 1.659 3.534 2.504 5.597 2.504 1.778 0 3.563-.629 4.993-1.906 3.09-2.76 3.356-7.501.598-10.59l-2.869-3.212c-2.761-3.089-7.502-3.355-10.59-.598-3.09 2.76-3.357 7.501-.598 10.59z"/><path d="m364.5 338.076-3.613.535c-4.098.606-6.928 4.42-6.32 8.518.552 3.726 3.753 6.402 7.409 6.402.366 0 .736-.026 1.108-.082l3.613-.535c4.098-.606 6.928-4.42 6.32-8.518-.607-4.099-4.436-6.935-8.517-6.32z"/><path d="m377.265 324.946c.313 0 .629-.02.947-.06 4.11-.519 7.021-4.27 6.504-8.379l-.938-7.446c-.519-4.111-4.278-7.02-8.379-6.504-4.11.519-7.021 4.27-6.504 8.379l.938 7.446c.479 3.793 3.709 6.564 7.432 6.564z"/><path d="m456.059 240.599-21.62-23.224c-2.822-3.031-7.568-3.203-10.6-.379-3.032 2.822-3.201 7.568-.379 10.6l21.62 23.224c9.056 9.728 8.805 24.725-.571 34.144l-11.446 11.5c-2.922 2.936-2.911 7.685.024 10.606 1.464 1.457 3.377 2.185 5.291 2.185 1.925 0 3.851-.736 5.315-2.209l11.446-11.5c15.09-15.157 15.494-39.293.92-54.947z"/><path d="m195.097 105.646c1.271 1.091 2.224 2.509 2.752 4.102l2.378 7.169c1.044 3.147 3.973 5.141 7.117 5.141.782 0 1.579-.123 2.362-.384 3.932-1.304 6.062-5.548 4.757-9.479l-2.378-7.169c-1.386-4.18-3.885-7.902-7.224-10.765-2.35-2.016-3.504-4.938-3.167-8.016s2.096-5.68 4.827-7.14l3.504-1.874c4.276-2.286 7.734-5.76 10-10.045l1.858-3.515c1.447-2.737 4.042-4.508 7.117-4.859 3.078-.355 6.004.79 8.031 3.132 2.88 3.327 6.614 5.809 10.797 7.174l11.914 3.892c3.037.992 5.382 3.54 6.119 6.648l7.358 31.022-22.404 22.506c-8.001 8.038-12.177 19.146-11.457 30.475.263 4.134 3.815 7.269 7.961 7.01 4.134-.264 7.272-3.827 7.01-7.961-.448-7.044 2.146-13.947 7.117-18.941l25.35-25.465c4.664-4.686 10.84-7.25 17.433-7.25.142 0 .283.001.426.003 6.753.113 13.006 2.897 17.608 7.841l27.981 30.056-11.568 21.27c-3.579 6.585-1.135 14.855 5.449 18.436l13.365 7.269c2.022 1.101 4.238 1.659 6.478 1.659 1.294 0 2.596-.187 3.871-.563 3.481-1.029 6.354-3.353 8.09-6.543l4.784-8.797 20.398 21.911c1.478 1.587 3.481 2.39 5.491 2.39 1.829 0 3.664-.666 5.108-2.011 3.032-2.822 3.201-7.568.379-10.6l-78.849-84.695c-6.33-6.799-14.604-11.05-23.66-12.259l1.531-24.284c.857-13.593-7.487-26.329-20.292-30.97l-5.18-1.878c-2.16-.783-4.163-2.054-5.791-3.675-7.457-7.424-18.05-10.524-28.329-8.291-9.262 2.01-16.946 8.066-21.093 16.442-1.037-.016-2.082.029-3.127.148-7.953.908-14.936 5.675-18.677 12.751l-1.859 3.516c-.863 1.633-2.181 2.956-3.811 3.827l-3.504 1.874c-7.061 3.773-11.796 10.777-12.667 18.735s2.239 15.817 8.316 21.03zm168.327 76.43-10.896-5.926 8.496-15.621 8.913 9.573zm-108.721-140.098c5.367-1.166 10.676.391 14.567 4.265 3.166 3.15 7.059 5.621 11.259 7.144l5.181 1.878c6.584 2.387 10.875 8.935 10.434 15.925l-1.644 26.054c-2.883.725-5.666 1.776-8.306 3.134l-5.735-24.183c-1.936-8.156-8.088-14.841-16.057-17.444l-11.915-3.893c-1.594-.521-3.017-1.465-4.114-2.733-1.085-1.254-2.289-2.371-3.578-3.36 2.242-3.463 5.711-5.877 9.908-6.787z"/><path d="m323.843 166.752 2.96-18.993v-.001c.685-4.393-.382-8.788-3.004-12.378s-6.485-5.944-10.877-6.628l-8.354-1.302c-9.057-1.411-17.595 4.813-19.007 13.881l-2.96 18.994c-.685 4.393.383 8.788 3.005 12.379 2.622 3.59 6.485 5.944 10.877 6.628l8.354 1.302c.867.136 1.735.202 2.597.202 3.501 0 6.901-1.103 9.782-3.207 3.589-2.622 5.944-6.485 6.627-10.877zm-11.86-21.303-2.96 18.993c-.087.556-.404.891-.655 1.074-.251.182-.667.379-1.221.297l-8.354-1.302c-.556-.087-.891-.404-1.073-.655-.184-.251-.384-.667-.298-1.222l2.96-18.994c.127-.81.828-1.39 1.623-1.39.084 0 .169.007.254.02l8.354 1.302c.894.14 1.509.982 1.37 1.877z"/><path d="m381.472 246.571c-2.767 3.083-2.51 7.825.572 10.592 1.433 1.285 3.223 1.918 5.007 1.918 2.056 0 4.104-.84 5.585-2.49l10.437-11.63c5.601-6.239 5.081-15.872-1.158-21.473l-9.487-8.516c-6.24-5.601-15.873-5.077-21.472 1.16l-13.371 14.897c-2.768 3.083-2.511 7.824.571 10.591 3.083 2.768 7.825 2.511 10.591-.571l13.371-14.897c.076-.083.207-.09.291-.017l9.486 8.515c.084.076.091.206.015.291z"/><path d="m316.063 205.018c1.343 2.55 3.947 4.007 6.643 4.007 1.178 0 2.373-.279 3.488-.866 3.665-1.93 5.071-6.466 3.141-10.131l-2.007-3.811c-1.93-3.664-6.463-5.071-10.131-3.141-3.665 1.93-5.071 6.466-3.141 10.131z"/><path d="m433.125 258.147c.491-4.112-2.443-7.846-6.557-8.338-4.114-.491-7.846 2.442-8.338 6.557l-.892 7.453c-.491 4.112 2.443 7.846 6.557 8.338.303.036.603.054.9.054 3.743 0 6.981-2.8 7.438-6.61z"/><path d="m383.354 390.27c-3.965-1.2-8.151 1.038-9.354 5.001l-4.708 15.526c-3.855 12.718-16.947 20.044-29.802 16.672l-91.376-23.956 5.483-8.379c1.988-3.038 2.675-6.669 1.932-10.224-.742-3.555-2.825-6.607-5.863-8.596l-12.731-8.33c-3.037-1.987-6.668-2.674-10.224-1.932-3.555.742-6.607 2.825-8.595 5.863l-13.256 20.258-39.723-10.414c-6.533-1.713-11.946-5.902-15.243-11.796s-4.033-12.699-2.073-19.162l10.426-34.385c2.044-6.743 6.896-12.297 13.312-15.238 3.766-1.726 5.419-6.177 3.692-9.942-1.726-3.765-6.174-5.421-9.942-3.692-10.32 4.73-18.127 13.668-21.418 24.521l-9.214 30.39-30.806 8.208c-3.088.82-6.44-.036-8.753-2.241l-9.069-8.651c-3.185-3.037-7.138-5.151-11.433-6.112-3.021-.677-5.413-2.715-6.561-5.591s-.815-5.999.909-8.569l2.217-3.302c2.702-4.025 4.124-8.716 4.112-13.564l-.01-3.974c-.007-3.097 1.452-5.879 4.004-7.633 2.553-1.754 5.671-2.121 8.558-1.006 4.106 1.586 8.567 2.025 12.904 1.266l7.44-1.3c4.08-.713 6.81-4.598 6.097-8.679-.712-4.081-4.6-6.819-8.679-6.097l-7.441 1.3c-1.65.289-3.352.121-4.916-.482-7.471-2.886-15.865-1.898-22.461 2.638-6.597 4.535-10.524 12.022-10.506 20.029l.01 3.974c.004 1.848-.538 3.636-1.566 5.169l-2.217 3.301c-4.461 6.646-5.354 15.054-2.387 22.489.39.978.844 1.919 1.349 2.826-5.412 7.619-7.108 17.253-4.493 26.362 2.903 10.113 10.648 17.974 20.719 21.027 2.197.666 4.264 1.827 5.977 3.359l4.106 3.673c5.78 5.171 13.186 7.825 20.628 7.824 5.628 0 11.278-1.519 16.259-4.615l20.664-12.848c5.352 7.404 13.014 12.679 22 15.036l174.354 45.709c3.399.891 6.805 1.317 10.156 1.317 17.05 0 32.618-11.042 37.805-28.146l4.708-15.526c1.201-3.966-1.037-8.154-5.001-9.356zm-272.605-8.926c-5.95 3.697-13.749 3.018-18.967-1.65l-4.105-3.673c-3.332-2.979-7.353-5.24-11.626-6.535-5.255-1.593-9.138-5.534-10.653-10.812-1.184-4.126-.702-8.325 1.288-11.94 1.481.667 3.036 1.198 4.654 1.56 1.637.367 3.144 1.172 4.356 2.329l9.068 8.65c4.544 4.336 10.623 6.688 16.793 6.688 2.066 0 4.144-.264 6.176-.806l24.02-6.4c.056 2.966.45 5.913 1.178 8.796zm119.148-.038 10.379 6.791-7.463 11.405-12.653-3.317z"/><path d="m161.078 349.797c-.61 4.404.532 8.781 3.215 12.325l5.102 6.742c3.269 4.319 8.251 6.593 13.291 6.593 3.499 0 7.025-1.096 10.023-3.365h.001l15.326-11.601c7.318-5.537 8.767-15.996 3.229-23.314l-5.103-6.741c-5.538-7.318-15.997-8.766-23.315-3.228l-15.326 11.601c-3.546 2.682-5.834 6.585-6.443 10.988zm14.857 2.057c.043-.307.188-.744.637-1.084l15.326-11.601c.297-.225.646-.333.991-.333.497 0 .989.225 1.312.651l5.103 6.741c.339.449.359.909.317 1.217-.043.308-.188.745-.637 1.085l-15.326 11.601c-.724.546-1.756.403-2.303-.319l-5.103-6.741c-.338-.449-.359-.91-.317-1.217z"/><path d="m290.228 355.262c-3.895-1.403-8.194.613-9.6 4.512l-6.789 18.829c-2.846 7.887 1.257 16.618 9.146 19.464l11.991 4.323c1.685.607 3.428.909 5.167.909 2.205 0 4.402-.486 6.458-1.452 3.676-1.728 6.459-4.783 7.837-8.604l5.301-14.701c1.404-3.896-.615-8.194-4.512-9.6-3.895-1.403-8.194.614-9.6 4.512l-5.301 14.701c-.032.091-.169.155-.263.123l-11.99-4.322c-.092-.033-.157-.172-.124-.265l6.79-18.83c1.405-3.896-.614-8.194-4.511-9.599z"/><path d="m226.313 343.117c.035 4.121 3.386 7.438 7.499 7.438h.063l4.308-.036c4.143-.035 7.472-3.421 7.438-7.562-.035-4.121-3.386-7.438-7.499-7.438h-.063l-4.308.036c-4.143.035-7.472 3.421-7.438 7.562z"/><path d="m335.979 414.831c1.489 0 2.993-.442 4.305-1.364l6.142-4.314c3.389-2.381 4.207-7.059 1.825-10.448-2.381-3.39-7.058-4.208-10.448-1.825l-6.142 4.314c-3.389 2.381-4.207 7.059-1.825 10.448 1.459 2.078 3.783 3.189 6.143 3.189z"/><path d="m436.185 74.837c-48.26-48.259-112.425-74.837-180.674-74.837s-132.414 26.578-180.674 74.837c-48.258 48.26-74.837 112.425-74.837 180.674s26.578 132.414 74.837 180.674c48.26 48.26 112.425 74.838 180.674 74.838s132.414-26.578 180.674-74.838c48.259-48.26 74.837-112.425 74.837-180.674s-26.578-132.414-74.837-180.674zm-10.607 350.741c-45.426 45.427-105.823 70.444-170.066 70.444s-124.641-25.018-170.066-70.444c-45.428-45.427-70.446-105.824-70.446-170.067s25.018-124.641 70.445-170.067c45.426-45.426 105.823-70.444 170.066-70.444s124.641 25.018 170.066 70.444c45.427 45.426 70.444 105.823 70.444 170.066s-25.017 124.641-70.443 170.068z"/><path d="m330.716 78.465c52.674 22.404 92.366 66.627 108.898 121.33.98 3.242 3.956 5.332 7.177 5.332.719 0 1.449-.104 2.173-.322 3.965-1.199 6.208-5.385 5.01-9.35-8.728-28.874-24.059-56.047-44.338-78.581-20.167-22.409-45.427-40.464-73.049-52.212-3.813-1.62-8.216.156-9.837 3.966-1.621 3.811.155 8.216 3.966 9.837z"/><path d="m55.804 269.262c.078 0 .157-.001.236-.004 4.141-.128 7.393-3.589 7.264-7.729-.069-2.25-.104-4.219-.104-6.019 0-36.208 10.115-71.479 29.253-102.001 18.624-29.703 44.969-53.773 76.185-69.608 3.694-1.874 5.17-6.388 3.296-10.081-1.874-3.695-6.39-5.169-10.081-3.296-33.645 17.066-62.037 43.007-82.107 75.017-20.637 32.912-31.545 70.939-31.545 109.97 0 1.956.036 4.077.111 6.483.126 4.062 3.457 7.268 7.492 7.268z"/><path d="m286.656 445.299c-10.286 1.674-20.765 2.522-31.145 2.522-43.686 0-84.858-14.278-119.069-41.291-3.249-2.566-7.967-2.014-10.533 1.238-2.567 3.25-2.013 7.967 1.238 10.533 36.884 29.125 81.271 44.52 128.364 44.52 11.185 0 22.475-.914 33.555-2.718 4.088-.665 6.863-4.519 6.197-8.607-.665-4.088-4.513-6.863-8.607-6.197z"/></g></g></svg>