<svg id="Layer_1" height="512" viewBox="0 0 512 512" width="512" xmlns="http://www.w3.org/2000/svg" data-name="Layer 1"><path d="m401.51 236.84a29.983 29.983 0 0 0 -27.83-18.82h-251.78a30.011 30.011 0 0 0 -27.78 18.67l-24.28 59.5h299.82l44.42-28.07z" fill="#9ac5a1"/><path d="m309.96 252.11h41.83v19.19h-41.83z" fill="#797e37"/><path d="m221.04 252.11h41.84v19.19h-41.84z" fill="#797e37"/><path d="m132.13 252.11h41.83v19.19h-41.83z" fill="#797e37"/><path d="m157.15 187.4v30.18.44h178.99v-.44-30.18z" fill="#797e37"/><path d="m211.31 187.27v.13h-32.29v-.13-67.03h32.29z" fill="#a8e2e0"/><path d="m179.02 92.16h32.29v28.08h-32.29z" fill="#88ced8"/><path d="m491.26 268.12-81.83 151.72h-351.94l-36.75-123.65h328.92l43.28-28.07z" fill="#6d7486"/><path d="m389 334.98a16.255 16.255 0 1 1 -16.26 16.26 16.26 16.26 0 0 1 16.26-16.26z" fill="#d9dfe8"/><path d="m329 334.98a16.255 16.255 0 1 1 -16.26 16.26 16.26 16.26 0 0 1 16.26-16.26z" fill="#d9dfe8"/><path d="m269 334.98a16.255 16.255 0 1 1 -16.26 16.26 16.26 16.26 0 0 1 16.26-16.26z" fill="#d9dfe8"/><path d="m209 334.98a16.255 16.255 0 1 1 -16.26 16.26 16.26 16.26 0 0 1 16.26-16.26z" fill="#d9dfe8"/><path d="m149 334.98a16.255 16.255 0 1 1 -16.26 16.26 16.26 16.26 0 0 1 16.26-16.26z" fill="#d9dfe8"/><path d="m89 334.98a16.255 16.255 0 1 1 -16.26 16.26 16.26 16.26 0 0 1 16.26-16.26z" fill="#d9dfe8"/><path d="m151.9 218.02h-30a30.011 30.011 0 0 0 -27.78 18.67l-24.28 59.5h30l24.28-59.5a30.011 30.011 0 0 1 27.78-18.67z" fill="#b8ddbc"/><path d="m187.15 187.4h-30v30.18.44h30v-.44z" fill="#999b4c"/><path d="m20.74 296.19 36.75 123.65h30l-36.75-123.65z" fill="#8e95a5"/><g fill="#284268"><path d="m262.878 246.109h-41.834a6 6 0 0 0 -6 6v19.2a6 6 0 0 0 6 6h41.834a6 6 0 0 0 6-6v-19.2a6 6 0 0 0 -6-6zm-6 19.2h-29.834v-7.2h29.834z"/><path d="m357.791 271.305v-19.2a6 6 0 0 0 -6-6h-41.833a6 6 0 0 0 -6 6v19.2a6 6 0 0 0 6 6h41.833a6 6 0 0 0 6-6zm-12-6h-29.833v-7.2h29.833z"/><path d="m173.965 246.109h-41.834a6 6 0 0 0 -6 6v19.2a6 6 0 0 0 6 6h41.834a6 6 0 0 0 6-6v-19.2a6 6 0 0 0 -6-6zm-6 19.2h-29.834v-7.2h29.834z"/><path d="m491.263 262.116h-73.128l-11.054-27.516a35.837 35.837 0 0 0 -33.405-22.579h-31.541v-24.621a6 6 0 0 0 -6-6h-118.827v-89.238a6 6 0 0 0 -6-6h-32.287a6 6 0 0 0 -6 6v89.238h-15.875a6 6 0 0 0 -6 6v24.625h-29.246a35.866 35.866 0 0 0 -33.332 22.4l-22.757 55.769h-45.074a6 6 0 0 0 -5.751 7.71l36.757 123.645a6 6 0 0 0 5.751 4.29h351.933a6 6 0 0 0 5.281-3.151l81.835-151.723a6 6 0 0 0 -5.28-8.849zm-306.242-163.954h20.287v16.077h-20.287zm0 28.077h20.287v55.161h-20.287zm-21.875 67.161h166.989v18.625h-166.989zm-63.467 45.557a23.909 23.909 0 0 1 22.221-14.933h251.776a23.891 23.891 0 0 1 22.27 15.053l9.257 23.039h-12.265a6 6 0 0 0 -3.265.967l-41.794 27.111h-269.108zm306.167 174.882h-343.876l-33.19-111.645h320.875a6 6 0 0 0 3.265-.966l41.794-27.112h86.5z"/><path d="m89 328.978a22.258 22.258 0 1 0 22.258 22.257 22.282 22.282 0 0 0 -22.258-22.257zm0 32.515a10.258 10.258 0 1 1 10.258-10.258 10.269 10.269 0 0 1 -10.258 10.258z"/><path d="m149 328.978a22.258 22.258 0 1 0 22.258 22.257 22.282 22.282 0 0 0 -22.258-22.257zm0 32.515a10.258 10.258 0 1 1 10.258-10.258 10.269 10.269 0 0 1 -10.258 10.258z"/><path d="m231.258 351.235a22.258 22.258 0 1 0 -22.258 22.258 22.282 22.282 0 0 0 22.258-22.258zm-22.258 10.258a10.258 10.258 0 1 1 10.258-10.258 10.269 10.269 0 0 1 -10.258 10.258z"/><path d="m269 373.493a22.258 22.258 0 1 0 -22.258-22.258 22.283 22.283 0 0 0 22.258 22.258zm0-32.515a10.258 10.258 0 1 1 -10.258 10.257 10.269 10.269 0 0 1 10.258-10.257z"/><path d="m329 373.493a22.258 22.258 0 1 0 -22.258-22.258 22.283 22.283 0 0 0 22.258 22.258zm0-32.515a10.258 10.258 0 1 1 -10.258 10.257 10.269 10.269 0 0 1 10.258-10.257z"/><path d="m366.742 351.235a22.258 22.258 0 1 0 22.258-22.257 22.283 22.283 0 0 0 -22.258 22.257zm32.516 0a10.258 10.258 0 1 1 -10.258-10.257 10.269 10.269 0 0 1 10.258 10.257z"/><path d="m232.458 390.263h-7.15a6 6 0 1 0 0 12h7.15a6 6 0 1 0 0-12z"/><path d="m396.305 390.263h-143.886a6 6 0 0 0 0 12h143.886a6 6 0 0 0 0-12z"/></g></svg>