<svg id="Layer_1" enable-background="new 0 0 512 512" height="512" viewBox="0 0 512 512" width="512" xmlns="http://www.w3.org/2000/svg"><g><g><path d="m221.494 78.213h-70.52c.28-41.48.51-67.46.51-67.46s17.38-3.03 34.75-3.03c1.6 0 3.19.03 4.77.08 15.65.45 29.98 2.95 29.98 2.95s.23 25.98.51 67.46z" fill="#97b0bf"/><path d="m221.494 78.213h-30.04c-.21-32.42-.39-61.22-.45-70.41 15.65.45 29.98 2.95 29.98 2.95s.23 25.98.51 67.46z" fill="#7c97a5"/><path d="m297.114 119.373h-221.76c.99-21.93 1.88-36.04 1.88-36.04s54.5-5.84 109-5.84c28.69 0 57.37 1.62 78.11 3.15 18.66 1.38 30.88 2.69 30.88 2.69s.9 14.11 1.89 36.04z" fill="#58768c"/><path d="m336.234 309.603c0 44.14-1.32 88.27-2.71 122.6-1.56 38.49-3.22 64.65-3.22 64.65s-12.24 1.31-31.68 2.85c1.78-32.35 5.61-111.23 5.61-190.1 0-78.88-3.83-157.76-5.61-190.11 19.44 1.54 31.68 2.85 31.68 2.85s1.66 26.16 3.22 64.65c1.39 34.33 2.71 78.46 2.71 122.61z" fill="#b2527e"/><path d="m336.234 309.603c0 44.14-1.32 88.27-2.71 122.6-1.56 38.49-3.22 64.65-3.22 64.65s-12.24 1.31-31.68 2.85c-27.72 2.2-70.05 4.86-112.39 4.86-72.03 0-144.07-7.71-144.07-7.71s-5.93-93.63-5.93-187.25c0-93.63 5.93-187.26 5.93-187.26s72.04-7.71 144.07-7.71c42.34 0 84.67 2.66 112.39 4.86 19.44 1.54 31.68 2.85 31.68 2.85s1.66 26.16 3.22 64.65c1.39 34.33 2.71 78.46 2.71 122.61z" fill="#ff5f85"/><path d="m297.114 119.373h-30.91c-.67-15.46-1.32-28.66-1.86-38.73 18.66 1.38 30.88 2.69 30.88 2.69s.9 14.11 1.89 36.04z" fill="#3e5868"/><path d="m336.234 309.603c0 44.14-1.32 88.27-2.71 122.6-9.65.43-20.4.86-31.85 1.24-20.34.67-42.89 1.15-65.44 1.15-72.03 0-144.07-4.94-144.07-4.94s-5.93-60.03-5.93-120.05c0-60.03 5.93-120.06 5.93-120.06s72.04-4.95 144.07-4.95c22.55 0 45.1.49 65.44 1.15 11.45.38 22.2.81 31.85 1.25 1.39 34.33 2.71 78.46 2.71 122.61z" fill="#ffe878"/><path d="m336.234 309.603c0 44.14-1.32 88.27-2.71 122.6-9.65.43-20.4.86-31.85 1.24 1.37-35.91 2.56-79.88 2.56-123.84 0-43.97-1.2-87.94-2.56-123.86 11.45.38 22.2.81 31.85 1.25 1.39 34.33 2.71 78.46 2.71 122.61z" fill="#ffd37b"/><circle cx="212.492" cy="272.772" fill="#fffbd7" r="33.61"/></g><g><path d="m230.675 496.129c-15.565.579-30.518.873-44.442.873-58.604 0-117.893-5.206-136.96-7.039-1.269-21.951-5.297-97.39-5.529-173.512-.013-4.134-3.368-7.477-7.5-7.477h-.023c-4.142.013-7.49 3.38-7.477 7.521.275 90.43 5.881 179.875 5.938 180.769.231 3.645 3.055 6.593 6.687 6.982.724.078 73.263 7.754 144.865 7.754 14.11 0 29.25-.297 45-.883 4.139-.154 7.37-3.634 7.216-7.773-.155-4.138-3.619-7.361-7.775-7.215z"/><path d="m331.098 114.872c-.269-.029-10.444-1.106-26.798-2.448-.856-17.992-1.578-29.452-1.587-29.579-.231-3.645-3.055-6.593-6.687-6.981-.402-.044-29.974-3.173-67.083-4.847-.253-36.886-.461-60.086-.463-60.331-.032-3.619-2.645-6.698-6.211-7.32-.735-.128-18.219-3.141-36.037-3.141s-35.302 3.013-36.037 3.141c-3.566.622-6.179 3.702-6.211 7.32-.002.245-.209 23.445-.463 60.331-37.109 1.674-66.682 4.803-67.084 4.847-3.632.388-6.456 3.336-6.687 6.981-.008.127-.731 11.586-1.586 29.579-16.354 1.342-26.529 2.419-26.798 2.448-3.632.389-6.456 3.336-6.687 6.981-.047.746-4.738 75.52-5.753 157.23-.051 4.141 3.265 7.54 7.406 7.591.032.001.063.001.095.001 4.098 0 7.446-3.296 7.498-7.406.839-67.584 4.206-130.404 5.345-150.113 19.067-1.835 78.356-7.039 136.96-7.039s117.893 5.204 136.96 7.039c.517 8.952 1.493 26.799 2.484 49.963-32.213-1.356-62.267-2.043-89.444-2.043-22.005 0-46.229.461-72 1.37-4.14.146-7.377 3.62-7.231 7.759s3.642 7.381 7.759 7.229c25.596-.902 49.643-1.36 71.472-1.36 26.911 0 57.912.718 90.057 2.083 1.289 33.245 2.443 74.449 2.443 115.408 0 40.954-1.154 82.154-2.443 115.398-32.145 1.365-63.146 2.083-90.057 2.083-58.679 0-118.026-3.337-137.183-4.519-1.487-16.938-5.317-65.206-5.317-112.963 0-47.745 3.831-96.032 5.317-112.97 5.523-.342 14.376-.864 25.521-1.428 4.137-.21 7.321-3.733 7.111-7.869-.209-4.136-3.739-7.316-7.87-7.11-19.479.987-32.035 1.845-32.16 1.854-3.652.251-6.59 3.101-6.95 6.744-.06.604-5.97 61.079-5.97 120.78 0 59.695 5.91 120.172 5.97 120.775.36 3.643 3.298 6.493 6.95 6.744.723.05 73.12 4.961 144.58 4.961 27.177 0 57.231-.687 89.444-2.043-.991 23.166-1.967 41.014-2.484 49.966-9.34.901-28.32 2.614-51.995 4.113-4.134.262-7.273 3.825-7.011 7.958.251 3.972 3.552 7.025 7.478 7.025.159 0 .32-.005.481-.015 34.168-2.164 58.708-4.774 58.952-4.8 3.632-.389 6.456-3.336 6.687-6.982.06-.938 5.949-94.928 5.949-187.701 0-92.782-5.889-186.772-5.949-187.71-.228-3.648-3.052-6.596-6.683-6.984zm-172.169-97.647c6.4-.856 16.917-2.004 27.304-2.004s20.903 1.147 27.303 2.004c.078 9.23.229 27.973.403 53.215-9.071-.284-18.399-.455-27.706-.455s-18.635.171-27.706.455c.173-25.242.325-43.985.402-53.215zm27.304 89.893c-37.579 0-75.416 2.114-102.994 4.135.438-9.072.833-16.33 1.106-21.101 15.844-1.496 59.091-5.168 101.888-5.168 42.774 0 86.039 3.672 101.888 5.169.273 4.769.668 12.024 1.106 21.1-27.578-2.021-65.415-4.135-102.994-4.135z"/><path d="m482.891 296.069c-1.274-3.942-5.5-6.109-9.442-4.831-25.114 8.11-58.64 4.236-76.926-22.708-2.326-3.427-6.99-4.322-10.417-1.995-3.427 2.326-4.32 6.989-1.995 10.416 16.031 23.622 41.181 33.038 65.306 33.038 9.961 0 19.747-1.605 28.644-4.479 3.94-1.273 6.104-5.5 4.83-9.441z"/><path d="m384.728 237.839c-3.868-22.068-1.327-49.33 7.554-81.03 9.389-33.516 5.774-60.742-10.742-80.923-34.375-41.999-111.84-36.772-115.121-36.529-4.131.306-7.231 3.902-6.925 8.032.306 4.129 3.898 7.216 8.034 6.925.725-.055 72.916-4.96 102.404 31.071 13.239 16.176 15.899 38.846 7.906 67.38-9.49 33.876-12.142 63.37-7.884 87.664.638 3.641 3.804 6.206 7.378 6.205.43 0 .866-.037 1.304-.113 4.079-.717 6.807-4.603 6.092-8.682z"/><path d="m270.955 16.417c.777-.104 78.482-9.822 138.298 25.406 1.195.704 2.506 1.039 3.8 1.039 2.569 0 5.071-1.32 6.469-3.694 2.102-3.569.913-8.166-2.656-10.267-64.359-37.905-144.5-27.801-147.881-27.352-4.104.545-6.989 4.312-6.446 8.416s4.312 6.985 8.416 6.452z"/><path d="m418.664 207.825c-1.814 3.723-.266 8.212 3.458 10.025 1.057.516 2.176.76 3.279.76 2.779 0 5.449-1.552 6.748-4.217 28.79-59.094 29.769-119.625 15.856-148.875-1.778-3.74-6.252-5.33-9.994-3.552-3.741 1.779-5.331 6.253-3.552 9.993 9.626 20.236 13.849 75.017-15.795 135.866z"/><path d="m140.086 343.013c-.197 4.136 2.997 7.65 7.134 7.847.434.021 29.483 1.373 67.873 1.373 19.341 0 41.053-.343 62.67-1.373 4.137-.196 7.332-3.71 7.135-7.847s-3.707-7.343-7.849-7.134c-63.79 3.038-128.47.031-129.116 0-4.129-.196-7.651 2.996-7.847 7.134z"/><path d="m250.56 371.578c-29.882.733-57.768.371-75.901-.063-.061-.001-.122-.002-.183-.002-4.059 0-7.397 3.241-7.495 7.321-.099 4.14 3.178 7.576 7.319 7.676 10.697.256 24.76.486 40.628.486 11.275 0 23.462-.116 36-.424 4.141-.102 7.416-3.541 7.313-7.681-.101-4.141-3.543-7.375-7.681-7.313z"/><path d="m253.603 272.739c0-22.665-18.442-41.105-41.11-41.105s-41.11 18.44-41.11 41.105 18.442 41.105 41.11 41.105 41.11-18.44 41.11-41.105zm-67.221 0c0-14.396 11.713-26.107 26.11-26.107s26.11 11.711 26.11 26.107-11.713 26.107-26.11 26.107-26.11-11.712-26.11-26.107z"/></g></g></svg>