<svg id="Layer_1" height="512" viewBox="0 0 512 512" width="512" xmlns="http://www.w3.org/2000/svg" data-name="Layer 1"><path d="m362.9 106.14-.83.82-335.68 335.68a30.384 30.384 0 0 0 42.97 42.97l335.68-335.68.83-.82z" fill="#c2684f"/><path d="m319.88 63.12 129 129 45.63-174.63z" fill="#e3e9ed"/><path d="m387.14 82.36-34.31 13.41-.15.15 63.4 63.4.15-.15 13.41-34.31z" fill="#d4e1f4"/><path d="m147.33 407.048-37.89 37.88-.08-.08-42.94-42.84 37.88-37.88 42.94 42.83z" fill="#9ac5a1"/><path d="m360.72 193.648-37.89 37.89-42.78-43.16 37.89-37.89z" fill="#9ac5a1"/><g fill="#dd7e68"><path d="m337.94 170.488.3.302 43.83-43.83.83-.82-20-20-.83.82-43.83 43.83 19.612 19.786z"/><path d="m300.261 208.769-19.911-20.089-175.748 175.748 20.025 19.975z"/><path d="m46.39 462.64 40.332-40.332-.3-.3.023-.024-19.723-19.676-40.332 40.332a30.388 30.388 0 0 0 12.471 50.5 30.374 30.374 0 0 1 7.529-30.5z"/></g><path d="m494.51 17.49-174.63 45.63 20 20 147.556-38.556z" fill="#d5dee2"/><path d="m124.3 384.128.302.3.025-.025-20.025-19.975-.302-.3-37.88 37.88.302.3 19.721 19.676z" fill="#b6ddba"/><path d="m300.35 208.68-.3-.302 37.802-37.802-19.612-19.786-.3-.302-37.89 37.89.3.302 19.911 20.089z" fill="#b6ddba"/><path d="m267.869 225.873-5.34 5.34a6 6 0 1 0 8.486 8.485l5.339-5.34a6 6 0 0 0 -8.485-8.485z" fill="#284268"/><path d="m247.623 246.12-107.452 107.451a6 6 0 0 0 8.486 8.485l107.451-107.451a6 6 0 0 0 -8.485-8.485z" fill="#284268"/><path d="m493 11.683-174.635 45.633a6 6 0 0 0 -2.726 10.048l38.77 38.771-332.264 332.265a36.385 36.385 0 1 0 51.455 51.454l332.265-332.263 38.771 38.77a6 6 0 0 0 10.048-2.726l45.633-174.63a6 6 0 0 0 -7.317-7.322zm-427.884 469.687a24.385 24.385 0 0 1 -34.486-34.486l35.787-35.784 34.483 34.483zm44.272-44.27-34.488-34.488 29.4-29.4 34.489 34.488zm37.886-37.886-34.486-34.485 167.263-167.265 34.485 34.485zm175.747-175.75-34.485-34.485 29.4-29.4 34.485 34.485zm37.886-37.885-34.486-34.486 36.479-36.473 34.48 34.48zm52.99-36.927-50.549-50.552 22.325-8.723 36.947 36.947zm31.823 31.822-22.558-22.558 12.062-30.875a6 6 0 0 0 -1.346-6.426l-42.493-42.493a6 6 0 0 0 -6.426-1.346l-30.875 12.062-22.558-22.558 154.59-40.4z" fill="#284268"/></svg>