<svg id="Layer_1" height="512" viewBox="0 0 512 512" width="512" xmlns="http://www.w3.org/2000/svg" data-name="Layer 1"><path d="m246.222 279.355a12.941 12.941 0 0 0 -12.941 12.94v50.768a16.414 16.414 0 0 1 -32.827 0v-50.763a12.941 12.941 0 0 0 -12.94-12.94h-38.02v141.44h212.5v-141.445z" fill="#d05458"/><path d="m361.994 122.416v156.939h-115.772a12.941 12.941 0 0 0 -12.941 12.94v50.768a16.414 16.414 0 0 1 -32.827 0v-50.763a12.94 12.94 0 0 0 -12.94-12.94h-38.02v-156.944a106.385 106.385 0 0 1 132.906-103.072 24.478 24.478 0 0 0 -.571 5.112 24.056 24.056 0 0 0 19.455 23.615 24.045 24.045 0 0 0 33.306 26.472 24.029 24.029 0 0 0 21.39 13.057c.12 0 .15-.01.271-.01a106.191 106.191 0 0 1 5.743 34.826z" fill="#5f91d4"/><path d="m150.457 279.355h-.963v141.441h30.071v-141.441z" fill="#bc5058"/><path d="m270.84 17.052a106.328 106.328 0 0 0 -121.346 105.364v156.939h30.071v-156.939a106.385 106.385 0 0 1 91.275-105.364z" fill="#4f7daf"/><path d="m284.572 420.8v46.391a28.828 28.828 0 0 1 -57.656 0v-46.391z" fill="#fbe08b"/><g fill="#284268"><path d="m150 427h71v39.691a35 35 0 0 0 70 0v-39.691h71a6 6 0 0 0 6-6v-298.272a111.864 111.864 0 0 0 -6.062-36.695 5.994 5.994 0 0 0 -5.668-4.033h-.076c-.115 0-.2 0-.283 0a17.949 17.949 0 0 1 -15.919-9.778 6 6 0 0 0 -7.751-2.745 18 18 0 0 1 -25.235-16.477 18.231 18.231 0 0 1 .319-3.339 6 6 0 0 0 -4.758-6.994 17.885 17.885 0 0 1 -14.11-21.5 6 6 0 0 0 -4.368-7.081 112.378 112.378 0 0 0 -28-3.536c-61.807.003-112.089 50.325-112.089 112.178v298.272a6 6 0 0 0 6 6zm129 39.691a23 23 0 0 1 -46 0v-39.691h46zm-123-181.691h31.925a7.1 7.1 0 0 1 7.075 7.075v50.685c0 12.117 9.344 22.484 21.448 23.041a22.51 22.51 0 0 0 23.552-22.352v-51.237a7.233 7.233 0 0 1 7.212-7.212h37.788a6 6 0 0 0 0-12h-38.5a18.5 18.5 0 0 0 -18.5 18.5v51.484a10.735 10.735 0 0 1 -9.306 10.774 10.5 10.5 0 0 1 -11.694-10.309v-51.237a19.269 19.269 0 0 0 -19.212-19.212h-31.788v-150.272a100.15 100.15 0 0 1 120.025-98.183c0 .152-.006.3-.006.455a30.446 30.446 0 0 0 18.981 27.912v.088a30.018 30.018 0 0 0 37.111 29.15 29.844 29.844 0 0 0 19.7 11.56 100.63 100.63 0 0 1 4.189 29.018v150.272h-31a6 6 0 0 0 0 12h31v130h-200z"/><path d="m234.86 36.941a87.088 87.088 0 0 0 -40.572 22.849 88.6 88.6 0 0 0 -26.288 62.938v30.272a6 6 0 0 0 12 0v-30.272a76.682 76.682 0 0 1 22.778-54.457 75.086 75.086 0 0 1 34.989-19.688 6 6 0 1 0 -2.907-11.642z"/><path d="m174 172a6 6 0 0 0 -6 6v12a6 6 0 0 0 12 0v-12a6 6 0 0 0 -6-6z"/></g></svg>