<svg id="Capa_1" enable-background="new 0 0 513.018 513.018" height="512" viewBox="0 0 513.018 513.018" width="512" xmlns="http://www.w3.org/2000/svg"><g><g><path d="m479.878 230.864h-.579c-4.313 0-5.121-6.135-.955-7.252l.56-.15c13.679-3.665 21.797-17.726 18.132-31.405-3.665-13.679-17.726-21.797-31.405-18.132l-.56.15c-4.166 1.116-6.535-4.601-2.799-6.758l.502-.29c12.264-7.081 16.467-22.763 9.386-35.027-7.081-12.264-22.763-16.466-35.028-9.385l-.501.289c-3.735 2.157-7.503-2.753-4.453-5.803l.039-.039c9.561-9.561 10.514-25.021 1.664-35.244-9.856-11.385-27.1-11.848-37.557-1.391l-.409.409c-3.05 3.05-7.96-.717-5.803-4.453l.027-.046c6.761-11.71 3.68-26.891-7.514-34.474-12.467-8.446-29.242-4.43-36.637 8.378l-.289.501c-2.157 3.735-7.874 1.367-6.758-2.799l1.694-6.322c3.779-14.103-5.075-25.642-19.676-25.642-13.679-3.665-27.74 4.453-31.405 18.132l-.15.559c-1.116 4.166-7.252 3.359-7.252-.955v-.055c0-13.521-10.258-25.128-23.744-26.098-15.019-1.081-27.54 10.784-27.54 25.574v.579c0 4.313-6.136 5.121-7.252.955l-.15-.559c-3.665-13.679-17.726-21.797-31.405-18.132-14.601 0-23.455 11.539-19.676 25.642l1.694 6.322c1.116 4.166-4.601 6.535-6.758 2.799l-.027-.047c-6.76-11.709-21.448-16.632-33.612-10.73-13.548 6.573-18.458 23.109-11.064 35.918l.289.5c2.157 3.735-2.753 7.503-5.803 4.453l-.038-.038c-9.561-9.561-25.022-10.514-35.244-1.663-11.384 9.857-11.847 27.099-1.39 37.557l.409.409c3.05 3.05-.717 7.96-4.453 5.803l-.501-.289c-12.264-7.081-27.947-2.879-35.028 9.385-7.081 12.264-2.879 27.947 9.386 35.027l.502.29c3.735 2.157 1.367 7.874-2.799 6.758l-.56-.15c-13.679-3.666-27.74 4.453-31.405 18.132-3.665 13.679 4.453 27.74 18.132 31.405l.56.15c4.166 1.116 3.359 7.252-.955 7.252h-.58c-14.162 0-25.642 11.48-25.642 25.642 0 14.162 11.48 25.642 25.642 25.642h.579c4.313 0 5.121 6.135.955 7.252l-.56.15c-13.679 3.665-21.797 17.726-18.132 31.405 3.665 13.679 17.726 21.797 31.405 18.132l.558-.15c4.166-1.116 6.535 4.601 2.799 6.758l-.5.289c-12.264 7.081-16.467 22.764-9.386 35.028 7.081 12.265 22.763 16.467 35.028 9.386l.501-.289c3.735-2.157 7.503 2.753 4.453 5.803l-.409.409c-10.014 10.014-10.014 26.25 0 36.263 10.014 10.014 26.25 10.014 36.263 0l.409-.409c3.05-3.05 7.96.717 5.803 4.453l-.289.5c-7.081 12.265-2.879 27.947 9.386 35.028 12.264 7.081 27.947 2.879 35.028-9.386l.289-.501c2.157-3.735 7.874-1.367 6.758 2.799l-1.694 6.322c-3.779 14.103 5.075 25.642 19.676 25.642 13.679 3.665 27.74-4.453 31.405-18.132l.15-.559c1.116-4.166 7.252-3.359 7.252.955v.055c0 13.521 10.258 25.128 23.744 26.098 15.019 1.081 27.54-10.784 27.54-25.574v-.579c0-4.313 6.135-5.121 7.252-.955l.15.559c3.665 13.679 17.726 21.797 31.405 18.132 14.601 0 23.455-11.539 19.676-25.642l-1.694-6.322c-1.116-4.166 4.601-6.535 6.758-2.799l.289.501c7.081 12.265 22.763 16.467 35.028 9.386 12.264-7.081 16.467-22.763 9.386-35.028l-.289-.5c-2.157-3.735 2.753-7.503 5.803-4.453l.409.409c10.014 10.014 26.25 10.014 36.263 0 10.014-10.014 10.014-26.249 0-36.263l-.409-.409c-3.05-3.05.717-7.96 4.453-5.803l.501.289c12.264 7.081 27.947 2.879 35.028-9.386 7.081-12.264 2.879-27.947-9.386-35.028l-.5-.289c-3.735-2.157-1.367-7.874 2.799-6.758l.558.15c13.679 3.666 27.74-4.453 31.405-18.132 3.665-13.679-4.453-27.74-18.132-31.405l-.56-.15c-4.166-1.116-3.359-7.252.955-7.252h.579c14.162 0 25.642-11.48 25.642-25.642 0-14.162-11.48-25.642-25.642-25.642z" fill="#dfae91"/><g><g><g id="XMLID_242_"><g><path d="m256.509 64.436c107.78 0 195.14 87.37 195.14 195.14 0 107.78-87.36 195.15-195.14 195.15s-195.14-87.37-195.14-195.15c0-107.77 87.36-195.14 195.14-195.14z" fill="#dfae91"/></g><path d="m104.256 252.954c0-93.262 45.445-175.896 115.384-227.01-6.022-8.517-16.916-12.822-27.58-9.964-14.601 0-23.455 11.539-19.676 25.642l1.694 6.322c1.116 4.167-4.601 6.535-6.758 2.799l-.001-.001c-7.188-12.45-23.432-17.057-35.744-9.634-11.934 7.195-15.957 22.655-8.959 34.776l.289.5c2.157 3.735-2.753 7.502-5.803 4.453l-.001-.001c-10.165-10.165-27.048-10.41-37.019-.053-9.665 10.039-9.549 26.012.348 35.909l.409.409c3.05 3.05-.717 7.96-4.453 5.803l-.501-.29c-12.264-7.081-27.947-2.879-35.028 9.385-7.081 12.264-2.879 27.947 9.386 35.027l.502.29c3.735 2.157 1.367 7.874-2.799 6.758l-.56-.15c-13.679-3.666-27.74 4.453-31.405 18.132s4.453 27.74 18.132 31.405l.56.15c4.166 1.117 3.359 7.252-.955 7.252h-.578c-14.162 0-25.642 11.48-25.642 25.642s11.48 25.642 25.642 25.642h.579c4.313 0 5.121 6.135.955 7.252l-.56.15c-13.679 3.665-21.797 17.726-18.132 31.405s17.726 21.797 31.405 18.132l.558-.149c4.166-1.117 6.535 4.601 2.799 6.757l-.5.289c-12.264 7.081-16.467 22.764-9.386 35.028 7.081 12.265 22.763 16.467 35.028 9.386l.501-.29c3.735-2.157 7.503 2.753 4.453 5.803l-.409.409c-10.014 10.014-10.014 26.25 0 36.263 10.014 10.014 26.25 10.014 36.263 0l.409-.409c3.05-3.05 7.96.717 5.803 4.453l-.289.5c-7.081 12.265-2.879 27.947 9.386 35.028s27.947 2.879 35.028-9.386l.289-.501c2.157-3.735 7.874-1.367 6.758 2.799l-1.694 6.322c-3.779 14.103 5.075 25.642 19.676 25.642 12.613 3.379 25.544-3.264 30.357-15.043-71.517-50.939-118.161-134.538-118.161-229.033z" fill="#d79c7a"/></g><g id="XMLID_243_"><path d="m347.586 432.327-195.145-338.001" fill="#d08a61"/><path d="m421.759 363.644-338-195.144" fill="#d08a61"/><g><circle cx="256.509" cy="259.576" fill="#d79c7a" r="146.56"/></g></g></g><path d="m303.472 297.232h-93.926c-3.286 0-5.95-2.664-5.95-5.95v-61.868c0-3.286 2.664-5.95 5.95-5.95h93.926c3.286 0 5.95 2.664 5.95 5.95v61.868c0 3.286-2.664 5.95-5.95 5.95z" fill="#d08a61"/></g></g><g><path d="m256.509 56.933c-111.739 0-202.645 90.905-202.645 202.644s90.906 202.645 202.645 202.645 202.645-90.906 202.645-202.645-90.906-202.644-202.645-202.644zm179.182 146.867-32.489 8.706c-2.604-8.097-5.855-15.906-9.703-23.361l29.102-16.802c5.269 9.993 9.674 20.508 13.09 31.457zm3.876 97.063-32.48-8.704c1.76-8.143 2.881-16.521 3.294-25.082h33.61c-.458 11.558-1.96 22.851-4.424 33.786zm-16.966 45.947-29.103-16.802c3.848-7.454 7.099-15.263 9.703-23.36l32.489 8.706c-3.415 10.948-7.82 21.463-13.089 31.456zm-28.28 39.972-23.754-23.754c5.662-6.237 10.818-12.941 15.409-20.043l29.107 16.804c-6.104 9.626-13.061 18.657-20.762 26.993zm-37.6 31.368-16.805-29.106c7.102-4.591 13.806-9.747 20.043-15.409l23.754 23.754c-8.335 7.701-17.367 14.657-26.992 20.761zm-187.445 7.518 16.802-29.102c7.454 3.848 15.263 7.099 23.359 9.703l-8.705 32.488c-10.949-3.415-21.464-7.819-31.456-13.089zm-39.973-28.279 23.754-23.754c6.237 5.663 12.941 10.818 20.043 15.409l-16.805 29.106c-9.624-6.104-18.655-13.06-26.992-20.761zm-38.886-225.045 29.102 16.803c-3.848 7.454-7.099 15.263-9.703 23.359l-32.489-8.705c3.415-10.95 7.821-21.465 13.09-31.457zm28.279-39.973 23.754 23.754c-5.662 6.237-10.818 12.941-15.409 20.043l-29.107-16.805c6.105-9.624 13.062-18.655 20.762-26.992zm37.6-31.368 16.804 29.106c-7.102 4.591-13.806 9.747-20.043 15.409l-23.754-23.754c8.337-7.701 17.368-14.657 26.993-20.761zm44.436-20.607 8.705 32.488c-8.097 2.604-15.906 5.855-23.36 9.703l-16.802-29.102c9.993-5.269 20.508-9.674 31.457-13.089zm143.01 13.089-16.802 29.102c-7.454-3.848-15.263-7.099-23.359-9.703l8.705-32.488c10.949 3.415 21.464 7.82 31.456 13.089zm39.972 28.279-23.754 23.754c-6.237-5.663-12.942-10.818-20.044-15.41l16.805-29.106c9.626 6.105 18.657 13.061 26.993 20.762zm-94.623-12.765c-8.143-1.76-16.521-2.881-25.083-3.294v-33.609c11.558.457 22.851 1.958 33.786 4.423zm-40.082-3.294c-8.562.413-16.94 1.534-25.083 3.294l-8.703-32.479c10.934-2.465 22.227-3.967 33.786-4.423zm-143.078 121.289c-1.76 8.143-2.881 16.521-3.294 25.083h-33.61c.457-11.558 1.959-22.852 4.424-33.786zm-36.904 40.082h33.61c.412 8.562 1.534 16.94 3.294 25.083l-32.48 8.703c-2.465-10.934-3.967-22.227-4.424-33.786zm40.789 39.571c2.604 8.097 5.855 15.906 9.703 23.36l-29.102 16.803c-5.269-9.992-9.674-20.507-13.09-31.457zm7.636-47.071c0-76.676 62.38-139.057 139.057-139.057s139.056 62.381 139.056 139.057c0 76.677-62.38 139.058-139.057 139.058s-139.056-62.381-139.056-139.058zm106.474 150.579c8.143 1.76 16.521 2.881 25.083 3.294v33.609c-11.558-.457-22.851-1.958-33.786-4.423zm40.083 3.294c8.562-.413 16.939-1.534 25.082-3.294l8.703 32.479c-10.934 2.465-22.227 3.967-33.786 4.423v-33.608zm39.571-7.179c8.097-2.604 15.906-5.855 23.36-9.704l16.802 29.102c-9.992 5.269-20.507 9.674-31.456 13.089zm106.8-154.193c-.412-8.562-1.533-16.94-3.294-25.083l32.48-8.704c2.465 10.935 3.967 22.228 4.424 33.787zm-24.404-75.909c-4.591-7.102-9.747-13.806-15.409-20.043l23.754-23.754c7.701 8.336 14.658 17.368 20.762 26.993zm-288.041 183.621 29.107-16.804c4.591 7.102 9.747 13.806 15.409 20.043l-23.754 23.754c-7.701-8.336-14.658-17.368-20.762-26.993z"/><path d="m295.878 196.176c0 4.143 3.358 7.5 7.5 7.5h14.804c1.989 0 3.896-.79 5.303-2.196l19.501-19.501c2.929-2.93 2.929-7.678 0-10.607-2.929-2.928-7.678-2.928-10.606 0l-17.305 17.305h-11.698c-4.141-.001-7.499 3.356-7.499 7.499z"/><path d="m190.532 201.479c1.406 1.406 3.314 2.196 5.303 2.196h75.58c4.142 0 7.5-3.357 7.5-7.5s-3.358-7.5-7.5-7.5h-72.474l-17.305-17.305c-2.929-2.928-7.678-2.928-10.606 0-2.929 2.93-2.929 7.678 0 10.607z"/><path d="m323.485 317.674c-1.407-1.406-3.314-2.196-5.303-2.196h-67.651c-4.142 0-7.5 3.357-7.5 7.5s3.358 7.5 7.5 7.5h64.544l17.305 17.305c1.464 1.464 3.384 2.196 5.303 2.196s3.839-.732 5.303-2.196c2.929-2.93 2.929-7.678 0-10.607z"/><path d="m226.069 322.978c0-4.143-3.358-7.5-7.5-7.5h-22.733c-1.989 0-3.896.79-5.303 2.196l-19.501 19.501c-2.929 2.93-2.929 7.678 0 10.607 1.464 1.464 3.384 2.196 5.303 2.196s3.839-.732 5.303-2.196l17.305-17.305h19.627c4.141.001 7.499-3.357 7.499-7.499z"/><path d="m183.476 294.194v-73.377c0-1.989-.79-3.896-2.197-5.304l-23.099-23.099c-2.929-2.928-7.678-2.928-10.606 0-2.929 2.93-2.929 7.678 0 10.607l20.902 20.901v67.164l-20.902 20.901c-2.929 2.93-2.929 7.678 0 10.607 1.464 1.464 3.384 2.196 5.303 2.196s3.839-.732 5.303-2.196l23.099-23.099c1.407-1.404 2.197-3.311 2.197-5.301z"/><path d="m330.542 220.817v73.377c0 1.989.79 3.896 2.197 5.304l23.099 23.099c1.464 1.464 3.384 2.196 5.303 2.196s3.839-.732 5.303-2.196c2.929-2.93 2.929-7.678 0-10.607l-20.902-20.901v-67.164l20.902-20.901c2.929-2.93 2.929-7.678 0-10.607-2.929-2.928-7.678-2.928-10.606 0l-23.099 23.099c-1.407 1.405-2.197 3.312-2.197 5.301z"/><path d="m228.204 178.479h56.609c11.113 0 20.154-9.041 20.154-20.153 0-11.113-9.041-20.154-20.154-20.154h-2.168c-4.142 0-7.5 3.357-7.5 7.5s3.358 7.5 7.5 7.5h2.168c2.842 0 5.154 2.312 5.154 5.154s-2.312 5.153-5.154 5.153h-56.609c-2.842 0-5.154-2.312-5.154-5.153s2.312-5.154 5.154-5.154h2.168c4.142 0 7.5-3.357 7.5-7.5s-3.358-7.5-7.5-7.5h-2.168c-11.113 0-20.154 9.041-20.154 20.154 0 11.112 9.041 20.153 20.154 20.153z"/><path d="m284.813 341.533h-56.609c-11.113 0-20.154 9.041-20.154 20.153 0 11.113 9.041 20.154 20.154 20.154h2.168c4.142 0 7.5-3.357 7.5-7.5s-3.358-7.5-7.5-7.5h-2.168c-2.842 0-5.154-2.312-5.154-5.154s2.312-5.153 5.154-5.153h56.609c2.842 0 5.154 2.312 5.154 5.153s-2.312 5.154-5.154 5.154h-2.168c-4.142 0-7.5 3.357-7.5 7.5s3.358 7.5 7.5 7.5h2.168c11.113 0 20.154-9.041 20.154-20.154 0-11.112-9.041-20.153-20.154-20.153z"/><path d="m361.359 245.182v24.648c0 1.989.79 3.896 2.196 5.303l8.459 8.46c1.465 1.465 3.384 2.197 5.304 2.197 1.919 0 3.838-.732 5.303-2.196 2.929-2.929 2.929-7.678 0-10.606l-6.263-6.264v-18.436l6.263-6.264c2.929-2.929 2.928-7.678 0-10.606-2.93-2.928-7.678-2.929-10.607.001l-8.459 8.46c-1.406 1.406-2.196 3.313-2.196 5.303z"/><path d="m152.658 269.83v-24.648c0-1.989-.79-3.896-2.196-5.303l-8.459-8.46c-2.929-2.93-7.677-2.929-10.607-.001-2.929 2.929-2.929 7.678 0 10.606l6.263 6.264v18.436l-6.263 6.264c-2.929 2.929-2.928 7.678 0 10.606 1.465 1.464 3.384 2.196 5.303 2.196s3.839-.732 5.304-2.197l8.459-8.46c1.406-1.406 2.196-3.314 2.196-5.303z"/><path d="m225.046 230.964c4.142 0 7.5-3.357 7.5-7.5s-3.358-7.5-7.5-7.5h-15.5c-7.417 0-13.45 6.034-13.45 13.45v61.868c0 7.416 6.034 13.45 13.45 13.45h93.926c7.417 0 13.45-6.034 13.45-13.45v-61.868c0-7.416-6.034-13.45-13.45-13.45h-46.463c-4.142 0-7.5 3.357-7.5 7.5s3.358 7.5 7.5 7.5h44.913v58.769h-90.826v-58.769z"/><path d="m491.26 287.414c12.671-4.552 21.757-16.688 21.757-30.906 0-14.219-9.086-26.354-21.757-30.905 11.061-7.677 16.696-21.75 13.017-35.483-2.27-8.47-7.701-15.549-15.294-19.933-4.271-2.466-8.936-3.913-13.708-4.304 8.687-10.277 10.483-25.322 3.377-37.629-4.384-7.594-11.463-13.025-19.932-15.295-4.757-1.275-9.633-1.465-14.336-.612 2.042-4.323 3.119-9.082 3.119-14.007 0-8.768-3.415-17.012-9.615-23.212-10.049-10.048-25.047-12.207-37.221-6.477.857-4.711.667-9.592-.609-14.354-2.27-8.47-7.701-15.548-15.294-19.932-12.313-7.109-27.366-5.308-37.644 3.39-1.117-13.417-10.488-25.335-24.221-29.015-8.47-2.273-17.317-1.106-24.909 3.278-4.27 2.466-7.856 5.782-10.581 9.72-4.557-12.661-16.689-21.738-30.9-21.738s-26.343 9.077-30.899 21.738c-2.725-3.938-6.311-7.254-10.581-9.72-7.593-4.384-16.439-5.548-24.909-3.278-13.734 3.68-23.104 15.597-24.222 29.015-10.277-8.697-25.331-10.498-37.644-3.39-7.593 4.384-13.025 11.462-15.294 19.932-1.276 4.763-1.467 9.644-.609 14.354-12.175-5.73-27.172-3.57-37.221 6.477-6.2 6.2-9.615 14.444-9.615 23.212 0 4.925 1.077 9.684 3.119 14.008-4.705-.856-9.581-.662-14.336.611-8.469 2.27-15.548 7.701-19.932 15.295-7.105 12.307-5.31 27.352 3.378 37.629-4.772.392-9.439 1.838-13.709 4.304-7.593 4.384-13.025 11.463-15.294 19.933-3.68 13.733 1.955 27.807 13.017 35.482-12.672 4.551-21.758 16.687-21.758 30.906 0 14.218 9.086 26.354 21.757 30.906-11.061 7.676-16.697 21.75-13.017 35.484 3.664 13.672 15.634 23.08 29.063 24.204-8.688 10.295-10.5 25.428-3.438 37.66 7.124 12.339 20.972 18.344 34.268 15.908-5.787 12.215-3.564 27.156 6.496 37.216 9.991 9.992 25.021 12.23 37.249 6.459-2.403 13.304 3.655 27.25 15.876 34.306 12.136 7.007 27.29 5.294 37.619-3.394 1.049 13.569 10.459 25.325 24.246 29.019 13.731 3.68 27.769-1.782 35.477-12.971 4.55 12.803 16.694 21.712 30.912 21.712 14.209 0 26.359-8.913 30.912-21.713 7.711 11.186 21.758 16.648 35.478 12.972 13.744-3.682 23.162-15.424 24.24-28.969 10.338 8.817 25.294 10.464 37.625 3.344 12.185-7.034 18.26-21.013 15.867-34.318 12.231 5.766 27.295 3.519 37.257-6.445 10.021-10.021 12.254-25.003 6.482-37.225 13.3 2.422 27.185-3.608 34.282-15.9 7.146-12.378 5.427-27.331-3.335-37.619 13.475-1.066 25.254-10.414 28.961-24.245 3.68-13.735-1.956-27.809-13.017-35.485zm-1.472 31.602c-2.519 9.397-11.903 14.98-21.361 12.715-3.671-.881-7.426 1.106-8.763 4.638-1.064 2.811-2.046 5.279-3.004 7.547-1.438 3.404-.182 7.348 2.959 9.294 8.231 5.1 10.886 15.665 6.043 24.054-4.746 8.221-15.077 11.285-23.523 6.974-3.295-1.68-7.322-.71-9.488 2.287-1.74 2.407-3.374 4.585-4.996 6.656-2.24 2.861-2.106 6.917.317 9.625 6.299 7.038 5.996 17.789-.691 24.477-6.565 6.566-17.208 6.96-24.229.899-2.752-2.376-6.812-2.437-9.632-.143-2.363 1.921-4.562 3.643-6.725 5.264-2.863 2.146-3.811 6.016-2.265 9.242 3.995 8.337.847 18.49-7.167 23.117-8.037 4.642-18.124 2.428-23.464-5.147-2.062-2.924-5.901-3.984-9.172-2.534-2.831 1.256-5.455 2.361-8.022 3.379-3.295 1.307-5.227 4.742-4.629 8.236 1.558 9.115-4.014 17.796-12.96 20.193-8.903 2.387-18.06-2.312-21.293-10.931-1.246-3.319-4.644-5.312-8.149-4.78-2.678.407-5.519.775-8.687 1.127-3.527.391-6.297 3.2-6.639 6.732-.887 9.168-8.513 16.081-17.739 16.081-9.241 0-16.868-6.925-17.741-16.108-.336-3.532-3.101-6.346-6.626-6.743-3.208-.361-6.042-.733-8.666-1.138-.384-.059-.767-.088-1.146-.088-3.089 0-5.917 1.913-7.023 4.882-3.221 8.642-12.377 13.356-21.305 10.966-8.844-2.37-14.529-11.28-12.941-20.285.617-3.501-1.308-6.954-4.61-8.271-2.63-1.047-5.311-2.18-7.969-3.364-3.287-1.465-7.15-.39-9.207 2.563-5.239 7.521-15.568 9.818-23.52 5.229-8.082-4.666-11.201-14.88-7.102-23.253 1.582-3.23.647-7.131-2.229-9.293-2.145-1.612-4.383-3.367-6.655-5.217-2.84-2.31-6.933-2.234-9.685.182-7.03 6.175-17.724 5.823-24.348-.8-6.759-6.759-7.005-17.574-.559-24.62 2.471-2.701 2.631-6.792.378-9.678-1.614-2.067-3.275-4.283-4.938-6.588-2.184-3.025-6.26-3.988-9.564-2.254-8.493 4.451-18.902 1.429-23.698-6.878-4.822-8.353-2.024-19.197 6.239-24.174 3.193-1.924 4.489-5.9 3.042-9.336-.962-2.286-1.933-4.726-2.965-7.458-1.349-3.567-5.159-5.556-8.857-4.618-9.395 2.383-19.077-3.3-21.585-12.661-2.544-9.494 3.11-19.289 12.595-21.83l.348-.093c3.649-.973 6.006-4.507 5.501-8.25-.367-2.723-.665-5.257-.91-7.744-.378-3.839-3.606-6.765-7.464-6.765h-.474c-9.83 0-17.826-7.997-17.826-17.826s7.997-17.826 17.826-17.826h1.158c3.779 0 6.968-2.812 7.441-6.561.288-2.279.646-4.736 1.097-7.515.616-3.8-1.745-7.449-5.463-8.444l-1.224-.328c-9.494-2.545-15.149-12.339-12.605-21.832 1.232-4.601 4.182-8.444 8.305-10.825 4.125-2.38 8.928-3.011 13.527-1.78l1.841.493c3.648.978 7.452-.909 8.881-4.403 1.033-2.523 1.986-4.753 2.913-6.816 1.578-3.511.242-7.646-3.092-9.57l-1.725-.995c-8.512-4.915-11.439-15.839-6.525-24.351 2.381-4.124 6.225-7.073 10.824-8.306 4.6-1.231 9.402-.6 13.526 1.781l2.277 1.314c3.274 1.889 7.441 1.048 9.726-1.964 1.433-1.89 2.935-3.803 4.464-5.685 2.422-2.982 2.199-7.313-.518-10.031l-1.919-1.92c-3.367-3.366-5.221-7.843-5.221-12.604s1.854-9.238 5.221-12.604c6.95-6.95 18.259-6.951 25.209-.001l2.24 2.24c2.68 2.682 6.941 2.938 9.927.604 1.683-1.318 3.536-2.716 5.665-4.273 3.091-2.261 3.981-6.486 2.067-9.803l-1.614-2.796c-2.381-4.124-3.013-8.928-1.781-13.526 1.232-4.6 4.182-8.443 8.306-10.824 8.513-4.911 19.436-1.986 24.351 6.524l1.748 3.027c1.899 3.29 5.958 4.64 9.451 3.144 2.175-.933 4.358-1.828 6.49-2.661 3.56-1.391 5.505-5.235 4.515-8.928l-.912-3.401c-1.232-4.599-.6-9.403 1.781-13.526 2.38-4.123 6.225-7.073 10.824-8.306 4.601-1.231 9.403-.6 13.526 1.78 4.124 2.381 7.073 6.226 8.306 10.825l.958 3.576c.984 3.674 4.567 6.02 8.327 5.48 2.216-.324 4.539-.623 6.902-.889 3.793-.428 6.661-3.636 6.661-7.453v-3.724c0-9.829 7.997-17.825 17.826-17.825s17.826 7.996 17.826 17.825v3.684c0 3.82 2.872 7.03 6.668 7.454 2.331.26 4.659.557 6.921.883 3.759.545 7.33-1.813 8.313-5.482l.946-3.529c1.232-4.6 4.182-8.444 8.306-10.825 4.123-2.379 8.927-3.012 13.527-1.78 4.599 1.232 8.443 4.183 10.824 8.306s3.013 8.928 1.781 13.527l-.88 3.283c-.99 3.697.961 7.546 4.528 8.932 2.215.861 4.411 1.756 6.526 2.658 3.493 1.494 7.543.139 9.44-3.147l1.678-2.907c4.916-8.512 15.839-11.438 24.351-6.524 4.124 2.381 7.073 6.225 8.306 10.824 1.232 4.599.6 9.402-1.781 13.526l-1.512 2.619c-1.917 3.32-1.021 7.551 2.076 9.81 2.088 1.522 3.957 2.929 5.713 4.3 2.985 2.327 7.238 2.068 9.917-.609l2.09-2.09c6.95-6.95 18.259-6.95 25.209 0 3.367 3.366 5.221 7.843 5.221 12.604s-1.854 9.238-5.223 12.606l-1.728 1.729c-2.718 2.72-2.939 7.055-.512 10.037 1.511 1.856 3.029 3.786 4.511 5.736 2.285 3.006 6.448 3.848 9.719 1.958l2.041-1.177c4.123-2.381 8.926-3.014 13.526-1.781 4.599 1.232 8.443 4.182 10.824 8.306 4.915 8.512 1.987 19.436-6.525 24.351l-1.451.838c-3.336 1.926-4.67 6.065-3.087 9.577.928 2.06 1.892 4.312 2.946 6.885 1.43 3.494 5.235 5.381 8.881 4.402l1.532-.41c4.598-1.231 9.402-.6 13.526 1.78 4.124 2.381 7.073 6.225 8.305 10.825 2.544 9.493-3.111 19.287-12.601 21.831l-.895.239c-3.721.994-6.083 4.646-5.466 8.448.456 2.807.819 5.293 1.111 7.601.474 3.749 3.662 6.561 7.441 6.561h.813c9.83 0 17.826 7.997 17.826 17.826s-7.997 17.826-17.826 17.826h-.129c-3.857 0-7.085 2.926-7.464 6.765-.248 2.513-.549 5.073-.922 7.829-.49 3.624 1.72 7.078 5.211 8.169.098.031.196.06.296.086 9.497 2.543 15.151 12.337 12.607 21.832z"/></g></g></svg>