<svg id="Layer_1" height="512" viewBox="0 0 512 512" width="512" xmlns="http://www.w3.org/2000/svg" data-name="Layer 1"><path d="m502.67 275.83a69.441 69.441 0 0 1 -67.63 53.73h-287.74l-72.18-23v31.36l72.18 22.99h287.74a69.456 69.456 0 0 0 67.63-85.08z" fill="#4a5160"/><path d="m435.04 222.1h-287.74l-72.18 22.99v61.47l72.18 23h287.74a69.441 69.441 0 0 0 67.63-53.73 69.432 69.432 0 0 0 -67.63-53.73z" fill="#6d7486"/><path d="m75.12 306.56v23.44h-.09l-36.69 28.22h-1.53v-133.43h1.53l36.69 28.21h.09z" fill="#5fa8ed"/><path d="m7.55 224.79h29.26v133.43h-29.26z" fill="#49bdff"/><path d="m336.19 186.9h-106.05a14.16 14.16 0 0 0 -14.16 14.16v21.04h134.37v-21.04a14.16 14.16 0 0 0 -14.16-14.16z" fill="#a8e2e0"/><path d="m335.42 261.59a15.31 15.31 0 1 1 -15.31 15.31 15.319 15.319 0 0 1 15.31-15.31z" fill="#d4e1f4"/><path d="m283.17 261.59a15.31 15.31 0 1 1 -15.32 15.31 15.317 15.317 0 0 1 15.32-15.31z" fill="#d4e1f4"/><circle cx="230.91" cy="276.9" fill="#d4e1f4" r="15.31"/><path d="m178.65 261.59a15.31 15.31 0 1 1 -15.31 15.31 15.319 15.319 0 0 1 15.31-15.31z" fill="#d4e1f4"/><path d="m385.679 261.716a15.314 15.314 0 1 1 -13.191 13.212 15.329 15.329 0 0 1 13.191-13.212z" fill="#d4e1f4"/><path d="m241.36 151.09h24.04v35.81h-24.04z" fill="#b0b5ca"/><path d="m75.12 306.56v31.36l30 9.555v-31.355z" fill="#383e49"/><path d="m177.3 222.1h-30l-72.18 22.99v61.47l30 9.56v-71.03z" fill="#5f6777"/><path d="m245.98 201.06a14.16 14.16 0 0 1 14.16-14.16h-30a14.16 14.16 0 0 0 -14.16 14.16v21.04h30z" fill="#95c6c4"/><g fill="#284268"><path d="m288.125 198.265h-9.917a6 6 0 0 0 0 12h9.917a6 6 0 0 0 0-12z"/><path d="m256.771 198.265h-9.917a6 6 0 0 0 0 12h9.917a6 6 0 0 0 0-12z"/><path d="m319.479 198.265h-9.917a6 6 0 0 0 0 12h9.917a6 6 0 0 0 0-12z"/><path d="m283.167 255.591a21.312 21.312 0 1 0 21.312 21.309 21.336 21.336 0 0 0 -21.312-21.309zm0 30.624a9.312 9.312 0 1 1 9.312-9.313 9.324 9.324 0 0 1 -9.312 9.313z"/><path d="m230.91 255.591a21.312 21.312 0 1 0 21.313 21.309 21.336 21.336 0 0 0 -21.313-21.309zm0 30.624a9.312 9.312 0 1 1 9.313-9.313 9.323 9.323 0 0 1 -9.313 9.313z"/><path d="m335.423 255.591a21.312 21.312 0 1 0 21.312 21.309 21.335 21.335 0 0 0 -21.312-21.309zm0 30.624a9.312 9.312 0 1 1 9.312-9.313 9.323 9.323 0 0 1 -9.312 9.313z"/><path d="m387.679 255.591a21.312 21.312 0 1 0 21.312 21.309 21.335 21.335 0 0 0 -21.312-21.309zm0 30.624a9.312 9.312 0 1 1 9.312-9.313 9.323 9.323 0 0 1 -9.312 9.313z"/><path d="m178.654 255.591a21.312 21.312 0 1 0 21.312 21.309 21.335 21.335 0 0 0 -21.312-21.309zm0 30.624a9.312 9.312 0 1 1 9.312-9.313 9.324 9.324 0 0 1 -9.312 9.313z"/><path d="m435.042 216.1h-78.689v-15.04a20.183 20.183 0 0 0 -20.16-20.16h-64.793v-29.811a6 6 0 0 0 -6-6h-24.038a6 6 0 0 0 -6 6v29.811h-5.221a20.182 20.182 0 0 0 -20.16 20.16v15.04h-62.681a5.987 5.987 0 0 0 -1.821.283l-72.179 22.989a5.974 5.974 0 0 0 -3.119 2.333l-28.187-21.676a6 6 0 0 0 -3.658-1.243h-30.785a6 6 0 0 0 -6 6v133.435a6 6 0 0 0 6 6h30.785a6.01 6.01 0 0 0 3.658-1.243l28.188-21.678a5.983 5.983 0 0 0 3.119 2.333l72.178 22.993a6.018 6.018 0 0 0 1.821.283h287.742a75.408 75.408 0 0 0 0-150.815zm-404.228 136.121h-17.263v-121.435h17.263zm38.309-25.242-26.309 20.229v-111.408l26.309 20.23zm178.239-169.89h12.038v23.811h-12.038zm-25.381 43.971a8.17 8.17 0 0 1 8.16-8.16h106.052a8.17 8.17 0 0 1 8.16 8.16v15.04h-122.372zm213.061 153.851h-286.809l-67.11-21.379v-18.759l64.356 20.5a5.988 5.988 0 0 0 1.821.284h287.742a75.261 75.261 0 0 0 62.458-33.187 63.5 63.5 0 0 1 -62.458 52.541zm0-31.354h-286.809l-67.11-21.378v-52.7l67.11-21.378h286.809a63.518 63.518 0 0 1 61.442 47.728 63.072 63.072 0 0 1 -61.442 47.728z"/></g></svg>