<svg id="Layer_1" enable-background="new 0 0 512 512" height="512" viewBox="0 0 512 512" width="512" xmlns="http://www.w3.org/2000/svg"><g><g><path d="m382.093 349.207c-43.098 41.514-84.641 72.35-99.95 83.317l-21.008-20.951-181.712-181.257c4.801-6.357 12.898-16.772 21.475-26.396-14.347-23.893-64.297-114.147-13.866-136.265 34.62-15.188 60.981 26.106 76.672 62.133 33.206-34.987 74.105-71.629 117.493-95.571 56.993-31.437 118.306-40.962 172.138 3.974 3.726 3.104 7.41 6.477 11.066 10.119 55.621 55.493 46.931 121.274 12.969 182.785-23.81 43.153-60.056 84.193-95.277 118.112z" fill="#ff5f85"/><path d="m382.093 349.207c-43.098 41.514-84.641 72.35-99.95 83.317l-21.008-20.951c48.946-35.298 308.8-233.321 192.199-373.383 3.726 3.104 7.41 6.477 11.066 10.119 55.621 55.493 46.931 121.274 12.969 182.785-23.809 43.154-60.055 84.194-95.276 118.113z" fill="#b2527e"/><path d="m228.488 504.521s-8.492-7.757-21.807-20.152c-22.536-20.965-58.888-55.196-91.273-87.496-51.513-51.399-107.905-112.81-107.905-112.81 27.931-39.88 62.522-62.394 62.522-62.394s61.561 56.257 113.073 107.642c32.428 32.343 66.779 68.659 87.787 91.124 12.374 13.237 20.124 21.68 20.124 21.68s-22.555 34.518-62.521 62.406z" fill="#dcf8ff"/><path d="m291.011 442.113s-22.557 34.52-62.522 62.408c0 0-8.492-7.757-21.807-20.152 33.948-24.741 56.215-52.976 64.205-63.936 12.374 13.237 20.124 21.68 20.124 21.68z" fill="#d2e1f9"/><path d="m382.093 349.207s-6.215-15.252-9.242-33c-.7-4.052-1.223-8.238-1.471-12.402-22.436-1.322-44.088-10.118-44.088-10.118s-8.811-21.609-10.147-43.989c-22.429-1.329-44.088-10.133-44.088-10.133s-8.818-21.602-10.147-43.988c-22.436-1.322-44.088-10.119-44.088-10.119s-8.81-21.609-10.147-43.989c-22.429-1.329-44.972-11.681-44.972-11.681 33.206-34.987 74.105-71.629 117.493-95.571 2.008 8.4 3.981 19.452 4.108 30.794 23.504.255 45.813 8.407 45.813 8.407s8.167 22.252 8.415 45.707c23.511.262 45.82 8.4 45.82 8.4s8.16 22.26 8.422 45.714c23.504.255 45.814 8.407 45.814 8.407s7.326 19.969 8.308 42.009c.057 1.23.099 2.461.106 3.698 10.706.113 21.15 1.874 29.366 3.74-23.808 43.155-60.054 84.195-95.275 118.114z" fill="#77e0ab"/><path d="m382.093 349.207s-6.215-15.252-9.242-33c27.471-27.711 54.574-59.354 75.045-92.552.057 1.23.099 2.461.106 3.698 10.706.113 21.15 1.874 29.366 3.74-23.808 43.155-60.054 84.195-95.275 118.114z" fill="#65c1b0"/><g fill="#c0ffde"><ellipse cx="330.637" cy="182.081" rx="14.992" ry="15.024" transform="matrix(.713 -.702 .702 .713 -32.71 284.321)"/><ellipse cx="274.752" cy="126.195" rx="14.992" ry="15.024" transform="matrix(.713 -.702 .702 .713 -9.563 229.047)"/><ellipse cx="386.522" cy="237.968" rx="14.992" ry="15.024" transform="matrix(.713 -.702 .702 .713 -55.858 339.596)"/></g></g><g><path d="m469.696 43.006c-2.932-2.927-7.681-2.921-10.606.012-2.926 2.933-2.92 7.681.012 10.607 31.779 31.707 43.636 69.532 35.242 112.423-3.508 17.927-10.501 36.822-20.903 56.548-6.302-1.227-12.398-2.048-18.229-2.454-1.518-21.592-8.269-40.22-8.586-41.084-.76-2.072-2.395-3.704-4.468-4.462-.866-.316-19.538-7.054-41.18-8.566-1.518-21.593-8.269-40.221-8.587-41.085-.76-2.072-2.394-3.704-4.468-4.462-.866-.316-19.538-7.054-41.18-8.566-1.518-21.593-8.269-40.221-8.587-41.085-.76-2.072-2.395-3.704-4.468-4.461-.866-.316-19.538-7.054-41.178-8.566-.44-6.282-1.362-12.863-2.759-19.677 2.168-1.14 4.329-2.24 6.481-3.299 51.825-25.497 97.729-26.29 136.436-2.361 3.523 2.18 8.146 1.089 10.323-2.434 2.178-3.523 1.088-8.145-2.435-10.323-43.393-26.827-94.178-26.268-150.945 1.66-39.174 19.271-80.745 51.305-123.673 95.283-14.821-30.757-31.281-49.84-49.009-56.783-10.804-4.231-21.874-3.925-32.904.914-11.963 5.248-19.999 14.097-23.884 26.302-11.212 35.213 16.31 89.755 31.545 115.974-4.829 5.608-9.38 11.259-13.212 16.174-2.154-1.979-3.347-3.071-3.389-3.109-2.523-2.305-6.288-2.613-9.151-.748-1.462.952-36.132 23.777-64.576 64.377-2.02 2.884-1.763 6.783.618 9.375.565.616 57.099 62.125 108.138 113.037 14.961 14.925 32.227 31.713 51.316 49.897 1.452 1.383 3.313 2.069 5.172 2.069 1.98 0 3.958-.779 5.432-2.327 2.857-2.999 2.742-7.746-.258-10.603-19.006-18.105-36.188-34.811-51.068-49.655-42.836-42.73-89.594-92.994-103.541-108.075 19.971-26.938 42.634-45.103 52.247-52.195 6.14 5.649 18.161 16.753 33.048 30.727 3.021 2.836 7.767 2.686 10.602-.335 2.835-3.019 2.685-7.765-.335-10.6-8.99-8.439-16.941-15.837-23.191-21.627 4.743-6.116 10.726-13.538 16.966-20.533 2.186-2.451 2.523-6.039.832-8.854-21.307-35.455-41.138-82.556-32.904-108.418 2.556-8.029 7.664-13.627 15.617-17.116 7.349-3.224 14.35-3.444 21.408-.684 15.534 6.083 31.223 26.468 45.371 58.948.745 1.711 2.09 3.06 3.747 3.82v.001c.883.405 20.024 9.104 41.181 11.745 2.401 20.822 9.782 39.092 10.126 39.935.763 1.87 2.249 3.353 4.121 4.114.845.343 19.138 7.7 39.992 10.097 2.406 20.809 9.778 39.059 10.122 39.901.763 1.87 2.249 3.353 4.121 4.114.844.343 19.138 7.7 39.992 10.097 2.406 20.809 9.777 39.058 10.122 39.9.763 1.87 2.249 3.353 4.12 4.114.845.343 19.144 7.703 40.003 10.099 1.779 15.063 6.3 29.286 8.855 36.471-37.439 35.601-73.279 62.963-90.212 75.351-19.874-21.342-58.665-62.59-94.715-98.551-14.368-14.332-30.868-30.39-49.042-47.728-2.998-2.86-7.745-2.748-10.604.25-2.859 2.997-2.748 7.744.25 10.603 18.095 17.261 34.514 33.24 48.803 47.494 42.87 42.764 89.67 93.077 103.576 108.114-7.102 9.599-25.252 32.159-52.313 52.126-5.883-5.413-17.122-15.794-31.087-28.887-3.021-2.835-7.767-2.68-10.601.341-2.833 3.021-2.681 7.767.341 10.6 20.781 19.485 35.56 32.995 35.707 33.13 1.423 1.3 3.237 1.963 5.06 1.963 1.494 0 2.994-.445 4.29-1.35 40.686-28.385 63.557-62.983 64.511-64.442 1.877-2.871 1.566-6.649-.753-9.175-.077-.083-1.178-1.282-3.152-3.418 23.407-17.213 77.648-59.163 125.667-111.464 2.801-3.052 2.599-7.795-.453-10.596-3.051-2.801-7.796-2.597-10.597.452-7.466 8.132-15.087 16.01-22.717 23.578-2.603-8.368-5.722-20.48-6.42-32.226-.226-3.792-3.251-6.817-7.043-7.042-16.182-.958-32.228-6.148-38.709-8.468-2.326-6.472-7.522-22.47-8.482-38.604-.226-3.792-3.251-6.817-7.043-7.042-16.181-.958-32.226-6.147-38.709-8.468-2.326-6.471-7.523-22.47-8.482-38.604-.226-3.792-3.251-6.817-7.043-7.042-16.181-.958-32.227-6.147-38.709-8.467-2.326-6.471-7.523-22.471-8.482-38.604-.226-3.792-3.251-6.817-7.043-7.042-11.901-.704-24.029-4.206-32.227-7.073 34.24-35.051 67.44-62.207 99.05-81.031 1.161 6.771 1.797 13.289 1.862 19.219.044 4.078 3.339 7.373 7.417 7.417 16.742.183 33.119 4.7 39.97 6.843 2.149 6.825 6.664 23.099 6.848 39.852.044 4.078 3.34 7.373 7.417 7.418 16.742.183 33.119 4.7 39.97 6.843 2.149 6.825 6.664 23.099 6.848 39.852.044 4.078 3.34 7.373 7.417 7.418 16.738.183 33.111 4.698 39.965 6.84 2.148 6.844 6.669 23.169 6.852 39.854.045 4.078 3.339 7.373 7.417 7.417 5.574.061 11.51.596 17.734 1.595-9.129 15.318-20.228 31.1-33.265 47.283-2.598 3.226-2.09 7.947 1.136 10.545 1.387 1.116 3.049 1.659 4.7 1.659 2.191 0 4.364-.956 5.846-2.795 35.657-44.261 57.523-86.051 64.99-124.208 9.406-48.096-3.839-90.461-39.375-125.918z"/><path d="m330.603 159.572c-6.005 0-11.65 2.337-15.894 6.581-8.769 8.769-8.759 23.048.022 31.83 4.252 4.252 9.903 6.596 15.911 6.603h.025c6.006 0 11.649-2.337 15.893-6.581 0 0 0 0 0-.001 4.25-4.25 6.587-9.903 6.581-15.917-.006-6.01-2.352-11.659-6.603-15.911-4.252-4.253-9.903-6.597-15.912-6.604zm7.54 22.531c.002 2.003-.775 3.884-2.188 5.296v.001c-1.411 1.411-3.288 2.188-5.287 2.188h-.008c-2.008-.002-3.898-.787-5.321-2.21-2.934-2.934-2.944-7.697-.023-10.618 1.411-1.411 3.289-2.188 5.288-2.188h.008c2.008.003 3.897.787 5.321 2.211 1.423 1.421 2.208 3.311 2.21 5.32z"/><path d="m274.719 103.688c-6.006 0-11.65 2.337-15.894 6.581-8.769 8.769-8.759 23.048.022 31.831 4.395 4.394 10.166 6.592 15.935 6.592 5.758 0 11.514-2.19 15.895-6.57v-.001c8.768-8.769 8.758-23.048-.022-31.829-4.252-4.253-9.903-6.598-15.912-6.604zm5.352 27.827c-2.921 2.92-7.685 2.909-10.617-.022-2.934-2.935-2.944-7.697-.022-10.619 1.411-1.411 3.289-2.188 5.288-2.188h.008c2.008.002 3.897.787 5.321 2.211 2.933 2.933 2.943 7.697.022 10.618z"/><path d="m370.594 222.037c-8.77 8.77-8.76 23.049.022 31.83 4.395 4.395 10.166 6.593 15.935 6.593 5.758 0 11.514-2.19 15.894-6.57 8.77-8.77 8.76-23.049-.022-31.83-4.252-4.252-9.903-6.596-15.911-6.603-6.046-.005-11.669 2.33-15.918 6.58zm21.246 21.246c-2.92 2.922-7.683 2.911-10.617-.022s-2.943-7.696-.022-10.617c1.411-1.411 3.288-2.188 5.287-2.188h.008c2.008.002 3.898.787 5.321 2.211 2.934 2.933 2.944 7.695.023 10.616z"/><path d="m201.133 396.191c2.615-3.212 2.131-7.936-1.082-10.55-3.213-2.615-7.936-2.131-10.551 1.082-.074.091-7.487 9.153-16.614 16.611-3.207 2.621-3.683 7.345-1.062 10.553 1.483 1.814 3.639 2.754 5.812 2.754 1.669 0 3.348-.553 4.741-1.692 10.295-8.414 18.415-18.34 18.756-18.758z"/><path d="m215.127 454.133c1.668 0 3.348-.554 4.741-1.692 10.295-8.413 18.415-18.339 18.756-18.758 2.614-3.211 2.129-7.931-1.081-10.546-3.21-2.617-7.935-2.134-10.55 1.075-.075.091-7.537 9.195-16.617 16.615-3.207 2.621-3.683 7.345-1.062 10.553 1.484 1.813 3.64 2.753 5.813 2.753z"/><path d="m116.205 311.263c-.418.341-10.345 8.462-18.758 18.755-2.621 3.208-2.146 7.932 1.062 10.553 1.393 1.139 3.072 1.692 4.741 1.692 2.173 0 4.33-.94 5.812-2.754 7.37-9.018 16.401-16.441 16.612-16.614 3.212-2.615 3.697-7.338 1.081-10.551-2.613-3.211-7.338-3.696-10.55-1.081z"/><path d="m78.713 273.771c-.418.341-10.345 8.461-18.758 18.755-2.621 3.208-2.146 7.932 1.062 10.553 1.393 1.139 3.072 1.692 4.741 1.692 2.173 0 4.33-.94 5.812-2.754 7.37-9.018 16.401-16.441 16.612-16.614 3.212-2.615 3.697-7.339 1.081-10.551-2.613-3.211-7.338-3.696-10.55-1.081z"/><path d="m152.825 348.964-17.685 17.685c-2.929 2.929-2.929 7.677 0 10.607 1.464 1.464 3.384 2.196 5.303 2.196s3.839-.732 5.303-2.196l17.685-17.685c2.929-2.929 2.929-7.677 0-10.607-2.928-2.927-7.677-2.927-10.606 0z"/><circle cx="174.565" cy="181.816" r="7.5"/><circle cx="225.504" cy="232.743" r="7.5"/><circle cx="279.974" cy="287.211" r="7.5"/><circle cx="330.903" cy="338.148" r="7.5"/><circle cx="376.883" cy="81.361" r="7.5"/><circle cx="431.352" cy="135.828" r="7.5"/></g></g></svg>