<svg id="Capa_1" enable-background="new 0 0 511.023 511.023" height="512" viewBox="0 0 511.023 511.023" width="512" xmlns="http://www.w3.org/2000/svg"><g><g><circle cx="255.762" cy="257.583" fill="#f7d8a4" r="248.011"/><path d="m61.109 256.583c0-126.324 94.445-230.587 216.575-246.036-7.225-.633-14.533-.976-21.922-.976-136.973 0-248.011 111.039-248.011 248.012s111.038 248.011 248.011 248.011c10.649 0 21.141-.673 31.437-1.976-126.703-11.099-226.09-117.452-226.09-247.035z" fill="#f5cd8b"/><g><g><g><circle cx="255.762" cy="257.583" fill="#f8deb6" r="209.728"/><path d="m121.305 418.546c-37.513-43.451-60.196-100.052-60.196-161.963 0-58.54 20.255-112.31 54.175-154.732-42.543 38.384-69.25 93.92-69.25 155.732 0 64.667 29.26 122.491 75.271 160.963z" fill="#f7d8a4"/><g id="XMLID_227_"><g><circle cx="255.762" cy="257.583" fill="#f5cd8b" r="179.73"/></g></g></g><g fill="#fbe88c"><circle cx="218.394" cy="287.166" r="22.005"/><circle cx="288.704" cy="287.166" r="14.764"/><path d="m150.633 373.788c-6.379-6.835-8-16.845-4.105-25.344l4.42-9.643c1.76-3.84 1.593-8.288-.451-11.985-4.934-8.925-4.962-19.754-.073-28.703l2.225-4.073c1.877-3.436 2.146-7.525.735-11.177l-4.466-11.558c-2.497-6.462-2.664-13.591-.473-20.163l4.421-13.262c.971-2.914.905-6.074-.188-8.945l-6.39-16.783c-2.404-6.314-2.591-13.258-.531-19.692l6.365-19.876c.66-2.06.807-4.251.43-6.381l-1.185-6.688c-2.276-12.85 4.073-25.686 15.668-31.674 12.813-6.617 28.037-6.617 40.85 0 11.595 5.988 17.945 18.824 15.668 31.674l-1.185 6.688c-.377 2.13-.23 4.32.43 6.381l6.365 19.876c2.061 6.434 1.873 13.378-.531 19.692l-6.39 16.783c-1.093 2.871-1.16 6.031-.188 8.945l4.421 13.262c2.191 6.572 2.023 13.701-.473 20.163l-4.466 11.558c-1.411 3.652-1.142 7.741.735 11.177l2.225 4.073c4.889 8.95 4.862 19.778-.073 28.703-2.044 3.697-2.211 8.145-.451 11.985l4.42 9.643c3.895 8.499 2.274 18.509-4.105 25.344-4.361 4.673-10.467 7.326-16.859 7.326h-39.935c-6.393.001-12.499-2.653-16.86-7.326z"/></g><path d="m171.982 355.94 4.903-10.39c1.953-4.138 1.767-8.93-.501-12.914-5.474-9.617-5.505-21.285-.081-30.928l2.469-4.389c2.083-3.703 2.381-8.108.815-12.043l-4.954-12.454c-2.77-6.962-2.955-14.645-.525-21.726l4.904-14.29c1.078-3.14 1.004-6.545-.209-9.638l-7.09-18.083c-2.667-6.804-2.875-14.286-.589-21.219l7.062-21.417c.732-2.22.896-4.58.477-6.875l-1.314-7.206c-2.026-11.105 2.126-22.201 10.477-29.488-7.128-.057-14.277 1.598-20.792 4.963-11.595 5.988-17.945 18.824-15.668 31.674l1.185 6.688c.377 2.13.23 4.32-.43 6.381l-6.365 19.875c-2.061 6.435-1.873 13.378.531 19.692l6.39 16.783c1.093 2.871 1.16 6.031.188 8.945l-4.421 13.261c-2.191 6.572-2.023 13.701.473 20.163l4.466 11.558c1.411 3.652 1.142 7.741-.735 11.177l-2.225 4.073c-4.889 8.95-4.862 19.778.073 28.704 2.044 3.697 2.211 8.145.451 11.985l-4.42 9.643c-3.895 8.499-2.274 18.509 4.105 25.344 4.361 4.673 10.467 7.326 16.859 7.326h7.234c-5.531-7.219-6.665-16.863-2.743-25.175z" fill="#fbe372"/><path d="m218.685 373.788c-6.379-6.835-8-16.845-4.105-25.344l4.42-9.643c1.76-3.84 1.593-8.288-.451-11.985-4.934-8.925-4.962-19.754-.073-28.703l2.225-4.073c1.877-3.436 2.146-7.525.735-11.177l-4.466-11.558c-2.497-6.462-2.664-13.591-.473-20.163l4.421-13.262c.971-2.914.905-6.074-.188-8.945l-6.39-16.783c-2.404-6.314-2.591-13.258-.531-19.692l6.365-19.876c.66-2.06.807-4.251.43-6.381l-1.185-6.688c-2.276-12.85 4.073-25.686 15.668-31.674 12.813-6.617 28.037-6.617 40.85 0 11.595 5.988 17.945 18.824 15.668 31.674l-1.185 6.688c-.377 2.13-.23 4.32.43 6.381l6.365 19.876c2.061 6.434 1.873 13.378-.531 19.692l-6.39 16.783c-1.093 2.871-1.16 6.031-.188 8.945l4.421 13.262c2.191 6.572 2.023 13.701-.473 20.163l-4.466 11.558c-1.411 3.652-1.142 7.741.735 11.177l2.225 4.073c4.889 8.95 4.862 19.778-.073 28.703-2.044 3.697-2.211 8.145-.451 11.985l4.42 9.643c3.895 8.499 2.274 18.509-4.105 25.344-4.361 4.673-10.467 7.326-16.859 7.326h-39.935c-6.393.001-12.498-2.653-16.86-7.326z" fill="#fbe88c"/><path d="m237.134 354.151 4.42-10.292c1.76-4.099 1.593-8.846-.451-12.792-4.934-9.525-4.962-21.083-.073-30.635l2.225-4.347c1.877-3.667 2.146-8.031.735-11.93l-4.466-12.336c-2.497-6.896-2.664-14.506-.473-21.52l4.421-14.154c.971-3.11.905-6.483-.188-9.547l-6.39-17.912c-2.404-6.739-2.591-14.15-.531-21.018l6.365-21.213c.66-2.199.807-4.537.43-6.811l-1.185-7.138c-1.846-11.119 1.996-22.247 9.689-29.46-5.702.497-11.347 2.097-16.574 4.796-11.595 5.988-17.945 18.824-15.668 31.674l1.185 6.688c.377 2.13.23 4.32-.43 6.381l-6.365 19.875c-2.061 6.435-1.873 13.378.531 19.692l6.39 16.783c1.093 2.871 1.16 6.031.188 8.945l-4.421 13.261c-2.191 6.572-2.023 13.701.473 20.163l4.466 11.558c1.411 3.652 1.142 7.741-.735 11.177l-2.225 4.073c-4.889 8.95-4.862 19.778.073 28.704 2.044 3.697 2.211 8.145.451 11.985l-4.42 9.643c-3.895 8.499-2.274 18.509 4.105 25.344 4.361 4.673 10.467 7.326 16.859 7.326h5.625c-6.319-7.292-7.917-17.926-4.036-26.963z" fill="#fbe372"/><path d="m286.997 372.019c-6.334-6.787-7.944-16.726-4.076-25.165l4.388-9.575c1.748-3.813 1.581-8.229-.448-11.9-4.9-8.862-4.927-19.614-.072-28.501l2.209-4.045c1.864-3.412 2.131-7.472.73-11.098l-4.434-11.476c-2.479-6.416-2.645-13.495-.47-20.02l4.389-13.168c.964-2.893.898-6.031-.187-8.882l-6.345-16.664c-2.387-6.27-2.573-13.164-.527-19.553l6.32-19.736c.655-2.046.802-4.221.427-6.336l-1.176-6.641c-2.26-12.759 4.045-25.505 15.558-31.451 12.722-6.57 27.84-6.57 40.562 0 11.513 5.946 17.818 18.691 15.558 31.451l-1.176 6.641c-.375 2.115-.228 4.29.427 6.336l6.32 19.736c2.046 6.389 1.86 13.284-.527 19.553l-6.345 16.664c-1.085 2.85-1.151 5.988-.187 8.882l4.389 13.168c2.175 6.525 2.009 13.604-.47 20.02l-4.434 11.476c-1.401 3.627-1.134 7.686.73 11.098l2.209 4.045c4.855 8.887 4.827 19.639-.072 28.501-2.03 3.671-2.196 8.087-.448 11.9l4.388 9.575c3.868 8.439 2.258 18.378-4.076 25.165-4.331 4.64-10.393 7.274-16.74 7.274h-39.653c-6.348 0-12.41-2.634-16.741-7.274z" fill="#fbe88c"/><path d="m308.071 356.75 4.388-10.37c1.748-4.13 1.581-8.913-.448-12.889-4.9-9.598-4.927-21.243-.072-30.868l2.209-4.38c1.864-3.695 2.131-8.092.73-12.02l-4.434-12.43c-2.479-6.949-2.645-14.616-.47-21.683l4.389-14.261c.964-3.134.898-6.533-.187-9.62l-6.345-18.048c-2.387-6.79-2.573-14.258-.527-21.177l6.32-21.375c.655-2.216.802-4.571.427-6.862l-1.176-7.193c-1.923-11.755 2.357-23.485 10.763-30.694-6.989-.014-13.968 1.629-20.355 4.928-11.513 5.946-17.818 18.691-15.558 31.451l1.176 6.641c.375 2.115.228 4.29-.427 6.336l-6.32 19.735c-2.046 6.389-1.86 13.284.527 19.553l6.345 16.665c1.085 2.851 1.151 5.988.187 8.882l-4.389 13.168c-2.175 6.525-2.009 13.604.47 20.021l4.434 11.476c1.401 3.627 1.134 7.687-.73 11.099l-2.209 4.044c-4.855 8.887-4.827 19.639.072 28.501 2.029 3.671 2.196 8.087.448 11.9l-4.388 9.575c-3.868 8.439-2.258 18.378 4.076 25.165 4.331 4.64 10.393 7.274 16.74 7.274h5.227c-3.565-6.825-3.998-15.207-.893-22.544z" fill="#fbe372"/></g></g></g><g><path d="m244.678 181.145c1.919 0 3.839-.732 5.303-2.196l4.651-4.651c2.929-2.93 2.929-7.678 0-10.607-2.929-2.928-7.678-2.928-10.606 0l-4.651 4.651c-2.929 2.93-2.929 7.678 0 10.607 1.464 1.463 3.384 2.196 5.303 2.196z"/><path d="m263.726 203.315c1.146 2.98 3.988 4.81 7.001 4.81.895 0 1.806-.161 2.691-.502 3.866-1.487 5.794-5.826 4.308-9.692l-2.326-6.047c-1.487-3.866-5.827-5.794-9.692-4.308-3.866 1.487-5.794 5.826-4.308 9.692z"/><path d="m244.681 216.067c.943 0 1.901-.179 2.828-.557l4.651-1.896c3.835-1.563 5.678-5.939 4.115-9.775-1.563-3.837-5.94-5.678-9.776-4.115l-4.651 1.896c-3.835 1.563-5.678 5.939-4.115 9.775 1.185 2.91 3.989 4.672 6.948 4.672z"/><path d="m248.012 234.578v5.117c0 4.143 3.358 7.5 7.5 7.5s7.5-3.357 7.5-7.5v-5.117c0-4.143-3.358-7.5-7.5-7.5s-7.5 3.358-7.5 7.5z"/><path d="m275.673 263.565c-1.011-4.017-5.09-6.454-9.104-5.442-4.017 1.012-6.454 5.087-5.442 9.104l1.163 4.621c.856 3.402 3.912 5.671 7.268 5.671.606 0 1.222-.074 1.836-.229 4.017-1.012 6.454-5.087 5.442-9.104z"/><path d="m242.614 296.297c1.042.496 2.14.731 3.222.731 2.802 0 5.49-1.577 6.775-4.274l2.326-4.879c1.783-3.739.196-8.216-3.543-9.998-3.74-1.782-8.215-.196-9.997 3.543l-2.326 4.879c-1.783 3.739-.196 8.216 3.543 9.998z"/><path d="m264.679 302.19c-4.142 0-7.5 3.357-7.5 7.5v6.288c0 4.143 3.358 7.5 7.5 7.5s7.5-3.357 7.5-7.5v-6.288c0-4.142-3.358-7.5-7.5-7.5z"/><path d="m256.234 339.467-6.977-5.379c-3.28-2.529-7.99-1.919-10.519 1.36-2.529 3.28-1.92 7.99 1.361 10.519l6.977 5.379c1.364 1.052 2.975 1.561 4.574 1.561 2.246 0 4.468-1.005 5.945-2.921 2.529-3.281 1.92-7.991-1.361-10.519z"/><path d="m336.331 237.735v-5.116c0-4.143-3.358-7.5-7.5-7.5s-7.5 3.357-7.5 7.5v5.116c0 4.143 3.358 7.5 7.5 7.5s7.5-3.357 7.5-7.5z"/><path d="m335.864 258.123c-4.017 1.012-6.454 5.087-5.442 9.104l1.163 4.621c.856 3.402 3.912 5.671 7.268 5.671.606 0 1.222-.074 1.836-.229 4.017-1.012 6.454-5.087 5.442-9.104l-1.163-4.621c-1.011-4.016-5.088-6.454-9.104-5.442z"/><path d="m311.908 296.297c1.042.496 2.14.731 3.222.731 2.802 0 5.49-1.577 6.775-4.274l2.326-4.879c1.783-3.739.196-8.216-3.543-9.998-3.74-1.782-8.215-.196-9.997 3.543l-2.326 4.879c-1.782 3.739-.196 8.216 3.543 9.998z"/><path d="m333.974 302.19c-4.142 0-7.5 3.357-7.5 7.5v6.288c0 4.143 3.358 7.5 7.5 7.5s7.5-3.357 7.5-7.5v-6.288c0-4.142-3.358-7.5-7.5-7.5z"/><path d="m335.121 342.156-6.978-5.379c-3.281-2.528-7.989-1.919-10.519 1.36-2.529 3.28-1.919 7.99 1.361 10.519l6.978 5.379c1.364 1.052 2.975 1.561 4.574 1.561 2.246 0 4.468-1.005 5.945-2.921 2.528-3.28 1.919-7.99-1.361-10.519z"/><path d="m332.098 167.371c1.201 0 2.419-.288 3.55-.897l3.854-2.075c3.647-1.964 5.011-6.513 3.047-10.159-1.964-3.648-6.515-5.014-10.16-3.048l-3.854 2.075c-3.647 1.964-5.011 6.513-3.047 10.159 1.355 2.516 3.94 3.945 6.61 3.945z"/><path d="m325.083 199.646c1.479 1.612 3.5 2.43 5.528 2.43 1.812 0 3.628-.652 5.068-1.974 3.052-2.801 3.256-7.545.456-10.597l-3.557-3.877c-2.801-3.054-7.545-3.258-10.597-.456-3.052 2.801-3.256 7.545-.456 10.597z"/><path d="m182.192 225.119c-4.142 0-7.5 3.357-7.5 7.5v5.116c0 4.143 3.358 7.5 7.5 7.5s7.5-3.357 7.5-7.5v-5.116c0-4.142-3.358-7.5-7.5-7.5z"/><path d="m172.171 277.52c3.356 0 6.412-2.27 7.268-5.671l1.163-4.621c1.011-4.018-1.425-8.093-5.442-9.104-4.019-1.011-8.093 1.427-9.104 5.442l-1.163 4.621c-1.011 4.018 1.425 8.093 5.442 9.104.615.154 1.23.229 1.836.229z"/><path d="m200.333 281.42c-1.782-3.738-6.258-5.324-9.997-3.543-3.739 1.782-5.326 6.259-3.543 9.998l2.326 4.879c1.286 2.697 3.973 4.274 6.775 4.274 1.082 0 2.181-.235 3.222-.731 3.739-1.782 5.326-6.259 3.543-9.998z"/><path d="m184.55 315.979v-6.288c0-4.143-3.358-7.5-7.5-7.5s-7.5 3.357-7.5 7.5v6.288c0 4.143 3.358 7.5 7.5 7.5s7.5-3.358 7.5-7.5z"/><path d="m182.88 336.777-6.978 5.379c-3.28 2.528-3.89 7.238-1.361 10.519 1.478 1.916 3.699 2.921 5.945 2.921 1.599 0 3.209-.509 4.574-1.561l6.978-5.379c3.28-2.528 3.89-7.238 1.361-10.519-2.529-3.279-7.237-3.889-10.519-1.36z"/><path d="m171.522 164.398 3.854 2.075c1.131.609 2.349.897 3.55.897 2.67 0 5.255-1.429 6.61-3.945 1.964-3.646.6-8.195-3.047-10.159l-3.854-2.075c-3.647-1.964-8.196-.601-10.16 3.048-1.964 3.647-.6 8.196 3.047 10.159z"/><path d="m178.444 185.629-3.557 3.877c-2.8 3.052-2.596 7.796.456 10.597 1.44 1.321 3.257 1.974 5.068 1.974 2.028 0 4.049-.817 5.528-2.43l3.557-3.877c2.8-3.052 2.596-7.796-.456-10.597-3.051-2.802-7.796-2.598-10.596.456z"/><path d="m379.265 76.977c-36.453-25.312-79.246-38.692-123.753-38.692-58.024 0-112.574 22.596-153.603 63.624-41.029 41.029-63.625 95.58-63.625 153.604s22.596 112.574 63.625 153.603 95.58 63.625 153.603 63.625 112.574-22.596 153.603-63.625c41.029-41.028 63.625-95.579 63.625-153.603 0-30.268-6.108-59.561-18.155-87.065-11.635-26.564-28.229-50.216-49.324-70.296-2.999-2.854-7.747-2.739-10.603.262-2.856 3-2.739 7.747.261 10.604 19.644 18.699 35.095 40.719 45.926 65.448 11.21 25.596 16.895 52.864 16.895 81.048 0 111.509-90.719 202.228-202.228 202.228s-202.228-90.721-202.228-202.23 90.719-202.228 202.228-202.228c41.434 0 81.269 12.453 115.197 36.013 3.402 2.363 8.076 1.521 10.438-1.883 2.363-3.401 1.52-8.075-1.882-10.437z"/><path d="m436.186 74.838c-48.26-48.26-112.425-74.838-180.674-74.838s-132.414 26.578-180.674 74.838-74.838 112.425-74.838 180.674c0 18.51 2.008 37.036 5.97 55.064.889 4.046 4.891 6.604 8.935 5.716 4.046-.889 6.605-4.889 5.716-8.935-3.729-16.973-5.621-34.417-5.621-51.845 0-64.243 25.018-124.641 70.444-170.067 45.427-45.427 105.825-70.445 170.068-70.445s124.641 25.018 170.067 70.444c45.427 45.427 70.444 105.824 70.444 170.067s-25.018 124.641-70.444 170.067c-45.426 45.427-105.824 70.444-170.067 70.444-50.314 0-98.496-15.371-139.336-44.451-39.967-28.457-69.94-67.751-86.677-113.633-1.42-3.891-5.726-5.896-9.616-4.476-3.891 1.42-5.895 5.725-4.476 9.616 17.782 48.745 49.619 90.486 92.068 120.712 43.396 30.899 94.586 47.231 148.037 47.231 68.25 0 132.414-26.578 180.674-74.838s74.837-112.425 74.837-180.674-26.578-132.411-74.837-180.671z"/><path d="m68.284 255.512c0 103.237 83.99 187.228 187.228 187.228s187.228-83.99 187.228-187.228-83.99-187.228-187.228-187.228-187.228 83.99-187.228 187.228zm210.666-170.626 34.902 34.902c-2.072.455-4.125 1.025-6.141 1.744-3.901 1.392-5.937 5.682-4.545 9.583 1.391 3.902 5.684 5.936 9.583 4.546 9.341-3.33 19.743-2.636 28.537 1.906 8.438 4.358 12.995 13.569 11.338 22.922l-1.155 6.522c-.579 3.266-.35 6.661.662 9.819l6.208 19.386c1.485 4.639 1.349 9.699-.385 14.251l-6.233 16.369c-1.677 4.405-1.78 9.293-.29 13.766l4.312 12.935c1.582 4.744 1.46 9.926-.342 14.59l-4.355 11.273c-2.176 5.633-1.764 11.902 1.13 17.199l2.17 3.975c3.558 6.513 3.538 14.277-.052 20.771-3.132 5.663-3.392 12.559-.694 18.443l4.311 9.405c2.542 5.548 1.495 12.015-2.669 16.477-2.825 3.026-6.82 4.763-10.961 4.763h-25.607c-4.142 0-7.5 3.357-7.5 7.5 0 4.074 3.249 7.38 7.296 7.49l20.627 20.626c-6.754 3.765-13.782 7.094-21.053 9.937l-32.488-32.488c4.281-1.614 8.187-4.197 11.357-7.594 8.33-8.925 10.426-21.863 5.339-32.961l-4.311-9.405c-.722-1.575-.652-3.42.186-4.936 6.088-11.011 6.122-24.178.089-35.221l-2.17-3.973c-.774-1.418-.885-3.096-.302-4.604l4.355-11.273c3.056-7.909 3.262-16.695.581-24.74l-4.312-12.934c-.399-1.197-.371-2.506.078-3.685l6.232-16.369c2.939-7.717 3.171-16.299.652-24.163l-6.208-19.386c-.271-.846-.332-1.754-.177-2.628l1.155-6.523c2.809-15.857-4.917-31.476-19.226-38.866-13.969-7.214-30.521-7.521-44.723-.959l-31.641-31.64c8.069-2.616 16.396-4.65 24.934-6.056l19.369 19.37c1.464 1.464 3.384 2.196 5.303 2.196s3.839-.732 5.303-2.196c2.929-2.93 2.929-7.678 0-10.607l-10.832-10.832c2.956-.152 5.93-.229 8.923-.229 7.951 0 15.773.554 23.44 1.602zm148.789 170.626c0 2.993-.078 5.968-.229 8.924l-9.585-9.586c-2.928-2.93-7.677-2.929-10.606-.001-2.929 2.929-2.929 7.678 0 10.606l18.122 18.123c-1.405 8.538-3.44 16.865-6.056 24.934l-47.548-47.548c.069-4.108-.548-8.229-1.862-12.172l-4.312-12.934c-.399-1.197-.372-2.506.078-3.685l2.288-6.008 16.689 16.69c1.464 1.465 3.384 2.197 5.303 2.197s3.839-.732 5.303-2.196c2.929-2.929 2.929-7.678 0-10.606l-21.783-21.784c1.328-6.216 1.035-12.735-.916-18.825l-6.163-19.244 59.676 59.676c1.048 7.667 1.601 15.489 1.601 23.439zm-24.728 88.83-31.076-31.077c.442-6.792-1.032-13.673-4.424-19.883l-2.171-3.976c-.774-1.417-.885-3.095-.302-4.602l2.627-6.799 45.897 45.897c-3.071 7.071-6.596 13.899-10.551 20.44zm-50.794 53.612-12.522-12.521h4.586c7.086 0 13.953-2.548 19.33-7.073l6.023 6.023c-5.505 4.88-11.319 9.418-17.417 13.571zm-126.194-76.609c-3.59-6.494-3.61-14.259-.052-20.771l2.169-3.973c2.896-5.299 3.308-11.568 1.131-17.201l-4.355-11.273c-1.803-4.664-1.924-9.846-.343-14.59l4.312-12.936c1.49-4.472 1.387-9.359-.29-13.765l-6.233-16.369c-1.733-4.552-1.87-9.612-.384-14.251l6.208-19.386c1.012-3.158 1.24-6.554.662-9.819l-1.156-6.523c-1.656-9.352 2.9-18.562 11.339-22.921 10.32-5.329 22.641-5.331 32.961 0 8.438 4.358 12.995 13.569 11.339 22.921l-1.156 6.523c-.579 3.266-.35 6.661.662 9.819l6.208 19.386c1.485 4.639 1.349 9.699-.385 14.251l-6.233 16.369c-1.677 4.405-1.78 9.293-.29 13.766l4.312 12.934c1.582 4.745 1.46 9.927-.343 14.591l-4.355 11.273c-2.176 5.633-1.764 11.902 1.131 17.201l2.17 3.973c3.558 6.513 3.538 14.277-.052 20.771-3.132 5.663-3.392 12.559-.694 18.443l4.311 9.405c2.542 5.548 1.495 12.015-2.669 16.477-2.825 3.026-6.82 4.763-10.961 4.763h-38.95c-4.141 0-8.136-1.736-10.961-4.763-4.164-4.462-5.211-10.929-2.669-16.477l4.311-9.405c2.697-5.885 2.437-12.78-.695-18.443zm-63.922-196.699c-6.754 3.687-11.979 9.23-15.231 15.758l-9.806-9.806c5.32-5.047 10.966-9.753 16.894-14.096zm-18.314 208.892-3.959 8.638-53.286-53.286c-2.13-10.802-3.258-21.96-3.258-33.378 0-.287.009-.572.011-.858l55.734 55.735c-.091 6.253 1.425 12.522 4.572 18.214.838 1.515.908 3.36.186 4.935zm-17.146-192.148 16.443 16.443c.057 1.747.232 3.507.545 5.271l1.156 6.524c.155.874.093 1.782-.177 2.628l-4.388 13.701-27.15-27.15c4.152-6.098 8.691-11.912 13.571-17.417zm10.036 62.239c.095 4.143.886 8.271 2.373 12.176l6.233 16.369c.449 1.179.477 2.487.078 3.684l-1.861 5.583-48.462-48.461c2.843-7.271 6.172-14.299 9.937-21.054zm2.558 54.761c-.274 5.128.523 10.299 2.394 15.142l4.355 11.273c.583 1.507.472 3.185-.303 4.604l-2.169 3.973c-.033.06-.06.123-.093.183l-58.874-58.874c1.069-8.831 2.803-17.458 5.161-25.828zm-43.839 60.567 41.828 41.828c1.003 5.537 3.56 10.799 7.592 15.119 4.423 4.739 10.28 7.886 16.587 9.035.083.091.16.186.248.273l30.416 30.415c-44.017-17.502-79.168-52.653-96.671-96.67zm126.738 105.524-39.05-39.049h9.264c4.142 0 7.5-3.357 7.5-7.5s-3.358-7.5-7.5-7.5h-25.607c-4.141 0-8.136-1.736-10.961-4.763-4.164-4.462-5.211-10.929-2.669-16.477l4.311-9.405c2.697-5.885 2.438-12.78-.694-18.443-3.59-6.494-3.61-14.259-.052-20.772l2.169-3.972c2.896-5.299 3.308-11.568 1.131-17.201l-4.355-11.273c-1.803-4.664-1.924-9.846-.342-14.59l4.312-12.936c1.49-4.472 1.387-9.359-.29-13.765l-6.233-16.369c-1.733-4.552-1.87-9.612-.384-14.251l6.208-19.386c1.012-3.158 1.24-6.554.662-9.818l-1.156-6.524c-1.657-9.352 2.9-18.562 11.338-22.921 8.794-4.542 19.197-5.236 28.537-1.906 3.901 1.391 8.192-.644 9.583-4.546 1.391-3.901-.644-8.191-4.545-9.583-8.182-2.918-16.938-3.648-25.378-2.266l-11.253-11.253c6.542-3.955 13.369-7.48 20.439-10.551l34.694 34.694c-7.458 8.192-10.918 19.507-8.891 30.949l1.155 6.523c.155.874.094 1.782-.177 2.628l-6.208 19.386c-2.519 7.864-2.287 16.446.651 24.163l6.233 16.369c.449 1.179.477 2.487.078 3.684l-4.312 12.936c-2.681 8.044-2.475 16.83.581 24.739l4.355 11.273c.583 1.508.472 3.186-.303 4.604l-2.17 3.973c-6.032 11.043-5.999 24.21.089 35.221.838 1.516.907 3.36.186 4.936l-4.311 9.405c-5.087 11.098-2.991 24.036 5.339 32.961 5.652 6.056 13.644 9.528 21.927 9.528h30.241l35.883 35.883c-8.37 2.358-16.997 4.092-25.827 5.161l-25.189-25.188c-2.929-2.928-7.678-2.929-10.606.001-2.929 2.929-2.929 7.677 0 10.606l15.833 15.832c-.287.001-.571.011-.858.011-11.418 0-22.576-1.128-33.378-3.258zm158.291-50.522-8.041-8.041c2.738-7.316 2.564-15.555-.837-22.976l-4.311-9.405c-.576-1.256-.639-2.682-.22-3.978l27.505 27.505c-4.343 5.93-9.049 11.575-14.096 16.895zm39.708-169.104-52.412-52.413c-1.367-11.857-8.489-22.49-19.551-28.204-4.218-2.178-8.699-3.717-13.291-4.638l-28.71-28.71c54.298 16.743 97.221 59.666 113.964 113.965z"/></g></g></svg>