<svg id="Layer_1" height="512" viewBox="0 0 512 512" width="512" xmlns="http://www.w3.org/2000/svg" data-name="Layer 1"><path d="m85.618 249.794-.24.24-34.593 28.438-.5.32-38.178-60.528 9.62-8.208a18.863 18.863 0 0 1 25.644 1.081z" fill="#deedfd"/><path d="m85.618 249.794 33 33.372q-.75 9.324-.75 18.708v56.226h-.181a50.3 50.3 0 0 1 -31.45-22.312l-35.953-56.996.5-.32 34.593-28.438z" fill="#97c9fa"/><path d="m60.794 268.462-.5.32-37.541-59.52c-.346.257-.694.51-1.026.794l-9.62 8.208 38.177 60.528.5-.32z" fill="#97c9fa"/><path d="m96.249 325.777-35.177-55.762-10.287 8.457-.5.32 35.955 57a50.3 50.3 0 0 0 31.45 22.312h.181v-13.368a50.207 50.207 0 0 1 -21.622-18.959z" fill="#64a9e2"/><path d="m431.262 412.191h-314.814a28.28 28.28 0 0 0 -28.277 28.277v4.074h371.368v-4.074a28.28 28.28 0 0 0 -28.277-28.277z" fill="#deedfd"/><path d="m116.448 412.191a28.28 28.28 0 0 0 -28.277 28.277v4.074h30.029v-4.074a28.28 28.28 0 0 1 28.277-28.277z" fill="#97c9fa"/><path d="m390.9 202.628h-234.1c.36-54.582 52.631-98.735 117.043-98.735s116.7 44.153 117.057 98.735z" fill="#deedfd"/><path d="m424.586 251.646q-1.291-5.766-2.893-11.471-3-10.826-7.067-21.361-3.153-8.2-6.936-16.186h-267.669a234.8 234.8 0 0 0 -21.871 81.839q-.752 9.324-.751 18.709v109.015h312.912v-109.015a234.833 234.833 0 0 0 -5.725-51.53z" fill="#97c9fa"/><path d="m293.871 105.345a138.394 138.394 0 0 0 -20.021-1.452c-64.412 0-116.683 44.153-117.043 98.735h40.039c.322-48.798 42.138-89.256 97.025-97.283z" fill="#97c9fa"/><path d="m140.021 202.628a234.8 234.8 0 0 0 -21.871 81.839q-.752 9.324-.75 18.709v109.015h40.038v-109.015q0-9.384.751-18.709a234.8 234.8 0 0 1 21.871-81.839z" fill="#64a9e2"/><path d="m498.717 278.652a76.063 76.063 0 0 1 -38.217 82.53l-30.189 16.355v-25.024h.18l19.569-10.6a54.168 54.168 0 0 0 -28.367-101.738q-3-10.826-7.067-21.361a76.079 76.079 0 0 1 84.091 59.838z" fill="#97c9fa"/><path d="m273.85 67.458a18.093 18.093 0 1 1 -18.087 18.1 18.1 18.1 0 0 1 18.087-18.1z" fill="#a7a9ac"/><g fill="#284268"><path d="m163.246 219.772a6.007 6.007 0 0 0 -7.656 3.674 239.942 239.942 0 0 0 -13.59 79.683v37.219a6 6 0 0 0 12 0v-37.219a228.012 228.012 0 0 1 12.914-75.708 6 6 0 0 0 -3.668-7.649z"/><path d="m148 356.706a6 6 0 0 0 -6 6v11.687a6 6 0 1 0 12 0v-11.687a6 6 0 0 0 -6-6z"/><path d="m471.328 227.2a81.7 81.7 0 0 0 -53.078-14.749q-2.482-6.1-5.3-12.059a5.978 5.978 0 0 0 -5.412-3.4h-10.963c-3.287-49.322-46.8-89.912-102.957-97.719a23.737 23.737 0 0 0 4.289-13.628 24.072 24.072 0 0 0 -48.144.048 23.561 23.561 0 0 0 4.289 13.572c-56.158 7.815-99.67 48.413-102.952 97.735h-10.969a5.72 5.72 0 0 0 -5.176 3.246 239.3 239.3 0 0 0 -20.888 71.4l-62.706-63.387a24.931 24.931 0 0 0 -33.774-1.424l-9.611 8.2a6 6 0 0 0 -1.176 7.765l74.054 117.407a56.1 56.1 0 0 0 31.146 23.849v42.3c-16.728 2.245-30 16.6-30 33.934v4.065c0 3.313 3.015 5.645 6.328 5.645h371.014a5.423 5.423 0 0 0 5.658-5.645v-4.065a34 34 0 0 0 -29-33.89v-25.328l27.161-14.715a82.011 82.011 0 0 0 8.167-139.157zm-197.493-153.555a12.072 12.072 0 1 1 -12.072 12.072 12.086 12.086 0 0 1 12.072-12.072zm-149.835 229.484c0-32.376 6.587-65.129 19.962-94.129h36.038a6 6 0 0 0 0-12h-16.873c3.72-48.268 51.948-87.216 110.708-87.216s106.988 38.948 110.708 87.216h-164.543a6 6 0 0 0 0 12h183.708a226.77 226.77 0 0 1 20.292 94.129v102.871h-300zm-104.283-82.336 5.66-4.83a12.883 12.883 0 0 1 17.453.736l33.606 33.971-24.94 20.5zm71.283 113.012-33.052-52.405 26.963-22.165 27.637 27.937c-.35 5.312-.548 10.634-.548 15.955v48.219a44.2 44.2 0 0 1 -21-17.541zm362.258 104.195h-358.846a22.3 22.3 0 0 1 22.165-20h314.516a22.3 22.3 0 0 1 22.165 20zm-24.084-191.589a48.109 48.109 0 0 1 17.841 90.145l-11.015 5.967v-39.394a241.068 241.068 0 0 0 -6.826-56.718zm58.452 77.255a69.509 69.509 0 0 1 -30.181 32.14l-21.445 11.618v-11.253l16.731-9.065a60.114 60.114 0 0 0 -26.871-112.945c-.992-3.323-2.044-6.628-3.179-9.905a70.007 70.007 0 0 1 64.945 99.41z"/></g></svg>