<svg id="Capa_1" enable-background="new 0 0 512.81 512.81" height="512" viewBox="0 0 512.81 512.81" width="512" xmlns="http://www.w3.org/2000/svg"><g><g><circle cx="256.384" cy="256.326" fill="#f8f7f8" r="248.18"/><path d="m108.004 268.615c0-130.318 100.446-237.167 228.139-247.372-25.032-8.49-51.857-13.096-79.758-13.096-137.066 0-248.18 111.114-248.18 248.18s111.114 248.18 248.18 248.18c6.747 0 13.416-.273 20.027-.801-97.939-33.219-168.408-125.927-168.408-235.091z" fill="#efedee"/><circle cx="257.211" cy="259.011" fill="#be8f7d" r="199.004"/><path d="m214.998 64.508c-89.628 19.362-156.791 99.082-156.791 194.503 0 81.914 49.493 152.27 120.206 182.794-43.568-44.719-70.409-105.823-70.409-173.19 0-84.608 42.348-159.309 106.994-204.107z" fill="#b37e67"/><g><path d="m387.362 337.613c0 37.018-30.009 67.028-67.028 67.028s-67.028-30.009-67.028-67.028c0-18.109 16.041-51.907 32.428-81.711 14.999-27.279 54.2-27.279 69.2 0 16.387 29.804 32.428 63.602 32.428 81.711z" fill="#d3b5a8"/><path d="m281.767 361.836c-2.816-6.079.053-13.165 6.223-15.775 18.24-7.714 33.205-21.772 42.157-39.418 1.349-2.658 3.856-4.574 6.779-5.159 12.46-2.494 23.91-7.816 33.648-15.272-4.793-10.063-10.196-20.406-15.641-30.309-6.13-11.148-16.303-17.735-27.213-19.771v.149c-1.007-.204-2.018-.381-3.036-.507.042-.021.081-.046.123-.067-14.962-1.669-30.746 5.053-39.073 20.196-16.387 29.803-32.428 63.601-32.428 81.71 0 37.019 30.009 67.028 67.028 67.028 7.95 0 15.564-1.379 22.64-3.92-.001-.007.001.003-.001-.004-27.123.147-50.523-15.82-61.206-38.881zm26.234-109.857c3.241-5.895 7.626-10.487 12.641-13.831l-14.885 21.177-24.415 48.892c6.122-17.041 16.319-37.432 26.659-56.238z" fill="#c9a291"/><circle cx="320.813" cy="337.361" fill="#be8f7d" r="38.516"/><path d="m320.813 298.845c-21.272 0-38.516 17.244-38.516 38.516 0 3.973.603 7.806 1.72 11.412 1.093-1.127 2.43-2.06 3.973-2.712 18.24-7.714 33.205-21.772 42.157-39.418 1.154-2.274 3.159-3.997 5.543-4.816-4.577-1.919-9.603-2.982-14.877-2.982z" fill="#b37e67"/><path d="m257.211 220.747c0 37.018-30.009 67.028-67.028 67.028s-67.028-30.009-67.028-67.028c0-18.109 16.041-51.907 32.428-81.711 14.999-27.279 54.2-27.279 69.2 0 16.387 29.803 32.428 63.601 32.428 81.711z" fill="#d3b5a8"/><path d="m148.721 220.747c0-18.109 16.041-51.907 32.428-81.71 5.105-9.283 13.011-15.41 21.814-18.374-17.063-5.747-37.484.379-47.379 18.374-16.387 29.803-32.428 63.601-32.428 81.71 0 37.019 30.009 67.028 67.028 67.028 4.373 0 8.643-.432 12.783-1.232-30.903-5.97-54.246-33.15-54.246-65.796z" fill="#c9a291"/><circle cx="190.663" cy="220.495" fill="#be8f7d" r="38.516"/><path d="m256.252 339.98c0 37.018-30.009 67.028-67.028 67.028s-67.028-30.009-67.028-67.028c0-18.109 16.041-51.907 32.428-81.711 14.999-27.279 54.2-27.279 69.2 0 16.387 29.804 32.428 63.602 32.428 81.711z" fill="#d3b5a8"/><path d="m146.681 339.98c0-18.109 16.041-51.908 32.428-81.71 5.209-9.473 13.338-15.649 22.357-18.542-16.952-5.439-37.052.737-46.842 18.542-16.387 29.803-32.428 63.601-32.428 81.71 0 37.019 30.009 67.028 67.028 67.028 4.184 0 8.261-.38 12.232-1.114-31.168-5.756-54.775-33.079-54.775-65.914z" fill="#c9a291"/><circle cx="189.704" cy="339.728" fill="#be8f7d" r="38.516"/><path d="m387.841 221.062c0 37.018-30.009 67.028-67.028 67.028s-67.028-30.009-67.028-67.028c0-18.109 16.041-51.907 32.428-81.711 14.999-27.279 54.2-27.279 69.2 0 16.387 29.804 32.428 63.602 32.428 81.711z" fill="#d3b5a8"/><path d="m308.03 177.232c-.016-.029-.032-.059-.049-.088-3.111-5.635-3.389-12.408-.485-18.152 3.391-6.706 6.963-13.427 10.554-19.957 4.418-8.035 10.933-13.704 18.313-17.006-17.567-7.44-39.712-1.662-50.15 17.322-16.387 29.803-32.428 63.602-32.428 81.711 0 37.018 30.009 67.028 67.028 67.028 5.732 0 11.296-.717 16.606-2.07.169-2.2 1.896-51.893-29.389-108.788zm-22.046 38.437 19.774 52.946c-12.422-12.161-20.135-29.109-20.135-47.869-.001-1.576.128-3.277.361-5.077z" fill="#c9a291"/><circle cx="321.292" cy="220.81" fill="#be8f7d" r="38.516"/><path d="m335.265 256.701c-2.874-18.776-9.372-44.847-23.867-73.118-16.476 4.368-28.622 19.376-28.622 37.227 0 7.762 2.304 14.982 6.254 21.03-2.201-6.633-3.408-13.72-3.408-21.094 0-1.576.129-3.277.361-5.077l13.871 37.142c6.128 4.113 13.502 6.516 21.438 6.516 4.931-.001 9.64-.937 13.973-2.626z" fill="#b37e67"/><path d="m322.933 268.578c0 37.018-30.009 67.028-67.028 67.028s-67.028-30.009-67.028-67.028c0-18.109 16.041-51.907 32.428-81.711 14.999-27.279 54.2-27.279 69.2 0 16.387 29.804 32.428 63.602 32.428 81.711z" fill="#d3b5a8"/><path d="m213.498 268.579c0-18.109 16.041-51.908 32.428-81.71 5.196-9.45 13.289-15.629 22.281-18.532-16.966-5.477-37.099.702-46.902 18.532-16.387 29.803-32.428 63.601-32.428 81.71 0 37.019 30.009 67.028 67.028 67.028 4.208 0 8.332-.389 12.325-1.131-31.135-5.783-54.732-33.086-54.732-65.897z" fill="#c9a291"/><circle cx="256.384" cy="268.326" fill="#be8f7d" r="38.516"/><g><path d="m16.448 39.871h478.194c5.398 0 9.774-5.136 9.774-11.471v-9.428c0-6.385-4.442-11.541-9.881-11.47l-478.176 6.181c-4.413.057-7.965 4.272-7.965 9.452v7.283c0 5.221 3.606 9.453 8.054 9.453z" fill="#fcf1de"/><path d="m16.359 66.06 478.175 6.182c5.44.07 9.881-5.086 9.881-11.47v-9.428c0-6.335-4.376-11.471-9.774-11.471h-478.194c-4.448 0-8.054 4.232-8.054 9.453v7.283c.001 5.178 3.553 9.394 7.966 9.451z" fill="#f6e2c4"/></g></g></g><g><path d="m210.368 268.326c0 25.374 20.643 46.017 46.016 46.017s46.016-20.643 46.016-46.017c0-25.373-20.643-46.016-46.016-46.016-25.373.001-46.016 20.643-46.016 46.016zm46.017-31.015c17.103 0 31.016 13.913 31.016 31.016s-13.913 31.017-31.016 31.017-31.016-13.914-31.016-31.017 13.913-31.016 31.016-31.016z"/><path d="m320.334 111.077c-17.398 0-32.79 9.101-41.172 24.345-4.768 8.671-9.083 16.92-12.887 24.623-3.346-.736-6.812-1.136-10.37-1.136-3.557 0-7.023.4-10.369 1.135-3.802-7.696-8.116-15.944-12.888-24.622-8.382-15.245-23.773-24.346-41.171-24.346-.001 0 0 0 0 0-17.397 0-32.79 9.102-41.172 24.346-22.133 40.254-33.356 68.962-33.356 85.324 0 21.03 8.769 40.039 22.826 53.602-15.349 30.278-22.826 51.716-22.826 65.423 0 41.095 33.433 74.527 74.528 74.527 27.137 0 51.378-14.384 64.472-37.062 12.935 22.143 36.943 37.062 64.385 37.062 41.095 0 74.527-33.433 74.527-74.527 0-13.708-7.477-35.146-22.826-65.422 14.057-13.563 22.826-32.572 22.826-53.602 0-16.364-11.223-45.071-33.355-85.324-8.382-15.245-23.774-24.346-41.172-24.346zm-36.402 79.405c4.507 8.194 8.617 16.031 12.219 23.291 1.841 3.71 6.34 5.227 10.052 3.386 3.711-1.841 5.227-6.341 3.386-10.052-1.946-3.923-4.042-8.014-6.257-12.224 5.117-3.508 11.16-5.405 17.482-5.405 17.103 0 31.016 13.913 31.016 31.016 0 14.921-10.289 27.254-24.31 30.286-1.175-4.189-2.71-8.768-4.613-13.768-1.473-3.872-5.806-5.817-9.677-4.343-3.871 1.473-5.815 5.806-4.343 9.677 5.41 14.221 6.546 22.115 6.546 26.233 0 32.823-26.704 59.527-59.527 59.527-32.824 0-59.528-26.704-59.528-59.527 0-18.107 19.736-56.702 31.5-78.098 5.706-10.377 16.183-16.572 28.027-16.572s22.321 6.195 28.027 16.573zm36.881 118.021c17.103 0 31.016 13.914 31.016 31.017s-13.913 31.016-31.016 31.016-31.017-13.913-31.017-31.016c0-1.609.14-3.212.388-4.798 11.656-6.065 21.51-15.116 28.553-26.139.698-.049 1.392-.08 2.076-.08zm-98.8 31.017c0 17.103-13.914 31.016-31.016 31.016s-31.016-13.913-31.016-31.016 13.914-31.017 31.016-31.017c.684 0 1.378.031 2.076.08 7.043 11.023 16.897 20.074 28.553 26.139.247 1.586.387 3.189.387 4.798zm-37.679-88.731c-14.043-3.016-24.353-15.358-24.353-30.294 0-17.103 13.914-31.016 31.016-31.016 6.32 0 12.361 1.899 17.477 5.409-12.068 22.94-20.135 41.63-24.14 55.901zm-52.386-30.042c0-18.104 19.736-56.701 31.5-78.098 5.706-10.377 16.184-16.573 28.028-16.572 11.844 0 22.321 6.195 28.027 16.572 4.443 8.08 8.479 15.771 12.052 22.959-6.399 3.87-11.841 9.32-15.88 16.059-7.315-4.673-15.812-7.189-24.678-7.189-25.373 0-46.016 20.643-46.016 46.016 0 12.083 4.649 23.497 13.09 32.139 6.45 6.604 14.572 11.025 23.428 12.877-.08 1.066-.123 2.091-.123 3.069 0 3.717.282 7.368.81 10.94-28.424-4.473-50.238-29.11-50.238-58.772zm59.528 178.552c-32.824 0-59.528-26.704-59.528-59.527 0-7.567 3.583-23.376 19.867-55.972 8.754 5.526 18.728 9.278 29.424 10.755-20.701 4.488-36.258 22.939-36.258 44.965 0 25.373 20.643 46.016 46.016 46.016 24.989 0 45.375-20.025 45.987-44.869 2.897.761 5.866 1.337 8.889 1.746.19 5.41.943 10.679 2.231 15.739-7.98 24.639-30.641 41.147-56.628 41.147zm188.385-59.528c0 32.823-26.704 59.527-59.527 59.527-31.768 0-57.8-25.013-59.443-56.378 4.78-.317 9.441-1.075 13.935-2.255.613 24.844 20.998 44.869 45.988 44.869 25.373 0 46.016-20.643 46.016-46.016 0-22.026-15.558-40.477-36.258-44.965 10.697-1.477 20.671-5.229 29.426-10.756 16.29 32.606 19.863 48.405 19.863 55.974zm0-119.024c0 29.663-21.813 54.305-50.24 58.778.528-3.574.811-7.227.811-10.946 0-.989-.038-2.015-.115-3.08 8.853-1.851 16.973-6.265 23.421-12.866 8.441-8.642 13.091-20.056 13.091-32.139 0-25.373-20.643-46.016-46.016-46.016-8.867 0-17.365 2.514-24.68 7.186-4.039-6.736-9.48-12.186-15.878-16.055 3.576-7.195 7.611-14.885 12.051-22.96 5.706-10.377 16.184-16.572 28.027-16.572s22.321 6.195 28.027 16.572c11.766 21.396 31.501 59.992 31.501 78.098z"/><path d="m436.349 86.483c-3.088 2.761-3.353 7.502-.593 10.591 39.439 44.115 61.159 101.018 61.159 160.225 0 64.243-25.018 124.641-70.444 170.067s-105.823 70.443-170.066 70.443-124.641-25.018-170.067-70.443c-45.427-45.427-70.444-105.824-70.444-170.067 0-61.158 22.99-119.449 64.735-164.135 2.828-3.027 2.667-7.773-.36-10.601s-7.773-2.668-10.601.36c-44.349 47.475-68.774 109.402-68.774 174.376 0 68.25 26.578 132.414 74.837 180.674 48.26 48.259 112.424 74.837 180.674 74.837s132.414-26.578 180.674-74.837c48.259-48.26 74.837-112.424 74.837-180.674 0-62.9-23.075-123.353-64.976-170.223-2.763-3.088-7.503-3.352-10.591-.593z"/><path d="m363.41 97.49c53.416 35.841 85.306 95.583 85.306 159.809 0 106.04-86.271 192.311-192.311 192.311-40.52 0-79.278-12.46-112.085-36.034-3.363-2.417-8.05-1.649-10.467 1.714-2.417 3.364-1.649 8.051 1.714 10.468 35.373 25.418 77.158 38.853 120.838 38.853 114.312 0 207.311-92.999 207.311-207.311 0-69.234-34.373-133.633-91.948-172.264-3.44-2.31-8.101-1.393-10.406 2.049-2.31 3.438-1.392 8.098 2.048 10.405z"/><path d="m144.848 82.537c-59.958 38.35-95.753 103.682-95.753 174.762 0 54.594 21.055 106.133 59.287 145.124 1.469 1.498 3.411 2.249 5.355 2.249 1.895 0 3.791-.714 5.25-2.145 2.958-2.9 3.004-7.648.104-10.606-35.465-36.17-54.997-83.979-54.997-134.622 0-65.938 33.209-126.546 88.835-162.125 3.49-2.232 4.509-6.87 2.277-10.359-2.231-3.491-6.869-4.507-10.358-2.278z"/><path d="m511.916 18.972c0-5.387-2.084-10.534-5.718-14.121-3.174-3.133-7.269-4.851-11.553-4.851-.069 0-.139.001-.207.002l-478.177 6.182c-8.473.11-15.367 7.714-15.367 16.951v7.283c0 3.498.978 6.75 2.65 9.453-1.672 2.703-2.65 5.956-2.65 9.453v7.283c0 9.238 6.895 16.843 15.368 16.951l100.803 1.303c.033.001.066.001.099.001 4.097 0 7.444-3.294 7.498-7.403.053-4.142-3.261-7.543-7.403-7.596l-100.666-1.301c-.228-.184-.699-.856-.699-1.954v-7.283c0-1.095.469-1.767.697-1.953h358.083v15.82l-225.437-2.914c-.033-.001-.066-.001-.099-.001-4.097 0-7.444 3.294-7.498 7.403-.053 4.142 3.261 7.543 7.402 7.596l345.395 4.465c.069.001.138.002.207.002 4.284 0 8.379-1.718 11.553-4.851 3.634-3.587 5.718-8.734 5.718-14.121v-9.428c0-4.313-1.332-8.281-3.548-11.471 2.216-3.19 3.548-7.158 3.548-11.471v-9.429zm-17.284-3.972h.011c.401 0 .774.285 1.019.526.785.775 1.255 2.063 1.255 3.445v9.429c0 2.387-1.368 3.971-2.273 3.971h-104.969v-16.014zm-478.041 17.371c-.229-.187-.697-.858-.697-1.953v-7.283c0-1.099.472-1.771.7-1.955l358.081-4.629v15.82zm480.325 28.4c0 1.382-.47 2.67-1.255 3.445-.244.241-.617.526-1.019.526h-.011l-104.957-1.357v-16.014h104.968c.905 0 2.273 1.584 2.273 3.972v9.428z"/></g></g></svg>