<svg id="Layer_1" height="512" viewBox="0 0 512 512" width="512" xmlns="http://www.w3.org/2000/svg" data-name="Layer 1"><path d="m333.052 283.032-.059.01h.061z" fill="#e8ce85"/><path d="m286.33 114.329h-60.915a4.011 4.011 0 0 0 -4.006 4.007v29.606h68.927v-29.606a4.011 4.011 0 0 0 -4.006-4.007z" fill="#447248"/><path d="m332.993 283.042.06-.01a339.441 339.441 0 0 0 -8.363-43.3l-24-91.793h-89.64l-24 91.793a340.193 340.193 0 0 0 -11.05 86.037v171.1h159.747z" fill="#d05458"/><path d="m225.415 114.329a4.011 4.011 0 0 0 -4.006 4.006v29.607h30.047v-29.607a4.011 4.011 0 0 1 4.006-4.006z" fill="#5a965d"/><path d="m211.053 147.942-24 91.793a340.193 340.193 0 0 0 -11.053 86.034v171.1h30.047v-171.1a340.148 340.148 0 0 1 11.053-86.034l24-91.793z" fill="#bc5058"/><path d="m264.546 15.135 8.263 99.194h-34.874l9.264-99.194z" fill="#d05458"/><path d="m335.747 325.769v122.531h-79.874v-165.258h77.12l.06-.01a340.23 340.23 0 0 1 2.694 42.737z" fill="#fbe08b"/><path d="m255.873 283.042h30.047v165.257h-30.047z" fill="#e8ce85"/><g fill="#284268"><path d="m212.889 232.785a6 6 0 0 0 -7.323 4.288l-1.951 6.983a322.97 322.97 0 0 0 -10.615 81.607v52a6 6 0 0 0 12 0v-52a310.98 310.98 0 0 1 10.225-78.573l1.888-6.983a5.961 5.961 0 0 0 -4.224-7.322z"/><path d="m219.78 206.422a6 6 0 0 0 -7.322 4.288l-1.819 6.96a6 6 0 1 0 11.609 3.035l1.819-6.96a6 6 0 0 0 -4.287-7.323z"/><path d="m176.251 502h159.5c3.313 0 6.251-2.193 6.251-5.507v-170.83a345.984 345.984 0 0 0 -11.363-87.424l-24.021-91.7a6.12 6.12 0 0 0 -5.869-4.539h-4.749v-23.446a9.293 9.293 0 0 0 -9.587-9.554h-7.98l-7.794-93.521a5.982 5.982 0 0 0 -5.98-5.479h-17.318a5.979 5.979 0 0 0 -5.974 5.418l-8.744 93.582h-7.036a9.293 9.293 0 0 0 -9.587 9.554v23.446h-4.749a6.049 6.049 0 0 0 -5.805 4.536l-24.083 91.676a346.193 346.193 0 0 0 -11.363 87.451v170.83c0 3.314 2.938 5.507 6.251 5.507zm76.556-480h6.332l7.252 87h-21.716zm-24.807 99h56v21h-56zm-46 204.663a334.4 334.4 0 0 1 10.973-84.443l22.911-87.22h80.232l22.784 87.22a334.6 334.6 0 0 1 7.275 35.78h-70.175a6 6 0 0 0 -6 6v26a6 6 0 0 0 12 0v-20h65.723a333.94 333.94 0 0 1 2.277 36.663v116.337h-68v-93a6 6 0 0 0 -12 0v99a6 6 0 0 0 6 6h74v36h-148z"/></g></svg>