<svg id="Layer_1" height="512" viewBox="0 0 512 512" width="512" xmlns="http://www.w3.org/2000/svg" data-name="Layer 1"><path d="m471.04 416.93a38.262 38.262 0 0 1 -54.11 54.11l-18.03-18.03 54.11-54.11z" fill="#958e96"/><path d="m369.408 381.811h76.523v51.718h-76.523z" fill="#767178" transform="matrix(.707 -.707 .707 .707 -168.862 407.67)"/><path d="m332.843 345.253h76.523v51.704h-76.523z" fill="#958e96" transform="matrix(.707 -.707 .707 .707 -153.717 371.105)"/><path d="m302.203 322.985h76.523v34.959h-76.523z" fill="#767178" transform="matrix(.707 -.707 .707 .707 -141.025 340.465)"/><path d="m367.24 259.11a21.112 21.112 0 0 0 -29.85 0l-78.28 78.28a21.107 21.107 0 1 0 29.85 29.85l78.28-78.28a21.094 21.094 0 0 0 0-29.85z" fill="#9ac5a1"/><path d="m107.67 30.02-77.91-.26.26 77.91 234.09 224.72 68.28-68.28z" fill="#d4e1f4"/><path d="m288.27 308.23-24.16 24.16-234.09-224.72-.26-77.91 30.76.1c-4.58 23.58 1.68 52.31 19.94 70.57z" fill="#f4f8fc"/><path d="m436.93 451.04-18.03-18.03-20 20 18.03 18.03a38.253 38.253 0 0 0 62.19-11.916 38.27 38.27 0 0 1 -42.19-8.084z" fill="#7b717c"/><path d="m382.33 396.44-20 20 36.57 36.57 20-20z" fill="#645e66"/><path d="m345.77 359.88-20 20 36.56 36.56 20-20z" fill="#7b717c"/><path d="m309.268 340.04h28.284v34.959h-28.284z" fill="#645e66" transform="matrix(.707 -.707 .707 .707 -158.08 333.401)"/><path d="m294.04 353.43a21.115 21.115 0 0 1 -14.931-36.039l-20 20a21.107 21.107 0 1 0 29.85 29.85l20-20a21.045 21.045 0 0 1 -14.919 6.189z" fill="#82a886"/><g fill="#284268"><path d="m113.279 91.419a6 6 0 1 0 8.485-8.485l-5.056-5.056a6 6 0 1 0 -8.485 8.485z"/><path d="m222.065 200.205a6 6 0 0 0 8.485-8.485l-94.671-94.672a6 6 0 0 0 -8.485 8.486z"/><path d="m363.638 301.052 7.846-7.847a27.108 27.108 0 1 0 -38.337-38.336l-.67.67-220.483-229.671a6 6 0 0 0 -4.308-1.845l-77.906-.263h-.02a6 6 0 0 0 -6 6.02l.263 77.906a6 6 0 0 0 1.845 4.308l229.671 220.483-.67.669a27.108 27.108 0 0 0 38.336 38.338l7.847-7.846 111.638 111.639a44.255 44.255 0 1 0 62.587-62.586zm-298.074-265.171 39.536.133 218.89 228.012-35.721 35.721-203.563-203.564a68.732 68.732 0 0 1 -19.142-60.302zm-29.55 69.219-.234-69.32 17.643.06a80.705 80.705 0 0 0 22.8 68.828l203.561 203.563-15.758 15.759zm248.707 257.9a15.109 15.109 0 1 1 -21.367-21.368l78.279-78.278a15.109 15.109 0 0 1 21.367 21.367zm24.815-7.847 45.617-45.617 16.238 16.238-45.617 45.617zm24.722 24.722 45.617-45.617 28.077 28.078-45.617 45.617zm36.562 36.562 45.617-45.617 28.077 28.08-45.614 45.614zm95.972 50.356a32.256 32.256 0 0 1 -45.616 0l-13.795-13.793 45.619-45.618 13.8 13.8a32.255 32.255 0 0 1 0 45.616z"/></g></svg>