<svg id="Layer_1" enable-background="new 0 0 512 512" height="512" viewBox="0 0 512 512" width="512" xmlns="http://www.w3.org/2000/svg"><g><g><g><path d="m335.13 255.74c0 43.7-35.43 79.13-79.13 79.13-5.13 0-10.14-.49-15-1.43-36.53-7-64.13-39.13-64.13-77.7 0-38.58 27.6-70.71 64.13-77.71 4.86-.94 9.87-1.43 15-1.43 43.7 0 79.13 35.43 79.13 79.14z" fill="#dcf8ff"/><path d="m335.13 255.74c0 43.7-35.43 79.13-79.13 79.13-5.13 0-10.14-.49-15-1.43 36.53-7 64.13-39.13 64.13-77.7 0-38.58-27.6-70.71-64.13-77.71 4.86-.94 9.87-1.43 15-1.43 43.7 0 79.13 35.43 79.13 79.14z" fill="#d2e1f9"/></g><g><g><path d="m136.93 136.93c-9.16 9.16-21.67 12.94-33.61 11.33-8.4-1.13-16.51-4.93-22.98-11.39-15.64-15.64-15.66-40.98-.06-56.59 5.97-5.97 13.36-9.65 21.09-11.05 12.48-2.25 25.84 1.45 35.5 11.11 15.64 15.65 15.67 40.98.06 56.59z" fill="#dcf8ff"/><path d="m136.93 136.93c-9.16 9.16-21.67 12.94-33.61 11.33 12.2-8.6 20.17-22.81 20.17-38.87 0-16.9-8.82-31.74-22.12-40.16 12.48-2.25 25.84 1.45 35.5 11.11 15.64 15.65 15.67 40.98.06 56.59z" fill="#d2e1f9"/></g><g><path d="m431.395 136.869c-9.16 9.16-21.67 12.94-33.61 11.33-8.4-1.13-16.51-4.93-22.98-11.39-15.64-15.64-15.66-40.98-.06-56.59 5.97-5.97 13.36-9.65 21.09-11.05 12.48-2.25 25.84 1.45 35.5 11.11 15.64 15.651 15.67 40.981.06 56.59z" fill="#dcf8ff"/><path d="m431.395 136.869c-9.16 9.16-21.67 12.94-33.61 11.33 12.2-8.6 20.17-22.81 20.17-38.87 0-16.9-8.82-31.74-22.12-40.16 12.48-2.25 25.84 1.45 35.5 11.11 15.64 15.651 15.67 40.981.06 56.59z" fill="#d2e1f9"/></g></g><g><g><path d="m136.989 431.514c-9.16 9.16-21.67 12.94-33.61 11.33-8.4-1.13-16.51-4.93-22.98-11.39-15.64-15.64-15.66-40.98-.06-56.59 5.97-5.97 13.36-9.65 21.09-11.05 12.48-2.25 25.84 1.45 35.5 11.11 15.64 15.65 15.67 40.98.06 56.59z" fill="#dcf8ff"/><path d="m136.989 431.514c-9.16 9.16-21.67 12.94-33.61 11.33 12.2-8.6 20.17-22.81 20.17-38.87 0-16.9-8.82-31.74-22.12-40.16 12.48-2.25 25.84 1.45 35.5 11.11 15.64 15.65 15.67 40.98.06 56.59z" fill="#d2e1f9"/></g><g><path d="m431.455 431.453c-9.16 9.16-21.67 12.94-33.61 11.33-8.4-1.13-16.51-4.93-22.98-11.39-15.64-15.64-15.66-40.98-.06-56.59 5.97-5.97 13.36-9.65 21.09-11.05 12.48-2.25 25.84 1.45 35.5 11.11 15.64 15.65 15.67 40.981.06 56.59z" fill="#dcf8ff"/><path d="m431.455 431.453c-9.16 9.16-21.67 12.94-33.61 11.33 12.2-8.6 20.17-22.81 20.17-38.87 0-16.9-8.82-31.74-22.12-40.16 12.48-2.25 25.84 1.45 35.5 11.11 15.64 15.65 15.67 40.981.06 56.59z" fill="#d2e1f9"/></g></g><g fill="#d2e1f9"><path d="m256 7.5c-8.271 0-14.976 6.719-14.976 15.008s6.705 15.008 14.976 15.008 14.976-6.719 14.976-15.008c0-8.29-6.705-15.009-14.976-15.008z"/><path d="m256 474.484c-8.271 0-14.976 6.719-14.976 15.008s6.705 15.008 14.976 15.008 14.976-6.719 14.976-15.008-6.705-15.008-14.976-15.008z"/><path d="m504.5 256c0-8.271-6.719-14.976-15.008-14.976s-15.008 6.705-15.008 14.976 6.719 14.976 15.008 14.976 15.008-6.705 15.008-14.976z"/><path d="m37.515 256c0-8.271-6.719-14.976-15.008-14.976s-15.008 6.705-15.008 14.976 6.719 14.976 15.008 14.976c8.29 0 15.009-6.705 15.008-14.976z"/></g></g><g><path d="m489.492 233.524c-9.779 0-18.12 6.259-21.219 14.976h-22.775c10.788-13.248 20.367-22.516 20.488-22.632 2.984-2.872 3.076-7.62.205-10.605-2.873-2.985-7.619-3.077-10.605-.205-.641.617-15.101 14.594-29.098 33.442h-84.153c-1.526-18.365-8.806-35.122-20.027-48.459l18.892-18.892c19.002 2.807 35.917 3.088 41.926 3.088 1.336 0 2.134-.014 2.296-.017 4.142-.081 7.434-3.503 7.354-7.645-.08-4.092-3.421-7.354-7.496-7.354-.049 0-.099 0-.148.001-.165.007-13.465.232-30.49-1.514l20.586-20.586c8.038 5.844 17.684 8.998 27.82 8.998h.052c12.688-.014 24.621-4.967 33.601-13.946 18.541-18.542 18.568-48.685.061-67.193-8.956-8.956-20.864-13.887-33.539-13.887h-.053c-12.688.014-24.62 4.967-33.601 13.947-16.734 16.734-18.385 42.918-4.943 61.469l-20.59 20.59c-1.74-16.996-1.52-30.323-1.517-30.491.08-4.141-3.213-7.563-7.354-7.644-.049-.001-.098-.001-.147-.001-4.074 0-7.417 3.264-7.496 7.355-.017.889-.358 20.997 3.072 44.222l-18.891 18.891c-13.276-11.168-29.939-18.432-48.203-20.005v-83.914c18.849-13.997 32.826-28.457 33.442-29.098 2.871-2.984 2.779-7.73-.204-10.603-2.984-2.872-7.73-2.782-10.604.201-.118.122-9.385 9.701-22.634 20.489v-22.775c8.717-3.099 14.976-11.44 14.976-21.219 0-6.009-2.335-11.659-6.577-15.91-4.246-4.255-9.892-6.598-15.899-6.598-12.393 0-22.476 10.098-22.477 22.509 0 6.009 2.336 11.659 6.578 15.909 2.411 2.417 5.275 4.216 8.398 5.32v22.764c-13.248-10.788-22.516-20.367-22.632-20.488-2.871-2.984-7.619-3.076-10.604-.205-2.985 2.872-3.077 7.62-.205 10.605.616.641 14.594 15.101 33.442 29.098v83.914c-18.329 1.579-35.045 8.889-48.342 20.125l-19.01-19.009c3.431-23.226 3.089-43.334 3.072-44.224-.079-4.092-3.42-7.354-7.496-7.354-.048 0-.097.001-.146.001-4.141.079-7.433 3.5-7.355 7.641.003.17.223 13.497-1.517 30.493l-20.591-20.59c13.443-18.552 11.791-44.735-4.943-61.47-5.683-5.684-12.745-9.859-20.421-12.076-3.984-1.147-8.138 1.146-9.286 5.126-1.149 3.979 1.146 8.137 5.125 9.286 5.247 1.515 10.079 4.374 13.975 8.27 12.693 12.694 12.719 33.321.06 45.981-6.122 6.122-14.264 9.492-22.932 9.492h-.036c-8.687-.01-16.858-3.402-23.009-9.553-12.693-12.693-12.72-33.32-.06-45.981 2.929-2.929 2.929-7.678 0-10.606-2.93-2.928-7.677-2.929-10.607.001-18.507 18.509-18.48 48.651.061 67.192 8.979 8.98 20.912 13.934 33.6 13.947h.053c10.136 0 19.782-3.154 27.82-8.998l20.584 20.584c-16.995 1.74-30.32 1.52-30.491 1.516-4.124-.063-7.562 3.213-7.642 7.354-.08 4.142 3.212 7.563 7.353 7.645.162.003.959.017 2.295.017 6.011 0 22.926-.281 41.927-3.088l19.033 19.033c-11.154 13.314-18.387 30.017-19.908 48.318h-82.674c-13.998-18.848-28.458-32.826-29.099-33.442-2.984-2.869-7.729-2.78-10.603.205-2.872 2.983-2.781 7.73.202 10.604.122.118 9.701 9.386 20.489 22.634h-24.254c-3.099-8.717-11.441-14.976-21.219-14.976-12.411 0-22.508 10.082-22.508 22.476s10.098 22.477 22.508 22.477c9.779 0 18.121-6.259 21.219-14.977h24.254c-10.768 13.225-20.333 22.483-20.488 22.633-2.985 2.872-3.076 7.619-.205 10.604 1.473 1.531 3.438 2.301 5.406 2.301 1.871 0 3.744-.695 5.199-2.095.641-.617 15.101-14.593 29.099-33.442h82.718c1.62 18.162 8.869 34.729 19.985 47.94l-19.15 19.15c-23.226-3.43-43.332-3.088-44.224-3.072-4.141.08-7.434 3.503-7.354 7.644.08 4.143 3.502 7.415 7.644 7.354.17-.007 13.469-.231 30.493 1.515l-20.592 20.592c-18.553-13.442-44.736-11.79-61.47 4.943-8.98 8.979-13.933 20.912-13.946 33.601-.014 12.693 4.918 24.623 13.886 33.591 9.244 9.243 21.388 13.863 33.542 13.863 12.18 0 24.371-4.643 33.651-13.923 8.98-8.98 13.933-20.913 13.947-33.601.011-10.155-3.144-19.821-8.998-27.873l20.585-20.584c1.74 16.995 1.52 30.322 1.517 30.491-.079 4.14 3.213 7.562 7.354 7.642.049.001.099.001.148.001 4.074 0 7.417-3.263 7.496-7.354.017-.889.359-20.997-3.071-44.222l19.152-19.151c13.273 11.167 29.935 18.431 48.197 20.004v82.958c-18.848 13.996-32.826 28.457-33.442 29.098-2.872 2.985-2.78 7.733.205 10.605s7.733 2.779 10.604-.205c.117-.123 9.361-9.687 22.632-20.489v24.256c-8.717 3.099-14.976 11.441-14.976 21.219 0 6.01 2.336 11.66 6.578 15.91 4.246 4.255 9.891 6.598 15.896 6.598h.001c12.394 0 22.476-10.097 22.476-22.508 0-6.009-2.335-11.659-6.577-15.91-2.411-2.417-5.275-4.216-8.399-5.32v-24.243c13.204 10.751 22.455 20.302 22.633 20.488 1.472 1.53 3.438 2.3 5.406 2.3 1.871 0 3.745-.695 5.199-2.095 2.985-2.872 3.077-7.62.205-10.605-.617-.641-14.594-15.101-33.442-29.098v-82.958c18.198-1.568 34.806-8.785 48.056-19.885l19.033 19.033c-3.43 23.225-3.088 43.332-3.072 44.221.079 4.093 3.421 7.355 7.496 7.355.049 0 .099 0 .147-.001 4.142-.08 7.435-3.503 7.354-7.644-.003-.17-.23-13.468 1.515-30.491l20.591 20.591c-13.442 18.552-11.79 44.735 4.943 61.47 5.683 5.683 12.744 9.858 20.419 12.075.695.201 1.396.297 2.086.297 3.255 0 6.253-2.137 7.201-5.42 1.15-3.979-1.144-8.138-5.123-9.287-5.248-1.517-10.081-4.377-13.976-8.271-12.693-12.694-12.72-33.321-.06-45.981 6.122-6.122 14.264-9.492 22.932-9.492h.036c8.688.01 16.858 3.402 23.009 9.554 12.693 12.692 12.721 33.319.06 45.979-2.929 2.93-2.929 7.678 0 10.607 2.93 2.928 7.678 2.928 10.607 0 18.509-18.51 18.481-48.652-.06-67.193-8.979-8.98-20.912-13.934-33.601-13.947h-.052c-10.135 0-19.782 3.154-27.82 8.997l-20.585-20.585c16.996-1.74 30.32-1.521 30.492-1.517.049.001.098.001.147.001 4.074 0 7.417-3.264 7.496-7.355.08-4.141-3.213-7.563-7.354-7.644-.888-.017-20.998-.359-44.224 3.072l-19.009-19.009c11.183-13.234 18.477-29.854 20.103-48.081h84.198c13.996 18.849 28.458 32.826 29.099 33.442 1.454 1.399 3.327 2.095 5.198 2.095 1.968 0 3.934-.771 5.406-2.301 2.871-2.984 2.779-7.732-.206-10.604-.122-.117-9.686-9.36-20.489-22.632h22.777c3.099 8.717 11.441 14.977 21.219 14.977 12.411 0 22.508-10.082 22.508-22.476s-10.095-22.479-22.506-22.479zm-109.317-147.877c6.15-6.151 14.322-9.544 23.01-9.554h.036c8.667 0 16.811 3.371 22.932 9.492 12.66 12.661 12.633 33.288-.061 45.981-6.15 6.15-14.321 9.543-23.009 9.553h-.036c-8.667 0-16.811-3.371-22.932-9.492v-.001c-12.66-12.658-12.634-33.285.06-45.979zm-357.667 177.83c-4.14 0-7.508-3.354-7.508-7.477 0-4.122 3.368-7.476 7.508-7.476s7.508 3.354 7.508 7.477c0 4.122-3.368 7.476-7.508 7.476zm109.06 162.614c-12.693 12.693-33.319 12.72-45.98.06-6.131-6.13-9.502-14.287-9.493-22.968.009-8.688 3.402-16.858 9.553-23.009 6.358-6.358 14.705-9.538 23.045-9.538 8.311 0 16.616 3.159 22.935 9.478 6.131 6.13 9.502 14.287 9.493 22.969-.009 8.686-3.401 16.857-9.553 23.008zm124.432-411.091c1.994 0 3.869.779 5.281 2.193 1.416 1.418 2.195 3.306 2.195 5.314 0 4.14-3.354 7.508-7.477 7.508-1.994 0-3.869-.778-5.28-2.192-1.416-1.419-2.195-3.307-2.195-5.314 0-4.141 3.354-7.509 7.476-7.509zm-.001 482c-1.993 0-3.869-.778-5.28-2.192-1.416-1.419-2.195-3.307-2.195-5.315 0-4.14 3.354-7.508 7.477-7.508 1.994 0 3.869.779 5.281 2.193 1.416 1.418 2.195 3.306 2.195 5.314-.001 4.14-3.354 7.508-7.478 7.508zm.001-169.627c-39.499 0-71.634-32.135-71.634-71.635 0-39.499 32.135-71.634 71.634-71.634s71.634 32.135 71.634 71.634c0 39.5-32.135 71.635-71.634 71.635zm233.492-63.896c-4.14 0-7.508-3.354-7.508-7.477 0-4.122 3.368-7.476 7.508-7.476s7.508 3.354 7.508 7.477c0 4.122-3.368 7.476-7.508 7.476z"/><circle cx="231.952" cy="272.979" r="7.5"/><circle cx="243.952" cy="232.469" r="7.5"/><circle cx="287.302" cy="266.998" r="7.5"/></g></g></svg>