<svg id="Capa_1" enable-background="new 0 0 511.022 511.022" height="512" viewBox="0 0 511.022 511.022" width="512" xmlns="http://www.w3.org/2000/svg"><g><g><circle cx="256.162" cy="254.223" fill="#f8f7f8" r="251.233"/><g fill="#efedee"><path d="m89.5 267.151c0-137.197 109.974-248.707 246.578-251.188-25.106-8.419-51.974-12.973-79.916-12.973-138.752 0-251.233 112.481-251.233 251.233s112.481 251.233 251.233 251.233c1.555 0 3.081-.019 4.628-.047-99.568-33.387-171.29-127.447-171.29-238.258z"/><path d="m493.952 335.49c-20.546-22.461-50.077-36.572-82.845-36.572-61.916 0-112.289 50.372-112.289 112.288 0 32.238 13.661 61.341 35.492 81.839 74.846-24.477 134.217-83.143 159.642-157.555z"/><circle cx="255.011" cy="253.383" r="206.209"/></g><path d="m454.041 307.456c-13.233-5.498-27.734-8.538-42.934-8.538-61.916 0-112.289 50.372-112.289 112.288 0 14.768 2.874 28.873 8.079 41.799 71.459-18.521 127.859-74.401 147.144-145.549z" fill="#e4e1e5"/><path d="m211.223 51.85c-92.849 20.079-162.421 102.675-162.421 201.533 0 75.669 40.766 141.807 101.525 177.681-37.906-43.999-60.827-101.277-60.827-163.913 0-91.371 48.787-171.335 121.723-215.301z" fill="#e4e1e5"/><g><g><g><g><g id="XMLID_251_"><g><path d="m299.357 79.508c3.1 3.48 2.8 8.82-.68 11.93l-136.8 122.06c-3.48 3.11-8.82 2.81-11.93-.67l-8.5-9.54c-17.04-19.09-25.42-42.9-25.42-66.62 0-27.54 11.3-54.96 33.46-74.74 41.26-36.81 104.54-33.21 141.36 8.05z" fill="#f4bb87"/></g></g><path d="m165.425 199.036c-17.04-19.09-25.42-42.9-25.42-66.62 0-27.54 11.3-54.96 33.46-74.74 11.124-9.924 23.839-16.912 37.214-21.015-21.9 1.181-43.553 9.531-61.192 25.268-22.16 19.78-33.46 47.2-33.46 74.74 0 23.72 8.38 47.53 25.42 66.62l8.5 9.54c3.11 3.48 8.45 3.78 11.93.67l9.156-8.169z" fill="#f2ab6a"/><g id="XMLID_250_"><g><path d="m270.677 87.968 14.14 15.84-109.08 97.33-14.13-15.84c-26.83-30.07-24.2-76.37 5.87-103.2 30.08-26.83 76.37-24.2 103.2 5.87z" fill="#c9a291"/></g></g><g id="XMLID_249_"><g><path d="m304.753 162.294c3.1 3.48 2.8 8.82-.68 11.93l-136.8 122.06c-3.48 3.11-8.82 2.81-11.93-.67l-8.5-9.54c-17.04-19.09-25.42-42.9-25.42-66.62 0-27.54 11.3-54.96 33.46-74.74 41.26-36.81 104.54-33.21 141.36 8.05z" fill="#f4bb87"/></g></g><path d="m170.821 287.303c-17.04-19.09-25.42-42.9-25.42-66.62 0-27.54 11.3-54.96 33.46-74.74 17.248-15.388 38.34-23.717 59.743-25.183-29.048-5.007-60.016 2.806-83.721 23.954-22.16 19.78-33.46 47.2-33.46 74.74 0 23.72 8.38 47.53 25.42 66.62l8.5 9.54c3.11 3.48 8.45 3.78 11.93.67l6.435-5.742z" fill="#f2ab6a"/><g id="XMLID_248_"><g><path d="m276.073 170.754 14.14 15.84-109.08 97.33-14.13-15.84c-26.83-30.07-24.2-76.37 5.87-103.2 30.08-26.83 76.37-24.2 103.2 5.87z" fill="#c9a291"/></g></g><g id="XMLID_247_"><g><path d="m309.335 243.973c3.1 3.48 2.8 8.82-.68 11.93l-136.8 122.06c-3.48 3.11-8.82 2.81-11.93-.67l-8.5-9.54c-17.04-19.09-25.42-42.9-25.42-66.62 0-27.54 11.3-54.96 33.46-74.74 41.26-36.81 104.54-33.21 141.36 8.05z" fill="#f4bb87"/></g></g><path d="m173.901 367.753c-17.04-19.09-25.42-42.9-25.42-66.62 0-27.54 11.3-54.96 33.46-74.74 16.07-14.337 35.469-22.549 55.355-24.788-27.298-3.061-55.72 5.062-77.831 24.788-22.16 19.78-33.46 47.2-33.46 74.74 0 23.72 8.38 47.53 25.42 66.62l8.5 9.54c3.11 3.48 8.45 3.78 11.93.67l6.208-5.539z" fill="#f2ab6a"/><g id="XMLID_246_"><g><path d="m280.655 252.433 14.14 15.84-109.08 97.33-14.13-15.84c-26.83-30.07-24.2-76.37 5.87-103.2 30.08-26.83 76.37-24.2 103.2 5.87z" fill="#c9a291"/></g></g></g><g id="XMLID_134_"><g><path d="m315.541 326.376c3.1 3.48 2.8 8.82-.68 11.93l-136.8 122.06c-3.48 3.11-8.82 2.81-11.93-.67l-8.5-9.54c-17.04-19.09-25.42-42.9-25.42-66.62 0-27.54 11.3-54.96 33.46-74.74 41.26-36.81 104.54-33.21 141.36 8.05z" fill="#f4bb87"/></g></g><path d="m178.399 444.073c-17.04-19.09-25.42-42.9-25.42-66.62 0-27.54 11.3-54.96 33.46-74.74 8.601-7.674 18.143-13.587 28.219-17.773-17.639 3.142-34.637 11.053-48.988 23.856-22.16 19.78-33.46 47.2-33.46 74.74 0 23.72 8.38 47.53 25.42 66.62l8.5 9.54c3.11 3.48 8.45 3.78 11.93.67l8.276-7.384z" fill="#f2ab6a"/><g id="XMLID_245_"><g><path d="m286.861 334.836 14.14 15.84-109.08 97.33-14.13-15.84c-26.83-30.07-24.2-76.37 5.87-103.2 30.08-26.83 76.37-24.2 103.2 5.87z" fill="#c9a291"/></g></g></g></g><circle cx="411.106" cy="411.206" fill="#f8f7f8" r="92.288"/><path d="m341.881 409.13c0-44.168 31.023-81.09 72.471-90.157-1.08-.038-2.156-.056-3.245-.056-50.969 0-92.289 41.319-92.289 92.289s41.319 92.289 92.289 92.289c6.801 0 13.421-.734 19.803-2.13-49.463-1.715-89.029-42.355-89.029-92.235z" fill="#efedee"/><path d="m411.106 473.494c-34.347 0-62.289-27.942-62.289-62.288s27.942-62.288 62.289-62.288c34.346 0 62.288 27.942 62.288 62.288s-27.942 62.288-62.288 62.288z" fill="#c9a291"/><g fill="#f6e2c4"><path d="m327.049 154.862 27.316 141.147c.462 2.385 2.77 3.945 5.155 3.483l5.406-1.046c2.18-.422 3.703-2.401 3.553-4.616l-9.127-134.895c-.132-1.949-1.534-3.578-3.441-3.999l-23.595-5.206c-3.091-.682-5.869 2.024-5.267 5.132z"/><path d="m363.319 147.842 27.316 141.147c.462 2.385 2.77 3.945 5.155 3.483l5.406-1.046c2.18-.422 3.703-2.401 3.553-4.616l-9.127-134.895c-.132-1.949-1.534-3.578-3.441-3.999l-23.595-5.206c-3.09-.682-5.868 2.025-5.267 5.132z"/></g></g></g><g><path d="m319.85 343.902c3.18-2.836 5.063-6.74 5.306-10.993s-1.187-8.346-4.023-11.525l-8.508-9.532c-8.249-9.245-17.839-16.861-28.377-22.672l16.339-14.581c.003-.002.006-.004.008-.007s.005-.005.008-.007l13.853-12.362c6.562-5.854 7.137-15.955 1.282-22.517l-8.508-9.534c-8.356-9.364-17.996-16.914-28.418-22.636l30.248-26.992c3.179-2.836 5.062-6.74 5.305-10.993.242-4.254-1.187-8.347-4.022-11.523l-8.508-9.534c-8.356-9.364-17.996-16.914-28.419-22.636l30.251-26.992c6.561-5.855 7.135-15.957 1.28-22.519l-8.508-9.532c-39.509-44.277-107.672-48.155-151.945-8.646-36.228 32.327-46.243 84.343-24.995 127.61-8.865 26.252-7.444 55.565 5.392 81.696-8.872 26.285-7.432 55.638 5.451 81.791-3.49 10.377-5.418 21.314-5.607 32.438-.07 4.142 3.23 7.556 7.372 7.626.043.001.086.001.13.001 4.082 0 7.427-3.274 7.496-7.373.437-25.783 11.712-50.408 30.934-67.561 18.458-16.471 42.237-24.759 66.925-23.362 24.699 1.406 47.372 12.346 63.843 30.805l8.508 9.532c.173.194.254.426.239.686s-.121.479-.315.653l-8.266 7.375-9.139-10.242c-14.312-16.039-34.041-25.546-55.556-26.77-21.507-1.215-42.194 5.983-58.232 20.296-16.039 14.312-25.546 34.041-26.771 55.555-1.224 21.514 5.983 42.194 20.296 58.232l9.138 10.241-8.267 7.377c-.193.172-.428.254-.683.238-.261-.015-.48-.121-.653-.314l-8.508-9.534c-8.853-9.922-15.341-21.332-19.282-33.915-1.238-3.953-5.444-6.154-9.399-4.915-3.952 1.238-6.153 5.446-4.915 9.399 4.584 14.632 12.122 27.894 22.404 39.417l8.508 9.535c2.837 3.178 6.74 5.062 10.993 5.303.311.018.619.026.927.026 3.918 0 7.652-1.42 10.597-4.05zm-109.8-65.728-10.865-35.802c4.673-2.184 9.588-3.791 14.658-4.81l11.692 38.526c-5.236.321-10.408 1.02-15.485 2.086zm-24.05-27.597 9.622 31.708c-4.868 1.767-9.608 3.889-14.188 6.358l-7.657-25.233c2.741-3.795 5.906-7.333 9.486-10.528.893-.798 1.809-1.563 2.737-2.305zm55.262 25.679-12.119-39.935c.505.017 1.009.021 1.515.049 5.312.302 10.487 1.233 15.448 2.736l12.113 39.916c-5.524-1.356-11.188-2.289-16.957-2.766zm23.232-28.208c4.123 2.886 7.947 6.257 11.379 10.103l9.139 10.242-11.287 10.073zm-108.501-27.14c-.079-6.628.84-13.184 2.698-19.455l4.212 13.878c-2.359 1.75-4.664 3.608-6.91 5.577zm20.054-13.917-7.666-25.261c2.741-3.795 5.906-7.332 9.486-10.527.894-.798 1.809-1.562 2.737-2.305l9.638 31.759c-4.842 1.749-9.586 3.861-14.195 6.334zm28.626-10.437-10.883-35.863c4.673-2.184 9.588-3.792 14.657-4.812l11.709 38.583c-5.191.323-10.367 1.019-15.483 2.092zm31.209-1.924-12.136-39.989c.505.018 1.009.021 1.515.05 5.312.302 10.487 1.233 15.448 2.736l12.134 39.984c-5.578-1.375-11.251-2.305-16.961-2.781zm23.217-28.26c4.123 2.886 7.947 6.257 11.379 10.103l9.139 10.242-11.287 10.073zm-108.501-27.14c-.079-6.629.841-13.185 2.698-19.456l4.212 13.879c-2.359 1.749-4.665 3.607-6.91 5.577zm20.054-13.918-7.667-25.262c2.741-3.795 5.906-7.332 9.487-10.527.894-.797 1.809-1.562 2.738-2.305l9.638 31.76c-4.843 1.75-9.587 3.861-14.196 6.334zm28.626-10.436-10.883-35.862c4.673-2.184 9.59-3.792 14.659-4.812l11.708 38.582c-5.192.323-10.368 1.019-15.484 2.092zm31.209-1.923-12.135-39.99c.505.018 1.008.021 1.514.05 5.312.302 10.486 1.233 15.448 2.736l12.135 39.986c-5.579-1.377-11.252-2.307-16.962-2.782zm23.216-28.264c4.123 2.886 7.947 6.257 11.379 10.103l9.14 10.243-11.288 10.072zm-99.224-15.33c38.104-34.002 96.766-30.663 130.768 7.442l8.508 9.532c.348.391.313.991-.076 1.34l-8.265 7.375-9.14-10.243c-14.312-16.039-34.041-25.546-55.555-26.77-21.517-1.235-42.195 5.983-58.233 20.296-21.177 18.896-30.743 47.408-25.482 75.19-3.373 4.264-6.379 8.744-9.031 13.388-11.18-34.413-1.313-72.725 26.506-97.55zm5.396 81.679c38.104-34.001 96.767-30.662 130.767 7.441l8.509 9.536c.173.193.253.423.238.683s-.121.48-.315.654l-8.265 7.375-9.139-10.242c-14.312-16.039-34.041-25.546-55.555-26.77-21.52-1.236-42.195 5.982-58.233 20.295-21.177 18.896-30.743 47.41-25.482 75.192-3.372 4.263-6.378 8.743-9.03 13.387-11.183-34.415-1.315-72.728 26.505-97.551zm5.395 81.679c38.104-34.002 96.767-30.663 130.768 7.44l8.508 9.534c.348.391.313.99-.076 1.339l-8.265 7.375-9.139-10.242c-14.312-16.039-34.041-25.546-55.555-26.77-21.521-1.235-42.195 5.982-58.233 20.295-21.188 18.907-30.755 47.44-25.474 75.235-3.338 4.248-6.343 8.733-8.997 13.412-11.22-34.431-1.374-72.778 26.463-97.618zm-3.885 69.873c-.079-6.632.839-13.192 2.699-19.467l4.213 13.881c-2.367 1.758-4.672 3.621-6.912 5.586zm119.884 37.24 9.139 10.242-11.287 10.072-9.23-30.417c4.121 2.886 7.945 6.256 11.378 10.103zm-29.768-19.044 15.284 50.365-12.683 11.317-19.564-64.468c.505.017 1.009.021 1.515.049 5.312.303 10.486 1.234 15.448 2.737zm-22.418 84.006-24.501-80.737c4.673-2.183 9.589-3.789 14.658-4.809l22.527 74.229zm-40.425-70.231c.894-.798 1.809-1.562 2.738-2.305l25.353 83.542-12.683 11.318-24.895-82.035c2.748-3.794 5.91-7.328 9.487-10.52zm-21.781 45.215c.293-5.144 1.183-10.156 2.602-14.974l21.513 70.89-7.603-8.521c-11.644-13.05-17.508-29.881-16.512-47.395z"/><path d="m319.727 487.34c-20.844 5.761-42.449 8.682-64.216 8.682-64.243 0-124.641-25.018-170.066-70.443-45.427-45.427-70.445-105.825-70.445-170.068s25.018-124.64 70.444-170.066c45.426-45.427 105.824-70.445 170.067-70.445s124.641 25.018 170.067 70.444c45.427 45.426 70.444 105.823 70.444 170.066 0 21.816-2.935 43.472-8.723 64.364-1.106 3.991 1.233 8.124 5.226 9.229 3.991 1.108 8.124-1.232 9.229-5.226 6.149-22.196 9.268-45.198 9.268-68.368 0-68.249-26.578-132.414-74.838-180.674-48.259-48.256-112.424-74.835-180.673-74.835s-132.414 26.579-180.674 74.837c-48.259 48.26-74.837 112.425-74.837 180.674 0 68.25 26.578 132.414 74.837 180.674 48.26 48.26 112.424 74.837 180.674 74.837 23.116 0 46.066-3.104 68.212-9.225 3.992-1.103 6.334-5.234 5.23-9.227-1.102-3.991-5.231-6.337-9.226-5.23z"/><path d="m90.374 142.759c-3.505-2.21-8.137-1.159-10.345 2.345-20.822 33.031-31.829 71.209-31.829 110.407 0 48.589 17.165 95.838 48.332 133.042 1.483 1.771 3.61 2.684 5.753 2.684 1.699 0 3.408-.574 4.812-1.751 3.175-2.66 3.593-7.39.933-10.565-28.909-34.509-44.83-78.337-44.83-123.41 0-36.363 10.207-71.775 29.519-102.407 2.209-3.504 1.159-8.136-2.345-10.345z"/><path d="m449.775 303.051c.507.104 1.012.153 1.509.153 3.489 0 6.615-2.449 7.341-6.001 2.784-13.637 4.196-27.664 4.196-41.692 0-28.761-5.783-56.605-17.188-82.76-11.013-25.256-26.729-47.771-46.713-66.919-2.989-2.864-7.738-2.767-10.604.227-2.866 2.99-2.765 7.738.227 10.604 38.226 36.629 59.278 85.94 59.278 138.849 0 13.022-1.31 26.04-3.894 38.69-.827 4.058 1.791 8.02 5.848 8.849z"/><path d="m324.283 75.876c14.068 5.39 27.539 12.479 40.037 21.07 1.299.893 2.777 1.32 4.242 1.32 2.387 0 4.733-1.137 6.188-3.252 2.347-3.414 1.481-8.083-1.932-10.43-13.473-9.261-27.997-16.904-43.17-22.717-3.871-1.482-8.206.454-9.687 4.321-1.481 3.87.454 8.206 4.322 9.688z"/><path d="m294.081 443.952c-12.616 2.568-25.593 3.87-38.57 3.87-8.011 0-16.106-.503-24.062-1.496-4.099-.503-7.857 2.402-8.371 6.514-.513 4.11 2.403 7.858 6.514 8.371 8.569 1.069 17.29 1.611 25.919 1.611 13.979 0 27.963-1.403 41.562-4.171 4.059-.826 6.68-4.786 5.854-8.846-.826-4.058-4.787-6.676-8.846-5.853z"/><path d="m411.106 311.417c-55.023 0-99.789 44.765-99.789 99.788s44.766 99.788 99.789 99.788 99.788-44.765 99.788-99.788-44.764-99.788-99.788-99.788zm0 184.577c-46.753 0-84.789-38.036-84.789-84.788s38.036-84.788 84.789-84.788c46.752 0 84.788 38.036 84.788 84.788s-38.036 84.788-84.788 84.788z"/><path d="m411.106 341.417c-38.481 0-69.789 31.307-69.789 69.788s31.308 69.788 69.789 69.788 69.788-31.307 69.788-69.788-31.306-69.788-69.788-69.788zm0 124.577c-30.211 0-54.789-24.578-54.789-54.788s24.578-54.788 54.789-54.788c30.21 0 54.788 24.578 54.788 54.788s-24.578 54.788-54.788 54.788z"/><path d="m388.292 298.014c1.99 1.345 4.287 2.043 6.637 2.043.759 0 1.524-.073 2.286-.221l5.407-1.046c5.885-1.14 10.016-6.508 9.609-12.485l-9.126-134.896c-.354-5.237-4.182-9.686-9.308-10.817l-23.597-5.206c-3.927-.862-7.988.293-10.868 3.098-2.381 2.321-3.634 5.482-3.572 8.738l-21.831-4.817c-3.922-.863-7.987.293-10.867 3.098-2.879 2.807-4.142 6.838-3.378 10.784l11.131 57.518c.786 4.066 4.72 6.727 8.788 5.938 4.066-.787 6.726-4.722 5.938-8.788l-10.234-52.885 16.718 3.689 8.604 127.149-8.969-46.339c-.786-4.066-4.712-6.72-8.788-5.938-4.067.787-6.726 4.722-5.938 8.788l10.066 52.014c1.1 5.682 6.095 9.641 11.681 9.641.747 0 1.504-.071 2.264-.218l5.405-1.047c5.883-1.139 10.016-6.506 9.611-12.485l-4.232-62.545 11.54 59.634c.605 3.122 2.388 5.821 5.023 7.601zm.005-143.274 8.602 127.143-25.319-130.831zm-17.614-8.323c.001.003.001.006.002.009z"/></g></g></svg>