<svg id="Layer_1" height="512" viewBox="0 0 512 512" width="512" xmlns="http://www.w3.org/2000/svg" data-name="Layer 1"><path d="m179.547 18.464c11.264-8.622 27.087 1.807 23.6 15.565l-4.659 18.4-.05.457a48.739 48.739 0 0 0 -6.059-.368 49.513 49.513 0 0 0 -30.524 10.46l-.318-.418-13.567-19.075c-8.145-11.463 2.562-26.809 16.131-23.124l2.414.665a15.091 15.091 0 0 0 3.923.527 14.967 14.967 0 0 0 9.109-3.089z" fill="#d05458"/><path d="m181.405 52.623-13.569-19.071a14.588 14.588 0 0 1 -2.217-12.773l-1.518-.418c-13.568-3.685-24.276 11.661-16.131 23.124l13.569 19.071.317.418c8.423-6.556 19.549-10.351 19.549-10.351z" fill="#a54652"/><path d="m84.716 64.414c13.36-4.778 25.25 9.993 17.731 22.021l-10.053 16.092-.179.417a50.368 50.368 0 0 0 -5.661-2.2 49.515 49.515 0 0 0 -32.273.646l-.169-.5-7.092-22.29c-4.261-13.4 10.619-24.745 22.409-17.1l2.106 1.371a15.03 15.03 0 0 0 8.155 2.414 14.834 14.834 0 0 0 5.026-.871z" fill="#c66558"/><path d="m73.978 90.965-7.091-22.3a14.8 14.8 0 0 1 -.2-8.576c-11.211-4.476-23.603 6.133-19.667 18.511l7.092 22.3.169.5a100.334 100.334 0 0 0 19.697-10.435z" fill="#ea836f"/><path d="m229.391 378.288a49.8 49.8 0 0 1 33.166 59.31c-.268 1.113-.576 2.215-.933 3.318a49.848 49.848 0 0 1 -62.624 32.233c-142.057-45.513-220.587-198.115-175.074-340.167a49.812 49.812 0 0 1 62.628-32.233 50.368 50.368 0 0 1 5.661 2.2 49.82 49.82 0 0 1 26.571 60.433c-28.756 89.74 20.86 186.15 110.605 214.906z" fill="#ea836f"/><path d="m218.862 463.216c-142.053-45.516-220.583-198.116-175.07-340.167a49.555 49.555 0 0 1 15.781-23.259 49.815 49.815 0 0 0 -35.647 33.192c-45.513 142.052 33.017 294.653 175.074 340.167a49.635 49.635 0 0 0 43.149-6.228c1.269-.858 2.5-1.782 3.685-2.757a49.485 49.485 0 0 1 -26.972-.948z" fill="#c66558"/><path d="m462.778 319.584c.089 1.142.129 2.284.129 3.447a49.807 49.807 0 0 1 -49.805 49.8c-149.164 0-270.526-121.352-270.526-270.517a49.823 49.823 0 0 1 49.8-49.8 48.739 48.739 0 0 1 6.059.368 49.811 49.811 0 0 1 43.746 49.436c0 94.235 76.673 170.908 170.917 170.908a49.8 49.8 0 0 1 49.68 46.358z" fill="#d05458"/><path d="m432.969 362.9c-149.169 0-270.527-121.35-270.527-270.515a49.659 49.659 0 0 1 18.222-38.474 49.839 49.839 0 0 0 -38.088 48.407c0 149.165 121.362 270.517 270.527 270.517a49.591 49.591 0 0 0 31.62-11.335 49.873 49.873 0 0 1 -11.754 1.4z" fill="#a54652"/><path d="m296.439 454.981a13.033 13.033 0 0 1 -7.251 11.791 13.35 13.35 0 0 0 -7.122 10.082l-1.113 8.254c-1.678 12.466-18.108 15.893-24.624 5.135l-13.777-22.736-.407-.586a49.51 49.51 0 0 0 19.479-26c.357-1.1.665-2.2.933-3.318l.2.05 22.727 4.132a13.187 13.187 0 0 1 10.955 13.196z" fill="#c66558"/><path d="m276.2 480.311-13.777-22.737s-11.364 3.327-20.273 9.347l.407.586 13.777 22.737c6.516 10.757 22.945 7.33 24.624-5.136l.012-.088a13.3 13.3 0 0 1 -4.77-4.709z" fill="#ea836f"/><path d="m501 329.914a13.039 13.039 0 0 1 -3.953 9.327 13.32 13.32 0 0 0 -3.705 11.771l1.46 8.2c2.195 12.386-12.4 20.66-21.893 12.406l-20.054-17.452-.547-.427a49.563 49.563 0 0 0 10.6-30.713c0-1.163-.04-2.305-.129-3.447l.208-.01 22.906-3a13.341 13.341 0 0 1 15.107 13.345z" fill="#d05458"/><path d="m492.776 361.69-20.056-17.452s-13.766 1.043-20.412 9.506l.546.427 20.055 17.452c8.426 7.324 20.854 1.631 22.017-8.4a14 14 0 0 1 -2.15-1.533z" fill="#a54652"/><g fill="#284268"><path d="m286.754 437.126-17.17-3.126a56.22 56.22 0 0 0 -38.541-60.6 166.259 166.259 0 0 1 -107.468-208.817 56.232 56.232 0 0 0 -24.05-64.944l6.976-11.17a21.069 21.069 0 0 0 -24.957-31 9.119 9.119 0 0 1 -7.988-.934l-2.116-1.375a21.069 21.069 0 0 0 -31.55 24.059l5.654 17.771c-.373.182-.751.352-1.122.543a55.784 55.784 0 0 0 -27.773 32.787 278.655 278.655 0 0 0 180.13 350.005 55.8 55.8 0 0 0 42.821-3.545c.151-.078.295-.165.447-.244l11.153 18.394a19.18 19.18 0 0 0 16.5 9.373 19.976 19.976 0 0 0 4.085-.425 19.213 19.213 0 0 0 15.29-16.425l1.121-8.312a7.434 7.434 0 0 1 3.967-5.617 19.429 19.429 0 0 0 -5.4-36.4zm-232.287-371.506a8.879 8.879 0 0 1 10.438-.4l2.116 1.38a21.185 21.185 0 0 0 18.56 2.171 9.069 9.069 0 0 1 10.742 13.342l-7.714 12.352c-.455-.159-.9-.329-1.366-.477a55.774 55.774 0 0 0 -30.409-1.095l-5.509-17.312a8.879 8.879 0 0 1 3.142-9.961zm179.643 400.49a43.849 43.849 0 0 1 -33.669 2.787 266.653 266.653 0 0 1 -172.364-334.915 44.14 44.14 0 1 1 84.07 26.939 178.259 178.259 0 0 0 115.234 223.906 44.141 44.141 0 0 1 6.729 81.283zm52.562-3.259a19.44 19.44 0 0 0 -10.372 14.687l-1.12 8.313a7.429 7.429 0 0 1 -13.716 2.858l-11.433-18.861a55.672 55.672 0 0 0 16.758-24.156l17.823 3.241a7.429 7.429 0 0 1 2.065 13.918z"/><path d="m40.5 202.748a5.8 5.8 0 0 0 -6-5.748h-.009a5.793 5.793 0 0 0 -5.991 5.764 279.057 279.057 0 0 0 35.161 134.788 5.942 5.942 0 0 0 5.252 3.028 6.009 6.009 0 0 0 2.906-.786 5.877 5.877 0 0 0 2.334-8.052 267.082 267.082 0 0 1 -33.653-128.994z"/><path d="m34.96 185.227c.173.014.345.022.516.022a6 6 0 0 0 5.971-5.492c.3-3.487.668-7.009 1.1-10.468a6 6 0 1 0 -11.906-1.495c-.455 3.617-.842 7.3-1.153 10.945a6 6 0 0 0 5.472 6.488z"/><path d="m169.128 166.419a279.518 279.518 0 0 0 74.654 117.745 6 6 0 1 0 8.218-8.748 267.49 267.49 0 0 1 -71.45-112.674 6 6 0 1 0 -11.422 3.677z"/><path d="m172.368 130.484a6 6 0 1 0 -11.795 2.211c.675 3.6 1.43 7.226 2.243 10.775a6 6 0 0 0 11.7-2.681c-.781-3.389-1.502-6.861-2.148-10.305z"/><path d="m486.657 311.028-17.3 2.266a56.223 56.223 0 0 0 -55.2-45.954c-91.566 0-166.061-74.495-166.061-166.062a56.231 56.231 0 0 0 -42.721-54.507l3.235-12.766a21.069 21.069 0 0 0 -33.229-21.905 9.121 9.121 0 0 1 -7.894 1.548l-2.432-.663a21.069 21.069 0 0 0 -22.7 32.539l11.01 15.484a57.548 57.548 0 0 0 -17.546 41.473 277.093 277.093 0 0 0 14.531 87.605 6 6 0 0 0 11.376-3.83 265.169 265.169 0 0 1 -13.908-84.037c-.085-24.229 19.628-44.927 43.857-45.079a44.19 44.19 0 0 1 44.423 44.14c0 98.071 79.694 177.879 177.723 178.062 24.373.045 44.532 19.865 44.479 44.238a44.192 44.192 0 0 1 -44.141 44.044c-103.32 0-193.079-59.14-237.226-145.342a5.989 5.989 0 0 0 -7.539-2.832 6.007 6.007 0 0 0 -3.14 8.313c45.976 89.765 139.301 151.437 246.801 151.856a57.408 57.408 0 0 0 40.882-17.041l16.5 14.346a19.3 19.3 0 0 0 12.7 4.815 19.5 19.5 0 0 0 9.628-2.572 19.216 19.216 0 0 0 9.548-20.308l-1.469-8.258a7.431 7.431 0 0 1 2.064-6.559 19.429 19.429 0 0 0 -16.25-33.014zm-289.681-279.971-3.576 14.117c-.472-.012-.942-.037-1.418-.037a54.692 54.692 0 0 0 -29.182 8.434l-10.669-15a9.069 9.069 0 0 1 9.769-14.009l2.433.662a21.2 21.2 0 0 0 18.338-3.6 9.069 9.069 0 0 1 14.3 9.429zm297.453 304.493a19.444 19.444 0 0 0 -5.4 17.153l1.47 8.258a7.428 7.428 0 0 1 -12.188 6.908l-16.841-14.644a54.77 54.77 0 0 0 8.78-27.946l17.967-2.353a7.429 7.429 0 0 1 6.213 12.624z"/></g></svg>