<svg id="Layer_1" enable-background="new 0 0 512 512" height="512" viewBox="0 0 512 512" width="512" xmlns="http://www.w3.org/2000/svg"><g><g><path d="m285.284 247.445c0 75.45-1.91 161.83-1.91 161.83-8.29 2.92-16.15 3.9-22.95 3.92-13.77.03-23.23-3.92-23.23-3.92s-1.91-86.38-1.91-161.83 1.91-161.84 1.91-161.84 9.46-3.94 23.23-3.91c6.8.02 14.66 1 22.95 3.91 0 0 1.91 86.39 1.91 161.84z" fill="#97b0bf"/><path d="m285.284 247.445c0 75.45-1.91 161.83-1.91 161.83-8.29 2.92-16.15 3.9-22.95 3.92.54-27.34 1.86-100.31 1.86-165.75s-1.32-138.41-1.86-165.75c6.8.02 14.66 1 22.95 3.91 0 0 1.91 86.39 1.91 161.84z" fill="#7c97a5"/></g><g><path d="m285.797 78.534c-27.475-9.649-50.586-.251-51.556.154-2.738 1.143-4.545 3.791-4.61 6.757-.004.171-.383 17.397-.797 42.732-.067 4.142 3.234 7.555 7.376 7.622 4.177.04 7.554-3.236 7.622-7.376.277-16.97.539-30.291.682-37.271 6.149-1.562 17.933-3.447 31.413.043.411 20.104 1.794 92.5 1.794 156.249 0 9.346-.03 19.449-.09 30.029-.023 4.142 3.315 7.519 7.458 7.542h.043c4.122 0 7.476-3.33 7.499-7.458.06-10.608.09-20.739.09-30.113 0-74.667-1.892-161.135-1.911-162-.07-3.122-2.066-5.875-5.013-6.91z"/><path d="m284.881 309.142h-.085c-4.104 0-7.452 3.304-7.498 7.417-.438 39.697-1.105 74.214-1.37 87.136-13.489 3.494-25.277 1.602-31.413.045-.41-20.045-1.794-92.499-1.794-156.295 0-24.299.197-52.24.587-83.049.053-4.142-3.263-7.542-7.404-7.594-4.154-.051-7.542 3.263-7.594 7.404-.391 30.871-.589 58.876-.589 83.238 0 74.668 1.891 161.136 1.91 162.001.065 2.965 1.872 5.613 4.61 6.756.53.221 7.651 3.121 18.479 4.141v84.158c0 4.143 3.357 7.5 7.5 7.5s7.5-3.357 7.5-7.5v-84.166c5.649-.544 11.748-1.756 18.077-3.979 2.947-1.035 4.943-3.788 5.013-6.91.01-.419.932-42.421 1.488-92.721.045-4.141-3.276-7.536-7.417-7.582z"/><path d="m321.292 121.313c.433 3.83 3.678 6.658 7.442 6.658.282 0 .566-.016.853-.049 1.547-.175 38.295-4.451 75.671-19.03 3.859-1.505 5.767-5.854 4.262-9.713-1.506-3.859-5.853-5.768-9.713-4.262-35.489 13.844-71.548 18.06-71.908 18.101-4.115.466-7.073 4.179-6.607 8.295z"/><path d="m329.418 169.254c-4.053.851-6.647 4.824-5.798 8.877.74 3.536 3.859 5.964 7.334 5.964.509 0 1.025-.052 1.543-.16.315-.066 31.168-6.407 75.079-6.407 1.283 0 2.58.005 3.884.017h.065c4.112 0 7.464-3.316 7.499-7.436.035-4.143-3.294-7.528-7.436-7.564-47.668-.398-80.785 6.418-82.17 6.709z"/><path d="m414.894 253.516c0-4.143-3.357-7.5-7.5-7.5-38.927 0-72.044-20.985-72.374-21.197-3.477-2.238-8.115-1.24-10.361 2.237-2.247 3.479-1.247 8.122 2.232 10.369 1.492.963 37.036 23.591 80.503 23.591 4.142 0 7.5-3.358 7.5-7.5z"/><path d="m441.381 328.451c-9.829-5.804-20.343-11.341-31.248-16.459-3.749-1.759-8.216-.147-9.976 3.603s-.147 8.216 3.603 9.976c10.479 4.919 20.571 10.233 29.994 15.797 1.197.707 2.511 1.043 3.807 1.043 2.566 0 5.066-1.318 6.465-3.688 2.106-3.568.921-8.166-2.645-10.272z"/><path d="m331.315 284.199c-4.058-.866-8.034 1.712-8.903 5.761-.868 4.049 1.71 8.036 5.759 8.906.175.038 17.85 3.881 42.566 12.952.853.313 1.726.461 2.583.461 3.057 0 5.928-1.882 7.042-4.918 1.427-3.889-.568-8.197-4.457-9.625-25.788-9.464-43.835-13.375-44.59-13.537z"/><path d="m414.352 414.052c-52.945-21.552-85.036-69.239-85.354-69.719-2.286-3.451-6.936-4.396-10.389-2.115-3.456 2.285-4.405 6.938-2.121 10.393 1.396 2.112 34.85 51.985 92.21 75.334.926.377 1.883.556 2.824.556 2.96 0 5.765-1.764 6.949-4.675 1.561-3.837-.283-8.213-4.119-9.774z"/><path d="m192.99 113.67c-1.377-.641-34.215-15.734-76.33-19.24-4.136-.34-7.753 2.725-8.097 6.853-.343 4.128 2.725 7.753 6.853 8.097 39.2 3.262 70.709 17.644 71.246 17.891 1.023.477 2.1.702 3.159.702 2.827 0 5.534-1.606 6.805-4.338 1.747-3.757.12-8.218-3.636-9.965z"/><path d="m107.045 177.544h.065c45.949-.415 78.639 6.322 78.963 6.391.519.108 1.036.161 1.546.161 3.473 0 6.59-2.427 7.332-5.961.852-4.054-1.745-8.03-5.799-8.881-1.385-.29-34.485-7.135-82.171-6.71-4.142.036-7.471 3.422-7.436 7.564.036 4.121 3.388 7.436 7.5 7.436z"/><path d="m111.182 266.016c1.623 0 3.259-.524 4.633-1.606 29.504-23.216 71.774-25.772 72.198-25.796 4.133-.222 7.306-3.75 7.088-7.884-.217-4.136-3.743-7.35-7.884-7.095-1.918.101-47.366 2.773-80.678 28.987-3.256 2.562-3.817 7.276-1.256 10.531 1.48 1.881 3.678 2.863 5.899 2.863z"/><path d="m195.023 287.314c-2.33-3.424-6.996-4.306-10.418-1.981-.454.309-46.06 30.917-104.368 36.897-4.12.423-7.118 4.105-6.695 8.227.396 3.86 3.653 6.735 7.452 6.735.256 0 .514-.014.774-.04 62.218-6.381 109.309-38.076 111.283-39.423 3.421-2.332 4.303-6.993 1.972-10.415z"/><path d="m121.563 422.559c-3.585-2.071-8.173-.845-10.246 2.742-5.027 8.701-9.422 17.727-13.062 26.825-1.538 3.846.333 8.21 4.179 9.749.913.365 1.855.538 2.783.538 2.976 0 5.793-1.784 6.966-4.717 3.374-8.435 7.452-16.81 12.122-24.892 2.073-3.585.845-8.173-2.742-10.245z"/><path d="m192.08 341.978c-1.234.712-30.551 17.818-58.506 51.487-2.646 3.187-2.207 7.915.979 10.562 1.4 1.163 3.099 1.729 4.787 1.729 2.153 0 4.291-.923 5.774-2.709 26.145-31.489 54.184-47.916 54.464-48.078 3.583-2.071 4.813-6.654 2.744-10.24-2.068-3.589-6.654-4.82-10.242-2.751z"/><path d="m189.826 434.068h-7.5v-7.5c0-4.143-3.357-7.5-7.5-7.5s-7.5 3.357-7.5 7.5v7.5h-7.5c-4.143 0-7.5 3.357-7.5 7.5s3.357 7.5 7.5 7.5h7.5v7.501c0 4.143 3.357 7.5 7.5 7.5s7.5-3.357 7.5-7.5v-7.501h7.5c4.143 0 7.5-3.357 7.5-7.5s-3.357-7.5-7.5-7.5z"/><path d="m325.902 48.664h7.5v7.5c0 4.143 3.357 7.5 7.5 7.5s7.5-3.357 7.5-7.5v-7.5h7.5c4.143 0 7.5-3.357 7.5-7.5s-3.357-7.5-7.5-7.5h-7.5v-7.501c0-4.143-3.357-7.5-7.5-7.5s-7.5 3.357-7.5 7.5v7.501h-7.5c-4.143 0-7.5 3.357-7.5 7.5s3.358 7.5 7.5 7.5z"/><path d="m149.394 35.217h12.717v12.717c0 4.143 3.357 7.5 7.5 7.5s7.5-3.357 7.5-7.5v-12.717h12.716c4.143 0 7.5-3.357 7.5-7.5s-3.357-7.5-7.5-7.5h-12.717v-12.717c0-4.143-3.357-7.5-7.5-7.5s-7.5 3.357-7.5 7.5v12.717h-12.717c-4.143 0-7.5 3.357-7.5 7.5s3.358 7.5 7.501 7.5z"/><circle cx="56.175" cy="270.97" r="7.5"/><circle cx="111.175" cy="211.52" r="7.5"/><circle cx="68.175" cy="141.859" r="7.5"/><circle cx="90.615" cy="385.27" r="7.5"/><circle cx="361.915" cy="444.06" r="7.5"/><circle cx="455.825" cy="291.529" r="7.5"/><circle cx="407.396" cy="211.52" r="7.5"/><circle cx="450.396" cy="141.859" r="7.5"/><circle cx="407.396" cy="51.21" r="7.5"/><circle cx="282.085" cy="20.5" r="7.5"/><circle cx="233.045" cy="41.16" r="7.5"/><circle cx="111.175" cy="51.21" r="7.5"/></g></g></svg>