<svg id="Layer_1" height="512" viewBox="0 0 512 512" width="512" xmlns="http://www.w3.org/2000/svg" data-name="Layer 1"><path d="m456.27 225.6h-364.92a30 30 0 0 0 -30 30l.11 50.53 424.58 1.21.23-51.74a30 30 0 0 0 -30-30z" fill="#75967a"/><path d="m121.35 225.6h-30a30 30 0 0 0 -30 30l.11 50.53h30l-.11-50.53a30 30 0 0 1 30-30z" fill="#95b799"/><path d="m400.79 186.14h46.46v39.46h-46.46z" fill="#6d7486"/><path d="m185.91 150.35h181.91v47.58h-181.91z" fill="#75967a"/><path d="m46.48 187.93v1h-31.9v-29.58h31.9z" fill="#bfb363"/><path d="m206 197.93h141.21v27.67h-141.21z" fill="#797e37"/><path d="m226 122.49h101.21v27.86h-101.21z" fill="#797e37"/><path d="m185.91 159.35v29.58h-.58-138.85v-1-28.58h138.85z" fill="#7c7e38"/><path d="m185.33 225.79v27.87h-72.47v-27.87-.19h72.47z" fill="#9ac5a1"/><path d="m497.42 303.11v53.4l-9.7 6.42a159.7 159.7 0 0 1 -88.24 26.58h-253.75a159.758 159.758 0 0 1 -88.25-26.58l-9.69-6.42v-53.4a155.011 155.011 0 0 1 13.67-7.98 159.667 159.667 0 0 1 73.69-18.02h274.9a159.748 159.748 0 0 1 75.99 19.23q5.82 3.135 11.38 6.77z" fill="#6a6930"/><path d="m413.82 296.67a37.075 37.075 0 1 1 -37.07 37.07 37.076 37.076 0 0 1 37.07-37.07z" fill="#bfb363"/><path d="m319.67 296.67a37.075 37.075 0 1 1 -37.08 37.07 37.076 37.076 0 0 1 37.08-37.07z" fill="#bfb363"/><path d="m225.51 296.67a37.075 37.075 0 1 1 -37.07 37.07 37.076 37.076 0 0 1 37.07-37.07z" fill="#bfb363"/><path d="m131.38 296.67a37.075 37.075 0 1 1 -37.07 37.07 37.076 37.076 0 0 1 37.07-37.07z" fill="#bfb363"/><circle cx="413.97" cy="333.74" fill="#7c7e38" r="11"/><circle cx="319.67" cy="333.74" fill="#7c7e38" r="11"/><circle cx="226" cy="333.74" fill="#7c7e38" r="11"/><circle cx="131.38" cy="333.74" fill="#7c7e38" r="11"/><path d="m185.91 150.35h30v47.58h-30z" fill="#95b799"/><path d="m206 197.93h30v27.67h-30z" fill="#9ea04a"/><path d="m226 122.49h30v27.86h-30z" fill="#9ea04a"/><path d="m77.79 356.51v-53.4a155.011 155.011 0 0 1 13.67-7.98 159.667 159.667 0 0 1 73.69-18.02h-30a159.667 159.667 0 0 0 -73.69 18.02 155.011 155.011 0 0 0 -13.67 7.98v53.4l9.69 6.42a159.758 159.758 0 0 0 88.25 26.58h30a159.758 159.758 0 0 1 -88.25-26.58z" fill="#595726"/><g fill="#284268"><path d="m263.959 255.053h7.15a6 6 0 1 0 0-12h-7.15a6 6 0 1 0 0 12z"/><path d="m291.07 255.053h143.886a6 6 0 0 0 0-12h-143.886a6 6 0 0 0 0 12z"/><path d="m500.7 298.082c-2.76-1.8-5.576-3.5-8.423-5.123v-37.359a36.04 36.04 0 0 0 -36-36h-3.027v-33.459a6 6 0 0 0 -6-6h-46.458a6 6 0 0 0 -6 6v33.459h-41.581v-15.668h14.6a6 6 0 0 0 6-6v-47.582a6 6 0 0 0 -6-6h-34.6v-21.86a6 6 0 0 0 -6-6h-101.211a6 6 0 0 0 -6 6v21.86h-34.092a6 6 0 0 0 -6 6v3h-165.325a6 6 0 0 0 -6 6v29.582a6 6 0 0 0 6 6h165.325v3a6 6 0 0 0 6 6h14.092v15.668h-108.655a36.04 36.04 0 0 0 -36 36v35.988q-5.52 3.034-10.835 6.494a6 6 0 0 0 -2.72 5.023v53.4a6 6 0 0 0 2.687 5l9.694 6.423a165.289 165.289 0 0 0 91.557 27.575h253.751a165.292 165.292 0 0 0 91.557-27.575l9.694-6.423a6 6 0 0 0 2.687-5v-53.4a6 6 0 0 0 -2.717-5.023zm-460.221-115.15h-19.9v-17.582h19.9zm139.429 0h-127.429v-17.582h127.429zm226.884 9.209h34.458v27.459h-34.458zm-174.792-63.651h89.209v15.86h-89.209zm-40.094 63.442v-35.582h169.909v35.582zm149.3 12v15.668h-129.206v-15.668zm-222.344 27.668h60.465v16.059h-60.465zm-51.517 24a24.027 24.027 0 0 1 24-24h15.517v22.059a6 6 0 0 0 6 6h72.465a6 6 0 0 0 6-6v-22.059h264.947a24.027 24.027 0 0 1 24 24v31.114a165.336 165.336 0 0 0 -70.222-15.609h-274.9a165.334 165.334 0 0 0 -67.809 14.518zm424.072 97.687-7.008 4.644a153.333 153.333 0 0 1 -84.93 25.579h-253.751a153.328 153.328 0 0 1 -84.928-25.579l-7.008-4.644v-46.893a153.373 153.373 0 0 1 81.364-23.289h274.9a153.376 153.376 0 0 1 81.365 23.289z"/><path d="m225.514 290.668a43.077 43.077 0 1 0 43.077 43.077 43.125 43.125 0 0 0 -43.077-43.077zm0 74.154a31.077 31.077 0 1 1 31.077-31.077 31.112 31.112 0 0 1 -31.077 31.077z"/><path d="m131.384 290.668a43.077 43.077 0 1 0 43.077 43.077 43.125 43.125 0 0 0 -43.077-43.077zm0 74.154a31.077 31.077 0 1 1 31.077-31.077 31.112 31.112 0 0 1 -31.077 31.077z"/><path d="m319.669 290.668a43.077 43.077 0 1 0 43.077 43.077 43.126 43.126 0 0 0 -43.077-43.077zm0 74.154a31.077 31.077 0 1 1 31.077-31.077 31.112 31.112 0 0 1 -31.077 31.077z"/><path d="m370.746 333.745a43.077 43.077 0 1 0 43.077-43.077 43.125 43.125 0 0 0 -43.077 43.077zm43.077-31.077a31.077 31.077 0 1 1 -31.077 31.077 31.112 31.112 0 0 1 31.077-31.077z"/><path d="m131.384 316.745a17 17 0 1 0 17 17 17.019 17.019 0 0 0 -17-17zm0 22a5 5 0 1 1 5-5 5.006 5.006 0 0 1 -5 5z"/><path d="m226 316.745a17 17 0 1 0 17 17 17.019 17.019 0 0 0 -17-17zm0 22a5 5 0 1 1 5-5 5.006 5.006 0 0 1 -5 5z"/><path d="m319.669 316.745a17 17 0 1 0 17 17 17.019 17.019 0 0 0 -17-17zm0 22a5 5 0 1 1 5-5 5.006 5.006 0 0 1 -5 5z"/><path d="m413.973 350.745a17 17 0 1 0 -17-17 17.019 17.019 0 0 0 17 17zm0-22a5 5 0 1 1 -5 5 5.006 5.006 0 0 1 5-5z"/></g></svg>