<svg id="Layer_1" enable-background="new 0 0 512 512" height="512" viewBox="0 0 512 512" width="512" xmlns="http://www.w3.org/2000/svg"><g><g><path d="m479.563 105.242-72.803-72.803c16.333-15.133 27.18-24.933 27.18-24.933 20.393 14.962 36.989 31.134 48.946 44.222 13.965 15.266 21.609 26.333 21.609 26.333s-9.8 10.846-24.932 27.181z" fill="#58768c"/><path d="m504.495 78.06s-9.801 10.847-24.932 27.181l-24.042-24.041c11.886-12.834 23.101-24.897 27.365-29.472 13.966 15.266 21.609 26.332 21.609 26.332z" fill="#3e5868"/><path d="m482.462 218.533-189.002-189.001s48.387-56.151 137.242 21.362c5.105 4.441 10.338 9.334 15.705 14.701 98.846 98.845 36.055 152.938 36.055 152.938z" fill="#97b0bf"/><path d="m482.462 218.533-30.405-30.405s56.158-48.38-21.355-137.234c5.105 4.441 10.338 9.334 15.705 14.701 98.846 98.845 36.055 152.938 36.055 152.938z" fill="#7c97a5"/><path d="m430.992 275.901s-102.757 95.035-229.038 194.885c-14.192 11.222-28.68 22.5-43.36 33.715 0 0-10.882-8.832-27.04-23.052-14.503-12.763-33.241-29.861-52.191-48.811-40.058-40.058-71.863-79.232-71.863-79.232 11.208-14.672 22.486-29.147 33.701-43.331 99.85-126.296 194.899-229.066 194.899-229.066z" fill="#97b0bf"/><path d="m430.992 275.901s-102.757 95.035-229.038 194.885c-14.192 11.222-28.68 22.5-43.36 33.715 0 0-10.882-8.832-27.04-23.052 128.198-102.091 230.141-192.014 273.77-231.216z" fill="#7c97a5"/><path d="m201.953 470.786c-14.192 11.222-28.68 22.5-43.36 33.715 0 0-10.882-8.832-27.04-23.052-14.503-12.763-33.241-29.861-52.191-48.811-40.057-40.058-71.862-79.232-71.862-79.232 11.208-14.672 22.486-29.147 33.701-43.331l.092.205s33.743 41.634 76.268 84.159c20.605 20.605 41.012 39.145 56.554 52.792 16.539 14.503 27.598 23.469 27.598 23.469z" fill="#58768c"/><path d="m442.793 285.51s-10.097-9.362-25.484-23.886c-22.111-20.852-55.126-52.354-84.853-82.081-50.423-50.423-105.966-110.335-105.966-110.335 22.818-34.584 52.856-52.856 52.856-52.856s59.913 55.543 110.337 105.966c29.741 29.741 61.263 62.777 82.123 84.881 14.495 15.372 23.843 25.456 23.843 25.456s-18.271 30.037-52.856 52.855z" fill="#dcf8ff"/><path d="m495.65 232.654s-18.271 30.038-52.856 52.856c0 0-10.097-9.362-25.484-23.886 31.212-21.1 49.801-47.326 54.497-54.426 14.495 15.373 23.843 25.456 23.843 25.456z" fill="#d2e1f9"/><path d="m201.953 470.786c-14.192 11.222-28.68 22.5-43.36 33.715 0 0-10.882-8.832-27.04-23.052 14.538-11.582 28.744-23.002 42.561-34.217 16.539 14.503 27.598 23.469 27.598 23.469z" fill="#3e5868"/></g><g><path d="m369.313 331.11c-2.727-3.12-7.465-3.439-10.583-.714-38.994 34.067-94.772 81.616-156.758 130.8-11.824-9.84-45.346-38.293-79.11-72.058-33.745-33.745-62.214-67.283-72.059-79.111 9.264-11.678 18.758-23.498 28.436-35.404 2.613-3.214 2.126-7.938-1.089-10.55-3.216-2.615-7.939-2.126-10.55 1.089-23.287 28.646-45.513 56.803-66.06 83.686-2.104 2.754-2.048 6.591.136 9.281.321.396 32.513 39.944 72.382 79.813s79.418 72.061 79.813 72.382c1.375 1.116 3.05 1.677 4.727 1.677 1.604 0 3.208-.513 4.555-1.541 81.025-61.928 156.444-125.957 205.445-168.767 3.12-2.726 3.439-7.464.715-10.583zm-210.536 163.806c-11.426-9.534-42.664-36.135-74.111-67.582s-58.048-62.686-67.582-74.111c7.848-10.227 15.933-20.632 24.221-31.171 11.528 13.753 38.891 45.634 70.95 77.693 32.059 32.058 63.939 59.421 77.693 70.95-10.258 8.068-20.663 16.159-31.171 24.221z"/><path d="m510.669 73.794c-1.105-1.6-27.592-39.547-72.291-72.341-2.869-2.105-6.824-1.905-9.466.482-.099.09-9.158 8.281-22.954 21.023-23.107-14.427-45.356-21.31-66.501-20.521-22.762.845-38.237 10.544-45.969 16.85-5.646-5.282-8.958-8.354-9.046-8.435-2.459-2.279-6.13-2.649-8.996-.908-1.285.782-31.747 19.553-55.216 55.131-1.902 2.885-1.588 6.695.761 9.229.103.111 2.092 2.255 5.581 5.991-14.947 16.357-69.756 76.887-134.32 154.828-2.643 3.189-2.199 7.918.991 10.56 1.399 1.159 3.095 1.725 4.78 1.725 2.156 0 4.297-.925 5.779-2.716 63.301-76.416 117.169-136.011 133.056-153.417 20.207 21.504 56.557 59.831 90.296 93.571 33.74 33.74 72.068 70.09 93.572 90.298-6.094 5.565-17.351 15.78-32.607 29.349-3.095 2.753-3.372 7.494-.62 10.589 1.482 1.666 3.54 2.516 5.607 2.516 1.772 0 3.553-.625 4.981-1.896 16.047-14.272 27.709-24.869 33.618-30.271 3.735 3.488 5.879 5.477 5.99 5.58 1.427 1.322 3.258 2 5.101 2 1.43 0 2.867-.408 4.128-1.239 35.577-23.469 54.348-53.931 55.13-55.216 1.742-2.865 1.371-6.538-.908-8.996-.128-.139-3.189-3.438-8.435-9.044 6.305-7.731 16.007-23.207 16.851-45.97.785-21.152-6.097-43.397-20.521-66.501 12.742-13.795 20.934-22.855 21.023-22.954 2.334-2.586 2.584-6.434.605-9.297zm-16.083 97.798c-.549 17.453-7.381 29.481-12.233 35.884-20.661-21.952-55.201-58.291-87.369-90.459-9.505-9.504-20.046-19.888-31.33-30.862-2.97-2.888-7.718-2.819-10.605.147-2.888 2.97-2.821 7.718.148 10.606 11.234 10.926 21.725 21.26 31.18 30.716 41.968 41.967 88.019 91.092 101.719 105.778-6.014 8.432-20.524 26.816-42.586 42.524-14.725-13.735-63.805-59.747-105.746-101.689-41.938-41.937-87.953-91.021-101.689-105.746 15.709-22.064 34.097-36.576 42.524-42.587 8.085 7.541 26.598 24.875 48.459 45.796 2.992 2.862 7.739 2.758 10.604-.233 2.863-2.993 2.759-7.74-.233-10.604-12.492-11.955-23.895-22.743-32.896-31.213 6.353-4.804 18.269-11.584 35.482-12.223.855-.031 1.713-.047 2.577-.047 29.451 0 63.446 18.451 98.512 53.518 36.443 36.444 54.438 70.322 53.482 100.694zm-14.199-78.29c-7.951-10.837-17.514-21.849-28.677-33.012-11.162-11.162-22.175-20.725-33.012-28.677 6.743-6.217 12.167-11.175 15.701-14.396 30.952 23.723 52.375 49.847 60.413 60.352-3.22 3.534-8.189 8.97-14.425 15.733z"/><path d="m329.084 417.419c-4.133-.097-7.541 3.193-7.639 7.322-.098 4.141 3.181 7.577 7.321 7.675.059.001.179.003.356.003 3.766 0 33.612-.938 68.577-29.285 36.625-29.691 42.667-60.107 42.906-61.388.758-4.056-1.906-7.941-5.957-8.722-4.056-.778-7.978 1.879-8.779 5.926-.053.263-5.581 26.562-37.616 52.531-31.905 25.871-58.651 25.949-59.169 25.938z"/><path d="m490.913 332.34c-4.063-.773-7.981 1.896-8.768 5.953-.085.437-9.097 44.23-62.184 87.269-52.991 42.961-97.646 42.758-98.239 42.79-.053-.001-.105-.002-.157-.002-4.061 0-7.398 3.242-7.495 7.323-.098 4.142 3.181 7.577 7.321 7.675.091.002.273.005.546.005 5.822 0 52.367-1.466 107.472-46.139 57.685-46.767 67.104-94.146 67.476-96.141.76-4.061-1.912-7.959-5.972-8.733z"/><path d="m65.924 200.894c.097 4.078 3.432 7.302 7.494 7.302.046 0 .093 0 .139-.001 4.125-.074 7.415-3.487 7.364-7.613-.004-.268-.033-27.142 25.938-59.176 25.97-32.034 52.269-37.563 52.491-37.607 4.071-.761 6.756-4.679 5.994-8.75-.761-4.072-4.676-6.757-8.75-5.994-1.28.239-31.696 6.281-61.388 42.905-29.692 36.623-29.312 67.632-29.282 68.934z"/><path d="m117.358 66.374c1.396 0 2.808-.389 4.066-1.203 22.191-14.353 38.462-17.624 38.599-17.651 4.071-.761 6.756-4.679 5.994-8.75-.761-4.072-4.674-6.754-8.75-5.994-.769.144-19.096 3.7-43.989 19.8-3.478 2.25-4.474 6.893-2.225 10.371 1.435 2.218 3.845 3.427 6.305 3.427z"/><path d="m22.487 215.592c.06 0 .119-.001.18-.002 4.141-.098 7.419-3.533 7.321-7.675-.011-.441-.538-44.772 42.79-98.217 6.248-7.706 12.871-14.927 19.685-21.459 2.99-2.867 3.09-7.614.224-10.604-2.868-2.989-7.615-3.09-10.604-.224-7.264 6.965-14.314 14.649-20.956 22.84-46.767 57.685-46.183 105.99-46.135 108.018.097 4.081 3.435 7.323 7.495 7.323z"/></g></g></svg>