<svg id="Capa_1" enable-background="new 0 0 511.022 511.022" height="512" viewBox="0 0 511.022 511.022" width="512" xmlns="http://www.w3.org/2000/svg"><g><g><circle cx="255.511" cy="255.511" fill="#f8f7f8" r="248.011"/><path d="m107.432 255.511c0-119.857 85.022-219.856 198.045-242.976-16.14-3.301-32.85-5.035-49.966-5.035-136.972 0-248.011 111.038-248.011 248.011s111.039 248.011 248.011 248.011c17.115 0 33.826-1.734 49.966-5.035-113.023-23.12-198.045-123.119-198.045-242.976z" fill="#efedee"/><path d="m348.47 79.686-233.597 326.015c36.051 29.497 82.74 47.303 133.755 47.303 114.153 0 206.693-89.106 206.693-199.025 0-75.049-43.146-140.385-106.851-174.293z" fill="#fcf6ed"/><path d="m415.92 137.081c-17.793-23.562-40.829-43.225-67.45-57.395l-233.597 326.015c25.035 20.483 55.196 35.329 88.377 42.489 13.01-9.444 21.763-24.472 22.672-41.697l.973-18.462c1.019-19.33 8.51-38.076 21.093-52.784l94.333-110.268 24.448-41.256c7.475-12.614 18.356-22.747 31.47-29.304 7.728-3.863 13.837-9.924 17.681-17.338z" fill="#fcf1de"/><path d="m395.224 104.958-.28-.309c-13.002-14.357-29.686-24.88-48.244-30.429l-30.361-9.079c-4.75-1.42-9.394-3.172-13.899-5.241l-6.507-2.989c-31.721-14.574-68.581-12.612-98.575 5.247-5.342 3.181-10.954 5.886-16.77 8.084l-30.759 11.625c-25.607 9.678-46.481 28.879-58.261 53.589l-12.551 26.328-21.111 47.046c-11.306 25.195-12.342 53.805-2.89 79.752l13.605 37.348c1.237 3.395 2.262 6.863 3.069 10.385l.797 3.478c9.594 41.839 38.689 76.53 78.219 93.261l6.612 2.799c22.369 9.468 47.349-6.154 48.628-30.411l.973-18.463c1.257-23.838 10.35-46.593 25.867-64.732l93.208-108.952 23.566-39.767c9.417-15.891 23.211-28.735 39.733-36.996 11.941-5.97 14.891-21.681 5.931-31.574z" fill="#f4bb87"/><path d="m143.252 338.312-.797-3.478c-.808-3.522-1.833-6.99-3.069-10.385l-13.605-37.348c-9.452-25.947-8.416-54.557 2.89-79.752l21.111-47.046 12.551-26.328c11.78-24.71 32.655-43.911 58.261-53.589l30.759-11.625c5.816-2.198 11.427-4.903 16.77-8.084 5.401-3.216 11.017-5.923 16.793-8.104-29.011-9.589-60.973-6.243-87.555 9.585-5.342 3.181-10.954 5.886-16.77 8.084l-30.759 11.625c-25.607 9.678-46.482 28.879-58.262 53.589l-12.551 26.328-21.111 47.046c-11.305 25.195-12.342 53.805-2.89 79.751l13.605 37.348c1.237 3.395 2.262 6.863 3.069 10.385l.798 3.478c9.594 41.839 38.689 76.53 78.219 93.261l6.612 2.799c17.079 7.229 35.685-.176 44.097-14.876-29.198-18.727-50.281-48.277-58.166-82.664z" fill="#f2ab6a"/><g fill="#b8de9c"><path d="m198.195 205.5h-20.551v-8.824c0-12.005 9.732-21.737 21.737-21.737h11.727c4.873 0 8.824 3.951 8.824 8.824-.001 12.005-9.733 21.737-21.737 21.737z"/><path d="m157.092 190.219h20.551v-8.824c0-12.005-9.732-21.737-21.736-21.737h-11.727c-4.873 0-8.824 3.951-8.824 8.824 0 12.006 9.732 21.737 21.736 21.737z"/><path d="m254.143 109.896-12.873 23.174c-3.68 6.626-2.645 14.872 2.558 20.383l3.502 3.708c7.381 7.816 20.015 7.13 26.506-1.439l17.919-23.658c7.016-9.263 3.148-22.669-7.725-26.77l-8.549-3.225c-8.069-3.044-17.15.287-21.338 7.827z"/><path d="m172.264 338.333-11.946 6.897c-6.068 3.503-13.827 1.424-17.33-4.644l-6.897-11.946c-3.503-6.068-1.424-13.827 4.644-17.33l11.946-6.897c6.068-3.503 13.827-1.424 17.33 4.644l6.897 11.946c3.503 6.067 1.424 13.826-4.644 17.33z"/></g><ellipse cx="104.071" cy="239.384" fill="#f6e2c4" rx="19.753" ry="25.582"/><path d="m212.991 244.457-7.456 10.403c-2.271 3.169-1.788 7.542 1.122 10.138l9.092 8.112c3.558 3.175 9.125 2.344 11.601-1.732l10.741-17.683c2.971-4.891-.3-11.19-6.009-11.574l-12.377-.832c-2.636-.178-5.175 1.021-6.714 3.168z" fill="#f6e2c4"/></g><g><path d="m436.185 74.837c-48.26-48.259-112.425-74.837-180.674-74.837s-132.414 26.578-180.674 74.837c-48.258 48.26-74.837 112.425-74.837 180.674s26.578 132.414 74.837 180.674c48.26 48.26 112.425 74.838 180.674 74.838s132.414-26.578 180.674-74.838c48.259-48.26 74.837-112.425 74.837-180.674s-26.578-132.414-74.837-180.674zm-10.607 350.741c-45.426 45.427-105.823 70.444-170.066 70.444s-124.641-25.018-170.066-70.444c-45.428-45.427-70.446-105.824-70.446-170.067s25.018-124.641 70.445-170.067c45.426-45.426 105.823-70.444 170.066-70.444s124.641 25.018 170.066 70.444c45.427 45.426 70.444 105.823 70.444 170.066s-25.017 124.641-70.443 170.068z"/><path d="m362.527 415.312c-31.692 21.268-68.698 32.51-107.016 32.51-20.6 0-40.691-3.202-59.951-9.533 10.56-7.485 17.192-19.441 17.878-32.452l.974-18.463c1.164-22.064 9.715-43.462 24.078-60.252l84.936-99.282c5.768-6.742 10.985-14.031 15.511-21.667l2.387-4.028c2.111-3.563.935-8.164-2.629-10.275-3.565-2.111-8.165-.935-10.275 2.629l-2.387 4.027c-4.086 6.895-8.798 13.477-14.005 19.563l-84.936 99.282c-16.499 19.287-26.322 43.867-27.658 69.214l-.974 18.463c-.479 9.086-5.179 17.063-12.893 21.888-7.714 4.823-16.943 5.557-25.322 2.01l-6.613-2.799c-37.202-15.747-64.803-48.655-73.832-88.03l-.797-3.479c-.874-3.811-1.996-7.605-3.334-11.275l-13.605-37.349c-3.851-10.571-5.852-21.643-5.947-32.905-.035-4.121-3.386-7.437-7.499-7.437h-.064c-4.143.035-7.472 3.422-7.437 7.563.11 12.976 2.416 25.731 6.854 37.913l13.605 37.35c1.127 3.091 2.071 6.284 2.807 9.491l.797 3.479c10.103 44.056 40.983 80.875 82.606 98.492l6.612 2.798c5.312 2.249 10.949 3.359 16.566 3.359.916 0 1.83-.036 2.743-.095 25.893 11.137 53.401 16.799 81.804 16.799 41.305 0 81.201-12.122 115.375-35.055 3.439-2.308 4.356-6.968 2.048-10.407-2.309-3.438-6.966-4.357-10.407-2.047z"/><path d="m407.701 114.769c-.73-5.459-3.086-10.616-6.916-14.845l-.281-.31c-13.921-15.372-31.783-26.639-51.654-32.581l-30.361-9.078c-4.396-1.314-8.74-2.953-12.917-4.872l-6.506-2.988c-33.967-15.605-73.422-13.506-105.543 5.618-4.951 2.948-10.194 5.476-15.584 7.513l-30.759 11.626c-27.552 10.412-49.706 30.789-62.381 57.376l-12.551 26.328c-.024.052-.049.104-.072.157l-21.111 47.047c-1.92 4.278-3.595 8.738-4.977 13.254-1.213 3.96 1.015 8.154 4.976 9.366.731.225 1.471.331 2.198.331 3.209 0 6.18-2.077 7.169-5.307 1.2-3.921 2.653-7.792 4.319-11.504l21.076-46.969 12.514-26.249c11-23.076 30.229-40.762 54.143-49.8l30.758-11.626c6.21-2.347 12.251-5.259 17.955-8.655 27.877-16.6 62.122-18.423 91.608-4.876l6.505 2.987c4.81 2.211 9.817 4.1 14.882 5.613l30.361 9.078c17.247 5.158 32.75 14.937 44.832 28.277l.281.31c2.682 2.962 3.798 6.914 3.06 10.841-.737 3.928-3.209 7.204-6.782 8.991-16.19 8.095-30.043 20.366-40.062 35.488-2.287 3.453-1.342 8.106 2.111 10.395 3.453 2.286 8.107 1.343 10.395-2.111 8.569-12.937 20.418-23.433 34.264-30.355 4.686-2.343 8.496-5.865 11.149-10.157 28.471 34.412 44.022 77.391 44.022 122.428 0 27.144-5.542 53.379-16.471 77.978-10.56 23.764-25.6 44.85-44.706 62.671-3.028 2.825-3.193 7.571-.368 10.601 1.478 1.583 3.479 2.384 5.486 2.384 1.832 0 3.669-.667 5.114-2.016 20.588-19.205 36.799-41.932 48.181-67.549 11.787-26.528 17.764-54.813 17.764-84.068 0-52.452-19.562-102.319-55.121-140.742z"/><path d="m375.184 213.232c-4.029.959-6.519 5.004-5.559 9.033.82 3.445 3.896 5.765 7.29 5.765.574 0 1.159-.066 1.743-.206 8.475-2.018 15.285-7.775 18.684-15.798 3.398-8.021 2.798-16.92-1.649-24.413l-.771-1.3c-2.113-3.562-6.716-4.735-10.277-2.621s-4.735 6.715-2.621 10.277l.771 1.299c1.986 3.348 2.255 7.323.737 10.906-1.52 3.585-4.562 6.157-8.348 7.058z"/><path d="m330.463 321.882-.14-1.493c-.386-4.124-4.035-7.146-8.166-6.77-4.124.386-7.155 4.042-6.77 8.166l.141 1.496c.358 3.823-1.079 7.481-3.945 10.037s-6.665 3.563-10.422 2.772c-4.051-.855-8.032 1.734-8.888 5.788-.856 4.053 1.735 8.032 5.788 8.888 1.895.4 3.792.597 5.672.597 6.526 0 12.813-2.374 17.832-6.849 6.465-5.763 9.708-14.013 8.898-22.632z"/><path d="m339.929 283.999c3.115-5.598 3.374-12.149.714-17.974l-.398-.873c-1.72-3.767-6.166-5.427-9.938-3.709-3.768 1.72-5.429 6.169-3.709 9.938l.4.876c.658 1.442.595 3.063-.177 4.449s-2.116 2.296-3.69 2.497c-4.108.523-7.015 4.278-6.491 8.388.482 3.787 3.71 6.553 7.43 6.553.316 0 .636-.021.958-.062 6.355-.81 11.787-4.484 14.901-10.083z"/><path d="m394.062 259.712c-4.108.523-7.015 4.278-6.491 8.388.482 3.787 3.71 6.553 7.43 6.553.316 0 .636-.021.958-.062 6.354-.81 11.785-4.484 14.9-10.082s3.375-12.15.713-17.979l-.398-.872c-1.721-3.766-6.166-5.427-9.938-3.704-3.768 1.721-5.426 6.171-3.704 9.938l.397.871c.659 1.442.595 3.065-.177 4.451-.772 1.388-2.117 2.297-3.69 2.498z"/><path d="m379.107 355.71c-1.721-3.767-6.166-5.426-9.938-3.704-3.768 1.721-5.426 6.171-3.704 9.938l.397.871c.659 1.442.595 3.065-.177 4.451s-2.115 2.295-3.688 2.495c-4.108.523-7.016 4.278-6.493 8.388.482 3.787 3.711 6.554 7.431 6.554.315 0 .636-.021.957-.061 6.354-.81 11.785-4.483 14.901-10.081 3.115-5.599 3.375-12.151.713-17.979z"/><path d="m369.482 322.035c.482 3.787 3.71 6.553 7.43 6.553.316 0 .636-.021.958-.062 6.354-.81 11.785-4.484 14.9-10.082s3.375-12.149.715-17.975l-.398-.873c-1.721-3.768-6.166-5.428-9.938-3.709-3.768 1.72-5.429 6.169-3.709 9.938l.399.875c.659 1.442.595 3.064-.177 4.45-.771 1.387-2.115 2.296-3.689 2.497-4.108.524-7.015 4.279-6.491 8.388z"/><path d="m310.368 389.259-.096.949c-.161 1.578-1.037 2.945-2.403 3.751-1.367.808-2.986.911-4.446.288-3.809-1.623-8.216.146-9.842 3.955-1.625 3.81.145 8.216 3.955 9.842 2.541 1.084 5.202 1.622 7.852 1.622 3.493 0 6.964-.936 10.102-2.787 5.519-3.254 9.056-8.776 9.706-15.154l.097-.954c.417-4.121-2.585-7.8-6.706-8.218-4.121-.417-7.801 2.585-8.219 6.706z"/><path d="m248.627 404.156-.436.85c-.725 1.41-2.038 2.365-3.604 2.618-1.567.246-3.114-.239-4.245-1.351-2.955-2.901-7.703-2.857-10.606.099-2.901 2.956-2.857 7.705.099 10.606 3.785 3.715 8.718 5.716 13.892 5.716 1.077 0 2.165-.087 3.254-.263 6.324-1.021 11.629-4.877 14.557-10.58l.438-.854c1.89-3.686.434-8.206-3.253-10.095-3.684-1.888-8.208-.431-10.096 3.254z"/><path d="m276.835 345.856-.025-.958c-.109-4.141-3.58-7.425-7.695-7.299-4.142.109-7.409 3.555-7.299 7.695l.025.957c.041 1.586-.652 3.054-1.905 4.027-1.252.975-2.848 1.286-4.372.853-3.989-1.125-8.131 1.191-9.258 5.178-1.126 3.986 1.192 8.131 5.178 9.258 1.82.514 3.664.767 5.489.767 4.356 0 8.605-1.441 12.17-4.213 5.058-3.932 7.861-9.859 7.692-16.265z"/><path d="m155.907 152.158h-11.727c-9.001 0-16.324 7.323-16.324 16.324 0 16.121 13.115 29.237 29.236 29.237h13.051v6.439c0 11.924-4.643 23.133-13.075 31.564l-1.938 1.938c-2.928 2.93-2.927 7.678.003 10.606 1.464 1.464 3.383 2.195 5.302 2.195 1.92 0 3.84-.732 5.305-2.198l1.936-1.937c9.153-9.151 14.964-20.754 16.821-33.329h13.698c16.121 0 29.236-13.116 29.236-29.237 0-9.001-7.323-16.324-16.324-16.324h-11.727c-5.805 0-11.216 1.708-15.769 4.637-3.901-11.561-14.842-19.915-27.704-19.915zm-13.051 16.324c0-.73.594-1.324 1.324-1.324h11.727c7.85 0 14.236 6.387 14.236 14.237v1.324h-13.051c-7.849.001-14.236-6.386-14.236-14.237zm56.524 13.956h11.727c.73 0 1.324.594 1.324 1.324 0 7.851-6.387 14.237-14.236 14.237h-13.052v-1.324c0-7.85 6.387-14.237 14.237-14.237z"/><path d="m279.815 160.251 17.919-23.658c4.786-6.318 6.271-14.312 4.074-21.928-2.198-7.617-7.713-13.59-15.131-16.389l-8.548-3.225c-11.466-4.322-24.595.493-30.543 11.203l-12.873 23.174c-5.29 9.526-3.818 21.25 3.662 29.173l3.502 3.71c4.724 5.001 11.252 7.801 18.087 7.801.452 0 .906-.012 1.36-.037 7.323-.397 14.063-3.978 18.491-9.824zm-19.304-5.153c-2.918.154-5.728-.967-7.728-3.084l-3.502-3.709c-2.973-3.148-3.558-7.808-1.455-11.593l12.873-23.174c1.779-3.203 5.174-5.079 8.687-5.079 1.154 0 2.322.203 3.449.628l8.548 3.225c2.948 1.111 5.14 3.485 6.013 6.512s.283 6.202-1.619 8.713l-17.919 23.658c-1.76 2.322-4.438 3.744-7.347 3.903z"/><path d="m185.42 332.57c1.396-5.208.679-10.648-2.018-15.317l-6.896-11.947c-5.565-9.638-17.938-12.951-27.575-7.388l-11.946 6.897c-9.639 5.564-12.953 17.935-7.389 27.575l6.897 11.944c2.695 4.671 7.049 8.011 12.257 9.406 1.739.466 3.504.696 5.257.696 3.498 0 6.951-.917 10.062-2.713l11.945-6.896c4.67-2.695 8.011-7.049 9.406-12.257zm-14.489-3.882c-.358 1.338-1.217 2.456-2.417 3.149l-11.944 6.896c-1.201.692-2.599.878-3.938.518-1.338-.358-2.456-1.216-3.148-2.416l-6.897-11.944c-1.43-2.478-.578-5.656 1.898-7.086l11.946-6.897c.814-.47 1.705-.693 2.584-.693 1.794 0 3.541.93 4.501 2.592l6.896 11.947c.694 1.199.878 2.597.519 3.934z"/><path d="m104.071 206.302c-15.027 0-27.253 14.841-27.253 33.082s12.226 33.082 27.253 33.082 27.253-14.841 27.253-33.082-12.226-33.082-27.253-33.082zm0 51.164c-6.642 0-12.253-8.28-12.253-18.082s5.611-18.082 12.253-18.082 12.253 8.28 12.253 18.082-5.612 18.082-12.253 18.082z"/><path d="m206.896 240.086c-.001 0-.001.001-.002.001l-7.455 10.404c-4.515 6.3-3.559 14.942 2.225 20.102l9.092 8.114c2.797 2.495 6.37 3.842 10.058 3.842.747 0 1.498-.056 2.249-.168 4.458-.665 8.357-3.256 10.698-7.109l10.741-17.684c2.767-4.555 2.952-10.097.496-14.826-2.455-4.729-7.096-7.767-12.412-8.124l-12.379-.833c-5.267-.347-10.238 1.996-13.311 6.281zm24.785 9.715-10.741 17.683c-.021.034-.031.053-.093.062-.061.005-.076-.006-.105-.031l-9.092-8.114c-.049-.044-.057-.118-.018-.173l7.453-10.401c.027-.037.059-.082.115-.055l12.438.84c.031.021.071.099.043.189z"/><path d="m198.87 123.097 5.387-5.739c2.835-3.021 2.685-7.767-.336-10.602s-7.767-2.683-10.602.336l-5.387 5.739c-2.835 3.021-2.685 7.767.336 10.602 1.447 1.358 3.291 2.031 5.131 2.031 2 0 3.994-.795 5.471-2.367z"/><path d="m266.062 194.909-7.909 3.847c-3.725 1.812-5.276 6.3-3.464 10.024 1.298 2.669 3.969 4.222 6.75 4.222 1.101 0 2.218-.243 3.274-.758l7.909-3.847c3.725-1.812 5.276-6.3 3.464-10.024-1.811-3.725-6.297-5.279-10.024-3.464z"/><path d="m337.542 125.466c1.029 0 2.076-.213 3.075-.663 3.777-1.7 5.46-6.141 3.76-9.918l-2.584-5.739c-1.701-3.777-6.143-5.462-9.918-3.76-3.777 1.7-5.46 6.141-3.76 9.918l2.584 5.739c1.252 2.777 3.983 4.423 6.843 4.423z"/><path d="m94.653 296.775c-3.278 2.532-3.883 7.242-1.351 10.521l4.833 6.257c1.478 1.913 3.697 2.915 5.94 2.915 1.602 0 3.215-.51 4.58-1.564 3.278-2.532 3.883-7.242 1.351-10.521l-4.833-6.257c-2.532-3.279-7.242-3.883-10.52-1.351z"/><path d="m156.5 382.515c-4.143 0-7.5 3.357-7.5 7.5s3.357 7.5 7.5 7.5h9.021c4.143 0 7.5-3.357 7.5-7.5s-3.357-7.5-7.5-7.5z"/></g></g></svg>