<svg id="Layer_1" height="512" viewBox="0 0 512 512" width="512" xmlns="http://www.w3.org/2000/svg" data-name="Layer 1"><path d="m340.66 255.88v.02a84.975 84.975 0 0 1 -169.95 0v-.02a84.975 84.975 0 0 1 169.95 0z" fill="#5fa8ed"/><circle cx="255.69" cy="255.9" fill="#fb6771" r="27.97"/><path d="m200.71 255.9v-.02a84.994 84.994 0 0 1 69.978-83.613 84.913 84.913 0 0 0 -99.978 83.613v.02a84.913 84.913 0 0 0 99.978 83.623 84.98 84.98 0 0 1 -69.978-83.623z" fill="#4692d1"/><g fill="#284268"><path d="m276.607 106.286a6 6 0 0 0 -1.64 11.888 139.187 139.187 0 0 1 118.858 118.86 6 6 0 0 0 5.936 5.181 6.119 6.119 0 0 0 .828-.057 6 6 0 0 0 5.123-6.763 151.183 151.183 0 0 0 -129.1-129.109z"/><path d="m235.393 405.71a6 6 0 0 0 1.64-11.887 139.189 139.189 0 0 1 -118.858-118.854 6 6 0 0 0 -11.887 1.64 151.18 151.18 0 0 0 129.105 129.1z"/><path d="m111.411 242.158a6.119 6.119 0 0 0 .828.057 6 6 0 0 0 5.936-5.181 139.188 139.188 0 0 1 118.858-118.857 6 6 0 0 0 -1.64-11.887 151.182 151.182 0 0 0 -129.105 129.11 6 6 0 0 0 5.123 6.758z"/><path d="m275.779 405.771a5.95 5.95 0 0 0 .828-.057 151.182 151.182 0 0 0 129.1-129.105 6 6 0 0 0 -11.887-1.64 139.188 139.188 0 0 1 -118.853 118.858 6 6 0 0 0 .812 11.944z"/><path d="m405.655 376.976a6 6 0 0 0 8.406-1.16 198.423 198.423 0 0 0 0-239.632 6 6 0 1 0 -9.564 7.246 186.427 186.427 0 0 1 0 225.14 6 6 0 0 0 1.158 8.406z"/><path d="m106.342 135.027a6 6 0 0 0 -8.406 1.16 198.428 198.428 0 0 0 0 239.626 6 6 0 1 0 9.565-7.246 186.428 186.428 0 0 1 0-225.134 6 6 0 0 0 -1.159-8.406z"/><path d="m375.813 97.939a198.423 198.423 0 0 0 -239.629 0 6 6 0 1 0 7.246 9.565 186.424 186.424 0 0 1 225.137 0 6 6 0 1 0 7.246-9.565z"/><path d="m368.567 404.5a186.428 186.428 0 0 1 -225.137 0 6 6 0 1 0 -7.246 9.564 198.423 198.423 0 0 0 239.629 0 6 6 0 1 0 -7.246-9.564z"/><path d="m30.687 136.14a6 6 0 0 0 6-6v-73.183h73.182a6 6 0 0 0 0-12h-79.182a6 6 0 0 0 -6 6v79.183a6 6 0 0 0 6 6z"/><path d="m481.313 44.957h-79.182a6 6 0 0 0 0 12h73.182v73.183a6 6 0 0 0 12 0v-79.183a6 6 0 0 0 -6-6z"/><path d="m481.313 375.86a6 6 0 0 0 -6 6v73.183h-73.182a6 6 0 0 0 0 12h79.182a6 6 0 0 0 6-6v-79.183a6 6 0 0 0 -6-6z"/><path d="m109.869 455.043h-73.182v-73.183a6 6 0 0 0 -12 0v79.183a6 6 0 0 0 6 6h79.182a6 6 0 1 0 0-12z"/><path d="m255.686 368.237a6 6 0 0 0 6-6v-15.569a91.1 91.1 0 0 0 84.77-84.784h15.653a6 6 0 0 0 0-12h-15.654a91.1 91.1 0 0 0 -84.769-84.756v-15.743a6 6 0 1 0 -12 0v15.743a91.1 91.1 0 0 0 -84.769 84.756h-16.2a6 6 0 1 0 0 12h16.2a91.1 91.1 0 0 0 84.771 84.784v15.569a6 6 0 0 0 5.998 6zm-78.723-106.353h12.587a6 6 0 0 0 0-12h-12.585a79.066 79.066 0 0 1 72.721-72.708v13.041a6 6 0 1 0 12 0v-13.041a79.065 79.065 0 0 1 72.72 72.708h-13.129a6 6 0 1 0 0 12h13.131a79.066 79.066 0 0 1 -72.722 72.736v-13.22a6 6 0 1 0 -12 0v13.22a79.067 79.067 0 0 1 -72.723-72.736z"/><path d="m289.655 255.9a33.97 33.97 0 1 0 -33.969 33.97 34.008 34.008 0 0 0 33.969-33.97zm-55.939 0a21.97 21.97 0 1 1 21.97 21.97 21.994 21.994 0 0 1 -21.97-21.97z"/></g></svg>