<svg id="Layer_1" height="512" viewBox="0 0 512 512" width="512" xmlns="http://www.w3.org/2000/svg" data-name="Layer 1"><path d="m391.6 460.6a28.742 28.742 0 0 1 -28.74 29.081h-1.66a28.746 28.746 0 0 1 -28.75-28.741v-12.25h57.49l1.52-.02z" fill="#3e5c72"/><path d="m390.391 356.491 1.07 92.18-1.52.02h-57.49v-92.19h57.49z" fill="#ea836f"/><path d="m389.941 317.5h-57.491v39.001h57.491l.45-.01z" fill="#3e5c72"/><path d="m168.59 448.691v12.25a28.741 28.741 0 1 1 -57.481 0v-12.25z" fill="#3e5c72"/><path d="m111.109 356.501h57.48v92.191h-57.48z" fill="#ea836f"/><path d="m111.109 317.5h57.48v39h-57.48z" fill="#3e5c72"/><path d="m391.461 448.671-1.52.02h1.52z" fill="#598baa"/><path d="m352.451 460.941v-12.25h-20v12.25a28.745 28.745 0 0 0 28.75 28.74h1.66a28.7 28.7 0 0 0 9.169-1.5 28.748 28.748 0 0 1 -19.579-27.24z" fill="#598baa"/><path d="m332.451 356.501h20v92.191h-20z" fill="#cc7266"/><path d="m332.451 317.5h20v39h-20z" fill="#598baa"/><path d="m111.109 356.501h20v92.191h-20z" fill="#cc7266"/><path d="m111.109 317.5h20v39h-20z" fill="#598baa"/><path d="m131.109 460.941v-12.25h-20v12.25a28.755 28.755 0 0 0 38.742 26.95 28.753 28.753 0 0 1 -18.742-26.95z" fill="#598baa"/><path d="m400.891 119v15.32a40.356 40.356 0 0 1 -13.52 30.31 44.9 44.9 0 0 0 -15.48 33.511v119.359h-23v-120.31a43.594 43.594 0 0 0 -15.03-32.561 40.685 40.685 0 0 1 -13.971-30.31v-15.319h81z" fill="#deedfd"/><path d="m187.01 90.789v151.151a31.763 31.763 0 0 1 -17.37 28.32 31.782 31.782 0 0 0 -17.371 28.32v18.92h-28.99v-295.182l10.22 2.2a67.791 67.791 0 0 1 53.511 66.271z" fill="#deedfd"/><g fill="#284268"><path d="m175 460.938v-143.438c0-3.313-3.093-5.5-6.406-5.5h-10.594v-13.775a25.449 25.449 0 0 1 14.195-22.6 37.719 37.719 0 0 0 20.805-33.684v-151.15a73.777 73.777 0 0 0 -58.237-72.135l-10.219-2.2a6.308 6.308 0 0 0 -5.173 1.2 6.14 6.14 0 0 0 -2.371 4.663v49.681a6 6 0 0 0 12 0v-42.25l3.091.637a62.243 62.243 0 0 1 48.909 60.404v151.509a25.445 25.445 0 0 1 -14.195 22.6 37.718 37.718 0 0 0 -20.805 33.679v13.421h-17v-200a6 6 0 0 0 -12 0v200h-5.891c-3.314 0-6.109 2.187-6.109 5.5v143.438a35 35 0 0 0 70 0zm-58-136.938h46v27h-46zm0 39h46v80h-46zm0 97.938v-5.938h46v5.938a23.217 23.217 0 0 1 -22.945 23.062h-.155a23.176 23.176 0 0 1 -22.9-23.062z"/><path d="m137 179.941a6 6 0 1 0 12 0v-96.941a6 6 0 0 0 -12 0z"/><path d="m143 68a6 6 0 0 0 6-6v-6.942a6 6 0 1 0 -12 0v6.942a6 6 0 0 0 6 6z"/><path d="m400.815 18.5a6.167 6.167 0 0 0 -5.815 6.252v88.248h-28v-89.391a6 6 0 1 0 -12 0v89.391h-29v-88.5a6 6 0 0 0 -12 0v109.816a46.686 46.686 0 0 0 15.992 34.8 37.729 37.729 0 0 1 13.008 28.078v114.806h-10.547c-3.313 0-6.453 2.187-6.453 5.5v143.438c0 19.162 16.039 35.062 35.2 35.062h1.665a35.014 35.014 0 0 0 34.74-35.385l-1.667-142.895a5.824 5.824 0 0 0 -6-5.72h-11.938v-31a6 6 0 0 0 -12 0v31h-11v-114.806a49.73 49.73 0 0 0 -17.053-37.061 34.681 34.681 0 0 1 -11.947-25.817v-9.316h69v9.316a34.485 34.485 0 0 1 -11.507 25.82 51.052 51.052 0 0 0 -17.493 38v42.864a6 6 0 0 0 12 0v-42.862a39.049 39.049 0 0 1 13.455-29.024 46.492 46.492 0 0 0 15.545-34.798v-109.816a6 6 0 0 0 -6.185-6zm-15.215 442.409a22.407 22.407 0 0 1 -6.567 16.176 22.735 22.735 0 0 1 -16.173 6.915h-1.66a23.434 23.434 0 0 1 -23.2-23.062v-5.938h47.531zm-.208-17.909h-47.392v-80h46.46zm-1.385-119 .314 27h-46.321v-27z"/></g></svg>