<svg id="Layer_1" height="512" viewBox="0 0 512 512" width="512" xmlns="http://www.w3.org/2000/svg" data-name="Layer 1"><path d="m375.413 423.677-238.816-.01-.31.44v61.281a11.03 11.03 0 0 0 11.021 11.03h217.384a11.03 11.03 0 0 0 11.021-11.03v-61.281z" fill="#598baa"/><path d="m268.33 152.18c-8.19 18.751-11.93 40.321-26.16 55.031-19.461 20.111-56.572 18.561-74.272-3.11.002-.001 59.902-11.71 100.432-51.921z" fill="#f39c4e"/><path d="m52.485 296.4h408.18a209.659 209.659 0 0 1 -85.252 127.273c-.94.65-1.88 1.29-2.83 1.93a209.6 209.6 0 0 1 -233.156 0c-.95-.64-1.89-1.28-2.83-1.94a209.55 209.55 0 0 1 -85.212-127.019z" fill="#bcdcfc"/><path d="m46.505 251.513h418.995a209.455 209.455 0 0 1 -4.83 44.891h-408.185l-1.1.24a209.648 209.648 0 0 1 -4.88-45.131z" fill="#d05458"/><path d="m166.287 485.388v-61.281l.309-.439h-30l-.31.44v61.281a11.03 11.03 0 0 0 11.021 11.03h30a11.03 11.03 0 0 1 -11.02-11.031z" fill="#3a7593"/><path d="m169.427 425.607c-.95-.64-1.89-1.28-2.83-1.94a209.55 209.55 0 0 1 -85.212-127.023l1.1-.24h-30l-1.1.24a209.55 209.55 0 0 0 85.215 127.023c.94.66 1.88 1.3 2.83 1.94a208.548 208.548 0 0 0 116.57 35.411q7.567 0 15-.537a208.362 208.362 0 0 1 -101.573-34.874z" fill="#9ec0dd"/><path d="m76.505 251.513h-30a209.648 209.648 0 0 0 4.88 45.131l1.1-.24h28.851a209.648 209.648 0 0 1 -4.831-44.891z" fill="#a3434a"/><g fill="#284268"><path d="m204.126 226.908q1.319.056 2.627.055c15.463 0 29.826-5.752 39.731-15.993 10.922-11.291 16.048-25.908 21.006-40.043 1.95-5.561 3.967-11.311 6.282-16.632.039-.081.074-.163.108-.245 14.565-33.258 42.9-56.179 72.9-80.443 20.26-16.387 41.209-33.332 57.691-53.85a6 6 0 1 0 -9.356-7.514c-15.675 19.513-36.115 36.046-55.881 52.034-29.534 23.891-60.068 48.585-75.934 84.023-38.7 37.774-95.984 49.387-96.559 49.5a6 6 0 0 0 -3.5 9.684c9.53 11.653 24.429 18.734 40.885 19.424zm50.474-55.518c-4.218 11.846-8.653 22.872-16.745 31.237s-20.209 12.83-33.231 12.291a45.858 45.858 0 0 1 -24.554-8.041c16.037-4.44 46.788-14.903 74.53-35.487z"/><path d="m90.662 339.786a6 6 0 0 0 -2.188 8.2 195 195 0 0 0 59.87 63.92 6 6 0 0 0 6.683-9.966 182.969 182.969 0 0 1 -56.167-59.965 6 6 0 0 0 -8.198-2.189z"/><path d="m90.756 326.238c-1.443-3.173-2.812-6.432-4.068-9.686a6 6 0 0 0 -11.194 4.325c1.34 3.47 2.8 6.944 4.338 10.327a6 6 0 1 0 10.924-4.966z"/><path d="m465.494 245.1h-418.988a6 6 0 0 0 -6 6 215.262 215.262 0 0 0 89.783 175.038v58.835a17.045 17.045 0 0 0 17.025 17.027h217.372a17.045 17.045 0 0 0 17.025-17.026v-58.826a215.321 215.321 0 0 0 89.783-175.048 6 6 0 0 0 -6-6zm-95.783 239.874a5.031 5.031 0 0 1 -5.025 5.026h-217.372a5.031 5.031 0 0 1 -5.025-5.026v-50.8a215.65 215.65 0 0 0 227.422.01zm86.027-194.982h-298.738a6 6 0 0 0 0 12h296.028a203.488 203.488 0 0 1 -394.058 0h58.03a6 6 0 0 0 0-12h-60.739a203.672 203.672 0 0 1 -3.667-32.892h406.812a203.673 203.673 0 0 1 -3.668 32.892z"/></g></svg>