<svg id="Layer_1" height="512" viewBox="0 0 512 512" width="512" xmlns="http://www.w3.org/2000/svg" data-name="Layer 1"><path d="m451.32 102.38c19.78 7.21 34.39 32.5 34.39 62.59 0 30.34-14.85 55.8-34.88 62.78v-125.37z" fill="#d4e1f4"/><path d="m410.64 94.09h40.19v141.77h-40.19z" fill="#7c7e38"/><path d="m258.66 110.16v94.78q1.17-.06 2.34-.06l40.59 14.97h.01l.28-.06h108.76v-109.63z" fill="#9ac5a1"/><path d="m308.93 245.33-24.83 28.97 40.27 143.61h34.26z" fill="#e1b7a3"/><path d="m148.99 126.09v77.77l109.67 1.08v-.06-78.79z" fill="#7c7e38"/><path d="m212.96 244.98-.427 1.137-49.48 172.9 34.577-1.107 40.27-143.61z" fill="#e1b7a3"/><path d="m26.29 129.07h28.98v71.81h-28.98z" fill="#6d7486"/><path d="m55.27 142.27h93.72v46.41h-93.72z" fill="#9ac5a1"/><path d="m310.6 219.85a50.5 50.5 0 1 1 -93.19-15.99h.01a50.457 50.457 0 0 1 41.24-24.92q1.17-.06 2.34-.06a50.5 50.5 0 0 1 49.59 40.97z" fill="#5fa8ed"/><path d="m26.29 129.07h20v71.81h-20z" fill="#5f6675"/><path d="m55.27 142.27h30v46.41h-30z" fill="#7daa82"/><path d="m267.9 274.3a50.539 50.539 0 0 1 -20.49-70.44h.01a50.6 50.6 0 0 1 28.574-22.708 50.452 50.452 0 0 0 -14.994-2.272q-1.17 0-2.34.06a50.457 50.457 0 0 0 -41.24 24.92h-.01a50.531 50.531 0 0 0 58.59 73.755 49.932 49.932 0 0 1 -8.1-3.315z" fill="#84c3f7"/><circle cx="261" cy="229.38" fill="#f3e08d" r="23.1"/><g fill="#284268"><path d="m261 200.283a29.1 29.1 0 1 0 29.1 29.1 29.131 29.131 0 0 0 -29.1-29.1zm0 46.2a17.1 17.1 0 1 1 17.1-17.1 17.117 17.117 0 0 1 -17.1 17.095z"/><path d="m456.827 98.193v-4.1a6 6 0 0 0 -6-6h-40.186a6 6 0 0 0 -6 6v10.068h-145.977a6 6 0 0 0 -6 6v9.934h-103.674a6 6 0 0 0 -6 6v10.182h-81.72v-7.206a6 6 0 0 0 -6-6h-28.981a6 6 0 0 0 -6 6v71.814a6 6 0 0 0 6 6h28.981a6 6 0 0 0 6-6v-6.205h81.72v9.181a6 6 0 0 0 6 6h58.99a56.375 56.375 0 0 0 -1.318 34.963l-49.062 171.435a6 6 0 0 0 5.768 7.651h34.27a6 6 0 0 0 5.777-4.38l38.415-137a56.462 56.462 0 0 0 38.346 0l38.415 137a6 6 0 0 0 5.777 4.38h34.27a6 6 0 0 0 5.765-7.66l-49.219-170.888a56.316 56.316 0 0 0 2.316-15.981c0-1.207-.051-2.4-.126-3.589h87.267v10.067a6 6 0 0 0 6 6h40.186a6 6 0 0 0 6-6v-4.092c20.736-9.709 34.884-36.4 34.884-66.793 0-30.286-14.176-57.068-34.884-66.781zm-407.557 90.019c-.012.154-.024.307-.024.464s.012.31.024.463v5.742h-16.981v-59.814h16.981zm93.72-5.536h-81.72v-34.4h81.72zm12 15.181v-65.766h97.674v41.409a56.587 56.587 0 0 0 -38.53 24.357zm38.1 214.053h-21.767l43.1-150.6a56.942 56.942 0 0 0 16.45 15.828zm67.91-138.029a44.5 44.5 0 1 1 44.5-44.5 44.551 44.551 0 0 1 -44.5 44.5zm89.663 138.029h-21.749l-37.787-134.767a56.925 56.925 0 0 0 16.246-15.543zm53.978-198.118h-89.341a56.6 56.6 0 0 0 -50.631-40.779v-56.856h139.972zm40.186 16.067h-28.186v-129.77h28.186zm12-11.929v-105.947c13.785 9.575 22.884 29.979 22.884 52.991 0 22.68-9.247 43.326-22.884 52.956z"/><path d="m378.931 142.027h7.15a6 6 0 0 0 0-12h-7.15a6 6 0 0 0 0 12z"/><path d="m293.084 142.027h65.886a6 6 0 0 0 0-12h-65.886a6 6 0 0 0 0 12z"/></g></svg>