<svg id="Layer_1" enable-background="new 0 0 512 512" height="512" viewBox="0 0 512 512" width="512" xmlns="http://www.w3.org/2000/svg"><g><g><path d="m423.723 222.725h-335.44s-76.67-154.989 167.72-154.989c1.96 0 3.89.01 5.8.03 237.37 2.441 161.92 154.959 161.92 154.959z" fill="#e2a67d"/><path d="m423.723 222.725h-34.62c33.65-107.319-61.86-143.069-127.3-154.959 237.37 2.441 161.92 154.959 161.92 154.959z" fill="#d18766"/><path d="m433.083 252.015-44.12 39.35-132.96 118.589-177.09-157.939c0-27.93 22.67-50.57 50.64-50.57 9.7 0 18.76 2.72 26.46 7.44 9.3-21.24 30.53-36.08 55.23-36.08 17.76 0 33.73 7.67 44.76 19.88 11.02-12.21 26.99-19.88 44.75-19.88 24.7 0 45.93 14.84 55.23 36.08 7.7-4.72 16.76-7.44 26.46-7.44 27.97.001 50.64 22.64 50.64 50.57z" fill="#ffe878"/><path d="m388.963 291.365c27.71-64.15-32.98-82.479-32.98-82.479 7.7-4.72 16.76-7.44 26.46-7.44 27.97 0 50.64 22.64 50.64 50.57z" fill="#ffd37b"/><path d="m454.003 253.155s-45.43 108.649-64.59 243.868c0 0-11.92 1.48-31.62 3.13-24.53 2.04-61.13 4.34-101.79 4.34-73.31 0-133.42-7.47-133.42-7.47-19.16-135.219-64.58-243.868-64.58-243.868 48.4-8.44 41.01 19.2 100.77 14.82 28.37-2.07 60.67-29.29 97.2-29.42 30.78-.11 62.96 26.45 97.3 28.95 19.55 1.42 40.72-6.44 61.83-11.4 13.12-3.09 26.22-5.05 38.9-2.95z" fill="#ff5f85"/><path d="m454.003 253.155s-45.43 108.649-64.59 243.868c0 0-11.92 1.48-31.62 3.13 4.6-102.679 45.93-214.888 57.31-244.048 13.12-3.09 26.22-5.05 38.9-2.95z" fill="#b2527e"/><path d="m286.133 37.647c0 16.62-13.49 30.09-30.13 30.09-4.27 0-8.32-.89-12-2.49-10.67-4.62-18.13-15.24-18.13-27.6s7.46-22.98 18.13-27.6c3.68-1.6 7.73-2.49 12-2.49 16.64 0 30.13 13.47 30.13 30.09z" fill="#ff5f85"/><path d="m286.133 37.647c0 16.62-13.49 30.09-30.13 30.09-4.27 0-8.32-.89-12-2.49 10.67-4.62 18.13-15.24 18.13-27.6s-7.46-22.98-18.13-27.6c3.68-1.6 7.73-2.49 12-2.49 16.64 0 30.13 13.47 30.13 30.09z" fill="#b2527e"/></g><g><path d="m460.561 249.532c-1.11-2.006-3.076-3.394-5.338-3.768-5.025-.831-10.062-1.081-15.097-.921-1.023-8.249-3.771-15.971-7.893-22.781 5.208-12.42 18.783-51.315 3.049-88.527-11.657-27.569-36.584-47.667-74.089-59.736-3.939-1.268-8.167.899-9.437 4.842-1.269 3.943.899 8.169 4.842 9.438 33.115 10.656 54.925 27.882 64.826 51.199 11.131 26.216 4.736 54.518-.259 69.468-10.289-9.196-23.859-14.801-38.72-14.801-8.036 0-15.934 1.651-23.219 4.822-12.059-20.556-34.231-33.462-58.473-33.462-16.526 0-32.452 6.071-44.754 16.869-12.302-10.798-28.229-16.869-44.754-16.869-24.242 0-46.414 12.906-58.473 33.462-7.286-3.17-15.184-4.822-23.22-4.822-14.868 0-28.445 5.611-38.737 14.815-5.638-16.799-13.035-50.505 4.877-79.349 9.89-15.926 26.387-28.548 49.033-37.517 27.9-11.05 65.338-16.652 111.274-16.652 22.877 0 43.849 1.399 62.332 4.161 4.096.608 7.914-2.214 8.525-6.31.612-4.097-2.213-7.914-6.31-8.527-10.935-1.634-22.684-2.807-35.129-3.516 5.133-6.427 8.212-14.559 8.212-23.401 0-6.121-1.481-11.899-4.09-17.012 6.979-4.546 20.438-10.346 33.405.766 3.146 2.696 7.88 2.33 10.575-.815s2.331-7.88-.814-10.575c-19.194-16.448-40.307-9.546-52.557-1.166-6.54-5.481-14.964-8.791-24.149-8.791-20.75 0-37.631 16.864-37.631 37.593 0 8.846 3.082 16.981 8.219 23.409-73.009 4.159-121.277 24.429-143.638 60.439-25.09 40.404-8.979 86.774-3.185 100.566-4 6.609-6.707 14.077-7.799 22.052-4.514.146-9.551.663-15.255 1.658-2.247.392-4.193 1.785-5.289 3.785-1.096 2.001-1.222 4.392-.342 6.496.069.164 6.977 16.756 16.374 44.461 1.06 3.124 3.977 5.093 7.102 5.093.799 0 1.612-.129 2.41-.399 3.922-1.33 6.024-5.589 4.693-9.512-5.528-16.297-10.153-28.682-13.133-36.376 15.229-1.297 22.881 2.182 32.187 6.412 12.446 5.661 26.558 12.08 58.612 9.729 13.972-1.022 28.024-7.233 42.902-13.809 17.276-7.635 35.141-15.531 53.771-15.597 4.046.001 8.325.499 13.059 1.571 4.044.91 8.057-1.621 8.97-5.66.914-4.04-1.62-8.057-5.66-8.971-5.768-1.305-11.069-1.94-16.199-1.94h-.224c-21.769.078-41.963 9.003-59.78 16.877-13.655 6.035-26.554 11.735-37.934 12.568-28.238 2.068-39.966-3.265-51.307-8.423-5.956-2.708-12.017-5.461-19.953-6.929 3.305-20.497 21.139-36.206 42.585-36.206 7.984 0 15.778 2.193 22.54 6.339 1.848 1.134 4.097 1.412 6.166.763s3.756-2.161 4.625-4.147c8.405-19.194 27.388-31.595 48.361-31.595 14.911 0 29.194 6.346 39.188 17.411 1.422 1.574 3.444 2.473 5.566 2.473s4.144-.898 5.566-2.473c9.994-11.065 24.277-17.411 39.188-17.411 20.974 0 39.957 12.401 48.361 31.595.87 1.985 2.557 3.498 4.625 4.147 2.069.65 4.317.372 6.166-.763 6.762-4.146 14.556-6.339 22.54-6.339 21.878 0 39.992 16.351 42.761 37.455-9.296 1.558-18.537 4.032-27.627 6.475-15.575 4.186-30.284 8.141-43.76 7.155-14.173-1.034-28.264-6.626-42.655-12.762-3.813-1.624-8.217.147-9.841 3.958s.148 8.216 3.958 9.841c15.603 6.651 30.972 12.722 47.446 13.924 16.011 1.169 32.65-3.304 48.745-7.63 13.98-3.757 28.34-7.586 41.836-7.56-11.175 29.049-44.315 121.141-60.486 230.432-16.592 1.807-67.61 6.769-126.823 6.769-59.172 0-110.223-4.963-126.823-6.767-7.522-50.899-19.436-103.604-35.438-156.753-1.194-3.966-5.379-6.215-9.344-5.02-3.966 1.194-6.214 5.378-5.02 9.344 16.387 54.428 28.425 108.353 35.781 160.279.475 3.354 3.14 5.974 6.501 6.391.607.075 61.418 7.526 134.343 7.526s133.735-7.451 134.341-7.526c3.361-.417 6.026-3.036 6.501-6.391 18.789-132.63 63.627-240.949 64.078-242.027.884-2.115.752-4.519-.359-6.524zm-204.561-234.474c12.479 0 22.63 10.135 22.63 22.592s-10.152 22.592-22.63 22.592c-12.479 0-22.631-10.135-22.631-22.592s10.152-22.592 22.631-22.592z"/><path d="m330.625 372.379c-6.664 27.875-11.217 55.573-13.533 82.327-.357 4.126 2.699 7.762 6.826 8.118.22.02.438.028.655.028 3.85 0 7.125-2.946 7.464-6.854 2.251-26.017 6.685-52.977 13.177-80.132.963-4.03-1.522-8.075-5.55-9.038-4.026-.964-8.076 1.522-9.039 5.551z"/><path d="m347.879 345.155c3.204 0 6.17-2.069 7.165-5.291 5.243-16.998 9.309-27.16 9.349-27.26 1.545-3.843-.316-8.21-4.158-9.757-3.843-1.547-8.211.316-9.758 4.157-.174.433-4.32 10.781-9.767 28.438-1.221 3.958.998 8.156 4.956 9.378.736.227 1.481.335 2.213.335z"/><path d="m187.426 462.853c.216 0 .435-.009.655-.028 4.127-.356 7.183-3.991 6.826-8.118-7.059-81.56-32.313-145.039-33.384-147.702-1.546-3.841-5.913-5.701-9.756-4.156-3.842 1.545-5.704 5.913-4.16 9.756.254.632 25.5 64.171 32.356 143.396.338 3.906 3.613 6.852 7.463 6.852z"/><path d="m263.5 409.967v-123.117c0-4.143-3.358-7.5-7.5-7.5s-7.5 3.358-7.5 7.5v123.117c0 4.143 3.358 7.5 7.5 7.5s7.5-3.357 7.5-7.5z"/><circle cx="136.484" cy="163.216" r="7.5"/><circle cx="190.214" cy="114.175" r="7.5"/><circle cx="243.954" cy="138.175" r="7.5"/><circle cx="325.344" cy="114.175" r="7.5"/><circle cx="367.084" cy="153.825" r="7.5"/></g></g></svg>