<svg id="Capa_1" enable-background="new 0 0 511.022 511.022" height="512" viewBox="0 0 511.022 511.022" width="512" xmlns="http://www.w3.org/2000/svg"><g><g><circle cx="255.511" cy="255.511" fill="#f8f7f8" r="248.011"/><path d="m89.19 252.444c0-119.813 84.95-219.787 197.911-242.954-10.348-1.316-20.884-1.99-31.59-1.99-136.973 0-248.011 111.039-248.011 248.011 0 136.973 111.038 248.011 248.011 248.011 17.159 0 33.911-1.744 50.089-5.062-122.05-15.521-216.41-119.749-216.41-246.016z" fill="#efedee"/><circle cx="255.511" cy="255.511" fill="#efedee" r="199.81"/><path d="m171.185 436.692c-50.345-45.393-81.995-111.123-81.995-184.248 0-66.422 26.112-126.751 68.628-171.272-60.94 34.223-102.117 99.473-102.117 174.339 0 80.218 47.278 149.381 115.484 181.181z" fill="#e4e1e5"/><g><path d="m232.927 421.301c-29.635-14.025-39.026-51.659-19.456-77.963l3.757-5.05-3.804-19.583c-1.025-5.276 3.868-9.783 9.042-8.329l18.163 5.105c3.03.852 6.281.34 8.903-1.4 3.623-2.404 8.333-2.404 11.956 0 2.622 1.74 5.873 2.251 8.903 1.4l18.163-5.105c5.174-1.454 10.067 3.052 9.042 8.329l-3.804 19.583 3.571 4.799c19.632 26.386 10.112 64.144-19.682 78.07l-.537.251c-14.018 6.553-30.229 6.514-44.217-.107z" fill="#fbe88c"/><g><path d="m254.096 421.301c-29.635-14.025-39.026-51.659-19.456-77.963 2.393-3.217 3.322-7.293 2.557-11.229l-2.604-13.404c-.334-1.718-.032-3.35.694-4.726l-12.821-3.603c-5.174-1.454-10.067 3.052-9.042 8.329l3.804 19.583-3.757 5.05c-19.57 26.304-10.179 63.938 19.455 77.963 10.32 4.884 21.862 6.184 32.83 3.899-3.984-.828-7.91-2.124-11.66-3.899z" fill="#fbe372"/></g><path d="m409.435 320.955c-21.322 24.906-60.1 24.076-80.336-1.721l-3.885-4.953-19.894-1.477c-5.36-.398-8.422-6.303-5.659-10.913l9.699-16.183c1.618-2.7 1.979-5.97.99-8.958-1.367-4.127-.129-8.672 3.143-11.535 2.368-2.073 3.716-5.075 3.691-8.222l-.151-18.866c-.043-5.375 5.591-8.911 10.412-6.535l17.895 8.817 5.569-2.184c30.619-12.006 64.547 7.103 70.151 39.51l.101.584c2.637 15.25-1.662 30.88-11.726 42.636z" fill="#fbe88c"/><g><path d="m412.813 303.329c-21.322 24.906-60.1 24.076-80.336-1.721-2.475-3.155-6.164-5.122-10.163-5.419l-13.617-1.011c-1.58-.118-2.952-.722-4.042-1.621l-4.995 8.333c-2.763 4.61.299 10.516 5.659 10.914l19.894 1.477 3.885 4.953c20.235 25.796 59.014 26.626 80.336 1.721 7.937-9.272 12.289-20.962 12.479-32.966-2.101 5.533-5.161 10.739-9.1 15.34z" fill="#fbe372"/></g><path d="m370.468 134.179c15.897 28.674 1.584 64.724-29.653 74.682l-5.997 1.912-8.328 18.127c-2.244 4.884-8.847 5.692-12.202 1.494l-11.779-14.738c-1.965-2.459-4.904-3.939-8.049-4.054-4.345-.159-8.172-2.906-9.713-6.971-1.116-2.943-3.459-5.254-6.417-6.328l-17.732-6.444c-5.052-1.836-6.399-8.35-2.49-12.039l14.509-13.691-.102-5.981c-.563-32.883 29.186-58.008 61.511-51.948l.582.109c15.209 2.852 28.356 12.336 35.86 25.87z" fill="#fbe88c"/><g><path d="m272.324 192.035 10.158-9.586c2.772-2.615 4.314-6.277 4.248-10.087-.564-32.891 29.199-58.018 61.53-51.945l.563.106c5.926 1.11 11.547 3.246 16.635 6.217-7.702-9.537-18.614-16.137-30.852-18.431l-.605-.113c-32.319-6.044-62.052 19.078-61.489 51.952l.102 5.981-14.509 13.691c-3.909 3.689-2.562 10.203 2.49 12.039l9.716 3.531c.331-1.222.986-2.387 2.013-3.355z" fill="#fbe372"/></g><path d="m101.587 320.955c21.322 24.906 60.1 24.076 80.336-1.721l3.885-4.953 19.894-1.477c5.36-.398 8.422-6.303 5.659-10.913l-9.699-16.183c-1.618-2.7-1.979-5.97-.99-8.958 1.367-4.127.129-8.672-3.143-11.535-2.368-2.073-3.716-5.075-3.691-8.222l.151-18.866c.043-5.375-5.591-8.911-10.412-6.535l-17.895 8.817-5.569-2.184c-30.619-12.006-64.547 7.103-70.151 39.51l-.101.584c-2.636 15.25 1.662 30.88 11.726 42.636z" fill="#fbe88c"/><g><path d="m122.023 313.191c-10.064-11.756-14.363-27.387-11.726-42.636l.101-.583c2.603-15.049 11.323-27.24 22.972-34.769-21.191 3.243-39.431 19.542-43.408 42.533l-.101.584c-2.637 15.249 1.661 30.879 11.725 42.636 17.475 20.413 46.683 23.534 67.791 9.794-16.985 2.587-35.072-3.211-47.354-17.559z" fill="#fbe372"/></g><path d="m140.555 134.179c-15.898 28.674-1.584 64.724 29.653 74.682l5.997 1.912 8.328 18.127c2.244 4.884 8.847 5.692 12.202 1.494l11.779-14.738c1.965-2.459 4.904-3.939 8.049-4.054 4.345-.159 8.172-2.906 9.713-6.971 1.116-2.943 3.459-5.254 6.417-6.328l17.732-6.444c5.052-1.836 6.399-8.35 2.49-12.039l-14.509-13.691.102-5.981c.563-32.883-29.186-58.008-61.511-51.948l-.582.109c-15.209 2.852-28.357 12.336-35.86 25.87z" fill="#fbe88c"/><path d="m201.369 208.996c-1.674-3.644-4.805-6.414-8.625-7.632-31.237-9.958-45.551-46.008-29.653-74.682 4.401-7.938 10.766-14.489 18.327-19.12-1.462.148-2.943.362-4.419.638l-.582.109c-15.21 2.851-28.358 12.335-35.861 25.87-15.898 28.674-1.584 64.724 29.653 74.683l5.997 1.912 8.328 18.127c2.244 4.884 8.847 5.692 12.203 1.494l9.185-11.491z" fill="#fbe372"/></g></g><g><path d="m238.944 364.608c.419-4.121-2.581-7.802-6.702-8.222-4.117-.406-7.802 2.581-8.221 6.702-1.115 10.949 1.441 22.13 7.196 31.481 1.417 2.303 3.876 3.57 6.395 3.57 1.34 0 2.698-.359 3.923-1.113 3.528-2.171 4.627-6.791 2.457-10.318-4.038-6.561-5.83-14.41-5.048-22.1z"/><path d="m278.78 356.386c-4.121.42-7.121 4.101-6.702 8.222.783 7.69-1.01 15.539-5.048 22.101-2.171 3.527-1.071 8.147 2.457 10.318 1.226.754 2.583 1.113 3.923 1.113 2.518 0 4.978-1.269 6.395-3.57 5.755-9.352 8.311-20.532 7.196-31.481-.419-4.121-4.1-7.103-8.221-6.703z"/><path d="m255.418 340.583c-4.142 0-7.5 3.357-7.5 7.5v12.732c0 4.143 3.358 7.5 7.5 7.5s7.5-3.357 7.5-7.5v-12.732c0-4.142-3.358-7.5-7.5-7.5z"/><path d="m321.357 321.516 1.842 2.348c11.037 14.07 27.622 22.36 45.501 22.743.432.009.862.014 1.293.014 17.399 0 33.791-7.531 45.14-20.788 11.556-13.498 16.447-31.281 13.418-48.792l-.101-.583c-3.057-17.676-13.774-32.863-29.405-41.666-15.631-8.804-34.173-10.097-50.875-3.548l-2.487.975-10.164-5.008 4.731-10.296 2.843-.906c17.038-5.432 30.595-18.08 37.194-34.701 6.6-16.621 5.411-35.123-3.26-50.764-8.616-15.541-23.574-26.331-41.036-29.604l-.585-.11c-17.628-3.301-35.604 1.438-49.31 13.013-13.705 11.574-21.389 28.5-21.082 46.436l.046 2.671-9.549 9.011-9.549-9.011.046-2.67c.307-17.937-7.377-34.862-21.082-46.437-13.705-11.574-31.677-16.313-49.313-13.012l-.578.108c-17.465 3.273-32.423 14.063-41.04 29.604-8.671 15.641-9.859 34.143-3.26 50.764s20.156 29.27 37.194 34.701l2.843.906 4.731 10.297-10.164 5.008-2.487-.976c-16.701-6.548-35.245-5.255-50.875 3.549s-26.348 23.99-29.404 41.665l-.101.585c-3.028 17.51 1.863 35.293 13.418 48.792 5.151 6.017 11.308 10.861 18.297 14.399 3.696 1.872 8.208.392 10.079-3.305 1.871-3.695.391-8.208-3.304-10.078-5.217-2.641-9.818-6.265-13.677-10.772-8.64-10.092-12.296-23.389-10.033-36.479l.101-.585c2.286-13.216 10.299-24.571 21.985-31.153 11.688-6.582 25.552-7.55 38.037-2.653l5.569 2.185c1.963.77 4.16.677 6.054-.255l15.96-7.864c.493.225.998.425 1.518.595l-.137 17.063c-.043 5.338 2.235 10.414 6.251 13.927 1.004.879 1.382 2.266.962 3.533-1.678 5.065-1.067 10.596 1.676 15.172l9.467 15.795-19.443 1.443c-2.104.156-4.044 1.191-5.346 2.851l-3.885 4.953c-6.927 8.831-16.837 14.668-27.903 16.436-4.09.653-6.877 4.499-6.224 8.589.589 3.69 3.776 6.318 7.397 6.318.393 0 .792-.031 1.192-.095 14.812-2.365 28.073-10.175 37.341-21.99l1.841-2.348 16.429-1.219 3.141 16.171-1.781 2.394c-10.675 14.348-14.314 32.527-9.984 49.878 4.33 17.352 16.083 31.69 32.248 39.341 8.077 3.822 16.753 5.733 25.432 5.733 8.581 0 17.164-1.869 25.162-5.607l.545-.254c16.251-7.597 28.087-21.929 32.472-39.323 4.386-17.396.759-35.626-9.949-50.02l-1.594-2.142 3.141-16.171zm20.667-74.379c1.892.933 4.088 1.023 6.053.255l5.569-2.184c12.488-4.895 26.352-3.929 38.038 2.652 11.686 6.582 19.7 17.937 21.985 31.154l.101.583c2.264 13.091-1.393 26.388-10.033 36.479-8.696 10.158-21.364 15.819-34.717 15.532-13.368-.286-25.768-6.483-34.02-17.004l-3.885-4.953c-1.302-1.659-3.243-2.694-5.346-2.851l-19.443-1.443 9.466-15.794c2.743-4.576 3.354-10.106 1.676-15.173-.42-1.268-.042-2.654.963-3.533 4.015-3.514 6.293-8.59 6.25-13.926l-.137-17.064c.52-.17 1.025-.371 1.518-.595zm-64.261-75.552c1.534-1.448 2.387-3.475 2.352-5.583l-.102-5.982c-.23-13.41 5.515-26.064 15.762-34.719 10.248-8.654 23.686-12.203 36.865-9.729l.586.11c13.058 2.447 24.242 10.515 30.683 22.134 6.483 11.693 7.372 25.528 2.438 37.955-4.935 12.427-15.071 21.884-27.81 25.945l-5.997 1.912c-2.009.641-3.656 2.098-4.537 4.015l-7.428 16.167c-.524.137-1.043.3-1.554.495l-10.654-13.329c-3.332-4.169-8.301-6.673-13.634-6.868-1.333-.049-2.501-.887-2.974-2.134-1.892-4.989-5.853-8.896-10.868-10.72l-17.307-6.289zm-85.761 52.72c-.511-.195-1.03-.358-1.554-.495l-7.429-16.167c-.88-1.917-2.527-3.374-4.537-4.015l-5.997-1.912c-12.739-4.062-22.875-13.519-27.81-25.945-4.934-12.427-4.045-26.262 2.438-37.955 6.441-11.619 17.625-19.687 30.687-22.135l.579-.108c2.751-.517 5.511-.77 8.253-.77 10.397 0 20.506 3.649 28.615 10.498 10.247 8.654 15.992 21.309 15.762 34.72l-.102 5.981c-.036 2.108.818 4.135 2.352 5.583l14.179 13.38-17.307 6.289c-5.015 1.823-8.976 5.73-10.867 10.719-.473 1.248-1.641 2.086-2.975 2.135-5.333.195-10.303 2.699-13.633 6.867zm106.783 160.657c-3.279 13.005-12.128 23.722-24.271 29.396l-.545.254c-12.036 5.627-25.826 5.593-37.834-.091-12.085-5.72-20.874-16.44-24.111-29.413-3.237-12.974-.516-26.566 7.465-37.293l3.757-5.05c1.259-1.692 1.748-3.837 1.345-5.907l-3.717-19.14 17.727 4.982c5.138 1.443 10.633.581 15.079-2.371 1.112-.738 2.55-.738 3.662 0 4.447 2.951 9.942 3.812 15.079 2.371l17.727-4.982-3.717 19.14c-.402 2.07.086 4.215 1.345 5.907l3.571 4.798c8.006 10.763 10.717 24.394 7.438 37.399zm4.142-103.109-9.699 16.183c-.869 1.45-1.465 3.002-1.797 4.595-1.624-.098-3.278.068-4.906.525l-18.163 5.104c-.93.261-1.923.104-2.727-.428-6.15-4.081-14.099-4.083-20.25 0-.805.532-1.799.688-2.727.428l-18.163-5.104c-1.627-.457-3.282-.624-4.906-.525-.332-1.592-.928-3.145-1.796-4.595l-9.699-16.183c-.496-.827-.606-1.828-.303-2.744 2.321-7.007.232-14.676-5.324-19.538-.726-.635-1.137-1.553-1.13-2.518l.152-18.866c.005-.603-.03-1.199-.095-1.787.421-.415.823-.853 1.199-1.322l11.78-14.738c.602-.754 1.5-1.206 2.464-1.241 7.377-.271 13.834-4.905 16.452-11.808.342-.902 1.059-1.608 1.965-1.938l17.732-6.443c.889-.323 1.731-.725 2.523-1.195.792.47 1.635.872 2.523 1.195l17.732 6.443c.907.33 1.624 1.036 1.966 1.939 2.617 6.901 9.074 11.536 16.451 11.807.964.035 1.862.487 2.465 1.242l11.779 14.737c.375.47.778.908 1.199 1.322-.066.588-.1 1.185-.095 1.788l.151 18.865c.008.965-.404 1.883-1.13 2.519-5.555 4.861-7.644 12.53-5.323 19.537.307.916.196 1.916-.3 2.744z"/><path d="m378.967 301.186c-7.394 2.172-15.438 1.839-22.65-.938-3.866-1.493-8.206.438-9.694 4.305s.44 8.206 4.305 9.693c5.792 2.229 11.962 3.353 18.132 3.353 4.77 0 9.541-.671 14.135-2.021 3.974-1.168 6.25-5.336 5.082-9.31-1.168-3.975-5.335-6.249-9.31-5.082z"/><path d="m365.025 268.279c7.625 1.266 14.727 5.059 19.997 10.681 1.477 1.574 3.472 2.37 5.473 2.37 1.838 0 3.681-.672 5.128-2.028 3.022-2.833 3.175-7.579.342-10.602-7.511-8.011-17.626-13.416-28.484-15.218-4.085-.688-7.949 2.085-8.627 6.17-.678 4.087 2.085 7.949 6.171 8.627z"/><path d="m342.732 287.247 12.285 3.347c.66.18 1.323.266 1.976.266 3.299 0 6.323-2.194 7.232-5.53 1.089-3.997-1.269-8.119-5.265-9.208l-12.285-3.347c-3.994-1.091-8.118 1.269-9.208 5.265-1.089 3.996 1.268 8.118 5.265 9.207z"/><path d="m333.173 187.317c1.427 1.261 3.199 1.881 4.965 1.881 2.075 0 4.14-.855 5.622-2.532 7.291-8.245 11.733-18.819 12.51-29.773.293-4.131-2.818-7.719-6.95-8.012-4.124-.29-7.718 2.819-8.012 6.951-.545 7.686-3.666 15.107-8.786 20.898-2.744 3.103-2.452 7.843.651 10.587z"/><path d="m295.366 160.181c1.177.676 2.46.996 3.727.996 2.599 0 5.125-1.353 6.512-3.768 3.848-6.704 9.881-12.035 16.988-15.012 3.82-1.601 5.621-5.995 4.021-9.815-1.601-3.821-5.994-5.622-9.815-4.021-10.128 4.242-18.724 11.835-24.203 21.381-2.063 3.594-.823 8.177 2.77 10.239z"/><path d="m321.301 164.112c-3.365-2.415-8.05-1.646-10.466 1.72l-7.424 10.344c-2.416 3.365-1.646 8.051 1.72 10.466 1.324.95 2.853 1.408 4.367 1.408 2.334 0 4.634-1.087 6.099-3.128l7.424-10.344c2.415-3.366 1.645-8.051-1.72-10.466z"/><path d="m127.828 315.579c4.595 1.35 9.364 2.021 14.135 2.021 6.169 0 12.34-1.123 18.132-3.353 3.865-1.487 5.793-5.827 4.305-9.693-1.487-3.864-5.827-5.792-9.694-4.305-7.213 2.776-15.257 3.109-22.65.938-3.973-1.169-8.143 1.108-9.31 5.083-1.167 3.973 1.108 8.141 5.082 9.309z"/><path d="m143.541 253.482c-10.857 1.802-20.973 7.207-28.484 15.218-2.833 3.022-2.68 7.769.342 10.602 1.447 1.356 3.29 2.028 5.128 2.028 2 0 3.997-.796 5.473-2.37 5.27-5.622 12.372-9.415 19.997-10.681 4.086-.678 6.849-4.54 6.171-8.627-.678-4.086-4.541-6.857-8.627-6.17z"/><path d="m146.798 285.329c.909 3.336 3.933 5.53 7.232 5.53.652 0 1.316-.086 1.976-.266l12.285-3.347c3.997-1.089 6.354-5.211 5.265-9.208-1.089-3.995-5.212-6.355-9.208-5.265l-12.285 3.347c-3.996 1.089-6.354 5.212-5.265 9.209z"/><path d="m169.715 155.832c-.293-4.132-3.872-7.242-8.012-6.951-4.132.293-7.244 3.881-6.95 8.012.777 10.954 5.22 21.528 12.51 29.773 1.482 1.677 3.547 2.532 5.622 2.532 1.765 0 3.538-.62 4.965-1.881 3.103-2.744 3.395-7.483.651-10.587-5.121-5.791-8.241-13.213-8.786-20.898z"/><path d="m205.418 157.41c1.387 2.416 3.913 3.768 6.512 3.768 1.266 0 2.55-.321 3.727-.996 3.592-2.062 4.833-6.646 2.771-10.238-5.479-9.546-14.074-17.139-24.203-21.381-3.82-1.601-8.216.198-9.815 4.021-1.6 3.82.2 8.215 4.021 9.815 7.107 2.976 13.14 8.307 16.987 15.011z"/><path d="m207.612 176.175-7.424-10.344c-2.415-3.364-7.1-4.134-10.466-1.72-3.365 2.415-4.135 7.101-1.72 10.466l7.424 10.344c1.465 2.041 3.765 3.128 6.099 3.128 1.514 0 3.043-.458 4.367-1.408 3.365-2.415 4.135-7.1 1.72-10.466z"/><path d="m436.185 74.837c-48.26-48.258-112.424-74.837-180.674-74.837-72.91 0-142.535 31.287-191.023 85.84-2.752 3.096-2.473 7.836.623 10.588 3.096 2.753 7.836 2.473 10.588-.623 45.644-51.352 111.183-80.805 179.812-80.805 64.243 0 124.641 25.018 170.067 70.444 45.427 45.426 70.444 105.823 70.444 170.066s-25.018 124.641-70.444 170.067-105.824 70.443-170.067 70.443-124.641-25.018-170.067-70.443-70.444-105.823-70.444-170.066c0-48.479 14.364-95.21 41.539-135.141 2.331-3.425 1.444-8.09-1.98-10.42-3.424-2.328-8.09-1.444-10.42 1.98-28.876 42.431-44.139 92.08-44.139 143.581 0 68.25 26.578 132.414 74.837 180.674s112.424 74.837 180.674 74.837 132.414-26.577 180.674-74.837 74.837-112.424 74.837-180.674c0-68.249-26.577-132.414-74.837-180.674z"/><path d="m434.803 166.896c3.64-1.977 4.989-6.529 3.012-10.17-36.347-66.94-106.202-108.524-182.304-108.524-114.311 0-207.31 92.999-207.31 207.31 0 114.312 92.999 207.311 207.31 207.311s207.31-92.999 207.31-207.311c0-23.432-3.895-46.454-11.576-68.427-1.368-3.911-5.645-5.975-9.555-4.605-3.91 1.367-5.972 5.645-4.605 9.555 7.124 20.379 10.736 41.735 10.736 63.478 0 106.04-86.27 192.311-192.31 192.311s-192.31-86.271-192.31-192.311 86.27-192.31 192.31-192.31c70.598 0 135.401 38.579 169.122 100.683 1.976 3.637 6.529 4.986 10.17 3.01z"/></g></g></svg>