<svg id="Layer_1" height="512" viewBox="0 0 512 512" width="512" xmlns="http://www.w3.org/2000/svg" data-name="Layer 1"><path d="m496.26 299.11a16.751 16.751 0 0 0 -28.59 11.84v184.74h33.49v-184.74a16.719 16.719 0 0 0 -4.9-11.84z" fill="#c79a83"/><path d="m256 16.31v468.44l211 .92h.67v-131.89z" fill="#75967a"/><path d="m44.33 353.78v131.89h.67l211-.92v-468.44z" fill="#9ac5a1"/><path d="m39.42 299.11a16.744 16.744 0 0 0 -28.58 11.84v184.74h33.49v-184.74a16.645 16.645 0 0 0 -4.91-11.84z" fill="#c79a83"/><path d="m256 273.75-107.09 211.92h214.18z" fill="#f3e08d"/><path d="m256 343.01 67.93 142.66h-136.86z" fill="#6a6930"/><path d="m256 64.14v-47.83l-211.67 337.47v131.89h.67l29.33-.128v-131.762z" fill="#b0e2b7"/><g fill="#284268"><path d="m186.046 183.921a6 6 0 0 0 -8.272 1.9l-9.412 15.006a6 6 0 1 0 10.166 6.376l9.412-15.006a6 6 0 0 0 -1.894-8.276z"/><path d="m167.064 214.183a6 6 0 0 0 -8.271 1.9l-68.011 108.426a6 6 0 1 0 10.166 6.377l68.011-108.432a6 6 0 0 0 -1.895-8.271z"/><path d="m484.417 288.206a22.77 22.77 0 0 0 -22.744 22.744v21.971l-200.59-319.8a6 6 0 0 0 -10.166 0l-200.59 319.8v-21.971a22.744 22.744 0 0 0 -45.488 0v184.743a6 6 0 0 0 6 6h33.488a6 6 0 0 0 6-6v-4.021h411.346v4.021a6 6 0 0 0 6 6h33.488a6 6 0 0 0 6-6v-184.743a22.77 22.77 0 0 0 -22.744-22.744zm-446.09 201.487h-21.488v-178.743a10.744 10.744 0 0 1 21.488 0zm12-10.021v-124.166l199.673-318.341v235.156l-104.778 207.351zm146.3 0 59.331-122.793 58.473 122.793zm131.1 0-66.31-139.246a6 6 0 0 0 -5.4-3.42h-.017a6 6 0 0 0 -5.4 3.39l-67.3 139.276h-24.632l97.332-192.616 97.332 192.616zm133.948 0h-94.897l-104.778-207.351v-235.156l199.673 318.341zm33.488 10.021h-21.49v-178.743a10.744 10.744 0 0 1 21.488 0z"/></g></svg>