<svg id="Layer_1" enable-background="new 0 0 512 512" height="512" viewBox="0 0 512 512" width="512" xmlns="http://www.w3.org/2000/svg"><g><g><path d="m473.79 452.844-31.76-.04-403.81-.55c.97-42.22 2.32-81.08 3.6-112.61l62.01-46.15h304.34l27.88 20.75 34.13 25.4c1.28 31.67 2.64 70.75 3.61 113.2z" fill="#e2a67d"/><path d="m473.79 452.844-31.76-.04c-2.36-60.92-4.97-117.13-5.98-138.56l34.13 25.4c1.28 31.67 2.64 70.75 3.61 113.2z" fill="#d18766"/><path d="m428.81 207.244-29.91.28-315.8 2.99c2.04-75.31 5.33-132.84 5.33-132.84s83.79-9.92 167.57-9.92c52.96 0 105.92 3.96 137.72 6.88 18.51 1.7 29.85 3.04 29.85 3.04s3.2 55.88 5.24 129.57z" fill="#e2a67d"/><path d="m428.81 207.244-29.91.28-.17-.28c-1.71-61.55-4.23-116.26-5.01-132.61 18.51 1.7 29.85 3.04 29.85 3.04s3.2 55.88 5.24 129.57z" fill="#d18766"/><path d="m256 449.487c-115.182 0-215.717 3.224-241.885 4.137 47.853.111 24.581 45.416 91.464 48.934 37.519 1.973 68.297 1.936 150.421 1.936s112.902.038 150.421-1.936c66.882-3.518 43.611-48.823 91.464-48.934-26.168-.913-126.703-4.137-241.885-4.137z" fill="#dcf8ff"/><path d="m442.64 237.144c0 7.4-2.04 14.32-5.6 20.23l-23.85.06-339.52.82c-2.76-5.37-4.31-11.46-4.31-17.91 0-21.69 17.57-39.27 39.26-39.27 8.76 0 16.86 2.88 23.39 7.74 7.07-19.53 25.77-33.48 47.73-33.48 21.97 0 40.67 13.96 47.73 33.49 7.06-6.77 16.63-10.94 27.17-10.94 10.16 0 19.42 3.86 26.39 10.19 7.27-19.14 25.77-32.74 47.45-32.74 21.97 0 40.67 13.96 47.73 33.49 1.89-1.81 3.95-3.43 6.17-4.84 6.07-3.86 13.28-6.1 21-6.1 21.69 0 39.26 17.58 39.26 39.26z" fill="#ffe878"/><path d="m442.64 237.144c0 7.4-2.04 14.32-5.6 20.23l-23.85.06c9.45-41.74-17.62-51.27-30.81-53.45 6.07-3.86 13.28-6.1 21-6.1 21.69 0 39.26 17.58 39.26 39.26z" fill="#ffd37b"/><g><path d="m286.131 37.655c0 16.62-13.49 30.09-30.13 30.09-4.27 0-8.32-.89-12-2.49-10.67-4.62-18.13-15.24-18.13-27.6s7.46-22.98 18.13-27.6c3.68-1.6 7.73-2.49 12-2.49 16.64 0 30.13 13.47 30.13 30.09z" fill="#ff5f85"/><path d="m286.131 37.655c0 16.62-13.49 30.09-30.13 30.09-4.27 0-8.32-.89-12-2.49 10.67-4.62 18.13-15.24 18.13-27.6s-7.46-22.98-18.13-27.6c3.68-1.6 7.73-2.49 12-2.49 16.64 0 30.13 13.47 30.13 30.09z" fill="#b2527e"/></g><path d="m482.29 342.004c-18.86-2.24-26.12-8.53-34.35-14.68-8.18-6.11-17.32-12.09-39.77-13.83-22.26-1.72-49.39 18.11-76.91 16.9-24.37-1.06-49.58-23.29-75.26-23.29s-50.9 22.23-75.26 23.29c-27.52 1.21-54.66-18.62-76.91-16.9-45.03 3.47-36.51 24.05-74.12 28.51 2.09-49.24 4.02-81.2 4.02-81.2s111.14-12.46 222.27-12.46c72.58 0 145.16 5.31 186.78 9 22.11 1.96 35.49 3.46 35.49 3.46s1.93 31.96 4.02 81.2z" fill="#fffbd7"/><path d="m482.29 342.004c-18.86-2.24-26.12-8.53-34.35-14.68-2.01-39.02-4.53-64.07-5.16-69.98 22.11 1.96 35.49 3.46 35.49 3.46s1.93 31.96 4.02 81.2z" fill="#f2e2bb"/></g><g><path d="m505.046 446.386c-2.483-.18-4.833-.245-7.051-.258-4.003-.139-9.706-.33-16.878-.554-.755-31.419-1.782-63.823-3.064-96.579 1.085.166 2.201.319 3.359.457.295.034.589.052.882.052 1.88 0 3.705-.708 5.099-2.001 1.612-1.494 2.487-3.621 2.394-5.817-2.069-48.737-4.012-81.011-4.032-81.331-.22-3.64-3.027-6.594-6.651-7-.25-.028-11.768-1.309-30.865-3.04 1.246-4.254 1.904-8.683 1.904-13.166 0-12.998-5.334-24.771-13.923-33.255-2.024-71.428-5.133-126.101-5.165-126.652-.208-3.633-2.993-6.592-6.606-7.02-.742-.088-66.227-7.752-138.703-9.582 4.936-6.361 7.884-14.334 7.884-22.987 0-6.094-1.468-11.849-4.055-16.944 2.198-1.408 5.018-2.947 8.241-4.075 9.349-3.269 17.568-1.71 25.128 4.769 3.144 2.696 7.879 2.33 10.575-.813 2.695-3.146 2.331-7.88-.814-10.575-19.194-16.45-40.305-9.548-52.556-1.165-6.54-5.482-14.964-8.792-24.149-8.792-20.75 0-37.63 16.865-37.63 37.596 0 8.65 2.947 16.622 7.881 22.982-21.17.528-43.643 1.599-67.154 3.207-4.132.282-7.253 3.861-6.971 7.994.282 4.132 3.849 7.249 7.994 6.971 34.533-2.36 66.792-3.558 95.88-3.558 69.331 0 139.48 6.926 160.424 9.174.812 15.333 2.899 57.095 4.492 109.384-5.418-2.201-11.334-3.424-17.533-3.424-8.685 0-17.049 2.377-24.314 6.816-10.245-17.891-29.512-29.368-50.588-29.368-20.793 0-39.977 11.302-50.303 28.901-7.09-4.135-15.188-6.349-23.536-6.349-8.685 0-17.049 2.377-24.314 6.816-10.245-17.891-29.512-29.368-50.588-29.368-21.417 0-40.968 11.851-51.079 30.242-6.215-2.96-13.013-4.498-20.046-4.498-6.236 0-12.186 1.237-17.631 3.462 1.605-53.811 3.762-96.977 4.591-112.618 5.456-.589 14.24-1.494 25.409-2.505 4.125-.374 7.167-4.021 6.793-8.146-.373-4.125-4.019-7.164-8.145-6.794-19.582 1.772-31.96 3.231-32.083 3.246-3.613.428-6.398 3.387-6.606 7.02-.033.568-3.235 56.895-5.257 129.932-8.536 8.477-13.831 20.215-13.831 33.168 0 3.384.389 6.757 1.112 10.051-18.557 1.683-29.725 2.921-30.074 2.96-3.624.406-6.431 3.36-6.651 7-.02.32-1.962 32.594-4.031 81.331-.093 2.196.782 4.323 2.394 5.817 1.395 1.294 3.219 2.001 5.099 2.001.293 0 .588-.018.882-.052 1.157-.137 2.274-.291 3.359-.457-1.282 32.765-2.31 65.17-3.064 96.576-7.182.225-12.892.417-16.899.557-2.21 0-4.558.077-7.031.258-4.081.299-7.169 3.812-6.942 7.898.227 4.084 3.67 7.257 7.775 7.077.1-.004 2.529-.096 7.002-.251 17.677.153 22.71 7.242 29.941 17.426 9.313 13.114 20.902 29.436 60.455 31.516 37.011 1.948 66.738 1.961 146.238 1.946h13.466c76.261 0 105.593-.035 141.926-1.946 39.553-2.08 51.142-18.402 60.455-31.516 7.229-10.181 12.258-17.269 29.923-17.426 4.428.153 6.858.245 7.02.251 4.071.164 7.547-2.992 7.775-7.077.231-4.083-2.858-7.596-6.939-7.895zm-249.046-386.136c-12.479 0-22.63-10.137-22.63-22.596s10.152-22.595 22.63-22.595 22.631 10.137 22.631 22.596-10.152 22.595-22.631 22.595zm198.017 262.26c-8.999-6.79-19.199-14.486-45.271-16.495-12.346-.951-24.942 3.501-38.279 8.215-12.843 4.54-26.118 9.242-38.879 8.676-10.264-.449-21.267-5.441-32.915-10.727-13.625-6.183-27.715-12.576-42.672-12.576-4.142 0-7.5 3.357-7.5 7.5s3.358 7.5 7.5 7.5c11.713 0 23.741 5.457 36.474 11.235 12.435 5.643 25.294 11.478 38.458 12.054 15.661.666 31.002-4.736 44.534-9.52 11.8-4.171 22.944-8.113 32.128-7.402 21.694 1.672 29.317 7.424 37.388 13.514 4.821 3.638 10.041 7.572 17.906 10.608 1.35 33.927 2.429 67.506 3.215 100.032-44.819-1.295-123.653-3.133-210.102-3.133-32.432 0-66.519.258-101.314.767-4.142.061-7.45 3.467-7.389 7.608.061 4.142 3.431 7.457 7.608 7.39 34.722-.508 68.735-.765 101.095-.765 84.386 0 161.502 1.755 206.674 3.041-2.905 3.158-5.312 6.548-7.635 9.819-8.589 12.097-16.703 23.523-49.012 25.222-36.617 1.927-66.233 1.95-145.45 1.925h-9.154c-79.173-.026-108.833.001-145.45-1.925-32.31-1.7-40.423-13.125-49.013-25.222-2.324-3.273-4.732-6.665-7.638-9.824 17.436-.498 39.607-1.065 65.04-1.571 4.142-.082 7.432-3.506 7.35-7.648-.083-4.142-3.547-7.424-7.647-7.349-26.963.536-50.26 1.141-68.166 1.66.786-32.512 1.865-66.093 3.215-100.028 7.864-3.036 13.084-6.97 17.904-10.607 8.07-6.09 15.693-11.842 37.387-13.514 9.172-.709 20.327 3.23 32.126 7.402 13.532 4.783 28.862 10.205 44.535 9.52 13.164-.576 26.023-6.411 38.459-12.054l3.151-1.427c3.776-1.702 5.458-6.144 3.756-9.92s-6.144-5.455-9.919-3.756l-3.186 1.442c-11.649 5.286-22.653 10.278-32.917 10.728-12.752.573-26.037-4.137-38.88-8.676-13.338-4.715-25.939-9.171-38.278-8.215-26.071 2.009-36.271 9.705-45.27 16.495-5.713 4.312-10.813 8.159-20.38 10.503 1.38-31.389 2.647-54.783 3.249-65.418 25.015-2.578 120.644-11.747 215.149-11.747 17.858 0 36.876.328 56.525.975 4.143.164 7.606-3.109 7.743-7.249.136-4.141-3.109-7.607-7.25-7.743-19.813-.651-38.997-.982-57.019-.982-67.239 0-135.013 4.604-177.924 8.225-.803-2.812-1.219-5.729-1.219-8.73 0-17.516 14.248-31.766 31.76-31.766 6.876 0 13.418 2.162 18.921 6.252 1.903 1.415 4.364 1.845 6.634 1.164 2.271-.684 4.085-2.4 4.893-4.63 6.177-17.065 22.524-28.531 40.677-28.531 18.157 0 34.505 11.469 40.68 28.54.863 2.387 2.875 4.175 5.347 4.752 2.469.575 5.067-.135 6.898-1.893 5.946-5.705 13.75-8.848 21.976-8.848 7.913 0 15.494 2.928 21.345 8.243 1.837 1.669 4.381 2.32 6.791 1.743 2.413-.578 4.383-2.313 5.264-4.631 6.339-16.693 22.59-27.907 40.439-27.907 18.157 0 34.505 11.469 40.68 28.54.863 2.387 2.875 4.175 5.347 4.752 2.471.575 5.067-.135 6.899-1.893 5.946-5.705 13.75-8.848 21.976-8.848 17.512 0 31.76 14.25 31.76 31.765 0 4.076-.794 8.084-2.291 11.821-21.658-1.823-49.442-3.878-80.112-5.456-4.142-.207-7.663 2.969-7.875 7.105-.213 4.137 2.968 7.663 7.105 7.876 56.319 2.897 102.829 7.409 119.179 9.099.602 10.635 1.869 34.03 3.249 65.419-9.571-2.342-14.669-6.19-20.383-10.501z"/><circle cx="182.825" cy="114.125" r="7.5"/><circle cx="134.185" cy="141.244" r="7.5"/><circle cx="240.995" cy="145.195" r="7.5"/><circle cx="148.745" cy="372.098" r="7.5"/><circle cx="100.105" cy="399.218" r="7.5"/><circle cx="206.915" cy="403.168" r="7.5"/><circle cx="327.825" cy="114.125" r="7.5"/><circle cx="375.606" cy="145.195" r="7.5"/><circle cx="293.745" cy="372.098" r="7.5"/><circle cx="341.525" cy="403.168" r="7.5"/><circle cx="414.876" cy="377.487" r="7.5"/></g></g></svg>