<svg id="Layer_1" height="512" viewBox="0 0 512 512" width="512" xmlns="http://www.w3.org/2000/svg" data-name="Layer 1"><path d="m347.705 39.235h-183.286v126.977h183.286.242v-126.977z" fill="#598baa"/><path d="m164.419 39.235h40.336v126.977h-40.336z" fill="#456d7f"/><path d="m292.576 430.17v33.812a37.019 37.019 0 0 1 -74.037 0v-33.812z" fill="#fbe08b"/><path d="m218.539 286.333h74.037v143.838h-74.037z" fill="#ea836f"/><path d="m248.791 463.982v-33.812h-30.252v33.812a37.012 37.012 0 0 0 52.145 33.783 37.021 37.021 0 0 1 -21.893-33.783z" fill="#f7c365"/><path d="m218.54 286.333h30.252v143.838h-30.252z" fill="#cc7266"/><path d="m206.509 166.212v10.215a21.858 21.858 0 0 0 21.862 21.852h55.391a21.849 21.849 0 0 0 21.852-21.852v-10.215z" fill="#3e5c72"/><path d="m368.115 11a20.169 20.169 0 0 0 -20.168 20.168v143.112a20.162 20.162 0 0 0 20.168 20.167h16.134v-183.447z" fill="#3e5c72"/><path d="m144.251 11h-16.135v183.447h16.135a20.168 20.168 0 0 0 20.168-20.167v-143.112a20.175 20.175 0 0 0 -20.168-20.168z" fill="#3e5c72"/><path d="m272.973 286.171v.162h-33.822v-.162-87.529-.363h33.822v.363z" fill="#598baa"/><path d="m416.951 78.663a4.046 4.046 0 0 1 0 5.305l-14.077 16.114a4.022 4.022 0 0 0 0 5.3l14.077 16.118a4.045 4.045 0 0 1 0 5.3l-14.077 16.114a4.023 4.023 0 0 0 0 5.305l13.724 15.71a4.033 4.033 0 0 1 -.4 5.708l-20.561 17.778a4 4 0 0 1 -2.632.988h-8.753v-171.353h8.743a4 4 0 0 1 2.642.979l20.571 17.8a4.029 4.029 0 0 1 .393 5.7l-13.727 15.706a4.047 4.047 0 0 0 -.01 5.314z" fill="#6fabc9"/><path d="m128.116 17.05v171.357h-8.984a4.05 4.05 0 0 1 -2.642-.988l-20.642-17.849a4.019 4.019 0 0 1 -.474-5.616l13.069-15.812a4.045 4.045 0 0 0 0-5.143l-13.462-16.275a4.043 4.043 0 0 1 0-5.143l13.462-16.276a4.045 4.045 0 0 0 0-5.143l-13.462-16.275a4.043 4.043 0 0 1 0-5.143l13.462-16.286a4.03 4.03 0 0 0 0-5.132l-13.069-15.812a4.028 4.028 0 0 1 .464-5.617l20.652-17.868a4.036 4.036 0 0 1 2.642-.979z" fill="#6fabc9"/><g fill="#284268"><path d="m253.938 71h55.993a6 6 0 0 0 0-12h-55.993a6 6 0 0 0 0 12z"/><path d="m212.2 72h19.614a6 6 0 1 0 0-12h-19.614a6 6 0 0 0 0 12z"/><path d="m186.009 72h4.807a6 6 0 1 0 0-12h-4.807a6 6 0 0 0 0 12z"/><path d="m420.124 118.671-12.811-14.663 12.81-14.657a10.037 10.037 0 0 0 0-13.161l-12.81-14.664 12.466-14.263a10 10 0 0 0 -.987-14.142l-20.392-17.665a10.022 10.022 0 0 0 -6.545-2.456h-2.678a6.215 6.215 0 0 0 -6-6h-16a26.217 26.217 0 0 0 -26.177 26.042v1.958h-170v-1.958a26.119 26.119 0 0 0 -26.042-26.042h-15.781a6.4 6.4 0 0 0 -6.17 6h-2.74a10.026 10.026 0 0 0 -6.544 2.456l-20.475 17.727a10.063 10.063 0 0 0 -1.164 13.938l11.908 14.4-12.292 14.879a10.011 10.011 0 0 0 0 12.744l12.292 14.866-12.292 14.869a10.012 10.012 0 0 0 0 12.743l12.293 14.869-11.907 14.4a10.057 10.057 0 0 0 1.166 13.936l20.474 17.719a10.019 10.019 0 0 0 6.54 2.454h2.734a6.245 6.245 0 0 0 6.037 6h16.14a25.823 25.823 0 0 0 25.823-25.823v-2.177h30v4.088a27.844 27.844 0 0 0 27.6 27.912h4.4v75h-14.147a5.949 5.949 0 0 0 -5.853 6.084v176.166a42.5 42.5 0 1 0 85 0v-176.166a5.849 5.849 0 0 0 -5.73-6.084h-13.27v-75h4.526c15.259 0 27.474-12.653 27.474-27.912v-4.088h30v1.963a26.213 26.213 0 0 0 26.177 26.037h16a6.215 6.215 0 0 0 6-6h2.679a10.018 10.018 0 0 0 6.54-2.451l20.393-17.641a10.007 10.007 0 0 0 .989-14.151l-12.465-14.265 12.812-14.661a10.037 10.037 0 0 0 -.001-13.16zm-297.124 64.329h-1.989l-18.431-15.953 11.714-14.177a10.018 10.018 0 0 0 0-12.747l-12.294-14.871 12.292-14.871a10.011 10.011 0 0 0 0-12.745l-12.292-14.866 12.294-14.87a10.012 10.012 0 0 0 0-12.744l-11.715-14.188 18.433-15.968h1.988zm163 279.25a30.5 30.5 0 1 1 -61 0v-27.25h61zm0-170.25v131h-61v-131zm-41-12v-75h22v75zm54-102.912a15.729 15.729 0 0 1 -15.474 15.912h-54.926a15.832 15.832 0 0 1 -15.6-15.912v-4.088h86zm42-16.088h-170v-68a6 6 0 0 0 -12 0v81.963a14.077 14.077 0 0 1 -14.037 14.037h-9.963v-170h10.177a13.823 13.823 0 0 1 13.823 13.823v20.177a6 6 0 0 0 12 0v-6h170zm36 28h-9.823a14.2 14.2 0 0 1 -14.177-14.037v-141.921a14.2 14.2 0 0 1 14.177-14.042h9.823zm20.126-49.088a10.038 10.038 0 0 0 0 13.16l12.292 14.081-18.307 15.847h-2.111v-158h2.11l18.31 15.862-12.292 14.075a10.043 10.043 0 0 0 0 13.165l12.812 14.666-12.81 14.659a10.035 10.035 0 0 0 0 13.16l12.811 14.663z"/></g></svg>