<svg id="Capa_1" enable-background="new 0 0 511.022 511.022" height="512" viewBox="0 0 511.022 511.022" width="512" xmlns="http://www.w3.org/2000/svg"><g><g><circle cx="255.511" cy="255.511" fill="#f8f7f8" r="248.011"/><path d="m95.835 255.511c0-121.897 87.935-223.258 203.835-244.092-14.333-2.577-29.084-3.919-44.159-3.919-136.973 0-248.011 111.038-248.011 248.011s111.038 248.011 248.011 248.011c15.075 0 29.846-1.347 44.179-3.923-115.9-20.834-203.855-122.19-203.855-244.088z" fill="#efedee"/><circle cx="255.511" cy="255.511" fill="#efedee" r="199.81"/><path d="m177.631 71.449c-71.659 30.358-121.93 101.339-121.93 184.062 0 82.736 50.255 153.713 121.931 184.063-50.243-45.386-81.797-111.026-81.797-184.063 0-73.028 31.569-138.675 81.796-184.062z" fill="#e4e1e5"/><g><circle cx="184.404" cy="209.503" fill="#f6cca2" r="80.786"/><path d="m133.925 204.737c0-34.93 22.176-64.696 53.212-75.969-.907-.03-1.818-.051-2.733-.051-44.617 0-80.786 36.169-80.786 80.786s36.169 80.786 80.786 80.786c9.687 0 18.973-1.709 27.579-4.835-43.351-1.442-78.058-37.015-78.058-80.717z" fill="#f4bb87"/><circle cx="256.64" cy="339.12" fill="#f6cca2" r="80.786"/><path d="m205.184 343.04c0-43.227 33.95-78.523 76.641-80.681-7.928-2.6-16.387-4.025-25.184-4.025-44.617 0-80.786 36.169-80.786 80.786 0 44.616 36.169 80.785 80.786 80.785 1.39 0 2.775-.043 4.147-.113-32.28-10.585-55.604-40.933-55.604-76.752z" fill="#f4bb87"/><circle cx="331.979" cy="207.12" fill="#f6cca2" r="80.786"/><path d="m286.787 207.12c0-38.499 26.92-70.72 62.97-78.829-5.729-1.289-11.66-1.957-17.778-1.957-44.617 0-80.786 36.169-80.786 80.786s36.169 80.786 80.786 80.786c6.118 0 12.068-.703 17.797-1.991-36.051-8.109-62.989-40.296-62.989-78.795z" fill="#f4bb87"/></g></g><g><path d="m388.665 161.712c2.704 3.138 7.44 3.491 10.577.786 3.138-2.703 3.491-7.438.787-10.577-16.811-19.512-41.192-30.703-66.895-30.703-30.497 0-58.34 15.601-74.384 40.72-15.712-24.473-43.168-40.72-74.347-40.72-48.681 0-88.286 39.604-88.286 88.285 0 46.614 36.316 84.902 82.14 88.069-6.633 11.93-10.387 25.206-10.954 39.075-.169 4.139 3.049 7.631 7.188 7.801.104.004.208.006.312.006 4.001 0 7.323-3.159 7.488-7.193.599-14.658 5.476-28.524 14.138-40.293 26.134-3.576 48.665-18.627 62.321-39.898 12.53 19.619 32.255 33.435 54.828 38.54 9.825 12.761 15.218 28.527 15.218 44.694 0 40.409-32.876 73.285-73.286 73.285-30.127 0-57.625-18.904-68.426-47.04-1.484-3.867-5.823-5.799-9.69-4.314-3.867 1.484-5.798 5.823-4.314 9.689 6.332 16.493 17.353 30.585 31.872 40.752 14.867 10.41 32.349 15.913 50.558 15.913 48.681 0 88.286-39.604 88.286-88.285 0-14.927-3.827-29.567-10.938-42.519.092 0 .184.005.276.005 48.681 0 88.286-39.604 88.286-88.285 0-9.131-1.401-18.157-4.165-26.828-1.258-3.946-5.477-6.129-9.423-4.868-3.947 1.258-6.126 5.477-4.869 9.423 2.293 7.196 3.457 14.69 3.457 22.273 0 40.409-32.876 73.285-73.286 73.285-28.443 0-54.113-16.339-66.226-41.875 3.73-9.765 5.78-20.353 5.78-31.412s-2.05-21.647-5.78-31.411c12.113-25.535 37.783-41.874 66.226-41.874 21.333 0 41.573 9.292 55.531 25.494zm-204.261 121.077c-40.41 0-73.286-32.876-73.286-73.286 0-40.409 32.876-73.285 73.286-73.285s73.285 32.876 73.285 73.285c0 40.41-32.876 73.286-73.285 73.286z"/><path d="m210.374 168.853c-2.087-3.578-6.681-4.786-10.257-2.699-3.578 2.088-4.786 6.68-2.699 10.258l4.209 7.215c1.394 2.39 3.905 3.722 6.485 3.722 1.284 0 2.584-.329 3.772-1.022 3.578-2.088 4.786-6.68 2.699-10.258z"/><path d="m153.537 187.077 4.1-5.591c2.449-3.34 1.727-8.033-1.613-10.482-3.341-2.451-8.035-1.728-10.483 1.613l-4.1 5.591c-2.449 3.34-1.727 8.033 1.613 10.482 1.337.98 2.89 1.453 4.429 1.453 2.308.001 4.585-1.062 6.054-3.066z"/><path d="m177.305 194.854c-4.142 0-7.5 3.357-7.5 7.5v4.767c0 4.143 3.358 7.5 7.5 7.5s7.5-3.357 7.5-7.5v-4.767c0-4.143-3.358-7.5-7.5-7.5z"/><path d="m230.654 210.869c-2.17-3.526-6.79-4.629-10.318-2.457-3.528 2.171-4.628 6.79-2.458 10.318l2.981 4.846c1.417 2.302 3.876 3.57 6.395 3.57 1.34 0 2.697-.359 3.923-1.113 3.528-2.171 4.628-6.79 2.458-10.318z"/><path d="m161.525 232.678-5.404-4.1c-3.298-2.503-8.004-1.858-10.508 1.442s-1.858 8.005 1.442 10.509l5.404 4.1c1.355 1.028 2.947 1.524 4.527 1.524 2.266 0 4.505-1.022 5.98-2.967 2.505-3.3 1.86-8.004-1.441-10.508z"/><path d="m196.313 238.234c-4.142 0-7.5 3.357-7.5 7.5v6.709c0 4.143 3.358 7.5 7.5 7.5s7.5-3.357 7.5-7.5v-6.709c0-4.142-3.357-7.5-7.5-7.5z"/><path d="m315.554 187.67c2.776-3.073 2.536-7.815-.538-10.593-3.073-2.777-7.815-2.538-10.593.538l-4.472 4.95c-2.776 3.073-2.536 7.815.538 10.593 1.435 1.296 3.233 1.935 5.025 1.935 2.047 0 4.087-.833 5.568-2.473z"/><path d="m364.383 186.367c3.601-2.047 4.862-6.625 2.815-10.227l-4.1-7.215c-2.046-3.601-6.625-4.861-10.226-2.814s-4.862 6.625-2.815 10.227l4.1 7.215c1.382 2.431 3.917 3.795 6.527 3.795 1.256 0 2.529-.316 3.699-.981z"/><path d="m294.173 220.366-2.609 5.964c-1.66 3.795.07 8.217 3.865 9.877.979.428 1.998.631 3.002.631 2.889 0 5.643-1.68 6.875-4.496l2.609-5.964c1.66-3.795-.07-8.217-3.865-9.877-3.796-1.657-8.217.071-9.877 3.865z"/><path d="m331.979 219.691c4.142 0 7.5-3.357 7.5-7.5v-7.454c0-4.143-3.358-7.5-7.5-7.5s-7.5 3.357-7.5 7.5v7.454c0 4.143 3.357 7.5 7.5 7.5z"/><path d="m379.536 211.203c.938-4.035-1.572-8.066-5.606-9.004l-4.472-1.04c-4.035-.939-8.065 1.571-9.004 5.605-.938 4.035 1.572 8.066 5.606 9.004l4.472 1.04c.571.133 1.143.197 1.705.197 3.409.001 6.493-2.339 7.299-5.802z"/><path d="m365.153 246.153c1.711 0 3.432-.583 4.84-1.774l4.845-4.1c3.162-2.676 3.557-7.408.881-10.57-2.675-3.16-7.406-3.555-10.57-.881l-4.845 4.1c-3.162 2.676-3.557 7.408-.881 10.57 1.485 1.753 3.6 2.655 5.73 2.655z"/><path d="m330.304 261.926 4.366 1c.563.129 1.126.191 1.681.191 3.418 0 6.508-2.354 7.304-5.827.925-4.038-1.599-8.061-5.636-8.985l-4.366-1c-4.034-.92-8.06 1.599-8.985 5.636-.925 4.038 1.599 8.06 5.636 8.985z"/><path d="m286.924 305.966c-2.712-3.129-7.448-3.469-10.58-.756-3.13 2.713-3.468 7.449-.755 10.58l4.712 5.438c1.483 1.711 3.571 2.588 5.671 2.588 1.741 0 3.49-.603 4.909-1.832 3.13-2.713 3.468-7.449.755-10.58z"/><path d="m234.642 306.918c-3.688-1.885-8.207-.422-10.091 3.267l-3.981 7.794c-1.884 3.688-.421 8.207 3.267 10.091 1.093.559 2.258.823 3.406.823 2.728 0 5.359-1.494 6.685-4.09l3.981-7.794c1.884-3.689.421-8.207-3.267-10.091z"/><path d="m253.382 356.807c3.075 0 5.958-1.905 7.059-4.965l3.258-9.063c1.401-3.898-.623-8.194-4.521-9.595-3.901-1.403-8.194.623-9.595 4.521l-3.258 9.063c-1.401 3.898.623 8.194 4.521 9.595.838.301 1.694.444 2.536.444z"/><path d="m212.644 359.625c-1.508 3.858.397 8.208 4.255 9.716l4.638 1.812c.897.351 1.82.517 2.728.517 2.999 0 5.83-1.811 6.987-4.771 1.508-3.858-.397-8.208-4.255-9.716l-4.638-1.812c-3.859-1.513-8.208.396-9.715 4.254z"/><path d="m237.073 394.079c1.032 3.166 3.97 5.177 7.129 5.177.771 0 1.554-.12 2.327-.371l6.669-2.175c3.938-1.284 6.089-5.518 4.805-9.456s-5.517-6.084-9.456-4.806l-6.669 2.175c-3.938 1.284-6.089 5.518-4.805 9.456z"/><path d="m289.339 342.487-1.45 4.531c-1.263 3.945.912 8.167 4.857 9.43.76.243 1.53.358 2.288.358 3.174 0 6.122-2.031 7.141-5.216l1.45-4.531c1.263-3.945-.912-8.167-4.857-9.43-3.943-1.26-8.166.913-9.429 4.858z"/><path d="m278.54 385.89 5.256 1.812c.81.279 1.634.412 2.445.412 3.111 0 6.019-1.951 7.09-5.057 1.35-3.916-.729-8.186-4.646-9.535l-5.256-1.812c-3.914-1.351-8.185.73-9.535 4.645-1.35 3.916.73 8.185 4.646 9.535z"/><path d="m436.185 74.837c-48.26-48.259-112.424-74.837-180.674-74.837s-132.414 26.578-180.674 74.837c-48.259 48.26-74.837 112.425-74.837 180.674s26.578 132.414 74.837 180.674 112.424 74.838 180.674 74.838 132.414-26.578 180.674-74.838 74.837-112.425 74.837-180.674-26.577-132.414-74.837-180.674zm-10.607 350.741c-45.426 45.427-105.824 70.444-170.067 70.444s-124.641-25.018-170.067-70.444c-45.426-45.427-70.444-105.824-70.444-170.067s25.018-124.641 70.444-170.067c45.427-45.426 105.825-70.444 170.067-70.444s124.641 25.018 170.067 70.444c45.427 45.426 70.444 105.823 70.444 170.066s-25.017 124.641-70.444 170.068z"/><path d="m255.511 48.201c-31.525 0-61.804 6.898-89.994 20.503-3.73 1.801-5.295 6.284-3.495 10.015 1.8 3.73 6.284 5.296 10.014 3.495 26.141-12.616 54.226-19.013 83.475-19.013 106.04 0 192.31 86.27 192.31 192.31s-86.27 192.311-192.31 192.311-192.31-86.271-192.31-192.311c0-62.616 30.651-121.506 81.993-157.529 3.391-2.379 4.211-7.057 1.832-10.447-2.38-3.391-7.057-4.209-10.447-1.832-55.339 38.829-88.377 102.309-88.377 169.809 0 114.312 92.999 207.311 207.31 207.311s207.31-92.999 207.31-207.311c-.001-114.312-93-207.311-207.311-207.311z"/></g></g></svg>