<svg id="Capa_1" enable-background="new 0 0 523.972 523.972" height="512" viewBox="0 0 523.972 523.972" width="512" xmlns="http://www.w3.org/2000/svg"><g><circle cx="261.486" cy="255.511" fill="#f6e2c4" r="248.011"/><path d="m95.576 263.117c0-130.796 101.246-237.954 229.643-247.352-20.34-5.394-41.695-8.265-63.733-8.265-136.973 0-248.011 111.038-248.011 248.011s111.038 248.011 248.011 248.011c6.177 0 12.298-.234 18.362-.678-106.084-28.133-184.272-124.792-184.272-239.727z" fill="#f7d8a4"/><path d="m205.824 302.003c-63.029 0-114.307 51.277-114.307 114.306 0 7.43.721 14.694 2.082 21.733 44.171 40.649 103.126 65.48 167.887 65.48 6.388 0 12.72-.243 18.987-.717 24.272-20.977 39.657-51.973 39.657-86.496.001-63.029-51.277-114.306-114.306-114.306z" fill="#f8deb6"/><circle cx="261.486" cy="263.117" fill="#fcf1de" r="207.988"/><g><path d="m209.35 302.056c-28.732-.87-55.194 8.932-75.732 25.725-11.529 9.427-29.038 3.349-32.243-11.194-3.795-17.219-5.799-35.109-5.799-53.47 0-79.636 37.534-150.508 95.875-195.888-80.41 28.752-137.953 105.595-137.953 195.888 0 46.825 15.479 90.028 41.593 124.788-.001.003-.002.005-.002.008 37.946 50.515 98.354 83.192 166.397 83.192 16.313 0 32.194-1.879 47.426-5.431 7.909-16.448 11.996-35.066 11.096-54.701-2.72-59.377-51.246-107.119-110.658-108.917z" fill="#f6e2c4"/><g fill="#f6cca2"><path d="m125.609 222.238-21.356-9.427c-11.089-4.895-16.111-17.853-11.216-28.942l50.839-115.174c4.895-11.089 17.853-16.111 28.942-11.216l21.356 9.427c11.089 4.895 16.111 17.853 11.216 28.942l-50.839 115.174c-4.895 11.089-17.853 16.111-28.942 11.216z"/><path d="m213.853 261.19-21.356-9.427c-11.089-4.895-16.111-17.853-11.216-28.942l50.839-115.174c4.895-11.089 17.853-16.111 28.942-11.216l21.356 9.427c11.089 4.895 16.111 17.853 11.216 28.942l-50.839 115.174c-4.895 11.089-17.853 16.111-28.942 11.216z"/><path d="m302.097 300.142-21.356-9.427c-11.089-4.895-16.111-17.853-11.216-28.942l50.839-115.174c4.895-11.089 17.853-16.111 28.942-11.216l21.356 9.427c11.089 4.895 16.111 17.853 11.216 28.942l-50.839 115.174c-4.895 11.089-17.853 16.111-28.942 11.216z"/><path d="m390.341 339.094-21.356-9.427c-11.089-4.895-16.111-17.853-11.216-28.942l50.839-115.174c4.895-11.089 17.853-16.111 28.942-11.216l21.356 9.427c11.089 4.895 16.111 17.853 11.216 28.942l-50.839 115.174c-4.895 11.089-17.853 16.111-28.942 11.216z"/></g><path d="m138.901 205.288c-11.089-4.895-16.111-17.853-11.216-28.942l50.839-115.174c.146-.329.299-.652.458-.971l-6.165-2.721c-11.089-4.895-24.047.126-28.942 11.216l-50.838 115.173c-4.895 11.089.127 24.047 11.216 28.942l21.356 9.427c10.76 4.749 23.278.162 28.484-10.245z" fill="#f4bb87"/><path d="m227.145 244.239c-11.089-4.895-16.111-17.853-11.216-28.942l50.839-115.174c.145-.33.299-.653.458-.971l-6.165-2.721c-11.089-4.895-24.047.126-28.942 11.216l-50.839 115.174c-4.895 11.089.127 24.047 11.216 28.942l21.356 9.427c10.76 4.75 23.278.162 28.484-10.245z" fill="#f4bb87"/><path d="m315.389 283.191c-11.089-4.895-16.111-17.853-11.216-28.942l50.839-115.174c.145-.329.299-.652.458-.971l-6.165-2.721c-11.089-4.895-24.047.126-28.942 11.216l-50.839 115.174c-4.895 11.089.127 24.047 11.216 28.942l21.356 9.427c10.76 4.75 23.278.162 28.484-10.245z" fill="#f4bb87"/><path d="m403.633 322.143c-11.089-4.895-16.111-17.853-11.216-28.942l50.839-115.174c.145-.33.299-.653.458-.971l-6.165-2.721c-11.089-4.895-24.047.126-28.942 11.216l-50.839 115.174c-4.895 11.089.126 24.047 11.216 28.942l21.356 9.427c10.76 4.75 23.278.162 28.484-10.245z" fill="#f4bb87"/><circle cx="205.824" cy="416.309" fill="#f8f7f8" r="94.306"/><path d="m152.893 418.158c0-46.428 33.539-85.03 77.718-92.864-7.903-2.148-16.204-3.291-24.787-3.291-52.084 0-94.306 42.222-94.306 94.306s42.222 94.306 94.306 94.306c5.656 0 11.194-.499 16.576-1.454-40.052-10.888-69.507-47.503-69.507-91.003z" fill="#efedee"/><ellipse cx="205.824" cy="416.309" fill="#fdf5cb" rx="68.162" ry="68.163" transform="matrix(.099 -.995 .995 .099 -228.74 580.11)"/><path d="m172.525 475.751c-12.307-15.93-19.632-35.905-19.632-57.594 0-24.714 9.506-47.209 25.059-64.028-23.723 10.676-40.291 34.521-40.291 62.179 0 25.496 14.08 47.754 34.864 59.443z" fill="#fbe88c"/><g><path d="m177.825 403.941c-4.142 0-7.5-3.357-7.5-7.5v-5.822c0-4.143 3.358-7.5 7.5-7.5s7.5 3.357 7.5 7.5v5.822c0 4.143-3.358 7.5-7.5 7.5z" fill="#fbe88c"/></g><g><path d="m225.116 400.837c-2.479 0-4.905-1.228-6.334-3.475-2.224-3.494-1.194-8.13 2.3-10.354l4.269-2.717c3.496-2.225 8.131-1.194 10.354 2.301 2.224 3.494 1.194 8.13-2.3 10.354l-4.269 2.717c-1.249.795-2.643 1.174-4.02 1.174z" fill="#fbe88c"/></g><g><path d="m198.065 429.885c-2.479 0-4.905-1.228-6.334-3.475-2.224-3.494-1.194-8.13 2.3-10.354l4.269-2.717c3.497-2.226 8.131-1.194 10.354 2.301 2.224 3.494 1.194 8.13-2.3 10.354l-4.269 2.717c-1.249.795-2.642 1.174-4.02 1.174z" fill="#fbe88c"/></g><g><path d="m191.339 461.718c-1.127 0-2.271-.255-3.349-.794l-5.433-2.717c-3.705-1.853-5.206-6.357-3.354-10.062 1.853-3.705 6.358-5.207 10.062-3.354l5.433 2.717c3.705 1.853 5.206 6.357 3.354 10.062-1.313 2.628-3.962 4.148-6.713 4.148z" fill="#fbe88c"/></g><g><path d="m234.423 449.697c-4.142 0-7.5-3.357-7.5-7.5v-6.209c0-4.143 3.358-7.5 7.5-7.5s7.5 3.357 7.5 7.5v6.209c0 4.143-3.358 7.5-7.5 7.5z" fill="#fbe88c"/></g></g><g><circle cx="261.486" cy="255.511" fill="#f6e2c4" r="248.011"/><path d="m95.576 263.117c0-130.796 101.246-237.954 229.643-247.352-20.34-5.394-41.695-8.265-63.733-8.265-136.973 0-248.011 111.038-248.011 248.011s111.038 248.011 248.011 248.011c6.177 0 12.298-.234 18.362-.678-106.084-28.133-184.272-124.792-184.272-239.727z" fill="#f7d8a4"/><path d="m205.824 302.003c-63.029 0-114.307 51.277-114.307 114.306 0 7.43.721 14.694 2.082 21.733 44.171 40.649 103.126 65.48 167.887 65.48 6.388 0 12.72-.243 18.987-.717 24.272-20.977 39.657-51.973 39.657-86.496.001-63.029-51.277-114.306-114.306-114.306z" fill="#f8deb6"/><circle cx="261.486" cy="263.117" fill="#fcf1de" r="207.988"/><g><path d="m209.35 302.056c-28.732-.87-55.194 8.932-75.732 25.725-11.529 9.427-29.038 3.349-32.243-11.194-3.795-17.219-5.799-35.109-5.799-53.47 0-79.636 37.534-150.508 95.875-195.888-80.41 28.752-137.953 105.595-137.953 195.888 0 46.825 15.479 90.028 41.593 124.788-.001.003-.002.005-.002.008 37.946 50.515 98.354 83.192 166.397 83.192 16.313 0 32.194-1.879 47.426-5.431 7.909-16.448 11.996-35.066 11.096-54.701-2.72-59.377-51.246-107.119-110.658-108.917z" fill="#f6e2c4"/><g fill="#f6cca2"><path d="m125.609 222.238-21.356-9.427c-11.089-4.895-16.111-17.853-11.216-28.942l50.839-115.174c4.895-11.089 17.853-16.111 28.942-11.216l21.356 9.427c11.089 4.895 16.111 17.853 11.216 28.942l-50.839 115.174c-4.895 11.089-17.853 16.111-28.942 11.216z"/><path d="m213.853 261.19-21.356-9.427c-11.089-4.895-16.111-17.853-11.216-28.942l50.839-115.174c4.895-11.089 17.853-16.111 28.942-11.216l21.356 9.427c11.089 4.895 16.111 17.853 11.216 28.942l-50.839 115.174c-4.895 11.089-17.853 16.111-28.942 11.216z"/><path d="m302.097 300.142-21.356-9.427c-11.089-4.895-16.111-17.853-11.216-28.942l50.839-115.174c4.895-11.089 17.853-16.111 28.942-11.216l21.356 9.427c11.089 4.895 16.111 17.853 11.216 28.942l-50.839 115.174c-4.895 11.089-17.853 16.111-28.942 11.216z"/><path d="m390.341 339.094-21.356-9.427c-11.089-4.895-16.111-17.853-11.216-28.942l50.839-115.174c4.895-11.089 17.853-16.111 28.942-11.216l21.356 9.427c11.089 4.895 16.111 17.853 11.216 28.942l-50.839 115.174c-4.895 11.089-17.853 16.111-28.942 11.216z"/></g><path d="m138.901 205.288c-11.089-4.895-16.111-17.853-11.216-28.942l50.839-115.174c.146-.329.299-.652.458-.971l-6.165-2.721c-11.089-4.895-24.047.126-28.942 11.216l-50.838 115.173c-4.895 11.089.127 24.047 11.216 28.942l21.356 9.427c10.76 4.749 23.278.162 28.484-10.245z" fill="#f4bb87"/><path d="m227.145 244.239c-11.089-4.895-16.111-17.853-11.216-28.942l50.839-115.174c.145-.33.299-.653.458-.971l-6.165-2.721c-11.089-4.895-24.047.126-28.942 11.216l-50.839 115.174c-4.895 11.089.127 24.047 11.216 28.942l21.356 9.427c10.76 4.75 23.278.162 28.484-10.245z" fill="#f4bb87"/><path d="m315.389 283.191c-11.089-4.895-16.111-17.853-11.216-28.942l50.839-115.174c.145-.329.299-.652.458-.971l-6.165-2.721c-11.089-4.895-24.047.126-28.942 11.216l-50.839 115.174c-4.895 11.089.127 24.047 11.216 28.942l21.356 9.427c10.76 4.75 23.278.162 28.484-10.245z" fill="#f4bb87"/><path d="m403.633 322.143c-11.089-4.895-16.111-17.853-11.216-28.942l50.839-115.174c.145-.33.299-.653.458-.971l-6.165-2.721c-11.089-4.895-24.047.126-28.942 11.216l-50.839 115.174c-4.895 11.089.126 24.047 11.216 28.942l21.356 9.427c10.76 4.75 23.278.162 28.484-10.245z" fill="#f4bb87"/><circle cx="205.824" cy="416.309" fill="#f8f7f8" r="94.306"/><path d="m152.893 418.158c0-46.428 33.539-85.03 77.718-92.864-7.903-2.148-16.204-3.291-24.787-3.291-52.084 0-94.306 42.222-94.306 94.306s42.222 94.306 94.306 94.306c5.656 0 11.194-.499 16.576-1.454-40.052-10.888-69.507-47.503-69.507-91.003z" fill="#efedee"/><ellipse cx="205.824" cy="416.309" fill="#fdf5cb" rx="68.162" ry="68.163" transform="matrix(.099 -.995 .995 .099 -228.74 580.11)"/><path d="m172.525 475.751c-12.307-15.93-19.632-35.905-19.632-57.594 0-24.714 9.506-47.209 25.059-64.028-23.723 10.676-40.291 34.521-40.291 62.179 0 25.496 14.08 47.754 34.864 59.443z" fill="#fbe88c"/></g></g><g><path d="m197.202 60.045-21.356-9.427c-14.855-6.556-32.274.193-38.832 15.049l-50.838 115.174c-6.557 14.854.194 32.274 15.048 38.832l21.356 9.427c3.855 1.701 7.883 2.507 11.849 2.507 11.316 0 22.127-6.556 26.983-17.556l50.839-115.174c3.176-7.196 3.36-15.198.518-22.533-2.842-7.334-8.371-13.123-15.567-16.299zm1.326 32.775-50.839 115.174c-3.217 7.288-11.762 10.602-19.052 7.383l-21.356-9.427c-7.288-3.217-10.6-11.765-7.383-19.053l50.839-115.174c3.217-7.287 11.764-10.601 19.052-7.383l21.356 9.427c3.53 1.559 6.243 4.398 7.637 7.997s1.305 7.525-.254 11.056z"/><path d="m198.892 182.922c3.79 1.671 8.218-.044 9.89-3.833l30.199-68.414c1.558-3.53 4.398-6.242 7.997-7.637 3.599-1.394 7.525-1.304 11.056.255l21.355 9.426c3.531 1.559 6.244 4.398 7.639 7.997s1.304 7.524-.255 11.056l-50.839 115.175c-1.559 3.53-4.398 6.242-7.997 7.637-3.599 1.394-7.525 1.304-11.056-.255l-21.355-9.426c-3.531-1.559-6.243-4.398-7.638-7.997s-1.304-7.524.254-11.056l7.655-17.343c1.673-3.789-.043-8.217-3.833-9.89-3.792-1.672-8.218.043-9.89 3.833l-7.655 17.342c-3.177 7.196-3.361 15.198-.519 22.533 2.842 7.334 8.371 13.123 15.567 16.3l21.355 9.426c3.808 1.681 7.842 2.524 11.883 2.524 3.595 0 7.196-.668 10.649-2.006 7.334-2.842 13.123-8.37 16.299-15.566l50.839-115.174c3.177-7.196 3.361-15.198.519-22.533-2.842-7.334-8.371-13.123-15.567-16.3l-21.355-9.426c-7.195-3.175-15.199-3.361-22.533-.519s-13.123 8.37-16.299 15.566l-30.199 68.414c-1.671 3.79.045 8.218 3.834 9.891z"/><path d="m337.9 291.954 50.839-115.174c6.557-14.854-.194-32.274-15.049-38.832l-21.356-9.427c-7.194-3.176-15.197-3.362-22.532-.518-7.334 2.842-13.123 8.37-16.299 15.566l-50.839 115.174c-3.177 7.196-3.361 15.198-.519 22.533 2.843 7.334 8.371 13.123 15.567 16.299l21.355 9.427c3.808 1.681 7.841 2.524 11.883 2.524 3.595-.001 7.197-.668 10.65-2.006 7.335-2.841 13.124-8.37 16.3-15.566zm-21.72 1.581c-3.597 1.395-7.525 1.305-11.055-.255-.001 0-.001 0-.001 0l-21.355-9.427c-3.53-1.559-6.243-4.398-7.638-7.997-1.395-3.598-1.304-7.523.255-11.055l50.839-115.175c2.382-5.396 7.687-8.613 13.238-8.613 1.945 0 3.922.396 5.813 1.23l21.355 9.427c7.288 3.218 10.601 11.765 7.384 19.053l-50.839 115.174c-1.557 3.531-4.397 6.244-7.996 7.638z"/><path d="m453.951 230.765c-1.673 3.789.043 8.217 3.833 9.89 3.786 1.671 8.217-.043 9.89-3.833l9.31-21.089c3.177-7.196 3.361-15.198.519-22.533-2.843-7.334-8.371-13.123-15.567-16.299l-21.355-9.427c-7.197-3.177-15.2-3.36-22.533-.519-7.334 2.843-13.123 8.371-16.299 15.567l-50.839 115.173c-6.558 14.855.193 32.275 15.049 38.833l21.355 9.427c3.855 1.702 7.883 2.507 11.85 2.507 11.315 0 22.127-6.556 26.982-17.556l28.545-64.667c1.673-3.789-.043-8.217-3.833-9.89-3.786-1.672-8.216.043-9.89 3.833l-28.545 64.667c-3.217 7.288-11.766 10.6-19.053 7.383l-21.354-9.427c-7.289-3.218-10.602-11.765-7.384-19.053l50.839-115.174c1.559-3.53 4.398-6.243 7.997-7.638 3.599-1.394 7.525-1.304 11.055.255l21.356 9.427c3.53 1.559 6.243 4.398 7.638 7.997 1.395 3.598 1.304 7.523-.255 11.055z"/><path d="m205.824 312.646c-58.263 0-105.663 47.399-105.663 105.662s47.4 105.663 105.663 105.663c58.262 0 105.663-47.4 105.663-105.663s-47.4-105.662-105.663-105.662zm0 196.326c-49.992 0-90.663-40.671-90.663-90.663 0-49.991 40.671-90.662 90.663-90.662s90.663 40.671 90.663 90.662c0 49.992-40.671 90.663-90.663 90.663z"/><path d="m205.824 342.646c-4.295 0-8.685.386-13.045 1.146-4.081.713-6.811 4.598-6.099 8.678s4.593 6.812 8.678 6.1c3.511-.613 7.032-.924 10.466-.924 33.45 0 60.663 27.213 60.663 60.662 0 33.45-27.213 60.663-60.663 60.663s-60.663-27.213-60.663-60.663c0-19.116 8.779-36.739 24.086-48.351 3.3-2.504 3.946-7.208 1.443-10.508-2.504-3.301-7.208-3.944-10.508-1.443-19.079 14.473-30.021 36.451-30.021 60.302 0 41.721 33.942 75.663 75.663 75.663s75.663-33.942 75.663-75.663c0-41.719-33.942-75.662-75.663-75.662z"/><path d="m442.66 74.837c-48.26-48.259-112.425-74.837-180.674-74.837-68.25 0-132.414 26.578-180.674 74.837-48.26 48.26-74.837 112.425-74.837 180.674 0 63.28 23.317 124.005 65.656 170.986 2.773 3.076 7.514 3.323 10.592.551 3.077-2.772 3.323-7.516.55-10.592-39.851-44.222-61.798-101.38-61.798-160.945 0-64.243 25.018-124.641 70.444-170.066 45.426-45.427 105.824-70.445 170.067-70.445s124.641 25.018 170.066 70.444c45.427 45.426 70.444 105.823 70.444 170.066 0 57.002-20.299 112.279-57.156 155.648-36.443 42.881-86.872 71.757-141.998 81.309-4.081.707-6.816 4.589-6.109 8.67.632 3.648 3.801 6.221 7.381 6.221.425 0 .856-.036 1.289-.111 58.577-10.149 112.156-40.824 150.867-86.374 39.16-46.078 60.727-104.805 60.727-165.362 0-68.249-26.578-132.414-74.837-180.674z"/><path d="m261.986 48.201c-11.51 0-23.113.967-34.487 2.873-4.085.685-6.842 4.551-6.157 8.636s4.552 6.84 8.637 6.157c10.557-1.769 21.325-2.666 32.007-2.666 63.367 0 122.658 31.23 158.604 83.542 1.454 2.116 3.801 3.254 6.188 3.254 1.464 0 2.943-.428 4.24-1.319 3.414-2.346 4.28-7.016 1.935-10.429-38.745-56.386-102.657-90.048-170.967-90.048z"/><path d="m331.622 450.345c.868 0 1.752-.152 2.613-.473 43.995-16.363 81.545-47.623 105.731-88.021 2.128-3.554.972-8.159-2.582-10.287-3.551-2.127-8.159-.973-10.287 2.582-22.443 37.483-57.279 66.486-98.091 81.667-3.883 1.443-5.859 5.762-4.415 9.644 1.124 3.021 3.987 4.888 7.031 4.888z"/><path d="m69.676 255.511c0-13.095 1.325-26.187 3.939-38.91.833-4.057-1.78-8.021-5.837-8.855-4.058-.837-8.022 1.779-8.856 5.838-2.817 13.715-4.246 27.821-4.246 41.928 0 38.396 10.588 75.905 30.62 108.47 1.417 2.303 3.876 3.571 6.396 3.571 1.34 0 2.697-.359 3.922-1.113 3.528-2.17 4.629-6.789 2.458-10.317-18.577-30.201-28.396-64.992-28.396-100.612z"/><path d="m170.325 396.441c0 4.143 3.358 7.5 7.5 7.5s7.5-3.357 7.5-7.5v-5.822c0-4.143-3.358-7.5-7.5-7.5s-7.5 3.357-7.5 7.5z"/><path d="m225.351 384.292-4.269 2.717c-3.494 2.224-4.524 6.859-2.3 10.354 1.429 2.247 3.855 3.475 6.334 3.475 1.377 0 2.771-.379 4.02-1.174l4.269-2.717c3.494-2.224 4.524-6.859 2.3-10.354-2.223-3.495-6.859-4.526-10.354-2.301z"/><path d="m198.065 429.885c1.377 0 2.771-.379 4.02-1.174l4.269-2.717c3.494-2.224 4.524-6.859 2.3-10.354-2.223-3.495-6.857-4.526-10.354-2.301l-4.269 2.717c-3.494 2.224-4.524 6.859-2.3 10.354 1.429 2.247 3.855 3.475 6.334 3.475z"/><path d="m179.203 448.145c-1.853 3.705-.351 8.21 3.354 10.062l5.433 2.717c1.077.539 2.221.794 3.349.794 2.751 0 5.4-1.52 6.714-4.147 1.853-3.705.351-8.21-3.354-10.062l-5.433-2.717c-3.704-1.854-8.21-.353-10.063 3.353z"/><path d="m226.923 435.988v6.209c0 4.143 3.358 7.5 7.5 7.5s7.5-3.357 7.5-7.5v-6.209c0-4.143-3.358-7.5-7.5-7.5s-7.5 3.358-7.5 7.5z"/></g></g></svg>