<svg id="Layer_1" height="512" viewBox="0 0 512 512" width="512" xmlns="http://www.w3.org/2000/svg" data-name="Layer 1"><path d="m100.4 456.21-20.52 20.52a31.76 31.76 0 0 1 -44.91-44.92l20.51-20.51z" fill="#d05458"/><path d="m142.75 324.03-87.27 87.27 44.92 44.91 87.26-87.26z" fill="#598baa"/><path d="m54.97 476.73a31.753 31.753 0 0 1 0-44.92l10.511-10.51-10-10-20.511 20.51a31.759 31.759 0 0 0 32.455 52.6 31.609 31.609 0 0 1 -12.455-7.68z" fill="#ba4d55"/><path d="m42.407 365.595h123.415v14.142h-123.415z" fill="#3e5c72" transform="matrix(.707 -.707 .707 .707 -232.945 182.637)"/><path d="m239.77 272.54a144.094 144.094 0 0 1 -25.57-34.56l-14.57 14.57a18.74 18.74 0 0 0 0 26.52l33.6 33.61a18.758 18.758 0 0 0 26.52 0l14.58-14.58a144.317 144.317 0 0 1 -34.56-25.56z" fill="#598baa"/><path d="m274.33 298.1a144.457 144.457 0 1 1 169.7-25.56 144.317 144.317 0 0 1 -169.7 25.56z" fill="#f7c365"/><path d="m422.91 89.4a114.558 114.558 0 1 1 -162.01 0 114.554 114.554 0 0 1 162.01 0z" fill="#97c9fa"/><path d="m226.69 306.13-.22.22-50.6 50.6-.1.1-20.52-20.51.1-.1 50.6-50.61.22-.22z" fill="#3e5c72"/><path d="m280.9 109.4a114.57 114.57 0 0 1 151.4-9.385 114.558 114.558 0 1 0 -160.782 160.785 114.57 114.57 0 0 1 9.382-151.4z" fill="#77add8"/><g fill="#284268"><path d="m349.093 201.92a10.182 10.182 0 1 0 -7.191 2.974 10.181 10.181 0 0 0 7.191-2.974zm-8.486-5.9a1.831 1.831 0 1 1 2.589 0 1.9 1.9 0 0 1 -2.589.003z"/><path d="m310.386 177.6a10.17 10.17 0 1 0 0-14.383 10.139 10.139 0 0 0 0 14.383zm5.9-8.486a1.83 1.83 0 0 1 2.588 2.589 1.9 1.9 0 0 1 -2.588 0 1.831 1.831 0 0 1 0-2.589z"/><path d="m373.417 226.245a10.181 10.181 0 1 0 -7.191 2.974 10.18 10.18 0 0 0 7.191-2.974zm-9.021-7.191a1.831 1.831 0 1 1 3.125 1.294 1.9 1.9 0 0 1 -2.589 0 1.841 1.841 0 0 1 -.532-1.294z"/><path d="m383.36 236.188a10.17 10.17 0 1 0 14.382 0 10.181 10.181 0 0 0 -14.382 0zm8.485 8.485a1.9 1.9 0 0 1 -2.588 0 1.83 1.83 0 1 1 2.588 0z"/><path d="m286.061 153.271a10.171 10.171 0 1 0 -2.978-7.191 10.139 10.139 0 0 0 2.978 7.191zm5.9-8.486a1.83 1.83 0 1 1 2.588 2.589 1.894 1.894 0 0 1 -2.588 0 1.833 1.833 0 0 1 -.003-2.589z"/><path d="m268.927 131.924a10.17 10.17 0 1 0 -7.191-2.979 10.1 10.1 0 0 0 7.191 2.979zm-1.294-11.464a1.831 1.831 0 1 1 -.536 1.3 1.846 1.846 0 0 1 .536-1.3z"/><path d="m322.548 224.025a10.17 10.17 0 1 0 14.382 0 10.1 10.1 0 0 0 -14.382 0zm8.485 5.9a1.832 1.832 0 0 1 0 2.59 1.9 1.9 0 0 1 -2.588 0 1.831 1.831 0 0 1 0-2.589 1.894 1.894 0 0 1 2.588-.005z"/><path d="m298.223 199.7a10.17 10.17 0 1 0 14.382 0 10.183 10.183 0 0 0 -14.382 0zm9.022 7.192a1.844 1.844 0 0 1 -.537 1.294 1.9 1.9 0 0 1 -2.588 0 1.83 1.83 0 1 1 3.125-1.294z"/><path d="m354.063 265.706a10.165 10.165 0 1 0 -7.19-2.974 10.138 10.138 0 0 0 7.19 2.974zm-1.293-11.459a1.83 1.83 0 0 1 2.588 2.588 1.892 1.892 0 0 1 -2.588 0 1.828 1.828 0 0 1 0-2.588z"/><path d="m273.9 175.375a10.17 10.17 0 1 0 14.383 0 10.183 10.183 0 0 0 -14.383 0zm8.486 5.9a1.831 1.831 0 0 1 0 2.589 1.9 1.9 0 0 1 -2.589 0 1.831 1.831 0 0 1 2.589-2.589z"/><path d="m249.574 165.433a10.17 10.17 0 1 0 0-14.382 10.136 10.136 0 0 0 0 14.382zm5.9-8.485a1.83 1.83 0 1 1 2.588 2.588 1.894 1.894 0 0 1 -2.588 0 1.83 1.83 0 0 1 0-2.588z"/><path d="m395.522 165.433a10.17 10.17 0 1 0 0-14.382 10.137 10.137 0 0 0 0 14.382zm5.9-8.485a1.83 1.83 0 1 1 2.589 2.588 1.9 1.9 0 0 1 -2.589 0 1.83 1.83 0 0 1 0-2.588z"/><path d="m371.2 141.108a10.169 10.169 0 0 0 14.382 0 10.17 10.17 0 1 0 -14.382 0zm5.9-8.485a1.9 1.9 0 0 1 2.589 0 1.83 1.83 0 0 1 0 2.588 1.9 1.9 0 0 1 -2.589 0 1.83 1.83 0 0 1 0-2.588z"/><path d="m419.847 189.758a10.17 10.17 0 1 0 0-14.383 10.141 10.141 0 0 0 0 14.383zm5.9-8.486a1.831 1.831 0 0 1 2.589 2.589 1.9 1.9 0 0 1 -2.589 0 1.831 1.831 0 0 1 0-2.589z"/><path d="m346.872 102.4a10.17 10.17 0 1 0 14.383 0 10.182 10.182 0 0 0 -14.383 0zm8.486 8.485a1.9 1.9 0 0 1 -2.588 0 1.83 1.83 0 1 1 2.588 0z"/><path d="m322.548 78.077a10.17 10.17 0 1 0 14.382 0 10.181 10.181 0 0 0 -14.382 0zm8.485 8.485a1.894 1.894 0 0 1 -2.588 0 1.83 1.83 0 1 1 2.588 0z"/><path d="m427.039 144.082a10.165 10.165 0 1 0 -7.192-2.974 10.133 10.133 0 0 0 7.192 2.974zm-1.295-11.459a1.83 1.83 0 1 1 2.589 2.588 1.9 1.9 0 0 1 -2.589 0 1.83 1.83 0 0 1 0-2.588z"/><path d="m402.713 119.757a10.165 10.165 0 1 0 -7.191-2.973 10.141 10.141 0 0 0 7.191 2.973zm-1.294-11.457a1.831 1.831 0 0 1 2.589 2.589 1.9 1.9 0 0 1 -2.589 0 1.831 1.831 0 0 1 0-2.589z"/><path d="m378.389 95.438a10.1 10.1 0 0 0 7.191-2.979 10.167 10.167 0 1 0 -7.191 2.98zm-1.3-11.464a1.894 1.894 0 0 1 2.589 0 1.83 1.83 0 0 1 0 2.588 1.9 1.9 0 0 1 -2.589 0 1.83 1.83 0 0 1 0-2.588z"/><path d="m298.223 248.35a10.17 10.17 0 1 0 14.382 0 10.181 10.181 0 0 0 -14.382 0zm8.485 8.485a1.894 1.894 0 0 1 -2.588 0 1.831 1.831 0 1 1 2.588 0z"/><path d="m273.9 224.025a10.169 10.169 0 1 0 14.382 0 10.1 10.1 0 0 0 -14.382 0zm8.485 8.486a1.9 1.9 0 0 1 -2.588 0 1.829 1.829 0 0 1 0-2.589 1.892 1.892 0 0 1 2.587 0 1.831 1.831 0 0 1 0 2.59z"/><path d="m249.574 199.7a10.17 10.17 0 1 0 14.382 0 10.181 10.181 0 0 0 -14.382 0zm8.485 8.486a1.9 1.9 0 0 1 -2.588 0 1.83 1.83 0 1 1 2.588 0z"/><path d="m359.035 163.213a10.17 10.17 0 1 0 14.382 0 10.183 10.183 0 0 0 -14.382 0zm8.486 5.9a1.831 1.831 0 0 1 0 2.589 1.9 1.9 0 0 1 -2.589 0 1.831 1.831 0 0 1 2.589-2.589z"/><path d="m334.71 138.889a10.17 10.17 0 0 0 14.382 14.382 10.17 10.17 0 1 0 -14.383-14.382zm8.485 5.9a1.83 1.83 0 0 1 0 2.589 1.9 1.9 0 0 1 -2.589 0 1.831 1.831 0 0 1 0-2.589 1.9 1.9 0 0 1 2.594-.004z"/><path d="m383.36 187.538a10.17 10.17 0 1 0 14.382 0 10.181 10.181 0 0 0 -14.382 0zm9.021 7.191a1.84 1.84 0 0 1 -.536 1.294 1.894 1.894 0 0 1 -2.588 0 1.83 1.83 0 1 1 3.124-1.294z"/><path d="m407.685 211.863a10.17 10.17 0 1 0 14.382 0 10.18 10.18 0 0 0 -14.382 0zm8.485 5.9a1.83 1.83 0 0 1 0 2.588 1.894 1.894 0 0 1 -2.588 0 1.83 1.83 0 1 1 2.588-2.588z"/><path d="m310.386 114.563a10.17 10.17 0 1 0 14.382 0 10.181 10.181 0 0 0 -14.382 0zm8.485 5.9a1.83 1.83 0 1 1 -1.294-.536 1.844 1.844 0 0 1 1.294.533z"/><path d="m293.252 107.6a10.136 10.136 0 0 0 7.191-2.974 10.182 10.182 0 1 0 -7.192 2.974zm0-12a1.829 1.829 0 0 1 1.294 3.124l-2.588-2.588a1.843 1.843 0 0 1 1.294-.536zm-1.294.536 2.588 2.588a1.894 1.894 0 0 1 -2.588 0 1.831 1.831 0 0 1 0-2.588z"/><path d="m267.271 75.722a6 6 0 1 0 7.458 9.4 108.546 108.546 0 1 1 -25.313 28.426 6.012 6.012 0 0 0 -.843-7.411 6.006 6.006 0 0 0 -9.357 1.092 120.586 120.586 0 1 0 28.058-31.5z"/><path d="m116.817 370.035-31.674 31.675a6 6 0 1 0 8.485 8.485l31.672-31.674a6 6 0 1 0 -8.486-8.486z"/><path d="m135.706 351.147-4.214 4.214a6 6 0 1 0 8.485 8.485l4.213-4.213a6 6 0 1 0 -8.484-8.486z"/><path d="m235.527 64.03c-46.656 46.657-56.2 116.586-28.628 172.765l-11.515 11.515a24.779 24.779 0 0 0 0 35l2.3 2.3-42.433 42.44-8.262-8.262a6 6 0 0 0 -8.486 0l-107.78 107.78a37.762 37.762 0 0 0 53.4 53.4l107.784-107.778a6 6 0 0 0 0-8.485l-7.651-7.651 42.434-42.434 2.3 2.3a24.752 24.752 0 0 0 35.005 0l11.514-11.514a150.8 150.8 0 0 0 172.765-28.628c58.655-58.655 58.655-154.094 0-212.749s-154.092-58.654-212.747.001zm-159.887 408.456a25.79 25.79 0 0 1 -36.432 0 25.762 25.762 0 0 1 0-36.432l16.273-16.273 36.433 36.432zm24.76-24.758-36.434-36.428 78.78-78.779 36.433 36.432zm75.372-99.159-12.034-12.034 42.433-42.435 12.034 12.034zm79.74-40.133a12.752 12.752 0 0 1 -18.034 0l-33.608-33.607a12.765 12.765 0 0 1 0-18.034l9.012-9.013a150.694 150.694 0 0 0 51.641 51.642zm184.28-40.143c-53.978 53.978-141.8 53.977-195.778 0s-53.976-141.8 0-195.777a138.593 138.593 0 0 1 195.778 0c53.975 53.976 53.975 141.801-.001 195.777z"/></g></svg>