<svg id="Layer_1" height="512" viewBox="0 0 512 512" width="512" xmlns="http://www.w3.org/2000/svg" data-name="Layer 1"><path d="m502.61 229.82-74.45 100.94-47.18-34.8 74.44-100.94z" fill="#9ac5a1"/><path d="m186.24 362.07h-.98v46.89h289v-46.89z" fill="#b0b5ca"/><path d="m457.82 191.76-2.4 3.26-74.44 100.94-1.07 1.44-1.34 1.82-14.34-10.58 2.41-3.26 74.44-100.93 2.4-3.26z" fill="#6a6930"/><path d="m371.34 133.01-74.44 100.94 69.74 51.43 74.44-100.93z" fill="#75967a"/><path d="m232.44 328.9v32.9.27h174.84v-.27-32.9z" fill="#9ac5a1"/><path d="m380.78 298.04v30.86h-23.58v-49.53l.45-.62 8.99 6.63-2.41 3.26 14.34 10.58 1.34-1.82z" fill="#6c876f"/><path d="m373.75 129.75-2.41 3.26-74.44 100.94-2.41 3.26-11.53-8.52-2.8-2.06 2.4-3.26 74.44-100.93 2.41-3.26z" fill="#6a6930"/><path d="m309.82 87.64-74.45 100.93 47.19 34.8 74.44-100.93z" fill="#9ac5a1"/><path d="m282.96 228.69-.43.58v99.63h-23.58v-122.23l.34-.46 23.27 17.16-2.4 3.26z" fill="#6c876f"/><path d="m275.99 91.41-17.41 23.61a132.808 132.808 0 0 1 -27.43-27.48l-17.91-24.19 28.39 9.97a132.45 132.45 0 0 1 34.36 18.09z" fill="#bccbdd"/><path d="m246.4 131.53-17.41 23.61a132.856 132.856 0 0 1 -27.43-27.49l-17.91-24.18 28.39 9.97a132.45 132.45 0 0 1 34.36 18.09z" fill="#bccbdd"/><path d="m166.89 214.01h-105.24a18.469 18.469 0 0 0 -16.51 10.19c-1.42 2.82-3.05 6.12-4.81 9.75l.04.02-25.55 71.42v66.5l.02.13a5.977 5.977 0 0 1 1.28-.13h52.43l.03.03a58.182 58.182 0 0 1 45.02-21.26h2.48c32.2 0 58.3 26.1 57.32 58.3h11.86v-176.87a18.375 18.375 0 0 0 -18.37-18.08z" fill="#75967a"/><path d="m68.55 371.89.03.03a58 58 0 0 0 -13.28 37.04h-39.18a6.752 6.752 0 0 1 -6.73-6.73v-23.61a6.755 6.755 0 0 1 5.45-6.6 5.977 5.977 0 0 1 1.28-.13z" fill="#b0b5ca"/><path d="m415.91 408.96c.01.33.01.66.01.99a38.7 38.7 0 1 1 -77.4 0c0-.33 0-.65.01-.98a38.7 38.7 0 0 1 77.38-.01z" fill="#6d7486"/><path d="m215.38 393.16h83.26v33.57h-83.26z" fill="#9ac5a1"/><path d="m114.84 371.25a38.7 38.7 0 1 1 -38.7 38.7 38.7 38.7 0 0 1 38.7-38.7z" fill="#6d7486"/><path d="m296.1 106.24-17.41 23.61-.34-.25-19.35-14.27c-.14-.1-.28-.21-.42-.31l17.41-23.61c.14.1.29.2.43.31l19.35 14.27z" fill="#fb6771"/><path d="m266.51 146.35-17.42 23.62-.33-.25-19.35-14.27c-.14-.1-.28-.21-.42-.31l17.41-23.61c.14.1.29.2.43.31l19.35 14.27z" fill="#fb6771"/><path d="m68.58 371.92.026-.03h-.056z" fill="#75967a"/><path d="m70.37 233.97-.04-.02c1.76-3.63 3.39-6.93 4.81-9.75a18.469 18.469 0 0 1 16.51-10.19h-30a18.469 18.469 0 0 0 -16.51 10.19c-1.42 2.82-3.05 6.12-4.81 9.75l.04.02-25.55 71.42v66.5l.02.13a5.977 5.977 0 0 1 1.28-.13h28.7v-66.5z" fill="#648468"/><path d="m39.39 402.23v-23.61a6.755 6.755 0 0 1 5.45-6.6 5.977 5.977 0 0 1 1.28-.13h-30a5.977 5.977 0 0 0 -1.28.13 6.755 6.755 0 0 0 -5.45 6.6v23.61a6.752 6.752 0 0 0 6.73 6.73h30a6.752 6.752 0 0 1 -6.73-6.73z" fill="#99a0b5"/><path d="m368.52 409.95c0-.33 0-.65.01-.98a38.708 38.708 0 0 1 23.689-34.7 38.716 38.716 0 0 0 -53.689 34.7c-.01.33-.01.65-.01.98a38.716 38.716 0 0 0 53.7 35.683 38.715 38.715 0 0 1 -23.7-35.683z" fill="#5e6677"/><path d="m106.14 409.95a38.705 38.705 0 0 1 23.7-35.684 38.7 38.7 0 1 0 0 71.367 38.715 38.715 0 0 1 -23.7-35.683z" fill="#5e6677"/><path d="m102.72 233.97v48.4l-87.9 23.02v-1.96c0-14.29 15.01-47.78 25.51-69.48l.04.02z" fill="#d4e1f4"/><path d="m40.37 233.97-.04-.02c-10.5 21.7-25.51 55.19-25.51 69.48v1.96l30.643-8.025c2.97-16.254 15.645-44.355 24.857-63.4z" fill="#bccbdd"/><circle cx="377.22" cy="409.95" fill="#b0b5ca" r="9.15"/><circle cx="114.84" cy="409.95" fill="#b0b5ca" r="9.15"/><path d="m262.44 328.9h-30v32.9.27h30v-.27z" fill="#b5e5bb"/><g fill="#284268"><path d="m506.167 225-42.625-31.437a5.975 5.975 0 0 0 -2.156-6.623l-14.339-10.58a6 6 0 0 0 -6.967-.107l-60.616-44.706a5.975 5.975 0 0 0 -2.156-6.623l-14.34-10.575a6 6 0 0 0 -6.967-.107l-42.621-31.435a6 6 0 0 0 -8.391 1.267l-10.158 13.774-14.853-10.955c-.1-.076-.209-.146-.312-.221-.038-.03-.072-.062-.111-.091-.084-.062-.173-.114-.259-.171a138.472 138.472 0 0 0 -35.676-18.749l-28.392-9.968a6 6 0 0 0 -6.809 9.232l17.909 24.182a138.49 138.49 0 0 0 28.454 28.55c.079.064.153.132.236.193.026.019.055.032.082.051.115.085.225.176.34.261l14.854 10.954-5.052 6.85-14.853-10.954c-.1-.076-.209-.146-.312-.221-.038-.03-.072-.063-.111-.091-.084-.062-.173-.114-.258-.171a138.466 138.466 0 0 0 -35.677-18.75l-28.392-9.967a6 6 0 0 0 -6.809 9.231l17.909 24.182a138.454 138.454 0 0 0 28.461 28.558c.076.062.147.126.226.185.025.019.053.031.079.049.116.086.227.178.344.263l14.853 10.955-10.159 13.774a6 6 0 0 0 1.267 8.39l21.134 15.587v113.914h-20.503a6 6 0 0 0 -6 6v27.168h-35.181v-124.077a24.482 24.482 0 0 0 -24.369-23.981h-105.237a24.333 24.333 0 0 0 -21.874 13.507c-25.586 51.083-30.957 72.737-30.957 81.909v64.784a12.716 12.716 0 0 0 -5.423 10.412v23.611a12.742 12.742 0 0 0 12.728 12.729h39.172a6 6 0 0 0 6-6 52.363 52.363 0 0 1 52.305-52.3h2.471a51.327 51.327 0 0 1 37.173 15.638 49.805 49.805 0 0 1 14.151 36.479 6 6 0 0 0 6 6.183h35.978v11.77a6 6 0 0 0 6 6h83.27a6 6 0 0 0 6-6v-11.77h28.167a44.691 44.691 0 0 0 88.82 0h52.624a6 6 0 0 0 6-6v-46.894a6 6 0 0 0 -6-6h-60.976v-27.168a5.967 5.967 0 0 0 -.307-1.885l11.625 8.573a6 6 0 0 0 8.39-1.268l74.444-100.935a6 6 0 0 0 -1.268-8.39zm-462.067 14.966h52.618v37.769l-75.161 19.69c2.357-11.616 10.343-31.971 22.543-57.459zm5.475 163h-33.452a.748.748 0 0 1 -.728-.729v-23.615a.747.747 0 0 1 .728-.729h41.192a63.833 63.833 0 0 0 -7.739 25.069zm129.685-.253a61.631 61.631 0 0 0 -17.4-38.768 63.226 63.226 0 0 0 -45.787-19.283h-2.473a64.161 64.161 0 0 0 -47.711 21.235h-45.066v-55.876l83.415-21.851a6 6 0 0 0 4.48-5.8v-48.4a6 6 0 0 0 -6-6h-52.744c.179-.359.354-.714.535-1.075a12.4 12.4 0 0 1 11.145-6.881h105.237a12.41 12.41 0 0 1 12.37 12.077zm265.492-213.13 4.681 3.452-72.128 97.8-4.682-3.453zm-57.976 118.108 20.63 15.216c-.041 0-.081-.007-.123-.007h-20.507zm-12-3.82v19.029h-11.576v-27.569zm57.915-118.156-67.321 91.276-60.081-44.311 67.321-91.28zm-81.491 95.734v41.451h-62.673v-82.64l2.407 1.774a5.976 5.976 0 0 0 6.964.105zm9.478-153.882 4.681 3.454-72.127 97.794-4.682-3.452zm-124.7-43.6-6.277-8.475 9.952 3.493a126.5 126.5 0 0 1 27.845 13.846l-10.068 13.65a126.544 126.544 0 0 1 -21.459-22.516zm31 29.789 10.283-13.956 10.447 7.7-10.291 13.954zm-60.588 10.329-6.277-8.475 9.952 3.494a126.47 126.47 0 0 1 27.835 13.843l-10.066 13.653a126.439 126.439 0 0 1 -21.452-22.517zm31 29.789 10.292-13.953 10.447 7.7-10.291 13.953zm6.385 33.431 67.321-91.278 37.516 27.673-67.32 91.278zm32.762 44.1v91.5h-11.58v-105.068l9.489 7a5.994 5.994 0 0 0 2.081 6.563zm-38.096 103.495h162.842v21.168h-162.842zm54.2 85.832h-71.27v-21.57h71.27zm12-17.77v-9.8a6 6 0 0 0 -6-6h-83.27a6 6 0 0 0 -6 6v9.8h-18.11v-34.894h170.345a44.836 44.836 0 0 0 -28.533 34.894zm72.577 39.684a32.7 32.7 0 1 1 32.7-32.7 32.735 32.735 0 0 1 -32.696 32.7zm91.034-74.578v34.894h-46.88a44.838 44.838 0 0 0 -28.535-34.894zm-41.361-45.7-37.528-27.678 67.321-91.278 37.528 27.678z"/><path d="m114.84 365.248a44.7 44.7 0 1 0 44.7 44.7 44.749 44.749 0 0 0 -44.7-44.7zm0 77.4a32.7 32.7 0 1 1 32.7-32.7 32.736 32.736 0 0 1 -32.7 32.698z"/><path d="m114.84 394.8a15.149 15.149 0 1 0 15.148 15.149 15.167 15.167 0 0 0 -15.148-15.149zm0 18.3a3.149 3.149 0 1 1 3.148-3.149 3.153 3.153 0 0 1 -3.148 3.149z"/><path d="m377.222 394.8a15.149 15.149 0 1 0 15.149 15.149 15.167 15.167 0 0 0 -15.149-15.149zm0 18.3a3.149 3.149 0 1 1 3.149-3.149 3.153 3.153 0 0 1 -3.149 3.149z"/><path d="m153.457 234.554a6 6 0 0 0 -6 6v7.151a6 6 0 1 0 12 0v-7.151a6 6 0 0 0 -6-6z"/><path d="m153.457 261.666a6 6 0 0 0 -6 6v57.886a6 6 0 0 0 12 0v-57.886a6 6 0 0 0 -6-6z"/></g></svg>