<svg id="Layer_1" enable-background="new 0 0 512 512" height="512" viewBox="0 0 512 512" width="512" xmlns="http://www.w3.org/2000/svg"><g><g><path d="m256 287.053c-6.91 0-13.57-.18-20-.54-221.46-12.09-161.7-226.57-161.7-226.57s160.83-20.76 331.18-3.68c10.72 1.07 21.47 2.29 32.22 3.68 0 0 63.28 227.11-181.7 227.11z" fill="#ff5f85"/><path d="m256 287.053c-6.91 0-13.57-.18-20-.54 192.27-10.51 179.69-173.75 169.48-230.25 10.72 1.07 21.47 2.29 32.22 3.68 0 0 63.28 227.11-181.7 227.11z" fill="#b2527e"/><g><path d="m114.71 471.344c0 18.29-14.82 33.12-33.11 33.12-3.49 0-6.85-.54-10-1.54-13.41-4.24-23.12-16.78-23.12-31.58s9.71-27.34 23.12-31.58c3.15-1 6.51-1.54 10-1.54 18.29-.001 33.11 14.829 33.11 33.12z" fill="#58768c"/><path d="m114.71 471.344c0 18.29-14.82 33.12-33.11 33.12-3.49 0-6.85-.54-10-1.54 13.4-4.24 23.11-16.78 23.11-31.58s-9.71-27.34-23.11-31.58c3.15-1 6.51-1.54 10-1.54 18.29-.001 33.11 14.829 33.11 33.12z" fill="#3e5868"/></g><g><path d="m463.522 471.346c0 18.29-14.82 33.12-33.11 33.12-3.49 0-6.85-.54-10-1.54-13.41-4.24-23.12-16.78-23.12-31.58s9.71-27.34 23.12-31.58c3.15-1 6.51-1.54 10-1.54 18.29 0 33.11 14.83 33.11 33.12z" fill="#58768c"/><path d="m463.522 471.346c0 18.29-14.82 33.12-33.11 33.12-3.49 0-6.85-.54-10-1.54 13.4-4.24 23.11-16.78 23.11-31.58s-9.71-27.34-23.11-31.58c3.15-1 6.51-1.54 10-1.54 18.29 0 33.11 14.83 33.11 33.12z" fill="#3e5868"/></g></g><g><path d="m449.668 157.849c.668-4.088-2.104-7.945-6.192-8.613-4.092-.663-7.943 2.105-8.61 6.194-13.455 82.362-73.634 124.123-178.866 124.123-14.896 0-29.104-.871-42.233-2.59-4.11-.531-7.873 2.356-8.41 6.464-.538 4.108 2.356 7.874 6.463 8.411 13.772 1.803 28.637 2.717 44.181 2.717 51.248 0 89.426-9.74 117.774-25.122 3.02 11.118 8.495 31.641 15.03 57.788.852 3.409 3.91 5.684 7.271 5.684.603 0 1.214-.073 1.824-.226 4.019-1.005 6.462-5.077 5.458-9.096-7.489-29.967-13.6-52.604-16.247-62.261 40.197-27.379 56.669-67.427 62.557-103.473z"/><path d="m430.404 430.753c-.757 0-1.509.025-2.255.066-4.95-23.476-10.502-48.141-16.541-73.455-.961-4.029-5-6.516-9.036-5.556-4.028.961-6.516 5.008-5.554 9.038 2.31 9.685 4.545 19.267 6.707 28.731-77.387 18.353-154.101 17.237-205.462 12.938-43.397-3.632-76.279-10.062-89.962-13.038 12.651-55.348 24.852-101.341 29.952-120.13 10.606 5.781 22.597 10.782 36.168 14.762.705.206 1.415.305 2.114.305 3.244 0 6.235-2.121 7.193-5.392 1.166-3.975-1.112-8.143-5.086-9.309-59.142-17.344-93.505-57.192-102.139-118.438-5.286-37.5 1.084-72.138 3.854-84.531 18.312-2.104 84.066-8.97 167.923-9.691 4.142-.036 7.471-3.423 7.436-7.565-.036-4.121-3.387-7.437-7.499-7.437h-.065c-15.422.133-30.238.472-44.273.951-.572-10.999 1.094-21.31 2.296-27.061 30.125-.99 63.889-1.337 99.567-.393 1.193 5.604 2.921 15.971 2.394 27.079-7.445-.21-14.942-.374-22.501-.479-.036-.001-.071-.001-.106-.001-4.094 0-7.44 3.29-7.497 7.396-.058 4.142 3.253 7.547 7.395 7.604 51.789.721 100.948 3.936 146.215 9.559 1.946 8.649 5.675 28.227 5.893 52.124.038 4.12 3.389 7.433 7.499 7.433h.069c4.142-.038 7.469-3.427 7.432-7.569-.313-34.228-7.309-59.724-7.606-60.793-.809-2.904-3.276-5.041-6.265-5.427-8.597-1.11-17.34-2.13-26.21-3.066.589-10.483-.56-20.271-1.772-27.163 8.679.912 17.374 1.924 26.062 3.045.326.042.649.063.97.063 3.714 0 6.94-2.759 7.429-6.542.53-4.109-2.37-7.869-6.479-8.4-180.574-23.309-363.5-.235-365.327 0-4.108.53-7.008 4.291-6.478 8.4s4.298 7.01 8.397 6.479c.404-.052 9.754-1.231 26.013-2.773-1.203 6.932-2.32 16.704-1.707 27.14-16.504 1.58-25.964 2.783-26.225 2.817-2.989.386-5.456 2.523-6.265 5.427-.509 1.825-12.38 45.295-5.487 95.002 4.915 35.442 20.431 78.946 63.341 108.295-5.221 19.06-24.297 90.052-41.078 169.62-.746-.041-1.497-.066-2.253-.066-22.396 0-40.618 18.223-40.618 40.623s18.223 40.625 40.619 40.625 40.618-18.224 40.618-40.624c0-16.4-9.773-30.55-23.794-36.96 2.164-10.271 4.366-20.398 6.573-30.291 14.003 3.072 47.091 9.561 91.692 13.312 18.638 1.568 40.536 2.724 64.595 2.724 43.716 0 94.545-3.844 145.744-15.966 2.288 10.263 4.475 20.348 6.555 30.221-14.02 6.41-23.792 20.56-23.792 36.958 0 22.4 18.222 40.624 40.618 40.624s40.617-18.224 40.617-40.624-18.221-40.621-40.618-40.621zm-35.311-410.042c1.195 5.588 2.951 16.031 2.414 27.222-23.947-2.225-48.791-3.833-74.376-4.809.483-10.583-.759-20.383-1.989-27.092 24.08.884 48.9 2.379 73.951 4.679zm-278.273.416c19.349-1.63 44.607-3.396 73.954-4.613-1.219 6.79-2.411 16.554-1.883 27.063-29.525 1.255-54.954 3.066-74.38 4.728-.582-11.062 1.104-21.433 2.309-27.178zm-9.606 450.249c0 14.128-11.492 25.622-25.618 25.622s-25.618-11.494-25.618-25.622c0-14.127 11.492-25.621 25.618-25.621s25.618 11.494 25.618 25.621zm323.19 25.622c-14.126 0-25.618-11.494-25.618-25.622 0-14.127 11.492-25.621 25.618-25.621 14.125 0 25.617 11.494 25.617 25.621 0 14.128-11.492 25.622-25.617 25.622z"/><path d="m321.271 112.781c4.138-.197 7.332-3.712 7.135-7.849-.197-4.138-3.722-7.33-7.848-7.136-63.792 3.038-128.47.031-129.117 0-4.117-.22-7.651 2.997-7.848 7.136-.197 4.137 2.997 7.652 7.134 7.849.434.021 29.483 1.373 67.873 1.373 19.342.001 41.054-.342 62.671-1.373z"/><circle cx="81.593" cy="471.375" r="7.5"/><circle cx="430.403" cy="471.375" r="7.5"/></g></g></svg>