<svg id="Layer_1" enable-background="new 0 0 512 512" height="512" viewBox="0 0 512 512" width="512" xmlns="http://www.w3.org/2000/svg"><g><g><path d="m439.43 454.471-40.06 5.46-143.37 19.56-183.43-25.02s-10.24-70.6 29.46-128.25c22.73-33.01 61.84-61.76 128.59-70.59-80.49-10.65-120.77-50.26-140.63-91.36-25.39-52.53-17.42-107.48-17.42-107.48l183.43-24.28 143.39 18.98 40.04 5.3s5.08 35.06-5.8 75.93c-13.41 50.35-51.05 109.52-152.25 122.91 84.84 11.22 125.01 54.63 143.67 98.03.01.01.02.02.02.02 21.67 50.4 14.36 100.79 14.36 100.79z" fill="#dcf8ff"/><path d="m433.63 132.721c-13.41 50.35-51.05 109.52-152.25 122.91 0 0 133.81-52.33 118.01-204.14l40.04 5.3s5.08 35.06-5.8 75.93z" fill="#d2e1f9"/><path d="m439.43 454.471-40.06 5.46c15.91-151.93-117.99-204.3-117.99-204.3 84.84 11.22 125.01 54.63 143.67 98.03.01.01.02.02.02.02 21.67 50.4 14.36 100.79 14.36 100.79z" fill="#d2e1f9"/><path d="m439.43 454.471-40.06 5.46-143.37 19.56-183.43-25.02s-10.24-70.6 29.46-128.25c21.1 11.59 45.25 21.77 98.46 21.77 37.51 0 55.4-4.62 113.41-17.65 21.25-4.77 39.4-4.94 54.5-2.74 37.32 5.43 55.99 25.34 56.65 26.06.01.01.02.02.02.02 21.67 50.4 14.36 100.79 14.36 100.79z" fill="#ffe878"/><path d="m439.43 454.471-40.06 5.46c6.03-57.54-9.43-100.79-30.97-132.33 37.32 5.43 55.99 25.34 56.65 26.06.01.01.02.02.02.02 21.67 50.4 14.36 100.79 14.36 100.79z" fill="#ffd37b"/><g><path d="m466 479.491c0 12.01-1.97 24.02-1.97 24.02s-13.51.13-35.66.29c-39.31.29-105.84.7-172.37.7-104.01 0-208.03-.99-208.03-.99s-1.97-12.01-1.97-24.02c0-12.02 1.97-24.03 1.97-24.03s104.02-.99 208.03-.99c66.44 0 132.88.4 172.21.7 22.24.16 35.82.29 35.82.29s1.97 12.01 1.97 24.03z" fill="#e2a67d"/><path d="m466 479.491c0 12.01-1.97 24.02-1.97 24.02s-13.51.13-35.66.29c3.43-20.98 1.35-39.57-.16-48.63 22.24.16 35.82.29 35.82.29s1.97 12.01 1.97 24.03z" fill="#d18766"/></g><g><path d="m465.995 32.52c0 12.01-1.97 24.02-1.97 24.02s-13.51.13-35.66.29c-39.31.29-105.84.7-172.37.7-104.01 0-208.03-.99-208.03-.99s-1.97-12.01-1.97-24.02c0-12.02 1.97-24.03 1.97-24.03s104.02-.99 208.03-.99c66.44 0 132.88.4 172.21.7 22.24.16 35.82.29 35.82.29s1.97 12.011 1.97 24.03z" fill="#e2a67d"/><path d="m465.995 32.52c0 12.01-1.97 24.02-1.97 24.02s-13.51.13-35.66.29c3.43-20.98 1.35-39.57-.16-48.63 22.24.16 35.82.29 35.82.29s1.97 12.011 1.97 24.03z" fill="#d18766"/></g><path d="m433.63 132.721c-13.41 50.35-51.05 109.52-152.25 122.91 0 0-12.9 31.57-7.26 83.58l-34.34 6.63c6-71.42-9.16-90.21-9.16-90.21-80.49-10.65-120.77-50.26-140.63-91.36l.05-.02s41.4-41.63 118.72-24.21c60.01 13.51 78.52 18.31 117.32 18.31 24.14 0 43.65-2.64 59.78-6.63 20.51-5.06 35.56-12.29 47.77-19z" fill="#ffe878"/><path d="m433.63 132.721c-13.41 50.35-51.05 109.52-152.25 122.91 0 0 72.53-28.36 104.48-103.91 20.51-5.06 35.56-12.29 47.77-19z" fill="#ffd37b"/></g><g><path d="m464.097 447.96c-.244-.002-6.181-.058-16.454-.142 1.583-21.233 2.131-81.655-35.614-131.552-22.026-29.116-53.21-49.427-92.987-60.634 39.777-11.207 70.961-31.518 92.987-60.634 37.32-49.337 37.204-108.956 35.667-130.815 10.241-.084 16.157-.139 16.401-.142 3.646-.035 6.738-2.687 7.329-6.283.085-.516 2.074-12.762 2.074-25.242 0-12.481-1.989-24.727-2.074-25.242-.591-3.597-3.684-6.248-7.329-6.283-1.04-.011-105.243-.991-208.097-.991s-207.057.98-208.097.99c-3.646.035-6.738 2.687-7.329 6.283-.085.516-2.074 12.761-2.074 25.243 0 12.48 1.989 24.727 2.074 25.242.591 3.597 3.684 6.248 7.329 6.283.124.001 6.075.057 16.401.142-1.538 21.859-1.654 81.479 35.667 130.815 22.031 29.123 53.228 49.438 93.019 60.643-25.752 7.27-47.982 18.372-66.379 33.184-21.693 17.467-38.092 40.066-48.738 67.171-1.515 3.855.383 8.209 4.238 9.723.9.354 1.828.521 2.74.521 2.993 0 5.822-1.805 6.982-4.76 3.567-9.081 7.806-17.549 12.687-25.423 19.86 10.253 45.239 19.433 95.973 19.433 35.882 0 54.464-4.186 104.126-15.372l10.924-2.458c29.079-6.528 55.406-4.973 78.247 4.626 13.966 5.869 22.279 13.116 24.864 15.583 15.854 37.858 14.959 75.785 13.911 89.831-38.795-.293-107.975-.729-176.565-.729-68.597 0-137.783.436-176.576.729-.704-9.197-1.364-28.593 2.686-51.363.726-4.078-1.992-7.972-6.07-8.697-4.074-.722-7.972 1.991-8.697 6.07-4.211 23.673-3.721 43.673-2.967 54.108-10.283.084-16.227.14-16.471.142-3.646.035-6.738 2.687-7.329 6.283-.085.516-2.074 12.762-2.074 25.242 0 12.481 1.989 24.727 2.074 25.242.591 3.597 3.684 6.248 7.329 6.283 1.038.011 105.241.99 208.095.99 20.646 0 42.758-.039 65.721-.116 4.142-.014 7.488-3.383 7.475-7.525-.014-4.134-3.369-7.475-7.499-7.475h-.026c-22.946.077-45.041.116-65.671.116-88.045 0-177.081-.719-201.456-.931-.502-4.379-1.044-10.519-1.044-16.584s.542-12.205 1.044-16.584c24.374-.212 113.409-.931 201.456-.931 88.045 0 177.081.719 201.456.931.501 4.38 1.044 10.519 1.044 16.584 0 6.066-.542 12.205-1.044 16.584-13.783.121-48.228.403-91.191.624-4.143.021-7.483 3.396-7.462 7.538.021 4.13 3.375 7.462 7.499 7.462h.039c55.867-.287 97.344-.679 97.756-.683 3.646-.035 6.738-2.687 7.329-6.283.085-.516 2.074-12.761 2.074-25.242 0-12.48-1.989-24.727-2.074-25.242-.591-3.597-3.684-6.248-7.329-6.283zm-231.305-109.089c-10.076 1.132-20.076 1.619-32.299 1.619-45.881 0-69.339-7.858-87.337-16.876 24.982-32.152 62.939-52.2 113.359-59.812 3.207 7.629 9.463 29.015 6.277 75.069zm41.652-86.075-.004-.002c-.012.029-.037.093-.061.151-.001.004-.003.008-.005.011-1.043 2.618-12.284 32.237-8.348 80.307-6.566 1.365-12.477 2.508-18.06 3.452 3.987-64.494-9.849-83.732-11.513-85.795l-.006.005c-1.172-1.452-2.875-2.468-4.847-2.729-53.456-7.071-93.689-27.978-119.583-62.136-4.89-6.451-9.068-13.135-12.648-19.908 4.525-3.514 12.81-9.133 24.596-13.89 24.94-10.066 52.915-11.718 83.144-4.91l11.295 2.55c30.7 6.938 49.23 11.125 67.314 13.52 4.104.533 7.876-2.345 8.42-6.451.543-4.106-2.345-7.876-6.451-8.42-17.409-2.305-35.69-6.436-65.978-13.279l-11.305-2.552c-61.499-13.849-101.366 7.756-117.539 19.511-15.086-36.817-14.495-73.472-13.485-87.928 9.681.073 21.231.156 34.166.237h.048c4.12 0 7.473-3.327 7.499-7.453.026-4.142-3.311-7.521-7.453-7.547-27.607-.174-48.949-.351-59.098-.439-.5-4.38-1.042-10.52-1.042-16.585 0-6.066.542-12.205 1.044-16.584 24.374-.213 113.409-.932 201.456-.932 88.045 0 177.081.719 201.456.932.502 4.379 1.044 10.519 1.044 16.584s-.542 12.205-1.044 16.584c-24.374.212-113.409.93-201.456.93-31.069 0-65.301-.089-101.746-.265-4.126.017-7.517 3.321-7.536 7.464-.02 4.142 3.322 7.516 7.464 7.536 36.468.176 70.725.265 101.818.265 68.621 0 137.833-.436 176.618-.729.783 11.214 1.314 35.785-5.527 63.43-21.946 11.706-51.344 23.119-101.009 23.119-4.143 0-7.5 3.357-7.5 7.5s3.357 7.5 7.5 7.5c43.708 0 72.817-8.374 94.918-18.381-4.886 13.053-11.661 26.245-21.019 38.591-25.894 34.158-66.127 55.064-119.583 62.136-2.737.363-4.962 2.175-5.954 4.6zm37.813 70.228-10.934 2.46c-7.535 1.697-14.304 3.221-20.503 4.591-2.392-32.763 2.797-56.081 5.71-66.119 50.405 7.825 88.558 28.409 113.45 61.247 1.23 1.623 2.411 3.261 3.554 4.911-19.588-9.133-49.894-16.381-91.277-7.09z"/><circle cx="174.563" cy="184.418" r="7.5"/><circle cx="248.133" cy="216.247" r="7.5"/><circle cx="317.083" cy="199.548" r="7.5"/><circle cx="142.743" cy="392.588" r="7.5"/><circle cx="194.393" cy="418.678" r="7.5"/><circle cx="234.783" cy="381.638" r="7.5"/><circle cx="299.263" cy="418.678" r="7.5"/><circle cx="377.003" cy="395.027" r="7.5"/></g></g></svg>