<svg id="Layer_1" height="512" viewBox="0 0 512 512" width="512" xmlns="http://www.w3.org/2000/svg" data-name="Layer 1"><path d="m130.039 172.838v98.891a125.86 125.86 0 1 0 251.719 0v-98.861z" fill="#da9e7b"/><path d="m381.758 134v38.868l-251.719-.03v-38.838z" fill="#deedfd"/><path d="m196.607 360.731a125.467 125.467 0 0 1 -36.868-89v-98.89h-29.7v98.891a125.875 125.875 0 0 0 125.861 125.868 127.139 127.139 0 0 0 14.83-.879 125.457 125.457 0 0 1 -74.123-35.99z" fill="#aa7b61"/><path d="m130.039 134h29.7v38.838h-29.7z" fill="#97c9fa"/><path d="m55.031 407.951a36.349 36.349 0 0 0 36.353 36.349h327.232a36.339 36.339 0 0 0 36.353-36.353z" fill="#64a9e2"/><path d="m112.792 442.609h285.315v26.073h-285.315z" fill="#deedfd"/><g fill="#284268"><path d="m172.675 104.147a6 6 0 0 0 12 0c0-5.046 2.184-7.322 5.49-10.766 3.936-4.1 8.834-9.2 8.834-19.076s-4.9-14.977-8.834-19.077c-3.306-3.444-5.49-5.719-5.49-10.766a6 6 0 1 0 -12 0c0 9.874 4.9 14.976 8.833 19.077 3.306 3.443 5.492 5.719 5.492 10.766s-2.185 7.322-5.491 10.766c-3.936 4.099-8.834 9.202-8.834 19.076z"/><path d="m219.832 104.147a6 6 0 0 0 12 0c0-5.046 2.184-7.322 5.49-10.766 3.936-4.1 8.834-9.2 8.834-19.076s-4.9-14.977-8.834-19.077c-3.306-3.444-5.49-5.719-5.49-10.766a6 6 0 1 0 -12 0c0 9.874 4.9 14.976 8.834 19.077 3.306 3.443 5.49 5.719 5.49 10.766s-2.184 7.322-5.49 10.766c-3.936 4.099-8.834 9.202-8.834 19.076z"/><path d="m265.844 104.147a6 6 0 0 0 12 0c0-5.046 2.184-7.322 5.49-10.766 3.936-4.1 8.834-9.2 8.834-19.076s-4.9-14.977-8.834-19.077c-3.306-3.444-5.49-5.719-5.49-10.766a6 6 0 1 0 -12 0c0 9.874 4.9 14.976 8.834 19.077 3.306 3.443 5.49 5.719 5.49 10.766s-2.184 7.322-5.49 10.766c-3.936 4.099-8.834 9.202-8.834 19.076z"/><path d="m313 104.147a6 6 0 0 0 12 0c0-5.046 2.185-7.322 5.491-10.766 3.935-4.1 8.833-9.2 8.833-19.076s-4.9-14.977-8.833-19.077c-3.305-3.444-5.491-5.719-5.491-10.766a6 6 0 1 0 -12 0c0 9.874 4.9 14.976 8.834 19.077 3.306 3.443 5.49 5.719 5.49 10.766s-2.184 7.322-5.49 10.766c-3.934 4.099-8.834 9.202-8.834 19.076z"/><path d="m158 273.352v-42.685a6 6 0 0 0 -12 0v42.685a109.4 109.4 0 0 0 18.784 61.561 5.938 5.938 0 0 0 8.281 1.608 6.015 6.015 0 0 0 1.667-8.332 97.449 97.449 0 0 1 -16.732-54.837z"/><path d="m152 214a6 6 0 0 0 6-6v-9.487a6 6 0 0 0 -12 0v9.487a6 6 0 0 0 6 6z"/><path d="m456.392 402h-166.066a133.562 133.562 0 0 0 74.945-52.636l47.4-19.409a71.206 71.206 0 0 0 43.913-73.112 71.6 71.6 0 0 0 -67.584-64.227v-58.389a6.087 6.087 0 0 0 -5.866-6.227h-254.268a6.087 6.087 0 0 0 -5.866 6.227v139.125a133.33 133.33 0 0 0 98.78 128.648h-165.749a5.969 5.969 0 0 0 -6 5.979 40.589 40.589 0 0 0 40.938 40.021h18.031v19.538c0 3.314 2.687 6.462 6 6.462h282c3.313 0 6-3.148 6-6.462v-19.538h18.031a40.683 40.683 0 0 0 40.938-40.584 5.25 5.25 0 0 0 -1.81-3.94 5.35 5.35 0 0 0 -3.767-1.476zm-67.392-128.648v-68.725a59.389 59.389 0 0 1 19.111 114.223l-32.8 13.4a132.281 132.281 0 0 0 13.689-58.898zm-254-133.352h242v27.486l-242-.029zm0 133.352v-93.895l242 .029v93.866c0 66.794-54.207 121.134-121 121.134s-121-54.34-121-121.134zm286.031 162.648h-238.031a6 6 0 0 0 0 12h208v14h-270v-14h22a6 6 0 0 0 0-12h-52.031c-13.9 0-25.543-9-28.312-22h386.686c-2.77 13-14.413 22-28.312 22z"/></g></svg>