<svg id="Capa_1" enable-background="new 0 0 511.022 511.022" height="512" viewBox="0 0 511.022 511.022" width="512" xmlns="http://www.w3.org/2000/svg"><g><g><circle cx="256.162" cy="254.616" fill="#f8f7f8" r="251.233"/><path d="m90.503 256.715c0-126.293 93.185-230.824 214.551-248.577-15.818-3.121-32.158-4.755-48.892-4.755-138.752 0-251.233 112.481-251.233 251.233s112.481 251.233 251.233 251.233c12.459 0 24.701-.901 36.674-2.652-115.343-22.757-202.333-124.464-202.333-246.482z" fill="#efedee"/><circle cx="255.511" cy="256.715" fill="#efedee" r="201.849"/><path d="m168.997 74.305c-68.188 32.398-115.335 101.894-115.335 182.41 0 80.521 47.131 150.016 115.327 182.411-48.343-45.789-78.485-110.572-78.485-182.411-.001-71.836 30.158-136.621 78.493-182.41z" fill="#e4e1e5"/><g id="XMLID_252_"><g><path d="m387.681 205.296c-2.26 31.62-7.62 61.11-18.52 86.77-.98 2.31.25 4.95 2.65 5.7 22.04 6.85 37.52 28.21 35.71 52.52l-7.72 103.35c-.6 8.08-7.49 14.27-15.65 13.94-7.38-.3-13.36-6.12-14.36-13.43l-4.96-36.18c-.22-1.62-.97-3.13-2.12-4.28l-29.93-29.93c-2.43-2.43-6.29-2.68-9.02-.58-39.18 30.3-97.32 30.3-136.5 0-2.73-2.1-6.59-1.85-9.02.58l-29.93 29.93c-1.15 1.15-1.9 2.66-2.12 4.28l-4.96 36.18c-1 7.31-6.98 13.13-14.36 13.43-8.16.33-15.05-5.86-15.65-13.94l-7.72-103.35c-1.81-24.28 13.63-45.62 35.62-52.5 2.43-.76 3.66-3.44 2.63-5.76-11.37-25.63-16.69-55.07-18.64-86.64l-1.05.06h-6.69c-3.52 0-6.66 2.24-7.8 5.58l-10.6 31.11c-4.89 14.35-26.1 10.83-26.1-4.33v-52.96c0-30.56 24.77-55.34 55.33-55.34h15.45c10.57-43.79 49.76-74.64 94.81-74.64h38.1c22.53 0 43.59 7.71 60.33 20.9 16.76 13.19 29.2 31.85 34.48 53.74h15.45c30.56 0 55.33 24.78 55.33 55.34v52.96c0 15.16-21.21 18.68-26.1 4.33l-10.6-31.11c-1.14-3.34-4.28-5.58-7.8-5.58h-5.87z" fill="#f4bb87"/></g><g><path d="m151.694 222.397c0-63.809 23.345-121.802 61.342-164.687-34.684 8.585-62.704 35.83-71.385 71.796h-15.45c-30.56 0-55.33 24.78-55.33 55.34v52.96c0 15.16 21.21 18.68 26.1 4.33l10.6-31.11c1.14-3.34 4.28-5.58 7.8-5.58h6.69l1.05-.06c1.95 31.57 7.27 61.01 18.64 86.64 1.03 2.32-.2 5-2.63 5.76-21.99 6.88-37.43 28.22-35.62 52.5l7.72 103.35c.6 8.08 7.49 14.27 15.65 13.94 7.38-.3 13.36-6.12 14.36-13.43l4.96-36.18c.22-1.62.97-3.13 2.12-4.28l29.93-29.93c2.43-2.43 6.29-2.68 9.02-.58 12.187 9.425 26.194 15.915 40.909 19.477-46.872-43.845-76.476-108.341-76.476-180.256z" fill="#f2ab6a"/></g></g><ellipse cx="190.823" cy="289.381" fill="#fbe88c" rx="18.989" ry="24.015" transform="matrix(.899 -.438 .438 .899 -107.395 112.686)"/><g fill="#b8de9c"><path d="m243.052 180.227h-20.551v-8.824c0-12.005 9.732-21.736 21.737-21.736h11.727c4.873 0 8.824 3.951 8.824 8.824 0 12.005-9.732 21.736-21.737 21.736z"/><path d="m201.95 164.947h20.551v-8.824c0-12.005-9.732-21.737-21.736-21.737h-11.727c-4.873 0-8.824 3.951-8.824 8.824 0 12.005 9.731 21.737 21.736 21.737z"/><path d="m312.331 210.065-14.798 25.423c-1.32 2.268-.697 5.169 1.439 6.694l9.483 6.772c1.878 1.341 4.424 1.249 6.2-.225l27.066-22.456c2.897-2.404 2.267-7.013-1.168-8.552l-21.751-9.739c-2.372-1.062-5.163-.163-6.471 2.083z"/></g><ellipse cx="330.871" cy="156.009" fill="#fbe88c" rx="15.936" ry="17.631"/><path d="m261.665 105.639v7.885c0 2.795 2.266 5.061 5.061 5.061h29.391c2.795 0 5.061-2.266 5.061-5.061v-17.498c0-3.443-3.363-5.881-6.635-4.811l-29.391 9.613c-2.08.681-3.487 2.622-3.487 4.811z" fill="#fbe88c"/><g><path d="m152.719 358.621c-.585 0-1.179-.069-1.773-.213l-7.406-1.796c-4.025-.977-6.497-5.031-5.521-9.057s5.029-6.493 9.057-5.521l7.406 1.796c4.025.977 6.497 5.031 5.521 9.057-.833 3.431-3.903 5.734-7.284 5.734z" fill="#f2ab6a"/></g></g><g><path d="m436.185 74.837c-48.26-48.258-112.425-74.837-180.674-74.837s-132.414 26.579-180.674 74.837c-48.259 48.26-74.837 112.425-74.837 180.674 0 41.517 10.186 82.737 29.456 119.205 18.323 34.676 44.82 65.082 76.684 88.088 3.524 6.923 10.478 11.676 18.551 12.221 39.44 23.55 84.625 35.996 130.82 35.996 46.203 0 91.395-12.45 130.84-36.009 8.062-.548 14.997-5.289 18.518-12.2 31.869-23.007 58.37-53.417 76.696-88.097 19.271-36.469 29.457-77.688 29.457-119.205 0-68.248-26.578-132.413-74.837-180.673zm-293.561 393.088c3.177-3.404 5.362-7.806 6.04-12.758l2.789-20.372c10.681 6.215 21.899 11.492 33.504 15.695.844.306 1.705.45 2.554.45 3.067 0 5.947-1.897 7.052-4.948 1.41-3.895-.604-8.195-4.498-9.605-12.638-4.576-24.796-10.504-36.217-17.63l29.288-29.287c20.189 15.439 45.866 23.935 72.375 23.935s52.186-8.495 72.375-23.935l29.291 29.288c-30.479 19.025-65.519 29.064-101.666 29.064-12.025 0-24.063-1.118-35.778-3.324-4.062-.77-7.992 1.912-8.758 5.982-.767 4.07 1.911 7.991 5.982 8.758 12.628 2.378 25.6 3.584 38.554 3.584 36.791 0 72.524-9.647 104.061-27.993l2.786 20.338c.677 4.95 2.861 9.351 6.036 12.754-34.605 18.413-73.347 28.102-112.882 28.102-39.537-.001-78.282-9.685-112.888-28.098zm241.829-7.844c-3.602-.146-6.712-3.134-7.234-6.949l-4.957-36.188c-.442-3.222-1.952-6.262-4.253-8.564l-29.923-29.923c-5.09-5.09-13.219-5.609-18.91-1.211-15.752 12.181-35.464 19.458-56.165 20.884v-68.983c0-4.143-3.357-7.5-7.5-7.5s-7.5 3.357-7.5 7.5v68.983c-20.701-1.425-40.413-8.703-56.165-20.883-5.69-4.401-13.819-3.879-18.909 1.21l-29.927 29.926c-2.298 2.3-3.808 5.34-4.25 8.564l-4.957 36.186c-.522 3.815-3.633 6.803-7.233 6.949-4.094.183-7.565-2.907-7.87-6.999l-7.717-103.351c-1.517-20.3 10.978-38.716 30.379-44.784 3.201-1.001 5.829-3.322 7.21-6.371 1.377-3.04 1.39-6.535.035-9.589-11.968-26.982-17.945-60.071-18.812-104.13-.082-4.142-3.48-7.392-7.646-7.352-4.142.082-7.433 3.505-7.352 7.646.086 4.366.223 8.627.408 12.797-6.667.071-12.572 4.331-14.727 10.653l-10.608 31.112c-1.5 4.398-5.399 4.117-6.56 3.922-1.16-.191-4.943-1.181-4.943-5.829v-52.962c0-26.377 21.46-47.836 47.837-47.836h15.448c3.464 0 6.478-2.373 7.291-5.74 9.793-40.57 45.78-68.905 87.516-68.905h38.104c41.735 0 77.723 28.335 87.516 68.905.813 3.367 3.827 5.74 7.291 5.74h15.448c26.377 0 47.837 21.459 47.837 47.836v52.962c0 4.648-3.783 5.638-4.943 5.829-1.157.196-5.059.479-6.56-3.922l-10.606-31.112c-2.172-6.371-8.151-10.653-14.881-10.66.23-4.135.417-8.362.559-12.691.136-4.141-3.109-7.606-7.249-7.743-4.173-.149-7.606 3.108-7.743 7.249-1.453 44.158-7.481 77.324-18.972 104.377-1.293 3.045-1.238 6.512.151 9.51 1.392 3.006 4.008 5.295 7.177 6.28 5.812 1.807 11.098 4.771 15.708 8.812 1.424 1.247 3.186 1.859 4.94 1.859 2.086 0 4.161-.865 5.644-2.557 2.729-3.116 2.418-7.854-.697-10.584-5.299-4.644-11.265-8.231-17.775-10.695 8.877-22.009 14.475-47.554 17.197-78.817h1.046c.316 0 .597.201.699.5l10.606 31.112c2.97 8.713 10.743 14.181 19.601 14.181 1.187 0 2.394-.099 3.61-.3 9.004-1.493 15.634-8.167 17.156-16.798.326 4.598.5 9.223.5 13.875 0 39.146-11.888 77.038-33.838 108.929l1.015-13.592c.414-5.544.039-11.11-1.114-16.544-.86-4.054-4.852-6.644-8.895-5.778-4.052.859-6.64 4.842-5.779 8.894.858 4.043 1.138 8.185.829 12.312l-7.717 103.351c-.306 4.09-3.807 7.176-7.871 6.997zm-267.995-337.312c9.41-9.825 19.837-18.655 31.061-26.302-4.904 7.827-8.844 16.382-11.602 25.542h-9.713c-3.315 0-6.569.262-9.746.76zm247.059-26.279c11.208 7.642 21.623 16.46 31.022 26.274-3.17-.494-6.416-.755-9.722-.755h-9.713c-2.754-9.151-6.69-17.698-11.587-25.519zm104.787 271.218c-14.865 28.132-35.451 53.274-60.056 73.551l3.716-49.77c32.809-37.721 50.858-85.899 50.858-135.979 0-27.53-5.321-54.26-15.797-79.473-2.174-15.427-9.969-29.063-21.243-38.781-24.67-35.45-60.478-62.807-101.01-77.178-15.003-8.146-32.139-12.715-50.208-12.715h-38.104c-18.069 0-35.205 4.569-50.208 12.715-40.532 14.371-76.34 41.728-101.01 77.178-11.274 9.718-19.069 23.354-21.243 38.781-10.478 25.214-15.799 51.944-15.799 79.474 0 12.606 1.151 25.271 3.422 37.641.664 3.616 3.818 6.146 7.368 6.146.449 0 .905-.04 1.363-.124 4.073-.748 6.771-4.657 6.022-8.731-2.107-11.479-3.176-23.231-3.176-34.932 0-4.648.176-9.269.502-13.863 1.527 8.626 8.154 15.295 17.154 16.787 10.301 1.703 19.843-4 23.211-13.881l10.606-31.112c.103-.299.383-.5.699-.5h.742c2.453 31.268 8.11 56.83 17.37 78.864-24.144 9.177-39.41 32.953-37.462 59.042l1.018 13.635c-8.989-13.035-16.311-27.108-21.863-42.055-1.442-3.883-5.763-5.866-9.642-4.419-3.883 1.441-5.861 5.759-4.419 9.642 8.714 23.462 21.48 44.921 37.94 63.839l3.716 49.764c-24.604-20.277-45.19-45.415-60.055-73.545-18.131-34.318-27.716-73.115-27.716-112.198 0-64.243 25.018-124.641 70.444-170.066 45.426-45.427 105.824-70.445 170.067-70.445s124.641 25.018 170.067 70.444c45.427 45.426 70.444 105.823 70.444 170.066 0 39.084-9.584 77.881-27.718 112.198z"/><path d="m214.641 277.789c-7.604-15.625-24.476-23.138-37.609-16.745s-17.631 24.305-10.026 39.93c5.764 11.844 16.851 19.025 27.6 19.025 3.433 0 6.831-.733 10.01-2.28 13.131-6.392 17.629-24.305 10.025-39.93.001 0 .001 0 0 0zm-16.591 26.442c-5.603 2.729-13.641-1.774-17.558-9.822-3.917-8.05-2.496-17.152 3.104-19.878 1.112-.542 2.321-.798 3.574-.798 5.058 0 10.845 4.17 13.983 10.62 3.918 8.05 2.496 17.152-3.103 19.878z"/><path d="m255.965 142.167h-11.728c-5.805 0-11.215 1.708-15.768 4.636-3.901-11.563-14.842-19.917-27.704-19.917h-11.727c-9.001 0-16.324 7.323-16.324 16.324 0 16.121 13.115 29.236 29.236 29.236h13.051v6.44c0 11.923-4.643 23.132-13.074 31.562l-1.938 1.938c-2.929 2.93-2.929 7.678 0 10.607 1.465 1.464 3.385 2.196 5.304 2.196s3.839-.732 5.304-2.196l1.938-1.938c9.152-9.153 14.963-20.756 16.82-33.33h13.697c16.121 0 29.237-13.115 29.237-29.236 0-8.999-7.323-16.322-16.324-16.322zm-68.251 1.043c0-.73.594-1.324 1.324-1.324h11.727c7.85 0 14.236 6.387 14.236 14.236v1.324h-13.051c-7.849.001-14.236-6.386-14.236-14.236zm55.338 29.517h-13.051v-1.324c0-7.85 6.387-14.236 14.236-14.236h11.728c.73 0 1.324.594 1.324 1.324 0 7.849-6.387 14.236-14.237 14.236z"/><path d="m343.618 210.877-21.751-9.739c-5.884-2.637-12.772-.421-16.018 5.153v.001l-14.798 25.422c-3.289 5.649-1.758 12.773 3.562 16.57l9.483 6.772c2.191 1.565 4.753 2.34 7.311 2.34 2.861 0 5.718-.972 8.037-2.896l27.064-22.456c3.369-2.794 5.026-7.051 4.434-11.388-.591-4.334-3.33-7.99-7.324-9.779zm-32.319 30.891-6.176-4.41 12.597-21.642 16.224 7.264z"/><path d="m330.871 130.878c-12.923 0-23.436 11.273-23.436 25.131s10.513 25.131 23.436 25.131 23.436-11.273 23.436-25.131-10.513-25.131-23.436-25.131zm0 35.262c-4.651 0-8.436-4.545-8.436-10.131s3.784-10.131 8.436-10.131 8.436 4.545 8.436 10.131-3.785 10.131-8.436 10.131z"/><path d="m266.727 126.085h29.392c6.927 0 12.562-5.635 12.562-12.562v-17.496c0-4.013-1.939-7.814-5.188-10.17s-7.464-3.02-11.279-1.77l-29.39 9.613c-5.179 1.693-8.657 6.491-8.657 11.938v7.885c-.002 6.928 5.633 12.562 12.56 12.562zm2.438-18.677 24.515-8.019v11.696h-24.515z"/><path d="m250.395 233.946-4.642 4.331c-3.029 2.826-3.193 7.571-.367 10.6 1.477 1.583 3.479 2.384 5.485 2.384 1.832 0 3.669-.668 5.114-2.017l4.642-4.331c3.029-2.826 3.193-7.571.367-10.6-2.824-3.028-7.57-3.192-10.599-.367z"/><path d="m301.18 291.477c-4.143 0-7.5 3.357-7.5 7.5v5.955c0 4.143 3.357 7.5 7.5 7.5s7.5-3.357 7.5-7.5v-5.955c0-4.143-3.358-7.5-7.5-7.5z"/><path d="m334.236 270.907c-4.143 0-7.5 3.357-7.5 7.5v4.872c0 4.143 3.357 7.5 7.5 7.5s7.5-3.357 7.5-7.5v-4.872c0-4.143-3.357-7.5-7.5-7.5z"/><path d="m323.409 318.795c-4.143 0-7.5 3.357-7.5 7.5v6.787c0 4.143 3.357 7.5 7.5 7.5s7.5-3.357 7.5-7.5v-6.787c0-4.142-3.357-7.5-7.5-7.5z"/><path d="m169.739 203.401 6.496-6.968c2.825-3.029 2.659-7.775-.371-10.6s-7.776-2.657-10.6.371l-6.496 6.968c-2.825 3.029-2.659 7.775.371 10.6 1.445 1.348 3.281 2.015 5.112 2.015 2.009 0 4.012-.802 5.488-2.386z"/><path d="m151.451 345.022c-2.374-3.394-7.052-4.22-10.445-1.844s-4.219 7.052-1.844 10.445l3.789 5.413c1.459 2.085 3.786 3.2 6.151 3.2 1.484 0 2.985-.44 4.294-1.356 3.394-2.376 4.219-7.052 1.844-10.445z"/><path d="m217.308 107.803c1.838 0 3.682-.672 5.129-2.029l5.195-4.872c3.021-2.833 3.173-7.58.34-10.602-2.832-3.021-7.578-3.175-10.602-.34l-5.195 4.872c-3.021 2.833-3.173 7.58-.34 10.602 1.477 1.574 3.472 2.369 5.473 2.369z"/></g></g></svg>