<svg id="Layer_1" height="512" viewBox="0 0 512 512" width="512" xmlns="http://www.w3.org/2000/svg" data-name="Layer 1"><path d="m360.92 124.58h-183.39a30 30 0 0 0 -30 30v145.42l12 40v128.95a30.011 30.011 0 0 0 30 30h159.39a30.011 30.011 0 0 0 30-30v-128.95l12-40v-145.42a30 30 0 0 0 -30-30z" fill="#75967a"/><path d="m286.82 99.32h64.82v25.26h-64.82z" fill="#6d7486"/><path d="m121.08 170.91h26.45v70.07h-26.45z" fill="#6d7486"/><path d="m325.23 266.98a20.245 20.245 0 1 1 -20.25 20.25 20.246 20.246 0 0 1 20.25-20.25z" fill="#d8ff33"/><path d="m199.93 179.38h138.59v54.61h-138.59z" fill="#d4e1f4"/><path d="m269.23 266.98a20.245 20.245 0 1 1 -20.25 20.25 20.246 20.246 0 0 1 20.25-20.25z" fill="#d4e1f4"/><path d="m213.23 266.98a20.245 20.245 0 1 1 -20.25 20.25 20.246 20.246 0 0 1 20.25-20.25z" fill="#fb6771"/><path d="m189.53 468.95v-128.95l-12-40v-145.42a30 30 0 0 1 30-30h-30a30 30 0 0 0 -30 30v145.42l12 40v128.95a30.011 30.011 0 0 0 30 30h30a30.011 30.011 0 0 1 -30-30z" fill="#95bc99"/><path d="m199.93 179.38h30v54.61h-30z" fill="#b9c8db"/><path d="m338.71 407.12v91.83h-138.97v-91.83a30 30 0 0 1 30-30h78.97a30 30 0 0 1 30 30z" fill="#7c7e38"/><path d="m259.74 377.12h-30a30 30 0 0 0 -30 30v91.83h30v-91.83a30 30 0 0 1 30-30z" fill="#6d6d2e"/><g fill="#284268"><path d="m199.929 240h138.592a6 6 0 0 0 6-6v-54.621a6 6 0 0 0 -6-6h-138.592a6 6 0 0 0 -6 6v54.621a6 6 0 0 0 6 6zm6-54.616h126.592v42.616h-126.592z"/><path d="m269.226 260.983a26.244 26.244 0 1 0 26.243 26.244 26.274 26.274 0 0 0 -26.243-26.244zm0 40.488a14.244 14.244 0 1 1 14.243-14.244 14.26 14.26 0 0 1 -14.243 14.244z"/><path d="m213.226 260.983a26.244 26.244 0 1 0 26.243 26.244 26.274 26.274 0 0 0 -26.243-26.244zm0 40.488a14.244 14.244 0 1 1 14.243-14.244 14.26 14.26 0 0 1 -14.243 14.244z"/><path d="m325.226 260.983a26.244 26.244 0 1 0 26.243 26.244 26.274 26.274 0 0 0 -26.243-26.244zm0 40.488a14.244 14.244 0 1 1 14.243-14.244 14.26 14.26 0 0 1 -14.243 14.244z"/><path d="m176.457 165.554a6 6 0 0 0 -6 6v7.151a6 6 0 1 0 12 0v-7.151a6 6 0 0 0 -6-6z"/><path d="m176.457 192.666a6 6 0 0 0 -6 6v67.886a6 6 0 0 0 12 0v-67.886a6 6 0 0 0 -6-6z"/><path d="m360.916 118.581h-3.28v-19.259a6 6 0 0 0 -6-6h-26.41v-80.267a6 6 0 0 0 -12 0v80.267h-26.411a6 6 0 0 0 -6 6v19.259h-103.281a36.041 36.041 0 0 0 -36 36v10.326h-20.45a6 6 0 0 0 -6 6v70.07a6 6 0 0 0 6 6h20.45v53.023a5.99 5.99 0 0 0 .253 1.724l11.747 39.157v128.064a36.041 36.041 0 0 0 36 36h159.382a36.04 36.04 0 0 0 36-36v-128.064l11.747-39.157a5.99 5.99 0 0 0 .253-1.724v-145.419a36.04 36.04 0 0 0 -36-36zm-219.382 116.4h-14.45v-58.07h14.45zm151.281-129.659h52.821v13.259h-52.821zm39.9 387.623h-126.978v-85.822a24.028 24.028 0 0 1 24-24h78.977a24.028 24.028 0 0 1 24 24zm52.2-193.826-11.747 39.157a5.99 5.99 0 0 0 -.253 1.724v128.945a24.027 24.027 0 0 1 -24 24h-4.2v-85.822a36.041 36.041 0 0 0 -36-36h-78.978a36.041 36.041 0 0 0 -36 36v85.822h-4.2a24.027 24.027 0 0 1 -24-24v-128.945a5.99 5.99 0 0 0 -.253-1.724l-11.747-39.157v-144.538a24.027 24.027 0 0 1 24-24h183.379a24.027 24.027 0 0 1 24 24z"/><path d="m298.714 416.123h-58.977a6 6 0 0 0 0 12h58.977a6 6 0 0 0 0-12z"/><path d="m298.714 436.123h-58.977a6 6 0 0 0 0 12h58.977a6 6 0 0 0 0-12z"/><path d="m298.714 456.123h-58.977a6 6 0 0 0 0 12h58.977a6 6 0 0 0 0-12z"/></g></svg>