<svg id="Layer_1" enable-background="new 0 0 512 512" height="512" viewBox="0 0 512 512" width="512" xmlns="http://www.w3.org/2000/svg"><g><g><g><path d="m136.914 504.504c-6.28 0-12.19-.32-17.75-.95-121.81-13.6-77.67-169.3-77.67-169.3s70.43-12.25 157.09-4.15c11.02 1.03 22.31 2.39 33.75 4.15 0 0 48.25 170.25-95.42 170.25z" fill="#58768c"/><path d="m136.914 504.504c-6.28 0-12.19-.32-17.75-.95 107.76-12.38 86.13-142.51 79.42-173.45 11.02 1.03 22.31 2.39 33.75 4.15 0 0 48.25 170.25-95.42 170.25z" fill="#3e5868"/></g><g><path d="m375.079 504.505c-6.28 0-12.19-.32-17.75-.95-121.81-13.6-77.67-169.3-77.67-169.3s70.43-12.25 157.09-4.15c11.02 1.03 22.31 2.39 33.75 4.15 0 0 48.25 170.25-95.42 170.25z" fill="#58768c"/><path d="m375.079 504.505c-6.28 0-12.19-.32-17.75-.95 107.76-12.38 86.13-142.51 79.42-173.45 11.02 1.03 22.31 2.39 33.75 4.15 0 0 48.25 170.25-95.42 170.25z" fill="#3e5868"/></g><g fill="#be94ff"><ellipse cx="393.662" cy="78.498" rx="15.031" ry="14.974"/><ellipse cx="116.893" cy="68.505" rx="15.031" ry="14.974"/></g></g><g><path d="m8.943 139.901c.088.003.174.004.261.004 4.024 0 7.353-3.192 7.491-7.244.528-15.525 1.187-30.445 1.959-44.483 9.855 2.947 26.502 8.641 41.345 17.154 3.594 2.062 8.176.818 10.238-2.774 2.061-3.593.819-8.176-2.774-10.237-24.705-14.171-52.867-20.853-54.054-21.131-2.154-.506-4.416-.033-6.19 1.288-1.771 1.321-2.871 3.355-3.005 5.563-1.016 16.795-1.861 35-2.512 54.108-.14 4.141 3.101 7.611 7.241 7.752z"/><path d="m507.8 78.04c-.134-2.206-1.233-4.24-3.006-5.562-1.772-1.32-4.033-1.794-6.189-1.288-1.187.277-29.348 6.96-54.052 21.13-3.594 2.062-4.835 6.645-2.774 10.237 2.063 3.595 6.648 4.837 10.238 2.774 14.843-8.514 31.491-14.207 41.344-17.154 5.997 108.865 2.911 233.987 2.347 254.333-4.596 4.723-9.292 8.767-13.233 11.898-2.092-12.681-4.426-21.114-4.735-22.203-.786-2.772-3.091-4.85-5.93-5.344-1.231-.215-30.657-5.262-75.133-6.674-.081-.003-.162-.004-.242-.004-4.032 0-7.364 3.203-7.492 7.262-.132 4.141 3.118 7.604 7.258 7.734 33.206 1.055 58.236 4.256 68.255 5.718 4.211 18.058 17.011 84.903-13.129 124.727-15.759 20.819-41.407 31.376-76.231 31.376s-60.472-10.557-76.229-31.376c-30.124-39.801-17.355-106.594-13.137-124.693 22.433-3.235 46.029-5.203 70.22-5.856 4.141-.111 7.408-3.559 7.295-7.699-.111-4.141-3.594-7.416-7.7-7.295-26.593.718-52.504 2.99-77.015 6.757-2.902.446-5.276 2.544-6.077 5.368-.313 1.106-2.715 9.79-4.831 22.798-9.077-.733-17.492-.4-23.222.049-2.118-13.037-4.525-21.742-4.838-22.847-.801-2.824-3.175-4.922-6.078-5.368-101.395-15.581-189.575-.62-193.278.024-2.84.494-5.145 2.571-5.931 5.344-.309 1.09-2.643 9.522-4.735 22.203-3.941-3.13-8.636-7.175-13.232-11.897-.426-15.274-2.282-89.669-.645-171.423.083-4.142-3.206-7.565-7.348-7.648-4.152-.116-7.567 3.207-7.649 7.348-1.839 91.721.704 174.222.73 175.045.057 1.81.767 3.537 1.997 4.864 9.036 9.741 18.642 17.073 23.899 20.79-3.007 30.579-1.584 72.742 21.405 103.152 18.745 24.79 48.426 37.36 88.221 37.36 19.82 0 37.327-3.166 52.036-9.41 3.813-1.618 5.592-6.021 3.973-9.834-1.618-3.813-6.024-5.593-9.834-3.973-12.844 5.452-28.379 8.217-46.174 8.217-34.824 0-60.471-10.557-76.229-31.376-30.141-39.823-17.343-106.666-13.131-124.722 19.37-2.806 94.892-12.059 178.728.028 4.202 18.034 16.887 84.379-12.792 124.231-2.474 3.322-1.786 8.021 1.536 10.495 3.323 2.474 8.021 1.785 10.496-1.536 22.999-30.883 24.049-73.652 20.862-104.172 4.92-.356 11.844-.598 19.242-.055-3.212 30.693-2.144 73.804 21.246 104.743 18.742 24.794 48.423 37.364 88.219 37.364s69.477-12.57 88.22-37.363c22.99-30.409 24.412-72.572 21.405-103.151 5.257-3.717 14.862-11.049 23.898-20.79 1.232-1.327 1.942-3.055 1.998-4.864.046-1.455 4.496-146.852-2.817-267.792z"/><path d="m127.048 234.729c-20.483 18.066-35.356 25.219-35.49 25.282-2.631 1.234-4.312 3.877-4.313 6.783-.002 2.905 1.674 5.551 4.302 6.79 1.033.486 17.674 8.135 41.929 8.134 12.368 0 26.716-1.988 41.985-7.929 3.86-1.502 5.772-5.849 4.27-9.709-1.501-3.859-5.847-5.77-9.709-4.27-22.881 8.902-43.617 7.477-56.913 4.75 6.455-4.354 14.632-10.439 23.864-18.583 31.098-27.43 46.795-65.521 37.325-90.573-3.468-9.173-13.656-24.563-42.927-24.563-15.028 0-26.482 4.924-34.041 14.636-15.459 19.857-7.488 52.274-7.141 53.646 1.016 4.011 5.09 6.438 9.098 5.427 4.013-1.009 6.449-5.082 5.447-9.097-1.847-7.395-4.646-29.138 4.454-40.79 4.637-5.936 11.892-8.821 22.183-8.821 15.444 0 25.166 5.002 28.895 14.866 7.107 18.809-7.483 51.321-33.218 74.021z"/><path d="m333.142 234.729c-20.483 18.066-35.356 25.219-35.49 25.282-2.631 1.234-4.312 3.877-4.313 6.783-.002 2.905 1.674 5.551 4.302 6.79 1.033.486 17.674 8.135 41.929 8.134 12.368 0 26.716-1.988 41.985-7.929 3.86-1.502 5.772-5.849 4.27-9.709-1.502-3.859-5.848-5.77-9.709-4.27-22.881 8.902-43.616 7.477-56.913 4.75 6.455-4.354 14.632-10.439 23.864-18.583 31.098-27.43 46.795-65.521 37.325-90.573-3.468-9.173-13.656-24.563-42.927-24.563-15.028 0-26.482 4.924-34.041 14.636-15.459 19.857-7.488 52.274-7.141 53.646 1.016 4.011 5.09 6.438 9.098 5.427 4.013-1.009 6.449-5.082 5.447-9.097-1.847-7.395-4.646-29.138 4.454-40.79 4.637-5.936 11.892-8.821 22.183-8.821 15.444 0 25.167 5.002 28.895 14.866 7.107 18.809-7.483 51.321-33.218 74.021z"/><path d="m198.016 147.599c-6.098 10.73-8.474 27.18-8.474 58.668s2.376 47.937 8.474 58.667c8.391 14.766 23.469 16.756 37.111 16.756 29.253 0 40.838-11.338 44.27-43.327.442-4.118-2.538-7.815-6.657-8.257-4.118-.443-7.816 2.539-8.257 6.657-2.769 25.8-9.418 29.927-29.355 29.927-22.726 0-30.585-2.927-30.585-60.423 0-57.497 7.859-60.424 30.585-60.424 21.506 0 30.246 2.181 30.575 56.87.025 4.127 3.378 7.455 7.5 7.455h.046c4.143-.025 7.48-3.403 7.455-7.545-.305-50.62-6.704-71.78-45.575-71.78-13.644 0-28.722 1.991-37.113 16.756z"/><path d="m414.169 130.87c-4.127.35-7.19 3.979-6.841 8.105.056.649 5.434 65.733-.003 134.624-.326 4.129 2.757 7.74 6.887 8.066.2.016.4.023.598.023 3.875 0 7.16-2.981 7.469-6.91 5.537-70.157.053-136.409-.003-137.07-.351-4.126-3.987-7.201-8.107-6.838z"/><path d="m156.072 26.192c.247.149 24.869 15.329 39.409 46.142 1.28 2.713 3.976 4.302 6.788 4.302 1.072 0 2.162-.231 3.196-.719 3.746-1.769 5.351-6.238 3.583-9.983-16.563-35.1-44.081-51.897-45.244-52.596-3.547-2.127-8.138-.979-10.274 2.563-2.136 3.541-.994 8.147 2.542 10.291z"/><path d="m305.418 75.917c1.033.487 2.123.719 3.196.719 2.812 0 5.508-1.59 6.788-4.302 14.498-30.722 39.019-45.903 39.406-46.141 3.543-2.134 4.69-6.734 2.562-10.282-2.131-3.552-6.739-4.703-10.291-2.573-1.163.698-28.681 17.496-45.244 52.596-1.768 3.745-.164 8.214 3.583 9.983z"/><path d="m255.442 51.245c4.143 0 7.5-3.357 7.5-7.5v-36.245c0-4.143-3.358-7.5-7.5-7.5s-7.5 3.357-7.5 7.5v36.245c-.001 4.143 3.357 7.5 7.5 7.5z"/><path d="m393.682 100.968c12.424 0 22.532-10.082 22.532-22.475 0-12.392-10.108-22.474-22.532-22.474s-22.532 10.083-22.532 22.474c0 12.393 10.107 22.475 22.532 22.475zm0-29.948c4.153 0 7.532 3.353 7.532 7.474s-3.379 7.475-7.532 7.475-7.532-3.354-7.532-7.475 3.379-7.474 7.532-7.474z"/><path d="m116.899 90.976c12.424 0 22.532-10.082 22.532-22.475 0-12.392-10.108-22.474-22.532-22.474-12.425 0-22.532 10.082-22.532 22.474-.001 12.393 10.107 22.475 22.532 22.475zm0-29.949c4.152 0 7.531 3.353 7.531 7.474s-3.379 7.475-7.531 7.475c-4.153 0-7.532-3.354-7.532-7.475s3.379-7.474 7.532-7.474z"/><path d="m78.2 406.725c17.871-19.988 40.553-34.82 40.779-34.968 3.474-2.255 4.463-6.897 2.21-10.372-2.254-3.476-6.9-4.466-10.375-2.212-.993.645-24.549 16.025-43.797 37.554-2.761 3.088-2.496 7.83.592 10.59 1.432 1.28 3.217 1.909 4.996 1.909 2.062 0 4.115-.845 5.595-2.501z"/><path d="m77.62 447.115c1.432 1.278 3.217 1.908 4.996 1.908 2.061 0 4.114-.844 5.595-2.501 37.244-41.659 84.387-72.461 84.859-72.767 3.475-2.255 4.463-6.899 2.209-10.374s-6.898-4.466-10.373-2.21c-1.993 1.292-49.255 32.151-87.879 75.353-2.76 3.088-2.495 7.83.593 10.591z"/><path d="m314.066 407.725c17.87-19.989 40.552-34.821 40.778-34.969 3.474-2.255 4.463-6.897 2.21-10.372-2.255-3.476-6.899-4.465-10.375-2.212-.993.645-24.549 16.025-43.798 37.555-2.761 3.089-2.495 7.83.593 10.591 1.432 1.279 3.217 1.908 4.996 1.908 2.061 0 4.114-.845 5.596-2.501z"/><path d="m313.485 448.114c1.432 1.278 3.217 1.908 4.996 1.908 2.061 0 4.114-.844 5.595-2.501 37.244-41.659 84.387-72.461 84.859-72.767 3.474-2.255 4.463-6.899 2.209-10.374-2.255-3.475-6.898-4.466-10.373-2.21-1.993 1.292-49.255 32.151-87.879 75.353-2.76 3.088-2.496 7.831.593 10.591z"/><circle cx="66.47" cy="27.379" r="7.5"/><circle cx="256.139" cy="94.049" r="7.5"/><circle cx="476.4" cy="44.449" r="7.5"/></g></g></svg>