<svg id="Layer_1" height="512" viewBox="0 0 512 512" width="512" xmlns="http://www.w3.org/2000/svg" data-name="Layer 1"><path d="m114.92 469.03h282.16v30.01h-282.16z" fill="#c2684f"/><path d="m256 12.96-115.18 68.76h230.36z" fill="#9ac5a1"/><path d="m159.94 81.72h192.12v89.66h-192.12z" fill="#bfdde0"/><path d="m159.94 171.38h192.12v25.04h-192.12z" fill="#75967a"/><path d="m283.94 170.01v1.37h-55.88v-1.37-33.24l27.94-26 27.94 26z" fill="#f3e08d"/><path d="m335.73 196.42 39.6 272.61h-27.92l-39.56-272.31.16-.3z" fill="#e1b7a3"/><path d="m204.15 196.72-39.56 272.31h-27.92l39.6-272.61h27.72z" fill="#e1b7a3"/><path d="m256 12.96-115.18 68.76h30l100.18-59.805z" fill="#82af87"/><path d="m114.92 469.03h30v30.01h-30z" fill="#a35441"/><path d="m159.94 81.72h30v89.66h-30z" fill="#a1c4c6"/><path d="m159.94 171.38h30v25.04h-30z" fill="#627f66"/><g fill="#284268"><path d="m397.082 463.025h-16.557l-37.86-260.6h9.395a6 6 0 0 0 6-6v-108.708h13.123a6 6 0 0 0 3.075-11.152l-115.183-68.754a6 6 0 0 0 -6.15 0l-115.183 68.754a6 6 0 0 0 3.075 11.152h13.123v108.706a6 6 0 0 0 6 6h9.4l-37.86 260.6h-16.562a6 6 0 0 0 -6 6v30.013a6 6 0 0 0 6 6h282.164a6 6 0 0 0 6-6v-30.011a6 6 0 0 0 -6-6zm-28.683 0h-15.799l-37.86-260.6h15.8zm-112.399-180.511-42.076-80.091h84.152zm48.568-66.646 31.948 219.9-73.739-140.353zm-55.345 79.547-73.739 140.357 31.948-219.9zm6.777 12.9 81.278 154.71h-162.556zm90.06-142.93h-56.121v-28.611a6 6 0 0 0 -1.912-4.392l-27.939-26a6 6 0 0 0 -8.176 0l-27.939 26a6 6 0 0 0 -1.912 4.392v28.611h-56.121v-77.668h180.12zm-68.121-26v26h-43.878v-26l21.939-20.414zm-21.939-119.435 93.425 55.767h-186.85zm-90.06 170.473v-13.038h180.12v13.038zm15.521 12h15.8l-37.86 260.6h-15.801zm209.621 290.615h-270.164v-18.013h270.164z"/><path d="m184.457 111.705a6 6 0 0 0 6-6v-3.151a6 6 0 1 0 -12 0v3.151a6 6 0 0 0 6 6z"/><path d="m184.457 161.551a6 6 0 0 0 6-6v-32.885a6 6 0 0 0 -12 0v32.885a6 6 0 0 0 6 6z"/></g></svg>