<svg id="Capa_1" enable-background="new 0 0 513.527 513.527" height="512" viewBox="0 0 513.527 513.527" width="512" xmlns="http://www.w3.org/2000/svg"><g><g><g><g><path d="m476.198 155.446c10.792 0 19.541-8.749 19.541-19.54v-11.396c0-10.792-8.749-19.541-19.541-19.541h-83.927c-10.792 0-19.541 8.749-19.541 19.541v11.396c0 10.792 8.749 19.54 19.541 19.54z" fill="#efedee"/></g></g><path d="m281.067 505.922h-201.916c-33.889 0-61.362-27.473-61.362-61.362v-375.698c0-33.889 27.473-61.362 61.362-61.362h201.916c33.889 0 61.362 27.473 61.362 61.362v375.698c0 33.89-27.473 61.362-61.362 61.362z" fill="#f8f7f8"/><path d="m159.826 462.668c-40.952 0-74.15-33.198-74.15-74.15v-362.911c0-6.303.954-12.383 2.719-18.107h-9.244c-33.889 0-61.362 27.473-61.362 61.362v375.698c0 33.889 27.473 61.362 61.362 61.362h201.916c27.586 0 50.917-18.205 58.643-43.254z" fill="#efedee"/><g><g id="XMLID_268_"><g><path d="m312.691 198.819c.74 9.95-6.72 18.61-16.66 19.35h-15.35c-8.7 0-17.32 1.64-25.41 4.85-47.29 18.74-99.95 18.74-147.25 0-4.04-1.61-8.22-2.82-12.47-3.63-4.26-.81-8.59-1.22-12.94-1.22h-19.89c-9.94-.74-17.4-9.4-16.66-19.35.35-4.75 2.52-8.94 5.78-11.93 3.77-3.46 5.02-8.92 3.12-13.67-1.65-4.11-1.79-8.82-.05-13.26 1.74-4.45 5.05-7.8 9.04-9.7 4.63-2.19 7.43-7.04 7.01-12.15-.36-4.4.89-8.95 3.87-12.68 2.97-3.73 7.13-5.97 11.5-6.6 5.07-.73 9.17-4.54 10.28-9.54.96-4.32 3.49-8.29 7.43-10.98 3.95-2.69 8.57-3.6 12.94-2.92 5.06.8 10.1-1.63 12.63-6.08 2.19-3.85 5.79-6.9 10.35-8.3 4.56-1.41 9.24-.92 13.22 1.03 4.6 2.25 10.13 1.41 13.86-2.09 3.23-3.03 7.56-4.89 12.33-4.89 4.78 0 9.11 1.86 12.33 4.89 3.73 3.5 9.27 4.34 13.87 2.09 3.97-1.95 8.66-2.44 13.22-1.03 4.56 1.4 8.15 4.45 10.34 8.3 2.53 4.45 7.58 6.88 12.64 6.08 4.36-.68 8.99.23 12.93 2.92s6.48 6.66 7.44 10.98c1.1 5 5.21 8.81 10.27 9.54 4.38.63 8.53 2.87 11.51 6.6 2.97 3.73 4.22 8.28 3.86 12.68-.41 5.11 2.38 9.96 7.01 12.15 3.99 1.9 7.3 5.25 9.04 9.7 1.75 4.44 1.6 9.15-.04 13.26-1.9 4.75-.66 10.21 3.11 13.67 3.26 2.99 5.43 7.18 5.79 11.93z" fill="#fdf5cb"/></g></g><g id="XMLID_264_"><g><path d="m273.811 217.439.11 1.07c-6.39.62-12.66 2.13-18.65 4.51-47.29 18.74-99.95 18.74-147.25 0-4.04-1.61-8.22-2.82-12.47-3.63-3.51-.67-7.07-1.06-10.65-1.18l.04-1.06v-10.96c0-51.27 41.57-92.84 92.84-92.84h3.18c51.28 0 92.85 41.57 92.85 92.84z" fill="#fbe88c"/></g></g><path d="m193.754 81.498c-.727-.44-1.418-.953-2.053-1.549-3.22-3.03-7.55-4.89-12.33-4.89-4.77 0-9.1 1.86-12.33 4.89-3.73 3.5-9.26 4.34-13.86 2.09-3.98-1.95-8.66-2.44-13.22-1.03-4.56 1.4-8.16 4.45-10.35 8.3-2.53 4.45-7.57 6.88-12.63 6.08-4.37-.68-8.99.23-12.94 2.92-3.94 2.69-6.47 6.66-7.43 10.98-1.11 5-5.21 8.81-10.28 9.54-4.37.63-8.53 2.87-11.5 6.6-2.98 3.73-4.23 8.28-3.87 12.68.42 5.11-2.38 9.96-7.01 12.15-3.99 1.9-7.3 5.25-9.04 9.7-1.74 4.44-1.6 9.15.05 13.26 1.9 4.75.65 10.21-3.12 13.67-3.26 2.99-5.43 7.18-5.78 11.93-.74 9.95 6.72 18.61 16.66 19.35h12.043c2.367-68.73 52.957-125.216 118.99-136.671z" fill="#fcf0b6"/><g id="XMLID_262_"><g><path d="m312.691 265.004c.74 9.95-6.72 18.61-16.66 19.35h-15.35c-8.7 0-17.32 1.64-25.41 4.85-47.29 18.74-99.95 18.74-147.25 0-4.04-1.61-8.22-2.82-12.47-3.63-4.26-.81-8.59-1.22-12.94-1.22h-19.89c-9.94-.74-17.4-9.4-16.66-19.35.35-4.75 2.52-8.94 5.78-11.93 3.77-3.46 5.02-8.92 3.12-13.67-1.65-4.11-1.79-8.82-.05-13.26 1.74-4.45 5.05-7.8 9.04-9.7 4.63-2.19 7.43-7.04 7.01-12.15-.36-4.4.89-8.95 3.87-12.68 2.97-3.73 7.13-5.97 11.5-6.6 5.07-.73 9.17-4.54 10.28-9.54.96-4.32 3.49-8.29 7.43-10.98 3.95-2.69 8.57-3.6 12.94-2.92 5.06.8 10.1-1.63 12.63-6.08 2.19-3.85 5.79-6.9 10.35-8.3 4.56-1.41 9.24-.92 13.22 1.03 4.6 2.25 10.13 1.41 13.86-2.09 3.23-3.03 7.56-4.89 12.33-4.89 4.78 0 9.11 1.86 12.33 4.89 3.73 3.5 9.27 4.34 13.87 2.09 3.97-1.95 8.66-2.44 13.22-1.03 4.56 1.4 8.15 4.45 10.34 8.3 2.53 4.45 7.58 6.88 12.64 6.08 4.36-.68 8.99.23 12.93 2.92s6.48 6.66 7.44 10.98c1.1 5 5.21 8.81 10.27 9.54 4.38.63 8.53 2.87 11.51 6.6 2.97 3.73 4.22 8.28 3.86 12.68-.41 5.11 2.38 9.96 7.01 12.15 3.99 1.9 7.3 5.25 9.04 9.7 1.75 4.44 1.6 9.15-.04 13.26-1.9 4.75-.66 10.21 3.11 13.67 3.26 2.99 5.43 7.18 5.79 11.93z" fill="#fdf5cb"/></g></g><g id="XMLID_259_"><g><path d="m273.811 283.624.11 1.07c-6.39.62-12.66 2.13-18.65 4.51-47.29 18.74-99.95 18.74-147.25 0-4.04-1.61-8.22-2.82-12.47-3.63-3.51-.67-7.07-1.06-10.65-1.18l.04-1.06v-10.96c0-51.27 41.57-92.84 92.84-92.84h3.18c51.28 0 92.85 41.57 92.85 92.84z" fill="#fbe88c"/></g></g><g><path d="m193.636 147.618c-.688-.426-1.33-.917-1.935-1.485-3.22-3.03-7.55-4.89-12.33-4.89-4.77 0-9.1 1.86-12.33 4.89-3.73 3.5-9.26 4.34-13.86 2.09-3.98-1.95-8.66-2.44-13.22-1.03-4.56 1.4-8.16 4.45-10.35 8.3-2.53 4.45-7.57 6.88-12.63 6.08-4.37-.68-8.99.23-12.94 2.92-3.94 2.69-6.47 6.66-7.43 10.98-1.11 5-5.21 8.81-10.28 9.54-4.37.63-8.53 2.87-11.5 6.6-2.98 3.73-4.23 8.28-3.87 12.68.42 5.11-2.38 9.96-7.01 12.15-3.99 1.9-7.3 5.25-9.04 9.7-1.74 4.44-1.6 9.15.05 13.26 1.9 4.75.65 10.21-3.12 13.67-3.26 2.99-5.43 7.18-5.78 11.93-.74 9.95 6.72 18.61 16.66 19.35h6.434c3.376-70.997 56.563-128.571 124.481-136.735z" fill="#fcf0b6"/></g><g id="XMLID_257_"><g><path d="m313.888 333.878c.74 9.95-6.72 18.61-16.66 19.35h-15.35c-8.7 0-17.32 1.64-25.41 4.85-47.29 18.74-99.95 18.74-147.25 0-4.04-1.61-8.22-2.82-12.47-3.63-4.26-.81-8.59-1.22-12.94-1.22h-19.89c-9.94-.74-17.4-9.4-16.66-19.35.35-4.75 2.52-8.94 5.78-11.93 3.77-3.46 5.02-8.92 3.12-13.67-1.65-4.11-1.79-8.82-.05-13.26 1.74-4.45 5.05-7.8 9.04-9.7 4.63-2.19 7.43-7.04 7.01-12.15-.36-4.4.89-8.95 3.87-12.68 2.97-3.73 7.13-5.97 11.5-6.6 5.07-.73 9.17-4.54 10.28-9.54.96-4.32 3.49-8.29 7.43-10.98 3.95-2.69 8.57-3.6 12.94-2.92 5.06.8 10.1-1.63 12.63-6.08 2.19-3.85 5.79-6.9 10.35-8.3 4.56-1.41 9.24-.92 13.22 1.03 4.6 2.25 10.13 1.41 13.86-2.09 3.23-3.03 7.56-4.89 12.33-4.89 4.78 0 9.11 1.86 12.33 4.89 3.73 3.5 9.27 4.34 13.87 2.09 3.97-1.95 8.66-2.44 13.22-1.03 4.56 1.4 8.15 4.45 10.34 8.3 2.53 4.45 7.58 6.88 12.64 6.08 4.36-.68 8.99.23 12.93 2.92s6.48 6.66 7.44 10.98c1.1 5 5.21 8.81 10.27 9.54 4.38.63 8.53 2.87 11.51 6.6 2.97 3.73 4.22 8.28 3.86 12.68-.41 5.11 2.38 9.96 7.01 12.15 3.99 1.9 7.3 5.25 9.04 9.7 1.75 4.44 1.6 9.15-.04 13.26-1.9 4.75-.66 10.21 3.11 13.67 3.26 2.99 5.43 7.18 5.79 11.93z" fill="#fdf5cb"/></g></g><g id="XMLID_255_"><g><path d="m275.008 352.498.11 1.07c-6.39.62-12.66 2.13-18.65 4.51-47.29 18.74-99.95 18.74-147.25 0-4.04-1.61-8.22-2.82-12.47-3.63-3.51-.67-7.07-1.06-10.65-1.18l.04-1.06v-10.96c0-51.27 41.57-92.84 92.84-92.84h3.18c51.28 0 92.85 41.57 92.85 92.84z" fill="#fbe88c"/></g></g><g><path d="m74.338 350.265c0-60.372 35.517-111.872 85.414-131.918-1.826-.005-3.664-.412-5.374-1.249-3.98-1.95-8.66-2.44-13.22-1.03-4.56 1.4-8.16 4.45-10.35 8.3-2.53 4.45-7.57 6.88-12.63 6.08-4.37-.68-8.99.23-12.94 2.92-3.94 2.69-6.47 6.66-7.43 10.98-1.11 5-5.21 8.81-10.28 9.54-4.37.63-8.53 2.87-11.5 6.6-2.98 3.73-4.23 8.28-3.87 12.68.42 5.11-2.38 9.96-7.01 12.15-3.99 1.9-7.3 5.25-9.04 9.7-1.74 4.44-1.6 9.15.05 13.26 1.9 4.75.65 10.21-3.12 13.67-3.26 2.99-5.43 7.18-5.78 11.93-.74 9.95 6.72 18.61 16.66 19.35h10.419v-2.963z" fill="#fcf0b6"/></g><g id="XMLID_253_"><g><path d="m313.426 402.086c.74 9.95-6.72 18.61-16.66 19.35h-15.35c-8.7 0-17.32 1.64-25.41 4.85-47.29 18.74-99.95 18.74-147.25 0-4.04-1.61-8.22-2.82-12.47-3.63-4.26-.81-8.59-1.22-12.94-1.22h-19.89c-9.94-.74-17.4-9.4-16.66-19.35.35-4.75 2.52-8.94 5.78-11.93 3.77-3.46 5.02-8.92 3.12-13.67-1.65-4.11-1.79-8.82-.05-13.26 1.74-4.45 5.05-7.8 9.04-9.7 4.63-2.19 7.43-7.04 7.01-12.15-.36-4.4.89-8.95 3.87-12.68 2.97-3.73 7.13-5.97 11.5-6.6 5.07-.73 9.17-4.54 10.28-9.54.96-4.32 3.49-8.29 7.43-10.98 3.95-2.69 8.57-3.6 12.94-2.92 5.06.8 10.1-1.63 12.63-6.08 2.19-3.85 5.79-6.9 10.35-8.3 4.56-1.41 9.24-.92 13.22 1.03 4.6 2.25 10.13 1.41 13.86-2.09 3.23-3.03 7.56-4.89 12.33-4.89 4.78 0 9.11 1.86 12.33 4.89 3.73 3.5 9.27 4.34 13.87 2.09 3.97-1.95 8.66-2.44 13.22-1.03 4.56 1.4 8.15 4.45 10.34 8.3 2.53 4.45 7.58 6.88 12.64 6.08 4.36-.68 8.99.23 12.93 2.92s6.48 6.66 7.44 10.98c1.1 5 5.21 8.81 10.27 9.54 4.38.63 8.53 2.87 11.51 6.6 2.97 3.73 4.22 8.28 3.86 12.68-.41 5.11 2.38 9.96 7.01 12.15 3.99 1.9 7.3 5.25 9.04 9.7 1.75 4.44 1.6 9.15-.04 13.26-1.9 4.75-.66 10.21 3.11 13.67 3.26 2.99 5.43 7.18 5.79 11.93z" fill="#fdf5cb"/></g></g><g id="XMLID_254_"><g><path d="m274.546 420.706.11 1.07c-6.39.62-12.66 2.13-18.65 4.51-47.29 18.74-99.95 18.74-147.25 0-4.04-1.61-8.22-2.82-12.47-3.63-3.51-.67-7.07-1.06-10.65-1.18l.04-1.06v-10.96c0-51.27 41.57-92.84 92.84-92.84h3.18c51.28 0 92.85 41.57 92.85 92.84z" fill="#fbe88c"/></g></g><path d="m194.638 284.857c-.782-.458-1.522-1.005-2.201-1.642-3.22-3.03-7.55-4.89-12.33-4.89-4.77 0-9.1 1.86-12.33 4.89-3.73 3.5-9.26 4.34-13.86 2.09-3.98-1.95-8.66-2.44-13.22-1.03-4.56 1.4-8.16 4.45-10.35 8.3-2.53 4.45-7.57 6.88-12.63 6.08-4.37-.68-8.99.23-12.94 2.92-3.94 2.69-6.47 6.66-7.43 10.98-1.11 5-5.21 8.81-10.28 9.54-4.37.63-8.53 2.87-11.5 6.6-2.98 3.73-4.23 8.28-3.87 12.68.42 5.11-2.38 9.96-7.01 12.15-3.99 1.9-7.3 5.25-9.04 9.7-1.74 4.44-1.6 9.15.05 13.26 1.9 4.75.65 10.21-3.12 13.67-3.26 2.99-5.43 7.18-5.78 11.93-.74 9.95 6.72 18.61 16.66 19.35h13.885c3.976-69.159 53.36-125.471 117.296-136.578z" fill="#fcf0b6"/><g><path d="m435.086 18.059v478.194c0 5.398 5.136 9.774 11.471 9.774h9.428c6.385 0 11.541-4.442 11.47-9.881l-6.181-478.176c-.057-4.413-4.272-7.965-9.452-7.965h-7.283c-5.221 0-9.453 3.605-9.453 8.054z" fill="#fcf1de"/><path d="m408.897 17.97-6.182 478.175c-.07 5.44 5.086 9.881 11.47 9.881h9.428c6.335 0 11.471-4.376 11.471-9.774v-478.193c0-4.448-4.232-8.054-9.453-8.054h-7.283c-5.178 0-9.394 3.552-9.451 7.965z" fill="#f6e2c4"/></g></g></g><g><path d="m39.314 333.322c-.708 9.516 3.932 18.201 11.358 23.151-.776 1.269-1.456 2.605-2.008 4.013-2.379 6.065-2.355 12.736.063 18.783.743 1.855.252 4.011-1.221 5.361-4.798 4.401-7.708 10.403-8.193 16.903-1.045 14.049 9.535 26.331 23.585 27.377.185.014.371.021.557.021h19.895c7.788 0 15.408 1.454 22.648 4.323 24.431 9.681 50.307 14.585 76.326 14.585 12.637 0 25.309-1.157 37.864-3.485 4.073-.755 6.763-4.669 6.007-8.741-.755-4.072-4.678-6.763-8.741-6.007-35.631 6.605-72.261 3.045-105.931-10.297-5.935-2.352-12.077-3.922-18.348-4.732v-5.118c0-47.06 38.285-85.345 85.344-85.345h3.179c47.059 0 85.344 38.285 85.344 85.345v5.83c-4.695.898-9.305 2.24-13.797 4.02-1.799.714-3.729 1.437-6.073 2.275-3.9 1.396-5.931 5.688-4.535 9.588s5.692 5.93 9.588 4.535c2.508-.897 4.588-1.677 6.547-2.453 7.24-2.869 14.86-4.323 22.648-4.323h15.342c.186 0 .371-.007.557-.021 14.051-1.046 24.63-13.328 23.584-27.377-.482-6.497-3.393-12.5-8.191-16.901-1.474-1.353-1.965-3.508-1.223-5.363 2.42-6.047 2.443-12.718.065-18.782-.55-1.404-1.229-2.736-2.001-4.001 7.427-4.949 12.058-13.647 11.35-23.164-.482-6.497-3.393-12.5-8.192-16.903-1.473-1.352-1.964-3.506-1.222-5.361 2.42-6.047 2.443-12.718.064-18.783-.549-1.401-1.226-2.73-1.997-3.994 1.916-1.277 3.68-2.807 5.224-4.599 4.454-5.171 6.629-11.767 6.122-18.571-.482-6.497-3.393-12.5-8.192-16.903-1.473-1.352-1.964-3.507-1.222-5.362 2.42-6.047 2.443-12.718.064-18.782-.549-1.399-1.225-2.728-1.994-3.989 1.917-1.276 3.678-2.812 5.222-4.604 4.454-5.171 6.629-11.767 6.122-18.571-.482-6.497-3.393-12.501-8.192-16.903-1.473-1.352-1.964-3.506-1.222-5.361 2.42-6.047 2.443-12.718.064-18.783-2.378-6.065-6.928-10.943-12.812-13.736-1.805-.856-2.909-2.77-2.746-4.763.527-6.492-1.417-12.873-5.478-17.968s-9.847-8.414-16.292-9.347c-1.979-.286-3.598-1.79-4.03-3.741-1.408-6.356-5.147-11.881-10.532-15.556-5.382-3.669-11.89-5.136-18.321-4.126-1.973.306-3.966-.648-4.955-2.388-3.221-5.659-8.423-9.834-14.649-11.757-6.225-1.921-12.875-1.402-18.728 1.459-1.797.88-3.98.549-5.437-.82-4.746-4.458-10.948-6.914-17.464-6.914-6.515 0-12.717 2.456-17.464 6.915-1.456 1.369-3.643 1.697-5.438.819-5.849-2.859-12.499-3.38-18.727-1.458-6.226 1.922-11.428 6.098-14.647 11.757-.988 1.736-2.977 2.691-4.955 2.387-6.438-1.012-12.941.458-18.323 4.128-5.383 3.672-9.122 9.196-10.53 15.554-.433 1.951-2.052 3.455-4.029 3.741-6.447.933-12.233 4.252-16.294 9.347-4.061 5.096-6.006 11.478-5.477 17.968.162 1.992-.941 3.906-2.748 4.764-5.884 2.792-10.434 7.67-12.812 13.736-2.376 6.065-2.354 12.735.065 18.783.742 1.854.252 4.009-1.222 5.36-4.799 4.403-7.708 10.405-8.192 16.902-.708 9.517 3.922 18.218 11.348 23.169-.771 1.264-1.449 2.594-1.999 3.997-2.377 6.064-2.354 12.734.064 18.782.742 1.856.252 4.011-1.222 5.362-4.799 4.403-7.708 10.406-8.192 16.902-.708 9.517 3.922 18.217 11.348 23.169-.771 1.264-1.449 2.595-1.999 3.997-2.376 6.065-2.354 12.735.065 18.783.742 1.854.252 4.009-1.222 5.36-4.798 4.402-7.707 10.404-8.192 16.902zm23.341-27.836c-.996-2.49-1.005-5.238-.026-7.737s2.854-4.509 5.277-5.658c7.404-3.514 11.933-11.362 11.269-19.533-.219-2.674.583-5.302 2.256-7.4 1.673-2.1 4.056-3.467 6.711-3.851 8.112-1.174 14.754-7.34 16.526-15.343.58-2.619 2.121-4.895 4.339-6.407 2.217-1.513 4.899-2.119 7.547-1.7 8.103 1.276 16.262-2.663 20.315-9.787 1.326-2.331 3.47-4.051 6.034-4.842 2.564-.792 5.305-.578 7.714.6 7.365 3.602 16.326 2.25 22.298-3.361 1.955-1.837 4.51-2.848 7.193-2.848 2.685 0 5.239 1.011 7.193 2.847 5.974 5.612 14.933 6.965 22.298 3.362 2.409-1.18 5.148-1.392 7.715-.6 2.564.791 4.708 2.511 6.034 4.843 4.055 7.123 12.215 11.064 20.316 9.786 2.65-.416 5.33.189 7.545 1.7 2.219 1.514 3.76 3.789 4.34 6.407 1.772 8.003 8.414 14.169 16.527 15.343 2.653.384 5.036 1.751 6.709 3.851 1.673 2.099 2.475 4.728 2.257 7.399-.666 8.171 3.863 16.021 11.268 19.533 2.424 1.15 4.298 3.16 5.277 5.659s.971 5.246-.026 7.736c-3.044 7.61-1.031 16.446 5.009 21.987 1.977 1.812 3.175 4.285 3.373 6.962.406 5.453-3.433 10.251-8.713 11.168-.869-.972-1.346-2.271-1.236-3.614.529-6.49-1.416-12.871-5.478-17.968-3.083-3.868-7.163-6.706-11.768-8.26-5.338-20.326-17.088-38.697-33.455-52.128-17.863-14.657-40.449-22.729-63.596-22.729h-3.179c-23.147 0-45.732 8.072-63.597 22.729-16.367 13.431-28.117 31.802-33.454 52.128-4.605 1.554-8.685 4.392-11.769 8.26-4.061 5.096-6.006 11.477-5.477 17.967.109 1.343-.367 2.643-1.237 3.615-5.28-.917-9.119-5.715-8.713-11.168.199-2.677 1.397-5.149 3.373-6.962 6.044-5.54 8.056-14.377 5.011-21.986zm-8.382-39.263c.199-2.677 1.397-5.149 3.373-6.962 6.041-5.541 8.054-14.377 5.009-21.987-.996-2.49-1.006-5.238-.026-7.736.98-2.5 2.854-4.509 5.278-5.659 7.404-3.514 11.932-11.363 11.268-19.533-.219-2.673.583-5.302 2.255-7.4 1.674-2.1 4.058-3.467 6.712-3.851 8.112-1.174 14.754-7.34 16.526-15.343.58-2.618 2.121-4.894 4.339-6.406 2.216-1.511 4.891-2.113 7.546-1.701 8.096 1.269 16.262-2.662 20.316-9.786 1.326-2.331 3.47-4.051 6.034-4.842 2.564-.793 5.305-.578 7.714.6 7.362 3.602 16.324 2.25 22.298-3.362 1.954-1.836 4.509-2.847 7.193-2.847 2.686 0 5.24 1.011 7.193 2.846 5.974 5.612 14.936 6.964 22.298 3.363 2.409-1.18 5.148-1.393 7.715-.6 2.564.791 4.708 2.511 6.034 4.843 4.055 7.124 12.22 11.059 20.314 9.785 2.646-.41 5.33.189 7.548 1.701 2.218 1.514 3.759 3.788 4.339 6.406 1.772 8.003 8.414 14.169 16.527 15.343 2.653.384 5.036 1.751 6.708 3.85 1.674 2.1 2.476 4.729 2.258 7.401-.666 8.169 3.862 16.02 11.27 19.534 2.422 1.148 4.295 3.158 5.275 5.659.979 2.498.971 5.244-.026 7.735-3.044 7.61-1.031 16.446 5.009 21.987 1.977 1.812 3.175 4.285 3.373 6.962.406 5.452-3.428 10.258-8.707 11.175-.873-.973-1.353-2.276-1.242-3.624.527-6.491-1.418-12.872-5.478-17.967-3.083-3.868-7.163-6.705-11.768-8.259-5.338-20.326-17.087-38.698-33.455-52.128-17.863-14.657-40.448-22.729-63.596-22.729h-3.179c-23.147 0-45.732 8.072-63.597 22.729-16.36 13.428-28.084 31.8-33.421 52.12-4.618 1.552-8.71 4.392-11.799 8.268-4.061 5.096-6.006 11.477-5.477 17.968.11 1.347-.369 2.649-1.243 3.623-5.279-.919-9.113-5.724-8.708-11.176zm54.901-111.053c15.69-21.773 41.294-35.691 69.345-35.691h3.179c28.05 0 53.646 13.92 69.335 35.69-3.146-.727-6.429-.855-9.695-.344-1.979.315-3.966-.649-4.953-2.386-3.221-5.661-8.424-9.836-14.649-11.758-6.224-1.918-12.876-1.401-18.727 1.459-1.796.877-3.981.548-5.438-.821-4.746-4.458-10.948-6.913-17.464-6.913s-12.717 2.455-17.464 6.914c-1.457 1.368-3.642 1.699-5.437.82-5.85-2.86-12.499-3.379-18.727-1.459-6.226 1.921-11.428 6.096-14.649 11.757-.989 1.737-2.975 2.692-4.955 2.387-3.267-.513-6.553-.385-9.701.345zm141.83 68.202c-3.137-.722-6.41-.847-9.663-.333-1.973.301-3.966-.649-4.955-2.387-3.221-5.661-8.424-9.836-14.649-11.758-6.224-1.918-12.876-1.401-18.727 1.459-1.795.879-3.979.551-5.438-.82-4.746-4.458-10.948-6.914-17.464-6.914-6.515 0-12.717 2.456-17.464 6.915-1.455 1.368-3.642 1.697-5.437.819-5.85-2.86-12.499-3.379-18.727-1.459-6.226 1.922-11.429 6.097-14.649 11.757-.989 1.737-2.984 2.703-4.953 2.388-3.264-.514-6.546-.386-9.69.34 15.687-21.77 41.282-35.687 69.331-35.687h3.179c28.042-.001 53.619 13.918 69.306 35.68zm.005 68.215c-3.139-.722-6.414-.848-9.67-.337-1.979.31-3.965-.65-4.953-2.388-3.222-5.66-8.424-9.835-14.647-11.755-6.228-1.923-12.878-1.404-18.728 1.458-1.795.876-3.981.548-5.438-.821-4.746-4.458-10.948-6.914-17.464-6.914-6.515 0-12.717 2.456-17.463 6.914-1.457 1.369-3.641 1.7-5.438.822-5.85-2.864-12.505-3.382-18.727-1.46-6.226 1.921-11.428 6.096-14.649 11.757-.989 1.737-2.982 2.686-4.955 2.387-3.27-.514-6.556-.385-9.704.344 15.69-21.772 41.294-35.691 69.347-35.691h3.179c28.042 0 53.623 13.921 69.31 35.684zm52.407 118.729c-1.787 2.074-4.254 3.352-6.97 3.615h-14.404v-4.472c0-55.33-45.014-100.345-100.344-100.345h-3.179c-55.33 0-100.344 45.015-100.344 100.345v4.472h-14.403c-5.682-.553-9.925-5.564-9.499-11.283.2-2.678 1.397-5.151 3.373-6.963 6.041-5.541 8.054-14.377 5.009-21.988-.996-2.49-1.005-5.237-.024-7.737.979-2.498 2.853-4.508 5.273-5.657 7.406-3.513 11.935-11.362 11.271-19.533-.219-2.673.583-5.301 2.256-7.399 1.673-2.1 4.057-3.468 6.711-3.852 8.111-1.175 14.753-7.34 16.525-15.341.581-2.62 2.122-4.896 4.339-6.407 2.219-1.513 4.902-2.114 7.547-1.702 8.1 1.276 16.262-2.662 20.316-9.786 1.326-2.331 3.47-4.051 6.036-4.843 2.562-.792 5.302-.579 7.712.601 7.362 3.602 16.322 2.25 22.298-3.362 1.955-1.837 4.51-2.848 7.193-2.848 2.685 0 5.239 1.011 7.193 2.847 5.974 5.613 14.935 6.965 22.301 3.362 2.408-1.178 5.146-1.393 7.712-.599 2.564.791 4.708 2.511 6.034 4.841 4.054 7.125 12.216 11.066 20.314 9.787 2.649-.412 5.331.189 7.548 1.701 2.218 1.514 3.759 3.788 4.339 6.406 1.772 8.003 8.414 14.169 16.527 15.343 2.652.384 5.035 1.751 6.709 3.852 1.674 2.1 2.476 4.728 2.257 7.399-.666 8.169 3.862 16.02 11.268 19.532 2.424 1.15 4.298 3.16 5.277 5.659s.971 5.246-.026 7.736c-3.044 7.609-1.031 16.445 5.009 21.988 1.977 1.812 3.175 4.285 3.373 6.961.209 2.811-.688 5.536-2.527 7.67zm-249.143-212.306c.199-2.677 1.397-5.149 3.373-6.962 6.042-5.541 8.054-14.378 5.009-21.986-.996-2.49-1.005-5.238-.026-7.737s2.854-4.509 5.277-5.658c7.404-3.514 11.933-11.362 11.269-19.533-.219-2.674.583-5.302 2.256-7.4 1.673-2.1 4.056-3.467 6.711-3.851 8.112-1.174 14.754-7.34 16.526-15.343.58-2.618 2.121-4.894 4.338-6.406 2.217-1.511 4.897-2.112 7.548-1.701 8.094 1.274 16.262-2.662 20.315-9.787 1.326-2.33 3.47-4.05 6.034-4.842 2.564-.793 5.304-.579 7.713.6 7.364 3.602 16.325 2.251 22.299-3.361 1.955-1.837 4.51-2.848 7.193-2.848 2.685 0 5.239 1.011 7.193 2.847 5.974 5.614 14.934 6.963 22.297 3.363 2.409-1.179 5.15-1.393 7.714-.602 2.566.792 4.71 2.513 6.036 4.843 4.053 7.123 12.219 11.058 20.314 9.787 2.649-.412 5.332.19 7.547 1.7 2.219 1.514 3.76 3.789 4.34 6.407 1.772 8.003 8.414 14.169 16.527 15.343 2.653.384 5.036 1.751 6.709 3.851 1.673 2.099 2.475 4.728 2.257 7.4-.666 8.17 3.863 16.02 11.268 19.532 2.423 1.15 4.297 3.16 5.277 5.659.979 2.499.971 5.246-.026 7.736-3.044 7.61-1.031 16.446 5.009 21.987 1.977 1.812 3.175 4.285 3.373 6.962.406 5.453-3.429 10.258-8.708 11.175-.873-.973-1.352-2.275-1.242-3.623.527-6.491-1.417-12.871-5.479-17.968-3.083-3.868-7.163-6.705-11.767-8.259-5.338-20.326-17.088-38.697-33.455-52.128-17.863-14.657-40.449-22.729-63.596-22.729h-3.179c-23.146 0-45.732 8.072-63.596 22.729-16.367 13.431-28.117 31.802-33.455 52.128-4.605 1.554-8.685 4.392-11.77 8.26-4.06 5.097-6.005 11.478-5.476 17.967.11 1.347-.369 2.649-1.242 3.623-5.275-.917-9.11-5.723-8.705-11.175z"/><path d="m173.073 345.719h-4.373c-4.143 0-7.5 3.357-7.5 7.5s3.357 7.5 7.5 7.5h4.373c4.143 0 7.5-3.357 7.5-7.5s-3.357-7.5-7.5-7.5z"/><path d="m145.524 398.688c-4.143 0-7.5 3.357-7.5 7.5s3.357 7.5 7.5 7.5h4.81c4.143 0 7.5-3.357 7.5-7.5s-3.357-7.5-7.5-7.5z"/><path d="m191.876 373.706c-4.143 0-7.5 3.357-7.5 7.5s3.357 7.5 7.5 7.5h18.366c4.143 0 7.5-3.357 7.5-7.5s-3.357-7.5-7.5-7.5z"/><path d="m281.066 0h-201.915c-37.971 0-68.863 30.891-68.863 68.861v35.867c0 4.143 3.357 7.5 7.5 7.5s7.5-3.357 7.5-7.5v-35.867c0-29.699 24.163-53.861 53.863-53.861h201.915c29.7 0 53.862 24.162 53.862 53.861v375.699c0 29.699-24.162 53.861-53.862 53.861h-201.915c-29.7 0-53.863-24.162-53.863-53.861v-307.831c0-4.143-3.357-7.5-7.5-7.5s-7.5 3.357-7.5 7.5v307.832c0 37.971 30.892 68.861 68.863 68.861h201.915c37.971 0 68.862-30.891 68.862-68.861v-375.7c.001-37.97-30.891-68.861-68.862-68.861z"/><path d="m476.198 97.469h-6.396l-1.029-79.596c-.108-8.475-7.713-15.369-16.952-15.369h-7.282c-3.498 0-6.751.978-9.454 2.65-2.702-1.671-5.955-2.649-9.452-2.649h-7.283c-9.238 0-16.843 6.895-16.951 15.368l-1.029 79.596h-8.098c-14.91 0-27.04 12.131-27.04 27.041v11.396c0 14.91 12.13 27.04 27.04 27.04h7.251l-4.306 333.103c-.057 4.358 1.666 8.535 4.849 11.76 3.587 3.634 8.734 5.718 14.121 5.718h9.428c4.312 0 8.281-1.332 11.471-3.547 3.19 2.216 7.158 3.548 11.472 3.548h9.429c5.387 0 10.533-2.084 14.12-5.718 3.184-3.225 4.906-7.402 4.85-11.761l-3.371-260.79c-.053-4.109-3.399-7.403-7.497-7.403-.032 0-.066 0-.099.001-4.142.053-7.456 3.454-7.402 7.596l1.821 140.833h-15.821v-358.085c.187-.229.857-.697 1.953-.697h7.282c1.099 0 1.771.473 1.955.7l2.396 185.227c.053 4.109 3.4 7.403 7.497 7.403.033 0 .066 0 .099-.001 4.142-.053 7.456-3.454 7.402-7.596l-.521-40.291h5.549c14.91 0 27.041-12.13 27.041-27.04v-11.396c-.002-14.91-12.133-27.041-27.043-27.041zm-83.927 50.477c-6.639 0-12.04-5.401-12.04-12.04v-11.396c0-6.64 5.401-12.041 12.04-12.041h7.904l-.459 35.478h-7.445zm31.343 350.58h-9.428c-1.382 0-2.67-.47-3.445-1.255-.243-.246-.531-.624-.526-1.029l1.357-104.957h16.014v104.968c0 .905-1.584 2.273-3.972 2.273zm34.986-107.241 1.357 104.957c.005.405-.283.784-.526 1.03-.776.785-2.063 1.255-3.445 1.255h-9.429c-2.387 0-3.971-1.369-3.971-2.274v-104.968zm-46.834-15 4.63-358.081c.184-.228.856-.699 1.954-.699h7.283c1.095 0 1.767.469 1.953.697v358.083zm76.473-240.379c0 6.639-5.401 12.04-12.041 12.04h-5.743l-.459-35.478h6.202c6.64 0 12.041 5.401 12.041 12.041z"/></g></g></svg>