<svg id="Layer_1" height="512" viewBox="0 0 512 512" width="512" xmlns="http://www.w3.org/2000/svg" data-name="Layer 1"><path d="m173.663 291.846 45.109 44.556-21.626 21.626-44.837-44.837 21.324-21.315z" fill="#d05458"/><path d="m193.713 311.956.029-.03-20.079-20.08-.03.03-21.324 21.315 20.08 20.079z" fill="#ba4d55"/><path d="m244.965 314.285-49.757-49.124a4.008 4.008 0 0 0 -5.662.02l-18.453 18.453a4.008 4.008 0 0 0 .01 5.692l49.747 49.125a4.007 4.007 0 0 0 5.662-.011l18.463-18.463a4.017 4.017 0 0 0 -.01-5.692z" fill="#fbe08b"/><path d="m62.724 350.298h131.22v63.409h-131.22z" fill="#f7c365" transform="matrix(.707 -.707 .707 .707 -232.528 202.632)"/><path d="m104.359 450.815-13.884 13.885a31.7 31.7 0 0 1 -44.838-44.837l13.885-13.885z" fill="#d05458"/><path d="m50.345 355.425h131.22v28.396h-131.22z" fill="#c1944c" transform="matrix(.707 -.707 .707 .707 -227.4 190.252)"/><path d="m65.717 439.942 13.883-13.885-20.079-20.08-13.883 13.885a31.705 31.705 0 0 0 12.415 52.5 31.71 31.71 0 0 1 7.664-32.42z" fill="#ba4d55"/><path d="m195.208 265.161a4.008 4.008 0 0 0 -5.662.02l-18.453 18.453a4.008 4.008 0 0 0 .01 5.692l19.4 19.157a4 4 0 0 1 .667-4.77l18.453-18.453c1.566-1.566 4.586-1.127 4.586-1.127z" fill="#f7c365"/><g fill="#284268"><path d="m84.449 405.105a6 6 0 0 0 8.486 0l42.153-42.153a6 6 0 0 0 -8.485-8.486l-42.154 42.154a6 6 0 0 0 0 8.485z"/><path d="m148.089 349.951 3.4-3.4a6 6 0 1 0 -8.489-8.485l-3.4 3.4a6 6 0 0 0 8.485 8.486z"/><path d="m450.9 60.506c-23.231-22.385-56.364-31.981-93.517-27.024-75.909 9.8-145.85 78.959-155.917 154.205l-8.956 70.963a9.971 9.971 0 0 0 -7.426 2.9l-18.384 18.387a9.977 9.977 0 0 0 -1.488 12.227l-30.371 30.376a6 6 0 0 0 8.485 8.486l8.915-8.916 36.171 36.171-83.933 83.933-36.17-36.171 46.733-46.733a6 6 0 1 0 -8.486-8.486l-64.3 64.3a38.515 38.515 0 0 0 -11.509 26.448 37.59 37.59 0 0 0 64.143 27.2l123.919-123.916a10.021 10.021 0 0 0 11.588-1.844l18.385-18.385a9.917 9.917 0 0 0 2.891-6.271l72.455-10.191c75.909-9.8 145.85-78.959 155.911-154.161 4.9-36.623-4.982-69.378-27.827-92.231zm-364.083 399.37c-10.118 10.118-26.945 10.386-36.89.1a25.606 25.606 0 0 1 .307-35.858l9.589-9.589 36.171 36.171zm352.734-338.194c-25.023 55.716-91.086 121.4-147.309 146.435l-59.136 26.883-4.759-4.7 217.322-217.318c5.709 9.708 3.596 27.069-6.118 48.7zm-3.317-56.235-216.426 216.426-3.662-3.617 25.818-58.292c25.022-55.716 91.086-121.4 147.283-146.423 20.083-9.013 36.577-11.767 46.987-8.094zm-222.864 123.786c4.516-33.755 22.186-67.368 49.755-94.647 27.608-27.316 61.63-44.79 95.824-49.206 21.62-2.884 41.636-.377 58.64 7.091-9.82 1.248-20.992 4.618-33.24 10.115-58.49 26.046-127.274 94.44-153.344 152.491l-23.99 54.163-3.328-3.287zm-16.47 160.567-36.17-36.171 12.8-12.8 36.4 35.944zm26.42-16.675-46.708-46.125 15.556-15.557 46.706 46.122zm244.826-180.712c-4.517 33.755-22.187 67.368-49.756 94.647-27.608 27.316-61.63 44.791-95.866 49.212l-77.146 10.852-3.132-3.094 54.92-24.97c58.489-26.045 127.273-94.44 153.334-152.46 5.41-12.046 8.684-23.037 9.816-32.686 7.955 16.899 10.718 36.908 7.83 58.499z"/></g></svg>