<svg id="Capa_1" enable-background="new 0 0 510.285 510.285" height="512" viewBox="0 0 510.285 510.285" width="512" xmlns="http://www.w3.org/2000/svg"><g><g><g><g><path d="m338.905 37.477c-14.254-14.254-37.365-14.254-51.619 0s-14.254 37.365 0 51.619c6.576 6.576 13.17 9.959 21.776 10.469l9.759-19.376 11.681-11.681 19.029-9.322c-.508-8.607-4.051-15.133-10.626-21.709z" fill="#92a2b5"/></g><g><path d="m349.531 59.186c-1.501-12.011-8.305-22.24-19.209-28.082 1.975 3.71 3.106 7.686 3.375 12.248-13.303 6.517-25.643 12.629-33.29 26.25-8.789-11.264-10.066-26.483-3.79-38.884-30.677 15.526-23.406 66.726 12.445 68.847l9.759-19.375 11.681-11.682c0-.001 13.655-6.69 19.029-9.322z" fill="#61748b"/></g><g><path d="m428.729 119.838-1.005-.272c-11.708-3.169-23.157-7.229-34.246-12.143l-64.898-28.764 32.146 69.351c4.589 9.9 7.791 20.385 9.515 31.16 16.285 6.68 35.695 3.408 48.92-9.817 13.387-13.387 16.576-33.11 9.568-49.515z" fill="#f8e868"/></g><g><path d="m388.726 150.343-26.268-56.669-33.878-15.015 32.146 69.351c4.589 9.9 7.791 20.385 9.515 31.16 8.89 3.646 18.709 4.32 27.947 2.035-1.735-10.669-4.915-21.054-9.462-30.862z" fill="#e8ab4c"/></g><g><path d="m425.628 118.988c-10.979-3.08-21.724-6.945-32.15-11.566l-13.221-5.86-27.603 29.031 8.073 17.416c4.005 8.641 6.954 17.727 8.786 27.063z" fill="#92a2b5"/></g><g><path d="m378.442 135.868-8.073-17.417 14.229-14.964-4.341-1.924-27.603 29.031 8.073 17.416c4.005 8.641 6.954 17.728 8.786 27.063l16.715-16.707c-1.837-7.733-4.437-15.273-7.786-22.498z" fill="#61748b"/></g><g><path d="m370.369 181.627c0 24.853-20.147 45-45 45s-45-20.147-45-45c0-19.967 27.032-79.569 38.452-101.438l5.133-5.133s46.415 81.718 46.415 106.571z" fill="#fff"/></g><g><path d="m304.003 179.356c0-16.121 17.619-58.074 30.418-85.149-6.077-11.421-10.467-19.151-10.467-19.151l-5.133 5.133c-11.42 21.869-38.452 81.47-38.452 101.438 0 24.853 20.147 45 45 45 5.63 0 11.014-1.043 15.982-2.932-21.206-3.634-37.348-22.096-37.348-44.339z" fill="#cfdbfa"/></g><g><path d="m431.94 30.056c-8.715 0-47.861 11.104-101.438 38.452l-5.133 5.133s81.718 46.415 106.571 46.415 45-20.147 45-45-20.147-45-45-45z" fill="#fff"/></g><g><path d="m171.295 473.498c14.254 14.254 37.365 14.254 51.619 0s14.254-37.365 0-51.619c-6.576-6.576-13.17-9.96-21.776-10.469l-9.759 19.376-11.681 11.681-19.029 9.322c.507 8.607 4.05 15.132 10.626 21.709z" fill="#92a2b5"/></g><g><g><path d="m186.844 457.948c-4.587-4.587-7.693-9.151-9.328-14.413l-16.848 8.254c.509 8.606 4.051 15.132 10.627 21.708 14.254 14.254 37.365 14.254 51.619 0 2.71-2.709 4.901-5.74 6.581-8.969-13.754 7.156-31.107 4.964-42.651-6.58z" fill="#61748b"/></g></g><g><path d="m81.47 391.137 1.005.272c11.708 3.169 23.157 7.229 34.246 12.143l64.898 28.763-32.146-69.351c-4.589-9.9-7.791-20.385-9.515-31.16-16.285-6.68-35.695-3.408-48.92 9.817-13.387 13.388-16.576 33.11-9.568 49.516z" fill="#f8e868"/></g><g><path d="m137.721 385.32c-11.089-4.915-22.538-8.975-34.246-12.144l-1.005-.272c-5.622-13.162-4.674-28.456 2.831-40.903-5.182 2.193-10.039 5.397-14.262 9.621-13.387 13.387-16.576 33.109-9.568 49.515l1.005.272c11.708 3.169 23.157 7.229 34.246 12.144l64.898 28.763-16.066-34.66z" fill="#e8ab4c"/></g><g><path d="m84.571 390.986c10.979 3.08 21.724 6.945 32.15 11.566l13.221 5.86 27.603-29.031-8.073-17.416c-4.005-8.641-6.954-17.727-8.786-27.063z" fill="#92a2b5"/></g><g><path d="m149.473 361.964c-.404-.872-.79-1.752-1.173-2.633l-22.412 23.57-13.221-5.859c-3.299-1.462-6.633-2.84-9.993-4.149l-18.103 18.093c10.979 3.08 21.724 6.945 32.15 11.566l13.221 5.859 27.603-29.031z" fill="#61748b"/></g><g><path d="m139.83 329.348c0-24.853 20.147-45 45-45s45 20.147 45 45c0 19.967-27.032 79.569-38.452 101.438l-5.133 5.133s-46.415-81.718-46.415-106.571z" fill="#fff"/></g><g><path d="m157.035 313.06c0-8.564 2.394-16.569 6.547-23.384-14.137 7.587-23.752 22.505-23.752 39.672 0 24.853 46.415 106.571 46.415 106.571l5.133-5.133c2.329-4.46 5.308-10.49 8.574-17.433-10.8-19.599-42.917-79.618-42.917-100.293z" fill="#cfdbfa"/></g><g><path d="m78.259 480.919c8.715 0 47.861-11.104 101.438-38.452l5.133-5.133s-81.718-46.415-106.571-46.415-45 20.147-45 45c0 24.852 20.147 45 45 45z" fill="#fff"/></g><g><path d="m78.259 458.252c-20.938 0-38.534-14.301-43.559-33.667-.94 3.621-1.441 7.418-1.441 11.333 0 24.853 20.147 45 45 45 8.715 0 47.861-11.104 101.438-38.452l5.133-5.133s-7.782-4.42-19.267-10.528c-46.255 22.253-79.376 31.447-87.304 31.447z" fill="#cfdbfa"/></g><g><path d="m431.94 95.722c-16.824 0-59.701-21.267-85.652-35.01-5.106 2.438-10.368 5.029-15.786 7.795l-5.133 5.133s81.718 46.415 106.571 46.415 45-20.147 45-45c0-4.218-.593-8.295-1.678-12.167-5.309 18.94-22.687 32.834-43.322 32.834z" fill="#cfdbfa"/></g></g></g><g><path d="m305.569 168.389 14.592 3.475c1.2-5.038 2.786-10.004 4.034-13.768l-14.237-4.721c-1.343 4.05-3.056 9.416-4.389 15.014z"/><path d="m431.94 22.556c-8.947 0-22.701 3.725-43.285 11.721l5.432 13.982c18.281-7.103 31.016-10.703 37.853-10.703 20.678 0 37.5 16.822 37.5 37.5s-16.822 37.5-37.5 37.5c-15.154 0-60.644-22.182-93.001-39.933 10.342-5.175 25.818-12.376 41.449-18.878l-5.761-13.85c-7.028 2.923-13.8 5.885-20.054 8.715-6.82-19.28-26.603-31.463-46.899-28.982v-19.628h-15v24.296c-8.964 4.709-16.183 12.554-20.108 21.888h-26.076v15h22.676c-.914 19.265 11.248 37.333 29.488 43.668-11.979 26.495-25.785 61.117-25.785 76.775 0 28.948 23.551 52.5 52.5 52.5 26.415 0 48.326-19.613 51.961-45.04 14.415 2.813 29.702-.703 41.449-9.51l16.292 16.292 10.606-10.607-16.288-16.287c9.046-12.04 12.425-27.243 9.421-41.883 25.711-3.378 45.629-25.418 45.629-52.036.001-28.949-23.55-52.5-52.499-52.5zm-90.752 68.318c7.586 4.045 16.703 8.776 26.305 13.474l-12.831 12.831c-4.698-9.602-9.429-18.719-13.474-26.305zm40.699 20.293c10.559 4.824 21.068 9.189 30.226 12.2l-38.433 38.432c-3.011-9.157-7.376-19.667-12.2-30.226zm-89.298-27.375c-13.278-13.278-10.207-36.281 6.03-45.648 15.936-9.193 36.987-.817 42.262 16.833-4.996 2.391-9.962 4.845-14.869 7.415l-13.307 13.307-7.682 15.442c-4.664-1.35-8.946-3.86-12.434-7.349zm32.78 135.335c-20.678 0-37.5-16.822-37.5-37.5 0-16 21.565-66.135 35.063-93.009 17.752 32.357 39.937 77.854 39.937 93.009 0 20.678-16.822 37.5-37.5 37.5zm56.673-44.476 42.423-42.422c1.668 11.511-2.076 23.289-10.607 31.82-8.496 8.497-20.299 12.257-31.816 10.602z"/><path d="m228.303 415.886c-4.741-4.74-10.448-8.29-16.672-10.452 11.979-26.495 25.785-61.118 25.785-76.775 0-28.948-23.551-52.5-52.5-52.5-26.418 0-48.33 19.617-51.962 45.046-14.503-2.832-29.553.582-41.45 9.501l-16.29-16.291-10.606 10.607 16.288 16.288c-9.046 12.039-12.425 27.243-9.421 41.883-25.712 3.378-45.629 25.418-45.629 52.036 0 28.948 23.551 52.5 52.5 52.5 6.364 0 15.726-2.1 28.618-6.42l-4.766-14.223c-13.919 4.664-20.654 5.643-23.853 5.643-20.678 0-37.5-16.822-37.5-37.5s16.822-37.5 37.5-37.5c15.154 0 60.646 22.183 93.004 39.935-14.085 7.056-35.703 16.866-54.466 24.101l5.396 13.996c10.841-4.18 22.622-9.204 33.43-14.092 6.818 19.282 26.63 31.46 46.901 28.964v19.651h15v-24.309c8.983-4.699 16.18-12.531 20.108-21.875h26.075v-15h-22.676c.569-11.955-3.703-24.102-12.814-33.214zm-43.387-124.727c20.678 0 37.5 16.822 37.5 37.5 0 15.999-21.565 66.134-35.063 93.009-17.752-32.358-39.937-77.854-39.937-93.009 0-20.678 16.822-37.5 37.5-37.5zm-29.292 101.947c4.697 9.602 9.429 18.719 13.474 26.306-7.586-4.045-16.704-8.776-26.306-13.474zm-27.226 6.013c-10.559-4.824-21.068-9.189-30.226-12.2l38.433-38.433c3.011 9.158 7.376 19.667 12.2 30.226zm-.157-63.484-42.421 42.422c-1.668-11.512 2.077-23.29 10.607-31.82 8.497-8.496 20.298-12.254 31.814-10.602zm89.455 131.87c-15.245 15.246-42.108 8.496-48.292-12.198 4.997-2.388 15.268-7.812 15.268-7.812v.001c4.17-4.17 8.339-8.339 12.509-12.509l-.001-.001s5.605-10.653 8.082-15.841c20.851 6.038 27.752 33.043 12.434 48.36z"/><path d="m162.222 334.645c1.562 4.465 3.395 9.181 5.604 14.417l13.82-5.83c-2.086-4.945-3.809-9.374-5.267-13.54z"/><path d="m52.08 283.661h15v14.998h-15z"/><path d="m52.08 253.655h15v15.001h-15z"/><path d="m338.38 322.371-156.797-162.828c-21.594-22.426-52.701-29.224-81.178-17.739-22.327 9.002-39.244 28.035-45.495 51.291-3.969 14.767-2.83 30.419-2.83 45.563h15c0-12.091-1.058-24.848 1.223-36.78 3.966-20.751 18.073-38.245 37.712-46.164 22.687-9.146 47.502-3.692 64.764 14.232l156.797 162.828c25.593 26.578 66.406 30.452 96.691 9.346 24.979-17.408 32.813-44.424 32.813-73.465h-15c2.166 65.338-64.858 94.048-103.7 53.716z"/><path d="m442.08 239.157h15v14.998h-15z"/><path d="m442.08 208.659h15v15.004h-15z"/></g></g></svg>