<svg id="Capa_1" enable-background="new 0 0 470 470" height="512" viewBox="0 0 470 470" width="512" xmlns="http://www.w3.org/2000/svg"><g><path d="m234.012 290h128.857v67.25h-128.857z" fill="#453f81"/><path d="m126.512 350 10.858 120h322.142v-120z" fill="#ffb366"/><g fill="#d6e8fd"><path d="m236.512 395h30v30h-30z"/><path d="m296.512 395h30v30h-30z"/><path d="m356.512 395h30v30h-30z"/></g><path d="m99.077 228.393-23.565-12.393-24.194 12.393-7.58 80.536 29.774 11.071 25.565-11.071 14.435-41.929z" fill="#8298fc"/><path d="m99.077 308.929 26.435 7.071 28.993-7.071-7.535-80.536-24.458-8.393-23.435 8.393z" fill="#706bef"/><path d="m99.077 147.857-19.565-6.857-20.614 6.857-7.58 80.536h47.759l14.435-37.393z" fill="#6058ad"/><path d="m146.97 228.393-7.536-80.536-21.922-6.857-18.435 6.857v80.536z" fill="#453f81"/><path d="m36.157 389.464-7.58 80.536h70.5l20.435-38-20.435-42.536-29.565-20.464z" fill="#8298fc"/><path d="m162.041 389.464h-62.964v80.536h70.5z" fill="#706bef"/><path d="m99.077 389.464h62.964l-7.536-80.535h-55.428z" fill="#453f81"/><path d="m99.077 308.929h-55.339l-7.581 80.535h62.92z" fill="#6058ad"/><path d="m63.077 0v79h36l5.435-42-5.435-37z" fill="#6058ad"/><path d="m99.077 0h36v79h-36z" fill="#453f81"/><path d="m10.488 67.321 8.053 80.536h80.536l16.435-40.857-16.435-39.679z" fill="#f0f7ff"/><path d="m187.666 67.321h-88.589v80.536h80.536z" fill="#d6e8fd"/></g></svg>