<svg id="Capa_1" enable-background="new 0 0 511.12 511.12" height="512" viewBox="0 0 511.12 511.12" width="512" xmlns="http://www.w3.org/2000/svg"><g><path d="m377.098 298.597 26.536 26.536 10.606-10.607-31.01-31.01c6.667-19.763 8.64-41.021 5.764-61.676l69.76-69.759-30.838-93.779-14.25 4.686 27.955 85.012-56.283 56.282c-4.536-16.213-12.037-31.201-21.885-44.334l27.851-27.852v-74.559l-57.535-57.537-10.607 10.607 53.144 53.143v62.132l-22.544 22.543c-24.55-26.112-59.385-42.449-97.969-42.449-38.448 0-73.175 16.22-97.71 42.171l-22.267-22.266v-20.405h-15v26.618l27.548 27.548c-10.036 13.304-17.657 28.524-22.217 45.003l-56.649-56.648 27.955-85.012-14.249-4.686-30.839 93.781 70.167 70.167c-2.778 20.404-.828 41.391 5.702 60.924l-75.869 75.868 30.837 93.78 14.249-4.686-27.955-85.013 64.841-64.84c3.954 9.196 17.954 29.696 28.152 39.069l-41.675 41.675v74.559l57.537 57.537 10.606-10.607-53.143-53.143v-62.133l38.08-38.079c4.697 3.609 9.635 6.915 14.789 9.887-5.039 10.073-7.892 21.423-7.892 33.432 0 32.65 20.979 60.478 50.159 70.753l-19.913 19.914 26.564 26.564 10.606-10.607-15.958-15.957 16.043-16.043c4.985.497 10.012.497 14.997 0l16.042 16.043-15.958 15.957 10.607 10.607 26.563-26.564-19.913-19.914c29.18-10.275 50.159-38.103 50.159-70.753 0-12.009-2.853-23.358-7.892-33.432 5.265-3.036 10.305-6.417 15.092-10.118l38.312 38.311v62.133l-53.144 53.143 10.607 10.607 57.536-57.537v-74.559l-41.934-41.934c11.426-11.919 23.926-29.114 27.732-38.494zm-121.306-177.62c44.281 0 83.014 24.209 103.658 60.088h-207.316c20.644-35.879 59.377-60.088 103.658-60.088zm0 329.5c-33.084 0-60-26.916-60-60s26.916-60 60-60 60 26.916 60 60-26.916 60-60 60zm0-135c-23.975 0-45.342 11.321-59.081 28.883-28.555-16.223-48.704-42.908-56.649-73.926h145.73v-15h-148.562c-2.485-20.046.09-40.615 7.625-59.369h221.873c7.535 18.755 10.11 39.322 7.625 59.369h-43.562v15h40.73c-7.946 31.018-28.095 57.704-56.649 73.926-13.738-17.562-35.105-28.883-59.08-28.883z"/><path d="m414.279 335.779 27.343 27.342-27.955 85.013 14.25 4.685 30.838-93.78-33.869-33.867z"/><path d="m135.815 63.75 53.143-53.143-10.606-10.607-57.537 57.537v32.94h15z"/><path d="m270.792 405.977h15v15h-15z"/><path d="m285.792 375.477h15v15h-15z"/><path d="m210.792 375.477h15v15h-15z"/><path d="m226.442 405.977h15v15h-15z"/><path d="m300.792 255.434h15v15h-15z"/><path d="m165.792 210.715h15v15h-15z"/><path d="m195.792 210.715h15v15h-15z"/></g></svg>