<?xml version="1.0" encoding="UTF-8" standalone="no"?>
<svg
   xmlns:dc="http://purl.org/dc/elements/1.1/"
   xmlns:cc="http://creativecommons.org/ns#"
   xmlns:rdf="http://www.w3.org/1999/02/22-rdf-syntax-ns#"
   xmlns:svg="http://www.w3.org/2000/svg"
   xmlns="http://www.w3.org/2000/svg"
   xmlns:sodipodi="http://sodipodi.sourceforge.net/DTD/sodipodi-0.dtd"
   xmlns:inkscape="http://www.inkscape.org/namespaces/inkscape"
   inkscape:version="1.0 (4035a4fb49, 2020-05-01)"
   height="56"
   width="31.908001"
   sodipodi:docname="ataud_cafe.svg"
   id="svg834"
   xml:space="preserve"
   viewBox="0 0 31.908001 56"
   y="0px"
   x="0px"
   version="1.1"><metadata
     id="metadata840"><rdf:RDF><cc:Work
         rdf:about=""><dc:format>image/svg+xml</dc:format><dc:type
           rdf:resource="http://purl.org/dc/dcmitype/StillImage" /></cc:Work></rdf:RDF></metadata><defs
     id="defs838" /><sodipodi:namedview
     inkscape:current-layer="svg834"
     inkscape:window-maximized="1"
     inkscape:window-y="-8"
     inkscape:window-x="-8"
     inkscape:cy="24.104089"
     inkscape:cx="15.954"
     inkscape:zoom="6.725"
     showgrid="false"
     id="namedview836"
     inkscape:window-height="705"
     inkscape:window-width="1366"
     inkscape:pageshadow="2"
     inkscape:pageopacity="0"
     guidetolerance="10"
     gridtolerance="10"
     objecttolerance="10"
     borderopacity="1"
     bordercolor="#666666"
     pagecolor="#ffffff" /><path
     id="path824"
     d="M 7.572,0 0,15.145 7.781,56 H 24.127 L 31.908,15.145 24.336,0 Z m 22.366,15.177 -7,39 C 22.852,54.653 22.438,55 21.954,55 h -12 C 9.47,55 9.056,54.653 8.97,54.177 l -7,-39 C 1.93,14.954 1.967,14.725 2.074,14.526 l 7,-13 C 9.248,1.202 9.586,1 9.954,1 h 12 c 0.368,0 0.706,0.202 0.881,0.526 l 7,13 c 0.106,0.199 0.143,0.428 0.103,0.651 z" /><path
     id="path826"
     d="m 16.954,14 v -4 h -2 v 4 c 0,0.552 -0.447,1 -1,1 h -4 v 2 h 4 c 0.553,0 1,0.448 1,1 v 12 h 2 V 18 c 0,-0.552 0.447,-1 1,-1 h 4 v -2 h -4 c -0.553,0 -1,-0.448 -1,-1 z" /><path
     id="path828"
     d="M 10.552,3 4,15.167 10.791,53 H 21.117 L 27.908,15.167 21.356,3 Z m 13.402,11 v 4 c 0,0.552 -0.447,1 -1,1 h -4 v 12 c 0,0.552 -0.447,1 -1,1 h -4 c -0.553,0 -1,-0.448 -1,-1 V 19 h -4 c -0.553,0 -1,-0.448 -1,-1 v -4 c 0,-0.552 0.447,-1 1,-1 h 4 V 9 c 0,-0.552 0.447,-1 1,-1 h 4 c 0.553,0 1,0.448 1,1 v 4 h 4 c 0.553,0 1,0.448 1,1 z" /><path
     id="path842"
     d="M 10.885933,52.916451 C 10.879133,52.894931 9.345324,44.412639 7.477397,34.066914 L 4.081166,15.256506 7.311805,9.234201 10.542445,3.2118959 H 15.954 21.365555 l 3.23064,6.0223051 3.230639,6.022305 -3.383488,18.810408 -3.38349,18.810409 -5.080809,0.03913 c -2.794445,0.02152 -5.086346,0.02152 -5.093114,0 z m 7.584432,-20.999715 c 0.230897,-0.119402 0.46086,-0.370332 0.511031,-0.557621 0.05017,-0.18729 0.09213,-3.033836 0.09325,-6.325658 l 0.002,-5.98513 h 2.156133 c 2.904992,0 2.75093,0.170718 2.75093,-3.048327 0,-3.217828 0.152369,-3.048327 -2.740216,-3.048327 h -2.145421 l -0.04789,-2.24396 c -0.063,-2.95355 0.09309,-2.811802 -3.096182,-2.811802 -3.189269,0 -3.033184,-0.141748 -3.096215,2.811802 l -0.04789,2.24396 h -2.14542 c -2.892585,0 -2.740217,-0.169501 -2.740217,3.048327 0,3.219045 -0.154062,3.048327 2.75093,3.048327 h 2.156133 l 0.01045,6.05948 c 0.0057,3.332713 0.05935,6.183832 0.119123,6.335817 0.219995,0.55942 0.73918,0.679424 2.963312,0.684935 1.581738,0.0039 2.233867,-0.05033 2.546155,-0.211823 z"
     style="fill:#a05a2c;stroke-width:0.148699" /><path
     id="path844"
     d="m 15.061807,23.826745 c 0,-5.922374 -0.0078,-6.086545 -0.308191,-6.468402 l -0.30819,-0.3918 h -2.219691 -2.21969 V 16 15.033457 h 2.21969 2.219691 l 0.30819,-0.3918 c 0.278131,-0.353586 0.308191,-0.592893 0.308191,-2.453532 V 10.126394 H 15.954 16.846193 v 2.061731 c 0,1.860639 0.03006,2.099946 0.308191,2.453532 l 0.30819,0.3918 h 2.219691 2.21969 V 16 16.966543 h -2.21969 -2.219691 l -0.30819,0.3918 c -0.300369,0.381857 -0.308191,0.546028 -0.308191,6.468402 v 6.076601 H 15.954 15.061807 Z"
     style="fill:#a05a2c;stroke-width:0.148699" /><path
     id="path846"
     d="M 3.968239,35.591078 0.092007,15.256506 3.895937,7.635688 7.699867,0.0148699 h 8.291733 8.291732 l 3.771911,7.5597401 3.771911,7.559741 -0.179563,0.95327 c -0.09876,0.524299 -1.845609,9.702342 -3.881887,20.39565 l -3.702321,19.44238 H 15.953927 7.844472 Z m 18.740365,19.157353 c 0.194676,-0.215117 1.129738,-5.141628 3.812247,-20.085409 L 30.075154,14.862638 29.76142,14.241728 C 28.284752,11.319258 22.845175,1.3718006 22.611911,1.1672862 22.339141,0.9281356 21.799994,0.9070632 15.954,0.9070632 c -5.845994,0 -6.38514,0.021072 -6.65791,0.260223 C 9.062825,1.3718006 3.623247,11.319258 2.14658,14.241728 l -0.313733,0.62091 3.554302,19.800384 c 2.68251,14.943781 3.617571,19.870292 3.812248,20.085409 0.246715,0.272617 0.540785,0.285026 6.754603,0.285026 6.213819,0 6.507888,-0.01242 6.754604,-0.285026 z"
     style="fill:#a05a2c;stroke-width:0.148699" /></svg>
