<?xml version="1.0" encoding="UTF-8" standalone="no"?>
<svg
   xmlns:dc="http://purl.org/dc/elements/1.1/"
   xmlns:cc="http://creativecommons.org/ns#"
   xmlns:rdf="http://www.w3.org/1999/02/22-rdf-syntax-ns#"
   xmlns:svg="http://www.w3.org/2000/svg"
   xmlns="http://www.w3.org/2000/svg"
   xmlns:sodipodi="http://sodipodi.sourceforge.net/DTD/sodipodi-0.dtd"
   xmlns:inkscape="http://www.inkscape.org/namespaces/inkscape"
   inkscape:version="1.0 (4035a4fb49, 2020-05-01)"
   height="186.18105"
   width="315.55099"
   sodipodi:docname="ballena_celeste.svg"
   id="svg14"
   clip-rule="evenodd"
   fill-rule="evenodd"
   y="0px"
   x="0px"
   viewBox="0 0 315.55099 186.18105"
   style="image-rendering:optimizeQuality;shape-rendering:geometricPrecision;text-rendering:geometricPrecision"
   version="1.1"
   xml:space="preserve"><metadata
     id="metadata18"><rdf:RDF><cc:Work
         rdf:about=""><dc:format>image/svg+xml</dc:format><dc:type
           rdf:resource="http://purl.org/dc/dcmitype/StillImage" /><dc:title></dc:title></cc:Work></rdf:RDF></metadata><sodipodi:namedview
     inkscape:current-layer="svg14"
     inkscape:window-maximized="1"
     inkscape:window-y="-8"
     inkscape:window-x="-8"
     inkscape:cy="134.49989"
     inkscape:cx="157.78392"
     inkscape:zoom="1.2924925"
     fit-margin-bottom="0"
     fit-margin-right="0"
     fit-margin-left="0"
     fit-margin-top="0"
     showgrid="false"
     id="namedview16"
     inkscape:window-height="705"
     inkscape:window-width="1366"
     inkscape:pageshadow="2"
     inkscape:pageopacity="0"
     guidetolerance="10"
     gridtolerance="10"
     objecttolerance="10"
     borderopacity="1"
     bordercolor="#666666"
     pagecolor="#ffffff" /><defs
     id="defs4"><style
       id="style2"
       type="text/css">
   
    .fil0 {fill:black}
   
  </style></defs><g
     transform="translate(-8.7160803,-73.62511)"
     id="g8"><path
       id="path6"
       d="m 42,112 c -11,6 -20,2 -25,-2 -12,-7 -13,26 4,34 28,13 30,-8 48,27 19,35 73,89 136,89 32,1 64,-10 87,-28 -6,-3 -11,-6 -13,-14 8,3 19,7 27,0 14,-17 21,-39 18,-64 -8,-64 -71,-98 -127,-72 -56,26 -93,86 -105,67 -13,-19 0,-16 4,-43 4,-21 -18,-30 -19,-20 0,9 -10,14 -19,16 3,14 -2,23 -16,10 z m 250,77 c 3,0 6,3 6,6 0,3 -3,5 -6,5 -3,0 -5,-2 -5,-5 0,-3 2,-6 5,-6 z"
       class="fil0" /></g><path
     id="path20"
     d="M 187.42649,185.53368 C 153.84442,182.77684 117.39788,163.59146 88.113326,133.25545 75.671934,120.36735 67.894586,109.87653 58.701981,93.58265 53.271306,83.95678 49.063254,78.65149 45.325944,76.71885 43.777932,75.91835 39.572189,75.24728 33.615626,74.85035 19.353183,73.89996 10.124645,70.32164 5.4131467,63.915 0.69678478,57.50174 -1.437701,45.6997 1.0443957,39.7592 c 1.862146,-4.45674 3.2625,-4.61703 10.1085723,-1.15703 6.869937,3.47206 12.071256,3.99266 18.387727,1.84042 l 3.561238,-1.21344 4.013546,2.76084 c 5.163216,3.55166 9.119227,3.77527 11.574246,0.65422 1.430075,-1.81804 1.623233,-2.92228 1.410128,-8.06137 l -0.246927,-5.95476 3.094795,-0.92331 c 8.922853,-2.66205 14.64327,-7.70582 15.542798,-13.704292 0.354212,-2.36206 1.065904,-3.746763 2.362284,-4.5961844 4.282677,-2.806118 12.775228,3.5678754 15.438926,11.5875254 2.311681,6.959821 0.328799,17.944211 -5.557293,30.785201 -4.141131,9.03421 -4.307259,11.83135 -1.085569,18.27851 7.191066,14.3906 12.609483,13.02152 38.429893,-9.71012 28.32292,-24.93479 38.64935,-33.15867 52.08434,-41.47952 34.58543,-21.4201974 65.38744,-24.5377694 95.55181,-9.6711104 26.11488,12.8708424 44.1525,38.4159504 48.68641,68.9503004 1.51446,10.19936 1.5299,16.69511 0.0628,26.42826 -1.92021,12.73946 -6.95996,24.98001 -14.70648,35.71916 -5.47016,7.58338 -12.42142,9.17085 -24.02393,5.48637 l -5.90094,-1.8739 0.50268,2.06733 c 0.85508,3.51668 3.99288,7.54838 7.69524,9.88747 1.94824,1.23087 3.54288,2.50547 3.54364,2.83246 7.6e-4,0.32699 -3.09661,2.62878 -6.88305,5.11509 -18.36245,12.05743 -40.81306,19.67398 -63.98188,21.70638 -10.09219,0.8853 -12.71476,0.88755 -23.28294,0.02 z m 99.03573,-59.6603 c 2.28818,-1.2044 2.82473,-2.15902 2.83867,-5.05049 0.0218,-4.53167 -6.57627,-7.53274 -9.4792,-4.3115 -2.57376,2.85598 -2.31122,7.77167 0.5159,9.65939 1.27337,0.85025 4.21572,0.70737 6.12463,-0.2974 z"
     style="fill:#00ccff;stroke-width:0.773699" /></svg>
