<svg id="Capa_1" enable-background="new 0 0 512.016 512.016" height="512" viewBox="0 0 512.016 512.016" width="512" xmlns="http://www.w3.org/2000/svg"><g><path d="m463.295 76.593c3.15-2.688 3.526-7.422.838-10.573-2.688-3.149-7.42-3.527-10.574-.838l-16.191 13.813c-3.15 2.688-3.526 7.422-.838 10.573 1.483 1.739 3.59 2.632 5.71 2.632 1.721 0 3.451-.589 4.864-1.794z"/><path d="m430.592 231.665v9.229c0 4.142 3.357 7.5 7.5 7.5s7.5-3.358 7.5-7.5v-9.229c0-4.142-3.357-7.5-7.5-7.5s-7.5 3.358-7.5 7.5z"/><path d="m51.393 386.588c-7.811 7.812-7.811 20.521 0 28.334 7.829 7.829 20.504 7.832 28.335-.001 7.811-7.812 7.811-20.521 0-28.333-7.83-7.83-20.505-7.831-28.335 0zm17.727 17.726c-1.961 1.961-5.143 1.976-7.12.001-1.963-1.964-1.963-5.158 0-7.12 1.961-1.961 5.144-1.976 7.12 0 1.963 1.962 1.963 5.157 0 7.119z"/><path d="m138.514 356.134c7.831-7.831 7.832-20.503.001-28.334-7.83-7.83-20.503-7.831-28.334 0s-7.83 20.502 0 28.334c7.829 7.829 20.502 7.831 28.333 0zm-17.726-17.727c1.972-1.972 5.155-1.965 7.119-.001v.001c1.968 1.968 1.97 5.15 0 7.12-1.968 1.968-5.15 1.967-7.12-.001-1.964-1.964-1.971-5.147.001-7.119z"/><path d="m86.432 361.376c-2.93 2.929-2.93 7.678-.001 10.606l7.9 7.901c1.465 1.465 3.384 2.197 5.304 2.197 1.919 0 3.839-.732 5.303-2.196 2.93-2.929 2.93-7.678.001-10.606l-7.9-7.901c-2.931-2.929-7.68-2.93-10.607-.001z"/><path d="m245.059 116.593h34.922c4.143 0 7.5-3.358 7.5-7.5s-3.357-7.5-7.5-7.5h-34.922c-4.143 0-7.5 3.358-7.5 7.5s3.357 7.5 7.5 7.5z"/><path d="m504.508 497.016h-124.675v-30.021c0-7.774-6.325-14.099-14.1-14.099h-14.281v-32.428c0-6.446-5.245-11.69-11.691-11.69h-9.415l-34.825-269.078h13.131c9.453 0 17.144-7.69 17.144-17.143v-29.09l80.121 8.603v222.397c0 2.681 1.431 5.158 3.753 6.497 2.287 1.319 5.149 1.358 7.504-.006 22.182-12.837 40.012-33.08 52.997-60.169 1.791-3.735.215-8.215-3.521-10.005-3.732-1.792-8.214-.216-10.005 3.521-9.327 19.456-21.312 34.905-35.729 46.091 0-9.291 0-229.369 0-240.885l48.319-41.223c14.777 85.604 14.08 155.816-2.078 208.75-1.21 3.962 1.021 8.154 4.983 9.363 3.96 1.208 8.153-1.021 9.362-4.983 17.126-56.1 17.716-130.127 1.754-220.025-.783-4.406-3.888-8.083-8.102-9.594s-8.945-.647-12.35 2.257l-51.504 43.94-218.427-42.593c-4.071-.793-8.004 1.861-8.797 5.926s1.86 8.004 5.926 8.797l215.914 42.104v14.755c-12.041-1.294-341.886-36.713-353.012-37.907l1.782-3.243c12.501-22.741 38.014-34.682 63.486-29.716l41.843 8.16c4.075.796 8.004-1.861 8.797-5.926s-1.86-8.004-5.926-8.797l-41.843-8.16c-31.896-6.221-63.847 8.735-79.501 37.213l-7.207 13.111c-1.209 2.198-1.238 4.855-.078 7.08s3.355 3.722 5.85 3.99l24.012 2.578v14.023c0 9.174 7.464 16.638 16.639 16.638h7.936v222.233l-30.937 30.936c-2.929 2.93-2.929 7.678 0 10.607 2.929 2.927 7.677 2.929 10.607 0l39.541-39.541c10.54-10.54 27.603-10.541 38.146 0 10.517 10.518 10.517 27.63 0 38.146l-62.585 62.584c-10.515 10.517-27.629 10.519-38.146 0-10.518-10.517-10.518-27.629 0-38.146l1.84-1.84c2.929-2.93 2.929-7.678 0-10.607-2.93-2.928-7.678-2.928-10.607 0l-1.84 1.84c-16.365 16.366-16.365 42.994 0 59.36 1.455 1.455 2.995 2.775 4.598 3.971l-19.986 61.442h-11.817c-4.143 0-7.5 3.357-7.5 7.5s3.357 7.5 7.5 7.5h497c4.143 0 7.5-3.357 7.5-7.5s-3.358-7.498-7.5-7.498zm-168.056-44.12h-147.865v-29.118h147.865zm-26.937-88.204-76.866-29.821 69.154-29.768zm-10.64-82.214-59.515-28.728 52.079-28.728zm-18.13-140.079 7.366 56.914-41.682-27.03zm-20.258-2.249-17.922 15.607 2.02-15.607zm-21.731 45.035 43.136 27.973-50.352 27.774zm-10.346 79.936 60.498 29.202-68.07 29.301zm-10.376 80.17 81.453 31.6-58.547 31.797c-.052.028-.098.062-.149.091h-30.974zm54.169 63.487 40.193-21.828 2.825 21.828zm38.592-286.22c0 1.182-.962 2.143-2.144 2.143h-92.265c-1.182 0-2.143-.961-2.143-2.143v-41.07l96.551 10.368v30.702zm-231.677-43.167v-12.412l34.148 3.667v8.746c0 .903-.734 1.638-1.638 1.638h-30.871c-.903-.001-1.639-.736-1.639-1.639zm77.539 289.627c16.364-16.365 16.364-42.993 0-59.359-14.594-14.593-36.904-16.01-52.965-5.258v-208.372h7.937c9.174 0 16.638-7.464 16.638-16.638v-7.135l70.978 7.622v42.68c0 9.453 7.69 17.143 17.143 17.143h13.132l-34.826 269.078h-9.415c-6.446 0-11.69 5.244-11.69 11.69v32.428h-14.282c-7.774 0-14.099 6.324-14.099 14.099v30.021h-26.538l-22.093-67.918zm-121.56 127.998 17.806-54.739c3.751 1.061 7.619 1.6 11.49 1.599 6.759-.001 13.517-1.621 19.639-4.857l18.865 57.997zm125.109 0v-29.119h204.627v29.119z"/></g></svg>