<?xml version="1.0" encoding="UTF-8" standalone="no"?>
<svg
   xmlns:dc="http://purl.org/dc/elements/1.1/"
   xmlns:cc="http://creativecommons.org/ns#"
   xmlns:rdf="http://www.w3.org/1999/02/22-rdf-syntax-ns#"
   xmlns:svg="http://www.w3.org/2000/svg"
   xmlns="http://www.w3.org/2000/svg"
   xmlns:sodipodi="http://sodipodi.sourceforge.net/DTD/sodipodi-0.dtd"
   xmlns:inkscape="http://www.inkscape.org/namespaces/inkscape"
   inkscape:version="1.0 (4035a4fb49, 2020-05-01)"
   height="54"
   width="38"
   sodipodi:docname="candado_negro.svg"
   id="svg650"
   version="1.1"
   y="0px"
   x="0px"
   viewBox="0 0 38 54"
   data-name="Layer 1">
  <metadata
     id="metadata656">
    <rdf:RDF>
      <cc:Work
         rdf:about="">
        <dc:format>image/svg+xml</dc:format>
        <dc:type
           rdf:resource="http://purl.org/dc/dcmitype/StillImage" />
      </cc:Work>
    </rdf:RDF>
  </metadata>
  <defs
     id="defs654" />
  <sodipodi:namedview
     inkscape:current-layer="svg650"
     inkscape:window-maximized="1"
     inkscape:window-y="-8"
     inkscape:window-x="-8"
     inkscape:cy="23.104089"
     inkscape:cx="19"
     inkscape:zoom="6.725"
     showgrid="false"
     id="namedview652"
     inkscape:window-height="705"
     inkscape:window-width="1366"
     inkscape:pageshadow="2"
     inkscape:pageopacity="0"
     guidetolerance="10"
     gridtolerance="10"
     objecttolerance="10"
     borderopacity="1"
     bordercolor="#666666"
     pagecolor="#ffffff" />
  <title
     id="title642">Lock</title>
  <path
     id="path644"
     d="M 37,24 H 32 V 13 A 13,13 0 0 0 6,13 V 24 H 1 a 1,1 0 0 0 -1,1 v 10 a 19,19 0 0 0 38,0 V 25 A 1,1 0 0 0 37,24 Z M 3,28 a 1,1 0 1 1 1,-1 1,1 0 0 1 -1,1 z m 7,-15 a 9,9 0 0 1 18,0 V 24 H 10 Z M 21,41.58 V 44 a 2,2 0 0 1 -4,0 v -2.42 a 5,5 0 1 1 4,0 z M 35,28 a 1,1 0 1 1 1,-1 1,1 0 0 1 -1,1 z" />
</svg>
