<svg id="Capa_1" enable-background="new 0 0 512 512" height="512" viewBox="0 0 512 512" width="512" xmlns="http://www.w3.org/2000/svg"><g><path d="m334.602 33.568h30v137.238h-30z" fill="#704c55" transform="matrix(.956 -.293 .293 .956 -14.6 106.774)"/><path d="m386.787 87.187h137.157v30h-137.157z" fill="#5a344b" transform="matrix(.291 -.957 .957 .291 225.182 508.162)"/><path d="m348.644 291.729c0-92.11-74.67-166.78-166.78-166.78-92.11 0-166.78 74.67-166.78 166.78 0 92.11 74.67 166.78 166.78 166.78h166.78z" fill="#704c55"/><path d="m475.301 219.3v219.81c0 40.26-32.63 72.89-72.89 72.89h-402.29c0-20.13 8.16-38.35 21.35-51.54s31.41-21.35 51.54-21.35h183.62c40.25 0 72.89-32.64 72.89-72.89v-146.92c0-40.26 32.63-72.89 72.89-72.89 20.13 0 38.35 8.16 51.54 21.35s21.35 31.41 21.35 51.54z" fill="#ffc8cf"/><path d="m475.301 219.3v219.81c0 40.26-32.63 72.89-72.89 72.89v-365.59c20.13 0 38.35 8.16 51.54 21.35s21.35 31.41 21.35 51.54z" fill="#ffa6b3"/><path d="m181.699 208.266c-46.004 0-83.297 37.293-83.297 83.297 0 46.004 37.293 83.297 83.297 83.297 46.004 0 83.297-37.293 83.297-83.297 0-46.004-37.293-83.297-83.297-83.297z" fill="#5a344b"/><path d="m166.881 277.55h32.167v30h-32.167z" fill="#ffc8cf"/><circle cx="329.523" cy="36.572" fill="#9b786f" r="36.572"/><circle cx="475.307" cy="36.572" fill="#704c55" r="36.572"/></g></svg>