<?xml version="1.0" encoding="UTF-8" standalone="no"?>
<svg
   xmlns:dc="http://purl.org/dc/elements/1.1/"
   xmlns:cc="http://creativecommons.org/ns#"
   xmlns:rdf="http://www.w3.org/1999/02/22-rdf-syntax-ns#"
   xmlns:svg="http://www.w3.org/2000/svg"
   xmlns="http://www.w3.org/2000/svg"
   xmlns:sodipodi="http://sodipodi.sourceforge.net/DTD/sodipodi-0.dtd"
   xmlns:inkscape="http://www.inkscape.org/namespaces/inkscape"
   inkscape:version="1.0 (4035a4fb49, 2020-05-01)"
   height="57.778999"
   width="58"
   sodipodi:docname="casa_celeste.svg"
   id="svg1010"
   version="1.1"
   y="0px"
   x="0px"
   viewBox="0 0 58 57.778999"
   data-name="Layer 3">
  <metadata
     id="metadata1016">
    <rdf:RDF>
      <cc:Work
         rdf:about="">
        <dc:format>image/svg+xml</dc:format>
        <dc:type
           rdf:resource="http://purl.org/dc/dcmitype/StillImage" />
      </cc:Work>
    </rdf:RDF>
  </metadata>
  <defs
     id="defs1014" />
  <sodipodi:namedview
     inkscape:current-layer="svg1010"
     inkscape:window-maximized="1"
     inkscape:window-y="-8"
     inkscape:window-x="-8"
     inkscape:cy="34.34078"
     inkscape:cx="27.388003"
     inkscape:zoom="6.725"
     showgrid="false"
     id="namedview1012"
     inkscape:window-height="705"
     inkscape:window-width="1366"
     inkscape:pageshadow="2"
     inkscape:pageopacity="0"
     guidetolerance="10"
     gridtolerance="10"
     objecttolerance="10"
     borderopacity="1"
     bordercolor="#666666"
     pagecolor="#ffffff" />
  <path
     id="path978"
     d="m 22.001,41.78 h 6 v -12 h -6 z m 4.4,-8.8 1.2,1.6 -4,3 -1.2,-1.6 z" />
  <rect
     id="rect980"
     height="11.999"
     width="2"
     y="29.780001"
     x="18" />
  <rect
     id="rect982"
     height="3.9990001"
     width="6"
     y="33.778999"
     x="38.000999" />
  <path
     id="path984"
     d="M 52.001,53.78 V 22.188 L 51.42,21.78 H 6.5799999 l -0.579,0.407 V 53.78 h 2 v -5 a 1,1 0 0 1 1,-1 H 29.001 a 1,1 0 0 1 1,1 v 5 h 2 v -25 a 1,1 0 0 1 1,-1 h 16 a 1,1 0 0 1 1,1 v 25 z m -22,-11 a 1,1 0 0 1 -1,1 H 9.0009999 a 1,1 0 0 1 -1,-1 v -14 a 1,1 0 0 1 1,-1 H 29.001 a 1,1 0 0 1 1,1 z" />
  <polygon
     transform="translate(-2.9990001,-3.22)"
     id="polygon986"
     points="49,12.679 54.999,16.879 54.999,10 49,10 " />
  <path
     id="path988"
     d="m 28.425,3.962 a 1,1 0 0 1 1.151,0 l 26.206,18.441 1.8,-2.4 L 29.001,0 0.41999993,20.006 l 1.79999997,2.4 z" />
  <path
     id="path990"
     d="m 10.001,41.78 h 6 v -12 h -6 z m 4.4,-8.8 1.2,1.6 -4,3 -1.2,-1.6 z" />
  <rect
     id="rect992"
     height="2.0009999"
     width="58"
     y="55.778"
     x="0" />
  <path
     id="path994"
     d="m 24.101,15.78 h 2.818 l -1.754,-2.193 a 4.972,4.972 0 0 0 -1.064,2.193 z" />
  <path
     id="path996"
     d="m 26.731,12.341 2.27,2.839 2.269,-2.837 a 4.871,4.871 0 0 0 -4.539,0 z" />
  <path
     id="path998"
     d="M 9.4219999,19.78 H 48.579 L 29.001,6.002 Z M 36.001,16.78 a 1,1 0 0 1 -1,1 h -12 a 1,1 0 0 1 -1,-1 7,7 0 0 1 14,0 z" />
  <path
     id="path1000"
     d="M 33.901,15.78 A 4.983,4.983 0 0 0 32.837,13.587 L 31.081,15.78 Z" />
  <rect
     id="rect1002"
     height="3.9990001"
     width="18"
     y="49.778999"
     x="10.000999" />
  <path
     id="path1004"
     d="m 48.001,53.78 v -24 h -14 v 24 z m -12,-21 a 1,1 0 0 1 1,-1 h 8 a 1,1 0 0 1 1,1 v 6 a 1,1 0 0 1 -1,1 h -8 a 1,1 0 0 1 -1,-1 z m 1.5,9 a 1.5,1.5 0 1 1 -1.5,1.5 1.5,1.5 0 0 1 1.5,-1.5 z" />
  <path
     id="path1018"
     d="m 6.1013716,37.999331 c 0,-12.038001 0.041902,-15.774244 0.1784387,-15.910781 0.2594059,-0.259406 45.1829737,-0.259406 45.4423797,0 0.136536,0.136537 0.178438,3.87278 0.178438,15.910781 V 53.731673 H 51.008435 50.116242 V 41.085509 28.439344 l -0.364989,-0.364988 -0.364988,-0.364988 h -8.408246 c -8.209981,0 -8.415258,0.007 -8.705644,0.297398 -0.292759,0.29276 -0.297397,0.495663 -0.297397,13.011152 V 53.731673 H 31.008435 30.041892 V 51.00379 c 0,-2.453882 -0.02731,-2.752602 -0.271931,-2.973977 -0.247621,-0.224094 -1.208876,-0.246096 -10.752249,-0.246096 -8.809929,0 -10.5263221,0.0336 -10.7689601,0.210784 -0.264672,0.193279 -0.292495,0.440268 -0.335015,2.973978 l -0.04637,2.763194 H 6.9843691 6.1013716 Z m 23.6275714,5.560596 c 0.310237,-0.280815 0.312949,-0.348137 0.312949,-7.769516 0,-7.287982 -0.0079,-7.494124 -0.297398,-7.783645 -0.291736,-0.291737 -0.495662,-0.297398 -10.713078,-0.297398 H 8.6157349 l -0.364989,0.364988 -0.364988,0.364988 0.002,7.181481 c 0.0011,3.949814 0.04429,7.339353 0.09594,7.532311 0.202564,0.756714 0.230436,0.758509 11.2247651,0.723014 9.804039,-0.03165 10.219868,-0.04415 10.520446,-0.316223 z"
     style="fill:#00ffcc;stroke-width:0.148699" />
  <path
     id="path1020"
     d="m 39.001,31.761775 c 1.124535,-0.02526 2.964684,-0.02526 4.089219,0 1.124536,0.02526 0.204461,0.04593 -2.044609,0.04593 -2.249071,0 -3.169145,-0.02067 -2.04461,-0.04593 z"
     style="fill:#00ffcc;stroke-width:0.148699" />
  <path
     id="path1022"
     d="m 38.071632,35.739108 v -1.933086 h 2.899628 2.899628 v 1.933086 1.933085 H 40.97126 38.071632 Z"
     style="fill:#00ffcc;stroke-width:0.148699" />
  <path
     id="path1024"
     d="M 34.056762,41.761413 V 29.791152 h 6.914498 6.914498 v 11.970261 11.97026 H 40.97126 34.056762 Z m 4.463785,2.639405 c 0.62854,-0.566623 0.726359,-1.2872 0.266815,-1.965467 -0.589181,-0.869606 -1.693975,-0.973152 -2.438573,-0.228554 -0.275919,0.275919 -0.358941,0.517923 -0.358941,1.046284 0,1.407075 1.492279,2.083862 2.530699,1.147737 z m 7.296742,-4.923537 c 0.260618,-0.32205 0.284083,-0.624378 0.284083,-3.660244 0,-3.122667 -0.01737,-3.331283 -0.308191,-3.700998 l -0.30819,-0.391801 h -4.417088 c -3.757144,0 -4.466464,0.03458 -4.747571,0.23148 -0.325817,0.228211 -0.330452,0.281237 -0.328207,3.754647 0.0012,1.937742 0.05144,3.5958 0.111524,3.684574 0.31578,0.466549 0.735519,0.505447 5.066799,0.469548 l 4.362758,-0.03616 z"
     style="fill:#00ffcc;stroke-width:0.148699" />
  <path
     id="path1026"
     d="m 22.012152,35.739108 v -5.947956 h 2.973978 2.973978 v 5.947956 5.947955 H 24.98613 22.012152 Z m 3.645749,0.427854 c 1.102645,-0.827878 2.004809,-1.541128 2.004809,-1.585001 0,-0.113857 -1.184606,-1.668132 -1.271383,-1.668132 -0.101385,0 -4.081777,2.996623 -4.081777,3.07295 0,0.09145 1.21474,1.685414 1.284432,1.685414 0.03251,0 0.961274,-0.677354 2.063919,-1.505231 z"
     style="fill:#00ffcc;stroke-width:0.148699" />
  <path
     id="path1028"
     d="m 18.145981,35.739108 v -5.947956 h 0.892194 0.892193 v 5.947956 5.947955 h -0.892193 -0.892194 z"
     style="fill:#00ffcc;stroke-width:0.148699" />
  <path
     id="path1030"
     d="m 10.116242,35.739108 v -5.947956 h 2.899628 2.899628 v 5.947956 5.947955 H 13.01587 10.116242 Z m 3.530484,0.435293 c 1.346733,-1.011141 1.968423,-1.566793 1.913408,-1.710161 -0.110229,-0.287252 -1.035599,-1.537353 -1.143378,-1.544612 -0.159564,-0.01075 -4.021507,2.942525 -4.01132,3.067503 0.01163,0.142743 1.092592,1.677039 1.184917,1.681856 0.03381,0.0018 0.959178,-0.6708 2.056373,-1.494586 z"
     style="fill:#00ffcc;stroke-width:0.148699" />
  <path
     id="path1032"
     d="m 10.116242,51.798587 v -1.933085 h 8.921933 8.921933 v 1.933085 1.933086 h -8.921933 -8.921933 z"
     style="fill:#00ffcc;stroke-width:0.148699" />
  <path
     id="path1034"
     d="M 0.00471743,56.78 V 55.813457 H 29.001 57.997283 V 56.78 57.746543 H 29.001 0.00471743 Z"
     style="fill:#00ffcc;stroke-width:0.148699" />
  <path
     id="path1036"
     d="M 10.04598,19.469083 C 12.494599,17.711403 28.946924,6.1563939 29.001,6.1563496 29.066511,6.156296 48.013431,19.46144 48.170765,19.617982 c 0.03408,0.03391 -8.596053,0.06165 -19.178068,0.06165 -16.6334,0 -19.2002891,-0.02852 -18.946717,-0.210545 z m 25.395493,-1.711922 c 0.516867,-0.196513 0.676272,-0.794839 0.531154,-1.993688 -0.40647,-3.357913 -3.506525,-6.04667 -6.971627,-6.04667 -3.472827,0 -6.564251,2.681271 -6.971626,6.04667 -0.140981,1.164669 0.01285,1.794784 0.484667,1.985323 0.431395,0.174214 12.470727,0.182004 12.927432,0.0084 z"
     style="fill:#00ffcc;stroke-width:0.148699" />
  <path
     id="path1038"
     d="M 1.4917062,21.287511 C 1.1236765,20.785491 0.77140223,20.289463 0.70887463,20.185227 0.62871383,20.051594 4.7646088,17.076865 14.733743,10.097889 22.509949,4.654091 28.930213,0.2000743 29.001,0.2000743 c 0.07079,0 6.491051,4.4540167 14.267257,9.8978147 9.969134,6.978976 14.105029,9.953705 14.024868,10.087338 -0.488921,0.815059 -1.486385,2.002822 -1.636999,1.949308 C 55.554364,22.098379 49.620408,17.951309 42.469559,12.918822 32.035717,5.5758961 29.376863,3.7688476 29.00648,3.7688476 c -0.37042,0 -3.025479,1.804887 -13.448842,9.1424084 C 8.4146199,17.939581 2.4781986,22.086651 2.3655914,22.12697 2.2399984,22.17194 1.9021774,21.847425 1.4917062,21.287511 Z"
     style="fill:#00ffcc;stroke-width:0.148699" />
  <path
     id="path1040"
     d="m 49.001,11.449777 -2.825279,-1.98316 -0.04296,-1.287546 -0.04296,-1.287547 h 2.905418 2.905417 V 10.1629 c 0,1.799256 -0.01673,3.271074 -0.03717,3.270706 -0.02046,-3.72e-4 -1.308563,-0.893091 -2.862466,-1.983829 z"
     style="fill:#00ffcc;stroke-width:0.148699" />
  <path
     id="path1042"
     d="m 28.402334,14.289294 c -0.274858,-0.347584 -0.72909,-0.916392 -1.009405,-1.264018 l -0.509665,-0.632047 0.575597,-0.242843 c 0.749486,-0.316208 2.334792,-0.316208 3.084278,0 l 0.575597,0.242843 -0.509665,0.632047 c -0.280315,0.347626 -0.734547,0.916434 -1.009405,1.264018 -0.274858,0.347583 -0.544257,0.63197 -0.598666,0.63197 -0.05441,0 -0.323808,-0.284387 -0.598666,-0.63197 z"
     style="fill:#00ffcc;stroke-width:0.148699" />
  <path
     id="path1044"
     d="m 31.380182,15.609362 c 0,-0.03047 0.32708,-0.464568 0.726844,-0.964667 0.77408,-0.968361 0.805858,-0.970794 1.243168,-0.09518 0.560278,1.121829 0.564829,1.115241 -0.7704,1.115241 -0.659787,0 -1.199612,-0.02493 -1.199612,-0.0554 z"
     style="fill:#00ffcc;stroke-width:0.148699" />
  <path
     id="path1050"
     d="m 24.150788,15.692748 c 0,-0.01404 0.06683,-0.219795 0.148522,-0.457224 0.238812,-0.694116 0.816504,-1.647825 0.918706,-1.516683 0.01251,0.01605 0.363001,0.45411 0.778872,0.973466 0.415872,0.519355 0.75613,0.962664 0.75613,0.98513 0,0.02247 -0.585502,0.04085 -1.301115,0.04085 -0.715613,0 -1.301115,-0.01149 -1.301115,-0.02553 z"
     style="fill:#00ffcc;stroke-width:0.0743494" />
</svg>
