<svg id="Capa_1" enable-background="new 0 0 512 512" height="512" viewBox="0 0 512 512" width="512" xmlns="http://www.w3.org/2000/svg"><g><path d="m14.142 239.537c-7.454 0-13.315-6.888-12.44-14.291 6.199-52.427 28.285-99.793 61.272-137.487 1.714-1.958 7.504 1.521 9.276-.385 1.636-1.759-.752-8.906.933-10.619 8.664-8.812 17.962-17.007 27.818-24.516 1.099-.837 2.638 1.11 3.751.29 18.152-13.372 38.133-24.405 59.498-32.655 1.251-.483 2.073-3.732 3.333-4.196 27.557-10.141 57.341-15.678 88.417-15.678 9.118 0 18.124.477 26.996 1.406 2.601.273 5.802 4.994 8.379 5.344s4.532-3.671 7.084-3.245c90.361 15.083 164.699 77.497 196.665 160.893 13.896 36.253-13.196 75.139-52.021 75.139z" fill="#356845"/><path d="m495.124 164.398c10.822 28.234-3.216 58.064-28.295 69.88-11.97-1.797-22.871-6.856-31.77-14.246-11.258 9.349-25.723 14.97-41.5 14.97s-30.242-5.621-41.5-14.97c-11.258 9.349-25.723 14.97-41.5 14.97-7.756 0-15.195-1.359-22.091-3.85-.736 2.877-1.664 5.677-2.769 8.385h-271.557c-7.454 0-13.315-6.888-12.44-14.291 2.418-20.453 7.255-40.136 14.213-58.775 4.452-.963 9.073-1.471 13.813-1.471 11.402 0 22.118 2.936 31.434 8.092 8.407-26.163 32.941-45.097 61.897-45.097 26.406 0 49.135 15.746 59.309 38.361 11.474-10.18 26.576-16.361 43.121-16.361 7.756 0 15.195 1.359 22.091 3.85 7.182-28.085 32.656-48.848 62.979-48.848 15.777 0 30.242 5.621 41.5 14.97 11.258-9.349 25.723-14.97 41.5-14.97s30.242 5.621 41.5 14.97c8.11-6.734 17.884-11.534 28.613-13.692 12.851 17.794 23.472 37.304 31.452 58.123z" fill="#3d7a51"/><path d="m333.921 92.754c-8.306 1.862-20.345-2.926-30.217-12.798-5.541-5.541-9.48-11.765-11.541-17.628-6.077 17.044-15.926 33.033-29.549 46.656-49.188 49.188-129.222 49.188-178.41 0l-21.23-21.224c3.291-3.772 6.705-7.431 10.209-11.003l21.627 21.62c43.339 43.339 113.858 43.339 157.197 0 10.231-10.231 18.047-21.978 23.447-34.524-3.237 1.256-6.917 1.967-10.82 1.967-10.108 0-18.724-4.765-22.023-11.446 3.299-6.681 11.915-11.446 22.023-11.446 6.334 0 12.082 1.871 16.303 4.913 3.933-15.175 4.619-31.025 2.057-46.435 5.203.545 10.359 1.247 15.464 2.099 1.971 15.277 1.153 30.849-2.451 45.882 7.704.495 17.12 5.154 25.115 13.149 9.873 9.873 14.66 21.912 12.799 30.218z" fill="#9bcf1b"/><path d="m33.011 380.91c-21.015-37.188-33.011-80.168-33.011-125.955 0-10.049.578-19.962 1.702-29.709.44.022.882.041 1.324.055 12.442.392 24.161-2.577 34.322-8.069 18.995-10.268 42.034-10.096 61.064.108 9.515 5.102 20.387 7.995 31.934 7.995 11.548 0 22.421-2.894 31.937-7.997 19.099-10.242 42.16-10.242 61.259 0 9.516 5.103 20.389 7.997 31.937 7.997s22.421-2.894 31.937-7.997c19.099-10.242 42.16-10.242 61.259 0 9.516 5.103 20.389 7.997 31.937 7.997 11.547 0 22.419-2.893 31.934-7.995 19.029-10.204 42.068-10.376 61.064-.108 10.16 5.492 21.88 8.461 34.322 8.069.443-.014.884-.033 1.325-.055 1.124 9.747 1.702 19.66 1.702 29.709 0 45.787-11.996 88.767-33.011 125.955-1.475-.665-2.921-1.382-4.338-2.147-18.995-10.268-42.034-10.096-61.064.108-9.515 5.102-20.387 7.995-31.934 7.995-11.548 0-22.421-2.894-31.937-7.997-19.099-10.242-42.16-10.242-61.259 0-9.516 5.103-20.389 7.997-31.937 7.997s-22.421-2.894-31.937-7.997c-19.099-10.242-42.16-10.242-61.259 0-9.516 5.103-20.389 7.997-31.937 7.997-11.547 0-22.419-2.893-31.934-7.995-19.029-10.204-42.068-10.376-61.064-.108-1.416.766-2.863 1.482-4.337 2.147z" fill="#2476ed"/><path d="m489.316 179.251c-9.339 2.91-19.241 5.034-29.553 6.258-10.327-1.226-20.242-3.354-29.593-6.27-9.351 2.916-19.266 5.044-29.593 6.27-10.327-1.226-20.242-3.354-29.593-6.27-9.351 2.916-19.266 5.044-29.593 6.27-10.778-1.279-21.108-3.541-30.815-6.656 3.681-18.579 14.695-35.409 30.815-48.853 14.613 12.188 25.031 27.158 29.593 43.692 4.562-16.534 14.979-31.505 29.593-43.692 14.613 12.188 25.031 27.158 29.593 43.692 4.562-16.534 14.979-31.505 29.593-43.692 6.263 5.224 11.755 10.958 16.347 17.109 5.13 10.322 9.553 21.057 13.206 32.142z" fill="#caed73"/><path d="m512 256c0 41.491-10.318 80.746-27.893 115.406-2.696 5.316-8.056 8.594-14.016 8.594h-385.091c-24.853 0-45-20.147-45-45 0-1.753.301-3.436.854-5h-.854v-.275c-22.5-2.488-40-21.562-40-44.725 0-24.853 20.147-45 45-45 10.716 0 20.557 3.746 28.286 10h13.428c7.729-6.254 17.57-10 28.286-10 10.716 0 20.557 3.746 28.286 10h23.428c7.729-6.254 17.57-10 28.286-10 10.716 0 20.557 3.746 28.286 10h15.129c3.723-6.002 7.769-11.782 12.117-17.314-.433-3.099-.608-6.281-.503-9.523.937-28.747 24.376-52.19 53.123-53.132 8.477-.278 16.541 1.364 23.792 4.523 22.491-9.377 47.169-14.554 73.056-14.554h93.392c12 29.646 18.608 62.051 18.608 96z" fill="#9bcf1b"/><path d="m512 256c0 41.524-10.292 80.726-27.893 115.406-2.672 5.264-8.02 8.594-13.923 8.594h-385.184c-24.853 0-45-20.147-45-45 0-1.753.301-3.436.854-5l321.569-.804c67.907-.17 123.224-54.974 123.574-122.88.002-.449.003-.899.003-1.349 0-15.342-1.35-30.368-3.937-44.967h11.328c12.001 29.646 18.609 62.051 18.609 96z" fill="#84b017"/><path d="m234.572 337.259c-6.496-1.049-12.722-2.903-18.572-5.457 2.218-15.232 8.857-29.03 18.572-40.052 9.715 11.022 16.354 24.82 18.572 40.052-5.85 2.554-12.076 4.408-18.572 5.457zm-38.572-5.457c-2.218-15.232-8.857-29.03-18.572-40.052-9.715 11.022-16.354 24.82-18.572 40.052 5.85 2.554 12.076 4.408 18.572 5.457 6.496-1.049 12.722-2.903 18.572-5.457zm-101.667 1.295c-1.692-11.619-6.756-22.144-14.167-30.552-7.411 8.407-12.474 18.933-14.167 30.552 4.463 1.948 9.212 3.363 14.167 4.163 4.955-.801 9.705-2.215 14.167-4.163z" fill="#fffac1"/><path d="m335.365 220c0 19.532-15.833 35.365-35.365 35.365s-35.365-15.833-35.365-35.365 15.833-35.365 35.365-35.365 35.365 15.833 35.365 35.365z" fill="#84b017"/><path d="m320 220c0 11.046-8.954 20-20 20s-20-8.954-20-20 8.954-20 20-20 20 8.954 20 20z" fill="#3f4a4a"/><path d="m327.5 220c0 5.523-4.477 10-10 10s-10-4.477-10-10 4.477-10 10-10 10 4.477 10 10z" fill="#fffac1"/><path d="m27.893 371.406c3.461-1.199 6.796-2.672 9.977-4.391 18.995-10.268 42.034-10.096 61.064.108 9.515 5.102 20.387 7.995 31.934 7.995 11.548 0 22.421-2.894 31.937-7.997 19.099-10.242 42.16-10.242 61.259 0 9.516 5.103 20.389 7.997 31.937 7.997s22.421-2.894 31.937-7.997c19.099-10.242 42.16-10.242 61.259 0 9.516 5.103 20.389 7.997 31.937 7.997 11.547 0 22.419-2.893 31.934-7.995 19.029-10.204 42.068-10.376 61.064-.108 3.181 1.72 6.516 3.192 9.977 4.391-13.403 26.548-31.287 50.439-52.654 70.675-6.351 1.231-12.557 3.416-18.387 6.542-9.515 5.102-20.387 7.995-31.934 7.995-11.548 0-22.421-2.894-31.937-7.997-19.099-10.242-42.16-10.242-61.259 0-9.516 5.103-20.389 7.997-31.937 7.997s-22.421-2.894-31.937-7.997c-19.099-10.242-42.16-10.242-61.259 0-9.516 5.103-20.389 7.997-31.937 7.997-11.547 0-22.419-2.893-31.934-7.995-5.83-3.126-12.036-5.31-18.387-6.542-21.367-20.236-39.251-44.127-52.654-70.675z" fill="#07a9f0"/><path d="m446.14 427.416c-46.853 51.938-114.684 84.584-190.14 84.584-75.439 0-143.256-32.631-190.108-84.548 11.508-.499 23.137 2.08 33.563 7.671 9.515 5.102 20.387 7.995 31.934 7.995 11.548 0 22.421-2.894 31.937-7.997 19.099-10.242 42.16-10.242 61.259 0 9.516 5.103 20.389 7.997 31.937 7.997s22.421-2.894 31.937-7.997c19.099-10.242 42.16-10.242 61.259 0 9.516 5.103 20.389 7.997 31.937 7.997 11.547 0 22.419-2.893 31.934-7.995 10.119-5.427 21.374-8.016 32.551-7.707z" fill="#2476ed"/><path d="m290 347.259h-250c-5.523 0-10-4.477-10-10 0-5.523 4.477-10 10-10h250c5.523 0 10 4.477 10 10 0 5.523-4.477 10-10 10zm-250-87.259c-11.046 0-20 8.954-20 20s8.954 20 20 20 20-8.954 20-20-8.954-20-20-20z" fill="#6e9213"/><path d="m167.583 15.679v37.535c29.597 3.691 52.5 28.938 52.5 59.536-22.59 0-42.265-12.484-52.5-30.93v61.395c29.597 3.691 52.5 28.938 52.5 59.536-22.59 0-42.265-12.484-52.5-30.93v50.93c0 3.688.629 7.309 1.822 10.72 28.71 4.478 50.678 29.314 50.678 59.28-25.933 0-48.022-16.452-56.402-39.488-7.118-8.496-11.098-19.287-11.098-30.512v-.93c-10.235 18.446-29.91 30.93-52.5 30.93 0-30.597 22.903-55.845 52.5-59.536v-51.395c-10.235 18.446-29.91 30.93-52.5 30.93 0-30.597 22.903-55.845 52.5-59.536v-81.394c-10.235 18.446-29.91 30.93-52.5 30.93 0-3.586.315-7.098.917-10.51 20.075-15.294 42.478-27.689 66.583-36.561z" fill="#caed73"/></g></svg>