<?xml version="1.0"?>
<svg xmlns="http://www.w3.org/2000/svg" id="Filled" viewBox="0 0 512 512" width="512" height="512"><circle cx="256" cy="256" r="232" style="fill:#ffd754"/><circle cx="256" cy="256" r="184" style="fill:#edb90c"/><path d="M74.782,232a8,8,0,0,1-7.889-9.383A192.259,192.259,0,0,1,222.618,66.893a8,8,0,1,1,2.764,15.76A176.212,176.212,0,0,0,82.653,225.382,8,8,0,0,1,74.782,232Z"/><path d="M287.991,445.229a8,8,0,0,1-1.373-15.882A176.212,176.212,0,0,0,429.347,286.618a8,8,0,1,1,15.76,2.764A192.259,192.259,0,0,1,289.382,445.107,8.048,8.048,0,0,1,287.991,445.229Z"/><circle cx="72" cy="256" r="8"/><circle cx="256" cy="72" r="8"/><circle cx="440" cy="256" r="8"/><circle cx="256" cy="440" r="8"/><path d="M256,496A240,240,0,0,1,86.294,86.294,240,240,0,0,1,425.706,425.706,238.432,238.432,0,0,1,256,496Zm0-464A224,224,0,0,0,97.608,414.392,224,224,0,0,0,414.392,97.608,222.533,222.533,0,0,0,256,32Z"/><path d="M250.56,342.751l-2.467,16.033a8,8,0,0,0,6.691,9.123,8.1,8.1,0,0,0,1.226.094,8,8,0,0,0,7.9-6.785l2.656-17.265c24.24-.867,47.14-13.985,61.665-35.471a8,8,0,0,0-13.255-8.96c-11.207,16.576-27.735,26.672-45.921,28.255l21.155-137.51a65.9,65.9,0,0,1,24.766,22.215,8,8,0,0,0,13.255-8.96,81.582,81.582,0,0,0-35.507-29.6l3.186-20.7a8,8,0,1,0-15.814-2.432l-2.839,18.455A72.156,72.156,0,0,0,264,168c-.794,0-1.585.016-2.374.042l2.281-14.826a8,8,0,0,0-15.814-2.432L245.06,170.5C210.06,179.88,184,214.653,184,256c0,30.912,14.567,58.149,36.544,73.851l-4.451,28.933a8,8,0,0,0,6.691,9.123,8.1,8.1,0,0,0,1.226.094,8,8,0,0,0,7.9-6.785l3.541-23.015A73.615,73.615,0,0,0,250.56,342.751ZM264,184a57.868,57.868,0,0,1,10.826,1.021L253,326.913a58.383,58.383,0,0,1-15.018-5.158l21.157-137.526C260.743,184.092,262.362,184,264,184Zm-64,72c0-31.146,17.673-57.729,42.328-67.742L223.356,311.576C209.1,298.359,200,278.353,200,256Z"/></svg>
