<?xml version="1.0" encoding="UTF-8" standalone="no"?>
<svg
   xmlns:dc="http://purl.org/dc/elements/1.1/"
   xmlns:cc="http://creativecommons.org/ns#"
   xmlns:rdf="http://www.w3.org/1999/02/22-rdf-syntax-ns#"
   xmlns:svg="http://www.w3.org/2000/svg"
   xmlns="http://www.w3.org/2000/svg"
   xmlns:sodipodi="http://sodipodi.sourceforge.net/DTD/sodipodi-0.dtd"
   xmlns:inkscape="http://www.inkscape.org/namespaces/inkscape"
   inkscape:version="1.0 (4035a4fb49, 2020-05-01)"
   height="75.599113"
   width="21.446291"
   sodipodi:docname="cuchara_negra.svg"
   id="svg464"
   xml:space="preserve"
   enable-background="new 0 0 100 100"
   viewBox="0 0 21.446291 75.599113"
   y="0px"
   x="0px"
   version="1.1"><metadata
     id="metadata470"><rdf:RDF><cc:Work
         rdf:about=""><dc:format>image/svg+xml</dc:format><dc:type
           rdf:resource="http://purl.org/dc/dcmitype/StillImage" /></cc:Work></rdf:RDF></metadata><defs
     id="defs468" /><sodipodi:namedview
     inkscape:current-layer="svg464"
     inkscape:window-maximized="1"
     inkscape:window-y="-8"
     inkscape:window-x="-8"
     inkscape:cy="15.223386"
     inkscape:cx="10.740939"
     inkscape:zoom="4.304"
     showgrid="false"
     id="namedview466"
     inkscape:window-height="705"
     inkscape:window-width="1366"
     inkscape:pageshadow="2"
     inkscape:pageopacity="0"
     guidetolerance="10"
     gridtolerance="10"
     objecttolerance="10"
     borderopacity="1"
     bordercolor="#666666"
     pagecolor="#ffffff" /><path
     id="path458"
     d="m 8.1579391,29.223111 c 0,0 -13.565,-10.178 -5.711,-23.2519999 8.2939999,-13.435 16.5469999,0 16.5469999,0 7.854,13.0739999 -5.669,23.2509999 -5.669,23.2509999 l 1.979,42.124 h -0.02 c 0,2.351 -2.031,4.253 -4.543,4.253 -2.5109999,0 -4.5429999,-1.902 -4.5429999,-4.253 h -0.02 l 1.98,-42.123 m 2.5829999,43.272 c 0.948,0 1.75,-0.803 1.75,-1.75 0,-0.948 -0.803,-1.75 -1.75,-1.75 -0.9489999,0 -1.7499999,0.803 -1.7499999,1.75 0,0.949 0.802,1.75 1.7499999,1.75 z" /></svg>
