<?xml version="1.0" encoding="UTF-8" standalone="no"?>
<svg
   xmlns:dc="http://purl.org/dc/elements/1.1/"
   xmlns:cc="http://creativecommons.org/ns#"
   xmlns:rdf="http://www.w3.org/1999/02/22-rdf-syntax-ns#"
   xmlns:svg="http://www.w3.org/2000/svg"
   xmlns="http://www.w3.org/2000/svg"
   xmlns:sodipodi="http://sodipodi.sourceforge.net/DTD/sodipodi-0.dtd"
   xmlns:inkscape="http://www.inkscape.org/namespaces/inkscape"
   inkscape:version="1.0 (4035a4fb49, 2020-05-01)"
   height="39.779926"
   width="47.792747"
   sodipodi:docname="dromedario_azul.svg"
   id="svg90"
   xml:space="preserve"
   viewBox="0 0 47.792747 39.779926"
   y="0px"
   x="0px"
   version="1.1"><metadata
     id="metadata96"><rdf:RDF><cc:Work
         rdf:about=""><dc:format>image/svg+xml</dc:format><dc:type
           rdf:resource="http://purl.org/dc/dcmitype/StillImage" /><dc:title></dc:title></cc:Work></rdf:RDF></metadata><defs
     id="defs94" /><sodipodi:namedview
     inkscape:current-layer="svg90"
     inkscape:window-maximized="1"
     inkscape:window-y="-8"
     inkscape:window-x="-8"
     inkscape:cy="26.745537"
     inkscape:cx="23.896375"
     inkscape:zoom="7.8254545"
     fit-margin-bottom="0"
     fit-margin-right="0"
     fit-margin-left="0"
     fit-margin-top="0"
     showgrid="false"
     id="namedview92"
     inkscape:window-height="705"
     inkscape:window-width="1366"
     inkscape:pageshadow="2"
     inkscape:pageopacity="0"
     guidetolerance="10"
     gridtolerance="10"
     objecttolerance="10"
     borderopacity="1"
     bordercolor="#666666"
     pagecolor="#ffffff" /><style
     id="style80"
     type="text/css">
	.st0{fill:none;stroke:#000000;stroke-width:2;stroke-linecap:round;stroke-linejoin:round;stroke-miterlimit:10;}
</style><g
     transform="translate(-3.6036245,-7.6294633)"
     id="g84"><path
       id="path82"
       d="M 49.251301,22.577097 C 48.231342,21.787119 47.111347,21.647104 46.29134,21.697092 45.561359,17.167063 42.081318,13.567088 37.501301,12.757091 37.401325,10.357066 35.831318,8.3371076 33.511311,7.7270607 31.801348,7.2771095 30.041338,7.6170753 28.671343,8.6670636 c -1.299988,1 -2.080017,2.4900514 -2.150024,4.1100464 -3.549988,0.820007 -6.549988,4.429992 -8.02002,8.389953 -0.579956,-1.609986 -1.469971,-3.259949 -2.859985,-4.359986 -1.399964,-1.109984 -3.079956,-1.499999 -4.989991,-1.159972 -0.47998,0.07996 -0.8300167,0.499999 -0.8300167,0.97998 v 3.299987 H 6.561358 c -1.6900024,0 -3.0600586,1.369996 -3.0600586,3.059998 0,0.820007 0.3200073,1.590027 0.8900146,2.160034 0.5700073,0.579956 1.3400269,0.899964 2.1700439,0.899964 h 3.0099483 l -0.049988,4.470031 c -0.02002,1.25 0.460022,2.419985 1.3300178,3.31 0.880004,0.889953 2.049987,1.380005 3.299987,1.380005 h 4.979981 v 8.679992 c 0,1.979981 1.610046,3.579956 3.590027,3.579956 1.97998,0 3.590027,-1.599975 3.590027,-3.579956 v -8.679992 h 3.019958 v 8.679992 c 0,1.979981 1.609986,3.579956 3.590029,3.579956 1.97998,0 3.589966,-1.599975 3.589966,-3.579956 v -8.679992 h 2.75 v 8.679992 c 0,1.979981 1.610046,3.579956 3.590027,3.579956 1.97998,0 3.580017,-1.599975 3.580017,-3.579956 V 31.957102 l 0.0099,-0.01001 v -8.270019 c 0.450013,-0.01001 1.059998,0.07001 1.590027,0.480041 1.130005,0.869995 1.630005,2.959961 1.429993,6.029968 -0.03998,0.549988 0.380005,1.02002 0.929993,1.059998 h 0.07001 c 0.520019,0 0.960022,-0.409973 0.98999,-0.929993 0.25,-3.820007 -0.48999,-6.429993 -2.200012,-7.73999 z M 14.461138,22.48707 c -0.189942,0.179688 -0.450196,0.290039 -0.709961,0.290039 -0.27002,0 -0.52002,-0.110351 -0.709961,-0.290039 -0.180176,-0.189941 -0.290039,-0.450195 -0.290039,-0.709961 0,-0.270019 0.109863,-0.520019 0.290039,-0.709961 0.370117,-0.370117 1.040039,-0.370117 1.419922,0 0.180176,0.189942 0.290039,0.439942 0.290039,0.709961 0,0.259766 -0.109863,0.52002 -0.290039,0.709961 z" /></g><path
     id="path98"
     d="m 17.968952,39.570452 c -0.437811,-0.134433 -0.8258,-0.393255 -1.299264,-0.86672 -1.057664,-1.057663 -1.079539,-1.191493 -1.079539,-6.604307 v -4.567196 l -3.098861,-0.04215 C 9.4120735,27.448188 9.3879085,27.445702 8.6800245,27.098037 7.7560065,26.64422 6.8762215,25.767784 6.4275675,24.854155 6.0723856,24.130871 6.0696569,24.10596 6.0293497,21.218701 l -0.040585,-2.907179 -1.8762363,-0.0028 C 1.9604942,18.305497 1.5050399,18.174478 0.7815938,17.350519 0.2150341,16.705242 0,16.161016 0,15.372396 0,14.223142 0.6316526,13.227706 1.7251394,12.65371 2.1644112,12.423126 2.5193219,12.377629 4.2489545,12.33017 l 2.0126626,-0.05522 v -1.779574 c 0,-1.7009153 0.013363,-1.7929383 0.3023244,-2.0818993 0.563648,-0.563648 2.422175,-0.592961 3.8449255,-0.06064 1.602637,0.599623 2.864075,1.9065293 3.917895,4.0591093 l 0.602665,1.231033 0.226766,-0.572905 c 1.403349,-3.5454303 4.674182,-7.0284223 7.210822,-7.6785443 l 0.610657,-0.156506 0.08538,-0.68339 c 0.20095,-1.608352 1.470777,-3.2732269 3.065857,-4.01965472 3.246595,-1.5192651 6.944116,0.3545112 7.608066,3.85550472 0.07187,0.378947 0.17294,0.725053 0.224607,0.769125 0.05167,0.04407 0.479557,0.181174 0.950864,0.304675 3.619818,0.948528 6.787759,4.254741 7.532724,7.8615063 l 0.152842,0.739982 0.776387,0.08081 c 1.571264,0.163552 2.864181,1.132481 3.600651,2.69838 0.577295,1.227452 0.817695,2.542508 0.817695,4.473005 0,1.537456 -0.01386,1.62241 -0.313662,1.922208 -0.495857,0.495859 -1.100859,0.403178 -1.421999,-0.217836 -0.140454,-0.271609 -0.170658,-0.570783 -0.111326,-1.102661 0.109468,-0.981295 -0.135539,-3.04627 -0.466338,-3.930407 -0.458714,-1.22603 -1.323065,-1.974932 -2.279378,-1.974932 h -0.383905 l -0.03551,10.510572 -0.03551,10.510571 -0.357946,0.728917 c -1.063564,2.165825 -3.882793,2.667562 -5.560716,0.989639 -0.999083,-0.999083 -0.977449,-0.864136 -1.018186,-6.350874 l -0.03629,-4.887895 h -1.465218 -1.465218 v 4.641501 c 0,5.412321 -0.01158,5.482003 -1.08983,6.560258 -0.685858,0.685857 -1.550246,1.065899 -2.424343,1.065899 -1.182488,0 -2.581299,-0.867312 -3.168098,-1.964332 -0.27482,-0.513776 -0.283162,-0.655031 -0.319814,-5.415431 l -0.03763,-4.887895 h -1.585983 -1.585978 l -0.03763,4.887895 c -0.03665,4.7604 -0.045,4.901655 -0.319815,5.415431 -0.399519,0.746902 -1.355485,1.54509 -2.123756,1.773241 -0.792718,0.235413 -1.369002,0.230553 -2.179711,-0.01838 z M 10.890387,14.88964 c 0.121532,-0.121531 0.257844,-0.405352 0.302916,-0.630714 0.06889,-0.34444 0.02003,-0.471666 -0.306534,-0.798233 -0.560307,-0.560307 -1.3679645,-0.460473 -1.6719345,0.206667 -0.228507,0.50152 -0.167106,0.804953 0.246605,1.218663 0.326566,0.326565 0.453791,0.375422 0.7982325,0.306534 0.225361,-0.04507 0.509183,-0.181385 0.630715,-0.302917 z"
     style="fill:#003380;stroke-width:0.127788" /></svg>
