<?xml version="1.0" encoding="UTF-8" standalone="no"?>
<svg
   xmlns:dc="http://purl.org/dc/elements/1.1/"
   xmlns:cc="http://creativecommons.org/ns#"
   xmlns:rdf="http://www.w3.org/1999/02/22-rdf-syntax-ns#"
   xmlns:svg="http://www.w3.org/2000/svg"
   xmlns="http://www.w3.org/2000/svg"
   xmlns:sodipodi="http://sodipodi.sourceforge.net/DTD/sodipodi-0.dtd"
   xmlns:inkscape="http://www.inkscape.org/namespaces/inkscape"
   inkscape:version="1.0 (4035a4fb49, 2020-05-01)"
   height="223.75"
   width="317"
   sodipodi:docname="elefante_gris.svg"
   id="svg70"
   clip-rule="evenodd"
   fill-rule="evenodd"
   y="0px"
   x="0px"
   viewBox="0 0 317 223.75"
   style="image-rendering:optimizeQuality;shape-rendering:geometricPrecision;text-rendering:geometricPrecision"
   version="1.1"
   xml:space="preserve"><metadata
     id="metadata74"><rdf:RDF><cc:Work
         rdf:about=""><dc:format>image/svg+xml</dc:format><dc:type
           rdf:resource="http://purl.org/dc/dcmitype/StillImage" /></cc:Work></rdf:RDF></metadata><sodipodi:namedview
     inkscape:current-layer="svg70"
     inkscape:window-maximized="1"
     inkscape:window-y="-8"
     inkscape:window-x="-8"
     inkscape:cy="125.5545"
     inkscape:cx="12.262221"
     inkscape:zoom="1.2924925"
     showgrid="false"
     id="namedview72"
     inkscape:window-height="705"
     inkscape:window-width="1366"
     inkscape:pageshadow="2"
     inkscape:pageopacity="0"
     guidetolerance="10"
     gridtolerance="10"
     objecttolerance="10"
     borderopacity="1"
     bordercolor="#666666"
     pagecolor="#ffffff" /><defs
     id="defs60"><style
       id="style58"
       type="text/css">
   
    .fil0 {fill:black}
   
  </style></defs><g
     transform="translate(-8,-55)"
     id="g64"><path
       id="path62"
       d="M 70,210 C 39,199 8,157 8,124 8,88 34,58 65,58 c 15,0 27,5 36,14 -22,21 -33,53 -32,87 -12,20 -9,38 1,51 z m 48,-52 c 3,0 5,2 5,5 0,3 -2,6 -5,6 -3,0 -5,-3 -5,-6 0,-3 2,-5 5,-5 z m 97,0 c -3,0 -5,2 -5,5 0,3 2,6 5,6 3,0 6,-3 6,-6 0,-3 -3,-5 -6,-5 z M 167,55 c -67,0 -93,57 -90,106 -16,26 -8,52 30,65 -3,9 -18,16 -15,24 1,4 4,6 7,6 15,3 36,-9 41,-24 2,-10 -3,-25 -4,-38 0,-38 61,-38 61,0 -1,13 -5,28 -3,38 5,15 25,27 40,24 3,0 7,-2 8,-6 2,-8 -13,-15 -16,-24 38,-13 47,-39 31,-65 2,-49 -24,-106 -90,-106 z m -43,157 c 6,0 11,5 11,11 1,17 -23,29 -35,27 -11,-2 14,-11 14,-27 0,-6 5,-11 10,-11 z m 85,0 c -6,0 -11,5 -11,11 -1,17 24,29 35,27 11,-2 -14,-11 -13,-27 0,-6 -5,-11 -11,-11 z m -93,-59 c 7,0 12,5 12,11 0,7 -5,12 -12,12 -7,0 -12,-5 -12,-12 0,-6 5,-11 12,-11 z m 102,0 c -7,0 -13,5 -13,11 0,7 6,12 13,12 6,0 12,-5 12,-12 0,-6 -6,-11 -12,-11 z m -35,119 c 0,-5 -2,-6 -5,-9 8,-22 13,-60 13,-69 0,-30 -49,-30 -49,0 0,9 6,47 14,69 -4,3 -6,4 -6,9 0,9 33,9 33,0 z m 2,-66 c -11,-8 -26,-8 -36,0 9,-19 26,-19 36,0 z m -3,21 c -10,-8 -21,-8 -31,0 9,-18 22,-18 31,0 z m -4,19 c -8,-6 -14,-6 -23,0 8,-15 16,-15 23,0 z m -5,24 c 0,3 -12,3 -12,0 0,-3 12,-3 12,0 z m 90,-60 c 31,-11 62,-53 62,-86 0,-36 -25,-66 -57,-66 -14,0 -26,5 -36,14 22,21 34,53 32,87 12,20 10,38 -1,51 z"
       class="fil0" /></g><path
     id="path76"
     d="m 90.248864,200.58771 c -2.879971,-0.4999 -6.023957,-4.41656 -6.023957,-7.50443 0,-3.02955 1.130893,-4.74318 7.834093,-11.87091 2.88027,-3.06268 5.79305,-6.64407 6.47284,-7.95864 l 1.23598,-2.39012 -2.54899,-0.87652 C 89.79771,167.43519 79.213494,161.14448 73.738975,156.03188 60.533837,143.69974 58.22094,128.71239 66.783088,110.95841 69.347743,105.64049 69.402411,105.31159 69.805176,92.77649 70.69404,65.11277 79.514865,42.818449 96.54238,25.199161 106.90295,14.478517 119.08203,7.550428 135.23196,3.190524 142.02924,1.355501 143.94521,1.187386 158.5,1.148892 c 14.02717,-0.0371 16.66154,0.16112 22.7868,1.714554 33.78747,8.568869 56.35138,33.650061 64.62421,71.833844 1.52647,7.04549 3.28715,23.93026 3.03735,29.12786 -0.0693,1.44233 1.02046,4.934 2.58856,8.29381 3.61583,7.74725 4.71046,12.84698 4.29564,20.01274 -0.58166,10.04773 -6.2714,19.85305 -15.61745,26.91399 -4.46187,3.37096 -15.216,9.11035 -20.5631,10.97436 -2.41446,0.84169 -2.41711,0.84882 -1.19261,3.21673 0.67496,1.30525 4.15787,5.46557 7.73978,9.24516 6.70346,7.07343 8.07708,9.67526 6.88048,13.03269 -1.38435,3.88423 -4.36944,5.19169 -11.77034,5.15537 -4.46481,-0.0219 -8.01292,-0.50207 -10.58465,-1.43241 -9.09023,-3.28844 -18.31118,-10.86831 -22.54019,-18.52863 -1.95372,-3.53892 -2.19399,-4.72398 -2.14151,-10.56258 0.0325,-3.61705 0.86085,-12.30152 1.84076,-19.29882 1.96304,-14.0177 1.68554,-18.54527 -1.54575,-25.22023 -9.83359,-20.31348 -45.86594,-20.2648 -55.71239,0.0753 -3.37012,6.96173 -3.56862,11.69799 -1.10121,26.2739 2.8531,16.85423 2.94635,23.44816 0.40203,28.42743 -3.78134,7.40014 -13.7053,15.37595 -23.16633,18.6186 -4.33238,1.48487 -12.50863,2.25994 -16.511216,1.56519 z m 10.379066,-5.75336 c 10.05253,-2.06957 21.52233,-10.19322 24.77554,-17.54765 2.21137,-4.99917 2.55762,-10.79216 0.84206,-14.08819 -4.06763,-7.81499 -15.34703,-8.35912 -19.10297,-0.92155 -0.57401,1.13667 -1.28378,3.94504 -1.57726,6.24083 -0.76646,5.99579 -2.82132,9.44195 -10.18426,17.07982 -3.582665,3.71645 -6.51394,7.13954 -6.51394,7.60686 0,2.36824 4.88561,3.04531 11.76083,1.62988 z m 126.00843,0.0432 c 2.36776,-1.26719 1.81573,-2.55416 -3.18052,-7.4149 -7.48119,-7.27831 -10.0214,-11.50572 -10.84236,-18.04388 -1.07621,-8.57096 -4.71404,-12.42844 -11.71504,-12.42235 -12.49386,0.0108 -15.27239,14.9373 -4.87172,26.17126 7.92578,8.56079 24.58534,14.93398 30.60964,11.70987 z M 114.96372,119.35498 c 3.81466,-2.84806 5.1535,-5.39502 5.1973,-9.88715 0.0694,-7.12341 -4.53422,-11.65382 -11.79749,-11.60977 -8.47353,0.0514 -12.83287,4.34405 -12.33226,12.14363 0.32695,5.09385 1.93009,7.76419 6.01361,10.0168 3.42775,1.89087 9.94592,1.5561 12.91884,-0.66351 z m 100.51655,0.44607 c 8.3217,-4.02847 9.04499,-15.35742 1.2866,-20.15237 -5.4848,-3.38979 -14.53103,-1.73431 -18.12825,3.31751 -3.93945,5.53245 -1.7037,13.4639 4.70643,16.69633 4.29553,2.16611 7.86268,2.20683 12.13522,0.13853 z"
     style="fill:#808080;stroke-width:0.773699" /><path
     id="path78"
     d="m 150.52475,222.43721 c -8.55604,-1.83685 -10.52917,-6.91633 -4.68118,-12.05094 l 2.70885,-2.3784 -1.95714,-5.97129 c -5.92053,-18.0637 -12.60929,-54.41736 -11.91757,-64.77241 0.55212,-8.26518 4.89523,-14.33863 12.92359,-18.07247 6.19817,-2.88264 15.59923,-2.88264 21.7974,0 4.99759,2.32429 9.06386,6.10359 11.20067,10.41022 2.99651,6.03934 1.59434,24.17431 -3.97235,51.37624 -1.43686,7.02132 -3.62035,15.96884 -4.8522,19.88339 l -2.23971,7.11735 1.84559,1.73385 c 1.01508,0.95361 2.25651,3.10535 2.75874,4.78163 0.87728,2.92809 0.81974,3.13123 -1.46516,5.17279 -3.90352,3.48779 -13.3205,4.66549 -22.14953,2.77004 z m 14.16484,-6.25575 c 0.76843,-0.9259 0.76843,-1.3952 0,-2.3211 -1.38956,-1.67432 -10.26876,-1.61065 -11.67497,0.0837 -0.87738,1.05719 -0.81122,1.40619 0.43999,2.3211 2.04076,1.49224 9.97613,1.43311 11.23498,-0.0837 z M 151.53671,189.102 c 5.09095,-2.57978 10.0731,-2.57044 14.6177,0.0274 1.86949,1.06867 3.56557,1.77653 3.76907,1.57303 0.66652,-0.66652 -3.60131,-7.19397 -6.05178,-9.2559 -4.57915,-3.8531 -9.43808,-2.13296 -14.77125,5.22927 -2.09892,2.89747 -2.70061,4.36043 -1.79336,4.36043 0.22691,0 2.13024,-0.87042 4.22962,-1.93425 z m 2.80682,-22.14018 c 5.25313,-1.1756 10.93607,-0.0422 16.04993,3.20088 4.30856,2.7324 4.54587,1.78557 0.88478,-3.53017 -7.7392,-11.23698 -17.81728,-11.23698 -25.55648,0 -3.66109,5.31574 -3.42378,6.26257 0.88478,3.53017 1.96928,-1.24889 5.45093,-2.68928 7.73699,-3.20088 z m 4.54618,-21.18696 c 6.53795,0 7.46946,0.20374 12.61905,2.76 3.05801,1.518 5.56001,2.44216 5.56001,2.05368 0,-2.38092 -7.13846,-10.24191 -11.21863,-12.35413 -3.78352,-1.95865 -10.57175,-2.14378 -13.96671,-0.3809 -3.66782,1.90457 -11.1785,10.74488 -11.1785,13.15745 0,0.15615 2.50329,-0.9581 5.56287,-2.4761 5.15181,-2.55605 6.08449,-2.76 12.62191,-2.76 z"
     style="fill:#808080;stroke-width:0.773699" /><path
     id="path80"
     d="m 204.14823,112.11896 c -1.85065,-1.85066 -2.02131,-5.60515 -0.33158,-7.29488 2.67988,-2.67988 8.84227,-0.36548 8.84227,3.32088 0,0.79304 -0.91789,2.35978 -2.03975,3.48164 -2.43806,2.43806 -4.37765,2.58564 -6.47094,0.49236 z"
     style="fill:#808080;stroke-width:0.773699" /><path
     id="path82"
     d="m 107.69643,112.52386 c -3.86041,-2.70394 -2.45088,-8.91559 2.02311,-8.91559 2.87206,0 4.67962,1.81446 4.67962,4.69746 0,2.32103 -2.31526,5.36063 -4.08319,5.36063 -0.54361,0 -1.72241,-0.51413 -2.61954,-1.1425 z"
     style="fill:#808080;stroke-width:0.773699" /><path
     id="path84"
     d="M 53.560954,150.53203 C 35.924786,141.02522 19.796732,123.41831 9.515375,102.44772 3.30121,89.77287 1.4429793,83.23591 0.8853411,72.08864 0.3969159,62.32495 1.383446,54.47637 4.102811,46.49126 15.425124,13.244565 44.406191,-3.316876 74.51478,6.253829 c 4.763212,1.514095 15.86853,7.998203 17.093698,9.980564 0.251916,0.407606 -1.322545,2.738211 -3.498798,5.179121 C 76.009088,34.985678 67.347238,52.79093 63.307404,72.39693 c -0.862825,4.18744 -1.952872,13.18416 -2.422326,19.99271 -0.770588,11.17593 -1.071062,12.8135 -3.09132,16.84755 -6.409332,12.79811 -6.328674,29.88129 0.191209,40.49748 2.597055,4.22874 2.105814,4.31728 -4.424013,0.79736 z"
     style="fill:#808080;stroke-width:0.773699" /><path
     id="path86"
     d="m 257.66684,152.54473 c 0.14428,-0.31915 1.22069,-2.40229 2.39202,-4.6292 6.01533,-11.43624 5.71767,-25.53873 -0.81507,-38.61557 -2.07189,-4.14738 -2.30429,-5.44854 -2.74404,-15.36292 C 255.88142,79.99645 254.2666,70.5974 250.56838,59.41361 245.70002,44.691207 239.47961,33.577861 230.06582,22.783851 l -5.13189,-5.884312 1.79291,-1.541643 c 4.22556,-3.633368 13.50983,-8.42785 19.45476,-10.04662 30.69499,-8.358054 61.45326,13.304766 68.69261,48.379694 1.71818,8.32464 1.87609,20.37752 0.36002,27.48003 -5.77813,27.06955 -28.81609,57.68203 -52.45624,69.70302 -4.59851,2.33835 -5.5542,2.65073 -5.11115,1.67071 z"
     style="fill:#808080;stroke-width:0.773699" /></svg>
