<svg id="Capa_1" enable-background="new 0 0 512 512" height="512" viewBox="0 0 512 512" width="512" xmlns="http://www.w3.org/2000/svg"><g><path d="m512 256c0 141.385-114.615 256-256 256s-256-114.615-256-256 114.615-256 256-256 256 114.615 256 256z" fill="#72d1fb"/><path d="m474.56 256c0 120.707-97.853 218.56-218.56 218.56s-218.56-97.853-218.56-218.56 97.853-218.56 218.56-218.56 218.56 97.853 218.56 218.56z" fill="#93dcfc"/><path d="m379.008 181.836c0 55.283-44.816 100.099-100.099 100.099s-100.099-44.816-100.099-100.099 44.816-100.099 100.099-100.099 100.099 44.816 100.099 100.099z" fill="#fff5f5"/><path d="m510.634 282.603c-1.646 15.947-4.757 31.459-9.194 46.401-7.718 7.745-18.396 12.539-30.194 12.539-23.54 0-42.623-19.083-42.623-42.623s19.083-42.623 42.623-42.623c17.761 0 32.983 10.862 39.388 26.306zm-208.011-41.357c12.16 0 23.131-5.093 30.896-13.261 7.33 12.89 21.188 21.583 37.076 21.583 23.54 0 42.623-19.083 42.623-42.623s-19.083-42.623-42.623-42.623c-12.16 0-23.131 5.092-30.896 13.261-7.33-12.889-21.188-21.583-37.076-21.583-23.54 0-42.623 19.083-42.623 42.623s19.083 42.623 42.623 42.623z" fill="#69b482"/><path d="m378.8 235.266c6.906-4.682 15.239-7.417 24.21-7.417 23.858 0 43.198 19.34 43.198 43.198s-19.34 43.198-43.198 43.198c-18.684 0-34.596-11.861-40.62-28.464-6.906 4.682-15.239 7.417-24.21 7.417-23.858 0-43.198-19.34-43.198-43.198s19.34-43.198 43.198-43.198c18.684 0 34.596 11.861 40.62 28.464zm-205.494 193.437c-17.976 32.387 1.248 72.896 37.722 79.359 14.6 2.588 29.628 3.938 44.972 3.938 109.45 0 202.857-68.686 239.469-165.305-.802-23.864-20.96-42.822-45.272-41.671-22.278 1.055-40.292 19.31-41.071 41.6-.189 5.394.612 10.577 2.235 15.381-15.599 4.041-29.395 12.559-39.935 24.101-22.437-16.779-50.288-26.716-80.459-26.716-50.627.001-94.719 27.977-117.661 69.313z" fill="#b9e746"/><path d="m510.766 126.109-23.55 23.55c-6.296 6.296-9.834 14.836-9.834 23.74v89.485c0 46.356-37.579 83.935-83.935 83.935h-142.69v-75.542h117.51c18.542 0 33.574-15.032 33.574-33.574v-95.271c0-8.868 3.509-17.376 9.76-23.666l46.673-46.967c2.247-2.261 6.096-1.29 7.001 1.767l3.21 10.844c5.424 18.324 21.008 31.823 39.919 34.577 3.417.499 4.804 4.68 2.362 7.122z" fill="#607882"/><path d="m300 340v65c0 8.284-6.716 15-15 15h-135v-80z" fill="#495959"/><path d="m164.856 372.888c37.564-26.97 87.683-34.77 133.795-16.309 46.113 18.462 77.001 58.693 85.575 104.135-29.576-21.88-64.872-41.656-104.273-57.43-39.402-15.775-78.593-25.82-115.097-30.396z" fill="#fff36c"/><path d="m164.097 345.442c43.895-14.55 94.061-7.06 132.576 24.305s56.011 78.974 50.653 124.906c-21.712-29.7-49.511-59.096-82.421-85.895-32.91-26.8-67.327-48.069-100.808-63.316z" fill="#fff68e"/><path d="m170 380.72c30.986-34.327 78.308-52.584 127.288-44.327s87.702 41.019 105.722 83.607c-33.545-15.106-72.234-26.942-114.085-33.997s-82.281-8.556-118.925-5.283z" fill="#eac23f"/><path d="m220 349v160.488c-124.339-17.499-220-124.322-220-253.488 0-22.821 2.986-44.944 8.589-66h52.411c87.813 0 159 71.187 159 159z" fill="#607882"/><path d="m510.766 126.109-23.55 23.55c-6.296 6.296-9.833 14.836-9.833 23.74v89.485c0 46.356-37.579 83.935-83.935 83.935h-142.69v-22.33h119.602c4.65 0 9.178-.337 13.562-.991 8.58-1.28 11.916-11.884 5.612-17.842l-6.209-5.868c-3.807-3.598-5.826-8.663-.552-14.282 3.794-4.014 10.123-4.192 14.136-.398l17.314 16.365c4.091 3.867 10.543 3.799 14.5-.205.865-.875 1.708-1.772 2.529-2.689 5.255-5.873 2.257-15.243-5.419-17.03l-11.011-2.563c-5.363-1.249-8.986-6.515-7.836-11.9 1.172-5.486 6.608-8.921 12.048-7.655l18.341 4.27c6.111 1.423 12.074-2.856 12.701-9.1.01-.104.021-.207.031-.311.606-6.116-4.199-11.416-10.344-11.416h-16.67c-5.326 0-9.977-4.019-10.321-9.334-.377-5.824 4.235-10.666 9.978-10.666h19.975c4.57 0 8.275-3.705 8.275-8.275v-3.283c0-4.57-3.705-8.275-8.275-8.275h-19.633c-5.326 0-9.977-4.019-10.321-9.335-.377-5.824 4.235-10.665 9.978-10.665h19.975c4.57 0 8.275-3.705 8.275-8.275 0-3.911-2.738-7.287-6.564-8.096l-19.541-4.131c-5.5-1.163-10-6.713-10-12.335 0-5.621 4.5-9.27 10-8.107l20.36 4.304c3.758.794 7.607-1.083 9.199-4.579.079-.173.158-.345.239-.517 1.479-3.158.833-6.901-1.633-9.367l-15.15-15.15c-3.766-3.766-4.213-9.897-.698-13.898 3.852-4.385 10.537-4.547 14.598-.486l12.772 12.772c3.232 3.232 8.471 3.232 11.702 0l7.39-7.39c6.876 5.864 15.376 9.832 24.683 11.197 3.44.503 4.868 4.668 2.41 7.126z" fill="#495959"/><path d="m345.246 333.205h83.895c21.26 0 42.324-4.057 62.063-11.952l4.802-1.921c5.631-2.252 12.049.188 14.761 5.612 2.42 4.84 1.192 10.709-2.965 14.174-30.032 25.027-67.888 38.733-106.981 38.733h-55.576v-44.646z" fill="#e1ebf0"/><path d="m400.822 356.738h-55.576v-23.533h83.896c21.26 0 42.324-4.057 62.063-11.952l4.802-1.921c3.237-1.295 6.733-1.039 9.636.443-29.677 23.902-66.659 36.963-104.821 36.963z" fill="#fff5f5"/><path d="m390.073 310c1.5 0 2.716 1.216 2.716 2.716v62.284c0 8.284-6.716 15-15 15h-267.789v-260.3h71c87.813 0 159 71.187 159 159v21.3z" fill="#607882"/><path d="m357.5 390c0 4.142-3.357 7.5-7.5 7.5h-110c-26.191 0-47.5-21.309-47.5-47.5 0-4.142 3.357-7.5 7.5-7.5s7.5 3.358 7.5 7.5c0 17.92 14.579 32.5 32.5 32.5h110c4.143 0 7.5 3.358 7.5 7.5z" fill="#495959"/><path d="m240 210c11.046 0 20 8.954 20 20s-8.954 20-20 20-20-8.954-20-20 8.954-20 20-20z" fill="#3f4a4a"/><path d="m250 210c5.523 0 10 4.477 10 10s-4.477 10-10 10-10-4.477-10-10 4.477-10 10-10z" fill="#f5f0eb"/><path d="m164.688 278.165c3.353 35.345 2.266 70.97-4.867 105.75l-1.271 6.197c-7.289 35.541-27.881 66.505-56.371 84.765-19.252 12.339-42.768 1.392-47.521-22.121l-.16-.791c-3.617-17.895-14.933-33.073-30.581-42.478-14.297-8.593-23.862-24.254-23.862-42.148 0 0 .001-190.559.004-190.748-.85-23.785 7.734-47.62 23.873-64.792l24.628-26.206c21.852-23.252 53.414-29.952 79.772-16.934l64.38 31.798c8.595 4.245 14.861 12.685 17.086 23.016 1.158 5.377 1.173 11.046.042 16.56l-.233 1.138c-7.263 35.411-19.323 69.805-37.252 101.194-5.053 8.846-7.94 19.089-7.94 30.006-.001 1.954.092 3.887.273 5.794z" fill="#87a0af"/><path d="m106.667 471.848c-1.473 1.045-2.97 2.055-4.489 3.028-19.252 12.339-42.768 1.392-47.521-22.121l-.16-.791c-3.617-17.896-14.932-33.073-30.581-42.478-14.296-8.592-23.862-24.252-23.862-42.147 0 0 .001-190.559.004-190.748-.85-23.785 7.734-47.62 23.873-64.792l24.628-26.206c19.268-20.502 46.085-28.135 70.227-20.73-10.818 3.813-21.039 10.44-29.725 19.683l-24.628 26.206c-16.139 17.172-24.723 41.008-23.873 64.792-.002.189-.004 190.748-.004 190.748 0 17.895 9.565 33.556 23.862 42.148 15.649 9.405 26.964 24.582 30.581 42.478l.16.791c1.727 8.543 5.931 15.427 11.508 20.139z" fill="#738c96"/></g></svg>