<?xml version="1.0" encoding="UTF-8" standalone="no"?>
<svg
   xmlns:dc="http://purl.org/dc/elements/1.1/"
   xmlns:cc="http://creativecommons.org/ns#"
   xmlns:rdf="http://www.w3.org/1999/02/22-rdf-syntax-ns#"
   xmlns:svg="http://www.w3.org/2000/svg"
   xmlns="http://www.w3.org/2000/svg"
   xmlns:sodipodi="http://sodipodi.sourceforge.net/DTD/sodipodi-0.dtd"
   xmlns:inkscape="http://www.inkscape.org/namespaces/inkscape"
   inkscape:version="1.0 (4035a4fb49, 2020-05-01)"
   height="778.15845"
   width="634.961"
   sodipodi:docname="granero_azul.svg"
   id="svg1114"
   clip-rule="evenodd"
   fill-rule="evenodd"
   y="0px"
   x="0px"
   viewBox="0 0 634.96102 778.15848"
   style="image-rendering:optimizeQuality;shape-rendering:geometricPrecision;text-rendering:geometricPrecision"
   version="1.1"
   xml:space="preserve"><metadata
     id="metadata1118"><rdf:RDF><cc:Work
         rdf:about=""><dc:format>image/svg+xml</dc:format><dc:type
           rdf:resource="http://purl.org/dc/dcmitype/StillImage" /></cc:Work></rdf:RDF></metadata><sodipodi:namedview
     inkscape:current-layer="svg1114"
     inkscape:window-maximized="1"
     inkscape:window-y="-8"
     inkscape:window-x="-8"
     inkscape:cy="180.14581"
     inkscape:cx="317.47747"
     inkscape:zoom="0.50835048"
     showgrid="false"
     id="namedview1116"
     inkscape:window-height="705"
     inkscape:window-width="1366"
     inkscape:pageshadow="2"
     inkscape:pageopacity="0"
     guidetolerance="10"
     gridtolerance="10"
     objecttolerance="10"
     borderopacity="1"
     bordercolor="#666666"
     pagecolor="#ffffff" /><defs
     id="defs1104"><style
       id="style1102"
       type="text/css">
   
    .fil0 {fill:black}
   
  </style></defs><g
     transform="translate(-105.85251,-34.273184)"
     id="g1108"><path
       id="path1106"
       d="m 558.87,295.62 120.49,97.23 v 378.34 h 44.93 v 41.19 H 122.38 V 771.19 H 167.3 V 392.85 L 287.8,295.62 Z M 443.91,495.51 V 771.19 H 592.29 V 495.51 Z M 402.72,771.19 V 495.51 H 254.38 v 275.68 z m 184.27,-541.79 -3.78,18.26 c 49.93,40.22 99.89,80.55 149.77,120.83 21.04,16.86 -4.68,48.85 -25.71,32 C 657.8,360.58 607.64,320.7 558.87,281.29 H 287.8 c -49.32,39.94 -99,79.46 -148.4,119.2 -21.03,16.85 -46.75,-15.14 -25.72,-32 L 262.76,248.15 258.81,230.1 423.3,97.29 Z m -359.43,9.84 C 206.55,256.1 180.81,224.1 201.84,207.23 271.41,151.12 340.93,94.96 410.43,38.79 c 7.81,-6.27 18.87,-5.89 26.23,0.38 l 208.17,168.06 c 21.03,16.87 -4.71,48.87 -25.72,32.01 L 423.3,81.18 Z"
       class="fil0" /></g><path
     id="path1120"
     d="m 18.471166,758.48696 v -19.67147 h 21.63861 21.63862 V 549.38843 359.96135 l 60.233214,-48.59769 60.23321,-48.59768 h 135.31003 135.31003 l 60.18584,48.50776 60.18583,48.50776 v 189.51699 189.517 h 21.63862 21.63861 v 19.67147 19.67147 H 317.47748 18.471166 Z M 297.80601,599.14807 V 459.48065 h -74.75158 -74.75157 v 139.66742 139.66742 h 74.75157 74.75158 z m 188.84609,0 V 459.48065 h -74.75158 -74.75158 v 139.66742 139.66742 h 74.75158 74.75158 z"
     style="fill:#0044aa;stroke-width:1.96715" /><path
     id="path1122"
     d="m 8.0548459,363.51108 c -6.96598,-7.27091 -8.42697998,-15.64183 -3.91866,-22.45231 1.93362,-2.92101 37.1538801,-32.43356 78.2672501,-65.58345 46.378284,-37.39499 74.689214,-61.51243 74.587274,-63.53919 -0.0904,-1.79668 -0.79171,-5.9938 -1.55853,-9.32694 -1.38424,-6.01689 -0.82032,-6.52373 78.79191,-70.81729 44.10237,-35.616364 81.24312,-65.028644 82.53498,-65.360634 1.29187,-0.33198 38.05456,28.24701 81.69486,63.508864 l 79.34601,64.11246 v 10.54956 10.54955 l 74.75157,60.2542 c 41.11337,33.13983 76.33364,62.66387 78.26726,65.60903 7.35855,11.20795 -2.58943,27.97697 -16.59693,27.97697 -6.36748,0 -10.31491,-2.3275 -27.66381,-16.3114 -11.13008,-8.97129 -45.22635,-36.41299 -75.76951,-60.98155 L 455.25551,247.02881 H 317.71214 180.16877 l -76.00046,60.98154 c -69.570974,55.82263 -76.629124,60.98155 -83.431494,60.98155 -5.56209,0 -8.75165,-1.37844 -12.6819701,-5.48082 z"
     style="fill:#0044aa;stroke-width:1.96715" /><path
     id="path1124"
     d="m 96.540266,202.93566 c -5.84686,-5.41868 -8.23186,-12.71578 -6.46151,-19.76944 0.85351,-3.40063 33.658334,-31.03053 109.871364,-92.539264 59.75999,-48.230088 110.65092,-88.1921325 113.09095,-88.8045395 2.44003,-0.612408 6.49841,-0.595938 9.01864,0.0366 7.34027,1.842289 220.37648,174.8483135 222.41401,180.6217035 4.15849,11.78312 -5.71185,25.20515 -18.53544,25.20515 -6.74509,0 -15.49671,-6.57865 -106.20084,-79.83178 C 365.36995,83.946606 319.87128,47.632358 318.62928,47.155764 317.3873,46.67917 271.38102,82.603466 216.3931,126.98755 c -91.87341,74.15659 -100.57585,80.69832 -107.35265,80.69832 -5.07036,0 -8.97614,-1.48423 -12.500184,-4.75021 z"
     style="fill:#0044aa;stroke-width:1.96715" /></svg>
