<?xml version="1.0" encoding="UTF-8" standalone="no"?>
<svg
   xmlns:dc="http://purl.org/dc/elements/1.1/"
   xmlns:cc="http://creativecommons.org/ns#"
   xmlns:rdf="http://www.w3.org/1999/02/22-rdf-syntax-ns#"
   xmlns:svg="http://www.w3.org/2000/svg"
   xmlns="http://www.w3.org/2000/svg"
   xmlns:sodipodi="http://sodipodi.sourceforge.net/DTD/sodipodi-0.dtd"
   xmlns:inkscape="http://www.inkscape.org/namespaces/inkscape"
   inkscape:version="1.0 (4035a4fb49, 2020-05-01)"
   height="46.18716"
   width="46.076679"
   sodipodi:docname="guitarra_cafe.svg"
   id="svg136"
   version="1.1"
   y="0px"
   x="0px"
   viewBox="0 0 46.076678 46.18716"
   data-name="Layer 1">
  <metadata
     id="metadata142">
    <rdf:RDF>
      <cc:Work
         rdf:about="">
        <dc:format>image/svg+xml</dc:format>
        <dc:type
           rdf:resource="http://purl.org/dc/dcmitype/StillImage" />
      </cc:Work>
    </rdf:RDF>
  </metadata>
  <defs
     id="defs140" />
  <sodipodi:namedview
     inkscape:current-layer="svg136"
     inkscape:window-maximized="1"
     inkscape:window-y="-8"
     inkscape:window-x="-8"
     inkscape:cy="24.56281"
     inkscape:cx="23.004068"
     inkscape:zoom="9.3261105"
     showgrid="false"
     id="namedview138"
     inkscape:window-height="705"
     inkscape:window-width="1366"
     inkscape:pageshadow="2"
     inkscape:pageopacity="0"
     guidetolerance="10"
     gridtolerance="10"
     objecttolerance="10"
     borderopacity="1"
     bordercolor="#666666"
     pagecolor="#ffffff" />
  <title
     id="title116">guitar</title>
  <circle
     id="circle118"
     transform="rotate(-45)"
     r="0.64999998"
     cy="29.078165"
     cx="24.42054" />
  <circle
     id="circle120"
     transform="rotate(-45)"
     r="0.64999998"
     cy="29.07337"
     cx="26.291971" />
  <circle
     id="circle122"
     transform="rotate(-45)"
     r="0.64999998"
     cy="29.075651"
     cx="28.156406" />
  <circle
     id="circle124"
     transform="rotate(-45)"
     r="0.64999998"
     cy="36.088772"
     cx="24.430731" />
  <circle
     id="circle126"
     transform="rotate(-45)"
     r="0.64999998"
     cy="36.091057"
     cx="26.285156" />
  <circle
     id="circle128"
     transform="rotate(-45)"
     r="0.64999998"
     cy="36.093361"
     cx="28.14971" />
  <path
     id="path130"
     d="m 21.679068,36.748094 a 3.38,3.38 0 0 1 2.49,-3.43 6.22,6.22 0 0 0 2.75,-1.59 c 2.48,-2.48 2.43,-6.69 0.08,-10 l 13.4,-13.4000002 a 2.45,2.45 0 0 0 1.67,-0.71 l 2.17,-2.17 a 2.46,2.46 0 0 0 0,-3.48 l -0.05,-0.05 a 2.46,2.46 0 0 0 -3.48,0 l -2.17,2.17 a 2.44,2.44 0 0 0 -0.7,1.57 l -13.45,13.4500002 c -3.34,-2.34 -7.54,-2.4 -10,0.08 a 6.22,6.22 0 0 0 -1.59,2.76 3.4,3.4 0 0 1 -3.4700003,2.49 v 0 a 8.87,8.87 0 0 0 -6.85,2.46 c -3.82,3.82 -3.15000001,10.68 1.49,15.32 4.64,4.64 11.5000003,5.31 15.3200003,1.49 a 8.88,8.88 0 0 0 2.39,-6.96 z m 21.59,-33.1800002 a 0.50204581,0.50204581 0 1 1 0.71,0.71 l -2.34,2.34 a 0.50204581,0.50204581 0 1 1 -0.71,-0.71 z m -1.41,-1.41 a 0.50204581,0.50204581 0 1 1 0.71,0.71 l -2.34,2.34 a 0.50204581,0.50204581 0 1 1 -0.71,-0.71 z m -28.33,30.3900002 a 3.62,3.62 0 1 1 5.11,0 3.62,3.62 0 0 1 -5.11,0 z" />
  <path
     id="path144"
     d="M 11.691743,46.052152 C 8.6808538,45.642068 5.9767157,44.208296 3.7222628,41.826623 -1.557405,36.249018 -1.0181459,28.171035 4.8209568,25.36843 c 1.2771049,-0.612974 1.9389517,-0.758308 3.8684625,-0.849472 1.3753597,-0.06498 1.8139127,-0.124755 2.2112547,-0.301391 0.963881,-0.42849 1.649567,-1.256596 2.022542,-2.442628 0.584281,-1.857977 2.152166,-3.45536 3.961246,-4.035775 0.954969,-0.306387 2.787867,-0.384978 3.828734,-0.16417 0.964713,0.204653 2.027406,0.623162 2.974771,1.171524 l 0.73751,0.426893 6.741492,-6.740856 c 4.27749,-4.2770855 6.741491,-6.8167761 6.741491,-6.948577 0,-0.4979033 0.498966,-1.1644431 1.90416,-2.5436595 1.254294,-1.2311036 1.549132,-1.4670724 1.982252,-1.5864582 1.607591,-0.44311897 3.219693,0.9021643 3.060156,2.5536706 -0.07876,0.8153057 -0.349208,1.2083292 -1.84005,2.6740095 -1.312466,1.2903148 -1.470186,1.4111981 -2.057677,1.5770896 l -0.63626,0.1796624 -6.674808,6.6643886 c -3.671145,3.665414 -6.674808,6.695791 -6.674808,6.734171 0,0.03838 0.185483,0.376286 0.412184,0.750903 1.952956,3.227188 1.687803,7.060978 -0.640244,9.25714 -0.759496,0.71647 -1.527997,1.168281 -2.559812,1.504945 -1.091502,0.356139 -1.849003,1.009489 -2.291572,1.976493 -0.187811,0.410366 -0.228194,0.737592 -0.253946,2.05771 -0.04615,2.365906 -0.559307,3.99277 -1.777338,5.634722 -1.686929,2.274049 -5.038763,3.559719 -8.168954,3.133387 z m 6.035115,-12.788714 c 1.089095,-0.558817 1.73812,-1.456245 1.975223,-2.731206 0.219675,-1.18124 -0.334377,-2.639087 -1.293975,-3.404768 -1.640999,-1.309383 -4.148795,-0.958665 -5.313694,0.743127 -1.437603,2.100185 -0.476315,4.854481 1.974945,5.658637 0.147435,0.04837 0.678203,0.07376 1.179484,0.05644 0.740601,-0.0256 1.017611,-0.08599 1.478017,-0.322226 z M 42.812494,5.5050269 C 44.148771,4.1719579 44.338358,3.8538495 43.998888,3.5143787 43.672586,3.188077 43.356047,3.373056 42.074167,4.6391473 c -0.697989,0.6893918 -1.297545,1.3431514 -1.332345,1.4527989 -0.08825,0.2780442 0.231319,0.7249882 0.518369,0.7249882 0.160251,0 0.663997,-0.4257337 1.552303,-1.3119075 z M 41.418558,4.1110911 c 1.336277,-1.333069 1.525864,-1.6511774 1.186394,-1.9906483 -0.33642,-0.3364201 -0.653258,-0.1477935 -1.987491,1.1832364 -0.777455,0.7755885 -1.315065,1.3967834 -1.315065,1.5195251 0,0.2823301 0.305932,0.5997942 0.578006,0.5997942 0.142159,0 0.700164,-0.4759282 1.538156,-1.3119074 z"
     style="fill:#784421;stroke-width:0.107226" />
  <path
     id="path146"
     d="m 42.374951,8.6045241 c -0.0976,-0.1078485 -0.177458,-0.2767292 -0.177458,-0.3752904 0,-0.222843 0.373629,-0.6081055 0.589743,-0.6081055 0.227776,0 0.589742,0.3901704 0.589742,0.635696 0,0.4901342 -0.664465,0.7207014 -1.002027,0.3476999 z"
     style="fill:#784421;stroke-width:0.107226" />
  <path
     id="path148"
     d=""
     style="fill:#784421;stroke-width:0.107226" />
  <path
     id="path150"
     d="m 45.055597,6.031104 c -0.243339,-0.2688865 -0.22735,-0.7346973 0.02995,-0.8723974 0.339488,-0.1816887 0.634646,-0.1275026 0.816392,0.1498758 0.140296,0.214119 0.147471,0.3054025 0.04003,0.5093227 C 45.702259,6.2728807 45.35089,6.3573957 45.0556,6.031104 Z"
     style="fill:#784421;stroke-width:0.107226" />
  <path
     id="path152"
     d="m 43.632304,7.2414454 c -0.227756,-0.3476 -0.06676,-0.7623062 0.33509,-0.8631648 C 44.507457,6.2427335 44.892435,6.94816 44.49519,7.3454046 44.238287,7.602308 43.837079,7.553971 43.632304,7.2414454 Z"
     style="fill:#784421;stroke-width:0.107226" />
  <path
     id="path154"
     d="m 37.433603,3.6997261 c -0.397245,-0.3972446 -0.01227,-1.1026711 0.527796,-0.9671239 0.151817,0.038104 0.329487,0.1866009 0.394821,0.3299936 0.254176,0.5578564 -0.488809,1.0709386 -0.922617,0.6371303 z"
     style="fill:#784421;stroke-width:0.107226" />
  <path
     id="path156"
     d="m 38.766267,2.3670622 c -0.267116,-0.2671159 -0.27386,-0.556354 -0.01836,-0.7875751 0.25725,-0.2328081 0.585252,-0.2252257 0.805939,0.018631 0.247111,0.2730543 0.22134,0.6188214 -0.06085,0.8164771 -0.314956,0.2206035 -0.468638,0.2105516 -0.726722,-0.047533 z"
     style="fill:#784421;stroke-width:0.107226" />
  <path
     id="path158"
     d="m 40.235461,1.1718191 c -0.463625,-0.25945708 -0.442332,-0.80266223 0.04162,-1.06166276 0.322248,-0.17246181 0.740933,0.12738863 0.740933,0.53063514 0,0.43535812 -0.430947,0.72779362 -0.782548,0.53102762 z"
     style="fill:#784421;stroke-width:0.107226" />
</svg>
