<svg id="Capa_1" enable-background="new 0 0 512 512" height="512" viewBox="0 0 512 512" width="512" xmlns="http://www.w3.org/2000/svg"><g><path d="m466 0h-30c-53.408 0-98.262 39.961-104.312 92.974l92.505 85.8c33.443-8.35 56.807-38.277 56.807-72.774v-91c0-8.291-6.709-15-15-15z" fill="#ff9100"/><g><path d="m362.67 89.136 61.553 58.041c16.084-7.09 26.777-23.086 26.777-41.177v-76h-15c-35.669 0-66.006 24.946-73.33 59.136z" fill="#5a344b"/></g><path d="m76 0h-30c-8.291 0-15 6.709-15 15v91c0 32.344 20.61 60.938 51.27 71.162l98.73-71.543c-.205-57.685-47.314-105.619-105-105.619z" fill="#fabe2c"/><g><path d="m61 30v76c0 16.934 9.419 32.153 24.038 39.829l65.566-48.52c-3.867-37.734-35.903-67.309-74.604-67.309z" fill="#704c55"/></g><path d="m256 391h-105v45c0 41.353 33.647 76 75 76h30 30c41.353 0 75-34.647 75-76v-45z" fill="#ffe5b3"/><path d="m361 436v-45h-105v121h30c41.353 0 75-34.647 75-76z" fill="#fc9"/><path d="m336.01 43.667c-26.938-9.565-57.012-4.922-80.01 11.689-22.998-16.597-53.071-21.27-80.01-11.689-86.719 30.791-144.99 110.687-144.99 197.333 0 98.643 71.851 182.827 174.741 204.741l50.259-29.678 50.259 29.678c102.89-21.914 174.741-106.098 174.741-204.741 0-86.646-58.271-166.542-144.99-197.333z" fill="#ffe470"/><path d="m481 241c0-86.646-58.271-166.542-144.99-197.333-26.938-9.565-57.012-4.922-80.01 11.689v360.707l50.259 29.678c102.89-21.914 174.741-106.098 174.741-204.741z" fill="#fabe2c"/><path d="m391 196c0-8.291-6.709-15-15-15h-30c-41.353 0-75 33.647-75 75 0 31.245 17.476 55.195 32.886 76.333 13.052 17.9 25.386 34.805 26.938 54.36 1.304 16.201-7.822 29.941-22.192 33.384-17.681 4.307-31.494-6.431-35.962-19.146-2.465-7.011-9.571-10.724-16.631-9.531-.013-.002-.026.002-.038 0-7.092-1.254-14.2 2.492-16.67 9.531-4.468 12.759-18.325 23.525-35.962 19.146-14.37-3.442-23.496-17.183-22.192-33.384 1.553-19.556 13.887-36.46 26.938-54.36 15.409-21.138 32.885-45.088 32.885-76.333 0-41.353-33.647-75-75-75h-30c-8.291 0-15 6.709-15 15 0 41.353 33.647 74.99 75 74.99h12.876c-4.277 15.249-14.414 29.16-24.99 43.662-14.941 20.479-30.381 41.66-32.622 69.639-2.461 30.762 16.494 58.096 45.103 64.966 22.725 5.44 44.978-2.408 59.634-19.233 14.628 16.794 36.872 24.683 59.634 19.233 28.608-6.87 47.563-34.204 45.103-64.966-2.241-27.979-17.681-49.16-32.622-69.639-10.576-14.502-20.713-28.403-24.99-43.652h12.874c41.353 0 75-33.647 75-75z" fill="#fabe2c"/><path d="m315.634 449.257c28.608-6.87 47.563-34.204 45.103-64.966-2.241-27.979-17.681-49.16-32.622-69.639-10.576-14.502-20.713-28.403-24.99-43.652h12.875c41.353 0 75-33.647 75-75 0-8.291-6.709-15-15-15h-30c-41.353 0-75 33.647-75 75 0 31.245 17.476 55.195 32.886 76.333 13.052 17.9 25.386 34.805 26.938 54.36 1.304 16.201-7.822 29.941-22.192 33.384-17.681 4.307-31.494-6.431-35.962-19.146-2.465-7.011-9.571-10.724-16.631-9.531-.013-.002-.026.002-.038 0v38.622c14.627 16.796 36.871 24.684 59.633 19.235z" fill="#ff9100"/><g fill="#704c55"><circle cx="196" cy="136" r="15"/><circle cx="136" cy="316" r="15"/><circle cx="106" cy="256" r="15"/></g><circle cx="316" cy="136" fill="#5a344b" r="15"/><circle cx="376" cy="316" fill="#5a344b" r="15"/><circle cx="406" cy="256" fill="#5a344b" r="15"/><path d="m196 241c-19.556 0-36.24-12.539-42.437-30h12.437c19.556 0 36.24 12.539 42.437 30z" fill="#704c55"/><path d="m346 211h12.437c-6.196 17.461-22.881 30-42.437 30h-12.437c6.197-17.461 22.881-30 42.437-30z" fill="#5a344b"/><circle cx="256" cy="166" fill="#704c55" r="15"/><path d="m271 166c0-8.286-6.716-15-15-15v30c8.284 0 15-6.716 15-15z" fill="#5a344b"/><path d="m271 346h-15-15c-20.087 1.304-30 12.889-30 30 0 24.814 20.186 45 45 45s45-20.186 45-45c0-17.258-9.467-28.792-30-30z" fill="#704c55"/><path d="m301 376c0-17.258-9.467-28.792-30-30h-15v75c24.814 0 45-20.186 45-45z" fill="#5a344b"/></g></svg>