<?xml version="1.0" encoding="UTF-8" standalone="no"?>
<svg
   xmlns:dc="http://purl.org/dc/elements/1.1/"
   xmlns:cc="http://creativecommons.org/ns#"
   xmlns:rdf="http://www.w3.org/1999/02/22-rdf-syntax-ns#"
   xmlns:svg="http://www.w3.org/2000/svg"
   xmlns="http://www.w3.org/2000/svg"
   xmlns:sodipodi="http://sodipodi.sourceforge.net/DTD/sodipodi-0.dtd"
   xmlns:inkscape="http://www.inkscape.org/namespaces/inkscape"
   inkscape:version="1.0 (4035a4fb49, 2020-05-01)"
   height="90"
   width="90"
   sodipodi:docname="llave_gris.svg"
   id="svg796"
   y="0px"
   x="0px"
   version="1.1"
   viewBox="0 0 90 90">
  <metadata
     id="metadata802">
    <rdf:RDF>
      <cc:Work
         rdf:about="">
        <dc:format>image/svg+xml</dc:format>
        <dc:type
           rdf:resource="http://purl.org/dc/dcmitype/StillImage" />
      </cc:Work>
    </rdf:RDF>
  </metadata>
  <defs
     id="defs800" />
  <sodipodi:namedview
     inkscape:current-layer="svg796"
     inkscape:window-maximized="1"
     inkscape:window-y="-8"
     inkscape:window-x="-8"
     inkscape:cy="51"
     inkscape:cx="43"
     inkscape:zoom="5.9777778"
     showgrid="false"
     id="namedview798"
     inkscape:window-height="705"
     inkscape:window-width="1366"
     inkscape:pageshadow="2"
     inkscape:pageopacity="0"
     guidetolerance="10"
     gridtolerance="10"
     objecttolerance="10"
     borderopacity="1"
     bordercolor="#666666"
     pagecolor="#ffffff" />
  <title
     id="title780">Group</title>
  <desc
     id="desc782">Created with Sketch.</desc>
  <g
     transform="translate(7,6)"
     id="g790"
     fill-rule="evenodd"
     fill="none"
     stroke-width="1"
     stroke="none">
    <g
       id="g788"
       transform="translate(-9,-9)">
      <rect
         id="rect784"
         height="90"
         width="90"
         y="3"
         x="2" />
      <path
         id="path786"
         transform="rotate(-45,47.5,48)"
         fill="#000000"
         d="m 39.76,82.609049 v 2.508325 c 0,0.935512 0.572226,2.213924 1.278104,2.837986 l 5.183792,4.582962 c 0.708963,0.62679 1.85033,0.624062 2.556208,0 L 53.961896,87.95536 C 54.670859,87.32857 55.24,86.060689 55.24,85.117374 V 44.340481 C 63.289703,41.249986 69,33.480266 69,24.38403 69,12.573956 59.374122,3 47.5,3 35.625878,3 26,12.573956 26,24.38403 c 0,9.096236 5.710297,16.865956 13.76,19.956451 v 14.286313 l -4.794169,4.794169 c -0.672683,0.672683 -0.665013,1.753848 0.0066,2.42542 l 4.771539,4.771539 -4.778098,4.778097 c -0.672683,0.672683 -0.665013,1.753848 0.0066,2.425421 z M 47.5,18.396501 c 2.374824,0 4.3,-1.914791 4.3,-4.276806 0,-2.362014 -1.925176,-4.2768055 -4.3,-4.2768055 -2.374824,0 -4.3,1.9147915 -4.3,4.2768055 0,2.362015 1.925176,4.276806 4.3,4.276806 z" />
    </g>
  </g>
  <path
     id="path804"
     d="M 67.681996,77.426456 C 67.139961,77.21485 66.472338,76.725175 65.754007,76.012348 l -1.098834,-1.090415 h -3.472364 c -5.296509,0 -5.134482,0.157826 -5.134482,-5.001384 V 66.408125 L 52.26961,66.357405 48.490892,66.306685 48.087454,65.83732 C 47.687269,65.371747 47.684015,65.338 47.684015,61.654141 v -3.713819 l -5.073757,-5.07171 -5.073755,-5.07171 -1.664008,0.579202 c -2.747006,0.956171 -4.155128,1.189624 -7.175469,1.189624 -3.842694,0 -6.361606,-0.596178 -9.681735,-2.29148 C 11.36789,43.369382 6.8119231,35.165316 7.552769,26.63334 8.3643576,17.286652 14.844305,9.8223104 24.180297,7.4798569 c 1.973177,-0.4950812 5.86977,-0.6071735 8.135321,-0.2340267 7.407012,1.2199692 13.637148,6.2480088 16.354124,13.1986158 1.01008,2.583999 1.408892,4.733067 1.417298,7.637338 0.0081,2.806329 -0.272936,4.527419 -1.172245,7.178365 l -0.590808,1.741562 14.552485,14.568847 c 8.003865,8.012866 14.684547,14.832323 14.845958,15.154349 0.161409,0.322026 0.348732,0.829492 0.41627,1.127703 0.171248,0.756134 -0.298455,7.852996 -0.554221,8.373865 -0.466468,0.949965 -0.777267,1.034794 -4.732501,1.291669 -4.505107,0.292585 -4.170446,0.29852 -5.169982,-0.09169 z M 23.535,24.934182 c 1.516725,-0.774497 2.54769,-2.705547 2.34739,-4.396777 -0.247055,-2.085982 -1.866786,-3.637697 -3.962296,-3.795909 -1.853583,-0.139946 -3.379644,0.688137 -4.214989,2.28717 -1.203511,2.303785 -0.108777,5.233779 2.286813,6.120524 0.929707,0.344136 2.652867,0.239569 3.543082,-0.215008 z"
     style="fill:#666666;stroke-width:0.167286" />
</svg>
