<svg id="Capa_1" enable-background="new 0 0 512 512" height="512" viewBox="0 0 512 512" width="512" xmlns="http://www.w3.org/2000/svg"><g><g><path d="m133.38 376.132-19.566 81.807c29.086 7.542 60.883-4.28 77.453-31.206l59.966-97.441-60.446-37.202z" fill="#f9f097"/><path d="m149.083 307.2-108.547 176.377c-3.22 5.232-1.589 12.083 3.643 15.303 17.8 10.955 41.111 5.405 52.066-12.395l94.542-153.619z" fill="#64d1e1"/><path d="m394.912 237.527c20.183-5.845 46.388-21.99 46.388-66.45l-46.418-31.187-31.003 51.854z" fill="#f9d888"/><path d="m394.912 172.071c26.22 2.354 44.956 8.545 57.721 14.755 10.757 5.233 23.249-3.032 22.692-14.982-1.791-38.474-14.096-75.742-90.006-79.582z" fill="#5c586f"/><path d="m134.133 375.029c16.437 19.498 37.302 35.143 61.035 45.365l56.065-91.102-60.446-37.202z" fill="#f9d888"/><path d="m326.23 387.116c-10.313 0-24.994 3.232-30.933 10.736-4.375 5.527-1.494 14.095-1.494 21.691v7.829c0 8.608 6.978 15.586 15.586 15.586h48.441c6.694 0 12.121-5.427 12.121-12.121 0-24.146-19.574-43.721-43.721-43.721z" fill="#4f4c5f"/><path d="m383.227 323.95c-6.763 15.122-16.232 28.772-27.787 40.326-24.395 24.395-58.094 39.476-95.308 39.476-74.43 0-134.774-60.344-134.774-134.784v-126.694c0-74.43 60.344-134.774 134.774-134.774 56.766 0 105.328 35.089 125.19 84.76z" fill="#ff748f"/><path d="m170.426 212.761c0-89.527 47.305-166.791 115.702-202.755-8.412-1.644-17.103-2.506-25.996-2.506-74.43 0-134.774 60.344-134.774 134.774v126.694c0 74.44 60.344 134.785 134.774 134.785 2.1 0 4.187-.055 6.264-.15-57.594-39.526-95.97-110.208-95.97-190.842z" fill="#fd5f7e"/><path d="m394.916 142.274v126.694c0 19.582-4.18 38.19-11.689 54.982-28.191-20.174-35.472-45.834-49.112-87.529-7.613-23.254-25.764-42.536-43.894-56.911-15.143-12.011-23.119-29.871-23.119-48.002 0-11.637 3.298-23.399 10.092-33.782 17.591-26.853 52.876-35.68 81.036-20.277l27.092 14.811c6.192 15.465 9.594 32.34 9.594 50.014z" fill="#fffcdc"/><g><g><g><ellipse cx="326.093" cy="148.471" fill="#ff9db0" rx="29.995" ry="23.887"/></g></g></g><path d="m89.974 403.245c15.265 4.606 31.291 6.994 47.685 6.994 1.862 0 3.718-.037 5.571-.098l47.557-77.275-41.704-25.666z" fill="#00c8de"/><path d="m215.636 355.294c-23.244 16.626-50.605 24.945-77.977 24.945-34.373 0-68.746-13.121-94.966-39.341-8.049-8.059-8.049-21.117 0-29.176l11.057-11.057z" fill="#64d1e1"/><path d="m267.102 301.754c-3.495 6.534-8.007 12.664-13.515 18.182l-20.972 20.962c-5.342 5.342-11.025 10.144-16.979 14.396-8.92 1.037-17.466 1.504-25.619 1.504-31.935 0-57.865-7.177-77.043-15.351-32.485-13.836-52.306-33.222-59.224-40.783l27.922-27.911z" fill="#f9f097"/><path d="m182.255 288.484-100.584-15.73-27.921 27.911c6.918 7.561 26.739 26.946 59.224 40.783 19.178 8.173 45.108 15.351 77.043 15.351 8.152 0 16.699-.467 25.619-1.504.192-.137.377-.286.568-.424-14.511-19.626-26.072-42.032-33.949-66.387z" fill="#f9d888"/><path d="m267.102 301.754c-122.545 47.825-185.431-29-185.431-29l62.367-62.367c30.255-30.255 79.294-30.255 109.549 0 24.737 24.737 29.239 62.045 13.515 91.367z" fill="#ff9db0"/><path d="m266.607 387.116c-17.909 0-32.427 14.518-32.427 32.427v7.829c0 8.608 6.978 15.586 15.586 15.586h48.441c6.694 0 12.121-5.427 12.121-12.121 0-24.146-19.574-43.721-43.721-43.721z" fill="#5c586f"/><path d="m170.426 212.761c0-6.737.284-13.399.808-19.985-9.911 3.77-19.211 9.626-27.196 17.611l-62.367 62.367s37.868 46.236 112.076 44.627c-14.882-31.236-23.321-66.833-23.321-104.62z" fill="#ff748f"/></g><g><path d="m343.567 100.703c-21.652 0-28.553 29.278-14.277 29.278 4.142 0 7.5-3.358 7.5-7.5 0-3.737 3.04-6.777 6.777-6.777s6.777 3.04 6.777 6.777c0 4.142 3.358 7.5 7.5 7.5 14.24 0 7.39-29.278-14.277-29.278z"/><path d="m94.751 381.164-60.615 98.492c-2.607 4.236-3.409 9.235-2.257 14.074 4.988 20.947 50.999 28.778 70.742-3.304l14.783-24.02c30.372 5.515 62.746-7.304 80.241-35.733l16.624-27.012c4.656 1.587 9.394 2.941 14.199 4.038-2.565 8.234-1.572 14.005-1.796 19.683 0 12.73 10.357 23.086 23.086 23.086 49.916-.267 49.044.598 53.82-.768 5.217 1.36 4.087.504 54.246.768 10.819 0 19.621-8.802 19.621-19.621 0-21.634-13.488-40.164-32.491-47.66 19.759-14.678 35.178-33.951 45.113-56.168 16.827-37.63 11.248-66.732 12.342-84.047 23.468-8.529 38.84-26.205 44.208-50.677 3.554 1.613 6.938 3.645 12.904 3.645 12.712 0 23.935-10.626 23.292-24.44-2.467-53-27.545-81.848-92.392-86.433-22.29-50.761-72.761-85.067-130.297-85.067-29.859 0-58.443 9.154-82.662 26.47-3.369 2.409-4.148 7.094-1.739 10.464 2.41 3.37 7.094 4.148 10.464 1.739 21.658-15.487 47.225-23.673 73.937-23.673 45.601 0 85.191 23.951 107.473 59.026-2.849-1.013-24.255-17.42-55.676-9.559-31.054 7.77-52.327 35.653-52.327 67.043 0 21.371 9.733 41.008 25.96 53.88 21.468 17.022 35.406 34.978 41.426 53.367 10.696 34.366 19.926 65.642 46.852 87.487-15.529 30.813-43.024 54.02-75.714 64.232-18.584-14.54-46.35-15.506-62.162 3.481-15.822-3.056-30.661-9.104-43.514-17.183 33.09-13.886 46.75-32.765 66.44-51.53l.004-.004c19.575-19.575 27.605-46.532 24.05-71.924-9.49-67.779-93.819-98.625-144.213-48.229l-5.877 5.877v-68.688c0-31.254 11.447-61.311 32.231-84.635 2.755-3.092 2.482-7.834-.61-10.59-3.092-2.755-7.834-2.482-10.589.61-23.236 26.074-36.032 59.676-36.032 94.614v83.689s-30.694 30.696-80.473 80.463c-10.953 10.967-10.953 28.81.003 39.78 16.338 16.339 35.961 28.19 57.375 34.957zm248.396-141.217c-1.859-3.604-5.696-32.55-48.272-66.31-30.184-23.939-25.946-71.27 8.019-89.593 30.282-16.324 51.781.014 76.419 13.483 5.441 14.546 8.099 29.53 8.099 44.75v126.697c0 14.775-2.481 29.145-7.385 42.843-20.554-18.311-27.793-43.982-36.88-71.87zm59.264-13.154v-46.358c10.779 1.388 20.829 3.551 30.02 6.464-3.461 18.966-13.527 32.335-30.02 39.894zm65.419-54.596c.198 4.257-2.563 6.548-3.758 7.336-8.885 5.85-12.606-8.359-61.66-14.214-.367-20.194 1.84-38.539-6.199-64.699 51.798 5.443 69.578 27.783 71.617 71.577zm-377.984 310.368c-8.789 14.282-27.464 18.73-41.749 9.938-1.703-1.049-2.236-3.279-1.187-4.985l63.056-102.458c12.493 2.46 25.685 3.237 38.484 2.279zm110.283-84.549-15.26 24.796c-12.688 20.617-35.472 31.773-58.893 29.665 3.509-5.702 36.48-59.275 41.82-67.953 2.35-.507 4.687-1.063 7.004-1.689 7.24 5.452 16.005 10.84 25.329 15.181zm41.543 29.366v-7.829c0-21.329 24.264-32.869 45.162-18.735.884.784 8.868 5.504 13.3 16.357 1.47 3.594 4.081 13.214 1.81 16.361-2.186 3.027-2.766 1.714-52.185 1.932-4.46-.001-8.087-3.628-8.087-8.086zm85.235-32.751c19.659.365 35.538 16.471 35.538 36.216 0 2.548-2.073 4.621-4.621 4.621h-40.564c1.69-6.873-.169-21.189-7.991-32.953 5.94-2.177 12.596-5.205 17.638-7.884zm-65.24-98.829c-19.183 7.212-39.361 12.299-60.05 13.717-6.574.451-9.444 8.634-4.493 13.061 1.508 1.353 3.504 2.04 5.521 1.908 14.676-1.015 29.621-3.829 43.494-7.761-15.669 15.372-21.588 22.683-33.286 31.32-35.129 3.759-67.815-1.074-96.952-13.492-30.899-13.164-51.103-33.403-51.625-33.814l17.245-17.238c11.836 11.438 42.072 35.548 90.65 40.531 3.859.396 7.341-2.214 8.11-5.938.91-4.384-2.175-8.541-6.575-8.994-32.374-3.318-61.663-17.353-81.539-36.243l38.483-38.483s.001 0 .001-.001c15.635-13.951 28.17-35.6 61.204-38.837 54.595-5.344 93.681 51.108 69.812 100.264zm-213.683 21.23 5.686-5.686c33.264 31.878 78.747 51.308 129.726 52.86-3.02 1.164-6.087 2.226-9.206 3.162 0 0-.001 0-.002 0-3.989 1.197-8.186 2.224-12.474 3.053h-.001c-40.216 7.776-83.006-4.096-113.726-34.816-5.114-5.122-5.114-13.455-.003-18.573z"/></g></g></svg>