<?xml version="1.0" encoding="UTF-8" standalone="no"?>
<svg
   xmlns:dc="http://purl.org/dc/elements/1.1/"
   xmlns:cc="http://creativecommons.org/ns#"
   xmlns:rdf="http://www.w3.org/1999/02/22-rdf-syntax-ns#"
   xmlns:svg="http://www.w3.org/2000/svg"
   xmlns="http://www.w3.org/2000/svg"
   xmlns:sodipodi="http://sodipodi.sourceforge.net/DTD/sodipodi-0.dtd"
   xmlns:inkscape="http://www.inkscape.org/namespaces/inkscape"
   inkscape:version="1.0 (4035a4fb49, 2020-05-01)"
   height="83.601921"
   width="68.472038"
   sodipodi:docname="manzana_roja.svg"
   id="svg214"
   xml:space="preserve"
   viewBox="0 0 68.472038 83.601921"
   y="0px"
   x="0px"
   version="1.1"><metadata
     id="metadata220"><rdf:RDF><cc:Work
         rdf:about=""><dc:format>image/svg+xml</dc:format><dc:type
           rdf:resource="http://purl.org/dc/dcmitype/StillImage" /></cc:Work></rdf:RDF></metadata><defs
     id="defs218" /><sodipodi:namedview
     inkscape:current-layer="svg214"
     inkscape:window-maximized="1"
     inkscape:window-y="-8"
     inkscape:window-x="-8"
     inkscape:cy="39.468335"
     inkscape:cx="34.329952"
     inkscape:zoom="4.304"
     showgrid="false"
     id="namedview216"
     inkscape:window-height="705"
     inkscape:window-width="1366"
     inkscape:pageshadow="2"
     inkscape:pageopacity="0"
     guidetolerance="10"
     gridtolerance="10"
     objecttolerance="10"
     borderopacity="1"
     bordercolor="#666666"
     pagecolor="#ffffff" /><path
     id="path208"
     d="M 65.759945,32.287798 C 64.15649,29.282061 60.255733,25.740069 57.178402,24.065386 46.728878,18.378619 40.652645,22.328631 35.27972,23.223528 c -9.15e-4,-0.761413 -0.0046,-1.539184 -0.0127,-2.26538 2.377746,-2.312012 6.490845,-3.504273 9.764831,-4.026002 3.79065,-0.604126 7.97345,-1.294616 10.392212,-4.140625 1.824036,-2.14624 2.2193,-5.0669552 3.568848,-7.5086662 1.037598,-1.877381 2.6604,-3.45752 4.601318,-4.50158739 0.27033,-0.1453857 0.185796,-0.5393066 -0.122309,-0.5704346 C 57.912716,-0.35020239 52.094112,0.11708281 47.235287,2.7284718 41.536556,5.7913378 37.294308,11.691912 35.201473,18.433123 35.080257,16.316546 34.517879,13.506915 34.210445,11.899554 34.181205,11.7466 32.788021,5.0392628 32.788021,5.0392628 32.720761,4.5494558 32.273678,4.2299978 31.827938,4.3532278 l -3.057739,0.631226 c -0.276612,0.07654 -0.253968,0.852051 -0.171082,1.146179 0,0 2.158203,3.79657 2.745911,5.1994632 0.649048,1.549255 1.637207,4.572571 1.94519,7.34845 0.07806,0.703857 0.222778,2.731506 0.349732,4.611633 -5.485291,-0.734619 -11.60553,-5.070069 -22.346314,0.775207 -3.0773314,1.674683 -6.9780884,5.216675 -8.5815434,8.222412 -4.028748,7.552124 -2.94311501,15.822754 -0.769104,24.030274 2.17395,8.207519 6.986328,15.654907 13.0864874,21.819397 2.75,2.778992 6.170349,5.475342 10.185974,5.464416 3.144287,-0.0085 5.58667,-1.23938 8.556335,-2.223205 0.123902,-0.04108 0.285157,-0.06549 0.464234,-0.07843 0.179077,0.01294 0.340332,0.03735 0.464233,0.07843 2.969666,0.983825 5.412048,2.21466 8.556336,2.223205 4.015625,0.01093 7.435974,-2.685425 10.185974,-5.464416 6.100158,-6.16449 10.912536,-13.611878 13.086486,-21.819397 2.174012,-8.20752 3.259644,-16.47815 -0.769103,-24.030274 z" /><path
     id="path222"
     d="M 23.419434,83.342032 C 20.158507,82.644141 16.186276,79.57094 11.84592,74.387936 5.4447216,66.743995 1.9106276,58.732652 0.50252159,48.6739 -1.8407907e-5,45.084018 0.16109359,40.270101 0.87670959,37.493428 2.4499906,31.388911 6.4338226,26.669975 12.605974,23.599859 c 3.04757,-1.515905 5.41713,-2.159311 8.480484,-2.302701 2.921366,-0.136744 4.326431,0.06785 9.054653,1.318454 3.919856,1.036794 3.65777,1.164391 3.443702,-1.676552 -0.378539,-5.023614 -1.120488,-7.683519 -3.36458,-12.0620582 -0.829489,-1.618449 -1.472646,-3.126594 -1.429238,-3.351433 0.05466,-0.283121 0.471782,-0.500447 1.356801,-0.706908 2.066893,-0.482173 2.267893,-0.438457 2.544821,0.553485 0.409868,1.468132 2.065839,10.0754622 2.235021,11.6171002 0.08765,0.798676 0.233861,1.452137 0.324916,1.452137 0.09106,0 0.29572,-0.444354 0.454812,-0.987453 0.480516,-1.640357 2.20082,-5.100425 3.47382,-6.986929 4.046443,-5.9965682 9.535311,-9.3229316 16.747779,-10.14948909 4.223994,-0.4840747 9.279832,-0.074446 7.205815,0.5838212 -0.720434,0.22865709 -3.121961,2.55031569 -3.910242,3.78019769 -0.386786,0.603467 -1.079291,2.083413 -1.538901,3.288769 -1.128241,2.9588862 -1.878362,4.2771202 -3.046582,5.3539462 -1.860755,1.715185 -3.806115,2.445594 -9.040516,3.394374 -4.687637,0.849674 -7.84944,1.992479 -9.60907,3.473112 -0.652986,0.549451 -0.730149,0.747243 -0.730149,1.871606 0,0.691475 0.0739,1.257228 0.164222,1.257228 0.09032,0 1.841601,-0.439027 3.891728,-0.975616 3.532335,-0.924532 3.903906,-0.976187 7.096466,-0.986528 3.750516,-0.01215 4.825377,0.208981 8.38645,1.725325 3.685542,1.569344 7.67819,4.728926 9.886643,7.823794 3.779958,5.297139 4.585139,13.443396 2.281452,23.08217 -2.19609,9.188582 -6.589315,16.92374 -13.62043,23.981512 -3.521175,3.534526 -6.308808,5.153053 -9.385193,5.44914 -1.730841,0.166583 -3.108259,-0.105162 -6.849298,-1.35128 l -2.910971,-0.969626 -3.173743,1.092977 c -2.539705,0.874626 -3.559526,1.110845 -5.104828,1.182421 -1.062096,0.0492 -2.188169,0.03442 -2.502384,-0.03282 z"
     style="fill:#ff0000;stroke-width:0.232342" /></svg>
