<svg id="Capa_1" enable-background="new 0 0 502 502" height="512" viewBox="0 0 502 502" width="512" xmlns="http://www.w3.org/2000/svg" xmlns:xlink="http://www.w3.org/1999/xlink"><linearGradient id="lg1"><stop offset="0" stop-color="#4e5660"/><stop offset="1" stop-color="#64768d"/></linearGradient><linearGradient id="SVGID_1_" gradientUnits="userSpaceOnUse" x1="386.384" x2="506.306" xlink:href="#lg1" y1="330.015" y2="330.015"/><linearGradient id="lg2"><stop offset="0" stop-color="#c5cccc"/><stop offset="1" stop-color="#e6e6e6"/></linearGradient><linearGradient id="SVGID_2_" gradientUnits="userSpaceOnUse" x1="374.269" x2="478.599" xlink:href="#lg2" y1="334.185" y2="334.185"/><linearGradient id="SVGID_3_" gradientUnits="userSpaceOnUse" x1="183.352" x2="183.352" xlink:href="#lg1" y1="424.797" y2="506.77"/><linearGradient id="SVGID_4_" gradientUnits="userSpaceOnUse" x1="306.838" x2="306.838" xlink:href="#lg1" y1="424.797" y2="506.77"/><linearGradient id="SVGID_5_" gradientUnits="userSpaceOnUse" x1="245.095" x2="245.095" xlink:href="#lg2" y1="241.843" y2="430.855"/><linearGradient id="lg3"><stop offset="0" stop-color="#efc27b"/><stop offset="1" stop-color="#f3d5a6"/></linearGradient><linearGradient id="SVGID_6_" gradientUnits="userSpaceOnUse" x1="140.69" x2="33.028" xlink:href="#lg3" y1="81.906" y2="81.906"/><linearGradient id="SVGID_7_" gradientUnits="userSpaceOnUse" x1="138.716" x2="138.716" xlink:href="#lg1" y1="91.238" y2=".89"/><linearGradient id="SVGID_8_" gradientTransform="matrix(-1 0 0 1 599.658 0)" gradientUnits="userSpaceOnUse" x1="250.158" x2="142.496" xlink:href="#lg3" y1="81.906" y2="81.906"/><linearGradient id="SVGID_9_" gradientTransform="matrix(-1 0 0 1 599.658 0)" gradientUnits="userSpaceOnUse" x1="248.185" x2="248.185" xlink:href="#lg1" y1="91.238" y2=".89"/><linearGradient id="lg4"><stop offset="0" stop-color="#d4dbdb"/><stop offset="1" stop-color="#f3f3f3"/></linearGradient><linearGradient id="SVGID_10_" gradientUnits="userSpaceOnUse" x1="26.671" x2="463.519" xlink:href="#lg4" y1="186.664" y2="186.664"/><linearGradient id="SVGID_11_" gradientUnits="userSpaceOnUse" x1="142.156" x2="142.156" xlink:href="#lg1" y1="238.9" y2="132.326"/><linearGradient id="SVGID_12_" gradientTransform="matrix(-1 0 0 1 690.19 0)" gradientUnits="userSpaceOnUse" x1="342.156" x2="342.156" xlink:href="#lg1" y1="238.9" y2="132.326"/><linearGradient id="SVGID_13_" gradientUnits="userSpaceOnUse" x1="172.046" x2="172.046" xlink:href="#lg4" y1="317.625" y2="393.442"/><linearGradient id="SVGID_14_" gradientUnits="userSpaceOnUse" x1="207.742" x2="207.742" xlink:href="#lg1" y1="340.476" y2="401.657"/><linearGradient id="SVGID_15_" gradientTransform="matrix(-1 0 0 1 599.658 0)" gradientUnits="userSpaceOnUse" x1="281.515" x2="281.515" xlink:href="#lg4" y1="317.625" y2="393.442"/><linearGradient id="SVGID_16_" gradientTransform="matrix(-1 0 0 1 599.658 0)" gradientUnits="userSpaceOnUse" x1="317.211" x2="317.211" xlink:href="#lg1" y1="340.476" y2="401.657"/><linearGradient id="SVGID_17_" gradientUnits="userSpaceOnUse" x1="245.095" x2="245.095" xlink:href="#lg1" y1="175.098" y2="156.193"/><g><path d="m434.362 393.29c-2.328-23.79 10.233-40.189 33.494-52.595 4.913-13.849 7.474-28.11 7.474-41.802 0-37.5-30.4-67.899-67.899-67.899s-67.899 30.4-67.899 67.899c0 73.534-9.414 129.242-9.414 129.242 43.816 4.869 79.314-10.488 104.244-34.845z" fill="url(#SVGID_1_)"/><path d="m385.322 318.293c-8.225 2.857-13.154 11.337-11.429 19.872 1.706 8.44 2.603 17.174 2.603 26.118 0 27.656-8.551 48.869-23.143 64.543 18.016-.961 34.328-5.465 48.726-12.574 6.224-15.602 9.417-33.015 9.417-51.969 0-11.221-1.12-22.184-3.25-32.787-2.1-10.448-12.857-16.7-22.924-13.203z" fill="#424e5e"/><path d="m399.566 294.575c-18.138-8.473-37.322-15.105-55.73-19.496-2.777 7.412-4.305 15.434-4.305 23.815 0 13.001-.295 25.441-.78 37.118 33.143 9.513 71.605 28.965 95.611 57.279 15.346-14.993 26.684-33.397 33.494-52.595-22.025-21.5-47.402-36.364-68.29-46.121z" fill="url(#SVGID_2_)"/><path d="m144.704 493.165c-11.78-11.781-11.78-30.88 0-42.66l34.636-34.636c11.782-11.78 30.882-11.78 42.66 0 11.78 11.781 11.78 30.88 0 42.66l-34.636 34.636c-11.78 11.779-30.879 11.781-42.66 0z" fill="url(#SVGID_3_)"/><path d="m302.826 493.165-34.636-34.636c-11.78-11.781-11.78-30.88 0-42.66 11.781-11.781 30.879-11.781 42.66 0l34.636 34.636c11.78 11.781 11.78 30.88 0 42.66-11.78 11.779-30.879 11.781-42.66 0z" fill="url(#SVGID_4_)"/><path d="m385.322 318.293c-8.225 2.857-13.154 11.337-11.429 19.872.793 3.926 1.404 7.918 1.839 11.962 12.41 5.964 24.583 13.166 35.595 21.564.111-2.443.169-4.911.169-7.408 0-11.221-1.12-22.184-3.25-32.787-2.099-10.448-12.857-16.7-22.924-13.203z" fill="#acb1b8"/><path d="m376.495 364.282c0-72.571-58.83-131.401-131.401-131.401s-131.401 58.83-131.401 131.401 58.83 100.829 131.401 100.829 131.401-28.258 131.401-100.829z" fill="url(#SVGID_5_)"/><path d="m161.95 125.194c-3.661-67.186-28.422-99.797-83.647-104.595-12.824 36.145-18.92 87.125 13.077 122.612z" fill="url(#SVGID_6_)"/><path d="m161.95 125.194 37.179-9.493c-4.873-34.67-45.367-87.031-81.353-111.34-13.485-9.11-32.047-3.371-37.857 11.83-.55 1.44-1.087 2.916-1.616 4.408 28.967 8.582 61.634 33.063 83.647 104.595z" fill="url(#SVGID_7_)"/><path d="m328.24 125.194c3.661-67.186 28.422-99.797 83.647-104.595 12.824 36.145 18.92 87.125-13.077 122.612z" fill="url(#SVGID_8_)"/><path d="m328.24 125.194-37.179-9.493c4.873-34.67 45.367-87.031 81.353-111.34 13.485-9.11 32.047-3.371 37.857 11.83.55 1.44 1.087 2.916 1.616 4.408-28.967 8.582-61.634 33.063-83.647 104.595z" fill="url(#SVGID_9_)"/><path d="m457.795 174.125c-31.126-38.715-109.717-108.012-212.7-108.012s-181.575 69.297-212.7 108.012c-6.778 8.431-7.601 20.156-2.123 29.485 6.924 11.791 16.544 23.947 28.725 35.601 19.306 0 45.658 6.846 57.674 39.744 34.565 16.928 77.634 28.259 128.424 28.259s93.859-11.331 128.424-28.259c12.017-32.898 38.368-39.744 57.674-39.744 12.181-11.654 21.801-23.81 28.725-35.601 5.478-9.329 4.656-21.054-2.123-29.485z" fill="url(#SVGID_10_)"/><path d="m182.816 131.276c-66.584 0-112.648 59.428-123.819 107.934 15.269 14.609 34.568 28.428 57.674 39.744 1.946-53.712 67.644-46.574 96.197-75.127 16.597-16.597 16.597-43.507 0-60.104-8.299-8.297-19.175-12.447-30.052-12.447z" fill="url(#SVGID_11_)"/><path d="m307.373 131.276c66.584 0 112.648 59.428 123.819 107.934-15.269 14.609-34.568 28.428-57.674 39.744-1.946-53.712-67.644-46.574-96.197-75.127-16.597-16.597-16.597-43.507 0-60.104 8.299-8.297 19.176-12.447 30.052-12.447z" fill="url(#SVGID_12_)"/><path d="m208.475 340.476c-7.023-2.867-13.876-7.528-22.792-15.356-12.518-10.99-31.578-9.751-42.57 2.767-10.991 12.52-9.752 31.579 2.767 42.57 9.05 7.945 19.783 16.429 33.331 22.984 16.409-9.456 28.531-36.189 29.264-52.965z" fill="url(#SVGID_13_)"/><path d="m214.132 342.408c-1.925-.532-3.797-1.172-5.657-1.932-20.195 9.165-28.477 36.85-29.263 52.966 5.75 2.782 11.998 5.224 18.856 7.118 16.081 4.442 32.679-5.011 37.108-21.045 4.436-16.058-4.986-32.671-21.044-37.107z" fill="url(#SVGID_14_)"/><path d="m281.714 340.476c7.023-2.867 13.876-7.528 22.792-15.356 12.518-10.99 31.578-9.751 42.57 2.767 10.991 12.52 9.752 31.579-2.767 42.57-9.05 7.945-19.783 16.429-33.331 22.984-16.408-9.456-28.531-36.189-29.264-52.965z" fill="url(#SVGID_15_)"/><path d="m276.058 342.408c1.925-.532 3.797-1.172 5.657-1.932 20.195 9.165 28.477 36.85 29.263 52.966-5.75 2.782-11.998 5.224-18.856 7.118-16.082 4.442-32.68-5.011-37.108-21.045-4.436-16.058 4.985-32.671 21.044-37.107z" fill="url(#SVGID_16_)"/><g><ellipse cx="157.209" cy="203.394" fill="#eaadcd" rx="14.936" ry="12.003"/><ellipse cx="332.98" cy="203.394" fill="#eaadcd" rx="14.936" ry="12.003"/><circle cx="182.816" cy="173.776" fill="#fff" r="29.618"/><circle cx="307.373" cy="173.776" fill="#fff" r="29.618"/><g fill="#3b3b44"><g><circle cx="182.816" cy="173.776" r="17.652"/><circle cx="307.374" cy="173.776" r="17.652"/></g><path d="m245.095 204.336c-5.248 0-10.495-1.984-14.776-5.954-2.025-1.877-2.145-5.041-.267-7.065 1.878-2.025 5.042-2.143 7.066-.267 4.697 4.354 11.257 4.354 15.954 0 2.023-1.879 5.187-1.759 7.066.267 1.877 2.024 1.758 5.189-.267 7.065-4.281 3.97-9.529 5.954-14.776 5.954z"/></g></g><path d="m262.012 166.938c0-6.701-6.506-10.931-16.917-10.931-10.41 0-16.917 4.231-16.917 10.931 0 6.701 6.507 15.266 16.917 15.266s16.917-8.566 16.917-15.266z" fill="url(#SVGID_17_)"/></g></svg>