<svg id="Capa_1" enable-background="new 0 0 502 502" height="512" viewBox="0 0 502 502" width="512" xmlns="http://www.w3.org/2000/svg" xmlns:xlink="http://www.w3.org/1999/xlink"><linearGradient id="lg1"><stop offset="0" stop-color="#d56262"/><stop offset="1" stop-color="#e5909c"/></linearGradient><linearGradient id="SVGID_1_" gradientUnits="userSpaceOnUse" x1="251" x2="251" xlink:href="#lg1" y1="203.534" y2="467.598"/><linearGradient id="lg2"><stop offset="0" stop-color="#4e5660"/><stop offset="1" stop-color="#64768d"/></linearGradient><linearGradient id="SVGID_2_" gradientUnits="userSpaceOnUse" x1="251" x2="251" xlink:href="#lg2" y1="431.658" y2="328.158"/><linearGradient id="SVGID_3_" gradientUnits="userSpaceOnUse" x1="251" x2="251" xlink:href="#lg1" y1="185.695" y2="7.252"/><linearGradient id="lg3"><stop offset="0" stop-color="#996c66"/><stop offset="1" stop-color="#ba8a6c"/></linearGradient><linearGradient id="SVGID_4_" gradientUnits="userSpaceOnUse" x1="204.054" x2="89.304" xlink:href="#lg3" y1="199.242" y2="199.242"/><linearGradient id="SVGID_5_" gradientTransform="matrix(-1 0 0 1 102 0)" gradientUnits="userSpaceOnUse" x1="-195.946" x2="-310.696" xlink:href="#lg3" y1="199.242" y2="199.242"/><linearGradient id="lg4"><stop offset="0" stop-color="#f4c22c"/><stop offset="1" stop-color="#f9e198"/></linearGradient><linearGradient id="SVGID_6_" gradientTransform="matrix(-1 0 0 1 102 0)" gradientUnits="userSpaceOnUse" x1="-232.971" x2="-232.971" xlink:href="#lg4" y1="181.542" y2="6.952"/><linearGradient id="SVGID_7_" gradientUnits="userSpaceOnUse" x1="167.029" x2="167.029" xlink:href="#lg4" y1="181.542" y2="6.952"/><linearGradient id="SVGID_8_" gradientUnits="userSpaceOnUse" x1="167.029" x2="167.029" xlink:href="#lg4" y1="180.025" y2="349.894"/><linearGradient id="SVGID_9_" gradientTransform="matrix(-1 0 0 1 102 0)" gradientUnits="userSpaceOnUse" x1="-232.971" x2="-232.971" xlink:href="#lg4" y1="180.025" y2="349.894"/><linearGradient id="SVGID_10_" gradientTransform="matrix(0 -1 1 0 50 52)" gradientUnits="userSpaceOnUse" x1="-181.737" x2="-41.231" xlink:href="#lg2" y1="201" y2="201"/><linearGradient id="SVGID_11_" gradientTransform="matrix(0 -1 1 0 50 52)" gradientUnits="userSpaceOnUse" x1="-152.5" x2="-79.605" xlink:href="#lg4" y1="201" y2="201"/><linearGradient id="SVGID_12_" gradientUnits="userSpaceOnUse" x1="55.121" x2="479.244" y1="462.536" y2="462.536"><stop offset="0" stop-color="#c5cccc"/><stop offset="1" stop-color="#e6e6e6"/></linearGradient><g><path d="m385.935 211.377h-269.87l-42.796 232.787h355.462z" fill="url(#SVGID_1_)"/><path d="m294.694 304.874-31.083-54.285c-4.107.662-8.317 1.02-12.611 1.02s-8.504-.357-12.611-1.02l-45.444 79.366c-10.411 18.183-35.257 21.499-50.073 6.683l-42.097-42.097-7.687 41.811 25.033 25.033c12.618 12.618 29.376 19.567 47.185 19.568 23.911 0 46.142-12.879 58.01-33.607l27.684-48.344 13.321 23.264c4.803 8.387 15.495 11.293 23.882 6.491 8.387-4.803 11.293-15.495 6.491-23.883z" fill="#c95b5b"/><path d="m271.003 354.428h-40.005c-12.391 0-22.436 10.045-22.436 22.436v67.3h84.877v-67.3c-.001-12.391-10.046-22.436-22.436-22.436z" fill="url(#SVGID_2_)"/><path d="m393.794 174.297c0-76.141-63.931-137.866-142.794-137.866s-142.794 61.725-142.794 137.866z" fill="url(#SVGID_3_)"/><path d="m251 164.282h-148.166c-13.286 0-24.057 10.771-24.057 24.057v21.805c0 13.286 10.771 24.057 24.057 24.057h148.166z" fill="url(#SVGID_4_)"/><path d="m251 164.282h148.166c13.286 0 24.057 10.771 24.057 24.057v21.805c0 13.286-10.771 24.057-24.057 24.057h-148.166z" fill="url(#SVGID_5_)"/><path d="m359.128 9.315 55.534 55.534c14.816 14.816 11.499 39.661-6.683 50.073l-110.184 63.09-51.83-51.83 63.09-110.184c10.411-18.182 35.257-21.498 50.073-6.683z" fill="url(#SVGID_6_)"/><path d="m276.905 158.572c-2.943 0-5.886-1.123-8.132-3.368-4.491-4.491-4.491-11.773 0-16.264l62.147-62.147c4.492-4.49 11.771-4.49 16.264 0 4.491 4.491 4.491 11.772 0 16.264l-62.148 62.147c-2.245 2.245-5.187 3.368-8.131 3.368z" fill="#fcb500"/><path d="m142.872 9.315-55.534 55.534c-14.816 14.816-11.499 39.661 6.683 50.073l110.184 63.09 51.83-51.83-63.09-110.184c-10.412-18.182-35.257-21.498-50.073-6.683z" fill="url(#SVGID_7_)"/><path d="m225.095 158.572c-2.943 0-5.886-1.123-8.132-3.368l-62.147-62.147c-4.491-4.491-4.491-11.772 0-16.264 4.492-4.49 11.771-4.49 16.264 0l62.148 62.147c4.491 4.491 4.491 11.773 0 16.264-2.248 2.245-5.19 3.368-8.133 3.368z" fill="#fcb500"/><path d="m87.338 281.105 55.534 55.534c14.816 14.816 39.661 11.499 50.073-6.683l63.09-110.184-51.83-51.83-110.184 63.09c-18.182 10.412-21.499 35.257-6.683 50.073z" fill="url(#SVGID_8_)"/><path d="m414.662 281.105-55.534 55.534c-14.816 14.816-39.661 11.499-50.073-6.683l-63.09-110.184 51.83-51.83 110.184 63.09c18.182 10.412 21.498 35.257 6.683 50.073z" fill="url(#SVGID_9_)"/><path d="m162.947 272.53c-2.943 0-5.886-1.123-8.132-3.368-4.491-4.491-4.491-11.772 0-16.264l62.147-62.147c4.492-4.49 11.771-4.49 16.264 0 4.491 4.491 4.491 11.772 0 16.264l-62.148 62.147c-2.245 2.245-5.187 3.368-8.131 3.368z" fill="#fcb500"/><path d="m339.053 272.53c-2.943 0-5.886-1.123-8.132-3.368l-62.147-62.147c-4.491-4.491-4.491-11.772 0-16.264 4.492-4.49 11.771-4.49 16.264 0l62.148 62.147c4.491 4.491 4.491 11.773 0 16.264-2.247 2.245-5.19 3.368-8.133 3.368z" fill="#fcb500"/><circle cx="251" cy="172.977" fill="url(#SVGID_10_)" r="78.632"/><circle cx="251" cy="172.977" fill="url(#SVGID_11_)" r="40.795"/><path d="m442.189 502h-382.378c-11.785 0-21.339-9.554-21.339-21.339v-24.508c0-18.27 14.811-33.082 33.082-33.082h358.892c18.271 0 33.082 14.811 33.082 33.082v24.508c0 11.785-9.554 21.339-21.339 21.339z" fill="url(#SVGID_12_)"/><g fill="#fff6bd"><path d="m345.173 47.786c-2.56 0-5.118-.977-7.071-2.929l-3.278-3.278c-3.905-3.905-3.905-10.237 0-14.143 3.906-3.904 10.236-3.904 14.143 0l3.278 3.278c3.905 3.905 3.905 10.237 0 14.143-1.954 1.953-4.513 2.929-7.072 2.929z"/><path d="m391.964 94.577c-2.56 0-5.118-.977-7.071-2.929l-18.304-18.304c-3.905-3.905-3.905-10.237 0-14.143 3.906-3.904 10.236-3.904 14.142 0l18.304 18.304c3.905 3.905 3.905 10.237 0 14.143-1.953 1.953-4.512 2.929-7.071 2.929z"/></g></g></svg>