<svg height="512" viewBox="0 0 64 64" width="512" xmlns="http://www.w3.org/2000/svg"><g id="Layer_12" data-name="Layer 12"><path d="m44.53 36.44-2.53-1.44h-.06a18 18 0 0 1 -19.88 0h-.06l-2.53 1.44a8.9 8.9 0 0 0 -2.82 12.88 11.19 11.19 0 0 0 9.11 4.68h.24a4 4 0 0 1 0 8h12a4 4 0 0 1 0-8h.24a11.19 11.19 0 0 0 9.11-4.68 8.9 8.9 0 0 0 -2.82-12.88z" fill="#cda57d"/><path d="m36 55a3.48 3.48 0 0 1 .19-7l.5-2.47a3 3 0 0 0 -.82-2.69 3 3 0 0 0 -2.1-.87h-3.54a3 3 0 0 0 -2.1.87 3 3 0 0 0 -.82 2.69l.5 2.47a3.48 3.48 0 0 1 .19 7z" fill="#fddfb1"/><g fill="#c18e5c"><rect height="8" rx="4" width="15" x="15" y="54"/><rect height="8" rx="4" width="15" x="34" y="54"/><rect height="8" rx="4" width="15" x="34" y="54"/><circle cx="32" cy="20" r="18"/><circle cx="32" cy="20" r="18"/></g><path d="m46 18a8 8 0 0 0 -14-5.28 8 8 0 1 0 -9.63 12.4 5.24 5.24 0 0 0 -.37 1.88c0 3.87 4.48 7 10 7s10-3.13 10-7a5.24 5.24 0 0 0 -.37-1.88 8 8 0 0 0 4.37-7.12z" fill="#fddfb1"/><path d="m14 20a17.9 17.9 0 0 1 1.92-8.06l-1.77-1.75a4.2 4.2 0 0 0 -2.93-1.19 4.12 4.12 0 0 0 -4.06 3.26l-1 5.07a6.24 6.24 0 0 0 .21 3.29 6.54 6.54 0 0 0 6.18 4.38h2.17a17.93 17.93 0 0 1 -.72-5z" fill="#cda57d"/><path d="m57.87 17.33-1-5.07a4.12 4.12 0 0 0 -4.09-3.26 4.2 4.2 0 0 0 -2.93 1.19l-1.77 1.75a17.82 17.82 0 0 1 1.2 13.06h2.17a6.54 6.54 0 0 0 6.21-4.38 6.24 6.24 0 0 0 .21-3.29z" fill="#cda57d"/><path d="m30.25 22.9a2.22 2.22 0 0 1 3.5 0 1.35 1.35 0 0 1 -1.23 2.1h-1a1.35 1.35 0 0 1 -1.27-2.1z" fill="#c18e5c"/><path d="m50 26h1.44a7.53 7.53 0 0 0 7.16-5.06 7.26 7.26 0 0 0 .24-3.81l-1-5.07a5.18 5.18 0 0 0 -8.67-2.59l-.84.83a19 19 0 0 0 -32.62 0l-.84-.83a5.18 5.18 0 0 0 -8.67 2.59l-1 5.07a7.26 7.26 0 0 0 .24 3.81 7.53 7.53 0 0 0 7.11 5.06h1.45a19 19 0 0 0 6.22 8.87l-1.23.7a9.89 9.89 0 0 0 -3.15 14.33 12.28 12.28 0 0 0 3.25 3.1h-.09a5 5 0 0 0 0 10h26a5 5 0 0 0 5-5 4.92 4.92 0 0 0 -1-3 9 9 0 0 0 9-9v-2.5a3.5 3.5 0 1 0 -3.5 3.5h.5v-2h-.5a1.5 1.5 0 1 1 1.5-1.5v2.5a7 7 0 0 1 -7 7h-4.09a12.28 12.28 0 0 0 3.25-3.1 9.89 9.89 0 0 0 -3.16-14.33l-1.23-.7a19 19 0 0 0 6.23-8.87zm.54-15.1a3.23 3.23 0 0 1 2.23-.9 3.13 3.13 0 0 1 3.08 2.46l1 5.07a5.28 5.28 0 0 1 -.17 2.76 5.53 5.53 0 0 1 -5.23 3.71h-.88a18.85 18.85 0 0 0 .43-4 19.38 19.38 0 0 0 -.39-3.84l1.1-.72a1 1 0 0 1 .93-.06.87.87 0 0 1 .49.77 2 2 0 0 1 -1.13 1.78l-.35.17.88 1.8.35-.18a3.94 3.94 0 0 0 2.25-3.57 2.83 2.83 0 0 0 -1.62-2.56 2.93 2.93 0 0 0 -2.89.17l-.56.37a18.93 18.93 0 0 0 -.78-2zm-37.99 13.1a5.53 5.53 0 0 1 -5.27-3.71 5.28 5.28 0 0 1 -.17-2.76l1-5.07a3.13 3.13 0 0 1 3.11-2.46 3.23 3.23 0 0 1 2.23.9l1.27 1.25a18.93 18.93 0 0 0 -.78 2l-.56-.37a2.93 2.93 0 0 0 -2.89-.17 2.83 2.83 0 0 0 -1.62 2.56 3.94 3.94 0 0 0 2.25 3.57l.35.18.88-1.8-.35-.19a2 2 0 0 1 -1.13-1.78.87.87 0 0 1 .49-.77 1 1 0 0 1 .93.06l1.1.72a19.38 19.38 0 0 0 -.39 3.84 18.85 18.85 0 0 0 .43 4zm12.45 37h-6a3 3 0 0 1 0-6h7a3 3 0 0 1 2.82 2h-3.82v2h3.82a3 3 0 0 1 -2.82 2zm3.88-12.72-.59-2.91a2 2 0 0 1 1.94-2.37h3.54a2 2 0 0 1 1.94 2.37l-.59 2.91a3.5 3.5 0 0 0 -.58 6.12 5 5 0 0 0 -1.54 3.6 4.92 4.92 0 0 0 1 3h-4a4.92 4.92 0 0 0 1-3 5 5 0 0 0 -1.54-3.6 3.5 3.5 0 0 0 -.58-6.12zm16.12 6.72a3 3 0 0 1 0 6h-7a3 3 0 0 1 -2.82-2h3.82v-2h-3.82a3 3 0 0 1 2.82-2zm-1-17.69a7.89 7.89 0 0 1 4 6.84 7.81 7.81 0 0 1 -1.47 4.58 10.18 10.18 0 0 1 -8.29 4.27h-1.74a1.5 1.5 0 0 1 0-3 5.66 5.66 0 0 0 5.42-4.09l1-3.64-1.92-.54-1 3.63a3.65 3.65 0 0 1 -2.76 2.55l.43-2.15a4 4 0 0 0 -1.09-3.59 3.92 3.92 0 0 0 -2.81-1.17h-3.54a3.92 3.92 0 0 0 -2.81 1.17 4 4 0 0 0 -1.09 3.59l.43 2.15a3.65 3.65 0 0 1 -2.76-2.55l-1-3.63-2 .54 1 3.64a5.66 5.66 0 0 0 5.5 4.09 1.5 1.5 0 0 1 0 3h-1.74a10.18 10.18 0 0 1 -8.29-4.27 7.81 7.81 0 0 1 -1.47-4.58 7.89 7.89 0 0 1 4-6.84l2-1.17a18.84 18.84 0 0 0 20 0zm-12-.31a17 17 0 1 1 17-17 17 17 0 0 1 -17 17z"/><path d="m38 9a9 9 0 0 0 -6 2.3 9 9 0 1 0 -10.82 14.29 5.68 5.68 0 0 0 -.18 1.41c0 4.41 4.93 8 11 8s11-3.59 11-8a5.68 5.68 0 0 0 -.18-1.41 9 9 0 0 0 -4.82-16.59zm3.17 15.23a1 1 0 0 0 -.47 1.26 4.14 4.14 0 0 1 .3 1.51c0 3.31-4 6-9 6s-9-2.69-9-6a4.14 4.14 0 0 1 .3-1.51 1 1 0 0 0 -.47-1.26 7 7 0 1 1 8.42-10.85 1 1 0 0 0 1.5 0 7 7 0 1 1 8.42 10.85z"/><path d="m28 19h2a4 4 0 0 0 -8 0h2a2 2 0 0 1 4 0z"/><path d="m38 15a4 4 0 0 0 -4 4h2a2 2 0 0 1 4 0h2a4 4 0 0 0 -4-4z"/><path d="m35 28a1 1 0 0 1 -2 0v-2.06a2.41 2.41 0 0 0 1.75-1.27 2.24 2.24 0 0 0 -.19-2.36 3.22 3.22 0 0 0 -5.12 0 2.24 2.24 0 0 0 -.19 2.36 2.41 2.41 0 0 0 1.75 1.27v2.06a1 1 0 0 1 -2 0v-1h-2v1a3 3 0 0 0 3 3 3 3 0 0 0 2-.78 3 3 0 0 0 2 .78 3 3 0 0 0 3-3v-1h-2zm-3.94-4.51a1.26 1.26 0 0 1 1.88 0 .23.23 0 0 1 0 .27.48.48 0 0 1 -.45.24h-1a.48.48 0 0 1 -.45-.24.23.23 0 0 1 .02-.27z"/></g></svg>