<?xml version="1.0" encoding="UTF-8" standalone="no"?>
<svg
   xmlns:dc="http://purl.org/dc/elements/1.1/"
   xmlns:cc="http://creativecommons.org/ns#"
   xmlns:rdf="http://www.w3.org/1999/02/22-rdf-syntax-ns#"
   xmlns:svg="http://www.w3.org/2000/svg"
   xmlns="http://www.w3.org/2000/svg"
   xmlns:sodipodi="http://sodipodi.sourceforge.net/DTD/sodipodi-0.dtd"
   xmlns:inkscape="http://www.inkscape.org/namespaces/inkscape"
   height="52.750099"
   width="56.004883"
   version="1.1"
   x="0px"
   y="0px"
   viewBox="0 0 56.004883 52.750099"
   xml:space="preserve"
   id="svg736"
   sodipodi:docname="oro_amarillo.svg"
   inkscape:version="1.0 (4035a4fb49, 2020-05-01)"><metadata
     id="metadata742"><rdf:RDF><cc:Work
         rdf:about=""><dc:format>image/svg+xml</dc:format><dc:type
           rdf:resource="http://purl.org/dc/dcmitype/StillImage" /></cc:Work></rdf:RDF></metadata><defs
     id="defs740" /><sodipodi:namedview
     inkscape:document-rotation="0"
     pagecolor="#ffffff"
     bordercolor="#666666"
     borderopacity="1"
     objecttolerance="10"
     gridtolerance="10"
     guidetolerance="10"
     inkscape:pageopacity="0"
     inkscape:pageshadow="2"
     inkscape:window-width="1366"
     inkscape:window-height="705"
     id="namedview738"
     showgrid="false"
     inkscape:zoom="5.38"
     inkscape:cx="28.002353"
     inkscape:cy="14.070167"
     inkscape:window-x="-8"
     inkscape:window-y="-8"
     inkscape:window-maximized="1"
     inkscape:current-layer="svg736" /><g
     transform="translate(-11.997647,-13.625)"
     id="g730"><path
       d="m 47.4502,28.775 -27.61,18.25 2.5099,0.74 1.9301,0.57 c 0.02,0.01 0.03,0.01 0.05,0.02 l 8.25,2.42 1.22,0.36 19.07,-14.33 0.03,-0.03 4.83,-3.63 1.67,-1.25 0.38,-0.29 -11.53,-2.97 c -0.2801,-0.07 -0.5701,-0.0199 -0.8,0.14 z"
       id="path718" /><path
       d="m 34.0002,65.675 -0.1,-1.42 -0.11,-1.43 -0.27,-3.65 -0.3,-3.86 -0.17,-2.3199 -9.29,-2.73 c -0.01,0 -0.03,-0.01 -0.04,-0.01 l -3.27,-0.96 -0.73,-0.22 -1.2599,-0.37 -6.31,10.2 c -0.17,0.27 -0.2,0.6 -0.08,0.89 0.11,0.29 0.36,0.52 0.66,0.6 l 21.33,5.98 -0.05,-0.67 z"
       id="path720" /><path
       d="m 68.0002,39.955 c 0.02,-0.28 -0.09,-0.56 -0.28,-0.76 l -6.21,-6.39 -0.9,0.68 -0.71,0.53 -5.8,4.36 -19.06,14.33 0.47,6.33 0.35,4.6 0.14,1.9 v 0.06 l 0.03,0.47 31.6,-25.4 c 0.2199,-0.1699 0.3499,-0.43 0.37,-0.71 z"
       id="path722" /><path
       d="m 41.1402,20.1151 c 0.04,0.0699 0.1,0.15 0.16,0.21 0.06,0.06 0.13,0.11 0.21,0.16 0.01,0 0.01,0 0.01,0 l 0.14,0.08 c 0.11,0.04 0.22,0.06 0.34,0.06 2.97,0 4.02,4.19 4.03,4.23 0.0099,0.05 0.03,0.1 0.05,0.15 0.01,0.03 0.02,0.06 0.04,0.08 0.04,0.08 0.1,0.15 0.16,0.22 0.04,0.05 0.1,0.1 0.15,0.1299 0.16,0.1201 0.36,0.19 0.57,0.19 0.21,0 0.41,-0.0699 0.57,-0.19 0.05,-0.03 0.11,-0.08 0.15,-0.1299 0.0601,-0.07 0.1201,-0.14 0.16,-0.22 0.02,-0.02 0.03,-0.05 0.04,-0.08 0.02,-0.05 0.04,-0.1 0.05,-0.15 0.01,-0.04 1.04,-4.23 4.03,-4.23 0.12,0 0.23,-0.02 0.34,-0.06 l 0.14,-0.08 c 0,0 0,0 0.01,0 0.08,-0.05 0.15,-0.1 0.21,-0.16 0.06,-0.06 0.12,-0.14 0.16,-0.21 0.04,-0.07 0.08,-0.16 0.1,-0.2401 0.03,-0.08 0.04,-0.16 0.04,-0.25 0,-0.02 0,-0.04 -0.01,-0.06 0.01,-0.06 0,-0.12 -0.02,-0.18 -0.0099,-0.05 -0.02,-0.09 -0.04,-0.13 -0.01,-0.0099 -0.01,-0.02 -0.02,-0.03 -0.02,-0.05 -0.05,-0.11 -0.08,-0.16 -0.18,-0.2599 -0.49,-0.44 -0.83,-0.44 -2.97,0 -4.02,-4.19 -4.03,-4.23 -0.05,-0.22 -0.17,-0.41 -0.34,-0.54 -0.04,-0.04 -0.08,-0.07 -0.13,-0.09 -0.15,-0.09 -0.32,-0.14 -0.5,-0.14 -0.18,0 -0.35,0.05 -0.5,0.14 -0.05,0.02 -0.09,0.05 -0.13,0.09 -0.04,0.03 -0.08,0.07 -0.12,0.11 -0.11,0.12 -0.18,0.26 -0.22,0.43 -0.01,0.04 -1.04,4.23 -4.03,4.23 -0.34,0 -0.65,0.1801 -0.83,0.44 -0.03,0.05 -0.06,0.11 -0.08,0.16 -0.01,0.01 -0.01,0.02 -0.02,0.03 -0.02,0.04 -0.03,0.08 -0.04,0.13 -0.02,0.06 -0.03,0.12 -0.02,0.18 -0.01,0.02 -0.01,0.04 -0.01,0.06 0,0.09 0.01,0.17 0.04,0.25 0.02,0.08 0.0599,0.17 0.1,0.2401 z"
       id="path724" /><path
       d="m 12.1402,35.1151 c 0.04,0.08 0.1,0.15 0.16,0.21 0.06,0.06 0.13,0.11 0.21,0.16 0.01,0 0.01,0 0.01,0 l 0.14,0.08 h 0.01 c 0.11,0.04 0.21,0.06 0.33,0.06 2.97,0 4.02,4.19 4.03,4.23 0.0099,0.05 0.03,0.1 0.05,0.15 0.01,0.03 0.02,0.06 0.04,0.08 0.04,0.08 0.1,0.15 0.16,0.22 0.04,0.05 0.1,0.1 0.15,0.1299 0.16,0.1201 0.36,0.19 0.57,0.19 0.21,0 0.41,-0.0699 0.57,-0.19 0.05,-0.03 0.11,-0.08 0.15,-0.1299 0.0601,-0.07 0.1201,-0.14 0.16,-0.22 0.02,-0.02 0.03,-0.05 0.04,-0.08 0.02,-0.05 0.04,-0.1 0.05,-0.15 0.01,-0.04 1.04,-4.23 4.03,-4.23 0.12,0 0.22,-0.02 0.33,-0.06 h 0.01 l 0.14,-0.08 c 0,0 0,0 0.01,0 0.08,-0.05 0.15,-0.1 0.21,-0.16 0.06,-0.06 0.12,-0.13 0.16,-0.21 0.04,-0.07 0.08,-0.16 0.1,-0.2401 0.03,-0.08 0.04,-0.16 0.04,-0.25 0,-0.02 0,-0.04 -0.01,-0.06 0.01,-0.06 0,-0.12 -0.02,-0.18 -0.0099,-0.05 -0.02,-0.09 -0.04,-0.13 -0.01,-0.0099 -0.01,-0.02 -0.02,-0.03 -0.02,-0.05 -0.05,-0.11 -0.08,-0.16 -0.18,-0.2599 -0.49,-0.44 -0.83,-0.44 -2.97,0 -4.02,-4.19 -4.03,-4.23 -0.04,-0.17 -0.11,-0.31 -0.22,-0.43 -0.04,-0.04 -0.08,-0.08 -0.12,-0.11 -0.04,-0.04 -0.08,-0.07 -0.13,-0.09 -0.15,-0.09 -0.32,-0.14 -0.5,-0.14 -0.18,0 -0.35,0.05 -0.5,0.14 -0.05,0.02 -0.09,0.05 -0.13,0.09 -0.04,0.03 -0.08,0.07 -0.12,0.11 -0.11,0.12 -0.18,0.26 -0.22,0.43 -0.01,0.04 -1.04,4.23 -4.03,4.23 -0.34,0 -0.65,0.1801 -0.83,0.44 -0.03,0.05 -0.06,0.11 -0.08,0.16 -0.01,0.01 -0.01,0.02 -0.02,0.03 -0.02,0.04 -0.03,0.08 -0.04,0.13 -0.02,0.06 -0.03,0.12 -0.02,0.18 -0.01,0.02 -0.01,0.04 -0.01,0.06 0,0.09 0.01,0.17 0.04,0.25 0.02,0.08 0.0599,0.17 0.1,0.2401 z"
       id="path726" /><path
       d="m 67.9701,56.385 c -0.0099,-0.05 -0.02,-0.09 -0.04,-0.13 -0.01,-0.0099 -0.01,-0.02 -0.02,-0.03 -0.02,-0.05 -0.05,-0.11 -0.08,-0.16 -0.18,-0.2599 -0.49,-0.44 -0.83,-0.44 -2.97,0 -4.02,-4.19 -4.03,-4.23 -0.04,-0.17 -0.11,-0.31 -0.22,-0.43 -0.04,-0.04 -0.08,-0.08 -0.12,-0.11 -0.04,-0.04 -0.08,-0.07 -0.13,-0.09 -0.15,-0.09 -0.32,-0.14 -0.5,-0.14 -0.18,0 -0.35,0.05 -0.5,0.14 -0.05,0.02 -0.09,0.05 -0.13,0.09 -0.04,0.03 -0.08,0.07 -0.12,0.11 -0.11,0.12 -0.18,0.26 -0.22,0.43 -0.01,0.04 -1.04,4.23 -4.03,4.23 -0.34,0 -0.65,0.1801 -0.83,0.44 -0.03,0.05 -0.06,0.11 -0.08,0.16 -0.01,0.01 -0.01,0.02 -0.02,0.03 -0.02,0.04 -0.03,0.08 -0.04,0.13 -0.02,0.06 -0.03,0.12 -0.02,0.18 -0.01,0.02 -0.01,0.04 -0.01,0.06 0,0.09 0.01,0.17 0.04,0.25 0.02,0.08 0.06,0.17 0.1,0.2401 0.04,0.08 0.1,0.15 0.16,0.21 0.06,0.06 0.13,0.11 0.21,0.16 0.01,0 0.01,0 0.01,0 l 0.14,0.08 h 0.01 c 0.11,0.04 0.21,0.06 0.33,0.06 2.97,0 4.02,4.19 4.03,4.23 0.0099,0.05 0.03,0.1 0.05,0.15 0.01,0.03 0.02,0.06 0.04,0.08 0.04,0.08 0.1,0.15 0.16,0.22 0.04,0.05 0.1,0.1 0.15,0.1299 0.16,0.1201 0.36,0.19 0.57,0.19 0.21,0 0.41,-0.0699 0.57,-0.19 0.05,-0.03 0.11,-0.08 0.15,-0.1299 0.0601,-0.07 0.1201,-0.14 0.16,-0.22 0.02,-0.02 0.03,-0.05 0.04,-0.08 0.02,-0.05 0.04,-0.1 0.05,-0.15 0.01,-0.04 1.04,-4.23 4.03,-4.23 0.12,0 0.22,-0.02 0.33,-0.06 h 0.01 l 0.14,-0.08 c 0,0 0,0 0.01,0 0.08,-0.05 0.15,-0.1 0.21,-0.16 0.06,-0.06 0.12,-0.13 0.16,-0.21 0.04,-0.07 0.08,-0.16 0.1,-0.2401 0.03,-0.08 0.04,-0.16 0.04,-0.25 0,-0.02 0,-0.04 -0.01,-0.06 0.0101,-0.06 1e-4,-0.12 -0.02,-0.18 z"
       id="path728" /></g><path
     style="fill:#ffcc00;stroke-width:0.185874"
     d="M 14.733048,35.343918 C 11.166342,34.281011 8.2289302,33.388122 8.2054652,33.359722 8.1674652,33.313732 19.755375,25.628938 31.603052,17.843073 l 4.299701,-2.825608 5.757165,1.488982 c 3.166441,0.81894 5.773844,1.505662 5.794231,1.526048 0.122641,0.122642 -25.516493,19.184938 -25.839763,19.21146 -0.218031,0.01788 -3.314633,-0.837128 -6.881338,-1.900037 z"
     id="path744" /><path
     style="fill:#ffcc00;stroke-width:0.185874"
     d="m 24.031426,50.922223 c -0.269654,-2.919374 -0.895026,-11.786686 -0.8346,-11.834026 0.03616,-0.02833 5.975852,-4.487225 13.199309,-9.908654 l 13.133558,-9.857142 3.176851,3.306973 c 1.987292,2.068691 3.17685,3.448575 3.17685,3.685138 0,0.277761 -4.15777,3.718455 -15.659851,12.959053 -8.612919,6.919487 -15.753482,12.654019 -15.867919,12.743402 -0.146984,0.114804 -0.242161,-0.20659 -0.324198,-1.094744 z"
     id="path746" /><path
     style="fill:#ffcc00;stroke-width:0.185874"
     d="M 11.040692,49.573017 C 5.3409612,47.961186 0.55239215,46.538547 0.39942815,46.411599 c -0.152964,-0.126949 -0.278116,-0.372376 -0.278116,-0.545394 0,-0.260893 5.86578305,-9.990175 6.32052405,-10.483539 0.106946,-0.116029 14.1728678,3.83311 14.4552638,4.058451 0.07013,0.05596 0.968242,11.544189 0.970002,12.407861 9.29e-4,0.445675 -0.08236,0.689384 -0.23092,0.675834 -0.127788,-0.01166 -4.895759,-1.339963 -10.59549,-2.951795 z"
     id="path748" /><path
     style="fill:#ffcc00;stroke-width:0.185874"
     d="m 49.410864,48.58954 c -0.117669,-0.141783 -0.342936,-0.623389 -0.500592,-1.070236 -0.39325,-1.114588 -1.266036,-2.431677 -1.94309,-2.932245 -0.309936,-0.229146 -0.939009,-0.486778 -1.397938,-0.572515 -1.003684,-0.187508 -1.395887,-0.480008 -1.395887,-1.041031 0,-0.545507 0.293781,-0.76624 1.223754,-0.919471 1.544602,-0.254502 2.542247,-1.245584 3.409847,-3.387412 0.277511,-0.685089 0.638452,-1.330069 0.802089,-1.433288 0.52407,-0.330576 1.158279,0.126662 1.424112,1.026723 0.433966,1.469334 1.478832,2.91065 2.494547,3.441044 0.288944,0.150883 0.873169,0.333709 1.298278,0.406281 0.618203,0.105535 0.808787,0.233921 0.952076,0.641362 0.238173,0.677242 -0.101403,1.006868 -1.260306,1.223375 -0.515832,0.09637 -1.180433,0.398297 -1.575534,0.715767 -0.602555,0.484163 -1.569022,2.079697 -2.17035,3.583017 -0.213821,0.534551 -1.024328,0.724301 -1.361006,0.318629 z"
     id="path750" /><path
     style="fill:#ffcc00;stroke-width:0.185874"
     d="m 5.5699542,26.776292 c -0.121276,-0.04939 -0.439908,-0.663983 -0.708071,-1.365756 -0.812257,-2.125654 -1.987692,-3.177701 -4.04071405,-3.616554 -0.344798,-0.0737 -0.546882,-0.262294 -0.628188,-0.586243 -0.162393,-0.647025 0.23486,-1.004828 1.34610705,-1.212432 0.508233,-0.09495 1.183335,-0.396285 1.552927,-0.693161 0.571904,-0.459382 1.554065,-2.092225 2.140821,-3.559116 0.210133,-0.525332 1.022342,-0.726694 1.348073,-0.334212 0.110556,0.133212 0.378854,0.693395 0.596218,1.244852 0.766894,1.945626 2.193764,3.364453 3.3835248,3.364453 0.627822,0 1.270697,0.503732 1.270697,0.99567 0,0.547314 -0.333999,0.8621 -0.920074,0.867148 -0.737254,0.0063 -1.9243218,0.624687 -2.4901048,1.297081 -0.593842,0.705742 -1.422534,2.272173 -1.422534,2.68894 0,0.616471 -0.838055,1.149878 -1.428682,0.90933 z"
     id="path752" /><path
     style="fill:#ffcc00;stroke-width:0.185874"
     d="M 34.384621,11.616739 C 34.283187,11.483783 34.052603,10.975583 33.872212,10.487406 33.465001,9.385402 32.528962,7.986388 31.881194,7.511607 31.612139,7.314404 30.986792,7.077354 30.491533,6.984829 29.33023,6.767875 28.984543,6.437351 29.220091,5.769159 c 0.142196,-0.403376 0.356152,-0.54113 1.105682,-0.711885 0.511152,-0.116448 1.110186,-0.3099 1.331186,-0.429893 0.703121,-0.381763 1.720256,-1.738421 2.106849,-2.810123 0.529926,-1.469049 0.62675,-1.594674 1.229063,-1.594674 0.432482,0 0.591781,0.123306 0.816173,0.631763 1.292057,2.927702 2.203492,3.948154 3.754987,4.204115 0.969534,0.159952 1.263601,0.375499 1.263601,0.926203 0,0.567613 -0.312954,0.787884 -1.472805,1.036628 -1.230139,0.263817 -2.27284,1.243766 -2.92214,2.746279 -0.787627,1.822607 -0.892765,1.976655 -1.38891,2.035041 -0.261102,0.03073 -0.557722,-0.05292 -0.659156,-0.185874 z"
     id="path754" /></svg>
