<?xml version="1.0" encoding="UTF-8" standalone="no"?>
<svg
   xmlns:dc="http://purl.org/dc/elements/1.1/"
   xmlns:cc="http://creativecommons.org/ns#"
   xmlns:rdf="http://www.w3.org/1999/02/22-rdf-syntax-ns#"
   xmlns:svg="http://www.w3.org/2000/svg"
   xmlns="http://www.w3.org/2000/svg"
   xmlns:sodipodi="http://sodipodi.sourceforge.net/DTD/sodipodi-0.dtd"
   xmlns:inkscape="http://www.inkscape.org/namespaces/inkscape"
   inkscape:version="1.0 (4035a4fb49, 2020-05-01)"
   height="35.200001"
   width="53"
   sodipodi:docname="pc_gris.svg"
   id="svg604"
   xml:space="preserve"
   viewBox="0 0 53 35.200001"
   y="0px"
   x="0px"
   version="1.1"><metadata
     id="metadata610"><rdf:RDF><cc:Work
         rdf:about=""><dc:format>image/svg+xml</dc:format><dc:type
           rdf:resource="http://purl.org/dc/dcmitype/StillImage" /></cc:Work></rdf:RDF></metadata><defs
     id="defs608" /><sodipodi:namedview
     inkscape:current-layer="svg604"
     inkscape:window-maximized="1"
     inkscape:window-y="-8"
     inkscape:window-x="-8"
     inkscape:cy="19.652045"
     inkscape:cx="26.5"
     inkscape:zoom="6.725"
     showgrid="false"
     id="namedview606"
     inkscape:window-height="705"
     inkscape:window-width="1366"
     inkscape:pageshadow="2"
     inkscape:pageopacity="0"
     guidetolerance="10"
     gridtolerance="10"
     objecttolerance="10"
     borderopacity="1"
     bordercolor="#666666"
     pagecolor="#ffffff" /><style
     id="style582"
     type="text/css">
	.st0{display:none;}
	.st1{display:inline;}
</style><g
     transform="translate(-5.5,-14.4)"
     id="g598"><g
       id="g596"><rect
         id="rect584"
         height="1.6"
         width="7.1999998"
         y="20.5"
         x="46.599998" /><path
         id="path586"
         d="m 50.2,40 c -1.4,0 -2.5,-0.9 -2.9,-2.1 H 42 c 0,0 0,0 0,0 v 10.7 c 0,0.6 0.4,1 1,1 h 14.5 c 0.5,0 1,-0.4 1,-1 V 37.9 h -5.3 c -0.4,1.2 -1.6,2.1 -3,2.1 z" /><path
         id="path588"
         d="M 57.5,14.4 H 43 c -0.6,0 -1,0.4 -1,1 v 20.5 c 0,0 0,0 0,0 h 5.3 c 0.4,-1.2 1.6,-2.1 2.9,-2.1 1.4,0 2.5,0.9 3,2.1 h 5.3 V 15.4 c 0,-0.6 -0.5,-1 -1,-1 z m -2.7,15.5 h -9.1 c -0.6,0 -1,-0.5 -1,-1 0,-0.5 0.4,-1 1,-1 h 9.1 c 0.5,0 1,0.5 1,1 0,0.5 -0.5,1 -1,1 z m 0,-2.5 h -9.1 c -0.6,0 -1,-0.5 -1,-1 0,-0.6 0.4,-1 1,-1 h 9.1 c 0.5,0 1,0.4 1,1 0,0.5 -0.5,1 -1,1 z m 1,-4.3 c 0,0.5 -0.5,1 -1,1 h -9.1 c -0.6,0 -1,-0.5 -1,-1 v -3.6 c 0,-0.6 0.4,-1 1,-1 h 9.1 c 0.5,0 1,0.4 1,1 z" /><path
         id="path590"
         d="m 51.3,36.9 c 0,-0.6 -0.5,-1.1 -1.1,-1.1 -0.6,0 -1.1,0.5 -1.1,1.1 0,0.6 0.5,1.1 1.1,1.1 0.6,0 1.1,-0.5 1.1,-1.1 z" /><path
         id="path592"
         d="M 40.7,23.3 C 40.7,21 38.8,19 36.4,19 H 9.8 c -2.3,0 -4.3,1.9 -4.3,4.3 v 13 h 35.2 z" /><path
         id="path594"
         d="m 36.4,42.4 c 2.3,0 4.2,-1.8 4.2,-4.1 H 5.5 c 0.1,2.3 1.9,4.1 4.2,4.1 h 11.1 v 2.4 h -1.5 c -2,0 -3.7,1.6 -3.7,3.7 v 0.1 c 0,0.6 0.4,1 1,1 h 12.9 c 0.5,0 1,-0.4 1,-1 v -0.1 c 0,-2 -1.6,-3.7 -3.7,-3.7 H 25.2 V 42.4 Z M 23.8,40 v 0 c -0.2,0.2 -0.5,0.3 -0.7,0.3 -0.2,0 -0.5,-0.1 -0.7,-0.3 -0.4,-0.4 -0.4,-1 0,-1.4 0.4,-0.4 1,-0.4 1.4,0 0.4,0.4 0.4,1 0,1.4 z" /></g></g><path
     id="path612"
     d="M 0.0619197,14.930855 C 0.1043887,8.225318 0.1170337,7.955222 0.4190567,7.302483 0.8768149,6.313162 1.5753138,5.592726 2.5324754,5.122689 L 3.3773234,4.707807 H 17.652416 31.927509 l 0.761837,0.401883 c 0.419009,0.221036 1.038279,0.715939 1.376153,1.099785 1.044907,1.187078 1.059036,1.306271 1.059036,8.934243 v 6.73881 H 17.571213 0.0178915 Z"
     style="fill:#666666;stroke-width:0.148699" /><path
     id="path614"
     d="m 10.44052,34.819331 c -0.357342,-0.357343 -0.371963,-0.735826 -0.06797,-1.759493 0.486826,-1.639322 1.849538,-2.548835 3.822613,-2.551322 l 1.152417,-0.0015 v -1.256241 -1.25624 L 9.2881,27.947575 C 2.4988958,27.89501 2.6918946,27.923765 1.4510443,26.779989 0.8476411,26.223792 0.342116,25.308245 0.1221385,24.373234 L 0.0259325,23.964312 H 8.527648 c 8.226905,0 8.493762,0.0088 8.255622,0.271932 -0.30927,0.341739 -0.315416,0.901217 -0.01462,1.33067 0.297859,0.425251 1.241192,0.459682 1.604209,0.05855 0.278543,-0.307786 0.321324,-0.945345 0.09217,-1.373532 -0.151334,-0.282773 -0.01345,-0.287622 8.17844,-0.287622 h 8.332368 l -0.0015,0.408922 c -0.0021,0.593611 -0.627018,1.821355 -1.207103,2.371565 -0.275814,0.26161 -0.836053,0.62964 -1.244975,0.817844 -0.731569,0.336701 -0.840693,0.34291 -6.802974,0.387064 l -6.05948,0.04487 v 1.241887 1.241887 l 1.387648,0.05153 c 1.237009,0.04594 1.466609,0.100382 2.115027,0.501556 0.983912,0.608743 1.590133,1.601444 1.672385,2.738572 0.102771,1.420299 0.505142,1.346717 -7.364247,1.346717 -6.534447,0 -6.74147,-0.0088 -7.03011,-0.297398 z"
     style="fill:#666666;stroke-width:0.148699" /><path
     id="path616"
     d="M 36.857619,34.844797 C 36.637916,34.602028 36.611524,33.980102 36.611524,29.04554 v -5.527324 h 2.602231 c 2.211735,0 2.60223,0.03341 2.60223,0.22262 0,0.337188 1.051822,1.431981 1.593737,1.658847 0.263173,0.110175 0.871607,0.200317 1.352077,0.200317 1.166205,0 2.035325,-0.454417 2.630394,-1.375296 l 0.446097,-0.690341 2.565056,-0.0081 2.565055,-0.0081 v 5.407456 c 0,5.245418 -0.0092,5.419196 -0.30819,5.799256 l -0.30819,0.391801 h -7.624154 c -7.197309,0 -7.637931,-0.01523 -7.870248,-0.271932 z"
     style="fill:#666666;stroke-width:0.148699" /><path
     id="path618"
     d="m 36.611524,11.05593 c 0,-8.728707 0.03357,-10.426431 0.210991,-10.669145 0.203392,-0.278249 0.484626,-0.290125 7.809504,-0.329764 l 7.598515,-0.04112 0.368934,0.368934 0.368933,0.368934 V 11.0951 21.436431 H 50.36999 47.771578 l -0.213592,-0.408922 c -0.762909,-1.460592 -2.705765,-2.08945 -4.208244,-1.362113 -0.644895,0.312189 -1.533757,1.228931 -1.533757,1.581866 0,0.145886 -0.595407,0.189169 -2.60223,0.189169 h -2.602231 z m 13.082571,4.390248 c 0.512219,-0.25917 0.75857,-0.798592 0.579641,-1.269211 -0.288026,-0.757566 -0.308991,-0.760484 -5.500895,-0.765546 -4.685018,-0.0046 -4.86315,0.0057 -5.241635,0.303461 -0.609625,0.479531 -0.468122,1.483262 0.24989,1.772556 0.53772,0.216653 9.4768,0.179447 9.912999,-0.04126 z m 0.129221,-2.575843 c 0.696738,-0.488014 0.660215,-1.491289 -0.06634,-1.82233 -0.252694,-0.115135 -1.883055,-0.169195 -5.102656,-0.169195 -4.561384,0 -4.745387,0.01107 -5.123115,0.308191 -0.541841,0.426212 -0.541841,1.18789 0,1.614102 0.377917,0.29727 0.561167,0.308191 5.171374,0.308191 4.149285,0 4.824564,-0.03151 5.120737,-0.238959 z m 0.204339,-3.445469 c 0.322245,-0.322423 0.338516,-0.446349 0.338516,-2.578194 0,-2.174168 -0.01024,-2.247782 -0.351046,-2.523751 -0.329972,-0.267195 -0.649092,-0.284259 -5.315985,-0.284259 -4.766674,0 -4.976815,0.01188 -5.262337,0.297397 -0.270174,0.270175 -0.297398,0.495663 -0.297398,2.463308 0,2.263193 0.08893,2.663972 0.641691,2.891852 0.178669,0.07366 2.48107,0.120069 5.116447,0.103136 4.768752,-0.03064 4.793209,-0.0324 5.130112,-0.369489 z"
     style="fill:#666666;stroke-width:0.148699" /><path
     id="path620"
     d="m 42.976929,7.644987 c 1.006549,-0.02576 2.612497,-0.02568 3.568773,1.77e-4 0.956277,0.02586 0.132737,0.04694 -1.830089,0.04684 -1.962825,-9.7e-5 -2.745233,-0.02126 -1.738684,-0.04702 z"
     style="fill:#666666;stroke-width:0.148699" /><path
     id="path622"
     d="m 44.046468,23.220818 c -0.427883,-0.427884 -0.384957,-1.099132 0.0944,-1.476196 0.21549,-0.169505 0.474124,-0.308191 0.574742,-0.308191 0.100618,0 0.359252,0.138686 0.574743,0.308191 0.497086,0.391008 0.517387,1.008975 0.04764,1.450276 -0.429304,0.40331 -0.904603,0.412849 -1.291532,0.02592 z"
     style="fill:#666666;stroke-width:0.148699" /><path
     id="path624"
     d="M 41.22119,6.863941 V 6.120446 h 3.494423 3.494424 V 6.863941 7.607435 H 44.715613 41.22119 Z"
     style="fill:#666666;stroke-width:0.148699" /></svg>
