<svg id="Capa_1" enable-background="new 0 0 502 502" height="512" viewBox="0 0 502 502" width="512" xmlns="http://www.w3.org/2000/svg" xmlns:xlink="http://www.w3.org/1999/xlink"><linearGradient id="SVGID_1_" gradientUnits="userSpaceOnUse" x1="253.589" x2="253.589" y1="495.086" y2="12.472"><stop offset="0" stop-color="#f4c22c"/><stop offset="1" stop-color="#f9e198"/></linearGradient><linearGradient id="SVGID_2_" gradientUnits="userSpaceOnUse" x1="81.606" x2="81.606" y1="156.399" y2="-26.187"><stop offset="0" stop-color="#ad7d63"/><stop offset="1" stop-color="#cb9d82"/></linearGradient><linearGradient id="SVGID_3_" gradientUnits="userSpaceOnUse" x1="281.165" x2="281.165" y1="193.772" y2="19.468"><stop offset="0" stop-color="#89c65e"/><stop offset="1" stop-color="#bcd986"/></linearGradient><g><path d="m421.601 210.497c-58.562-58.562-110.228-29.807-172.723-92.302-46.841-46.841-122.785-46.841-169.626 0s-46.841 122.785 0 169.626c62.495 62.495 33.74 114.161 92.302 172.723 60.71 60.71 165.9 53.95 234.949-15.098s75.809-174.239 15.098-234.949z" fill="url(#SVGID_1_)"/><path d="m115.07 156.713c-10.36 8.977-25.672 8.543-35.511-.545-6.074-5.599-11.422-11.845-16.085-18.522-7.333 11.265-12.584 23.489-15.748 36.13 2.602 2.82 5.293 5.529 8.084 8.101 23.063 21.305 58.473 21.828 82.179 1.289 8.815-7.638 14.937-17.218 18.283-27.55 3.347-10.335-3.803-21.119-14.599-22.335-8.203-.924-16.171 3.838-18.757 11.677-1.455 4.408-4.081 8.493-7.846 11.755z" fill="#fcb500"/><path d="m79.559 156.167c-39.788-36.673-48.8-100.913-33.746-134.646 8.315-18.633 25.073-25.535 41.985-19.26 16.913 6.275 25.535 25.073 19.26 41.985-1.946 5.244-10.476 17.759-7.139 38.659 3.314 21.232 17.917 36.329 17.841 36.216 9.638 11.124 8.433 27.954-2.69 37.591-10.36 8.977-25.672 8.544-35.511-.545z" fill="url(#SVGID_2_)"/><path d="m246.596 190.13c-11.192 1.897-21.839-.406-30.62-5.581-7.927-4.673-18.086-2.626-23.37 4.908-5.799 8.269-3.464 19.818 5.222 24.972 16.255 9.646 35.637 13.425 54.616 10.209 42.662-7.23 76.918-23.52 101.815-48.417 1.317-1.317 2.596-2.674 3.865-4.043-12.935-4.233-25.855-7.356-38.978-11.574-22.008 17.153-49.022 25.538-72.55 29.526z" fill="#fcb500"/><path d="m329.511 151.472c23.436-23.436 34.018-55.539 38.659-82.915 5.239-30.906-21.53-57.674-52.435-52.435-27.376 4.64-59.479 15.222-82.915 38.659-23.436 23.436-34.018 55.539-38.659 82.915-5.239 30.906 21.53 57.674 52.436 52.435 27.375-4.641 59.478-15.223 82.914-38.659z" fill="url(#SVGID_3_)"/><path d="m260.126 135.665c-2.943 0-5.886-1.123-8.132-3.368-4.491-4.491-4.491-11.773 0-16.264l42.079-42.079c4.492-4.49 11.771-4.49 16.264 0 4.491 4.491 4.491 11.772 0 16.264l-42.079 42.079c-2.246 2.245-5.189 3.368-8.132 3.368z" fill="#6dab65"/><g><ellipse cx="225.681" cy="388.914" fill="#ff8392" rx="14.937" ry="12.003" transform="matrix(.707 -.707 .707 .707 -208.904 273.493)"/><ellipse cx="349.97" cy="264.625" fill="#ff8392" rx="14.936" ry="12.003" transform="matrix(.707 -.707 .707 .707 -84.614 324.976)"/><circle cx="222.845" cy="349.864" fill="#fff" r="29.618"/><path d="m243.788 328.921c6.894 6.894 6.894 18.071 0 24.964-6.894 6.894-18.07 6.894-24.964 0s-6.894-18.07 0-24.964 18.07-6.894 24.964 0z" fill="#3b3b44"/><circle cx="310.92" cy="261.789" fill="#fff" r="29.618"/><g fill="#3b3b44"><ellipse cx="319.338" cy="253.372" rx="17.652" ry="17.652" transform="matrix(.957 -.29 .29 .957 -59.721 103.411)"/><path d="m292.129 312.332c6.776 6.776 8.074 16.465 2.899 21.64s-14.864 3.877-21.64-2.899-8.075-16.465-2.899-21.64 14.864-3.877 21.64 2.899z"/></g></g><g fill="#fff6bd"><path d="m251.731 479.853c-.609 0-1.227-.056-1.847-.172-3.943-.736-7.885-1.662-11.716-2.751-5.313-1.511-8.395-7.041-6.885-12.354s7.039-8.396 12.354-6.885c3.242.922 6.579 1.705 9.92 2.329 5.429 1.014 9.008 6.237 7.993 11.666-.899 4.81-5.099 8.167-9.819 8.167z"/><path d="m292.855 480.85c-4.955 0-9.258-3.681-9.906-8.727-.703-5.477 3.167-10.489 8.645-11.193 11.578-1.487 23.148-4.53 34.389-9.044 5.127-2.062 10.947.428 13.006 5.553s-.428 10.948-5.553 13.006c-12.813 5.146-26.033 8.619-39.293 10.323-.434.054-.864.082-1.288.082z"/></g></g></svg>