<?xml version="1.0" encoding="UTF-8" standalone="no"?>
<svg
   xmlns:dc="http://purl.org/dc/elements/1.1/"
   xmlns:cc="http://creativecommons.org/ns#"
   xmlns:rdf="http://www.w3.org/1999/02/22-rdf-syntax-ns#"
   xmlns:svg="http://www.w3.org/2000/svg"
   xmlns="http://www.w3.org/2000/svg"
   xmlns:sodipodi="http://sodipodi.sourceforge.net/DTD/sodipodi-0.dtd"
   xmlns:inkscape="http://www.inkscape.org/namespaces/inkscape"
   inkscape:version="1.0 (4035a4fb49, 2020-05-01)"
   height="100.00119"
   width="90.063042"
   sodipodi:docname="perro_verde.svg"
   id="svg896"
   xml:space="preserve"
   enable-background="new 0 0 90.063 100"
   viewBox="0 0 90.063038 100.00119"
   y="0px"
   x="0px"
   version="1.1"><metadata
     id="metadata902"><rdf:RDF><cc:Work
         rdf:about=""><dc:format>image/svg+xml</dc:format><dc:type
           rdf:resource="http://purl.org/dc/dcmitype/StillImage" /></cc:Work></rdf:RDF></metadata><defs
     id="defs900" /><sodipodi:namedview
     inkscape:current-layer="svg896"
     inkscape:window-maximized="1"
     inkscape:window-y="-8"
     inkscape:window-x="-8"
     inkscape:cy="25.324471"
     inkscape:cx="32.962269"
     inkscape:zoom="4.304"
     showgrid="false"
     id="namedview898"
     inkscape:window-height="705"
     inkscape:window-width="1366"
     inkscape:pageshadow="2"
     inkscape:pageopacity="0"
     guidetolerance="10"
     gridtolerance="10"
     objecttolerance="10"
     borderopacity="1"
     bordercolor="#666666"
     pagecolor="#ffffff" /><path
     id="path890"
     d="m 89.68418,63.721193 c -0.152,-1.12 -1.184,-1.956 -2.288,-1.816 -1.126,0.105 -1.969,1.081 -1.909,2.212 0.601,11.225 -7.804,14.295 -11.809,15.12 -2.082,-15.844 -20.728,-37.603 -23.954,-39.211 -0.958,-0.728 -1.948,-5.615 -2.142,-10.449 0.307,-0.378 0.597,-0.79 0.869,-1.235 4.936,-8.112 -2.27,-23.9010004 -7.856,-27.39100042 -5.55,-3.47299998 -18.935,3.57400002 -21.56,5.02100002 -0.342,0.188 -0.625,0.468 -0.817,0.807 l -4.582,8.0860004 -11.8540004,1.93 c -0.99299998,0.162 -1.73299998,1.001 -1.76899998,2.006 -0.04,1.147 -0.259,11.336 4.57799998,15.886 1.73,1.63 3.944,2.367 6.4000004,2.126 6.896,-0.662 10.149,0.791 11.036,1.483 -0.068,0.259 -0.161,0.591 -0.267,0.984 -1.84,6.787 -7.349,27.111 4.85,36.554 v 13.575 c -2.638,1.215 -7.092,3.793 -7.172,7.37 v 1.112 c 0,1.165 0.944,2.108997 2.109,2.108997 h 10.891 c -0.175,-0.971997 0.065,-2.088997 0.589,-2.925997 0.517,-0.854 1.21,-1.48 1.911,-1.995 1.421,-1.009 2.933,-1.64 4.441,-2.169 1.099,-0.381 2.207,-0.678 3.318,-0.946 -0.542,-0.423 -1.056,-0.888 -1.507,-1.454 -1.95,-2.104 -2.926,-5.064 -2.752,-7.764 0.12,-2.722 1.067,-5.184 2.209,-7.437 1.165,-2.253 2.583,-4.337 4.21,-6.224 -1.343,2.093 -2.437,4.334 -3.241,6.639 -0.788,2.295 -1.307,4.714 -1.07,6.986 0.203,2.278 1.249,4.238 2.881,5.566 0.746,0.736 1.783,1.176 2.743,1.667 0.997,0.446 2.15,0.677 3.188,1.034 1.107,0.38 1.696,1.586 1.316,2.693 -0.264,0.768 -0.925,1.287 -1.675,1.406 l -0.149,0.023 -0.004,0.001 c -1.387,-0.001 -2.886,0.082 -4.32,0.217 -1.445,0.14 -2.882,0.34 -4.269,0.649 -1.382,0.306 -2.74,0.721 -3.866,1.341 -1.13,0.643 -1.876,1.425 -1.827,2.453 0.005,0.085 -0.021,0.161 -0.036,0.240997 h 38.662 c 1.114,0 2.037,-0.866997 2.104,-1.978997 l 0.239,-3.865 c 3.614,-0.301 6.631,-1.767 8.982,-4.372 7.479,-8.277 5.265,-25.344 5.169,-26.064 z" /><path
     id="path904"
     d="m 20.718394,99.671175 c -0.625146,-0.251757 -1.231961,-1.368376 -1.231961,-2.266973 0,-0.366517 0.163841,-1.218106 0.364092,-1.892423 0.486857,-1.639426 2.593915,-3.73029 5.054217,-5.015374 l 1.779284,-0.929368 0.0025,-6.895723 0.0025,-6.895722 -1.41845,-1.352419 c -6.59646,-6.28937 -7.964695,-17.796197 -3.928703,-33.040235 0.385167,-1.454784 0.700304,-2.785162 0.700304,-2.956394 0,-0.430564 -1.0858,-0.950692 -2.953164,-1.414647 -1.206247,-0.299697 -2.698458,-0.39614 -6.340516,-0.4098 -4.5200237,-0.01695 -4.8199277,-0.0459 -5.8786649,-0.56746 C 5.3459795,35.28394 3.853979,33.846182 2.868295,32.178561 1.2566221,29.451867 0.20467817,24.839748 0.20298029,20.492814 0.20157329,16.890569 -0.53895777,17.283007 9.2285687,15.709781 L 13.726877,14.985252 16.1051,10.803096 c 2.74681,-4.8303253 2.635382,-4.7263746 7.386556,-6.8908544 6.885369,-3.13674909 12.675279,-4.40856691 15.666928,-3.44141563 1.179863,0.38143046 2.849152,1.61472123 3.840407,2.83734033 4.390667,5.4154745 7.145992,13.0462897 6.859003,18.9958597 -0.134354,2.785292 -0.518399,4.21625 -1.624584,6.053232 l -0.77694,1.290218 0.188671,2.194912 c 0.414331,4.820139 1.316469,8.007495 2.435995,8.606647 1.49785,0.801626 7.183094,7.343141 10.969828,12.622028 6.512771,9.07911 11.505197,19.189008 12.250583,24.808005 0.09524,0.717946 0.288857,1.207978 0.510959,1.293208 0.622319,0.238806 4.179831,-1.13924 5.962881,-2.309793 2.100086,-1.378687 3.379085,-2.816833 4.405284,-4.953439 0.938011,-1.952995 1.267367,-3.421666 1.456789,-6.49611 0.122809,-1.993293 0.216322,-2.387712 0.6748,-2.84619 0.68701,-0.687012 1.740051,-0.688306 2.536626,-0.0031 0.535289,0.460434 0.645565,0.799714 0.849578,2.613847 0.31763,2.824443 0.09853,10.396566 -0.376297,13.004807 -1.623601,8.918539 -5.756015,14.246625 -12.063833,15.554378 -0.875316,0.181473 -1.650614,0.389082 -1.722884,0.461352 -0.07227,0.07227 -0.179526,0.994115 -0.238343,2.048543 -0.120356,2.157621 -0.495753,3.111524 -1.352728,3.437345 -0.355448,0.135134 -8.194782,0.222353 -19.985941,0.222353 H 34.557348 L 34.715882,99.3835 c 0.681099,-2.245967 4.782129,-3.629364 12.132621,-4.092689 2.779963,-0.175227 2.938701,-0.212746 3.45889,-0.817502 0.646744,-0.751884 0.720332,-1.983408 0.168808,-2.825139 -0.265235,-0.404798 -0.865674,-0.721111 -2.032993,-1.070985 -7.7322,-2.317531 -9.691828,-7.730133 -5.988422,-16.540363 0.491928,-1.170269 1.266742,-2.755088 1.72181,-3.521817 1.547388,-2.60714 0.514974,-1.745804 -1.554701,1.297075 -2.583215,3.797902 -4.020153,7.360455 -4.243113,10.519823 -0.230479,3.265941 0.767033,6.185031 2.876341,8.417219 l 1.116998,1.182073 -1.853969,0.51184 c -4.967711,1.371475 -8.229672,4.0245 -8.247806,6.708123 l -0.0051,0.755111 -5.518122,-0.01473 c -3.034968,-0.0081 -5.747895,-0.107259 -6.028727,-0.220353 z"
     style="fill:#55d400;stroke-width:0.232342" /></svg>
