<?xml version="1.0" encoding="UTF-8" standalone="no"?>
<svg
   xmlns:dc="http://purl.org/dc/elements/1.1/"
   xmlns:cc="http://creativecommons.org/ns#"
   xmlns:rdf="http://www.w3.org/1999/02/22-rdf-syntax-ns#"
   xmlns:svg="http://www.w3.org/2000/svg"
   xmlns="http://www.w3.org/2000/svg"
   xmlns:sodipodi="http://sodipodi.sourceforge.net/DTD/sodipodi-0.dtd"
   xmlns:inkscape="http://www.inkscape.org/namespaces/inkscape"
   inkscape:version="1.0 (4035a4fb49, 2020-05-01)"
   sodipodi:docname="pina_amarilla.svg"
   id="svg348"
   xml:space="preserve"
   style="enable-background:new 0 0 360 360;"
   viewBox="0 0 360 450"
   y="0px"
   x="0px"
   version="1.1"><metadata
     id="metadata354"><rdf:RDF><cc:Work
         rdf:about=""><dc:format>image/svg+xml</dc:format><dc:type
           rdf:resource="http://purl.org/dc/dcmitype/StillImage" /></cc:Work></rdf:RDF></metadata><defs
     id="defs352" /><sodipodi:namedview
     inkscape:current-layer="svg348"
     inkscape:window-maximized="1"
     inkscape:window-y="-8"
     inkscape:window-x="-8"
     inkscape:cy="225"
     inkscape:cx="180"
     inkscape:zoom="1.1955556"
     showgrid="false"
     id="namedview350"
     inkscape:window-height="705"
     inkscape:window-width="1366"
     inkscape:pageshadow="2"
     inkscape:pageopacity="0"
     guidetolerance="10"
     gridtolerance="10"
     objecttolerance="10"
     borderopacity="1"
     bordercolor="#666666"
     pagecolor="#ffffff" /><g
     id="g342"><path
       id="path290"
       d="M114.6,241.7l-2.8,1.5c0.4,11,1.4,21.3,3.9,30.6l28.6-15.8L114.6,241.7z" /><polygon
       id="polygon292"
       points="146.9,256.6 176.6,240.2 146.9,223.9 117.2,240.2  " /><polygon
       id="polygon294"
       points="179.2,274.3 208.8,258 179.2,241.7 149.5,258  " /><polygon
       id="polygon296"
       points="179.2,206.1 149.5,222.5 179.2,238.8 208.8,222.5  " /><path
       id="path298"
       d="M111.7,240.1c0,0.1,0,0.2,0,0.3l0.3-0.2L111.7,240.1z" /><polygon
       id="polygon300"
       points="146.9,292.1 176.6,275.8 146.9,259.4 117.2,275.8  " /><path
       id="path302"
       d="M228.5,301.5c7.1-6.4,11.7-14.6,14.7-24.1L214,293.5L228.5,301.5z" /><path
       id="path304"
       d="M144.3,222.5l-29.7-16.3l-0.9,0.5c-1.4,8.4-2.1,17.5-2.1,26.9c0,1.2,0,2.4,0,3.6l2.9,1.6L144.3,222.5z" /><path
       id="path306"
       d="M117.1,278.5c2.9,8.7,7.3,16.3,13.8,22.4l13.4-7.4L117.1,278.5z" /><polygon
       id="polygon308"
       points="241.1,275.8 211.4,259.4 181.8,275.8 211.4,292.1  " /><path
       id="path310"
       d="M248.2,241.3c0-0.7,0-1.4,0-2.2l-2,1.1L248.2,241.3z" /><polygon
       id="polygon312"
       points="211.4,223.9 181.8,240.2 211.4,256.6 241.1,240.2  " /><path
       id="path314"
       d="M243.7,206.1L214,222.5l29.7,16.3l4.6-2.5c0-0.9,0-1.8,0-2.7c0-9.1-0.6-17.8-1.9-25.9L243.7,206.1z" /><path
       id="path316"
       d="M181.8,311.3l8.4,4.7c16-1.4,27.8-5.9,36.3-12.7l-15-8.3L181.8,311.3z" /><path
       id="path318"
       d="M146.9,295l-14,7.7c8.3,6.9,19.8,11.5,35.5,13.1l8.2-4.5L146.9,295z" /><polygon
       id="polygon320"
       points="208.8,293.5 179.2,277.2 149.5,293.5 179.2,309.9  " /><path
       id="path322"
       d="M233.2,173.5c-6.2-8.2-14.5-14.6-25.7-18.5l-25.7,14.2l29.7,16.3L233.2,173.5z" /><path
       id="path324"
       d="M126.3,174.2l20.6,11.3l29.7-16.3l-25.1-13.8C140.5,159.4,132.3,165.9,126.3,174.2z" /><path
       id="path326"
       d="M172.9,316.2c1.8,0.1,3.6,0.2,5.5,0.2l0,0c0.1,0,0.3,0,0.4,0c0.4,0,0.8,0,1.3,0c0.4,0,0.8,0,1.3,0c0.1,0,0.3,0,0.4,0l0,0   c1.3,0,2.6-0.1,3.9-0.2l-6.4-3.5L172.9,316.2z" /><path
       id="path328"
       d="M214,258l29.7,16.3l0.5-0.3c2.4-9.1,3.5-19.2,3.9-29.9l-4.4-2.4L214,258z" /><path
       id="path330"
       d="M114.4,203.1l0.2,0.1l29.7-16.3l-19.5-10.7C119.8,183.9,116.4,193,114.4,203.1z" /><path
       id="path332"
       d="M245.5,202.3c-2.1-10.1-5.6-19.1-10.7-26.8L214,186.9l29.7,16.3L245.5,202.3z" /><polygon
       id="polygon334"
       points="211.4,188.4 181.8,204.7 211.4,221 241.1,204.7  " /><polygon
       id="polygon336"
       points="176.6,204.7 146.9,188.4 117.2,204.7 146.9,221  " /><polygon
       id="polygon338"
       points="149.5,186.9 179.2,203.3 208.8,186.9 179.2,170.6  " /><path
       id="path340"
       d="M67.4,116.1c0,0,75.3,14.2,102.8,35.1c-5.7,0.6-10.9,1.6-15.5,3l24.4,13.5l6.2-3.4c0,0.2,0.1,0.4,0.1,0.6   c0,0,0.1-0.3,0.3-0.8l18.4-10.1c-4.4-1.3-9.2-2.2-14.5-2.7c27.5-20.9,102.8-35.1,102.8-35.1c-56.7-18.3-94.4,9-102.2,15.4   c23.6-27.4,83.2-59.7,83.2-59.7c-44.4,0-71,20.7-84,34.9c10.8-28,35.5-63.2,35.5-63.2c-23.5,11.7-36.2,28-43.1,41.8   c-6.9-13.8-19.6-30.1-43.1-41.8c0,0,23.1,33,34.4,60.5c-13.7-13.9-39.8-32.3-81.5-32.3c0,0,59.6,32.3,83.2,59.7   c-6.1-5-30.1-22.4-67-21.5C96,109.7,82.4,111.3,67.4,116.1z" /></g><path
     id="path356"
     d="m 164.94424,265.89919 c -7.59062,-4.17884 -13.90126,-7.69431 -14.02365,-7.81215 -0.43372,-0.41759 28.19808,-15.67546 28.88335,-15.39192 1.94218,0.80359 27.78096,15.22046 27.59586,15.39723 -0.53452,0.51049 -27.83212,15.41978 -28.21929,15.4127 -0.23933,-0.004 -6.64566,-3.42701 -14.23627,-7.60586 z"
     style="fill:#ffff00;stroke-width:0.836431" /><path
     id="path358"
     d="m 165.42005,230.63787 c -7.62229,-4.15553 -13.85871,-7.81239 -13.85871,-8.12635 0,-0.31396 6.23049,-4.00844 13.84554,-8.20996 l 13.84554,-7.63912 13.52186,7.53989 c 7.43701,4.14694 13.71849,7.73653 13.95882,7.97687 0.51581,0.5158 0.5837,0.4746 -15.17458,9.20835 l -12.27977,6.80584 z"
     style="fill:#ffff00;stroke-width:0.836431" /><path
     id="path360"
     d="m 164.92729,194.80907 c -7.58129,-4.18401 -13.88431,-7.70306 -14.0067,-7.82011 -0.12239,-0.11706 6.22337,-3.72191 14.10168,-8.01078 11.01263,-5.99517 14.64146,-7.60913 15.6965,-6.9812 0.75477,0.44921 7.11173,3.96492 14.12657,7.81269 7.01485,3.84776 12.65581,7.09438 12.53548,7.21472 -0.54268,0.54267 -27.71282,15.39197 -28.16309,15.39197 -0.27845,0 -6.70914,-3.42328 -14.29044,-7.60729 z"
     style="fill:#ffff00;stroke-width:0.836431" /><path
     id="path362"
     d="m 173.30855,164.00716 c -2.99024,-1.71863 -8.20656,-4.64473 -11.59182,-6.50244 l -6.15501,-3.37765 5.7368,-0.99741 c 3.15523,-0.54857 6.66854,-1.19197 7.80734,-1.42977 l 2.07055,-0.43237 -2.07055,-1.60793 c -3.77552,-2.93195 -19.48795,-10.55705 -29.74342,-14.43421 -15.50835,-5.86306 -43.389894,-13.63862 -65.17099,-18.17479 l -5.018588,-1.04518 7.527881,-1.92907 c 11.418234,-2.926 22.593727,-3.95843 36.802977,-3.39998 21.49526,0.84481 39.8189,6.57701 55.89625,17.48608 2.68067,1.81893 5.04245,3.13864 5.2484,2.93269 0.20596,-0.20596 -3.17123,-3.76417 -7.50485,-7.90714 -13.15129,-12.57271 -33.04378,-26.832076 -59.07661,-42.34738 -6.67053,-3.975576 -12.692839,-7.586223 -13.382895,-8.023663 -1.61498,-1.023765 6.738045,-0.406666 17.983275,1.328558 20.39686,3.14739 41.07732,12.928872 56.25,26.605225 2.41519,2.17701 4.39126,3.59956 4.39126,3.16123 0,-3.16065 -14.43513,-30.029906 -25.21956,-46.943168 -3.6346,-5.700156 -6.407,-10.565279 -6.1609,-10.811383 0.24611,-0.246105 4.18791,2.082839 8.75957,5.175431 10.05621,6.80273 21.42951,18.505453 26.80305,27.579393 2.07016,3.495757 3.99662,6.366683 4.28102,6.379836 0.28439,0.01316 1.97816,-2.475091 3.76394,-5.529433 6.68219,-11.429048 18.5381,-23.233983 31.07843,-30.944815 3.09413,-1.902521 5.72957,-3.366936 5.85655,-3.254255 0.12699,0.112681 -2.7425,4.868639 -6.37664,10.568795 -9.1486,14.34966 -16.26626,26.895993 -21.47809,37.859597 -6.63419,13.955672 -6.62867,14.335582 0.11809,8.124752 8.11501,-7.470388 16.13206,-12.985349 25.8329,-17.770543 13.91697,-6.864906 32.0433,-11.57665 44.53599,-11.57665 h 5.42281 l -14.1058,8.476315 c -16.46634,9.8948 -33.27019,21.115688 -43.7439,29.210308 -7.9515,6.14532 -22.63884,19.73898 -22.63884,20.95306 0,0.40469 2.5104,-0.98288 5.57866,-3.08349 24.51241,-16.78185 54.95343,-21.83193 86.847,-14.40765 8.72286,2.03053 8.72231,2.03102 -5.85502,5.26089 -24.87024,5.51044 -51.00677,13.54822 -66.71919,20.51818 -10.81003,4.79529 -20.9119,10.65776 -20.23952,11.74569 0.26775,0.43322 1.87607,0.81659 3.57406,0.85194 1.69799,0.0354 4.5078,0.50585 6.24402,1.04554 l 3.15678,0.98126 -11.46247,6.27324 c -6.30437,3.45027 -11.67705,6.33261 -11.9393,6.40519 -0.26227,0.0726 -2.9234,-1.2742 -5.91364,-2.99283 z"
     style="fill:#ffff00;stroke-width:0.836431" /><path
     id="path364"
     d="m 137.34201,179.77553 c -4.83039,-2.7079 -9.13732,-5.05025 -9.57096,-5.20523 -1.30812,-0.46754 3.71069,-6.34611 8.67548,-10.16164 5.02714,-3.86345 12.60299,-7.99602 14.65834,-7.99602 1.20223,0 21.88324,11.06078 23.27392,12.44755 0.57681,0.57518 -25.2309,15.3698 -27.39722,15.70584 -0.47137,0.0731 -4.80917,-2.08261 -9.63956,-4.7905 z"
     style="fill:#ffff00;stroke-width:0.836431" /><path
     id="path366"
     d="m 133.29894,212.95968 c -7.05408,-3.85169 -13.19086,-7.36833 -13.6373,-7.81477 -0.52467,-0.52467 4.14036,-3.52011 13.19164,-8.47045 l 14.00335,-7.65874 14.14208,7.69881 c 12.80661,6.97179 13.99633,7.80602 12.59864,8.83417 -2.37982,1.75061 -25.88118,14.43393 -26.72558,14.42337 -0.41098,-0.005 -6.51875,-3.16071 -13.57283,-7.01239 z"
     style="fill:#ffff00;stroke-width:0.836431" /><path
     id="path368"
     d="m 113.15715,237.59075 c -0.95568,-0.59064 -1.06942,-2.98044 -0.62531,-13.1387 0.29856,-6.8292 0.82757,-13.62267 1.17557,-15.09659 l 0.63274,-2.67986 14.01022,7.6309 c 7.70562,4.19699 14.01022,7.87652 14.01022,8.17673 0,0.30021 -3.66984,2.546 -8.1552,4.99065 -4.48536,2.44466 -10.7933,5.88348 -14.01764,7.64183 -3.91627,2.13569 -6.25023,2.95733 -7.0306,2.47504 z"
     style="fill:#ffff00;stroke-width:0.836431" /><path
     id="path370"
     d="m 115.5948,200.26365 c 0,-3.70862 7.15835,-21.25975 9.18071,-22.50964 0.72629,-0.44887 18.78437,8.71664 18.21042,9.24283 -0.57059,0.52311 -26.5355,14.58309 -26.93095,14.58309 -0.2531,0 -0.46018,-0.59233 -0.46018,-1.31628 z"
     style="fill:#ffff00;stroke-width:0.836431" /><path
     id="path372"
     d="m 132.53253,248.20102 c -7.47561,-4.17578 -13.58136,-7.81084 -13.56834,-8.07791 0.0181,-0.37194 27.32756,-15.54133 27.97904,-15.54133 0.55227,0 27.27429,14.91467 27.56512,15.38525 0.35123,0.5683 -25.67753,15.42013 -27.50563,15.69452 -0.483,0.0725 -6.99459,-3.28474 -14.47019,-7.46053 z"
     style="fill:#ffff00;stroke-width:0.836431" /><path
     id="path374"
     d="m 114.45604,265.35781 c -0.7219,-4.02533 -1.56492,-10.60442 -1.87338,-14.6202 -0.48135,-6.26672 -0.37053,-7.37445 0.78197,-7.81671 0.82736,-0.31749 6.80925,2.45747 15.58379,7.22921 l 14.241,7.74449 -2.29638,1.38234 c -4.04408,2.4344 -24.25455,13.39964 -24.69741,13.39964 -0.23487,0 -1.01769,-3.29345 -1.73959,-7.31877 z"
     style="fill:#ffff00;stroke-width:0.836431" /><path
     id="path376"
     d="m 133.29894,284.05633 c -7.05408,-3.85168 -13.19309,-7.37056 -13.64226,-7.81972 -1.22339,-1.22339 26.88902,-16.49431 28.5512,-15.50928 0.69431,0.41146 7.03006,3.91187 14.07946,7.77869 11.55385,6.33765 12.66675,7.14116 11.29182,8.15264 -2.36653,1.74095 -25.86673,14.42057 -26.70739,14.41007 -0.41098,-0.005 -6.51875,-3.16072 -13.57283,-7.0124 z"
     style="fill:#ffff00;stroke-width:0.836431" /><path
     id="path378"
     d="m 127.3915,296.32201 c -3.18657,-3.72028 -9.6121,-15.23524 -8.89927,-15.94807 0.44549,-0.44549 23.86836,12.44499 23.86836,13.13565 0,0.3092 -2.59922,1.96607 -5.77604,3.68195 l -5.77605,3.11977 z"
     style="fill:#ffff00;stroke-width:0.836431" /><path
     id="path380"
     d="m 160.01315,314.04116 c -10.94521,-2.37435 -24.03772,-8.0856 -24.92716,-10.87379 -0.15358,-0.48146 2.42969,-2.39042 5.74061,-4.24215 l 6.01984,-3.36676 12.18552,6.63145 c 6.70203,3.64729 13.07424,7.19203 14.16047,7.87719 l 1.97496,1.24574 -3.2296,1.98476 c -3.70061,2.27422 -4.60785,2.33079 -11.92464,0.74356 z"
     style="fill:#ffff00;stroke-width:0.836431" /><path
     id="path382"
     d="m 165.39017,301.66762 c -7.60586,-4.18862 -13.82883,-7.8763 -13.82883,-8.19486 0,-0.31856 6.23574,-3.97759 13.8572,-8.13117 l 13.8572,-7.55197 13.74503,7.56404 c 7.55977,4.16022 13.74503,7.82789 13.74503,8.15037 0,0.32248 -6.19803,4.00474 -13.7734,8.18279 l -13.7734,7.59645 z"
     style="fill:#ffff00;stroke-width:0.836431" /><path
     id="path384"
     d="m 221.60483,297.14659 c -3.10944,-1.70242 -5.556,-3.38669 -5.4368,-3.74284 0.38118,-1.13888 25.72788,-14.73819 25.72788,-13.80382 0,3.79911 -11.17664,20.70712 -13.65709,20.66042 -0.53925,-0.0102 -3.52454,-1.41134 -6.63399,-3.11376 z"
     style="fill:#ffff00;stroke-width:0.836431" /><path
     id="path386"
     d="m 197.56506,283.90781 c -7.13058,-3.92976 -13.2581,-7.43566 -13.61672,-7.79089 -0.47457,-0.4701 22.03806,-13.62687 27.04882,-15.80779 0.94817,-0.41269 28.40229,15.01572 27.96856,15.71751 -0.53364,0.86346 -26.63447,15.05542 -27.65827,15.0388 -0.42774,-0.007 -6.61182,-3.22787 -13.74239,-7.15763 z"
     style="fill:#ffff00;stroke-width:0.836431" /><path
     id="path388"
     d="m 230.60409,266.52015 c -6.90056,-3.78667 -13.22021,-7.2674 -14.04366,-7.73495 -1.2445,-0.70661 0.91998,-2.16459 12.824,-8.6382 12.89672,-7.01345 14.52936,-7.69326 16.41391,-6.83461 2.04543,0.93196 2.08042,1.09961 1.54906,7.42186 -0.69129,8.22521 -2.8298,21.33182 -3.60433,22.09043 -0.32588,0.31918 -6.23842,-2.51785 -13.13898,-6.30453 z"
     style="fill:#ffff00;stroke-width:0.836431" /><path
     id="path390"
     d="m 197.36598,248.24143 c -7.9492,-4.37769 -13.68146,-8.02261 -13.26767,-8.43639 0.4007,-0.40071 6.7177,-4.00925 14.03777,-8.01898 l 13.30921,-7.29041 13.94339,7.57095 c 7.66887,4.16402 13.95567,7.79516 13.97067,8.0692 0.02,0.3657 -24.16672,14.07156 -27.53587,15.60371 -0.2537,0.11537 -6.75958,-3.25876 -14.4575,-7.49808 z"
     style="fill:#ffff00;stroke-width:0.836431" /><path
     id="path392"
     d="m 229.95895,230.68593 c -7.69582,-4.20584 -13.99241,-7.88351 -13.99241,-8.1726 0,-0.2891 6.28652,-3.99283 13.97004,-8.23053 11.51451,-6.35061 14.16256,-7.51239 15.06533,-6.60962 1.45338,1.45338 2.88855,13.60575 2.57873,21.83549 -0.20777,5.51912 -0.52176,6.7671 -1.9386,7.70503 -1.52181,1.00742 -3.08828,0.35541 -15.68309,-6.52777 z"
     style="fill:#ffff00;stroke-width:0.836431" /><path
     id="path394"
     d="m 197.56506,212.81116 c -7.13058,-3.92976 -13.25479,-7.43235 -13.60936,-7.78354 -0.35457,-0.35118 5.69238,-4.09689 13.43766,-8.32379 l 14.08233,-7.68528 13.94745,7.62817 c 7.6711,4.19549 13.76364,7.92558 13.53898,8.2891 -0.5312,0.85949 -26.63518,15.04952 -27.65467,15.03297 -0.42774,-0.007 -6.61182,-3.22788 -13.74239,-7.15763 z"
     style="fill:#ffff00;stroke-width:0.836431" /><path
     id="path396"
     d="m 197.29629,177.14008 c -12.64603,-6.91892 -13.91572,-7.81074 -12.54647,-8.81253 0.83788,-0.61302 6.3754,-3.76815 12.30561,-7.01138 l 10.78219,-5.8968 6.88242,3.41038 c 6.47751,3.20973 17.1387,11.99267 17.1387,14.11927 0,0.60485 -19.38993,11.93993 -20.34883,11.89564 -0.0791,-0.004 -6.47519,-3.47071 -14.21362,-7.70458 z"
     style="fill:#ffff00;stroke-width:0.836431" /><path
     id="path398"
     d="m 230.60409,195.45057 c -6.90056,-3.80156 -13.2227,-7.29587 -14.04921,-7.76513 -1.26231,-0.71669 0.0571,-1.6985 8.24651,-6.13656 7.85873,-4.25885 9.9054,-5.05915 10.55452,-4.12709 4.13305,5.9346 10.85109,25.02365 8.7869,24.96764 -0.54574,-0.0148 -6.63816,-3.13729 -13.53872,-6.93886 z"
     style="fill:#ffff00;stroke-width:0.836431" /><path
     id="path400"
     d="m 186.38935,313.35332 -3.22961,-2.04048 1.97497,-1.22321 c 1.08622,-0.67277 7.48198,-4.22407 14.21279,-7.89177 l 12.23783,-6.66855 6.85125,3.82382 6.85125,3.82382 -1.94224,1.60548 c -5.25062,4.34022 -19.3441,9.3078 -28.85198,10.16956 -4.1806,0.37891 -5.33448,0.15129 -8.10426,-1.59867 z"
     style="fill:#ffff00;stroke-width:0.836431" /><path
     id="path402"
     d="m 176.2853,314.94296 c 2.03541,-1.53951 3.56599,-1.54605 6.22399,-0.0266 1.99097,1.13814 1.85318,1.19678 -2.87826,1.225 -4.54604,0.0271 -4.83104,-0.075 -3.34573,-1.1984 z"
     style="fill:#ffff00;stroke-width:0.836431" /></svg>
