<svg id="Capa_1" enable-background="new 0 0 512 512" height="512" viewBox="0 0 512 512" width="512" xmlns="http://www.w3.org/2000/svg"><g><path d="m44 375.023h30v93h-30z" fill="#ff9e00"/><path d="m103.727 272.113c-12.132-26.228-27.599-40.09-44.727-40.09s-32.594 13.862-44.727 40.09c-8.537 18.455-14.273 40.924-14.273 55.91 0 32.532 26.467 59 59 59s59-26.468 59-59c0-14.986-5.736-37.455-14.273-55.91z" fill="#00a66c"/><path d="m381.774 26.619-15.158 57.02 14.585 3.877 11.704-24.89 3.278-32.177z" fill="#a1d7f3"/><path d="m410.768 34.326-14.585-3.877-14.982 57.067 14.409 3.83z" fill="#64bfed"/><path d="m283.734 458.775 63.185-177.665 36.579-202.345-86.354-22.956-107.124 402.966z" fill="#f0f7ff"/><path d="m376.271 458.775 94.831-356.721-87.604-23.289-99.764 380.01z" fill="#d6e8fd"/><g fill="#fc6"><path d="m314.326 131.019h40.999v30h-40.999z" transform="matrix(.257 -.966 .966 .257 107.676 432.084)"/><path d="m372.312 146.434h40.999v30h-40.999z" transform="matrix(.257 -.966 .966 .257 135.887 499.594)"/><path d="m287.917 231.61h41v30h-41z" transform="matrix(.257 -.966 .966 .257 -9.145 481.327)"/><path d="m345.903 247.025h41v30h-41z" transform="matrix(.257 -.966 .966 .257 19.029 548.799)"/><path d="m261.509 332.201h40.999v30h-40.999z" transform="matrix(.257 -.966 .966 .257 -125.984 530.555)"/><path d="m319.495 347.616h40.999v30h-40.999z" transform="matrix(.257 -.966 .966 .257 -97.807 598.022)"/></g><path d="m230.524 126.052-7.707 28.993 131.479 34.953 20.252-10.192-12.634-18.825z" fill="#a1d7f3"/><path d="m493.394 195.933-131.48-34.952-7.618 29.017 131.39 34.928z" fill="#64bfed"/><path d="m204.116 226.642-7.708 28.993 131.48 34.953 19.031-9.478-11.413-19.539z" fill="#a1d7f3"/><path d="m466.986 296.524-131.48-34.953-7.618 29.017 131.391 34.929z" fill="#64bfed"/><path d="m177.708 327.234-7.708 28.993 131.48 34.952 27.989-8.16-20.371-20.857z" fill="#a1d7f3"/><path d="m301.48 391.179 131.39 34.929 7.707-28.993-131.479-34.953z" fill="#64bfed"/><path d="m0 455.381v30h276.749l14.251-14.358-6.375-15.642z" fill="#59c36a"/><path d="m512 455.381h-227.375l-7.876 30h235.251z" fill="#00a66c"/></g></svg>