<svg id="Layer_1" enable-background="new 0 0 512 512" height="512" viewBox="0 0 512 512" width="512" xmlns="http://www.w3.org/2000/svg"><g><g><path clip-rule="evenodd" d="m243.857 60.691 61.691 16.493 68.861-16.493v-39.957c0-7.283-5.979-13.234-13.262-13.234h-104.056c-7.283 0-13.234 5.951-13.234 13.234z" fill="#375e7d" fill-rule="evenodd"/></g><g><path clip-rule="evenodd" d="m313.568 131.878 60.841-17.995v-26.61-26.582h-59.878-70.674v34.828z" fill="#ffd772" fill-rule="evenodd"/></g><g><path clip-rule="evenodd" d="m291.975 167.074 36.669 26.581 45.765-26.581v-53.191h-60.841l-33.495 18.335c.368 12.072 3.117 32.334 11.902 34.856z" fill="#f9f7f8" fill-rule="evenodd"/></g><g><path clip-rule="evenodd" d="m295.942 220.265 39.276 10.995 39.191-10.995v-26.61-26.581h-82.434c-15.983 12.469-8.445 32.391 3.967 53.191z" fill="#ffd772" fill-rule="evenodd"/></g><g><path clip-rule="evenodd" d="m302.998 273.456 40.183 11.052 31.228-11.052v-53.191h-78.467c-8.36 18.562-9.578 36.132 7.056 53.191z" fill="#f9f7f8" fill-rule="evenodd"/></g><g><path clip-rule="evenodd" d="m314.078 326.648 21.962 15.756 38.369-15.756v-53.191h-71.411c-15.841 22.132-12.355 39.702 11.08 53.191z" fill="#ffd772" fill-rule="evenodd"/></g><g><path clip-rule="evenodd" d="m364.236 504.358h134.859c2.947 0 5.327-2.409 5.327-5.328v-167.083c0-2.919-2.38-5.299-5.327-5.299h-78.949-45.737-60.331l-30.888 117.803z" fill="#f9f7f8" fill-rule="evenodd"/></g><g><path clip-rule="evenodd" d="m25.912 467.83h146.704 134.887 54.323c-6.773-16.776-12.922-32.646-18.561-47.977-6.773-18.392-12.78-35.99-18.079-53.22-4.109-13.461-7.821-26.695-11.108-39.986-4.364-17.485-8.02-35.055-11.08-53.191-2.862-17.06-5.186-34.63-7.056-53.191-1.7-16.805-3.004-34.431-3.967-53.191-.595-11.194-1.048-22.784-1.417-34.856h-46.701-146.704c-4.052 139.028-22.5 214.635-71.241 335.612z" fill="#4fc9af" fill-rule="evenodd"/></g><g><path clip-rule="evenodd" d="m189.336 302.135-14.339 58.916c-2.777 11.505 3.457 8.246 9.777-.028l59.084-77.137 7.963-10.429.085-.085c6.291-8.218 7.51-12.044-3.571-12.044h-4.477-39.134c-7.708 0-8.643-1.275-6.914-8.388l14.792-60.729c4.024-16.521-3.457-8.246-9.777 0l-67.132 87.679c-6.291 8.218-7.113 12.044 3.571 12.044h41.713c7.99-.001 10.201 2.663 8.359 10.201z" fill="#ffd772" fill-rule="evenodd"/></g><g><path clip-rule="evenodd" d="m25.912 504.5h335.915c.822 0 1.615-.057 2.409-.142 8.955-1.219 15.926-8.927 15.926-18.193 0-10.089-8.246-18.335-18.335-18.335h-54.323-134.888-146.704c-9.947 0-18.136 8.02-18.334 17.938v.793c.198 9.097 7.084 16.606 15.897 17.797.822.085 1.615.142 2.437.142z" fill="#375e7d" fill-rule="evenodd"/></g><g><path clip-rule="evenodd" d="m97.153 132.218h146.704 46.701 4.647c10.088 0 18.363-8.247 18.363-18.335s-8.275-18.363-18.363-18.363h-51.348-151.351c-10.088 0-18.334 8.275-18.334 18.363 0 10.089 8.246 18.335 18.334 18.335z" fill="#375e7d" fill-rule="evenodd"/></g><g><path clip-rule="evenodd" d="m295.205 95.519h-33.58c10.088 0 18.363 8.275 18.363 18.363 0 10.06-8.218 18.278-18.249 18.335h28.819 4.647c10.088 0 18.363-8.247 18.363-18.335s-8.275-18.363-18.363-18.363z" fill="#2b4d66" fill-rule="evenodd"/></g><g><path clip-rule="evenodd" d="m328.275 504.5h33.552c.822 0 1.615-.057 2.409-.142 8.955-1.219 15.926-8.927 15.926-18.193 0-10.089-8.246-18.335-18.335-18.335h-33.58c10.088 0 18.335 8.246 18.335 18.335 0 9.267-6.971 16.975-15.926 18.193-.652.114-1.701.142-2.381.142z" fill="#2b4d66" fill-rule="evenodd"/></g><g><path clip-rule="evenodd" d="m243.857 132.218h-146.704c-.283 10.145-.652 19.922-1.105 29.415h146.619c11.959 0 15.387.312 16.152 13.177.907 15.898 2.069 30.974 3.542 45.455 8.955 89.266 33.07 166.148 65.885 247.565h33.58c-6.773-16.776-12.922-32.646-18.561-47.977-6.773-18.392-12.78-35.99-18.079-53.22-4.109-13.461-7.821-26.695-11.108-39.986-4.364-17.485-8.02-35.055-11.08-53.191-2.862-17.06-5.186-34.63-7.056-53.191-1.7-16.805-3.004-34.431-3.967-53.191-.595-11.194-1.048-22.784-1.417-34.856-15.558 0-31.143 0-46.701 0z" fill="#26bb9e" fill-rule="evenodd"/></g><g><path clip-rule="evenodd" d="m343.266 419.853h116.156c2.749 0 5.016-2.239 5.016-4.988v-43.245c0-2.749-2.267-4.988-5.016-4.988h-134.236c5.3 17.231 11.307 34.829 18.08 53.221z" fill="#b1e4f9" fill-rule="evenodd"/></g><g><path clip-rule="evenodd" d="m349.529 60.691h24.88v-39.957c0-7.283-5.979-13.234-13.262-13.234h-24.881c7.311 0 13.262 5.951 13.262 13.234v39.957z" fill="#2b4d66" fill-rule="evenodd"/></g><g><path clip-rule="evenodd" d="m349.529 113.883h24.88v-26.61-26.582h-24.88z" fill="#fbba58" fill-rule="evenodd"/></g><g><path clip-rule="evenodd" d="m349.529 167.074h24.88v-53.191h-24.88v7.339z" fill="#e5e4ec" fill-rule="evenodd"/></g><g><path clip-rule="evenodd" d="m349.529 220.265h24.88v-26.61-26.581h-24.88z" fill="#fbba58" fill-rule="evenodd"/></g><g><path clip-rule="evenodd" d="m349.529 273.456h24.88v-53.191h-24.88v6.971z" fill="#e5e4ec" fill-rule="evenodd"/></g><g><path clip-rule="evenodd" d="m349.529 273.456h24.881v53.191h-24.881z" fill="#fbba58" fill-rule="evenodd"/></g><g><path clip-rule="evenodd" d="m445.14 504.358h53.955c2.947 0 5.327-2.409 5.327-5.328v-167.083c0-2.919-2.38-5.299-5.327-5.299h-53.955c2.919 0 5.299 2.38 5.299 5.299v34.686h8.983c2.749 0 5.016 2.239 5.016 4.988v43.245c0 2.749-2.267 4.988-5.016 4.988h-8.983v79.178c0 2.918-2.38 5.326-5.299 5.326z" fill="#e5e4ec" fill-rule="evenodd"/></g><g><path clip-rule="evenodd" d="m331.166 385.365h108.76c2.749 0 5.016 2.267 5.016 5.016v29.472h5.498 8.983c2.749 0 5.016-2.239 5.016-4.988v-43.245c0-2.749-2.267-4.988-5.016-4.988h-8.983-125.254c1.927 6.207 3.911 12.442 5.98 18.733z" fill="#75cef8" fill-rule="evenodd"/></g><g><g><path d="m499.095 319.148h-71.449v-210.111c0-16.136-13.115-29.264-29.235-29.264h-16.502v-59.039c0-11.174-8.903-20.287-19.994-20.695-.253-.026-.509-.039-.768-.039h-104.056c-.259 0-.516.013-.768.039-11.075.409-19.965 9.522-19.965 20.695v67.285h-143.852c-14.245 0-25.834 11.603-25.834 25.864 0 13.201 9.954 24.113 22.748 25.644-4.18 125.67-20.085 199.679-68.799 321.35-11.715 2.449-20.543 12.856-20.543 25.288 0 14.246 11.589 25.835 25.834 25.835h281.588 54.327 137.264c7.073 0 12.828-5.754 12.828-12.828l.004-167.225c-.001-7.057-5.755-12.799-12.828-12.799zm-117.186 0v-117.993h16.502c7.849 0 14.235 6.399 14.235 14.264v103.729zm-61.921 0c-3.07-12.723-5.752-25.384-8.09-38.191h55.011v38.191zm-.035-197.765h46.956v38.191h-67.823c-.301-6.541-.565-13.216-.794-20.046 10.28-1.228 18.725-8.497 21.661-18.145zm46.956 91.382h-64.225c-1.139-12.286-2.072-24.969-2.827-38.191h67.052zm-62.709 15h62.709v38.191h-57.581c-1.997-12.454-3.693-25.123-5.128-38.191zm94.211-132.992c7.849 0 14.235 6.398 14.235 14.264v80.835c-4.216-2.363-9.069-3.717-14.235-3.717h-16.502v-91.382zm-37.264-79.773c3.124 0 5.762 2.626 5.762 5.734v32.458h-115.552v-32.458c0-3.162 2.572-5.734 5.733-5.734zm-109.79 53.191h115.552v38.191h-46.954c-3.223-10.615-13.097-18.364-24.75-18.364h-43.848zm-146.935 71.527h73.466c4.142 0 7.5-3.358 7.5-7.5s-3.358-7.5-7.5-7.5h-85.382c-5.974 0-10.834-4.86-10.834-10.835 0-5.99 4.86-10.864 10.834-10.864h202.699c5.99 0 10.863 4.874 10.863 10.864 0 5.975-4.873 10.835-10.863 10.835h-84.701c-4.142 0-7.5 3.358-7.5 7.5s3.358 7.5 7.5 7.5h72.786c3.014 90.616 11.997 154.777 34.583 228.452.092.442 11.484 35.471 18.189 53.757.101.352 9.554 25.455 14.689 38.404h-313.763c47.606-120.054 63.276-194.851 67.434-320.613zm-89.344 346.447c0-5.975 4.86-10.835 10.834-10.835h335.915c5.974 0 10.834 4.86 10.834 10.835 0 5.407-3.985 9.888-9.169 10.693h-337.629c-5.974 0-10.785-4.718-10.785-10.693zm481.844 10.693h-111.587c1.489-3.261 2.326-6.88 2.326-10.693 0-12.432-8.827-22.839-20.543-25.288-4.635-11.578-8.973-22.724-13.033-33.524h105.336c6.901 0 12.516-5.602 12.516-12.488v-43.244c0-6.886-5.614-12.488-12.516-12.488h-47.494c-4.142 0-7.5 3.358-7.5 7.5s3.358 7.5 7.5 7.5h45.01v38.22h-108.39c-4.769-13.164-9.114-25.849-13.068-38.22h41.847c4.142 0 7.5-3.358 7.5-7.5s-3.358-7.5-7.5-7.5h-46.496c-2.527-8.426-4.876-16.737-7.054-24.985h173.144v162.71z"/><path d="m94.461 403.001c-4.142 0-7.5 3.358-7.5 7.5v22.5c0 4.142 3.358 7.5 7.5 7.5s7.5-3.358 7.5-7.5v-22.5c0-4.142-3.358-7.5-7.5-7.5z"/><path d="m144.165 403.001c-4.142 0-7.5 3.358-7.5 7.5v22.5c0 4.142 3.358 7.5 7.5 7.5s7.5-3.358 7.5-7.5v-22.5c0-4.142-3.358-7.5-7.5-7.5z"/><path d="m193.87 403.001c-4.142 0-7.5 3.358-7.5 7.5v22.5c0 4.142 3.358 7.5 7.5 7.5s7.5-3.358 7.5-7.5v-22.5c0-4.142-3.358-7.5-7.5-7.5z"/><path d="m243.574 403.001c-4.142 0-7.5 3.358-7.5 7.5v22.5c0 4.142 3.358 7.5 7.5 7.5s7.5-3.358 7.5-7.5v-22.5c0-4.142-3.358-7.5-7.5-7.5z"/><path d="m293.278 403.001c-4.142 0-7.5 3.358-7.5 7.5v22.5c0 4.142 3.358 7.5 7.5 7.5s7.5-3.358 7.5-7.5v-22.5c0-4.142-3.358-7.5-7.5-7.5z"/><path d="m248.334 253.828h-43.023l14.576-59.843c1.235-5.07 3.534-14.508-3.722-17.981-7.585-3.631-14.079 4.838-19.296 11.647l-67.132 87.68c-3.149 4.113-8.419 10.999-5.135 17.648 3.188 6.454 11.523 6.454 14.661 6.454h41.713c.495 0 .916.013 1.271.034-.052.263-.117.56-.199.895l-14.342 58.929c-1.974 8.177-.483 13.509 4.429 15.849 1.312.625 2.61.896 3.877.896 6.733 0 12.573-7.647 14.715-10.452l67.133-87.652c3.392-4.432 8.519-11.129 5.283-17.682-3.17-6.422-11.326-6.422-14.809-6.422zm-62.167 93.04 10.454-42.952c.956-3.912 1.807-9.646-1.82-14.267-3.67-4.675-9.647-5.216-13.825-5.216h-39.317l59.775-78.07-10.914 44.806c-.805 3.314-2.153 8.862 1.286 13.237 3.477 4.422 9.386 4.422 12.917 4.422h41.215z"/></g></g></g></svg>