<?xml version="1.0" encoding="UTF-8" standalone="no"?>
<svg
   xmlns:dc="http://purl.org/dc/elements/1.1/"
   xmlns:cc="http://creativecommons.org/ns#"
   xmlns:rdf="http://www.w3.org/1999/02/22-rdf-syntax-ns#"
   xmlns:svg="http://www.w3.org/2000/svg"
   xmlns="http://www.w3.org/2000/svg"
   xmlns:sodipodi="http://sodipodi.sourceforge.net/DTD/sodipodi-0.dtd"
   xmlns:inkscape="http://www.inkscape.org/namespaces/inkscape"
   inkscape:version="1.0 (4035a4fb49, 2020-05-01)"
   height="626.84442"
   width="784.84796"
   sodipodi:docname="sombrero_verde.svg"
   id="svg434"
   clip-rule="evenodd"
   fill-rule="evenodd"
   y="0px"
   x="0px"
   viewBox="0 0 784.84799 626.84445"
   style="image-rendering:optimizeQuality;shape-rendering:geometricPrecision;text-rendering:geometricPrecision"
   version="1.1"
   xml:space="preserve"><metadata
     id="metadata438"><rdf:RDF><cc:Work
         rdf:about=""><dc:format>image/svg+xml</dc:format><dc:type
           rdf:resource="http://purl.org/dc/dcmitype/StillImage" /></cc:Work></rdf:RDF></metadata><sodipodi:namedview
     inkscape:current-layer="svg434"
     inkscape:window-maximized="1"
     inkscape:window-y="-8"
     inkscape:window-x="-8"
     inkscape:cy="233.18423"
     inkscape:cx="392.41897"
     inkscape:zoom="0.50835048"
     showgrid="false"
     id="namedview436"
     inkscape:window-height="705"
     inkscape:window-width="1366"
     inkscape:pageshadow="2"
     inkscape:pageopacity="0"
     guidetolerance="10"
     gridtolerance="10"
     objecttolerance="10"
     borderopacity="1"
     bordercolor="#666666"
     pagecolor="#ffffff" /><defs
     id="defs424"><style
       id="style422"
       type="text/css">
   
    .fil0 {fill:black;fill-rule:nonzero}
   
  </style></defs><g
     transform="translate(-30.911018,-109.9)"
     id="g428"><path
       id="path426"
       d="m 47.12,655.79 c -35.28,-18.57 -7.04,-72.22 28.24,-53.64 183.08,97.08 507.66,99.85 695.95,0 35.28,-18.58 63.52,35.07 28.24,53.64 -206.07,109.29 -551.48,106.58 -752.43,0 z M 181.53,109.9 h 483.62 v 483.57 c -148.97,42.95 -336.52,42.11 -483.62,-0.14 z"
       class="fil0" /></g><path
     id="path440"
     d="M 329.47027,512.48954 C 268.60988,507.84912 210.05904,498.30651 159.80386,484.83732 l -7.3768,-1.9771 V 241.96057 1.06091 h 239.99191 239.9919 V 241.8968 482.73269 l -10.95825,3.18565 c -30.00764,8.72345 -96.28097,20.36227 -140.51205,24.6765 -28.59712,2.78932 -124.07363,3.98361 -151.4703,1.8947 z"
     style="fill:#008000;stroke-width:1.96715" /><path
     id="path442"
     d="M 343.15764,624.62844 C 223.83191,618.18327 120.06879,594.24259 33.865744,553.26728 10.239904,542.03709 3.9037262,536.4631 1.7571932,525.0211 c -1.75106499,-9.33398 3.836633,-23.1403 11.8341438,-29.2403 11.761729,-8.97111 15.52623,-8.52958 46.624585,5.46849 36.91862,16.61789 54.759028,23.32421 87.577418,32.92086 84.23827,24.63269 192.88839,36.53487 288.81069,31.63804 114.47093,-5.84373 201.11155,-25.10056 286.01026,-63.56892 25.04148,-11.34652 31.33731,-13.47401 36.8261,-12.44431 20.13951,3.77819 30.77611,31.31012 18.24893,47.23584 -5.12591,6.51654 -42.70445,24.77772 -78.47112,38.13281 -99.48941,37.14884 -235.15242,55.99549 -356.06056,49.46483 z"
     style="fill:#008000;stroke-width:1.96715" /></svg>
