<svg id="Capa_1" enable-background="new 0 0 512 512" height="512" viewBox="0 0 512 512" width="512" xmlns="http://www.w3.org/2000/svg"><g><path d="m38 215h30v52h-30z" fill="#ff8600"/><circle cx="53" cy="185" fill="#ffea80" r="45"/><path d="m241 11v41h15l9-24-9-17z" fill="#ff8600"/><path d="m256 11h15v41h-15z" fill="#e37500"/><path d="m437 215h30v52h-30z" fill="#e37500"/><circle cx="452" cy="185" fill="#fc6" r="45"/><path d="m130 163c0 17.331 3.466 34.138 10.302 49.951l3.911 9.049 69.787 15 42-15 14-85-14-100c-69.477 0-126 56.523-126 126z" fill="#fc6"/><path d="m256 37v185l47 11 64.787-11 3.911-9.049c6.836-15.813 10.302-32.62 10.302-49.951 0-69.477-56.523-126-126-126z" fill="#ffb366"/><path d="m144.213 222v50h111.787l9-23-9-27z" fill="#ff8600"/><path d="m256 222h111.787v50h-111.787z" fill="#e37500"/><path d="m0 256v245h256l12-123-12-122z" fill="#fc6"/><path d="m256 256h256v245h-256z" fill="#ffb366"/><path d="m155 501v-50.817c0-26.191-21.309-47.5-47.5-47.5s-47.5 21.308-47.5 47.5v50.817z" fill="#ff8600"/><path d="m452 501v-50.817c0-26.191-21.309-47.5-47.5-47.5s-47.5 21.309-47.5 47.5v50.817z" fill="#e37500"/><path d="m69 316h71v30h-71z" fill="#ffea80"/><path d="m366 316h71v30h-71z" fill="#fc6"/><path d="m208.5 418.683v82.317h47.5l20-58-20-71.817c-26.191 0-47.5 21.308-47.5 47.5z" fill="#ff8600"/><path d="m303.5 418.683c0-26.191-21.309-47.5-47.5-47.5v129.817h47.5z" fill="#e37500"/></g></svg>