<?xml version="1.0" encoding="UTF-8" standalone="no"?>
<svg
   xmlns:dc="http://purl.org/dc/elements/1.1/"
   xmlns:cc="http://creativecommons.org/ns#"
   xmlns:rdf="http://www.w3.org/1999/02/22-rdf-syntax-ns#"
   xmlns:svg="http://www.w3.org/2000/svg"
   xmlns="http://www.w3.org/2000/svg"
   xmlns:sodipodi="http://sodipodi.sourceforge.net/DTD/sodipodi-0.dtd"
   xmlns:inkscape="http://www.inkscape.org/namespaces/inkscape"
   inkscape:version="1.0 (4035a4fb49, 2020-05-01)"
   height="17.020079"
   width="22"
   sodipodi:docname="taza_cafe.svg"
   id="svg504"
   version="1.1"
   y="0px"
   x="0px"
   viewBox="0 0 22 17.020079">
  <metadata
     id="metadata510">
    <rdf:RDF>
      <cc:Work
         rdf:about="">
        <dc:format>image/svg+xml</dc:format>
        <dc:type
           rdf:resource="http://purl.org/dc/dcmitype/StillImage" />
      </cc:Work>
    </rdf:RDF>
  </metadata>
  <defs
     id="defs508" />
  <sodipodi:namedview
     inkscape:current-layer="svg504"
     inkscape:window-maximized="1"
     inkscape:window-y="-8"
     inkscape:window-x="-8"
     inkscape:cy="12"
     inkscape:cx="19.63197"
     inkscape:zoom="13.45"
     showgrid="false"
     id="namedview506"
     inkscape:window-height="705"
     inkscape:window-width="1366"
     inkscape:pageshadow="2"
     inkscape:pageopacity="0"
     guidetolerance="10"
     gridtolerance="10"
     objecttolerance="10"
     borderopacity="1"
     bordercolor="#666666"
     pagecolor="#ffffff" />
  <title
     id="title492">cup_2</title>
  <g
     transform="translate(-5,-8)"
     id="g498">
    <path
       id="path494"
       d="M 24,8 H 6 A 1,1 0 0 0 5,9 v 6.85 A 6.16,6.16 0 0 0 11.15,22 h 5.7 A 6.15,6.15 0 0 0 23,16 h 1 c 1.68,0 3,-1.76 3,-4 0,-2.24 -1.32,-4 -3,-4 z m 0,6 h -1 v -4 h 1 c 0.41,0 1,0.78 1,2 0,1.22 -0.59,2 -1,2 z" />
    <path
       id="path496"
       d="M 21,25 H 7 a 1,1 0 0 1 0,-2 h 14 a 1,1 0 0 1 0,2 z" />
  </g>
  <path
     id="path512"
     d="M 4.9907201,13.854088 C 3.6413754,13.581804 2.2725001,12.74778 1.394241,11.662834 0.9430926,11.105514 0.4231936,10.060968 0.2113477,9.286245 0.0537218,8.709806 0.0485819,8.568292 0.0447973,4.700746 0.0409591,0.7784381 0.0435313,0.7064426 0.1948762,0.5000026 0.2795674,0.3844807 0.4635823,0.2311861 0.6037981,0.159348 0.8435707,0.0365029 1.4137943,0.0298688 10.189591,0.0478238 l 9.330855,0.019091 0.446097,0.2083466 c 0.77995,0.3642708 1.328054,1.0242557 1.710215,2.0593106 0.273881,0.741787 0.339576,1.940099 0.152468,2.781113 -0.263539,1.184557 -0.942428,2.161157 -1.793651,2.580212 -0.416457,0.205021 -0.583042,0.24167 -1.277681,0.281084 l -0.798786,0.04532 -0.01982,0.297398 c -0.03978,0.596805 -0.261772,1.427099 -0.543557,2.032975 -0.773311,1.662723 -2.023487,2.763325 -3.823238,3.365818 -0.516832,0.173017 -0.547301,0.174323 -4.386617,0.188102 -2.126394,0.0076 -4.014213,-0.016 -4.1951539,-0.05251 z M 19.307439,5.909357 c 0.144102,-0.08787 0.314412,-0.307746 0.446097,-0.57593 0.198509,-0.404273 0.213007,-0.494524 0.213007,-1.325992 0,-0.780756 -0.02213,-0.941161 -0.17718,-1.284244 C 19.691913,2.507563 19.513696,2.24827 19.393323,2.146983 19.200717,1.9849156 19.103801,1.9628253 18.585373,1.9628253 h -0.58909 v 2.0446097 2.04461 l 0.539033,-2.75e-4 c 0.399511,-2.09e-4 0.599366,-0.03707 0.772123,-0.14241 z"
     style="fill:#c87137;stroke-width:0.0743494" />
  <path
     id="path514"
     d="m 5.486989,17.000018 c 1.932156,-0.01103 5.093866,-0.01103 7.026022,0 1.932156,0.01103 0.351301,0.02006 -3.513011,0.02006 -3.864312,0 -5.4451673,-0.009 -3.513011,-0.02006 z"
     style="fill:#c87137;stroke-width:0.0743494" />
  <path
     id="path516"
     d="M 1.5898956,16.827979 C 1.077678,16.574433 0.9002802,15.992267 1.1902986,15.516621 1.4927385,15.020603 1.0303776,15.048327 9,15.048327 c 7.969622,0 7.507262,-0.02772 7.809701,0.468294 0.291834,0.478622 0.111595,1.062658 -0.405143,1.312806 -0.309501,0.149827 -0.414713,0.151985 -7.409444,0.151927 -7.0169597,-5.8e-5 -7.0989136,-0.0018 -7.4052184,-0.153375 z"
     style="fill:#c87137;stroke-width:0.0743494" />
</svg>
