<svg id="Capa_1" enable-background="new 0 0 489.369 489.369" height="512" viewBox="0 0 489.369 489.369" width="512" xmlns="http://www.w3.org/2000/svg"><g><path d="m215.685 319.369 15 170h90l16-14 14 14h90l9-170z" fill="#ffb366"/><path d="m18.685 299.369v190h106l14-117-14-102.723z" fill="#ffea80"/><path d="m230.685 299.369-106-29.723v219.723h106z" fill="#fc6"/><path d="m18.685 112.487v186.882h106l10-104-10-104z" fill="#fc6"/><path d="m230.685 112.487-106-21.118v208h106z" fill="#ffb366"/><path d="m48.685 69.82v-31.933h-30v74.6h106l10-47.118-10-65.369z" fill="#ff9e00"/><path d="m230.685 42.887h-30v26.933l-76-69.82v112.487h106z" fill="#ff8600"/><path d="m79.685 333.369h30v30h-30z" fill="#8298fc"/><path d="m139.685 333.369h30v30h-30z" fill="#706bef"/><path d="m79.685 396.369h30v30h-30z" fill="#8298fc"/><path d="m139.685 396.369h30v30h-30z" fill="#706bef"/><path d="m260.685 379.369h30v50h-30z" fill="#706bef"/><path d="m320.685 270.369h30v219h-30z" fill="#ff8600"/><path d="m380.685 379.369h30v50h-30z" fill="#706bef"/><path d="m440.685 270.369h30v219h-30z" fill="#ff8600"/><path d="m94.685 192.369c0 16.569 13.431 30 30 30l7-30-7-30c-16.569 0-30 13.432-30 30z" fill="#f0f7ff"/><path d="m124.685 162.369v60c16.569 0 30-13.431 30-30s-13.432-30-30-30z" fill="#d6e8fd"/><path d="m109.685 192.369c0-8.271 6.729-15 15-15l9-15-9-15c-24.813 0-45 20.187-45 45s20.187 45 45 45l8-12-8-18c-8.271 0-15-6.729-15-15z" fill="#ff9e00"/><path d="m124.685 147.369v30c8.271 0 15 6.729 15 15s-6.729 15-15 15v30c24.813 0 45-20.187 45-45s-20.187-45-45-45z" fill="#ff8600"/></g></svg>