<?xml version="1.0" encoding="UTF-8" standalone="no"?>
<svg
   xmlns:dc="http://purl.org/dc/elements/1.1/"
   xmlns:cc="http://creativecommons.org/ns#"
   xmlns:rdf="http://www.w3.org/1999/02/22-rdf-syntax-ns#"
   xmlns:svg="http://www.w3.org/2000/svg"
   xmlns="http://www.w3.org/2000/svg"
   xmlns:sodipodi="http://sodipodi.sourceforge.net/DTD/sodipodi-0.dtd"
   xmlns:inkscape="http://www.inkscape.org/namespaces/inkscape"
   inkscape:version="1.0 (4035a4fb49, 2020-05-01)"
   sodipodi:docname="noun_turtle_845324.svg"
   id="svg46"
   xml:space="preserve"
   enable-background="new 0 46.75 100 53.25"
   viewBox="0 46.75 100 66.5625"
   y="0px"
   x="0px"
   version="1.1"><metadata
     id="metadata52"><rdf:RDF><cc:Work
         rdf:about=""><dc:format>image/svg+xml</dc:format><dc:type
           rdf:resource="http://purl.org/dc/dcmitype/StillImage" /></cc:Work></rdf:RDF></metadata><defs
     id="defs50" /><sodipodi:namedview
     showguides="true"
     inkscape:lockguides="false"
     inkscape:current-layer="svg46"
     inkscape:window-maximized="1"
     inkscape:window-y="-8"
     inkscape:window-x="-8"
     inkscape:cy="-50.471433"
     inkscape:cx="14.328167"
     inkscape:zoom="0.9983453"
     showgrid="false"
     id="namedview48"
     inkscape:window-height="745"
     inkscape:window-width="1302"
     inkscape:pageshadow="2"
     inkscape:pageopacity="0"
     guidetolerance="10"
     gridtolerance="10"
     objecttolerance="10"
     borderopacity="1"
     bordercolor="#666666"
     pagecolor="#ffffff" /><path
     style="stroke-width:0.966047"
     id="path32"
     d="M 75.923392,69.668764 C 63.363853,64.928383 55.931107,56.302571 45.387693,56.303538 c -0.651111,0 -1.31575,0.03289 -1.991985,0.101457 -22.938723,2.330098 -21.500283,21.502218 -30.827442,28.732092 -3.3212601,2.573543 10.004356,8.014303 24.914287,8.014303 2.786073,0 5.629141,-0.190284 8.427769,-0.624066 16.40151,-2.54649 35.235507,-20.888774 30.01307,-22.85854 z" /><path
     style="stroke-width:0.966047"
     id="path34"
     d="m 11.179094,90.024287 c -0.571902,0.193193 -1.2635861,0.429907 -2.1301311,0.707145 -3.5260591,1.130274 -5.7827427,3.107765 -5.7866071,3.941464 -0.00776,1.716647 10.3704882,1.564031 15.9020612,0.387395 1.265516,-0.268582 1.986187,-0.512011 2.325267,-0.745787 -0.677197,-0.170989 -1.346667,-0.348751 -1.998745,-0.540018 -4.404196,-1.281955 -6.885964,-2.614133 -8.311845,-3.750199 z" /><path
     style="stroke-width:0.966047"
     id="path36"
     d="m 67.406744,86.076066 c -2.288561,1.663523 -5.477469,3.754043 -9.195778,5.583736 0.004,0.121748 0.373859,0.492676 0.870412,2.040277 0.498474,1.547615 0.684922,4.102803 0.673328,6.159503 -0.0097,1.856738 1.145731,1.675128 2.256681,2.243148 1.244266,0.63566 5.030196,0.66368 9.101105,0.44727 1.428781,-0.0772 1.925325,-0.0618 1.710868,-2.42089 -0.792159,-8.738847 -5.416616,-14.053054 -5.416616,-14.053054 z" /><path
     style="stroke-width:0.966047"
     id="path38"
     d="m 23.371541,94.749215 c -0.03095,0.06953 -0.06281,0.139118 -0.08888,0.216405 -0.711008,2.119494 -1.209487,6.73622 1.406557,7.39796 2.773516,0.70232 6.032951,0.62889 9.275962,0.5603 0.968945,-0.0203 1.893446,-0.76704 2.133027,-1.62295 0.542916,-1.946584 0.246338,-3.767574 -0.872337,-5.092024 -4.011982,-0.139137 -8.067435,-0.64242 -11.854331,-1.459691 z" /><path
     style="stroke-width:0.966047"
     id="path40"
     d="m 96.095366,68.497915 c -2.414143,-4.598367 -9.108832,-4.232236 -12.893795,-1.715694 -1.307057,0.868474 -2.366809,2.023863 -3.389846,3.214999 0.09662,0.480102 0.121719,0.989229 0.06567,1.52152 -0.436677,4.212918 -6.060964,9.436323 -9.530029,12.286153 0,0 0,0 8.99e-4,0 0.652078,0.483004 2.728107,1.197895 3.67773,1.26069 5.734443,0.383529 10.812936,-0.289812 15.983214,-2.918421 4.605127,-2.342662 8.82674,-8.429704 6.086076,-13.649247 z m -8.095442,4.26895 c -1.178588,0 -2.133036,-0.954449 -2.133036,-2.133021 0,-1.178577 0.954448,-2.133027 2.133036,-2.133027 1.177599,0 2.133023,0.95445 2.133023,2.133027 0,1.178572 -0.955424,2.133021 -2.133023,2.133021 z" /></svg>
