<?xml version="1.0" encoding="UTF-8" standalone="no"?>
<svg
   xmlns:dc="http://purl.org/dc/elements/1.1/"
   xmlns:cc="http://creativecommons.org/ns#"
   xmlns:rdf="http://www.w3.org/1999/02/22-rdf-syntax-ns#"
   xmlns:svg="http://www.w3.org/2000/svg"
   xmlns="http://www.w3.org/2000/svg"
   xmlns:sodipodi="http://sodipodi.sourceforge.net/DTD/sodipodi-0.dtd"
   xmlns:inkscape="http://www.inkscape.org/namespaces/inkscape"
   inkscape:version="1.0 (4035a4fb49, 2020-05-01)"
   sodipodi:docname="trofeo_amarillo.svg"
   id="svg542"
   y="0px"
   x="0px"
   viewBox="0 0 64 80"
   version="1.1">
  <metadata
     id="metadata548">
    <rdf:RDF>
      <cc:Work
         rdf:about="">
        <dc:format>image/svg+xml</dc:format>
        <dc:type
           rdf:resource="http://purl.org/dc/dcmitype/StillImage" />
      </cc:Work>
    </rdf:RDF>
  </metadata>
  <defs
     id="defs546" />
  <sodipodi:namedview
     inkscape:current-layer="svg542"
     inkscape:window-maximized="1"
     inkscape:window-y="-8"
     inkscape:window-x="-8"
     inkscape:cy="34.052045"
     inkscape:cx="32"
     inkscape:zoom="6.725"
     showgrid="false"
     id="namedview544"
     inkscape:window-height="705"
     inkscape:window-width="1366"
     inkscape:pageshadow="2"
     inkscape:pageopacity="0"
     guidetolerance="10"
     gridtolerance="10"
     objecttolerance="10"
     borderopacity="1"
     bordercolor="#666666"
     pagecolor="#ffffff" />
  <title
     id="title534">trophy</title>
  <path
     id="path536"
     d="M60.13 6.352h-9.928v-3.309c0-0.914-0.741-1.655-1.655-1.655h-33.094c-0.914 0-1.655 0.74-1.655 1.655v3.309h-9.928c-0.914 0-1.655 0.741-1.655 1.655v4.964c0 11.139 7.427 20.91 18.159 23.892 1.492 1.267 3.184 2.279 5.007 2.992v9.519h-4.964c-2.742 0-4.964 2.223-4.964 4.964v4.964h-1.655v3.309h36.403v-3.309h-1.655v-4.964c0-2.742-2.223-4.964-4.964-4.964h-4.964v-9.519c1.824-0.713 3.516-1.724 5.009-2.992 10.731-2.983 18.157-12.754 18.158-23.892v-4.964c0-0.914-0.741-1.655-1.655-1.655zM5.525 12.971v-3.309h8.274v13.237c0.002 0.703 0.045 1.405 0.129 2.103 0.026 0.227 0.074 0.447 0.109 0.672 0.073 0.465 0.151 0.93 0.259 1.389 0.059 0.256 0.137 0.508 0.21 0.761 0.117 0.417 0.241 0.828 0.389 1.236 0.093 0.259 0.196 0.51 0.3 0.763 0.166 0.392 0.331 0.778 0.525 1.158 0.065 0.131 0.112 0.27 0.182 0.4-6.442-3.898-10.377-10.88-10.375-18.41zM58.475 12.971c0.002 7.529-3.933 14.511-10.375 18.409 0.073-0.136 0.123-0.281 0.191-0.417 0.182-0.37 0.351-0.745 0.509-1.126 0.108-0.259 0.214-0.519 0.31-0.784 0.143-0.4 0.266-0.809 0.384-1.219 0.072-0.258 0.151-0.513 0.213-0.774 0.106-0.456 0.184-0.918 0.257-1.383 0.035-0.225 0.083-0.445 0.109-0.674 0.084-0.698 0.127-1.4 0.129-2.103v-13.237h8.274z" />
  <path
     id="path550"
     d="m 13.858736,60.966543 v -1.635688 h 0.804627 0.804627 l 0.06202,-3.011152 c 0.07185,-3.488128 0.192968,-3.984284 1.263209,-5.17465 0.372149,-0.41392 1.018408,-0.932895 1.43613,-1.153278 0.747191,-0.394206 0.811889,-0.401467 3.993695,-0.448269 l 3.234201,-0.04757 -0.0098,-4.859492 -0.0098,-4.859491 -1.481988,-0.715935 C 23.14051,38.667254 22.02877,38.008381 21.485069,37.596855 20.774137,37.058752 20.076022,36.702507 18.99919,36.328321 17.057658,35.653662 14.365673,34.277286 12.714888,33.11524 10.991348,31.901981 8.0796677,28.980281 6.8317871,27.211896 4.9910168,24.60332 3.4073483,20.955404 2.7971259,17.918216 2.4094123,15.988494 2.2655379,14.092686 2.2627999,10.877491 2.2598964,7.4680302 2.3566948,7.0399425 3.2235542,6.6285908 3.6435576,6.4292861 4.4777982,6.394052 8.7767508,6.394052 h 5.0589432 l 0.0487,-2.0200047 0.0487,-2.0200048 0.485617,-0.4335268 0.485617,-0.4335269 H 32 49.09568 l 0.485617,0.4335269 0.485617,0.4335268 0.0487,2.0200048 0.0487,2.0200047 h 5.049017 c 5.692225,0 5.846055,0.023753 6.296107,0.9721647 0.242519,0.5110721 0.259789,0.9183182 0.188372,4.4420853 -0.04324,2.133687 -0.154803,4.314375 -0.247909,4.845973 -0.710861,4.058699 -2.1244,7.484922 -4.447726,10.780669 -1.112412,1.578009 -4.085557,4.5321 -5.717055,5.680418 -1.63429,1.150281 -4.346303,2.540546 -6.19961,3.178119 -0.982924,0.338144 -1.749031,0.729057 -2.518482,1.28508 -0.608214,0.439507 -1.758065,1.113945 -2.555227,1.498748 l -1.449384,0.699643 -0.0098,4.859491 -0.0098,4.859492 3.234201,0.04757 c 3.181806,0.0468 3.246504,0.05406 3.993695,0.448269 0.417722,0.220383 1.063981,0.739358 1.436129,1.153278 1.070241,1.190366 1.191361,1.686522 1.263209,5.17465 l 0.06202,3.011152 h 0.804626 0.804628 v 1.635688 1.635687 H 32 13.858736 Z m 2.081784,-29.64486 c 0,-0.02958 -0.193156,-0.481253 -0.429237,-1.003717 -0.663492,-1.468359 -1.165303,-3.208541 -1.420135,-4.924753 -0.185584,-1.249842 -0.232412,-2.991985 -0.232412,-8.646498 V 9.6654275 H 9.6208178 5.3828996 l 0.00131,1.3754645 c 0.00233,2.456433 0.2813029,5.338973 0.6723713,6.94744 1.0646565,4.378938 3.2184724,7.9904 6.5980191,11.063381 1.395542,1.268953 3.285921,2.574857 3.285921,2.26997 z m 33.423034,-0.671234 c 4.112538,-2.815732 7.24394,-7.397007 8.526091,-12.473758 0.449021,-1.77793 0.723626,-4.476439 0.72615,-7.135799 l 0.0013,-1.3754645 h -4.237918 -4.237918 v 7.0812875 c 0,5.654513 -0.04683,7.396656 -0.232412,8.646498 -0.254833,1.716212 -0.756644,3.456394 -1.420135,4.924753 -0.236081,0.522464 -0.429237,0.981295 -0.429237,1.019625 0,0.133518 0.457686,-0.107646 1.304074,-0.687142 z"
     style="fill:#ffcc00;stroke-width:0.148699" />
</svg>
