<?xml version="1.0" encoding="UTF-8" standalone="no"?>
<svg
   xmlns:dc="http://purl.org/dc/elements/1.1/"
   xmlns:cc="http://creativecommons.org/ns#"
   xmlns:rdf="http://www.w3.org/1999/02/22-rdf-syntax-ns#"
   xmlns:svg="http://www.w3.org/2000/svg"
   xmlns="http://www.w3.org/2000/svg"
   xmlns:sodipodi="http://sodipodi.sourceforge.net/DTD/sodipodi-0.dtd"
   xmlns:inkscape="http://www.inkscape.org/namespaces/inkscape"
   inkscape:version="1.0 (4035a4fb49, 2020-05-01)"
   height="46.384907"
   width="34.594406"
   sodipodi:docname="uvas_moradas.svg"
   id="svg184"
   version="1.1"
   y="0px"
   x="0px"
   viewBox="0 0 34.594406 46.384906"
   data-name="Layer 1">
  <metadata
     id="metadata190">
    <rdf:RDF>
      <cc:Work
         rdf:about="">
        <dc:format>image/svg+xml</dc:format>
        <dc:type
           rdf:resource="http://purl.org/dc/dcmitype/StillImage" />
      </cc:Work>
    </rdf:RDF>
  </metadata>
  <defs
     id="defs188" />
  <sodipodi:namedview
     inkscape:current-layer="svg184"
     inkscape:window-maximized="1"
     inkscape:window-y="-8"
     inkscape:window-x="-8"
     inkscape:cy="25.728795"
     inkscape:cx="17.609705"
     inkscape:zoom="9.281863"
     showgrid="false"
     id="namedview186"
     inkscape:window-height="705"
     inkscape:window-width="1366"
     inkscape:pageshadow="2"
     inkscape:pageopacity="0"
     guidetolerance="10"
     gridtolerance="10"
     objecttolerance="10"
     borderopacity="1"
     bordercolor="#666666"
     pagecolor="#ffffff" />
  <title
     id="title176">grapes</title>
  <path
     id="path178"
     d="m 34.594407,21.361615 a 6.18,6.18 0 0 0 -6.18,-6.18 c -0.2,0 -0.4,0 -0.6,0 a 6.18,6.18 0 0 0 -9.73,-7.5999999 4.37,4.37 0 0 1 7.16,-4.56 l 1.26,-1.3 a 6.18,6.18 0 0 0 -10.41,5.24 6.17,6.17 0 0 0 -9.1300001,8.2399999 6.18,6.18 0 1 0 -0.77,12.31 h 0.16 a 6.18,6.18 0 0 0 5.0900001,9.67 h 0.38 a 6.18,6.18 0 1 0 10.78,0 h 0.38 a 6.18,6.18 0 0 0 5.09,-9.68 h 0.34 a 6.18,6.18 0 0 0 6.18,-6.14 z" />
  <path
     id="path192"
     d="m 15.739924,46.135906 c -0.790694,-0.191408 -1.908284,-0.775 -2.568113,-1.34104 -0.69247,-0.59404 -1.417529,-1.722495 -1.757541,-2.735373 -0.465732,-1.387394 -0.384426,-2.954277 0.225462,-4.344958 l 0.248055,-0.565619 -0.451953,-0.0019 C 9.3755835,37.138517 7.0581294,35.751527 6.1219497,33.966699 5.5316109,32.841217 5.3847301,32.251719 5.3847301,31.007907 c 0,-1.211303 0.1467137,-1.823274 0.6844631,-2.85503 0.154419,-0.296277 0.2972001,-0.575046 0.3172914,-0.619488 0.020091,-0.04444 -0.1590508,-0.0808 -0.3980935,-0.0808 -0.7337492,0 -1.5354139,-0.215283 -2.4784652,-0.66558 C 2.0002298,26.066142 0.88610971,24.761144 0.30703036,23.03537 0.01308611,22.159356 0.02901737,20.521452 0.34113112,19.529443 1.1289974,17.025324 3.4805066,15.272221 6.0987794,15.236988 L 7.0314761,15.224438 6.7650475,14.79349 C 5.1773762,12.225433 5.4938228,9.2935539 7.5858491,7.1887576 8.4648898,6.3043512 9.2925593,5.8236093 10.440897,5.5304378 c 1.706432,-0.4356539 3.786082,0.017626 5.175674,1.1280891 l 0.430948,0.344383 0.06865,-1.0067432 c 0.121351,-1.7797346 0.740923,-3.1191265 1.978245,-4.2765801 0.803769,-0.75188605 1.922253,-1.33437483 2.939592,-1.53089137 0.995092,-0.19221913 2.390715,-0.0789786 3.309261,0.26851256 0.725961,0.27463508 1.890145,0.98705991 1.957871,1.19812411 0.018,0.05609 -0.200112,0.3650331 -0.484687,0.68654 L 25.299039,2.9264298 24.785369,2.5730154 C 23.913421,1.9730999 23.205661,1.7830999 22.018426,1.8302238 21.119435,1.8659068 20.895064,1.9161638 20.277538,2.220171 19.363823,2.6699916 18.474963,3.6085969 18.14321,4.4739474 17.856699,5.2212871 17.751675,6.5289932 17.926278,7.1750626 l 0.124816,0.4618469 0.614267,-0.5490161 c 0.756012,-0.6757036 1.87813,-1.2419123 2.876744,-1.4515741 0.948426,-0.1991246 1.528711,-0.1996715 2.460152,-0.00232 3.602015,0.763191 5.718805,4.4657127 4.541902,7.9443377 -0.140059,0.413981 -0.378972,0.94055 -0.530915,1.170152 -0.151944,0.229603 -0.276261,0.44274 -0.276261,0.473637 0,0.0309 0.344493,0.05618 0.765542,0.05618 2.045677,0 3.857353,1.014619 5.055008,2.831029 1.959296,2.971545 0.775472,7.110615 -2.480704,8.673421 -0.912857,0.438129 -1.817227,0.669831 -2.614452,0.669831 -0.231077,0 -0.403979,0.03636 -0.384227,0.0808 0.01975,0.04444 0.189544,0.395934 0.377315,0.781092 0.338033,0.693374 0.682098,2.052 0.682098,2.693426 0,0.635815 -0.34213,1.982631 -0.681731,2.68367 -0.198389,0.409536 -0.629851,1.011679 -1.028457,1.435303 -1.13788,1.209299 -2.401294,1.828794 -4.030848,1.976461 -0.457006,0.04141 -0.83092,0.08682 -0.83092,0.100898 0,0.01408 0.114888,0.286163 0.255307,0.604627 1.010919,2.292713 0.504409,4.847628 -1.323403,6.675438 -1.564296,1.564298 -3.64849,2.162161 -5.757587,1.651601 z"
     style="fill:#4400aa;stroke-width:0.107737" />
</svg>
